M48
INCH
T1C0.0118
T2C0.0197
T3C0.0394
T4C0.0866
T5C0.0984
T6C0.1063
T7C0.1181
T8C0.1260
T9C0.1378
T10C0.0866
T11C0.0984
T12C0.1063
T13C0.1181
T14C0.1260
T15C0.1378
%
G90
G05
T1
X062953Y-032992
X062953Y-033976
X062953Y-035000
X062953Y-035984
X062992Y-040984
X062992Y-041969
T2
X062913Y-036969
X062913Y-038976
X062953Y-037992
X062953Y-040000
T3
X050352Y-033097
X050352Y-034097
X050352Y-035097
X050352Y-036097
X050352Y-037097
X050352Y-038097
X050352Y-039097
X050352Y-040097
X050352Y-041097
X050352Y-042097
X057000Y-033095
X057000Y-034095
X057000Y-035095
X057000Y-036095
X057000Y-037095
X057000Y-038095
X057000Y-039095
X057000Y-040095
X057000Y-041095
X057000Y-042095
T4
X049606Y-051181
T5
X051969Y-051181
T6
X054724Y-051181
T7
X050000Y-053937
T8
X053150Y-053937
T9
X056299Y-053937
T10
X049606Y-044882
T11
X051969Y-044882
T12
X054724Y-044882
T13
X050000Y-047638
T14
X053150Y-047638
T15
X056299Y-047638
T3
X059667Y-043800G85X060690Y-043800
G05
X059745Y-046281G85X060611Y-046281
G05
X062068Y-044509G85X062068Y-045375
G05
M30
