%TF.GenerationSoftware,KiCad,Pcbnew,10.0.0*%
%TF.CreationDate,2026-09-10T15:07:54-06:00*%
%TF.ProjectId,Arduino UNO,41726475-696e-46f2-9055-4e4f2e6b6963,1*%
%TF.SameCoordinates,Original*%
%TF.FileFunction,Soldermask,Bot*%
%TF.FilePolarity,Negative*%
%FSLAX46Y46*%
G04 Gerber Fmt 4.6, Leading zero omitted, Abs format (unit mm)*
G04 Created by KiCad (PCBNEW 10.0.0) date 2026-09-10 15:07:54*
%MOMM*%
%LPD*%
G01*
G04 APERTURE LIST*
%ADD10C,1.500000*%
%ADD11R,1.700000X1.700000*%
%ADD12O,1.700000X1.700000*%
%ADD13R,1.600000X1.600000*%
%ADD14O,1.600000X1.600000*%
%ADD15C,0.650000*%
%ADD16O,2.100000X1.000000*%
%ADD17O,1.800000X1.000000*%
%ADD18R,1.422400X1.422400*%
%ADD19C,1.422400*%
%ADD20R,2.000000X4.500000*%
%ADD21O,2.000000X4.000000*%
%ADD22O,4.000000X2.000000*%
%ADD23R,1.000000X1.500000*%
G04 APERTURE END LIST*
D10*
%TO.C,Y2*%
X135574100Y-105511600D03*
X130694100Y-105511600D03*
%TD*%
D11*
%TO.C,J4*%
X155867100Y-80873600D03*
D12*
X153327100Y-80873600D03*
X150787100Y-80873600D03*
X148247100Y-80873600D03*
X145707100Y-80873600D03*
X143167100Y-80873600D03*
X140627100Y-80873600D03*
X138087100Y-80873600D03*
X135547100Y-80873600D03*
X133007100Y-80873600D03*
%TD*%
D13*
%TO.C,U4*%
X177076100Y-111480600D03*
D14*
X174536100Y-111480600D03*
X171996100Y-111480600D03*
X169456100Y-111480600D03*
X166916100Y-111480600D03*
X164376100Y-111480600D03*
X161836100Y-111480600D03*
X159296100Y-111480600D03*
X156756100Y-111480600D03*
X154216100Y-111480600D03*
X151676100Y-111480600D03*
X149136100Y-111480600D03*
X146596100Y-111480600D03*
X144056100Y-111480600D03*
X144056100Y-119100600D03*
X146596100Y-119100600D03*
X149136100Y-119100600D03*
X151676100Y-119100600D03*
X154216100Y-119100600D03*
X156756100Y-119100600D03*
X159296100Y-119100600D03*
X161836100Y-119100600D03*
X164376100Y-119100600D03*
X166916100Y-119100600D03*
X169456100Y-119100600D03*
X171996100Y-119100600D03*
X174536100Y-119100600D03*
X177076100Y-119100600D03*
%TD*%
D15*
%TO.C,J8*%
X120455000Y-90683600D03*
X120455000Y-96463600D03*
D16*
X120955000Y-89253600D03*
D17*
X116775000Y-89253600D03*
D16*
X120955000Y-97893600D03*
D17*
X116775000Y-97893600D03*
%TD*%
D11*
%TO.C,J6*%
X165011000Y-129133600D03*
D12*
X167551000Y-129133600D03*
X170091000Y-129133600D03*
X172631000Y-129133600D03*
X175171000Y-129133600D03*
X177711000Y-129133600D03*
%TD*%
D11*
%TO.C,J7*%
X142151100Y-129133600D03*
D12*
X144691100Y-129133600D03*
X147231100Y-129133600D03*
X149771100Y-129133600D03*
X152311100Y-129133600D03*
X154851100Y-129133600D03*
X157391100Y-129133600D03*
X159931100Y-129133600D03*
%TD*%
D18*
%TO.C,J2*%
X135039000Y-91796000D03*
D19*
X132499000Y-91796000D03*
X135039000Y-89256000D03*
X132499000Y-89256000D03*
%TD*%
D20*
%TO.C,J9*%
X126120000Y-123360000D03*
D21*
X119920000Y-123360000D03*
D22*
X122920000Y-128060000D03*
%TD*%
D11*
%TO.C,J5*%
X177711100Y-80873600D03*
D12*
X175171100Y-80873600D03*
X172631100Y-80873600D03*
X170091100Y-80873600D03*
X167551100Y-80873600D03*
X165011100Y-80873600D03*
X162471100Y-80873600D03*
X159931100Y-80873600D03*
%TD*%
D11*
%TO.C,J1*%
X135039100Y-84175600D03*
D12*
X135039100Y-86715600D03*
X132499100Y-84175600D03*
X132499100Y-86715600D03*
X129959100Y-84175600D03*
X129959100Y-86715600D03*
%TD*%
D11*
%TO.C,J3*%
X177838100Y-101193600D03*
D12*
X180378100Y-101193600D03*
X177838100Y-103733600D03*
X180378100Y-103733600D03*
X177838100Y-106273600D03*
X180378100Y-106273600D03*
%TD*%
D23*
%TO.C,JP2*%
X126291100Y-91033600D03*
X124991100Y-91033600D03*
%TD*%
M02*
