%TF.GenerationSoftware,KiCad,Pcbnew,10.0.0*%
%TF.CreationDate,2026-09-10T15:07:54-06:00*%
%TF.ProjectId,Arduino UNO,41726475-696e-46f2-9055-4e4f2e6b6963,1*%
%TF.SameCoordinates,Original*%
%TF.FileFunction,Profile,NP*%
%FSLAX46Y46*%
G04 Gerber Fmt 4.6, Leading zero omitted, Abs format (unit mm)*
G04 Created by KiCad (PCBNEW 10.0.0) date 2026-09-10 15:07:54*
%MOMM*%
%LPD*%
G01*
G04 APERTURE LIST*
%TA.AperFunction,Profile*%
%ADD10C,0.254000*%
%TD*%
%TA.AperFunction,Profile*%
%ADD11C,0.050000*%
%TD*%
G04 APERTURE END LIST*
D10*
X180251100Y-79857600D02*
X180251100Y-91287600D01*
X178727100Y-78333600D02*
X180251100Y-79857600D01*
X114211100Y-79333600D02*
G75*
G02*
X115211100Y-78333600I1000000J0D01*
G01*
D11*
X131051100Y-80873600D02*
G75*
G02*
X127851100Y-80873600I-1600000J0D01*
G01*
X127851100Y-80873600D02*
G75*
G02*
X131051100Y-80873600I1600000J0D01*
G01*
D10*
X115211100Y-78333600D02*
X178727100Y-78333600D01*
X182791100Y-126593600D02*
X180251100Y-129133600D01*
X115211100Y-131673600D02*
G75*
G02*
X114211100Y-130673600I0J1000000D01*
G01*
X180251100Y-129133600D02*
X180251100Y-130673600D01*
D11*
X181851100Y-124053600D02*
G75*
G02*
X178651100Y-124053600I-1600000J0D01*
G01*
X178651100Y-124053600D02*
G75*
G02*
X181851100Y-124053600I1600000J0D01*
G01*
D10*
X180251100Y-91287600D02*
X182791100Y-93827600D01*
X179251100Y-131673600D02*
X115211100Y-131673600D01*
X180251100Y-130673600D02*
G75*
G02*
X179251100Y-131673600I-1000000J0D01*
G01*
X182791100Y-93827600D02*
X182791100Y-126593600D01*
D11*
X129781100Y-129133600D02*
G75*
G02*
X126581100Y-129133600I-1600000J0D01*
G01*
X126581100Y-129133600D02*
G75*
G02*
X129781100Y-129133600I1600000J0D01*
G01*
D10*
X114211100Y-130673600D02*
X114211100Y-79333600D01*
D11*
X181851100Y-96113600D02*
G75*
G02*
X178651100Y-96113600I-1600000J0D01*
G01*
X178651100Y-96113600D02*
G75*
G02*
X181851100Y-96113600I1600000J0D01*
G01*
M02*
