%TF.GenerationSoftware,KiCad,Pcbnew,10.0.0*%
%TF.CreationDate,2026-09-10T15:07:39-06:00*%
%TF.ProjectId,Arduino UNO,41726475-696e-46f2-9055-4e4f2e6b6963,1*%
%TF.SameCoordinates,Original*%
%TF.FileFunction,Plated,1,2,PTH,Mixed*%
%TF.FilePolarity,Positive*%
%FSLAX46Y46*%
G04 Gerber Fmt 4.6, Leading zero omitted, Abs format (unit mm)*
G04 Created by KiCad (PCBNEW 10.0.0) date 2026-09-10 15:07:39*
%MOMM*%
%LPD*%
G01*
G04 APERTURE LIST*
%TA.AperFunction,ViaDrill*%
%ADD10C,0.300000*%
%TD*%
G04 aperture for slot hole*
%TA.AperFunction,ComponentDrill*%
%ADD11C,0.600000*%
%TD*%
%TA.AperFunction,ViaDrill*%
%ADD12C,0.609600*%
%TD*%
%TA.AperFunction,ComponentDrill*%
%ADD13C,0.800000*%
%TD*%
%TA.AperFunction,ComponentDrill*%
%ADD14C,0.914400*%
%TD*%
G04 aperture for slot hole*
%TA.AperFunction,ComponentDrill*%
%ADD15C,1.000000*%
%TD*%
%TA.AperFunction,ComponentDrill*%
%ADD16C,1.000000*%
%TD*%
G04 APERTURE END LIST*
D10*
X122428000Y-90363392D03*
X123250201Y-93822940D03*
X124880368Y-96917905D03*
X124895745Y-95332683D03*
X128833339Y-92241214D03*
X137287000Y-109855000D03*
%TO.C,J8*%
D11*
X116375000Y-89253600D02*
X117175000Y-89253600D01*
X116375000Y-97893600D02*
X117175000Y-97893600D01*
X120405000Y-89253600D02*
X121505000Y-89253600D01*
X120405000Y-97893600D02*
X121505000Y-97893600D01*
%TD*%
D12*
X116659900Y-110081400D03*
X116659900Y-114272400D03*
X116659900Y-118336400D03*
X119199900Y-111351400D03*
X119199900Y-117066400D03*
X121104900Y-102842400D03*
X121104900Y-107541400D03*
X121739900Y-111986400D03*
X121739900Y-116431400D03*
X123009900Y-110081400D03*
X123009900Y-118336400D03*
X123063000Y-84038000D03*
X124625100Y-81762600D03*
X125641100Y-118973600D03*
X126347513Y-100292012D03*
X126580900Y-110172500D03*
X126676100Y-106908600D03*
X128308100Y-114528600D03*
X130873500Y-124790200D03*
X131094894Y-119999546D03*
X132875497Y-110670360D03*
X133134100Y-105511600D03*
X133146800Y-97993200D03*
X135801100Y-129154200D03*
X136182100Y-120116600D03*
X136462033Y-90272735D03*
X136778854Y-85022359D03*
X136867900Y-113220500D03*
X139128607Y-103975575D03*
X139255607Y-91021575D03*
X139446000Y-83261200D03*
X139446100Y-94081600D03*
X139750800Y-112344200D03*
X139841600Y-107130800D03*
X140208100Y-101828600D03*
X141111600Y-110170600D03*
X142011400Y-123621800D03*
X143421100Y-125450600D03*
X144310100Y-100177600D03*
X144399000Y-102362000D03*
X144589500Y-94030800D03*
X144843500Y-97358200D03*
X144967400Y-90693800D03*
X145338800Y-121107200D03*
X145619000Y-92989400D03*
X145832200Y-95980200D03*
X146075400Y-101625400D03*
X146608800Y-106756200D03*
X147142200Y-100533200D03*
X147751800Y-105613200D03*
X150532800Y-103340200D03*
X151968200Y-115341400D03*
X157543500Y-100152200D03*
X157899100Y-80873600D03*
X161251900Y-106133900D03*
X161353500Y-102438200D03*
X162458400Y-123367800D03*
X162471100Y-129133600D03*
X163080700Y-106057700D03*
X168821100Y-82524600D03*
X170535600Y-100406200D03*
X173558200Y-113487200D03*
X173609000Y-106934000D03*
X175425100Y-98780600D03*
X176047400Y-114452400D03*
X178879500Y-84277200D03*
X178879500Y-91135200D03*
X181419500Y-120980200D03*
X181444900Y-113969800D03*
D13*
%TO.C,Y2*%
X130694100Y-105511600D03*
X135574100Y-105511600D03*
%TO.C,U4*%
X144056100Y-111480600D03*
X144056100Y-119100600D03*
X146596100Y-111480600D03*
X146596100Y-119100600D03*
X149136100Y-111480600D03*
X149136100Y-119100600D03*
X151676100Y-111480600D03*
X151676100Y-119100600D03*
X154216100Y-111480600D03*
X154216100Y-119100600D03*
X156756100Y-111480600D03*
X156756100Y-119100600D03*
X159296100Y-111480600D03*
X159296100Y-119100600D03*
X161836100Y-111480600D03*
X161836100Y-119100600D03*
X164376100Y-111480600D03*
X164376100Y-119100600D03*
X166916100Y-111480600D03*
X166916100Y-119100600D03*
X169456100Y-111480600D03*
X169456100Y-119100600D03*
X171996100Y-111480600D03*
X171996100Y-119100600D03*
X174536100Y-111480600D03*
X174536100Y-119100600D03*
X177076100Y-111480600D03*
X177076100Y-119100600D03*
D14*
%TO.C,J2*%
X132499000Y-89256000D03*
X132499000Y-91796000D03*
X135039000Y-89256000D03*
X135039000Y-91796000D03*
%TO.C,J9*%
D15*
X119920000Y-124360000D02*
X119920000Y-122360000D01*
X123920000Y-128060000D02*
X121920000Y-128060000D01*
X126120000Y-124610000D02*
X126120000Y-122110000D01*
D16*
%TO.C,J1*%
X129959100Y-84175600D03*
X129959100Y-86715600D03*
X132499100Y-84175600D03*
X132499100Y-86715600D03*
%TO.C,J4*%
X133007100Y-80873600D03*
%TO.C,J1*%
X135039100Y-84175600D03*
X135039100Y-86715600D03*
%TO.C,J4*%
X135547100Y-80873600D03*
X138087100Y-80873600D03*
X140627100Y-80873600D03*
%TO.C,J7*%
X142151100Y-129133600D03*
%TO.C,J4*%
X143167100Y-80873600D03*
%TO.C,J7*%
X144691100Y-129133600D03*
%TO.C,J4*%
X145707100Y-80873600D03*
%TO.C,J7*%
X147231100Y-129133600D03*
%TO.C,J4*%
X148247100Y-80873600D03*
%TO.C,J7*%
X149771100Y-129133600D03*
%TO.C,J4*%
X150787100Y-80873600D03*
%TO.C,J7*%
X152311100Y-129133600D03*
%TO.C,J4*%
X153327100Y-80873600D03*
%TO.C,J7*%
X154851100Y-129133600D03*
%TO.C,J4*%
X155867100Y-80873600D03*
%TO.C,J7*%
X157391100Y-129133600D03*
%TO.C,J5*%
X159931100Y-80873600D03*
%TO.C,J7*%
X159931100Y-129133600D03*
%TO.C,J5*%
X162471100Y-80873600D03*
%TO.C,J6*%
X165011000Y-129133600D03*
%TO.C,J5*%
X165011100Y-80873600D03*
%TO.C,J6*%
X167551000Y-129133600D03*
%TO.C,J5*%
X167551100Y-80873600D03*
%TO.C,J6*%
X170091000Y-129133600D03*
%TO.C,J5*%
X170091100Y-80873600D03*
%TO.C,J6*%
X172631000Y-129133600D03*
%TO.C,J5*%
X172631100Y-80873600D03*
%TO.C,J6*%
X175171000Y-129133600D03*
%TO.C,J5*%
X175171100Y-80873600D03*
%TO.C,J6*%
X177711000Y-129133600D03*
%TO.C,J5*%
X177711100Y-80873600D03*
%TO.C,J3*%
X177838100Y-101193600D03*
X177838100Y-103733600D03*
X177838100Y-106273600D03*
X180378100Y-101193600D03*
X180378100Y-103733600D03*
X180378100Y-106273600D03*
M02*
