%TF.GenerationSoftware,KiCad,Pcbnew,10.0.0*%
%TF.CreationDate,2026-09-10T15:07:54-06:00*%
%TF.ProjectId,Arduino UNO,41726475-696e-46f2-9055-4e4f2e6b6963,1*%
%TF.SameCoordinates,Original*%
%TF.FileFunction,Legend,Bot*%
%TF.FilePolarity,Positive*%
%FSLAX46Y46*%
G04 Gerber Fmt 4.6, Leading zero omitted, Abs format (unit mm)*
G04 Created by KiCad (PCBNEW 10.0.0) date 2026-09-10 15:07:54*
%MOMM*%
%LPD*%
G01*
G04 APERTURE LIST*
%ADD10C,0.100000*%
%ADD11C,0.000000*%
%ADD12C,0.200000*%
%ADD13C,0.400000*%
%ADD14C,0.120000*%
G04 APERTURE END LIST*
D10*
X171754800Y-101644000D02*
X173888400Y-101644000D01*
X173888400Y-106839200D01*
X171754800Y-106839200D01*
X171754800Y-101644000D01*
G36*
X171754800Y-101644000D02*
G01*
X173888400Y-101644000D01*
X173888400Y-106839200D01*
X171754800Y-106839200D01*
X171754800Y-101644000D01*
G37*
X153771600Y-128022346D02*
X158546800Y-128022346D01*
X158546800Y-131522346D01*
X153771600Y-131522346D01*
X153771600Y-128022346D01*
G36*
X153771600Y-128022346D02*
G01*
X158546800Y-128022346D01*
X158546800Y-131522346D01*
X153771600Y-131522346D01*
X153771600Y-128022346D01*
G37*
X154590000Y-101644000D02*
X162313600Y-101644000D01*
X162313600Y-106839200D01*
X154590000Y-106839200D01*
X154590000Y-101644000D01*
X162313600Y-101644000D02*
X164541200Y-101644000D01*
X164541200Y-106839200D01*
X162313600Y-106839200D01*
X162313600Y-101644000D01*
G36*
X162313600Y-101644000D02*
G01*
X164541200Y-101644000D01*
X164541200Y-106839200D01*
X162313600Y-106839200D01*
X162313600Y-101644000D01*
G37*
D11*
G36*
X165753256Y-90069479D02*
G01*
X167061753Y-90073460D01*
X167594669Y-90076887D01*
X168054139Y-90081459D01*
X168445743Y-90087315D01*
X168775062Y-90094593D01*
X169047678Y-90103434D01*
X169269172Y-90113978D01*
X169445124Y-90126363D01*
X169581116Y-90140730D01*
X169635871Y-90148699D01*
X169682729Y-90157217D01*
X169722387Y-90166299D01*
X169755543Y-90175964D01*
X169782895Y-90186230D01*
X169805140Y-90197112D01*
X169822976Y-90208629D01*
X169837101Y-90220799D01*
X169855240Y-90239288D01*
X169872155Y-90258985D01*
X169887848Y-90279816D01*
X169902325Y-90301706D01*
X169915587Y-90324579D01*
X169927639Y-90348361D01*
X169938485Y-90372976D01*
X169948126Y-90398351D01*
X169956568Y-90424409D01*
X169963814Y-90451076D01*
X169974729Y-90505935D01*
X169980901Y-90562329D01*
X169982357Y-90619658D01*
X169979124Y-90677322D01*
X169971232Y-90734721D01*
X169958707Y-90791255D01*
X169941578Y-90846324D01*
X169931295Y-90873121D01*
X169919872Y-90899327D01*
X169907312Y-90924867D01*
X169893618Y-90949666D01*
X169878794Y-90973649D01*
X169862843Y-90996740D01*
X169845769Y-91018865D01*
X169827575Y-91039949D01*
X169756956Y-91093806D01*
X169614453Y-91135050D01*
X169343363Y-91165356D01*
X168886981Y-91186396D01*
X167191531Y-91207380D01*
X164074475Y-91211399D01*
X162408363Y-91210320D01*
X161102229Y-91206339D01*
X160570236Y-91202911D01*
X160111536Y-91198339D01*
X159720562Y-91192484D01*
X159391747Y-91185205D01*
X159119525Y-91176364D01*
X158898327Y-91165820D01*
X158722586Y-91153435D01*
X158586736Y-91139068D01*
X158532031Y-91131099D01*
X158485210Y-91122581D01*
X158445578Y-91113499D01*
X158412440Y-91103834D01*
X158385099Y-91093569D01*
X158362859Y-91082686D01*
X158345025Y-91071169D01*
X158330901Y-91058999D01*
X158313600Y-91040375D01*
X158297415Y-91020286D01*
X158282346Y-90998829D01*
X158268393Y-90976102D01*
X158255557Y-90952204D01*
X158243836Y-90927231D01*
X158233232Y-90901281D01*
X158223745Y-90874453D01*
X158208118Y-90818549D01*
X158196956Y-90760301D01*
X158190258Y-90700491D01*
X158188026Y-90639899D01*
X158190258Y-90579307D01*
X158196956Y-90519497D01*
X158208118Y-90461249D01*
X158223745Y-90405346D01*
X158233232Y-90378517D01*
X158243836Y-90352568D01*
X158255557Y-90327595D01*
X158268393Y-90303696D01*
X158282346Y-90280970D01*
X158297415Y-90259513D01*
X158313600Y-90239423D01*
X158330901Y-90220799D01*
X158412459Y-90175964D01*
X158586885Y-90140730D01*
X158898829Y-90113978D01*
X159392938Y-90094593D01*
X161106247Y-90073460D01*
X164084000Y-90068400D01*
X165753256Y-90069479D01*
G37*
G36*
X164274500Y-86953725D02*
G01*
X170418125Y-86972774D01*
X171056299Y-87287100D01*
X171199346Y-87361839D01*
X171338961Y-87442997D01*
X171474837Y-87530294D01*
X171606666Y-87623451D01*
X171734142Y-87722189D01*
X171856958Y-87826229D01*
X171974807Y-87935292D01*
X172087381Y-88049099D01*
X172194375Y-88167371D01*
X172295480Y-88289829D01*
X172390391Y-88416193D01*
X172478800Y-88546185D01*
X172560399Y-88679526D01*
X172634883Y-88815936D01*
X172701944Y-88955137D01*
X172761276Y-89096849D01*
X172816528Y-89251640D01*
X172864413Y-89421666D01*
X172904932Y-89604753D01*
X172938083Y-89798723D01*
X172963867Y-90001399D01*
X172982285Y-90210604D01*
X172993335Y-90424163D01*
X172997019Y-90639899D01*
X172993335Y-90855635D01*
X172982285Y-91069194D01*
X172963867Y-91278400D01*
X172938083Y-91481076D01*
X172904932Y-91675045D01*
X172864413Y-91858132D01*
X172816528Y-92028159D01*
X172761276Y-92182949D01*
X172701944Y-92324661D01*
X172634883Y-92463862D01*
X172560399Y-92600272D01*
X172478800Y-92733613D01*
X172390391Y-92863605D01*
X172295480Y-92989969D01*
X172194375Y-93112427D01*
X172087381Y-93230699D01*
X171974807Y-93344506D01*
X171856958Y-93453569D01*
X171734142Y-93557609D01*
X171606666Y-93656347D01*
X171474837Y-93749504D01*
X171338961Y-93836801D01*
X171199346Y-93917959D01*
X171056299Y-93992698D01*
X170418125Y-94307024D01*
X157749876Y-94307024D01*
X157111701Y-93992698D01*
X156899528Y-93880208D01*
X156698852Y-93757141D01*
X156509784Y-93623637D01*
X156332437Y-93479837D01*
X156166921Y-93325879D01*
X156013349Y-93161903D01*
X155871832Y-92988049D01*
X155742482Y-92804455D01*
X155625410Y-92611262D01*
X155520728Y-92408610D01*
X155428548Y-92196636D01*
X155348981Y-91975483D01*
X155282138Y-91745287D01*
X155228132Y-91506190D01*
X155187074Y-91258331D01*
X155159076Y-91001849D01*
X155149223Y-90862134D01*
X155144547Y-90718610D01*
X155144718Y-90639899D01*
X156416376Y-90639899D01*
X156417715Y-90961572D01*
X156419892Y-91095836D01*
X156423520Y-91214822D01*
X156428933Y-91320357D01*
X156436468Y-91414270D01*
X156446458Y-91498389D01*
X156459238Y-91574540D01*
X156466780Y-91610199D01*
X156475144Y-91644552D01*
X156484374Y-91677827D01*
X156494511Y-91710253D01*
X156505596Y-91742057D01*
X156517672Y-91773470D01*
X156544963Y-91836031D01*
X156576720Y-91899764D01*
X156613275Y-91966497D01*
X156654966Y-92038058D01*
X156702126Y-92116274D01*
X156741563Y-92178926D01*
X156781433Y-92238425D01*
X156821944Y-92294966D01*
X156863307Y-92348744D01*
X156905730Y-92399954D01*
X156949422Y-92448793D01*
X156994594Y-92495456D01*
X157041454Y-92540136D01*
X157090211Y-92583031D01*
X157141076Y-92624336D01*
X157194256Y-92664245D01*
X157249962Y-92702954D01*
X157308403Y-92740659D01*
X157369787Y-92777555D01*
X157434325Y-92813836D01*
X157502226Y-92849699D01*
X158007051Y-93116399D01*
X164074475Y-93116399D01*
X166292181Y-93115878D01*
X167182571Y-93113636D01*
X167942964Y-93108660D01*
X168278079Y-93104815D01*
X168585095Y-93099888D01*
X168865479Y-93093748D01*
X169120697Y-93086261D01*
X169352217Y-93077296D01*
X169561505Y-93066718D01*
X169750028Y-93054397D01*
X169919253Y-93040199D01*
X170070646Y-93023992D01*
X170205675Y-93005643D01*
X170325806Y-92985020D01*
X170432505Y-92961990D01*
X170527240Y-92936420D01*
X170570580Y-92922642D01*
X170611478Y-92908179D01*
X170650118Y-92893015D01*
X170686685Y-92877133D01*
X170721360Y-92860517D01*
X170754327Y-92843150D01*
X170815873Y-92806098D01*
X170872787Y-92765844D01*
X170926538Y-92722254D01*
X170978593Y-92675198D01*
X171030416Y-92624542D01*
X171083477Y-92570153D01*
X171199174Y-92449649D01*
X171284709Y-92356766D01*
X171362848Y-92263353D01*
X171433788Y-92168657D01*
X171497724Y-92071923D01*
X171554851Y-91972399D01*
X171605364Y-91869331D01*
X171649459Y-91761965D01*
X171687331Y-91649549D01*
X171719176Y-91531328D01*
X171745188Y-91406550D01*
X171765564Y-91274460D01*
X171780498Y-91134306D01*
X171790185Y-90985333D01*
X171794822Y-90826790D01*
X171794604Y-90657921D01*
X171789725Y-90477974D01*
X171775028Y-90221859D01*
X171766912Y-90111529D01*
X171757876Y-90011398D01*
X171747611Y-89920252D01*
X171735812Y-89836878D01*
X171722171Y-89760062D01*
X171706381Y-89688590D01*
X171688136Y-89621247D01*
X171667128Y-89556821D01*
X171643050Y-89494097D01*
X171615596Y-89431861D01*
X171584458Y-89368900D01*
X171549330Y-89303999D01*
X171509904Y-89235945D01*
X171465874Y-89163524D01*
X171426437Y-89100872D01*
X171386568Y-89041374D01*
X171346057Y-88984833D01*
X171304694Y-88931055D01*
X171262271Y-88879844D01*
X171218578Y-88831005D01*
X171173407Y-88784343D01*
X171126547Y-88739662D01*
X171077790Y-88696767D01*
X171026925Y-88655462D01*
X170973745Y-88615553D01*
X170918039Y-88576844D01*
X170859598Y-88539139D01*
X170798214Y-88502244D01*
X170733676Y-88465962D01*
X170665775Y-88430099D01*
X170160950Y-88163399D01*
X158007051Y-88163399D01*
X157502226Y-88430099D01*
X157434325Y-88465962D01*
X157369787Y-88502244D01*
X157308403Y-88539139D01*
X157249962Y-88576844D01*
X157194256Y-88615553D01*
X157141076Y-88655462D01*
X157090211Y-88696767D01*
X157041454Y-88739662D01*
X156994594Y-88784343D01*
X156949422Y-88831005D01*
X156905730Y-88879844D01*
X156863307Y-88931055D01*
X156821944Y-88984833D01*
X156781433Y-89041374D01*
X156741563Y-89100872D01*
X156702126Y-89163524D01*
X156613275Y-89313301D01*
X156576720Y-89380034D01*
X156544963Y-89443768D01*
X156517672Y-89506329D01*
X156494511Y-89569546D01*
X156475144Y-89635247D01*
X156459238Y-89705259D01*
X156446458Y-89781410D01*
X156436468Y-89865528D01*
X156428933Y-89959441D01*
X156423520Y-90064976D01*
X156417715Y-90318226D01*
X156416376Y-90639899D01*
X155144718Y-90639899D01*
X155144865Y-90572156D01*
X155149997Y-90423651D01*
X155159762Y-90273974D01*
X155173977Y-90124005D01*
X155192462Y-89974621D01*
X155215035Y-89826702D01*
X155241515Y-89681127D01*
X155271720Y-89538775D01*
X155305469Y-89400526D01*
X155342581Y-89267257D01*
X155382874Y-89139849D01*
X155426167Y-89019179D01*
X155472278Y-88906128D01*
X155521026Y-88801574D01*
X155604644Y-88651190D01*
X155697945Y-88503974D01*
X155800344Y-88360413D01*
X155911253Y-88220996D01*
X156030088Y-88086211D01*
X156156262Y-87956547D01*
X156289188Y-87832491D01*
X156428282Y-87714533D01*
X156572957Y-87603161D01*
X156722627Y-87498863D01*
X156876706Y-87402127D01*
X157034608Y-87313442D01*
X157195747Y-87233296D01*
X157359537Y-87162177D01*
X157525392Y-87100574D01*
X157692726Y-87048975D01*
X157879821Y-87019488D01*
X158205439Y-86995247D01*
X159358410Y-86962058D01*
X161323983Y-86948515D01*
X164274500Y-86953725D01*
G37*
D10*
X164541200Y-101644000D02*
X171754800Y-101644000D01*
X171754800Y-102920800D01*
X164541200Y-102920800D01*
X164541200Y-101644000D01*
G36*
X164541200Y-101644000D02*
G01*
X171754800Y-101644000D01*
X171754800Y-102920800D01*
X164541200Y-102920800D01*
X164541200Y-101644000D01*
G37*
X139471400Y-78486000D02*
X141771400Y-78486000D01*
X141771400Y-81986000D01*
X139471400Y-81986000D01*
X139471400Y-78486000D01*
G36*
X139471400Y-78486000D02*
G01*
X141771400Y-78486000D01*
X141771400Y-81986000D01*
X139471400Y-81986000D01*
X139471400Y-78486000D01*
G37*
X164541200Y-105867200D02*
X171754800Y-105867200D01*
X171754800Y-106839200D01*
X164541200Y-106839200D01*
X164541200Y-105867200D01*
G36*
X164541200Y-105867200D02*
G01*
X171754800Y-105867200D01*
X171754800Y-106839200D01*
X164541200Y-106839200D01*
X164541200Y-105867200D01*
G37*
X133941830Y-83018800D02*
X133827544Y-83056895D01*
X133827544Y-83056895D02*
X133637068Y-83056895D01*
X133637068Y-83056895D02*
X133560877Y-83018800D01*
X133560877Y-83018800D02*
X133522782Y-82980704D01*
X133522782Y-82980704D02*
X133484687Y-82904514D01*
X133484687Y-82904514D02*
X133484687Y-82828323D01*
X133484687Y-82828323D02*
X133522782Y-82752133D01*
X133522782Y-82752133D02*
X133560877Y-82714038D01*
X133560877Y-82714038D02*
X133637068Y-82675942D01*
X133637068Y-82675942D02*
X133789449Y-82637847D01*
X133789449Y-82637847D02*
X133865639Y-82599752D01*
X133865639Y-82599752D02*
X133903734Y-82561657D01*
X133903734Y-82561657D02*
X133941830Y-82485466D01*
X133941830Y-82485466D02*
X133941830Y-82409276D01*
X133941830Y-82409276D02*
X133903734Y-82333085D01*
X133903734Y-82333085D02*
X133865639Y-82294990D01*
X133865639Y-82294990D02*
X133789449Y-82256895D01*
X133789449Y-82256895D02*
X133598972Y-82256895D01*
X133598972Y-82256895D02*
X133484687Y-82294990D01*
X132684686Y-82980704D02*
X132722782Y-83018800D01*
X132722782Y-83018800D02*
X132837067Y-83056895D01*
X132837067Y-83056895D02*
X132913258Y-83056895D01*
X132913258Y-83056895D02*
X133027544Y-83018800D01*
X133027544Y-83018800D02*
X133103734Y-82942609D01*
X133103734Y-82942609D02*
X133141829Y-82866419D01*
X133141829Y-82866419D02*
X133179925Y-82714038D01*
X133179925Y-82714038D02*
X133179925Y-82599752D01*
X133179925Y-82599752D02*
X133141829Y-82447371D01*
X133141829Y-82447371D02*
X133103734Y-82371180D01*
X133103734Y-82371180D02*
X133027544Y-82294990D01*
X133027544Y-82294990D02*
X132913258Y-82256895D01*
X132913258Y-82256895D02*
X132837067Y-82256895D01*
X132837067Y-82256895D02*
X132722782Y-82294990D01*
X132722782Y-82294990D02*
X132684686Y-82333085D01*
X131960877Y-83056895D02*
X132341829Y-83056895D01*
X132341829Y-83056895D02*
X132341829Y-82256895D01*
X136631830Y-83018800D02*
X136517544Y-83056895D01*
X136517544Y-83056895D02*
X136327068Y-83056895D01*
X136327068Y-83056895D02*
X136250877Y-83018800D01*
X136250877Y-83018800D02*
X136212782Y-82980704D01*
X136212782Y-82980704D02*
X136174687Y-82904514D01*
X136174687Y-82904514D02*
X136174687Y-82828323D01*
X136174687Y-82828323D02*
X136212782Y-82752133D01*
X136212782Y-82752133D02*
X136250877Y-82714038D01*
X136250877Y-82714038D02*
X136327068Y-82675942D01*
X136327068Y-82675942D02*
X136479449Y-82637847D01*
X136479449Y-82637847D02*
X136555639Y-82599752D01*
X136555639Y-82599752D02*
X136593734Y-82561657D01*
X136593734Y-82561657D02*
X136631830Y-82485466D01*
X136631830Y-82485466D02*
X136631830Y-82409276D01*
X136631830Y-82409276D02*
X136593734Y-82333085D01*
X136593734Y-82333085D02*
X136555639Y-82294990D01*
X136555639Y-82294990D02*
X136479449Y-82256895D01*
X136479449Y-82256895D02*
X136288972Y-82256895D01*
X136288972Y-82256895D02*
X136174687Y-82294990D01*
X135831829Y-83056895D02*
X135831829Y-82256895D01*
X135831829Y-82256895D02*
X135641353Y-82256895D01*
X135641353Y-82256895D02*
X135527067Y-82294990D01*
X135527067Y-82294990D02*
X135450877Y-82371180D01*
X135450877Y-82371180D02*
X135412782Y-82447371D01*
X135412782Y-82447371D02*
X135374686Y-82599752D01*
X135374686Y-82599752D02*
X135374686Y-82714038D01*
X135374686Y-82714038D02*
X135412782Y-82866419D01*
X135412782Y-82866419D02*
X135450877Y-82942609D01*
X135450877Y-82942609D02*
X135527067Y-83018800D01*
X135527067Y-83018800D02*
X135641353Y-83056895D01*
X135641353Y-83056895D02*
X135831829Y-83056895D01*
X135069925Y-82828323D02*
X134688972Y-82828323D01*
X135146115Y-83056895D02*
X134879448Y-82256895D01*
X134879448Y-82256895D02*
X134612782Y-83056895D01*
D12*
X173248917Y-124238438D02*
X173344155Y-124190819D01*
X173344155Y-124190819D02*
X173487012Y-124190819D01*
X173487012Y-124190819D02*
X173629869Y-124238438D01*
X173629869Y-124238438D02*
X173725107Y-124333676D01*
X173725107Y-124333676D02*
X173772726Y-124428914D01*
X173772726Y-124428914D02*
X173820345Y-124619390D01*
X173820345Y-124619390D02*
X173820345Y-124762247D01*
X173820345Y-124762247D02*
X173772726Y-124952723D01*
X173772726Y-124952723D02*
X173725107Y-125047961D01*
X173725107Y-125047961D02*
X173629869Y-125143200D01*
X173629869Y-125143200D02*
X173487012Y-125190819D01*
X173487012Y-125190819D02*
X173391774Y-125190819D01*
X173391774Y-125190819D02*
X173248917Y-125143200D01*
X173248917Y-125143200D02*
X173201298Y-125095580D01*
X173201298Y-125095580D02*
X173201298Y-124762247D01*
X173201298Y-124762247D02*
X173391774Y-124762247D01*
X172772726Y-125190819D02*
X172772726Y-124190819D01*
X172439393Y-124190819D02*
X171867965Y-124190819D01*
X172153679Y-125190819D02*
X172153679Y-124190819D01*
X171534631Y-125190819D02*
X171534631Y-124190819D01*
X171534631Y-124667009D02*
X170963203Y-124667009D01*
X170963203Y-125190819D02*
X170963203Y-124190819D01*
X170487012Y-124190819D02*
X170487012Y-125000342D01*
X170487012Y-125000342D02*
X170439393Y-125095580D01*
X170439393Y-125095580D02*
X170391774Y-125143200D01*
X170391774Y-125143200D02*
X170296536Y-125190819D01*
X170296536Y-125190819D02*
X170106060Y-125190819D01*
X170106060Y-125190819D02*
X170010822Y-125143200D01*
X170010822Y-125143200D02*
X169963203Y-125095580D01*
X169963203Y-125095580D02*
X169915584Y-125000342D01*
X169915584Y-125000342D02*
X169915584Y-124190819D01*
X169106060Y-124667009D02*
X168963203Y-124714628D01*
X168963203Y-124714628D02*
X168915584Y-124762247D01*
X168915584Y-124762247D02*
X168867965Y-124857485D01*
X168867965Y-124857485D02*
X168867965Y-125000342D01*
X168867965Y-125000342D02*
X168915584Y-125095580D01*
X168915584Y-125095580D02*
X168963203Y-125143200D01*
X168963203Y-125143200D02*
X169058441Y-125190819D01*
X169058441Y-125190819D02*
X169439393Y-125190819D01*
X169439393Y-125190819D02*
X169439393Y-124190819D01*
X169439393Y-124190819D02*
X169106060Y-124190819D01*
X169106060Y-124190819D02*
X169010822Y-124238438D01*
X169010822Y-124238438D02*
X168963203Y-124286057D01*
X168963203Y-124286057D02*
X168915584Y-124381295D01*
X168915584Y-124381295D02*
X168915584Y-124476533D01*
X168915584Y-124476533D02*
X168963203Y-124571771D01*
X168963203Y-124571771D02*
X169010822Y-124619390D01*
X169010822Y-124619390D02*
X169106060Y-124667009D01*
X169106060Y-124667009D02*
X169439393Y-124667009D01*
X168439393Y-125095580D02*
X168391774Y-125143200D01*
X168391774Y-125143200D02*
X168439393Y-125190819D01*
X168439393Y-125190819D02*
X168487012Y-125143200D01*
X168487012Y-125143200D02*
X168439393Y-125095580D01*
X168439393Y-125095580D02*
X168439393Y-125190819D01*
X167391775Y-125095580D02*
X167439394Y-125143200D01*
X167439394Y-125143200D02*
X167582251Y-125190819D01*
X167582251Y-125190819D02*
X167677489Y-125190819D01*
X167677489Y-125190819D02*
X167820346Y-125143200D01*
X167820346Y-125143200D02*
X167915584Y-125047961D01*
X167915584Y-125047961D02*
X167963203Y-124952723D01*
X167963203Y-124952723D02*
X168010822Y-124762247D01*
X168010822Y-124762247D02*
X168010822Y-124619390D01*
X168010822Y-124619390D02*
X167963203Y-124428914D01*
X167963203Y-124428914D02*
X167915584Y-124333676D01*
X167915584Y-124333676D02*
X167820346Y-124238438D01*
X167820346Y-124238438D02*
X167677489Y-124190819D01*
X167677489Y-124190819D02*
X167582251Y-124190819D01*
X167582251Y-124190819D02*
X167439394Y-124238438D01*
X167439394Y-124238438D02*
X167391775Y-124286057D01*
X166772727Y-124190819D02*
X166582251Y-124190819D01*
X166582251Y-124190819D02*
X166487013Y-124238438D01*
X166487013Y-124238438D02*
X166391775Y-124333676D01*
X166391775Y-124333676D02*
X166344156Y-124524152D01*
X166344156Y-124524152D02*
X166344156Y-124857485D01*
X166344156Y-124857485D02*
X166391775Y-125047961D01*
X166391775Y-125047961D02*
X166487013Y-125143200D01*
X166487013Y-125143200D02*
X166582251Y-125190819D01*
X166582251Y-125190819D02*
X166772727Y-125190819D01*
X166772727Y-125190819D02*
X166867965Y-125143200D01*
X166867965Y-125143200D02*
X166963203Y-125047961D01*
X166963203Y-125047961D02*
X167010822Y-124857485D01*
X167010822Y-124857485D02*
X167010822Y-124524152D01*
X167010822Y-124524152D02*
X166963203Y-124333676D01*
X166963203Y-124333676D02*
X166867965Y-124238438D01*
X166867965Y-124238438D02*
X166772727Y-124190819D01*
X165915584Y-125190819D02*
X165915584Y-124190819D01*
X165915584Y-124190819D02*
X165582251Y-124905104D01*
X165582251Y-124905104D02*
X165248918Y-124190819D01*
X165248918Y-124190819D02*
X165248918Y-125190819D01*
X164058442Y-124143200D02*
X164915584Y-125428914D01*
X163772727Y-125143200D02*
X163629870Y-125190819D01*
X163629870Y-125190819D02*
X163391775Y-125190819D01*
X163391775Y-125190819D02*
X163296537Y-125143200D01*
X163296537Y-125143200D02*
X163248918Y-125095580D01*
X163248918Y-125095580D02*
X163201299Y-125000342D01*
X163201299Y-125000342D02*
X163201299Y-124905104D01*
X163201299Y-124905104D02*
X163248918Y-124809866D01*
X163248918Y-124809866D02*
X163296537Y-124762247D01*
X163296537Y-124762247D02*
X163391775Y-124714628D01*
X163391775Y-124714628D02*
X163582251Y-124667009D01*
X163582251Y-124667009D02*
X163677489Y-124619390D01*
X163677489Y-124619390D02*
X163725108Y-124571771D01*
X163725108Y-124571771D02*
X163772727Y-124476533D01*
X163772727Y-124476533D02*
X163772727Y-124381295D01*
X163772727Y-124381295D02*
X163725108Y-124286057D01*
X163725108Y-124286057D02*
X163677489Y-124238438D01*
X163677489Y-124238438D02*
X163582251Y-124190819D01*
X163582251Y-124190819D02*
X163344156Y-124190819D01*
X163344156Y-124190819D02*
X163201299Y-124238438D01*
X162820346Y-124905104D02*
X162344156Y-124905104D01*
X162915584Y-125190819D02*
X162582251Y-124190819D01*
X162582251Y-124190819D02*
X162248918Y-125190819D01*
X161582251Y-124667009D02*
X161439394Y-124714628D01*
X161439394Y-124714628D02*
X161391775Y-124762247D01*
X161391775Y-124762247D02*
X161344156Y-124857485D01*
X161344156Y-124857485D02*
X161344156Y-125000342D01*
X161344156Y-125000342D02*
X161391775Y-125095580D01*
X161391775Y-125095580D02*
X161439394Y-125143200D01*
X161439394Y-125143200D02*
X161534632Y-125190819D01*
X161534632Y-125190819D02*
X161915584Y-125190819D01*
X161915584Y-125190819D02*
X161915584Y-124190819D01*
X161915584Y-124190819D02*
X161582251Y-124190819D01*
X161582251Y-124190819D02*
X161487013Y-124238438D01*
X161487013Y-124238438D02*
X161439394Y-124286057D01*
X161439394Y-124286057D02*
X161391775Y-124381295D01*
X161391775Y-124381295D02*
X161391775Y-124476533D01*
X161391775Y-124476533D02*
X161439394Y-124571771D01*
X161439394Y-124571771D02*
X161487013Y-124619390D01*
X161487013Y-124619390D02*
X161582251Y-124667009D01*
X161582251Y-124667009D02*
X161915584Y-124667009D01*
X160725108Y-124190819D02*
X160534632Y-124190819D01*
X160534632Y-124190819D02*
X160439394Y-124238438D01*
X160439394Y-124238438D02*
X160344156Y-124333676D01*
X160344156Y-124333676D02*
X160296537Y-124524152D01*
X160296537Y-124524152D02*
X160296537Y-124857485D01*
X160296537Y-124857485D02*
X160344156Y-125047961D01*
X160344156Y-125047961D02*
X160439394Y-125143200D01*
X160439394Y-125143200D02*
X160534632Y-125190819D01*
X160534632Y-125190819D02*
X160725108Y-125190819D01*
X160725108Y-125190819D02*
X160820346Y-125143200D01*
X160820346Y-125143200D02*
X160915584Y-125047961D01*
X160915584Y-125047961D02*
X160963203Y-124857485D01*
X160963203Y-124857485D02*
X160963203Y-124524152D01*
X160963203Y-124524152D02*
X160915584Y-124333676D01*
X160915584Y-124333676D02*
X160820346Y-124238438D01*
X160820346Y-124238438D02*
X160725108Y-124190819D01*
X159344156Y-124238438D02*
X159439394Y-124190819D01*
X159439394Y-124190819D02*
X159582251Y-124190819D01*
X159582251Y-124190819D02*
X159725108Y-124238438D01*
X159725108Y-124238438D02*
X159820346Y-124333676D01*
X159820346Y-124333676D02*
X159867965Y-124428914D01*
X159867965Y-124428914D02*
X159915584Y-124619390D01*
X159915584Y-124619390D02*
X159915584Y-124762247D01*
X159915584Y-124762247D02*
X159867965Y-124952723D01*
X159867965Y-124952723D02*
X159820346Y-125047961D01*
X159820346Y-125047961D02*
X159725108Y-125143200D01*
X159725108Y-125143200D02*
X159582251Y-125190819D01*
X159582251Y-125190819D02*
X159487013Y-125190819D01*
X159487013Y-125190819D02*
X159344156Y-125143200D01*
X159344156Y-125143200D02*
X159296537Y-125095580D01*
X159296537Y-125095580D02*
X159296537Y-124762247D01*
X159296537Y-124762247D02*
X159487013Y-124762247D01*
X158915584Y-124905104D02*
X158439394Y-124905104D01*
X159010822Y-125190819D02*
X158677489Y-124190819D01*
X158677489Y-124190819D02*
X158344156Y-125190819D01*
X157534632Y-125190819D02*
X158010822Y-125190819D01*
X158010822Y-125190819D02*
X158010822Y-124190819D01*
X156629870Y-125095580D02*
X156677489Y-125143200D01*
X156677489Y-125143200D02*
X156820346Y-125190819D01*
X156820346Y-125190819D02*
X156915584Y-125190819D01*
X156915584Y-125190819D02*
X157058441Y-125143200D01*
X157058441Y-125143200D02*
X157153679Y-125047961D01*
X157153679Y-125047961D02*
X157201298Y-124952723D01*
X157201298Y-124952723D02*
X157248917Y-124762247D01*
X157248917Y-124762247D02*
X157248917Y-124619390D01*
X157248917Y-124619390D02*
X157201298Y-124428914D01*
X157201298Y-124428914D02*
X157153679Y-124333676D01*
X157153679Y-124333676D02*
X157058441Y-124238438D01*
X157058441Y-124238438D02*
X156915584Y-124190819D01*
X156915584Y-124190819D02*
X156820346Y-124190819D01*
X156820346Y-124190819D02*
X156677489Y-124238438D01*
X156677489Y-124238438D02*
X156629870Y-124286057D01*
D13*
G36*
X166008327Y-103549021D02*
G01*
X166171094Y-103698225D01*
X166263128Y-104035680D01*
X166263128Y-104715442D01*
X166171094Y-105052897D01*
X166008326Y-105202101D01*
X165848050Y-105275561D01*
X165478205Y-105275561D01*
X165317929Y-105202101D01*
X165155159Y-105052896D01*
X165063128Y-104715444D01*
X165063128Y-104035678D01*
X165155159Y-103698226D01*
X165317928Y-103549021D01*
X165478206Y-103475561D01*
X165848049Y-103475561D01*
X166008327Y-103549021D01*
G37*
G36*
X171821858Y-105920005D02*
G01*
X164418684Y-105920005D01*
X164418684Y-104008895D01*
X164663128Y-104008895D01*
X164663128Y-104742228D01*
X164664116Y-104752262D01*
X164663616Y-104756197D01*
X164665732Y-104768668D01*
X164666971Y-104781246D01*
X164668487Y-104784907D01*
X164670175Y-104794851D01*
X164784460Y-105213899D01*
X164798434Y-105250531D01*
X164808889Y-105264032D01*
X164816103Y-105279509D01*
X164842268Y-105308707D01*
X165070840Y-105518231D01*
X165085218Y-105529020D01*
X165088786Y-105532863D01*
X165095751Y-105536924D01*
X165102199Y-105541763D01*
X165107124Y-105543556D01*
X165122655Y-105552613D01*
X165351226Y-105657374D01*
X165388297Y-105670138D01*
X165392060Y-105670277D01*
X165395538Y-105671718D01*
X165434556Y-105675561D01*
X165891699Y-105675561D01*
X165930717Y-105671718D01*
X165934194Y-105670277D01*
X165937958Y-105670138D01*
X165975029Y-105657374D01*
X166203601Y-105552613D01*
X166219131Y-105543556D01*
X166224057Y-105541763D01*
X166230504Y-105536924D01*
X166237470Y-105532863D01*
X166241037Y-105529020D01*
X166255416Y-105518231D01*
X166483987Y-105308706D01*
X166510153Y-105279508D01*
X166517365Y-105264032D01*
X166527821Y-105250532D01*
X166541795Y-105213900D01*
X166656081Y-104794852D01*
X166657767Y-104784908D01*
X166659285Y-104781246D01*
X166660524Y-104768659D01*
X166662639Y-104756197D01*
X166662139Y-104752266D01*
X166663128Y-104742228D01*
X166663128Y-104008895D01*
X166662139Y-103998856D01*
X166662639Y-103994926D01*
X166660524Y-103982463D01*
X166659285Y-103969877D01*
X166657767Y-103966214D01*
X166656081Y-103956271D01*
X166541795Y-103537223D01*
X166527821Y-103500591D01*
X166517365Y-103487090D01*
X166510153Y-103471615D01*
X166483987Y-103442417D01*
X166301964Y-103275561D01*
X167291699Y-103275561D01*
X167291699Y-105475561D01*
X167292127Y-105479908D01*
X167291799Y-105481883D01*
X167292707Y-105485798D01*
X167295542Y-105514579D01*
X167304276Y-105535666D01*
X167309435Y-105557901D01*
X167319067Y-105571373D01*
X167325405Y-105586675D01*
X167341545Y-105602815D01*
X167354819Y-105621382D01*
X167368872Y-105630142D01*
X167380585Y-105641855D01*
X167401673Y-105650590D01*
X167421042Y-105662664D01*
X167437379Y-105665379D01*
X167452681Y-105671718D01*
X167475505Y-105671718D01*
X167498021Y-105675461D01*
X167514155Y-105671718D01*
X167530717Y-105671718D01*
X167551804Y-105662983D01*
X167574039Y-105657825D01*
X167587511Y-105648192D01*
X167602813Y-105641855D01*
X167618953Y-105625714D01*
X167637520Y-105612441D01*
X167655150Y-105589517D01*
X167657993Y-105586675D01*
X167658759Y-105584825D01*
X167661422Y-105581363D01*
X168663128Y-103974460D01*
X168663128Y-105475561D01*
X168666971Y-105514579D01*
X168696834Y-105586675D01*
X168752014Y-105641855D01*
X168824110Y-105671718D01*
X168902146Y-105671718D01*
X168974242Y-105641855D01*
X169029422Y-105586675D01*
X169059285Y-105514579D01*
X169063128Y-105475561D01*
X169063128Y-103275561D01*
X169805985Y-103275561D01*
X169805985Y-105056514D01*
X169809828Y-105095532D01*
X169813949Y-105105482D01*
X169815096Y-105116191D01*
X169830406Y-105152285D01*
X169944692Y-105361808D01*
X169956750Y-105379529D01*
X169958961Y-105384271D01*
X169963185Y-105388985D01*
X169966749Y-105394222D01*
X169970823Y-105397508D01*
X169985126Y-105413469D01*
X170099412Y-105518231D01*
X170113790Y-105529020D01*
X170117358Y-105532863D01*
X170124322Y-105536924D01*
X170130772Y-105541764D01*
X170135699Y-105543558D01*
X170151227Y-105552613D01*
X170379798Y-105657374D01*
X170416869Y-105670138D01*
X170420632Y-105670277D01*
X170424110Y-105671718D01*
X170463128Y-105675561D01*
X170920271Y-105675561D01*
X170959289Y-105671718D01*
X170962766Y-105670277D01*
X170966530Y-105670138D01*
X171003601Y-105657374D01*
X171232173Y-105552613D01*
X171247702Y-105543557D01*
X171252629Y-105541763D01*
X171259075Y-105536925D01*
X171266042Y-105532863D01*
X171269611Y-105529018D01*
X171283988Y-105518230D01*
X171398274Y-105413468D01*
X171412578Y-105397505D01*
X171416649Y-105394222D01*
X171420210Y-105388988D01*
X171424439Y-105384270D01*
X171426650Y-105379525D01*
X171438707Y-105361809D01*
X171552993Y-105152285D01*
X171568303Y-105116191D01*
X171569449Y-105105482D01*
X171573571Y-105095532D01*
X171577414Y-105056514D01*
X171577414Y-103275561D01*
X171573571Y-103236543D01*
X171543708Y-103164447D01*
X171488528Y-103109267D01*
X171416432Y-103079404D01*
X171338396Y-103079404D01*
X171266300Y-103109267D01*
X171211120Y-103164447D01*
X171181257Y-103236543D01*
X171177414Y-103275561D01*
X171177414Y-105005515D01*
X171103470Y-105141078D01*
X171036900Y-105202100D01*
X170876622Y-105275561D01*
X170506777Y-105275561D01*
X170346501Y-105202101D01*
X170279927Y-105141075D01*
X170205985Y-105005514D01*
X170205985Y-103275561D01*
X170202142Y-103236543D01*
X170172279Y-103164447D01*
X170117099Y-103109267D01*
X170045003Y-103079404D01*
X169966967Y-103079404D01*
X169894871Y-103109267D01*
X169839691Y-103164447D01*
X169809828Y-103236543D01*
X169805985Y-103275561D01*
X169063128Y-103275561D01*
X169062699Y-103271213D01*
X169063028Y-103269239D01*
X169062119Y-103265323D01*
X169059285Y-103236543D01*
X169050550Y-103215455D01*
X169045392Y-103193221D01*
X169035759Y-103179748D01*
X169029422Y-103164447D01*
X169013281Y-103148306D01*
X169000008Y-103129740D01*
X168985954Y-103120979D01*
X168974242Y-103109267D01*
X168953153Y-103100531D01*
X168933785Y-103088458D01*
X168917447Y-103085742D01*
X168902146Y-103079404D01*
X168879322Y-103079404D01*
X168856806Y-103075661D01*
X168840672Y-103079404D01*
X168824110Y-103079404D01*
X168803022Y-103088138D01*
X168780788Y-103093297D01*
X168767315Y-103102929D01*
X168752014Y-103109267D01*
X168735873Y-103125407D01*
X168717307Y-103138681D01*
X168699676Y-103161604D01*
X168696834Y-103164447D01*
X168696067Y-103166296D01*
X168693405Y-103169759D01*
X167691699Y-104776661D01*
X167691699Y-103275561D01*
X167687856Y-103236543D01*
X167657993Y-103164447D01*
X167602813Y-103109267D01*
X167530717Y-103079404D01*
X167452681Y-103079404D01*
X167380585Y-103109267D01*
X167325405Y-103164447D01*
X167295542Y-103236543D01*
X167291699Y-103275561D01*
X166301964Y-103275561D01*
X166255416Y-103232892D01*
X166241037Y-103222102D01*
X166237470Y-103218260D01*
X166230503Y-103214197D01*
X166224057Y-103209360D01*
X166219132Y-103207566D01*
X166203602Y-103198510D01*
X165975030Y-103093748D01*
X165937959Y-103080985D01*
X165934197Y-103080845D01*
X165930717Y-103079404D01*
X165891699Y-103075561D01*
X165434556Y-103075561D01*
X165395538Y-103079404D01*
X165392057Y-103080845D01*
X165388296Y-103080985D01*
X165351224Y-103093748D01*
X165122654Y-103198510D01*
X165107124Y-103207566D01*
X165102199Y-103209360D01*
X165095750Y-103214199D01*
X165088785Y-103218261D01*
X165085218Y-103222102D01*
X165070840Y-103232892D01*
X164842268Y-103442416D01*
X164816103Y-103471614D01*
X164808889Y-103487090D01*
X164798434Y-103500592D01*
X164784460Y-103537224D01*
X164670175Y-103956272D01*
X164668487Y-103966215D01*
X164666971Y-103969877D01*
X164665732Y-103982454D01*
X164663616Y-103994926D01*
X164664116Y-103998860D01*
X164663128Y-104008895D01*
X164418684Y-104008895D01*
X164418684Y-102831117D01*
X171821858Y-102831117D01*
X171821858Y-105920005D01*
G37*
X159144290Y-105475561D02*
X159877623Y-104427942D01*
X160401433Y-105475561D02*
X160401433Y-103275561D01*
X160401433Y-103275561D02*
X159563338Y-103275561D01*
X159563338Y-103275561D02*
X159353814Y-103380323D01*
X159353814Y-103380323D02*
X159249052Y-103485085D01*
X159249052Y-103485085D02*
X159144290Y-103694609D01*
X159144290Y-103694609D02*
X159144290Y-104008895D01*
X159144290Y-104008895D02*
X159249052Y-104218419D01*
X159249052Y-104218419D02*
X159353814Y-104323180D01*
X159353814Y-104323180D02*
X159563338Y-104427942D01*
X159563338Y-104427942D02*
X160401433Y-104427942D01*
X156944290Y-105266038D02*
X157049052Y-105370800D01*
X157049052Y-105370800D02*
X157363338Y-105475561D01*
X157363338Y-105475561D02*
X157572862Y-105475561D01*
X157572862Y-105475561D02*
X157887147Y-105370800D01*
X157887147Y-105370800D02*
X158096671Y-105161276D01*
X158096671Y-105161276D02*
X158201433Y-104951752D01*
X158201433Y-104951752D02*
X158306195Y-104532704D01*
X158306195Y-104532704D02*
X158306195Y-104218419D01*
X158306195Y-104218419D02*
X158201433Y-103799371D01*
X158201433Y-103799371D02*
X158096671Y-103589847D01*
X158096671Y-103589847D02*
X157887147Y-103380323D01*
X157887147Y-103380323D02*
X157572862Y-103275561D01*
X157572862Y-103275561D02*
X157363338Y-103275561D01*
X157363338Y-103275561D02*
X157049052Y-103380323D01*
X157049052Y-103380323D02*
X156944290Y-103485085D01*
%TO.C,JP2*%
D14*
X124241100Y-90033600D02*
X127041100Y-90033600D01*
X124241100Y-92033600D02*
X124241100Y-90033600D01*
X127041100Y-90033600D02*
X127041100Y-92033600D01*
X127041100Y-92033600D02*
X124241100Y-92033600D01*
%TD*%
M02*
