%TF.GenerationSoftware,KiCad,Pcbnew,10.0.0*%
%TF.CreationDate,2026-09-10T15:07:54-06:00*%
%TF.ProjectId,Arduino UNO,41726475-696e-46f2-9055-4e4f2e6b6963,1*%
%TF.SameCoordinates,Original*%
%TF.FileFunction,Paste,Top*%
%TF.FilePolarity,Positive*%
%FSLAX46Y46*%
G04 Gerber Fmt 4.6, Leading zero omitted, Abs format (unit mm)*
G04 Created by KiCad (PCBNEW 10.0.0) date 2026-09-10 15:07:54*
%MOMM*%
%LPD*%
G01*
G04 APERTURE LIST*
G04 Aperture macros list*
%AMRoundRect*
0 Rectangle with rounded corners*
0 $1 Rounding radius*
0 $2 $3 $4 $5 $6 $7 $8 $9 X,Y pos of 4 corners*
0 Add a 4 corners polygon primitive as box body*
4,1,4,$2,$3,$4,$5,$6,$7,$8,$9,$2,$3,0*
0 Add four circle primitives for the rounded corners*
1,1,$1+$1,$2,$3*
1,1,$1+$1,$4,$5*
1,1,$1+$1,$6,$7*
1,1,$1+$1,$8,$9*
0 Add four rect primitives between the rounded corners*
20,1,$1+$1,$2,$3,$4,$5,0*
20,1,$1+$1,$4,$5,$6,$7,0*
20,1,$1+$1,$6,$7,$8,$9,0*
20,1,$1+$1,$8,$9,$2,$3,0*%
G04 Aperture macros list end*
%ADD10RoundRect,0.250000X0.375000X-0.375000X0.375000X0.375000X-0.375000X0.375000X-0.375000X-0.375000X0*%
%ADD11RoundRect,0.062500X0.062500X-0.375000X0.062500X0.375000X-0.062500X0.375000X-0.062500X-0.375000X0*%
%ADD12RoundRect,0.062500X0.375000X-0.062500X0.375000X0.062500X-0.375000X0.062500X-0.375000X-0.062500X0*%
%ADD13R,0.400000X1.900000*%
%ADD14RoundRect,0.225000X-0.225000X-0.250000X0.225000X-0.250000X0.225000X0.250000X-0.225000X0.250000X0*%
%ADD15R,1.600000X3.200000*%
%ADD16RoundRect,0.250000X-0.625000X0.375000X-0.625000X-0.375000X0.625000X-0.375000X0.625000X0.375000X0*%
%ADD17RoundRect,0.225000X0.225000X0.250000X-0.225000X0.250000X-0.225000X-0.250000X0.225000X-0.250000X0*%
%ADD18RoundRect,0.225000X-0.250000X0.225000X-0.250000X-0.225000X0.250000X-0.225000X0.250000X0.225000X0*%
%ADD19RoundRect,0.218750X-0.218750X-0.381250X0.218750X-0.381250X0.218750X0.381250X-0.218750X0.381250X0*%
%ADD20RoundRect,0.243750X0.243750X0.456250X-0.243750X0.456250X-0.243750X-0.456250X0.243750X-0.456250X0*%
%ADD21RoundRect,0.150000X-0.425000X0.150000X-0.425000X-0.150000X0.425000X-0.150000X0.425000X0.150000X0*%
%ADD22RoundRect,0.075000X-0.500000X0.075000X-0.500000X-0.075000X0.500000X-0.075000X0.500000X0.075000X0*%
%ADD23O,2.100000X1.000000*%
%ADD24O,1.800000X1.000000*%
%ADD25RoundRect,0.150000X-0.512500X-0.150000X0.512500X-0.150000X0.512500X0.150000X-0.512500X0.150000X0*%
%ADD26RoundRect,0.250000X1.000000X0.900000X-1.000000X0.900000X-1.000000X-0.900000X1.000000X-0.900000X0*%
%ADD27R,1.600000X1.400000*%
%ADD28RoundRect,0.100000X0.712500X0.100000X-0.712500X0.100000X-0.712500X-0.100000X0.712500X-0.100000X0*%
%ADD29RoundRect,0.375000X0.625000X0.375000X-0.625000X0.375000X-0.625000X-0.375000X0.625000X-0.375000X0*%
%ADD30RoundRect,0.500000X0.500000X1.400000X-0.500000X1.400000X-0.500000X-1.400000X0.500000X-1.400000X0*%
%ADD31RoundRect,0.200000X0.200000X0.275000X-0.200000X0.275000X-0.200000X-0.275000X0.200000X-0.275000X0*%
%ADD32RoundRect,0.200000X0.275000X-0.200000X0.275000X0.200000X-0.275000X0.200000X-0.275000X-0.200000X0*%
%ADD33R,0.800000X0.500000*%
%ADD34R,0.800000X0.400000*%
%ADD35RoundRect,0.200000X-0.275000X0.200000X-0.275000X-0.200000X0.275000X-0.200000X0.275000X0.200000X0*%
%ADD36RoundRect,0.200000X-0.200000X-0.275000X0.200000X-0.275000X0.200000X0.275000X-0.200000X0.275000X0*%
%ADD37RoundRect,0.243750X-0.243750X-0.456250X0.243750X-0.456250X0.243750X0.456250X-0.243750X0.456250X0*%
%ADD38RoundRect,0.250000X-1.450000X0.400000X-1.450000X-0.400000X1.450000X-0.400000X1.450000X0.400000X0*%
%ADD39RoundRect,0.225000X0.250000X-0.225000X0.250000X0.225000X-0.250000X0.225000X-0.250000X-0.225000X0*%
%ADD40RoundRect,0.250000X0.625000X-0.375000X0.625000X0.375000X-0.625000X0.375000X-0.625000X-0.375000X0*%
%ADD41RoundRect,0.200000X0.250000X0.200000X-0.250000X0.200000X-0.250000X-0.200000X0.250000X-0.200000X0*%
G04 APERTURE END LIST*
D10*
%TO.C,U3*%
X133375100Y-97777600D03*
X134925100Y-97777600D03*
X133375100Y-96227600D03*
X134925100Y-96227600D03*
D11*
X132400100Y-99440100D03*
X132900100Y-99440100D03*
X133400100Y-99440100D03*
X133900100Y-99440100D03*
X134400100Y-99440100D03*
X134900100Y-99440100D03*
X135400100Y-99440100D03*
X135900100Y-99440100D03*
D12*
X136587600Y-98752600D03*
X136587600Y-98252600D03*
X136587600Y-97752600D03*
X136587600Y-97252600D03*
X136587600Y-96752600D03*
X136587600Y-96252600D03*
X136587600Y-95752600D03*
X136587600Y-95252600D03*
D11*
X135900100Y-94565100D03*
X135400100Y-94565100D03*
X134900100Y-94565100D03*
X134400100Y-94565100D03*
X133900100Y-94565100D03*
X133400100Y-94565100D03*
X132900100Y-94565100D03*
X132400100Y-94565100D03*
D12*
X131712600Y-95252600D03*
X131712600Y-95752600D03*
X131712600Y-96252600D03*
X131712600Y-96752600D03*
X131712600Y-97252600D03*
X131712600Y-97752600D03*
X131712600Y-98252600D03*
X131712600Y-98752600D03*
%TD*%
D13*
%TO.C,Y1*%
X154286100Y-106781600D03*
X155486100Y-106781600D03*
X156686100Y-106781600D03*
%TD*%
D14*
%TO.C,C9*%
X141376100Y-100177600D03*
X142926100Y-100177600D03*
%TD*%
D15*
%TO.C,C1*%
X132626100Y-120029600D03*
X132626100Y-125029600D03*
%TD*%
D16*
%TO.C,D2*%
X173647100Y-102333600D03*
X173647100Y-105133600D03*
%TD*%
D17*
%TO.C,C11*%
X130988100Y-102082600D03*
X129438100Y-102082600D03*
%TD*%
D18*
%TO.C,C3*%
X132626100Y-115531600D03*
X132626100Y-117081600D03*
%TD*%
D19*
%TO.C,FB1*%
X120768600Y-86995000D03*
X122893600Y-86995000D03*
%TD*%
D14*
%TO.C,C4*%
X125501100Y-101828600D03*
X127051100Y-101828600D03*
%TD*%
D20*
%TO.C,D4*%
X143088600Y-89408000D03*
X141213600Y-89408000D03*
%TD*%
D14*
%TO.C,C6*%
X141376100Y-87223600D03*
X142926100Y-87223600D03*
%TD*%
%TO.C,C12*%
X157759100Y-121412000D03*
X159309100Y-121412000D03*
%TD*%
%TO.C,C7*%
X141376100Y-101828600D03*
X142926100Y-101828600D03*
%TD*%
D21*
%TO.C,J8*%
X121530000Y-90373600D03*
X121530000Y-91173600D03*
D22*
X121530000Y-92323600D03*
X121530000Y-93323600D03*
X121530000Y-93823600D03*
X121530000Y-94823600D03*
D21*
X121530000Y-95973600D03*
X121530000Y-96773600D03*
X121530000Y-96773600D03*
X121530000Y-95973600D03*
D22*
X121530000Y-95323600D03*
X121530000Y-94323600D03*
X121530000Y-92823600D03*
X121530000Y-91823600D03*
D21*
X121530000Y-91173600D03*
X121530000Y-90373600D03*
D23*
X120955000Y-89253600D03*
D24*
X116775000Y-89253600D03*
D23*
X120955000Y-97893600D03*
D24*
X116775000Y-97893600D03*
%TD*%
D25*
%TO.C,U2*%
X135044600Y-115483600D03*
X135044600Y-116433600D03*
X135044600Y-117383600D03*
X137319600Y-117383600D03*
X137319600Y-115483600D03*
%TD*%
D26*
%TO.C,D1*%
X137951100Y-129159000D03*
X133651100Y-129159000D03*
%TD*%
D14*
%TO.C,C10*%
X126136100Y-89763600D03*
X127686100Y-89763600D03*
%TD*%
D27*
%TO.C,S1*%
X116361100Y-80020600D03*
X124761100Y-80020600D03*
X116361100Y-84520600D03*
X124761100Y-84520600D03*
X116361100Y-82270600D03*
%TD*%
D14*
%TO.C,C13*%
X135661100Y-102082600D03*
X137211100Y-102082600D03*
%TD*%
D28*
%TO.C,U5*%
X135373600Y-112328600D03*
X135373600Y-111678600D03*
X135373600Y-111028600D03*
X135373600Y-110378600D03*
X131148600Y-110378600D03*
X131148600Y-111028600D03*
X131148600Y-111678600D03*
X131148600Y-112328600D03*
%TD*%
D29*
%TO.C,U1*%
X125108100Y-116574600D03*
X125108100Y-114274600D03*
D30*
X118808100Y-114274600D03*
D29*
X125108100Y-111974600D03*
%TD*%
D31*
%TO.C,Z1*%
X127736100Y-92033600D03*
X126086100Y-92033600D03*
%TD*%
D32*
%TO.C,R3*%
X123698000Y-92315800D03*
X123698000Y-90665800D03*
%TD*%
D33*
%TO.C,RN2*%
X141251100Y-91103600D03*
D34*
X141251100Y-91903600D03*
X141251100Y-92703600D03*
D33*
X141251100Y-93503600D03*
X143051100Y-93503600D03*
D34*
X143051100Y-92703600D03*
X143051100Y-91903600D03*
D33*
X143051100Y-91103600D03*
%TD*%
D35*
%TO.C,R4*%
X123698000Y-95288600D03*
X123698000Y-96938600D03*
%TD*%
D36*
%TO.C,R2*%
X154661100Y-108940600D03*
X156311100Y-108940600D03*
%TD*%
D37*
%TO.C,D5*%
X141200900Y-95148400D03*
X143075900Y-95148400D03*
%TD*%
D33*
%TO.C,RN1*%
X143051100Y-108997600D03*
D34*
X143051100Y-108197600D03*
X143051100Y-107397600D03*
D33*
X143051100Y-106597600D03*
X141251100Y-106597600D03*
D34*
X141251100Y-107397600D03*
X141251100Y-108197600D03*
D33*
X141251100Y-108997600D03*
%TD*%
%TO.C,RN3*%
X127938100Y-96043600D03*
D34*
X127938100Y-95243600D03*
X127938100Y-94443600D03*
D33*
X127938100Y-93643600D03*
X126138100Y-93643600D03*
D34*
X126138100Y-94443600D03*
X126138100Y-95243600D03*
D33*
X126138100Y-96043600D03*
%TD*%
D19*
%TO.C,FB2*%
X152264600Y-123545600D03*
X154389600Y-123545600D03*
%TD*%
D33*
%TO.C,RN4*%
X173531100Y-99091600D03*
D34*
X173531100Y-98291600D03*
X173531100Y-97491600D03*
D33*
X173531100Y-96691600D03*
X171731100Y-96691600D03*
D34*
X171731100Y-97491600D03*
X171731100Y-98291600D03*
D33*
X171731100Y-99091600D03*
%TD*%
D38*
%TO.C,F2*%
X118211600Y-102905600D03*
X118211600Y-107355600D03*
%TD*%
D39*
%TO.C,C5*%
X139738100Y-117081600D03*
X139738100Y-115531600D03*
%TD*%
D31*
%TO.C,Z2*%
X127736100Y-98018600D03*
X126086100Y-98018600D03*
%TD*%
%TO.C,R1*%
X134086100Y-102082600D03*
X132436100Y-102082600D03*
%TD*%
D40*
%TO.C,D3*%
X127292100Y-86845600D03*
X127292100Y-84045600D03*
%TD*%
D15*
%TO.C,C2*%
X139738100Y-120029600D03*
X139738100Y-125029600D03*
%TD*%
D20*
%TO.C,D7*%
X173555900Y-95046800D03*
X171680900Y-95046800D03*
%TD*%
D14*
%TO.C,C8*%
X159156100Y-108813600D03*
X160706100Y-108813600D03*
%TD*%
D41*
%TO.C,Q1*%
X123610400Y-106080600D03*
X123610400Y-104180600D03*
X121210400Y-105130600D03*
%TD*%
D37*
%TO.C,D6*%
X141213600Y-97383600D03*
X143088600Y-97383600D03*
%TD*%
M02*
