%TF.GenerationSoftware,KiCad,Pcbnew,10.0.0*%
%TF.CreationDate,2026-09-07T14:31:11-06:00*%
%TF.ProjectId,GridStripConnector,47726964-5374-4726-9970-436f6e6e6563,rev?*%
%TF.SameCoordinates,Original*%
%TF.FileFunction,Copper,L1,Top*%
%TF.FilePolarity,Positive*%
%FSLAX46Y46*%
G04 Gerber Fmt 4.6, Leading zero omitted, Abs format (unit mm)*
G04 Created by KiCad (PCBNEW 10.0.0) date 2026-09-07 14:31:11*
%MOMM*%
%LPD*%
G01*
G04 APERTURE LIST*
G04 Aperture macros list*
%AMRoundRect*
0 Rectangle with rounded corners*
0 $1 Rounding radius*
0 $2 $3 $4 $5 $6 $7 $8 $9 X,Y pos of 4 corners*
0 Add a 4 corners polygon primitive as box body*
4,1,4,$2,$3,$4,$5,$6,$7,$8,$9,$2,$3,0*
0 Add four circle primitives for the rounded corners*
1,1,$1+$1,$2,$3*
1,1,$1+$1,$4,$5*
1,1,$1+$1,$6,$7*
1,1,$1+$1,$8,$9*
0 Add four rect primitives between the rounded corners*
20,1,$1+$1,$2,$3,$4,$5,0*
20,1,$1+$1,$4,$5,$6,$7,0*
20,1,$1+$1,$6,$7,$8,$9,0*
20,1,$1+$1,$8,$9,$2,$3,0*%
G04 Aperture macros list end*
%TA.AperFunction,SMDPad,CuDef*%
%ADD10RoundRect,0.300000X0.700000X-1.700000X0.700000X1.700000X-0.700000X1.700000X-0.700000X-1.700000X0*%
%TD*%
%TA.AperFunction,Conductor*%
%ADD11C,0.800000*%
%TD*%
G04 APERTURE END LIST*
D10*
%TO.P,J1,1,Pin_1*%
%TO.N,Net-(J1-Pin_1)*%
X147000000Y-90000000D03*
%TO.P,J1,2,Pin_2*%
%TO.N,Net-(J1-Pin_2)*%
X150000000Y-90000000D03*
%TO.P,J1,3,Pin_3*%
%TO.N,Net-(J1-Pin_3)*%
X153000000Y-90000000D03*
%TD*%
%TO.P,J2,1,Pin_1*%
%TO.N,Net-(J1-Pin_3)*%
X163600000Y-90000000D03*
%TO.P,J2,2,Pin_2*%
%TO.N,Net-(J1-Pin_2)*%
X166600000Y-90000000D03*
%TO.P,J2,3,Pin_3*%
%TO.N,Net-(J1-Pin_1)*%
X169600000Y-90000000D03*
%TD*%
%TO.N,Net-(J1-Pin_1)*%
D11*
X169400000Y-87642641D02*
X169400000Y-90000000D01*
X147200000Y-90000000D02*
X147200000Y-87642641D01*
X150242641Y-84600000D02*
X166357359Y-84600000D01*
X148078680Y-85521320D02*
X148121321Y-85478679D01*
X168478680Y-85478680D02*
X168521321Y-85521321D01*
X147200000Y-87642641D02*
G75*
G02*
X148078660Y-85521300I3000000J41D01*
G01*
X150242641Y-84600000D02*
G75*
G03*
X148121301Y-85478659I-41J-3000000D01*
G01*
X166357359Y-84600000D02*
G75*
G02*
X168478700Y-85478660I41J-3000000D01*
G01*
X168521321Y-85521321D02*
G75*
G02*
X169399971Y-87642641I-2121321J-2121279D01*
G01*
%TO.N,Net-(J1-Pin_2)*%
X166131371Y-86931371D02*
X166068629Y-86868629D01*
X166600000Y-90000000D02*
X166600000Y-88062742D01*
X164937258Y-86400000D02*
X151662742Y-86400000D01*
X150531371Y-86868629D02*
X150468629Y-86931371D01*
X150000000Y-88062742D02*
X150000000Y-90000000D01*
X166131371Y-86931371D02*
G75*
G02*
X166599971Y-88062742I-1131371J-1131329D01*
G01*
X150468629Y-86931371D02*
G75*
G03*
X150000029Y-88062742I1131371J-1131329D01*
G01*
X164937258Y-86400000D02*
G75*
G02*
X166068650Y-86868608I42J-1600000D01*
G01*
X151662742Y-86400000D02*
G75*
G03*
X150531350Y-86868608I-42J-1600000D01*
G01*
%TO.N,Net-(J1-Pin_3)*%
X152800000Y-90000000D02*
X163800000Y-90000000D01*
%TD*%
M02*
