%TF.GenerationSoftware,KiCad,Pcbnew,10.0.0*%
%TF.CreationDate,2026-09-07T14:31:11-06:00*%
%TF.ProjectId,GridStripConnector,47726964-5374-4726-9970-436f6e6e6563,rev?*%
%TF.SameCoordinates,Original*%
%TF.FileFunction,Legend,Top*%
%TF.FilePolarity,Positive*%
%FSLAX46Y46*%
G04 Gerber Fmt 4.6, Leading zero omitted, Abs format (unit mm)*
G04 Created by KiCad (PCBNEW 10.0.0) date 2026-09-07 14:31:11*
%MOMM*%
%LPD*%
G01*
G04 APERTURE LIST*
%ADD10C,0.100000*%
G04 APERTURE END LIST*
D10*
X150284666Y-84653419D02*
X150284666Y-85367704D01*
X150284666Y-85367704D02*
X150237047Y-85510561D01*
X150237047Y-85510561D02*
X150141809Y-85605800D01*
X150141809Y-85605800D02*
X149998952Y-85653419D01*
X149998952Y-85653419D02*
X149903714Y-85653419D01*
X151284666Y-85653419D02*
X150713238Y-85653419D01*
X150998952Y-85653419D02*
X150998952Y-84653419D01*
X150998952Y-84653419D02*
X150903714Y-84796276D01*
X150903714Y-84796276D02*
X150808476Y-84891514D01*
X150808476Y-84891514D02*
X150713238Y-84939133D01*
X166884666Y-84653419D02*
X166884666Y-85367704D01*
X166884666Y-85367704D02*
X166837047Y-85510561D01*
X166837047Y-85510561D02*
X166741809Y-85605800D01*
X166741809Y-85605800D02*
X166598952Y-85653419D01*
X166598952Y-85653419D02*
X166503714Y-85653419D01*
X167313238Y-84748657D02*
X167360857Y-84701038D01*
X167360857Y-84701038D02*
X167456095Y-84653419D01*
X167456095Y-84653419D02*
X167694190Y-84653419D01*
X167694190Y-84653419D02*
X167789428Y-84701038D01*
X167789428Y-84701038D02*
X167837047Y-84748657D01*
X167837047Y-84748657D02*
X167884666Y-84843895D01*
X167884666Y-84843895D02*
X167884666Y-84939133D01*
X167884666Y-84939133D02*
X167837047Y-85081990D01*
X167837047Y-85081990D02*
X167265619Y-85653419D01*
X167265619Y-85653419D02*
X167884666Y-85653419D01*
M02*
