%TF.GenerationSoftware,KiCad,Pcbnew,10.0.0*%
%TF.CreationDate,2026-09-10T15:11:45-06:00*%
%TF.ProjectId,Arduino Mega 2560,41726475-696e-46f2-904d-656761203235,1*%
%TF.SameCoordinates,Original*%
%TF.FileFunction,Legend,Bot*%
%TF.FilePolarity,Positive*%
%FSLAX46Y46*%
G04 Gerber Fmt 4.6, Leading zero omitted, Abs format (unit mm)*
G04 Created by KiCad (PCBNEW 10.0.0) date 2026-09-10 15:11:45*
%MOMM*%
%LPD*%
G01*
G04 APERTURE LIST*
%ADD10C,0.100000*%
%ADD11C,0.000000*%
%ADD12C,0.150000*%
%ADD13C,0.250000*%
%ADD14C,0.300000*%
%ADD15C,0.120000*%
G04 APERTURE END LIST*
D10*
X162600000Y-105050000D02*
X165140000Y-105050000D01*
X165140000Y-107590000D01*
X162600000Y-107590000D01*
X162600000Y-105050000D01*
G36*
X162600000Y-105050000D02*
G01*
X165140000Y-105050000D01*
X165140000Y-107590000D01*
X162600000Y-107590000D01*
X162600000Y-105050000D01*
G37*
X132600000Y-94000000D02*
X133400000Y-94000000D01*
X133400000Y-99000000D01*
X132600000Y-99000000D01*
X132600000Y-94000000D01*
G36*
X132600000Y-94000000D02*
G01*
X133400000Y-94000000D01*
X133400000Y-99000000D01*
X132600000Y-99000000D01*
X132600000Y-94000000D01*
G37*
X123190000Y-78386336D02*
X125090000Y-78386336D01*
X125090000Y-81886336D01*
X123190000Y-81886336D01*
X123190000Y-78386336D01*
G36*
X123190000Y-78386336D02*
G01*
X125090000Y-78386336D01*
X125090000Y-81886336D01*
X123190000Y-81886336D01*
X123190000Y-78386336D01*
G37*
D11*
G36*
X149481342Y-95887551D02*
G01*
X151201773Y-95892785D01*
X151902459Y-95897292D01*
X152506576Y-95903303D01*
X153021463Y-95911002D01*
X153454457Y-95920571D01*
X153812897Y-95932196D01*
X154104120Y-95946059D01*
X154335464Y-95962343D01*
X154514268Y-95981232D01*
X154586261Y-95991711D01*
X154647870Y-96002910D01*
X154700013Y-96014852D01*
X154743607Y-96027560D01*
X154779570Y-96041056D01*
X154808819Y-96055365D01*
X154832270Y-96070508D01*
X154850841Y-96086509D01*
X154874691Y-96110818D01*
X154896930Y-96136716D01*
X154917565Y-96164105D01*
X154936598Y-96192886D01*
X154954036Y-96222960D01*
X154969882Y-96254229D01*
X154984142Y-96286594D01*
X154996819Y-96319957D01*
X155007919Y-96354218D01*
X155017445Y-96389280D01*
X155031797Y-96461410D01*
X155039912Y-96535558D01*
X155041826Y-96610935D01*
X155037576Y-96686752D01*
X155027198Y-96762221D01*
X155010731Y-96836553D01*
X154988209Y-96908958D01*
X154974689Y-96944192D01*
X154959670Y-96978648D01*
X154943155Y-97012228D01*
X154925150Y-97044834D01*
X154905659Y-97076367D01*
X154884687Y-97106728D01*
X154862238Y-97135818D01*
X154838316Y-97163540D01*
X154745465Y-97234352D01*
X154558100Y-97288580D01*
X154201667Y-97328426D01*
X153601610Y-97356090D01*
X151372407Y-97383681D01*
X147274055Y-97388964D01*
X145083426Y-97387545D01*
X143366102Y-97382311D01*
X142666630Y-97377804D01*
X142063524Y-97371793D01*
X141549466Y-97364094D01*
X141117136Y-97354524D01*
X140759213Y-97342899D01*
X140468378Y-97329037D01*
X140237312Y-97312752D01*
X140058695Y-97293863D01*
X139986767Y-97283384D01*
X139925207Y-97272185D01*
X139873099Y-97260244D01*
X139829528Y-97247536D01*
X139793579Y-97234039D01*
X139764338Y-97219731D01*
X139740890Y-97204588D01*
X139722319Y-97188587D01*
X139699571Y-97164100D01*
X139678290Y-97137686D01*
X139658478Y-97109474D01*
X139640133Y-97079593D01*
X139623255Y-97048171D01*
X139607845Y-97015336D01*
X139593903Y-96981217D01*
X139581428Y-96945942D01*
X139560882Y-96872439D01*
X139546206Y-96795854D01*
X139537400Y-96717215D01*
X139534465Y-96637548D01*
X139537400Y-96557881D01*
X139546206Y-96479242D01*
X139560882Y-96402657D01*
X139581428Y-96329154D01*
X139593903Y-96293879D01*
X139607845Y-96259760D01*
X139623255Y-96226926D01*
X139640133Y-96195503D01*
X139658478Y-96165622D01*
X139678290Y-96137410D01*
X139699571Y-96110996D01*
X139722319Y-96086509D01*
X139829552Y-96027560D01*
X140058891Y-95981232D01*
X140469039Y-95946059D01*
X141118701Y-95920571D01*
X143371385Y-95892785D01*
X147286579Y-95886132D01*
X149481342Y-95887551D01*
G37*
G36*
X147537051Y-91790911D02*
G01*
X155614780Y-91815958D01*
X156453861Y-92229238D01*
X156641942Y-92327506D01*
X156825509Y-92434214D01*
X157004161Y-92548993D01*
X157177492Y-92671477D01*
X157345099Y-92801300D01*
X157506579Y-92938093D01*
X157661528Y-93081491D01*
X157809543Y-93231126D01*
X157950220Y-93386631D01*
X158083155Y-93547641D01*
X158207945Y-93713786D01*
X158324186Y-93884702D01*
X158431474Y-94060020D01*
X158529407Y-94239374D01*
X158617580Y-94422398D01*
X158695590Y-94608723D01*
X158768236Y-94812244D01*
X158831196Y-95035798D01*
X158884470Y-95276522D01*
X158928058Y-95531556D01*
X158961960Y-95798038D01*
X158986175Y-96073105D01*
X159000704Y-96353896D01*
X159005548Y-96637548D01*
X159000704Y-96921201D01*
X158986175Y-97201991D01*
X158961960Y-97477058D01*
X158928058Y-97743540D01*
X158884470Y-97998574D01*
X158831196Y-98239299D01*
X158768236Y-98462852D01*
X158695590Y-98666373D01*
X158617580Y-98852698D01*
X158529407Y-99035722D01*
X158431474Y-99215076D01*
X158324186Y-99390394D01*
X158207945Y-99561309D01*
X158083155Y-99727455D01*
X157950220Y-99888464D01*
X157809543Y-100043970D01*
X157661528Y-100193605D01*
X157506579Y-100337002D01*
X157345099Y-100473796D01*
X157177492Y-100603618D01*
X157004161Y-100726102D01*
X156825509Y-100840882D01*
X156641942Y-100947589D01*
X156453861Y-101045858D01*
X155614780Y-101459138D01*
X138958378Y-101459138D01*
X138119297Y-101045858D01*
X137840328Y-100897953D01*
X137576476Y-100736143D01*
X137327888Y-100560611D01*
X137094709Y-100371540D01*
X136877086Y-100169114D01*
X136675168Y-99953516D01*
X136489099Y-99724930D01*
X136319028Y-99483538D01*
X136165100Y-99229525D01*
X136027462Y-98963075D01*
X135906262Y-98684369D01*
X135801646Y-98393593D01*
X135713760Y-98090929D01*
X135642753Y-97776560D01*
X135588769Y-97450671D01*
X135551956Y-97113444D01*
X135539002Y-96929745D01*
X135532853Y-96741038D01*
X135533078Y-96637548D01*
X137205073Y-96637548D01*
X137206834Y-97060489D01*
X137209696Y-97237021D01*
X137214466Y-97393465D01*
X137221584Y-97532225D01*
X137231490Y-97655703D01*
X137244625Y-97766303D01*
X137261429Y-97866427D01*
X137271345Y-97913313D01*
X137282343Y-97958480D01*
X137294478Y-98002231D01*
X137307806Y-98044864D01*
X137322381Y-98086682D01*
X137338259Y-98127983D01*
X137374142Y-98210240D01*
X137415895Y-98294037D01*
X137463960Y-98381779D01*
X137518775Y-98475868D01*
X137580781Y-98578708D01*
X137632634Y-98661084D01*
X137685055Y-98739313D01*
X137738320Y-98813654D01*
X137792704Y-98884362D01*
X137848483Y-98951695D01*
X137905930Y-99015909D01*
X137965323Y-99077261D01*
X138026935Y-99136008D01*
X138091042Y-99192407D01*
X138157919Y-99246715D01*
X138227842Y-99299188D01*
X138301085Y-99350083D01*
X138377923Y-99399658D01*
X138458633Y-99448169D01*
X138543488Y-99495873D01*
X138632764Y-99543026D01*
X139296516Y-99893687D01*
X147274055Y-99893687D01*
X150189928Y-99893002D01*
X151360626Y-99890054D01*
X152360402Y-99883511D01*
X152801016Y-99878456D01*
X153204685Y-99871978D01*
X153573338Y-99863905D01*
X153908903Y-99854061D01*
X154213308Y-99842273D01*
X154488483Y-99828366D01*
X154736356Y-99812165D01*
X154958856Y-99793498D01*
X155157910Y-99772188D01*
X155335448Y-99748063D01*
X155493397Y-99720947D01*
X155633687Y-99690667D01*
X155758247Y-99657048D01*
X155815230Y-99638932D01*
X155869003Y-99619916D01*
X155919809Y-99599978D01*
X155967886Y-99579097D01*
X156013478Y-99557250D01*
X156056824Y-99534415D01*
X156137745Y-99485698D01*
X156212577Y-99432771D01*
X156283250Y-99375460D01*
X156351691Y-99313589D01*
X156419830Y-99246986D01*
X156489595Y-99175475D01*
X156641716Y-99017034D01*
X156754177Y-98894911D01*
X156856916Y-98772090D01*
X156950189Y-98647581D01*
X157034253Y-98520394D01*
X157109364Y-98389538D01*
X157175779Y-98254023D01*
X157233756Y-98112857D01*
X157283551Y-97965050D01*
X157325421Y-97809612D01*
X157359622Y-97645551D01*
X157386412Y-97471878D01*
X157406048Y-97287601D01*
X157418786Y-97091730D01*
X157424882Y-96883274D01*
X157424595Y-96661243D01*
X157418181Y-96424646D01*
X157398857Y-96087903D01*
X157388186Y-95942839D01*
X157376304Y-95811185D01*
X157362808Y-95691346D01*
X157347294Y-95581725D01*
X157329359Y-95480725D01*
X157308598Y-95386752D01*
X157284609Y-95298210D01*
X157256987Y-95213501D01*
X157225330Y-95131030D01*
X157189233Y-95049202D01*
X157148292Y-94966420D01*
X157102105Y-94881087D01*
X157050268Y-94791609D01*
X156992377Y-94696388D01*
X156940524Y-94614013D01*
X156888103Y-94535783D01*
X156834838Y-94461442D01*
X156780454Y-94390734D01*
X156724676Y-94323401D01*
X156667228Y-94259187D01*
X156607836Y-94197835D01*
X156546224Y-94139088D01*
X156482117Y-94082689D01*
X156415240Y-94028381D01*
X156345317Y-93975908D01*
X156272074Y-93925012D01*
X156195236Y-93875437D01*
X156114527Y-93826927D01*
X156029671Y-93779223D01*
X155940395Y-93732070D01*
X155276643Y-93381409D01*
X139296516Y-93381409D01*
X138632764Y-93732070D01*
X138543488Y-93779223D01*
X138458633Y-93826927D01*
X138377923Y-93875437D01*
X138301085Y-93925012D01*
X138227842Y-93975908D01*
X138157919Y-94028381D01*
X138091042Y-94082689D01*
X138026935Y-94139088D01*
X137965323Y-94197835D01*
X137905930Y-94259187D01*
X137848483Y-94323401D01*
X137792704Y-94390734D01*
X137738320Y-94461442D01*
X137685055Y-94535783D01*
X137632634Y-94614013D01*
X137580781Y-94696388D01*
X137463960Y-94893317D01*
X137415895Y-94981059D01*
X137374142Y-95064856D01*
X137338259Y-95147113D01*
X137307806Y-95230232D01*
X137282343Y-95316616D01*
X137261429Y-95408669D01*
X137244625Y-95508793D01*
X137231490Y-95619393D01*
X137221584Y-95742871D01*
X137214466Y-95881631D01*
X137206834Y-96214607D01*
X137205073Y-96637548D01*
X135533078Y-96637548D01*
X135533272Y-96548479D01*
X135540020Y-96353222D01*
X135552858Y-96156425D01*
X135571549Y-95959242D01*
X135595853Y-95762830D01*
X135625533Y-95568344D01*
X135660349Y-95376940D01*
X135700063Y-95189774D01*
X135744437Y-95008001D01*
X135793232Y-94832778D01*
X135846209Y-94665259D01*
X135903131Y-94506602D01*
X135963759Y-94357960D01*
X136027854Y-94220491D01*
X136137796Y-94022764D01*
X136260470Y-93829202D01*
X136395105Y-93640445D01*
X136540930Y-93457138D01*
X136697176Y-93279921D01*
X136863071Y-93109436D01*
X137037845Y-92946327D01*
X137220728Y-92791234D01*
X137410948Y-92644800D01*
X137607736Y-92507667D01*
X137810322Y-92380477D01*
X138017934Y-92263873D01*
X138229802Y-92158495D01*
X138445155Y-92064987D01*
X138663224Y-91983990D01*
X138883237Y-91916147D01*
X139129233Y-91877377D01*
X139557359Y-91845506D01*
X141073303Y-91801869D01*
X143657667Y-91784062D01*
X147537051Y-91790911D01*
G37*
D10*
X118900000Y-98400000D02*
X133400000Y-98400000D01*
X133400000Y-99000000D01*
X118900000Y-99000000D01*
X118900000Y-98400000D01*
G36*
X118900000Y-98400000D02*
G01*
X133400000Y-98400000D01*
X133400000Y-99000000D01*
X118900000Y-99000000D01*
X118900000Y-98400000D01*
G37*
X112160000Y-85500000D02*
X114700000Y-85500000D01*
X114700000Y-88040000D01*
X112160000Y-88040000D01*
X112160000Y-85500000D01*
G36*
X112160000Y-85500000D02*
G01*
X114700000Y-85500000D01*
X114700000Y-88040000D01*
X112160000Y-88040000D01*
X112160000Y-85500000D01*
G37*
X137152219Y-128089487D02*
X141978219Y-128089487D01*
X141978219Y-131589487D01*
X137152219Y-131589487D01*
X137152219Y-128089487D01*
G36*
X137152219Y-128089487D02*
G01*
X141978219Y-128089487D01*
X141978219Y-131589487D01*
X137152219Y-131589487D01*
X137152219Y-128089487D01*
G37*
X118900000Y-94000000D02*
X119650000Y-94000000D01*
X119650000Y-99000000D01*
X118900000Y-99000000D01*
X118900000Y-94000000D01*
G36*
X118900000Y-94000000D02*
G01*
X119650000Y-94000000D01*
X119650000Y-99000000D01*
X118900000Y-99000000D01*
X118900000Y-94000000D01*
G37*
X190350000Y-122800000D02*
X199250000Y-122800000D01*
X199250000Y-125400000D01*
X190350000Y-125400000D01*
X190350000Y-122800000D01*
G36*
X190350000Y-122800000D02*
G01*
X199250000Y-122800000D01*
X199250000Y-125400000D01*
X190350000Y-125400000D01*
X190350000Y-122800000D01*
G37*
X118900000Y-94000000D02*
X133400000Y-94000000D01*
X133400000Y-94600000D01*
X118900000Y-94600000D01*
X118900000Y-94000000D01*
G36*
X118900000Y-94000000D02*
G01*
X133400000Y-94000000D01*
X133400000Y-94600000D01*
X118900000Y-94600000D01*
X118900000Y-94000000D01*
G37*
D12*
X117148935Y-82956200D02*
X117034649Y-82994295D01*
X117034649Y-82994295D02*
X116844173Y-82994295D01*
X116844173Y-82994295D02*
X116767982Y-82956200D01*
X116767982Y-82956200D02*
X116729887Y-82918104D01*
X116729887Y-82918104D02*
X116691792Y-82841914D01*
X116691792Y-82841914D02*
X116691792Y-82765723D01*
X116691792Y-82765723D02*
X116729887Y-82689533D01*
X116729887Y-82689533D02*
X116767982Y-82651438D01*
X116767982Y-82651438D02*
X116844173Y-82613342D01*
X116844173Y-82613342D02*
X116996554Y-82575247D01*
X116996554Y-82575247D02*
X117072744Y-82537152D01*
X117072744Y-82537152D02*
X117110839Y-82499057D01*
X117110839Y-82499057D02*
X117148935Y-82422866D01*
X117148935Y-82422866D02*
X117148935Y-82346676D01*
X117148935Y-82346676D02*
X117110839Y-82270485D01*
X117110839Y-82270485D02*
X117072744Y-82232390D01*
X117072744Y-82232390D02*
X116996554Y-82194295D01*
X116996554Y-82194295D02*
X116806077Y-82194295D01*
X116806077Y-82194295D02*
X116691792Y-82232390D01*
X115891791Y-82918104D02*
X115929887Y-82956200D01*
X115929887Y-82956200D02*
X116044172Y-82994295D01*
X116044172Y-82994295D02*
X116120363Y-82994295D01*
X116120363Y-82994295D02*
X116234649Y-82956200D01*
X116234649Y-82956200D02*
X116310839Y-82880009D01*
X116310839Y-82880009D02*
X116348934Y-82803819D01*
X116348934Y-82803819D02*
X116387030Y-82651438D01*
X116387030Y-82651438D02*
X116387030Y-82537152D01*
X116387030Y-82537152D02*
X116348934Y-82384771D01*
X116348934Y-82384771D02*
X116310839Y-82308580D01*
X116310839Y-82308580D02*
X116234649Y-82232390D01*
X116234649Y-82232390D02*
X116120363Y-82194295D01*
X116120363Y-82194295D02*
X116044172Y-82194295D01*
X116044172Y-82194295D02*
X115929887Y-82232390D01*
X115929887Y-82232390D02*
X115891791Y-82270485D01*
X115167982Y-82994295D02*
X115548934Y-82994295D01*
X115548934Y-82994295D02*
X115548934Y-82194295D01*
D13*
X118118860Y-94153071D02*
X118052193Y-94093547D01*
X118052193Y-94093547D02*
X117918860Y-94034023D01*
X117918860Y-94034023D02*
X117585527Y-94034023D01*
X117585527Y-94034023D02*
X117452193Y-94093547D01*
X117452193Y-94093547D02*
X117385527Y-94153071D01*
X117385527Y-94153071D02*
X117318860Y-94272119D01*
X117318860Y-94272119D02*
X117318860Y-94391166D01*
X117318860Y-94391166D02*
X117385527Y-94569738D01*
X117385527Y-94569738D02*
X118185527Y-95284023D01*
X118185527Y-95284023D02*
X117318860Y-95284023D01*
X116052194Y-94034023D02*
X116718860Y-94034023D01*
X116718860Y-94034023D02*
X116785527Y-94629261D01*
X116785527Y-94629261D02*
X116718860Y-94569738D01*
X116718860Y-94569738D02*
X116585527Y-94510214D01*
X116585527Y-94510214D02*
X116252194Y-94510214D01*
X116252194Y-94510214D02*
X116118860Y-94569738D01*
X116118860Y-94569738D02*
X116052194Y-94629261D01*
X116052194Y-94629261D02*
X115985527Y-94748309D01*
X115985527Y-94748309D02*
X115985527Y-95045928D01*
X115985527Y-95045928D02*
X116052194Y-95164976D01*
X116052194Y-95164976D02*
X116118860Y-95224500D01*
X116118860Y-95224500D02*
X116252194Y-95284023D01*
X116252194Y-95284023D02*
X116585527Y-95284023D01*
X116585527Y-95284023D02*
X116718860Y-95224500D01*
X116718860Y-95224500D02*
X116785527Y-95164976D01*
X114785527Y-94034023D02*
X115052194Y-94034023D01*
X115052194Y-94034023D02*
X115185527Y-94093547D01*
X115185527Y-94093547D02*
X115252194Y-94153071D01*
X115252194Y-94153071D02*
X115385527Y-94331642D01*
X115385527Y-94331642D02*
X115452194Y-94569738D01*
X115452194Y-94569738D02*
X115452194Y-95045928D01*
X115452194Y-95045928D02*
X115385527Y-95164976D01*
X115385527Y-95164976D02*
X115318861Y-95224500D01*
X115318861Y-95224500D02*
X115185527Y-95284023D01*
X115185527Y-95284023D02*
X114918861Y-95284023D01*
X114918861Y-95284023D02*
X114785527Y-95224500D01*
X114785527Y-95224500D02*
X114718861Y-95164976D01*
X114718861Y-95164976D02*
X114652194Y-95045928D01*
X114652194Y-95045928D02*
X114652194Y-94748309D01*
X114652194Y-94748309D02*
X114718861Y-94629261D01*
X114718861Y-94629261D02*
X114785527Y-94569738D01*
X114785527Y-94569738D02*
X114918861Y-94510214D01*
X114918861Y-94510214D02*
X115185527Y-94510214D01*
X115185527Y-94510214D02*
X115318861Y-94569738D01*
X115318861Y-94569738D02*
X115385527Y-94629261D01*
X115385527Y-94629261D02*
X115452194Y-94748309D01*
X113785528Y-94034023D02*
X113652194Y-94034023D01*
X113652194Y-94034023D02*
X113518861Y-94093547D01*
X113518861Y-94093547D02*
X113452194Y-94153071D01*
X113452194Y-94153071D02*
X113385528Y-94272119D01*
X113385528Y-94272119D02*
X113318861Y-94510214D01*
X113318861Y-94510214D02*
X113318861Y-94807833D01*
X113318861Y-94807833D02*
X113385528Y-95045928D01*
X113385528Y-95045928D02*
X113452194Y-95164976D01*
X113452194Y-95164976D02*
X113518861Y-95224500D01*
X113518861Y-95224500D02*
X113652194Y-95284023D01*
X113652194Y-95284023D02*
X113785528Y-95284023D01*
X113785528Y-95284023D02*
X113918861Y-95224500D01*
X113918861Y-95224500D02*
X113985528Y-95164976D01*
X113985528Y-95164976D02*
X114052194Y-95045928D01*
X114052194Y-95045928D02*
X114118861Y-94807833D01*
X114118861Y-94807833D02*
X114118861Y-94510214D01*
X114118861Y-94510214D02*
X114052194Y-94272119D01*
X114052194Y-94272119D02*
X113985528Y-94153071D01*
X113985528Y-94153071D02*
X113918861Y-94093547D01*
X113918861Y-94093547D02*
X113785528Y-94034023D01*
X137018860Y-124393547D02*
X137152193Y-124334023D01*
X137152193Y-124334023D02*
X137352193Y-124334023D01*
X137352193Y-124334023D02*
X137552193Y-124393547D01*
X137552193Y-124393547D02*
X137685527Y-124512595D01*
X137685527Y-124512595D02*
X137752193Y-124631642D01*
X137752193Y-124631642D02*
X137818860Y-124869738D01*
X137818860Y-124869738D02*
X137818860Y-125048309D01*
X137818860Y-125048309D02*
X137752193Y-125286404D01*
X137752193Y-125286404D02*
X137685527Y-125405452D01*
X137685527Y-125405452D02*
X137552193Y-125524500D01*
X137552193Y-125524500D02*
X137352193Y-125584023D01*
X137352193Y-125584023D02*
X137218860Y-125584023D01*
X137218860Y-125584023D02*
X137018860Y-125524500D01*
X137018860Y-125524500D02*
X136952193Y-125464976D01*
X136952193Y-125464976D02*
X136952193Y-125048309D01*
X136952193Y-125048309D02*
X137218860Y-125048309D01*
X136352193Y-125584023D02*
X136352193Y-124334023D01*
X135885526Y-124334023D02*
X135085526Y-124334023D01*
X135485526Y-125584023D02*
X135485526Y-124334023D01*
X134618859Y-125584023D02*
X134618859Y-124334023D01*
X134618859Y-124929261D02*
X133818859Y-124929261D01*
X133818859Y-125584023D02*
X133818859Y-124334023D01*
X133152192Y-124334023D02*
X133152192Y-125345928D01*
X133152192Y-125345928D02*
X133085526Y-125464976D01*
X133085526Y-125464976D02*
X133018859Y-125524500D01*
X133018859Y-125524500D02*
X132885526Y-125584023D01*
X132885526Y-125584023D02*
X132618859Y-125584023D01*
X132618859Y-125584023D02*
X132485526Y-125524500D01*
X132485526Y-125524500D02*
X132418859Y-125464976D01*
X132418859Y-125464976D02*
X132352192Y-125345928D01*
X132352192Y-125345928D02*
X132352192Y-124334023D01*
X131218859Y-124929261D02*
X131018859Y-124988785D01*
X131018859Y-124988785D02*
X130952192Y-125048309D01*
X130952192Y-125048309D02*
X130885525Y-125167357D01*
X130885525Y-125167357D02*
X130885525Y-125345928D01*
X130885525Y-125345928D02*
X130952192Y-125464976D01*
X130952192Y-125464976D02*
X131018859Y-125524500D01*
X131018859Y-125524500D02*
X131152192Y-125584023D01*
X131152192Y-125584023D02*
X131685525Y-125584023D01*
X131685525Y-125584023D02*
X131685525Y-124334023D01*
X131685525Y-124334023D02*
X131218859Y-124334023D01*
X131218859Y-124334023D02*
X131085525Y-124393547D01*
X131085525Y-124393547D02*
X131018859Y-124453071D01*
X131018859Y-124453071D02*
X130952192Y-124572119D01*
X130952192Y-124572119D02*
X130952192Y-124691166D01*
X130952192Y-124691166D02*
X131018859Y-124810214D01*
X131018859Y-124810214D02*
X131085525Y-124869738D01*
X131085525Y-124869738D02*
X131218859Y-124929261D01*
X131218859Y-124929261D02*
X131685525Y-124929261D01*
X130285525Y-125464976D02*
X130218859Y-125524500D01*
X130218859Y-125524500D02*
X130285525Y-125584023D01*
X130285525Y-125584023D02*
X130352192Y-125524500D01*
X130352192Y-125524500D02*
X130285525Y-125464976D01*
X130285525Y-125464976D02*
X130285525Y-125584023D01*
X128818858Y-125464976D02*
X128885525Y-125524500D01*
X128885525Y-125524500D02*
X129085525Y-125584023D01*
X129085525Y-125584023D02*
X129218858Y-125584023D01*
X129218858Y-125584023D02*
X129418858Y-125524500D01*
X129418858Y-125524500D02*
X129552192Y-125405452D01*
X129552192Y-125405452D02*
X129618858Y-125286404D01*
X129618858Y-125286404D02*
X129685525Y-125048309D01*
X129685525Y-125048309D02*
X129685525Y-124869738D01*
X129685525Y-124869738D02*
X129618858Y-124631642D01*
X129618858Y-124631642D02*
X129552192Y-124512595D01*
X129552192Y-124512595D02*
X129418858Y-124393547D01*
X129418858Y-124393547D02*
X129218858Y-124334023D01*
X129218858Y-124334023D02*
X129085525Y-124334023D01*
X129085525Y-124334023D02*
X128885525Y-124393547D01*
X128885525Y-124393547D02*
X128818858Y-124453071D01*
X127952192Y-124334023D02*
X127685525Y-124334023D01*
X127685525Y-124334023D02*
X127552192Y-124393547D01*
X127552192Y-124393547D02*
X127418858Y-124512595D01*
X127418858Y-124512595D02*
X127352192Y-124750690D01*
X127352192Y-124750690D02*
X127352192Y-125167357D01*
X127352192Y-125167357D02*
X127418858Y-125405452D01*
X127418858Y-125405452D02*
X127552192Y-125524500D01*
X127552192Y-125524500D02*
X127685525Y-125584023D01*
X127685525Y-125584023D02*
X127952192Y-125584023D01*
X127952192Y-125584023D02*
X128085525Y-125524500D01*
X128085525Y-125524500D02*
X128218858Y-125405452D01*
X128218858Y-125405452D02*
X128285525Y-125167357D01*
X128285525Y-125167357D02*
X128285525Y-124750690D01*
X128285525Y-124750690D02*
X128218858Y-124512595D01*
X128218858Y-124512595D02*
X128085525Y-124393547D01*
X128085525Y-124393547D02*
X127952192Y-124334023D01*
X126752191Y-125584023D02*
X126752191Y-124334023D01*
X126752191Y-124334023D02*
X126285525Y-125226880D01*
X126285525Y-125226880D02*
X125818858Y-124334023D01*
X125818858Y-124334023D02*
X125818858Y-125584023D01*
X124152191Y-124274500D02*
X125352191Y-125881642D01*
X123752191Y-125524500D02*
X123552191Y-125584023D01*
X123552191Y-125584023D02*
X123218858Y-125584023D01*
X123218858Y-125584023D02*
X123085524Y-125524500D01*
X123085524Y-125524500D02*
X123018858Y-125464976D01*
X123018858Y-125464976D02*
X122952191Y-125345928D01*
X122952191Y-125345928D02*
X122952191Y-125226880D01*
X122952191Y-125226880D02*
X123018858Y-125107833D01*
X123018858Y-125107833D02*
X123085524Y-125048309D01*
X123085524Y-125048309D02*
X123218858Y-124988785D01*
X123218858Y-124988785D02*
X123485524Y-124929261D01*
X123485524Y-124929261D02*
X123618858Y-124869738D01*
X123618858Y-124869738D02*
X123685524Y-124810214D01*
X123685524Y-124810214D02*
X123752191Y-124691166D01*
X123752191Y-124691166D02*
X123752191Y-124572119D01*
X123752191Y-124572119D02*
X123685524Y-124453071D01*
X123685524Y-124453071D02*
X123618858Y-124393547D01*
X123618858Y-124393547D02*
X123485524Y-124334023D01*
X123485524Y-124334023D02*
X123152191Y-124334023D01*
X123152191Y-124334023D02*
X122952191Y-124393547D01*
X122418858Y-125226880D02*
X121752191Y-125226880D01*
X122552191Y-125584023D02*
X122085525Y-124334023D01*
X122085525Y-124334023D02*
X121618858Y-125584023D01*
X120685525Y-124929261D02*
X120485525Y-124988785D01*
X120485525Y-124988785D02*
X120418858Y-125048309D01*
X120418858Y-125048309D02*
X120352191Y-125167357D01*
X120352191Y-125167357D02*
X120352191Y-125345928D01*
X120352191Y-125345928D02*
X120418858Y-125464976D01*
X120418858Y-125464976D02*
X120485525Y-125524500D01*
X120485525Y-125524500D02*
X120618858Y-125584023D01*
X120618858Y-125584023D02*
X121152191Y-125584023D01*
X121152191Y-125584023D02*
X121152191Y-124334023D01*
X121152191Y-124334023D02*
X120685525Y-124334023D01*
X120685525Y-124334023D02*
X120552191Y-124393547D01*
X120552191Y-124393547D02*
X120485525Y-124453071D01*
X120485525Y-124453071D02*
X120418858Y-124572119D01*
X120418858Y-124572119D02*
X120418858Y-124691166D01*
X120418858Y-124691166D02*
X120485525Y-124810214D01*
X120485525Y-124810214D02*
X120552191Y-124869738D01*
X120552191Y-124869738D02*
X120685525Y-124929261D01*
X120685525Y-124929261D02*
X121152191Y-124929261D01*
X119485525Y-124334023D02*
X119218858Y-124334023D01*
X119218858Y-124334023D02*
X119085525Y-124393547D01*
X119085525Y-124393547D02*
X118952191Y-124512595D01*
X118952191Y-124512595D02*
X118885525Y-124750690D01*
X118885525Y-124750690D02*
X118885525Y-125167357D01*
X118885525Y-125167357D02*
X118952191Y-125405452D01*
X118952191Y-125405452D02*
X119085525Y-125524500D01*
X119085525Y-125524500D02*
X119218858Y-125584023D01*
X119218858Y-125584023D02*
X119485525Y-125584023D01*
X119485525Y-125584023D02*
X119618858Y-125524500D01*
X119618858Y-125524500D02*
X119752191Y-125405452D01*
X119752191Y-125405452D02*
X119818858Y-125167357D01*
X119818858Y-125167357D02*
X119818858Y-124750690D01*
X119818858Y-124750690D02*
X119752191Y-124512595D01*
X119752191Y-124512595D02*
X119618858Y-124393547D01*
X119618858Y-124393547D02*
X119485525Y-124334023D01*
X117552191Y-124393547D02*
X117685524Y-124334023D01*
X117685524Y-124334023D02*
X117885524Y-124334023D01*
X117885524Y-124334023D02*
X118085524Y-124393547D01*
X118085524Y-124393547D02*
X118218858Y-124512595D01*
X118218858Y-124512595D02*
X118285524Y-124631642D01*
X118285524Y-124631642D02*
X118352191Y-124869738D01*
X118352191Y-124869738D02*
X118352191Y-125048309D01*
X118352191Y-125048309D02*
X118285524Y-125286404D01*
X118285524Y-125286404D02*
X118218858Y-125405452D01*
X118218858Y-125405452D02*
X118085524Y-125524500D01*
X118085524Y-125524500D02*
X117885524Y-125584023D01*
X117885524Y-125584023D02*
X117752191Y-125584023D01*
X117752191Y-125584023D02*
X117552191Y-125524500D01*
X117552191Y-125524500D02*
X117485524Y-125464976D01*
X117485524Y-125464976D02*
X117485524Y-125048309D01*
X117485524Y-125048309D02*
X117752191Y-125048309D01*
X116952191Y-125226880D02*
X116285524Y-125226880D01*
X117085524Y-125584023D02*
X116618858Y-124334023D01*
X116618858Y-124334023D02*
X116152191Y-125584023D01*
X115018858Y-125584023D02*
X115685524Y-125584023D01*
X115685524Y-125584023D02*
X115685524Y-124334023D01*
X113752191Y-125464976D02*
X113818858Y-125524500D01*
X113818858Y-125524500D02*
X114018858Y-125584023D01*
X114018858Y-125584023D02*
X114152191Y-125584023D01*
X114152191Y-125584023D02*
X114352191Y-125524500D01*
X114352191Y-125524500D02*
X114485525Y-125405452D01*
X114485525Y-125405452D02*
X114552191Y-125286404D01*
X114552191Y-125286404D02*
X114618858Y-125048309D01*
X114618858Y-125048309D02*
X114618858Y-124869738D01*
X114618858Y-124869738D02*
X114552191Y-124631642D01*
X114552191Y-124631642D02*
X114485525Y-124512595D01*
X114485525Y-124512595D02*
X114352191Y-124393547D01*
X114352191Y-124393547D02*
X114152191Y-124334023D01*
X114152191Y-124334023D02*
X114018858Y-124334023D01*
X114018858Y-124334023D02*
X113818858Y-124393547D01*
X113818858Y-124393547D02*
X113752191Y-124453071D01*
D14*
G36*
X121776095Y-97010114D02*
G01*
X120591074Y-97010114D01*
X121183584Y-95441704D01*
X121776095Y-97010114D01*
G37*
G36*
X132676441Y-98500590D02*
G01*
X119568951Y-98500590D01*
X119568951Y-97992641D01*
X119902284Y-97992641D01*
X119904128Y-98051139D01*
X119928216Y-98104478D01*
X119970884Y-98144540D01*
X120025635Y-98165224D01*
X120084133Y-98163380D01*
X120137472Y-98139292D01*
X120177534Y-98096624D01*
X120190572Y-98070267D01*
X120477741Y-97310114D01*
X121889428Y-97310114D01*
X122176597Y-98070267D01*
X122189635Y-98096624D01*
X122229697Y-98139292D01*
X122283036Y-98163380D01*
X122341534Y-98165224D01*
X122396285Y-98144540D01*
X122438953Y-98104478D01*
X122463041Y-98051140D01*
X122464885Y-97992641D01*
X122457239Y-97964247D01*
X121991551Y-96731542D01*
X123138347Y-96731542D01*
X123138347Y-97731542D01*
X123141229Y-97760806D01*
X123143045Y-97765190D01*
X123143341Y-97769924D01*
X123154183Y-97792081D01*
X123163627Y-97814878D01*
X123166981Y-97818232D01*
X123169067Y-97822494D01*
X123189103Y-97844017D01*
X123351007Y-97986875D01*
X123374857Y-98004076D01*
X123378041Y-98005167D01*
X123380664Y-98007283D01*
X123407926Y-98018305D01*
X123893641Y-98161162D01*
X123903444Y-98163025D01*
X123906702Y-98164375D01*
X123914669Y-98165159D01*
X123922530Y-98166654D01*
X123926034Y-98166278D01*
X123935966Y-98167257D01*
X124259775Y-98167257D01*
X124269707Y-98166278D01*
X124273212Y-98166654D01*
X124281073Y-98165159D01*
X124289039Y-98164375D01*
X124292295Y-98163025D01*
X124302100Y-98161162D01*
X124787814Y-98018305D01*
X124815076Y-98007283D01*
X124817698Y-98005167D01*
X124820882Y-98004076D01*
X124844732Y-97986876D01*
X125168542Y-97701161D01*
X125179797Y-97689070D01*
X125182867Y-97686676D01*
X125185480Y-97682966D01*
X125188579Y-97679638D01*
X125190293Y-97676133D01*
X125199802Y-97662637D01*
X125361707Y-97376923D01*
X125363538Y-97372793D01*
X125364773Y-97371231D01*
X125368969Y-97360547D01*
X125373628Y-97350042D01*
X125373872Y-97348064D01*
X125375523Y-97343861D01*
X125537427Y-96772432D01*
X125538974Y-96763827D01*
X125540226Y-96760806D01*
X125541083Y-96752102D01*
X125542632Y-96743490D01*
X125542251Y-96740240D01*
X125543108Y-96731542D01*
X125543108Y-96302971D01*
X125542251Y-96294272D01*
X125542632Y-96291023D01*
X125541083Y-96282410D01*
X125540226Y-96273707D01*
X125538974Y-96270685D01*
X125537427Y-96262081D01*
X125375523Y-95690652D01*
X125373872Y-95686448D01*
X125373628Y-95684471D01*
X125368969Y-95673965D01*
X125364773Y-95663282D01*
X125363538Y-95661719D01*
X125361707Y-95657590D01*
X125199802Y-95371876D01*
X125190293Y-95358379D01*
X125188579Y-95354875D01*
X125185480Y-95351546D01*
X125182867Y-95347837D01*
X125179797Y-95345442D01*
X125168542Y-95333352D01*
X124844732Y-95047638D01*
X124820882Y-95030438D01*
X124817698Y-95029346D01*
X124815076Y-95027231D01*
X124787814Y-95016209D01*
X124691880Y-94987993D01*
X126541228Y-94987993D01*
X126541228Y-95046521D01*
X126563626Y-95100593D01*
X126605010Y-95141977D01*
X126659082Y-95164375D01*
X126688346Y-95167257D01*
X128157394Y-95167257D01*
X128157394Y-96295828D01*
X127174060Y-96295828D01*
X127144796Y-96298710D01*
X127090724Y-96321108D01*
X127049340Y-96362492D01*
X127026942Y-96416564D01*
X127026942Y-96475092D01*
X127049340Y-96529164D01*
X127090724Y-96570548D01*
X127144796Y-96592946D01*
X127174060Y-96595828D01*
X128157394Y-96595828D01*
X128157394Y-97867257D01*
X126688346Y-97867257D01*
X126659082Y-97870139D01*
X126605010Y-97892537D01*
X126563626Y-97933921D01*
X126541228Y-97987993D01*
X126541228Y-98046521D01*
X126563626Y-98100593D01*
X126605010Y-98141977D01*
X126659082Y-98164375D01*
X126688346Y-98167257D01*
X128307394Y-98167257D01*
X128336658Y-98164375D01*
X128390730Y-98141977D01*
X128432114Y-98100593D01*
X128454512Y-98046521D01*
X128457394Y-98017257D01*
X128457394Y-95017257D01*
X129776441Y-95017257D01*
X129776441Y-98017257D01*
X129779323Y-98046521D01*
X129801721Y-98100593D01*
X129843105Y-98141977D01*
X129897177Y-98164375D01*
X129955705Y-98164375D01*
X130009777Y-98141977D01*
X130051161Y-98100593D01*
X130073559Y-98046521D01*
X130076441Y-98017257D01*
X130076441Y-95621708D01*
X130927177Y-97230243D01*
X130927668Y-97230986D01*
X130927797Y-97231402D01*
X130928530Y-97232287D01*
X130943407Y-97254764D01*
X130955286Y-97264601D01*
X130965124Y-97276481D01*
X130977608Y-97283084D01*
X130988486Y-97292091D01*
X131003224Y-97296632D01*
X131016861Y-97303845D01*
X131030922Y-97305167D01*
X131044417Y-97309326D01*
X131059774Y-97307881D01*
X131075131Y-97309326D01*
X131088625Y-97305167D01*
X131102687Y-97303845D01*
X131116324Y-97296632D01*
X131131062Y-97292091D01*
X131141936Y-97283086D01*
X131154424Y-97276482D01*
X131164262Y-97264599D01*
X131176141Y-97254764D01*
X131191017Y-97232287D01*
X131191751Y-97231402D01*
X131191879Y-97230986D01*
X131192371Y-97230243D01*
X132043108Y-95621707D01*
X132043108Y-98017257D01*
X132045990Y-98046521D01*
X132068388Y-98100593D01*
X132109772Y-98141977D01*
X132163844Y-98164375D01*
X132222372Y-98164375D01*
X132276444Y-98141977D01*
X132317828Y-98100593D01*
X132340226Y-98046521D01*
X132343108Y-98017257D01*
X132343108Y-95017257D01*
X132341965Y-95005657D01*
X132342319Y-95001900D01*
X132341255Y-94998449D01*
X132340226Y-94987993D01*
X132331667Y-94967330D01*
X132325085Y-94945969D01*
X132320549Y-94940492D01*
X132317828Y-94933921D01*
X132302015Y-94918108D01*
X132287758Y-94900890D01*
X132281472Y-94897565D01*
X132276444Y-94892537D01*
X132255786Y-94883980D01*
X132236021Y-94873526D01*
X132228941Y-94872860D01*
X132222372Y-94870139D01*
X132200006Y-94870139D01*
X132177751Y-94868046D01*
X132170958Y-94870139D01*
X132163844Y-94870139D01*
X132143181Y-94878697D01*
X132121820Y-94885280D01*
X132116342Y-94889815D01*
X132109772Y-94892537D01*
X132093962Y-94908346D01*
X132076740Y-94922607D01*
X132070942Y-94931366D01*
X132068388Y-94933921D01*
X132066942Y-94937410D01*
X132060511Y-94947128D01*
X131059774Y-96839276D01*
X130059038Y-94947128D01*
X130052606Y-94937410D01*
X130051161Y-94933921D01*
X130048606Y-94931366D01*
X130042809Y-94922607D01*
X130025586Y-94908346D01*
X130009777Y-94892537D01*
X130003206Y-94889815D01*
X129997729Y-94885280D01*
X129976363Y-94878696D01*
X129955705Y-94870139D01*
X129948593Y-94870139D01*
X129941798Y-94868045D01*
X129919536Y-94870139D01*
X129897177Y-94870139D01*
X129890608Y-94872860D01*
X129883528Y-94873526D01*
X129863758Y-94883981D01*
X129843105Y-94892537D01*
X129838078Y-94897563D01*
X129831791Y-94900889D01*
X129817530Y-94918111D01*
X129801721Y-94933921D01*
X129798999Y-94940491D01*
X129794464Y-94945969D01*
X129787880Y-94967334D01*
X129779323Y-94987993D01*
X129778293Y-94998444D01*
X129777229Y-95001900D01*
X129777582Y-95005662D01*
X129776441Y-95017257D01*
X128457394Y-95017257D01*
X128454512Y-94987993D01*
X128432114Y-94933921D01*
X128390730Y-94892537D01*
X128336658Y-94870139D01*
X128307394Y-94867257D01*
X126688346Y-94867257D01*
X126659082Y-94870139D01*
X126605010Y-94892537D01*
X126563626Y-94933921D01*
X126541228Y-94987993D01*
X124691880Y-94987993D01*
X124302100Y-94873352D01*
X124292295Y-94871488D01*
X124289039Y-94870139D01*
X124281073Y-94869354D01*
X124273212Y-94867860D01*
X124269707Y-94868235D01*
X124259775Y-94867257D01*
X123774061Y-94867257D01*
X123744797Y-94870139D01*
X123743190Y-94870804D01*
X123741452Y-94870844D01*
X123713515Y-94880019D01*
X123389705Y-95022876D01*
X123364094Y-95037325D01*
X123323663Y-95079643D01*
X123302505Y-95134210D01*
X123303838Y-95192722D01*
X123327462Y-95246271D01*
X123369780Y-95286702D01*
X123424347Y-95307860D01*
X123482859Y-95306527D01*
X123510797Y-95297352D01*
X123805680Y-95167257D01*
X124238173Y-95167257D01*
X124671216Y-95294622D01*
X124951196Y-95541663D01*
X125091804Y-95789793D01*
X125243108Y-96323811D01*
X125243108Y-96710701D01*
X125091804Y-97244719D01*
X124951195Y-97492851D01*
X124671216Y-97739891D01*
X124238173Y-97867257D01*
X123957568Y-97867257D01*
X123524523Y-97739891D01*
X123438347Y-97663852D01*
X123438347Y-96881542D01*
X123935966Y-96881542D01*
X123965230Y-96878660D01*
X124019302Y-96856262D01*
X124060686Y-96814878D01*
X124083084Y-96760806D01*
X124083084Y-96702278D01*
X124060686Y-96648206D01*
X124019302Y-96606822D01*
X123965230Y-96584424D01*
X123935966Y-96581542D01*
X123288347Y-96581542D01*
X123259083Y-96584424D01*
X123205011Y-96606822D01*
X123163627Y-96648206D01*
X123141229Y-96702278D01*
X123138347Y-96731542D01*
X121991551Y-96731542D01*
X121323906Y-94964247D01*
X121310868Y-94937890D01*
X121307590Y-94934399D01*
X121305620Y-94930036D01*
X121287664Y-94913177D01*
X121270806Y-94895222D01*
X121266442Y-94893251D01*
X121262952Y-94889974D01*
X121239907Y-94881268D01*
X121217467Y-94871134D01*
X121212682Y-94870983D01*
X121208201Y-94869290D01*
X121183585Y-94870065D01*
X121158969Y-94869290D01*
X121154487Y-94870983D01*
X121149703Y-94871134D01*
X121127268Y-94881266D01*
X121104218Y-94889974D01*
X121100725Y-94893253D01*
X121096364Y-94895223D01*
X121079509Y-94913173D01*
X121061550Y-94930036D01*
X121059579Y-94934399D01*
X121056302Y-94937890D01*
X121043264Y-94964247D01*
X119909930Y-97964247D01*
X119902284Y-97992641D01*
X119568951Y-97992641D01*
X119568951Y-94533924D01*
X132676441Y-94533924D01*
X132676441Y-98500590D01*
G37*
D12*
X119848935Y-82956200D02*
X119734649Y-82994295D01*
X119734649Y-82994295D02*
X119544173Y-82994295D01*
X119544173Y-82994295D02*
X119467982Y-82956200D01*
X119467982Y-82956200D02*
X119429887Y-82918104D01*
X119429887Y-82918104D02*
X119391792Y-82841914D01*
X119391792Y-82841914D02*
X119391792Y-82765723D01*
X119391792Y-82765723D02*
X119429887Y-82689533D01*
X119429887Y-82689533D02*
X119467982Y-82651438D01*
X119467982Y-82651438D02*
X119544173Y-82613342D01*
X119544173Y-82613342D02*
X119696554Y-82575247D01*
X119696554Y-82575247D02*
X119772744Y-82537152D01*
X119772744Y-82537152D02*
X119810839Y-82499057D01*
X119810839Y-82499057D02*
X119848935Y-82422866D01*
X119848935Y-82422866D02*
X119848935Y-82346676D01*
X119848935Y-82346676D02*
X119810839Y-82270485D01*
X119810839Y-82270485D02*
X119772744Y-82232390D01*
X119772744Y-82232390D02*
X119696554Y-82194295D01*
X119696554Y-82194295D02*
X119506077Y-82194295D01*
X119506077Y-82194295D02*
X119391792Y-82232390D01*
X119048934Y-82994295D02*
X119048934Y-82194295D01*
X119048934Y-82194295D02*
X118858458Y-82194295D01*
X118858458Y-82194295D02*
X118744172Y-82232390D01*
X118744172Y-82232390D02*
X118667982Y-82308580D01*
X118667982Y-82308580D02*
X118629887Y-82384771D01*
X118629887Y-82384771D02*
X118591791Y-82537152D01*
X118591791Y-82537152D02*
X118591791Y-82651438D01*
X118591791Y-82651438D02*
X118629887Y-82803819D01*
X118629887Y-82803819D02*
X118667982Y-82880009D01*
X118667982Y-82880009D02*
X118744172Y-82956200D01*
X118744172Y-82956200D02*
X118858458Y-82994295D01*
X118858458Y-82994295D02*
X119048934Y-82994295D01*
X118287030Y-82765723D02*
X117906077Y-82765723D01*
X118363220Y-82994295D02*
X118096553Y-82194295D01*
X118096553Y-82194295D02*
X117829887Y-82994295D01*
%TO.C,JP1*%
D15*
X107121700Y-97640800D02*
X109921700Y-97640800D01*
X107121700Y-99640800D02*
X107121700Y-97640800D01*
X109921700Y-97640800D02*
X109921700Y-99640800D01*
X109921700Y-99640800D02*
X107121700Y-99640800D01*
%TD*%
M02*
