%TF.GenerationSoftware,KiCad,Pcbnew,10.0.0*%
%TF.CreationDate,2026-09-10T15:11:46-06:00*%
%TF.ProjectId,Arduino Mega 2560,41726475-696e-46f2-904d-656761203235,1*%
%TF.SameCoordinates,Original*%
%TF.FileFunction,Soldermask,Bot*%
%TF.FilePolarity,Negative*%
%FSLAX46Y46*%
G04 Gerber Fmt 4.6, Leading zero omitted, Abs format (unit mm)*
G04 Created by KiCad (PCBNEW 10.0.0) date 2026-09-10 15:11:46*
%MOMM*%
%LPD*%
G01*
G04 APERTURE LIST*
%ADD10R,1.422400X1.422400*%
%ADD11C,1.422400*%
%ADD12R,1.700000X1.700000*%
%ADD13O,1.700000X1.700000*%
%ADD14R,2.000000X4.500000*%
%ADD15O,2.000000X4.000000*%
%ADD16O,4.000000X2.000000*%
%ADD17C,1.500000*%
%ADD18C,0.650000*%
%ADD19O,2.100000X1.000000*%
%ADD20O,1.800000X1.000000*%
%ADD21R,1.000000X1.500000*%
G04 APERTURE END LIST*
D10*
%TO.C,J3*%
X118554700Y-91782800D03*
D11*
X116014700Y-91782800D03*
X118554700Y-89242800D03*
X116014700Y-89242800D03*
%TD*%
D12*
%TO.C,J10*%
X166306700Y-129120800D03*
D13*
X163766700Y-129120800D03*
X161226700Y-129120800D03*
X158686700Y-129120800D03*
X156146700Y-129120800D03*
X153606700Y-129120800D03*
X151066700Y-129120800D03*
X148526700Y-129120800D03*
%TD*%
D12*
%TO.C,J6*%
X116522700Y-80860800D03*
D13*
X119062700Y-80860800D03*
X121602700Y-80860800D03*
X124142700Y-80860800D03*
X126682700Y-80860800D03*
X129222700Y-80860800D03*
X131762700Y-80860800D03*
X134302700Y-80860800D03*
X136842700Y-80860800D03*
X139382700Y-80860800D03*
%TD*%
D12*
%TO.C,J11*%
X143446700Y-129120800D03*
D13*
X140906700Y-129120800D03*
X138366700Y-129120800D03*
X135826700Y-129120800D03*
X133286700Y-129120800D03*
X130746700Y-129120800D03*
X128206700Y-129120800D03*
X125666700Y-129120800D03*
%TD*%
D12*
%TO.C,J7*%
X143446700Y-80860800D03*
D13*
X145986700Y-80860800D03*
X148526700Y-80860800D03*
X151066700Y-80860800D03*
X153606700Y-80860800D03*
X156146700Y-80860800D03*
X158686700Y-80860800D03*
X161226700Y-80860800D03*
%TD*%
D12*
%TO.C,J9*%
X189166700Y-129120800D03*
D13*
X186626700Y-129120800D03*
X184086700Y-129120800D03*
X181546700Y-129120800D03*
X179006700Y-129120800D03*
X176466700Y-129120800D03*
X173926700Y-129120800D03*
X171386700Y-129120800D03*
%TD*%
D12*
%TO.C,J2*%
X118554700Y-84162800D03*
D13*
X118554700Y-86702800D03*
X116014700Y-84162800D03*
X116014700Y-86702800D03*
X113474700Y-84162800D03*
X113474700Y-86702800D03*
%TD*%
D12*
%TO.C,J12*%
X161353700Y-101180800D03*
D13*
X163893700Y-101180800D03*
X161353700Y-103720800D03*
X163893700Y-103720800D03*
X161353700Y-106260800D03*
X163893700Y-106260800D03*
%TD*%
D14*
%TO.C,J4*%
X109260700Y-123275800D03*
D15*
X103060700Y-123275800D03*
D16*
X106060700Y-127975800D03*
%TD*%
D12*
%TO.C,J8*%
X166306700Y-80860800D03*
D13*
X168846700Y-80860800D03*
X171386700Y-80860800D03*
X173926700Y-80860800D03*
X176466700Y-80860800D03*
X179006700Y-80860800D03*
X181546700Y-80860800D03*
X184086700Y-80860800D03*
%TD*%
D17*
%TO.C,Y2*%
X118591700Y-105625800D03*
X113711700Y-105625800D03*
%TD*%
D12*
%TO.C,J5*%
X191701700Y-80875800D03*
D13*
X194241700Y-80875800D03*
X191701700Y-83415800D03*
X194241700Y-83415800D03*
X191701700Y-85955800D03*
X194241700Y-85955800D03*
X191701700Y-88495800D03*
X194241700Y-88495800D03*
X191701700Y-91035800D03*
X194241700Y-91035800D03*
X191701700Y-93575800D03*
X194241700Y-93575800D03*
X191701700Y-96115800D03*
X194241700Y-96115800D03*
X191701700Y-98655800D03*
X194241700Y-98655800D03*
X191701700Y-101195800D03*
X194241700Y-101195800D03*
X191701700Y-103735800D03*
X194241700Y-103735800D03*
X191701700Y-106275800D03*
X194241700Y-106275800D03*
X191701700Y-108815800D03*
X194241700Y-108815800D03*
X191701700Y-111355800D03*
X194241700Y-111355800D03*
X191701700Y-113895800D03*
X194241700Y-113895800D03*
X191701700Y-116435800D03*
X194241700Y-116435800D03*
X191701700Y-118975800D03*
X194241700Y-118975800D03*
X191701700Y-121515800D03*
X194241700Y-121515800D03*
X191701700Y-124055800D03*
X194241700Y-124055800D03*
%TD*%
D18*
%TO.C,J1*%
X104141700Y-90670800D03*
X104141700Y-96450800D03*
D19*
X104641700Y-89240800D03*
D20*
X100461700Y-89240800D03*
D19*
X104641700Y-97880800D03*
D20*
X100461700Y-97880800D03*
%TD*%
D21*
%TO.C,JP1*%
X107871700Y-98640800D03*
X109171700Y-98640800D03*
%TD*%
M02*
