%TF.GenerationSoftware,KiCad,Pcbnew,10.0.0*%
%TF.CreationDate,2026-09-10T15:11:40-06:00*%
%TF.ProjectId,Arduino Mega 2560,41726475-696e-46f2-904d-656761203235,1*%
%TF.SameCoordinates,Original*%
%TF.FileFunction,Drillmap*%
%TF.FilePolarity,Positive*%
%FSLAX45Y45*%
G04 Gerber Fmt 4.5, Leading zero omitted, Abs format (unit mm)*
G04 Created by KiCad (PCBNEW 10.0.0) date 2026-09-10 15:11:40*
%MOMM*%
%LPD*%
G01*
G04 APERTURE LIST*
%ADD10C,0.050000*%
%ADD11C,0.254000*%
%ADD12C,0.200000*%
%ADD13C,0.100000*%
G04 APERTURE END LIST*
D10*
X16536670Y-12404080D02*
G75*
G02*
X16216670Y-12404080I-160000J0D01*
G01*
X16216670Y-12404080D02*
G75*
G02*
X16536670Y-12404080I160000J0D01*
G01*
D11*
X19676110Y-12913360D02*
X19676110Y-13067360D01*
X19523710Y-7833360D02*
X19676110Y-7985760D01*
X9870110Y-13167360D02*
G75*
G02*
X9770110Y-13067360I0J100000D01*
G01*
D10*
X18949670Y-8086080D02*
G75*
G02*
X18629670Y-8086080I-160000J0D01*
G01*
X18629670Y-8086080D02*
G75*
G02*
X18949670Y-8086080I160000J0D01*
G01*
D11*
X19930110Y-12659360D02*
X19676110Y-12913360D01*
X9770110Y-13067360D02*
X9770110Y-7933360D01*
X19676110Y-7985760D02*
X19676110Y-9128760D01*
D10*
X19584670Y-12912080D02*
G75*
G02*
X19264670Y-12912080I-160000J0D01*
G01*
X19264670Y-12912080D02*
G75*
G02*
X19584670Y-12912080I160000J0D01*
G01*
D11*
X9770110Y-7933360D02*
G75*
G02*
X9870110Y-7833360I100000J0D01*
G01*
X9870110Y-7833360D02*
X19523710Y-7833360D01*
X19676110Y-9128760D02*
X19930110Y-9382760D01*
X19930110Y-9382760D02*
X19930110Y-12659360D01*
X19676110Y-13067360D02*
G75*
G02*
X19576110Y-13167360I-100000J0D01*
G01*
D10*
X11456670Y-8086080D02*
G75*
G02*
X11136670Y-8086080I-160000J0D01*
G01*
X11136670Y-8086080D02*
G75*
G02*
X11456670Y-8086080I160000J0D01*
G01*
D11*
X19576110Y-13167360D02*
X9870110Y-13167360D01*
D10*
X16536670Y-9610080D02*
G75*
G02*
X16216670Y-9610080I-160000J0D01*
G01*
X16216670Y-9610080D02*
G75*
G02*
X16536670Y-9610080I160000J0D01*
G01*
X11329670Y-12912080D02*
G75*
G02*
X11009670Y-12912080I-160000J0D01*
G01*
X11009670Y-12912080D02*
G75*
G02*
X11329670Y-12912080I160000J0D01*
G01*
D12*
D13*
X10627600Y-9376080D02*
X10657600Y-9406080D01*
X10657600Y-9376080D02*
X10627600Y-9406080D01*
X10670000Y-9585000D02*
X10700000Y-9615000D01*
X10700000Y-9585000D02*
X10670000Y-9615000D01*
X10720000Y-9235000D02*
X10750000Y-9265000D01*
X10750000Y-9235000D02*
X10720000Y-9265000D01*
X10783435Y-9516988D02*
X10813435Y-9546988D01*
X10813435Y-9516988D02*
X10783435Y-9546988D01*
X9914910Y-8853160D02*
G75*
G02*
X9874270Y-8853160I-20320J0D01*
G01*
X9874270Y-8853160D02*
G75*
G02*
X9914910Y-8853160I20320J0D01*
G01*
X10046990Y-10943580D02*
G75*
G02*
X10006350Y-10943580I-20320J0D01*
G01*
X10006350Y-10943580D02*
G75*
G02*
X10046990Y-10943580I20320J0D01*
G01*
X10046990Y-11769080D02*
G75*
G02*
X10006350Y-11769080I-20320J0D01*
G01*
X10006350Y-11769080D02*
G75*
G02*
X10046990Y-11769080I20320J0D01*
G01*
X10237490Y-10943580D02*
G75*
G02*
X10196850Y-10943580I-20320J0D01*
G01*
X10196850Y-10943580D02*
G75*
G02*
X10237490Y-10943580I20320J0D01*
G01*
X10237490Y-11769080D02*
G75*
G02*
X10196850Y-11769080I-20320J0D01*
G01*
X10196850Y-11769080D02*
G75*
G02*
X10237490Y-11769080I20320J0D01*
G01*
X10427990Y-10943580D02*
G75*
G02*
X10387350Y-10943580I-20320J0D01*
G01*
X10387350Y-10943580D02*
G75*
G02*
X10427990Y-10943580I20320J0D01*
G01*
X10427990Y-11769080D02*
G75*
G02*
X10387350Y-11769080I-20320J0D01*
G01*
X10387350Y-11769080D02*
G75*
G02*
X10427990Y-11769080I20320J0D01*
G01*
X10618490Y-10943580D02*
G75*
G02*
X10577850Y-10943580I-20320J0D01*
G01*
X10577850Y-10943580D02*
G75*
G02*
X10618490Y-10943580I20320J0D01*
G01*
X10618490Y-11769080D02*
G75*
G02*
X10577850Y-11769080I-20320J0D01*
G01*
X10577850Y-11769080D02*
G75*
G02*
X10618490Y-11769080I20320J0D01*
G01*
X10681990Y-11197580D02*
G75*
G02*
X10641350Y-11197580I-20320J0D01*
G01*
X10641350Y-11197580D02*
G75*
G02*
X10681990Y-11197580I20320J0D01*
G01*
X10681990Y-11578580D02*
G75*
G02*
X10641350Y-11578580I-20320J0D01*
G01*
X10641350Y-11578580D02*
G75*
G02*
X10681990Y-11578580I20320J0D01*
G01*
X11316990Y-10130780D02*
G75*
G02*
X11276350Y-10130780I-20320J0D01*
G01*
X11276350Y-10130780D02*
G75*
G02*
X11316990Y-10130780I20320J0D01*
G01*
X11412240Y-9184630D02*
G75*
G02*
X11371600Y-9184630I-20320J0D01*
G01*
X11371600Y-9184630D02*
G75*
G02*
X11412240Y-9184630I20320J0D01*
G01*
X11443990Y-11642080D02*
G75*
G02*
X11403350Y-11642080I-20320J0D01*
G01*
X11403350Y-11642080D02*
G75*
G02*
X11443990Y-11642080I20320J0D01*
G01*
X11583690Y-11286480D02*
G75*
G02*
X11543050Y-11286480I-20320J0D01*
G01*
X11543050Y-11286480D02*
G75*
G02*
X11583690Y-11286480I20320J0D01*
G01*
X12040890Y-8530580D02*
G75*
G02*
X12000250Y-8530580I-20320J0D01*
G01*
X12000250Y-8530580D02*
G75*
G02*
X12040890Y-8530580I20320J0D01*
G01*
X12053590Y-10041880D02*
G75*
G02*
X12012950Y-10041880I-20320J0D01*
G01*
X12012950Y-10041880D02*
G75*
G02*
X12053590Y-10041880I20320J0D01*
G01*
X12167890Y-9343380D02*
G75*
G02*
X12127250Y-9343380I-20320J0D01*
G01*
X12127250Y-9343380D02*
G75*
G02*
X12167890Y-9343380I20320J0D01*
G01*
X12180590Y-11527780D02*
G75*
G02*
X12139950Y-11527780I-20320J0D01*
G01*
X12139950Y-11527780D02*
G75*
G02*
X12180590Y-11527780I20320J0D01*
G01*
X12193290Y-12429480D02*
G75*
G02*
X12152650Y-12429480I-20320J0D01*
G01*
X12152650Y-12429480D02*
G75*
G02*
X12193290Y-12429480I20320J0D01*
G01*
X12256790Y-9152880D02*
G75*
G02*
X12216150Y-9152880I-20320J0D01*
G01*
X12216150Y-9152880D02*
G75*
G02*
X12256790Y-9152880I20320J0D01*
G01*
X12256790Y-10968980D02*
G75*
G02*
X12216150Y-10968980I-20320J0D01*
G01*
X12216150Y-10968980D02*
G75*
G02*
X12256790Y-10968980I20320J0D01*
G01*
X12371090Y-11349980D02*
G75*
G02*
X12330450Y-11349980I-20320J0D01*
G01*
X12330450Y-11349980D02*
G75*
G02*
X12371090Y-11349980I20320J0D01*
G01*
X12599690Y-10359380D02*
G75*
G02*
X12559050Y-10359380I-20320J0D01*
G01*
X12559050Y-10359380D02*
G75*
G02*
X12599690Y-10359380I20320J0D01*
G01*
X12599690Y-11946880D02*
G75*
G02*
X12559050Y-11946880I-20320J0D01*
G01*
X12559050Y-11946880D02*
G75*
G02*
X12599690Y-11946880I20320J0D01*
G01*
X12612390Y-8581380D02*
G75*
G02*
X12571750Y-8581380I-20320J0D01*
G01*
X12571750Y-8581380D02*
G75*
G02*
X12612390Y-8581380I20320J0D01*
G01*
X12713990Y-12670780D02*
G75*
G02*
X12673350Y-12670780I-20320J0D01*
G01*
X12673350Y-12670780D02*
G75*
G02*
X12713990Y-12670780I20320J0D01*
G01*
X12840990Y-8492480D02*
G75*
G02*
X12800350Y-8492480I-20320J0D01*
G01*
X12800350Y-8492480D02*
G75*
G02*
X12840990Y-8492480I20320J0D01*
G01*
X12853690Y-9419580D02*
G75*
G02*
X12813050Y-9419580I-20320J0D01*
G01*
X12813050Y-9419580D02*
G75*
G02*
X12853690Y-9419580I20320J0D01*
G01*
X12879090Y-9089380D02*
G75*
G02*
X12838450Y-9089380I-20320J0D01*
G01*
X12838450Y-9089380D02*
G75*
G02*
X12879090Y-9089380I20320J0D01*
G01*
X12942590Y-9533880D02*
G75*
G02*
X12901950Y-9533880I-20320J0D01*
G01*
X12901950Y-9533880D02*
G75*
G02*
X12942590Y-9533880I20320J0D01*
G01*
X12942590Y-12226280D02*
G75*
G02*
X12901950Y-12226280I-20320J0D01*
G01*
X12901950Y-12226280D02*
G75*
G02*
X12942590Y-12226280I20320J0D01*
G01*
X12955290Y-11705580D02*
G75*
G02*
X12914650Y-11705580I-20320J0D01*
G01*
X12914650Y-11705580D02*
G75*
G02*
X12955290Y-11705580I20320J0D01*
G01*
X13018790Y-11527780D02*
G75*
G02*
X12978150Y-11527780I-20320J0D01*
G01*
X12978150Y-11527780D02*
G75*
G02*
X13018790Y-11527780I20320J0D01*
G01*
X13260090Y-12150080D02*
G75*
G02*
X13219450Y-12150080I-20320J0D01*
G01*
X13219450Y-12150080D02*
G75*
G02*
X13260090Y-12150080I20320J0D01*
G01*
X13526790Y-11464280D02*
G75*
G02*
X13486150Y-11464280I-20320J0D01*
G01*
X13486150Y-11464280D02*
G75*
G02*
X13526790Y-11464280I20320J0D01*
G01*
X13714750Y-9333220D02*
G75*
G02*
X13674110Y-9333220I-20320J0D01*
G01*
X13674110Y-9333220D02*
G75*
G02*
X13714750Y-9333220I20320J0D01*
G01*
X13765550Y-9196060D02*
G75*
G02*
X13724910Y-9196060I-20320J0D01*
G01*
X13724910Y-9196060D02*
G75*
G02*
X13765550Y-9196060I20320J0D01*
G01*
X13768090Y-10283180D02*
G75*
G02*
X13727450Y-10283180I-20320J0D01*
G01*
X13727450Y-10283180D02*
G75*
G02*
X13768090Y-10283180I20320J0D01*
G01*
X13780790Y-10753080D02*
G75*
G02*
X13740150Y-10753080I-20320J0D01*
G01*
X13740150Y-10753080D02*
G75*
G02*
X13780790Y-10753080I20320J0D01*
G01*
X13882390Y-10651480D02*
G75*
G02*
X13841750Y-10651480I-20320J0D01*
G01*
X13841750Y-10651480D02*
G75*
G02*
X13882390Y-10651480I20320J0D01*
G01*
X13895090Y-10283180D02*
G75*
G02*
X13854450Y-10283180I-20320J0D01*
G01*
X13854450Y-10283180D02*
G75*
G02*
X13895090Y-10283180I20320J0D01*
G01*
X13935730Y-8713460D02*
G75*
G02*
X13895090Y-8713460I-20320J0D01*
G01*
X13895090Y-8713460D02*
G75*
G02*
X13935730Y-8713460I20320J0D01*
G01*
X13935730Y-8832840D02*
G75*
G02*
X13895090Y-8832840I-20320J0D01*
G01*
X13895090Y-8832840D02*
G75*
G02*
X13935730Y-8832840I20320J0D01*
G01*
X14022090Y-9124940D02*
G75*
G02*
X13981450Y-9124940I-20320J0D01*
G01*
X13981450Y-9124940D02*
G75*
G02*
X14022090Y-9124940I20320J0D01*
G01*
X14250690Y-10867380D02*
G75*
G02*
X14210050Y-10867380I-20320J0D01*
G01*
X14210050Y-10867380D02*
G75*
G02*
X14250690Y-10867380I20320J0D01*
G01*
X14276090Y-9152880D02*
G75*
G02*
X14235450Y-9152880I-20320J0D01*
G01*
X14235450Y-9152880D02*
G75*
G02*
X14276090Y-9152880I20320J0D01*
G01*
X14286250Y-8713460D02*
G75*
G02*
X14245610Y-8713460I-20320J0D01*
G01*
X14245610Y-8713460D02*
G75*
G02*
X14286250Y-8713460I20320J0D01*
G01*
X14286250Y-8832840D02*
G75*
G02*
X14245610Y-8832840I-20320J0D01*
G01*
X14245610Y-8832840D02*
G75*
G02*
X14286250Y-8832840I20320J0D01*
G01*
X14314190Y-10626080D02*
G75*
G02*
X14273550Y-10626080I-20320J0D01*
G01*
X14273550Y-10626080D02*
G75*
G02*
X14314190Y-10626080I20320J0D01*
G01*
X14339590Y-9279880D02*
G75*
G02*
X14298950Y-9279880I-20320J0D01*
G01*
X14298950Y-9279880D02*
G75*
G02*
X14339590Y-9279880I20320J0D01*
G01*
X14403090Y-9165580D02*
G75*
G02*
X14362450Y-9165580I-20320J0D01*
G01*
X14362450Y-9165580D02*
G75*
G02*
X14403090Y-9165580I20320J0D01*
G01*
X14478490Y-12339780D02*
G75*
G02*
X14437850Y-12339780I-20320J0D01*
G01*
X14437850Y-12339780D02*
G75*
G02*
X14478490Y-12339780I20320J0D01*
G01*
X14491990Y-9076680D02*
G75*
G02*
X14451350Y-9076680I-20320J0D01*
G01*
X14451350Y-9076680D02*
G75*
G02*
X14491990Y-9076680I20320J0D01*
G01*
X14517390Y-8365480D02*
G75*
G02*
X14476750Y-8365480I-20320J0D01*
G01*
X14476750Y-8365480D02*
G75*
G02*
X14517390Y-8365480I20320J0D01*
G01*
X14580890Y-8987780D02*
G75*
G02*
X14540250Y-8987780I-20320J0D01*
G01*
X14540250Y-8987780D02*
G75*
G02*
X14580890Y-8987780I20320J0D01*
G01*
X14669790Y-8898880D02*
G75*
G02*
X14629150Y-8898880I-20320J0D01*
G01*
X14629150Y-8898880D02*
G75*
G02*
X14669790Y-8898880I20320J0D01*
G01*
X14695190Y-12302480D02*
G75*
G02*
X14654550Y-12302480I-20320J0D01*
G01*
X14654550Y-12302480D02*
G75*
G02*
X14695190Y-12302480I20320J0D01*
G01*
X14715510Y-9229080D02*
G75*
G02*
X14674870Y-9229080I-20320J0D01*
G01*
X14674870Y-9229080D02*
G75*
G02*
X14715510Y-9229080I20320J0D01*
G01*
X14715990Y-12137380D02*
G75*
G02*
X14675350Y-12137380I-20320J0D01*
G01*
X14675350Y-12137380D02*
G75*
G02*
X14715990Y-12137380I20320J0D01*
G01*
X14733290Y-12010380D02*
G75*
G02*
X14692650Y-12010380I-20320J0D01*
G01*
X14692650Y-12010380D02*
G75*
G02*
X14733290Y-12010380I20320J0D01*
G01*
X14758690Y-8809980D02*
G75*
G02*
X14718050Y-8809980I-20320J0D01*
G01*
X14718050Y-8809980D02*
G75*
G02*
X14758690Y-8809980I20320J0D01*
G01*
X14834890Y-8936980D02*
G75*
G02*
X14794250Y-8936980I-20320J0D01*
G01*
X14794250Y-8936980D02*
G75*
G02*
X14834890Y-8936980I20320J0D01*
G01*
X14834890Y-9114780D02*
G75*
G02*
X14794250Y-9114780I-20320J0D01*
G01*
X14794250Y-9114780D02*
G75*
G02*
X14834890Y-9114780I20320J0D01*
G01*
X14860290Y-12153580D02*
G75*
G02*
X14819650Y-12153580I-20320J0D01*
G01*
X14819650Y-12153580D02*
G75*
G02*
X14860290Y-12153580I20320J0D01*
G01*
X14923790Y-8848080D02*
G75*
G02*
X14883150Y-8848080I-20320J0D01*
G01*
X14883150Y-8848080D02*
G75*
G02*
X14923790Y-8848080I20320J0D01*
G01*
X14987290Y-8962380D02*
G75*
G02*
X14946650Y-8962380I-20320J0D01*
G01*
X14946650Y-8962380D02*
G75*
G02*
X14987290Y-8962380I20320J0D01*
G01*
X15025390Y-8759180D02*
G75*
G02*
X14984750Y-8759180I-20320J0D01*
G01*
X14984750Y-8759180D02*
G75*
G02*
X15025390Y-8759180I20320J0D01*
G01*
X15114290Y-8848080D02*
G75*
G02*
X15073650Y-8848080I-20320J0D01*
G01*
X15073650Y-8848080D02*
G75*
G02*
X15114290Y-8848080I20320J0D01*
G01*
X15203190Y-8746480D02*
G75*
G02*
X15162550Y-8746480I-20320J0D01*
G01*
X15162550Y-8746480D02*
G75*
G02*
X15203190Y-8746480I20320J0D01*
G01*
X15253990Y-8962380D02*
G75*
G02*
X15213350Y-8962380I-20320J0D01*
G01*
X15213350Y-8962380D02*
G75*
G02*
X15253990Y-8962380I20320J0D01*
G01*
X15253990Y-9140180D02*
G75*
G02*
X15213350Y-9140180I-20320J0D01*
G01*
X15213350Y-9140180D02*
G75*
G02*
X15253990Y-9140180I20320J0D01*
G01*
X15317490Y-9279880D02*
G75*
G02*
X15276850Y-9279880I-20320J0D01*
G01*
X15276850Y-9279880D02*
G75*
G02*
X15317490Y-9279880I20320J0D01*
G01*
X15368290Y-9978380D02*
G75*
G02*
X15327650Y-9978380I-20320J0D01*
G01*
X15327650Y-9978380D02*
G75*
G02*
X15368290Y-9978380I20320J0D01*
G01*
X15368290Y-10194280D02*
G75*
G02*
X15327650Y-10194280I-20320J0D01*
G01*
X15327650Y-10194280D02*
G75*
G02*
X15368290Y-10194280I20320J0D01*
G01*
X15441950Y-9749780D02*
G75*
G02*
X15401310Y-9749780I-20320J0D01*
G01*
X15401310Y-9749780D02*
G75*
G02*
X15441950Y-9749780I20320J0D01*
G01*
X15495290Y-10499080D02*
G75*
G02*
X15454650Y-10499080I-20320J0D01*
G01*
X15454650Y-10499080D02*
G75*
G02*
X15495290Y-10499080I20320J0D01*
G01*
X15698490Y-11019780D02*
G75*
G02*
X15657850Y-11019780I-20320J0D01*
G01*
X15657850Y-11019780D02*
G75*
G02*
X15698490Y-11019780I20320J0D01*
G01*
X15698490Y-11299180D02*
G75*
G02*
X15657850Y-11299180I-20320J0D01*
G01*
X15657850Y-11299180D02*
G75*
G02*
X15698490Y-11299180I20320J0D01*
G01*
X15787390Y-11210280D02*
G75*
G02*
X15746750Y-11210280I-20320J0D01*
G01*
X15746750Y-11210280D02*
G75*
G02*
X15787390Y-11210280I20320J0D01*
G01*
X15800090Y-8492480D02*
G75*
G02*
X15759450Y-8492480I-20320J0D01*
G01*
X15759450Y-8492480D02*
G75*
G02*
X15800090Y-8492480I20320J0D01*
G01*
X15825490Y-10257780D02*
G75*
G02*
X15784850Y-10257780I-20320J0D01*
G01*
X15784850Y-10257780D02*
G75*
G02*
X15825490Y-10257780I20320J0D01*
G01*
X15850890Y-11095980D02*
G75*
G02*
X15810250Y-11095980I-20320J0D01*
G01*
X15810250Y-11095980D02*
G75*
G02*
X15850890Y-11095980I20320J0D01*
G01*
X15876290Y-10029180D02*
G75*
G02*
X15835650Y-10029180I-20320J0D01*
G01*
X15835650Y-10029180D02*
G75*
G02*
X15876290Y-10029180I20320J0D01*
G01*
X15876290Y-10384780D02*
G75*
G02*
X15835650Y-10384780I-20320J0D01*
G01*
X15835650Y-10384780D02*
G75*
G02*
X15876290Y-10384780I20320J0D01*
G01*
X15876290Y-10918180D02*
G75*
G02*
X15835650Y-10918180I-20320J0D01*
G01*
X15835650Y-10918180D02*
G75*
G02*
X15876290Y-10918180I20320J0D01*
G01*
X15965190Y-8324840D02*
G75*
G02*
X15924550Y-8324840I-20320J0D01*
G01*
X15924550Y-8324840D02*
G75*
G02*
X15965190Y-8324840I20320J0D01*
G01*
X16107430Y-9752320D02*
G75*
G02*
X16066790Y-9752320I-20320J0D01*
G01*
X16066790Y-9752320D02*
G75*
G02*
X16107430Y-9752320I20320J0D01*
G01*
X16320790Y-8428980D02*
G75*
G02*
X16280150Y-8428980I-20320J0D01*
G01*
X16280150Y-8428980D02*
G75*
G02*
X16320790Y-8428980I20320J0D01*
G01*
X16473190Y-8428980D02*
G75*
G02*
X16432550Y-8428980I-20320J0D01*
G01*
X16432550Y-8428980D02*
G75*
G02*
X16473190Y-8428980I20320J0D01*
G01*
X16772910Y-10811500D02*
G75*
G02*
X16732270Y-10811500I-20320J0D01*
G01*
X16732270Y-10811500D02*
G75*
G02*
X16772910Y-10811500I20320J0D01*
G01*
X16993890Y-11248380D02*
G75*
G02*
X16953250Y-11248380I-20320J0D01*
G01*
X16953250Y-11248380D02*
G75*
G02*
X16993890Y-11248380I20320J0D01*
G01*
X17057390Y-11375380D02*
G75*
G02*
X17016750Y-11375380I-20320J0D01*
G01*
X17016750Y-11375380D02*
G75*
G02*
X17057390Y-11375380I20320J0D01*
G01*
X17184390Y-12073880D02*
G75*
G02*
X17143750Y-12073880I-20320J0D01*
G01*
X17143750Y-12073880D02*
G75*
G02*
X17184390Y-12073880I20320J0D01*
G01*
X17197090Y-11400780D02*
G75*
G02*
X17156450Y-11400780I-20320J0D01*
G01*
X17156450Y-11400780D02*
G75*
G02*
X17197090Y-11400780I20320J0D01*
G01*
X17324090Y-11476980D02*
G75*
G02*
X17283450Y-11476980I-20320J0D01*
G01*
X17283450Y-11476980D02*
G75*
G02*
X17324090Y-11476980I20320J0D01*
G01*
X17374890Y-12150080D02*
G75*
G02*
X17334250Y-12150080I-20320J0D01*
G01*
X17334250Y-12150080D02*
G75*
G02*
X17374890Y-12150080I20320J0D01*
G01*
X17389190Y-9303680D02*
G75*
G02*
X17348550Y-9303680I-20320J0D01*
G01*
X17348550Y-9303680D02*
G75*
G02*
X17389190Y-9303680I20320J0D01*
G01*
X17654290Y-12289780D02*
G75*
G02*
X17613650Y-12289780I-20320J0D01*
G01*
X17613650Y-12289780D02*
G75*
G02*
X17654290Y-12289780I20320J0D01*
G01*
X17666990Y-9267180D02*
G75*
G02*
X17626350Y-9267180I-20320J0D01*
G01*
X17626350Y-9267180D02*
G75*
G02*
X17666990Y-9267180I20320J0D01*
G01*
X17806690Y-8492480D02*
G75*
G02*
X17766050Y-8492480I-20320J0D01*
G01*
X17766050Y-8492480D02*
G75*
G02*
X17806690Y-8492480I20320J0D01*
G01*
X17895590Y-12289780D02*
G75*
G02*
X17854950Y-12289780I-20320J0D01*
G01*
X17854950Y-12289780D02*
G75*
G02*
X17895590Y-12289780I20320J0D01*
G01*
X17933690Y-9254480D02*
G75*
G02*
X17893050Y-9254480I-20320J0D01*
G01*
X17893050Y-9254480D02*
G75*
G02*
X17933690Y-9254480I20320J0D01*
G01*
X18136890Y-9254480D02*
G75*
G02*
X18096250Y-9254480I-20320J0D01*
G01*
X18096250Y-9254480D02*
G75*
G02*
X18136890Y-9254480I20320J0D01*
G01*
X10046170Y-8894080D02*
X10046170Y-8954080D01*
X10016170Y-8924080D02*
X10076170Y-8924080D01*
X10086170Y-8894080D02*
X10006170Y-8894080D01*
X10006170Y-8954080D02*
G75*
G02*
X10006170Y-8894080I0J30000D01*
G01*
X10006170Y-8954080D02*
X10086170Y-8954080D01*
X10086170Y-8954080D02*
G75*
G03*
X10086170Y-8894080I0J30000D01*
G01*
X10046170Y-9758080D02*
X10046170Y-9818080D01*
X10016170Y-9788080D02*
X10076170Y-9788080D01*
X10086170Y-9758080D02*
X10006170Y-9758080D01*
X10006170Y-9818080D02*
G75*
G02*
X10006170Y-9758080I0J30000D01*
G01*
X10006170Y-9818080D02*
X10086170Y-9818080D01*
X10086170Y-9818080D02*
G75*
G03*
X10086170Y-9758080I0J30000D01*
G01*
X10464170Y-8894080D02*
X10464170Y-8954080D01*
X10434170Y-8924080D02*
X10494170Y-8924080D01*
X10519170Y-8894080D02*
X10409170Y-8894080D01*
X10409170Y-8954080D02*
G75*
G02*
X10409170Y-8894080I0J30000D01*
G01*
X10409170Y-8954080D02*
X10519170Y-8954080D01*
X10519170Y-8954080D02*
G75*
G03*
X10519170Y-8894080I0J30000D01*
G01*
X10464170Y-9758080D02*
X10464170Y-9818080D01*
X10434170Y-9788080D02*
X10494170Y-9788080D01*
X10519170Y-9758080D02*
X10409170Y-9758080D01*
X10409170Y-9818080D02*
G75*
G02*
X10409170Y-9758080I0J30000D01*
G01*
X10409170Y-9818080D02*
X10519170Y-9818080D01*
X10519170Y-9818080D02*
G75*
G03*
X10519170Y-9758080I0J30000D01*
G01*
X10416523Y-8084773D02*
X10416523Y-8041667D01*
X10373417Y-8041667D01*
X10373417Y-8084773D01*
X10416523Y-8084773D01*
X10683223Y-10266633D02*
X10683223Y-10223527D01*
X10640117Y-10223527D01*
X10640117Y-10266633D01*
X10683223Y-10266633D01*
X11066763Y-10413953D02*
X11066763Y-10370847D01*
X11023657Y-10370847D01*
X11023657Y-10413953D01*
X11066763Y-10413953D01*
X11099783Y-10932113D02*
X11099783Y-10889007D01*
X11056677Y-10889007D01*
X11056677Y-10932113D01*
X11099783Y-10932113D01*
X11132803Y-11841433D02*
X11132803Y-11798327D01*
X11089697Y-11798327D01*
X11089697Y-11841433D01*
X11132803Y-11841433D01*
X11186143Y-9941513D02*
X11186143Y-9898407D01*
X11143037Y-9898407D01*
X11143037Y-9941513D01*
X11186143Y-9941513D01*
X11496023Y-8564833D02*
X11496023Y-8521727D01*
X11452917Y-8521727D01*
X11452917Y-8564833D01*
X11496023Y-8564833D01*
X11620483Y-10584133D02*
X11620483Y-10541027D01*
X11577377Y-10541027D01*
X11577377Y-10584133D01*
X11620483Y-10584133D01*
X11993863Y-12120833D02*
X11993863Y-12077727D01*
X11950757Y-12077727D01*
X11950757Y-12120833D01*
X11993863Y-12120833D01*
X12029423Y-10965133D02*
X12029423Y-10922027D01*
X11986317Y-10922027D01*
X11986317Y-10965133D01*
X12029423Y-10965133D01*
X12207223Y-10533333D02*
X12207223Y-10490227D01*
X12164117Y-10490227D01*
X12164117Y-10533333D01*
X12207223Y-10533333D01*
X12324063Y-9009333D02*
X12324063Y-8966227D01*
X12280957Y-8966227D01*
X12280957Y-9009333D01*
X12324063Y-9009333D01*
X12346923Y-10761933D02*
X12346923Y-10718827D01*
X12303817Y-10718827D01*
X12303817Y-10761933D01*
X12346923Y-10761933D01*
X12412963Y-12829493D02*
X12412963Y-12786387D01*
X12369857Y-12786387D01*
X12369857Y-12829493D01*
X12412963Y-12829493D01*
X12941283Y-10274253D02*
X12941283Y-10231147D01*
X12898177Y-10231147D01*
X12898177Y-10274253D01*
X12941283Y-10274253D01*
X13017483Y-11084513D02*
X13017483Y-11041407D01*
X12974377Y-11041407D01*
X12974377Y-11084513D01*
X13017483Y-11084513D01*
X13566123Y-10723833D02*
X13566123Y-10680727D01*
X13523017Y-10680727D01*
X13523017Y-10723833D01*
X13566123Y-10723833D01*
X13609303Y-10270113D02*
X13609303Y-10227007D01*
X13566197Y-10227007D01*
X13566197Y-10270113D01*
X13609303Y-10270113D01*
X13611843Y-11061653D02*
X13611843Y-11018547D01*
X13568737Y-11018547D01*
X13568737Y-11061653D01*
X13611843Y-11061653D01*
X13870923Y-11061653D02*
X13870923Y-11018547D01*
X13827817Y-11018547D01*
X13827817Y-11061653D01*
X13870923Y-11061653D01*
X13964903Y-9651953D02*
X13964903Y-9608847D01*
X13921797Y-9608847D01*
X13921797Y-9651953D01*
X13964903Y-9651953D01*
X14161423Y-8107633D02*
X14161423Y-8064527D01*
X14118317Y-8064527D01*
X14118317Y-8107633D01*
X14161423Y-8107633D01*
X14255713Y-10100273D02*
X14255713Y-10057167D01*
X14212607Y-10057167D01*
X14212607Y-10100273D01*
X14255713Y-10100273D01*
X14284943Y-10467293D02*
X14284943Y-10424187D01*
X14241837Y-10424187D01*
X14241837Y-10467293D01*
X14284943Y-10467293D01*
X14287483Y-10302193D02*
X14287483Y-10259087D01*
X14244377Y-10259087D01*
X14244377Y-10302193D01*
X14287483Y-10302193D01*
X14315423Y-9847533D02*
X14315423Y-9804427D01*
X14272317Y-9804427D01*
X14272317Y-9847533D01*
X14315423Y-9847533D01*
X14366223Y-12123093D02*
X14366223Y-12079987D01*
X14323117Y-12079987D01*
X14323117Y-12123093D01*
X14366223Y-12123093D01*
X14632923Y-12620933D02*
X14632923Y-12577827D01*
X14589817Y-12577827D01*
X14589817Y-12620933D01*
X14632923Y-12620933D01*
X15306023Y-10393633D02*
X15306023Y-10350527D01*
X15262917Y-10350527D01*
X15262917Y-10393633D01*
X15306023Y-10393633D01*
X15593043Y-11142933D02*
X15593043Y-11099827D01*
X15549937Y-11099827D01*
X15549937Y-11142933D01*
X15593043Y-11142933D01*
X15623523Y-9047433D02*
X15623523Y-9004327D01*
X15580417Y-9004327D01*
X15580417Y-9047433D01*
X15623523Y-9047433D01*
X16078983Y-11182553D02*
X16078983Y-11139447D01*
X16035877Y-11139447D01*
X16035877Y-11182553D01*
X16078983Y-11182553D01*
X16382983Y-8072073D02*
X16382983Y-8028967D01*
X16339877Y-8028967D01*
X16339877Y-8072073D01*
X16382983Y-8072073D01*
X16428703Y-9237933D02*
X16428703Y-9194827D01*
X16385597Y-9194827D01*
X16385597Y-9237933D01*
X16428703Y-9237933D01*
X16663743Y-11182553D02*
X16663743Y-11139447D01*
X16620637Y-11139447D01*
X16620637Y-11182553D01*
X16663743Y-11182553D01*
X16739483Y-9977893D02*
X16739483Y-9934787D01*
X16696377Y-9934787D01*
X16696377Y-9977893D01*
X16739483Y-9977893D01*
X16746203Y-10472373D02*
X16746203Y-10429267D01*
X16703097Y-10429267D01*
X16703097Y-10472373D01*
X16746203Y-10472373D01*
X17040843Y-10429193D02*
X17040843Y-10386087D01*
X16997737Y-10386087D01*
X16997737Y-10429193D01*
X17040843Y-10429193D01*
X17043383Y-9616393D02*
X17043383Y-9573287D01*
X17000277Y-9573287D01*
X17000277Y-9616393D01*
X17043383Y-9616393D01*
X17437083Y-8453073D02*
X17437083Y-8409967D01*
X17393977Y-8409967D01*
X17393977Y-8453073D01*
X17437083Y-8453073D01*
X17490423Y-11383433D02*
X17490423Y-11340327D01*
X17447317Y-11340327D01*
X17447317Y-11383433D01*
X17490423Y-11383433D01*
X17541223Y-10434273D02*
X17541223Y-10391167D01*
X17498117Y-10391167D01*
X17498117Y-10434273D01*
X17541223Y-10434273D01*
X18557223Y-9326833D02*
X18557223Y-9283727D01*
X18514117Y-9283727D01*
X18514117Y-9326833D01*
X18557223Y-9326833D01*
X18699463Y-10977833D02*
X18699463Y-10934727D01*
X18656357Y-10934727D01*
X18656357Y-10977833D01*
X18699463Y-10977833D01*
X19741803Y-12034473D02*
X19741803Y-11991367D01*
X19698697Y-11991367D01*
X19698697Y-12034473D01*
X19741803Y-12034473D01*
X19749423Y-9499553D02*
X19749423Y-9456447D01*
X19706317Y-9456447D01*
X19706317Y-9499553D01*
X19749423Y-9499553D01*
X11371170Y-10602580D02*
X11411170Y-10562580D01*
X11371170Y-10522580D01*
X11331170Y-10562580D01*
X11371170Y-10602580D01*
X11859170Y-10602580D02*
X11899170Y-10562580D01*
X11859170Y-10522580D01*
X11819170Y-10562580D01*
X11859170Y-10602580D01*
X11555750Y-8878560D02*
X11647190Y-8970000D01*
X11647190Y-8878560D02*
X11555750Y-8970000D01*
X11647190Y-8924280D02*
G75*
G02*
X11555750Y-8924280I-45720J0D01*
G01*
X11555750Y-8924280D02*
G75*
G02*
X11647190Y-8924280I45720J0D01*
G01*
X11555750Y-9132560D02*
X11647190Y-9224000D01*
X11647190Y-9132560D02*
X11555750Y-9224000D01*
X11647190Y-9178280D02*
G75*
G02*
X11555750Y-9178280I-45720J0D01*
G01*
X11555750Y-9178280D02*
G75*
G02*
X11647190Y-9178280I45720J0D01*
G01*
X11809750Y-8878560D02*
X11901190Y-8970000D01*
X11901190Y-8878560D02*
X11809750Y-8970000D01*
X11901190Y-8924280D02*
G75*
G02*
X11809750Y-8924280I-45720J0D01*
G01*
X11809750Y-8924280D02*
G75*
G02*
X11901190Y-8924280I45720J0D01*
G01*
X11809750Y-9132560D02*
X11901190Y-9224000D01*
X11901190Y-9132560D02*
X11809750Y-9224000D01*
X11901190Y-9178280D02*
G75*
G02*
X11809750Y-9178280I-45720J0D01*
G01*
X11809750Y-9178280D02*
G75*
G02*
X11901190Y-9178280I45720J0D01*
G01*
X10256070Y-12277580D02*
X10356070Y-12377580D01*
X10356070Y-12277580D02*
X10256070Y-12377580D01*
X10306070Y-12277580D02*
X10306070Y-12377580D01*
X10256070Y-12327580D02*
X10356070Y-12327580D01*
X10256070Y-12227580D02*
X10256070Y-12427580D01*
X10356070Y-12427580D02*
G75*
G02*
X10256070Y-12427580I-50000J0D01*
G01*
X10356070Y-12427580D02*
X10356070Y-12227580D01*
X10356070Y-12227580D02*
G75*
G03*
X10256070Y-12227580I-50000J0D01*
G01*
X10556070Y-12747580D02*
X10656070Y-12847580D01*
X10656070Y-12747580D02*
X10556070Y-12847580D01*
X10606070Y-12747580D02*
X10606070Y-12847580D01*
X10556070Y-12797580D02*
X10656070Y-12797580D01*
X10506070Y-12847580D02*
X10706070Y-12847580D01*
X10706070Y-12747580D02*
G75*
G02*
X10706070Y-12847580I0J-50000D01*
G01*
X10706070Y-12747580D02*
X10506070Y-12747580D01*
X10506070Y-12747580D02*
G75*
G03*
X10506070Y-12847580I0J-50000D01*
G01*
X10876070Y-12277580D02*
X10976070Y-12377580D01*
X10976070Y-12277580D02*
X10876070Y-12377580D01*
X10926070Y-12277580D02*
X10926070Y-12377580D01*
X10876070Y-12327580D02*
X10976070Y-12327580D01*
X10876070Y-12202580D02*
X10876070Y-12452580D01*
X10976070Y-12452580D02*
G75*
G02*
X10876070Y-12452580I-50000J0D01*
G01*
X10976070Y-12452580D02*
X10976070Y-12202580D01*
X10976070Y-12202580D02*
G75*
G03*
X10876070Y-12202580I-50000J0D01*
G01*
X11297470Y-8366280D02*
X11397470Y-8466280D01*
X11397470Y-8366280D02*
X11297470Y-8466280D01*
X11347470Y-8366280D02*
X11347470Y-8466280D01*
X11297470Y-8416280D02*
X11397470Y-8416280D01*
X11297470Y-8620280D02*
X11397470Y-8720280D01*
X11397470Y-8620280D02*
X11297470Y-8720280D01*
X11347470Y-8620280D02*
X11347470Y-8720280D01*
X11297470Y-8670280D02*
X11397470Y-8670280D01*
X11551470Y-8366280D02*
X11651470Y-8466280D01*
X11651470Y-8366280D02*
X11551470Y-8466280D01*
X11601470Y-8366280D02*
X11601470Y-8466280D01*
X11551470Y-8416280D02*
X11651470Y-8416280D01*
X11551470Y-8620280D02*
X11651470Y-8720280D01*
X11651470Y-8620280D02*
X11551470Y-8720280D01*
X11601470Y-8620280D02*
X11601470Y-8720280D01*
X11551470Y-8670280D02*
X11651470Y-8670280D01*
X11602270Y-8036080D02*
X11702270Y-8136080D01*
X11702270Y-8036080D02*
X11602270Y-8136080D01*
X11652270Y-8036080D02*
X11652270Y-8136080D01*
X11602270Y-8086080D02*
X11702270Y-8086080D01*
X11805470Y-8366280D02*
X11905470Y-8466280D01*
X11905470Y-8366280D02*
X11805470Y-8466280D01*
X11855470Y-8366280D02*
X11855470Y-8466280D01*
X11805470Y-8416280D02*
X11905470Y-8416280D01*
X11805470Y-8620280D02*
X11905470Y-8720280D01*
X11905470Y-8620280D02*
X11805470Y-8720280D01*
X11855470Y-8620280D02*
X11855470Y-8720280D01*
X11805470Y-8670280D02*
X11905470Y-8670280D01*
X11856270Y-8036080D02*
X11956270Y-8136080D01*
X11956270Y-8036080D02*
X11856270Y-8136080D01*
X11906270Y-8036080D02*
X11906270Y-8136080D01*
X11856270Y-8086080D02*
X11956270Y-8086080D01*
X12110270Y-8036080D02*
X12210270Y-8136080D01*
X12210270Y-8036080D02*
X12110270Y-8136080D01*
X12160270Y-8036080D02*
X12160270Y-8136080D01*
X12110270Y-8086080D02*
X12210270Y-8086080D01*
X12364270Y-8036080D02*
X12464270Y-8136080D01*
X12464270Y-8036080D02*
X12364270Y-8136080D01*
X12414270Y-8036080D02*
X12414270Y-8136080D01*
X12364270Y-8086080D02*
X12464270Y-8086080D01*
X12516670Y-12862080D02*
X12616670Y-12962080D01*
X12616670Y-12862080D02*
X12516670Y-12962080D01*
X12566670Y-12862080D02*
X12566670Y-12962080D01*
X12516670Y-12912080D02*
X12616670Y-12912080D01*
X12618270Y-8036080D02*
X12718270Y-8136080D01*
X12718270Y-8036080D02*
X12618270Y-8136080D01*
X12668270Y-8036080D02*
X12668270Y-8136080D01*
X12618270Y-8086080D02*
X12718270Y-8086080D01*
X12770670Y-12862080D02*
X12870670Y-12962080D01*
X12870670Y-12862080D02*
X12770670Y-12962080D01*
X12820670Y-12862080D02*
X12820670Y-12962080D01*
X12770670Y-12912080D02*
X12870670Y-12912080D01*
X12872270Y-8036080D02*
X12972270Y-8136080D01*
X12972270Y-8036080D02*
X12872270Y-8136080D01*
X12922270Y-8036080D02*
X12922270Y-8136080D01*
X12872270Y-8086080D02*
X12972270Y-8086080D01*
X13024670Y-12862080D02*
X13124670Y-12962080D01*
X13124670Y-12862080D02*
X13024670Y-12962080D01*
X13074670Y-12862080D02*
X13074670Y-12962080D01*
X13024670Y-12912080D02*
X13124670Y-12912080D01*
X13126270Y-8036080D02*
X13226270Y-8136080D01*
X13226270Y-8036080D02*
X13126270Y-8136080D01*
X13176270Y-8036080D02*
X13176270Y-8136080D01*
X13126270Y-8086080D02*
X13226270Y-8086080D01*
X13278670Y-12862080D02*
X13378670Y-12962080D01*
X13378670Y-12862080D02*
X13278670Y-12962080D01*
X13328670Y-12862080D02*
X13328670Y-12962080D01*
X13278670Y-12912080D02*
X13378670Y-12912080D01*
X13380270Y-8036080D02*
X13480270Y-8136080D01*
X13480270Y-8036080D02*
X13380270Y-8136080D01*
X13430270Y-8036080D02*
X13430270Y-8136080D01*
X13380270Y-8086080D02*
X13480270Y-8086080D01*
X13532670Y-12862080D02*
X13632670Y-12962080D01*
X13632670Y-12862080D02*
X13532670Y-12962080D01*
X13582670Y-12862080D02*
X13582670Y-12962080D01*
X13532670Y-12912080D02*
X13632670Y-12912080D01*
X13634270Y-8036080D02*
X13734270Y-8136080D01*
X13734270Y-8036080D02*
X13634270Y-8136080D01*
X13684270Y-8036080D02*
X13684270Y-8136080D01*
X13634270Y-8086080D02*
X13734270Y-8086080D01*
X13786670Y-12862080D02*
X13886670Y-12962080D01*
X13886670Y-12862080D02*
X13786670Y-12962080D01*
X13836670Y-12862080D02*
X13836670Y-12962080D01*
X13786670Y-12912080D02*
X13886670Y-12912080D01*
X13888270Y-8036080D02*
X13988270Y-8136080D01*
X13988270Y-8036080D02*
X13888270Y-8136080D01*
X13938270Y-8036080D02*
X13938270Y-8136080D01*
X13888270Y-8086080D02*
X13988270Y-8086080D01*
X14040670Y-12862080D02*
X14140670Y-12962080D01*
X14140670Y-12862080D02*
X14040670Y-12962080D01*
X14090670Y-12862080D02*
X14090670Y-12962080D01*
X14040670Y-12912080D02*
X14140670Y-12912080D01*
X14294670Y-8036080D02*
X14394670Y-8136080D01*
X14394670Y-8036080D02*
X14294670Y-8136080D01*
X14344670Y-8036080D02*
X14344670Y-8136080D01*
X14294670Y-8086080D02*
X14394670Y-8086080D01*
X14294670Y-12862080D02*
X14394670Y-12962080D01*
X14394670Y-12862080D02*
X14294670Y-12962080D01*
X14344670Y-12862080D02*
X14344670Y-12962080D01*
X14294670Y-12912080D02*
X14394670Y-12912080D01*
X14548670Y-8036080D02*
X14648670Y-8136080D01*
X14648670Y-8036080D02*
X14548670Y-8136080D01*
X14598670Y-8036080D02*
X14598670Y-8136080D01*
X14548670Y-8086080D02*
X14648670Y-8086080D01*
X14802670Y-8036080D02*
X14902670Y-8136080D01*
X14902670Y-8036080D02*
X14802670Y-8136080D01*
X14852670Y-8036080D02*
X14852670Y-8136080D01*
X14802670Y-8086080D02*
X14902670Y-8086080D01*
X14802670Y-12862080D02*
X14902670Y-12962080D01*
X14902670Y-12862080D02*
X14802670Y-12962080D01*
X14852670Y-12862080D02*
X14852670Y-12962080D01*
X14802670Y-12912080D02*
X14902670Y-12912080D01*
X15056670Y-8036080D02*
X15156670Y-8136080D01*
X15156670Y-8036080D02*
X15056670Y-8136080D01*
X15106670Y-8036080D02*
X15106670Y-8136080D01*
X15056670Y-8086080D02*
X15156670Y-8086080D01*
X15056670Y-12862080D02*
X15156670Y-12962080D01*
X15156670Y-12862080D02*
X15056670Y-12962080D01*
X15106670Y-12862080D02*
X15106670Y-12962080D01*
X15056670Y-12912080D02*
X15156670Y-12912080D01*
X15310670Y-8036080D02*
X15410670Y-8136080D01*
X15410670Y-8036080D02*
X15310670Y-8136080D01*
X15360670Y-8036080D02*
X15360670Y-8136080D01*
X15310670Y-8086080D02*
X15410670Y-8086080D01*
X15310670Y-12862080D02*
X15410670Y-12962080D01*
X15410670Y-12862080D02*
X15310670Y-12962080D01*
X15360670Y-12862080D02*
X15360670Y-12962080D01*
X15310670Y-12912080D02*
X15410670Y-12912080D01*
X15564670Y-8036080D02*
X15664670Y-8136080D01*
X15664670Y-8036080D02*
X15564670Y-8136080D01*
X15614670Y-8036080D02*
X15614670Y-8136080D01*
X15564670Y-8086080D02*
X15664670Y-8086080D01*
X15564670Y-12862080D02*
X15664670Y-12962080D01*
X15664670Y-12862080D02*
X15564670Y-12962080D01*
X15614670Y-12862080D02*
X15614670Y-12962080D01*
X15564670Y-12912080D02*
X15664670Y-12912080D01*
X15818670Y-8036080D02*
X15918670Y-8136080D01*
X15918670Y-8036080D02*
X15818670Y-8136080D01*
X15868670Y-8036080D02*
X15868670Y-8136080D01*
X15818670Y-8086080D02*
X15918670Y-8086080D01*
X15818670Y-12862080D02*
X15918670Y-12962080D01*
X15918670Y-12862080D02*
X15818670Y-12962080D01*
X15868670Y-12862080D02*
X15868670Y-12962080D01*
X15818670Y-12912080D02*
X15918670Y-12912080D01*
X16072670Y-8036080D02*
X16172670Y-8136080D01*
X16172670Y-8036080D02*
X16072670Y-8136080D01*
X16122670Y-8036080D02*
X16122670Y-8136080D01*
X16072670Y-8086080D02*
X16172670Y-8086080D01*
X16072670Y-12862080D02*
X16172670Y-12962080D01*
X16172670Y-12862080D02*
X16072670Y-12962080D01*
X16122670Y-12862080D02*
X16122670Y-12962080D01*
X16072670Y-12912080D02*
X16172670Y-12912080D01*
X16085370Y-10068080D02*
X16185370Y-10168080D01*
X16185370Y-10068080D02*
X16085370Y-10168080D01*
X16135370Y-10068080D02*
X16135370Y-10168080D01*
X16085370Y-10118080D02*
X16185370Y-10118080D01*
X16085370Y-10322080D02*
X16185370Y-10422080D01*
X16185370Y-10322080D02*
X16085370Y-10422080D01*
X16135370Y-10322080D02*
X16135370Y-10422080D01*
X16085370Y-10372080D02*
X16185370Y-10372080D01*
X16085370Y-10576080D02*
X16185370Y-10676080D01*
X16185370Y-10576080D02*
X16085370Y-10676080D01*
X16135370Y-10576080D02*
X16135370Y-10676080D01*
X16085370Y-10626080D02*
X16185370Y-10626080D01*
X16326670Y-12862080D02*
X16426670Y-12962080D01*
X16426670Y-12862080D02*
X16326670Y-12962080D01*
X16376670Y-12862080D02*
X16376670Y-12962080D01*
X16326670Y-12912080D02*
X16426670Y-12912080D01*
X16339370Y-10068080D02*
X16439370Y-10168080D01*
X16439370Y-10068080D02*
X16339370Y-10168080D01*
X16389370Y-10068080D02*
X16389370Y-10168080D01*
X16339370Y-10118080D02*
X16439370Y-10118080D01*
X16339370Y-10322080D02*
X16439370Y-10422080D01*
X16439370Y-10322080D02*
X16339370Y-10422080D01*
X16389370Y-10322080D02*
X16389370Y-10422080D01*
X16339370Y-10372080D02*
X16439370Y-10372080D01*
X16339370Y-10576080D02*
X16439370Y-10676080D01*
X16439370Y-10576080D02*
X16339370Y-10676080D01*
X16389370Y-10576080D02*
X16389370Y-10676080D01*
X16339370Y-10626080D02*
X16439370Y-10626080D01*
X16580670Y-8036080D02*
X16680670Y-8136080D01*
X16680670Y-8036080D02*
X16580670Y-8136080D01*
X16630670Y-8036080D02*
X16630670Y-8136080D01*
X16580670Y-8086080D02*
X16680670Y-8086080D01*
X16580670Y-12862080D02*
X16680670Y-12962080D01*
X16680670Y-12862080D02*
X16580670Y-12962080D01*
X16630670Y-12862080D02*
X16630670Y-12962080D01*
X16580670Y-12912080D02*
X16680670Y-12912080D01*
X16834670Y-8036080D02*
X16934670Y-8136080D01*
X16934670Y-8036080D02*
X16834670Y-8136080D01*
X16884670Y-8036080D02*
X16884670Y-8136080D01*
X16834670Y-8086080D02*
X16934670Y-8086080D01*
X17088670Y-8036080D02*
X17188670Y-8136080D01*
X17188670Y-8036080D02*
X17088670Y-8136080D01*
X17138670Y-8036080D02*
X17138670Y-8136080D01*
X17088670Y-8086080D02*
X17188670Y-8086080D01*
X17088670Y-12862080D02*
X17188670Y-12962080D01*
X17188670Y-12862080D02*
X17088670Y-12962080D01*
X17138670Y-12862080D02*
X17138670Y-12962080D01*
X17088670Y-12912080D02*
X17188670Y-12912080D01*
X17342670Y-8036080D02*
X17442670Y-8136080D01*
X17442670Y-8036080D02*
X17342670Y-8136080D01*
X17392670Y-8036080D02*
X17392670Y-8136080D01*
X17342670Y-8086080D02*
X17442670Y-8086080D01*
X17342670Y-12862080D02*
X17442670Y-12962080D01*
X17442670Y-12862080D02*
X17342670Y-12962080D01*
X17392670Y-12862080D02*
X17392670Y-12962080D01*
X17342670Y-12912080D02*
X17442670Y-12912080D01*
X17596670Y-8036080D02*
X17696670Y-8136080D01*
X17696670Y-8036080D02*
X17596670Y-8136080D01*
X17646670Y-8036080D02*
X17646670Y-8136080D01*
X17596670Y-8086080D02*
X17696670Y-8086080D01*
X17596670Y-12862080D02*
X17696670Y-12962080D01*
X17696670Y-12862080D02*
X17596670Y-12962080D01*
X17646670Y-12862080D02*
X17646670Y-12962080D01*
X17596670Y-12912080D02*
X17696670Y-12912080D01*
X17850670Y-8036080D02*
X17950670Y-8136080D01*
X17950670Y-8036080D02*
X17850670Y-8136080D01*
X17900670Y-8036080D02*
X17900670Y-8136080D01*
X17850670Y-8086080D02*
X17950670Y-8086080D01*
X17850670Y-12862080D02*
X17950670Y-12962080D01*
X17950670Y-12862080D02*
X17850670Y-12962080D01*
X17900670Y-12862080D02*
X17900670Y-12962080D01*
X17850670Y-12912080D02*
X17950670Y-12912080D01*
X18104670Y-8036080D02*
X18204670Y-8136080D01*
X18204670Y-8036080D02*
X18104670Y-8136080D01*
X18154670Y-8036080D02*
X18154670Y-8136080D01*
X18104670Y-8086080D02*
X18204670Y-8086080D01*
X18104670Y-12862080D02*
X18204670Y-12962080D01*
X18204670Y-12862080D02*
X18104670Y-12962080D01*
X18154670Y-12862080D02*
X18154670Y-12962080D01*
X18104670Y-12912080D02*
X18204670Y-12912080D01*
X18358670Y-8036080D02*
X18458670Y-8136080D01*
X18458670Y-8036080D02*
X18358670Y-8136080D01*
X18408670Y-8036080D02*
X18408670Y-8136080D01*
X18358670Y-8086080D02*
X18458670Y-8086080D01*
X18358670Y-12862080D02*
X18458670Y-12962080D01*
X18458670Y-12862080D02*
X18358670Y-12962080D01*
X18408670Y-12862080D02*
X18408670Y-12962080D01*
X18358670Y-12912080D02*
X18458670Y-12912080D01*
X18612670Y-12862080D02*
X18712670Y-12962080D01*
X18712670Y-12862080D02*
X18612670Y-12962080D01*
X18662670Y-12862080D02*
X18662670Y-12962080D01*
X18612670Y-12912080D02*
X18712670Y-12912080D01*
X18866670Y-12862080D02*
X18966670Y-12962080D01*
X18966670Y-12862080D02*
X18866670Y-12962080D01*
X18916670Y-12862080D02*
X18916670Y-12962080D01*
X18866670Y-12912080D02*
X18966670Y-12912080D01*
X19120170Y-8037580D02*
X19220170Y-8137580D01*
X19220170Y-8037580D02*
X19120170Y-8137580D01*
X19170170Y-8037580D02*
X19170170Y-8137580D01*
X19120170Y-8087580D02*
X19220170Y-8087580D01*
X19120170Y-8291580D02*
X19220170Y-8391580D01*
X19220170Y-8291580D02*
X19120170Y-8391580D01*
X19170170Y-8291580D02*
X19170170Y-8391580D01*
X19120170Y-8341580D02*
X19220170Y-8341580D01*
X19120170Y-8545580D02*
X19220170Y-8645580D01*
X19220170Y-8545580D02*
X19120170Y-8645580D01*
X19170170Y-8545580D02*
X19170170Y-8645580D01*
X19120170Y-8595580D02*
X19220170Y-8595580D01*
X19120170Y-8799580D02*
X19220170Y-8899580D01*
X19220170Y-8799580D02*
X19120170Y-8899580D01*
X19170170Y-8799580D02*
X19170170Y-8899580D01*
X19120170Y-8849580D02*
X19220170Y-8849580D01*
X19120170Y-9053580D02*
X19220170Y-9153580D01*
X19220170Y-9053580D02*
X19120170Y-9153580D01*
X19170170Y-9053580D02*
X19170170Y-9153580D01*
X19120170Y-9103580D02*
X19220170Y-9103580D01*
X19120170Y-9307580D02*
X19220170Y-9407580D01*
X19220170Y-9307580D02*
X19120170Y-9407580D01*
X19170170Y-9307580D02*
X19170170Y-9407580D01*
X19120170Y-9357580D02*
X19220170Y-9357580D01*
X19120170Y-9561580D02*
X19220170Y-9661580D01*
X19220170Y-9561580D02*
X19120170Y-9661580D01*
X19170170Y-9561580D02*
X19170170Y-9661580D01*
X19120170Y-9611580D02*
X19220170Y-9611580D01*
X19120170Y-9815580D02*
X19220170Y-9915580D01*
X19220170Y-9815580D02*
X19120170Y-9915580D01*
X19170170Y-9815580D02*
X19170170Y-9915580D01*
X19120170Y-9865580D02*
X19220170Y-9865580D01*
X19120170Y-10069580D02*
X19220170Y-10169580D01*
X19220170Y-10069580D02*
X19120170Y-10169580D01*
X19170170Y-10069580D02*
X19170170Y-10169580D01*
X19120170Y-10119580D02*
X19220170Y-10119580D01*
X19120170Y-10323580D02*
X19220170Y-10423580D01*
X19220170Y-10323580D02*
X19120170Y-10423580D01*
X19170170Y-10323580D02*
X19170170Y-10423580D01*
X19120170Y-10373580D02*
X19220170Y-10373580D01*
X19120170Y-10577580D02*
X19220170Y-10677580D01*
X19220170Y-10577580D02*
X19120170Y-10677580D01*
X19170170Y-10577580D02*
X19170170Y-10677580D01*
X19120170Y-10627580D02*
X19220170Y-10627580D01*
X19120170Y-10831580D02*
X19220170Y-10931580D01*
X19220170Y-10831580D02*
X19120170Y-10931580D01*
X19170170Y-10831580D02*
X19170170Y-10931580D01*
X19120170Y-10881580D02*
X19220170Y-10881580D01*
X19120170Y-11085580D02*
X19220170Y-11185580D01*
X19220170Y-11085580D02*
X19120170Y-11185580D01*
X19170170Y-11085580D02*
X19170170Y-11185580D01*
X19120170Y-11135580D02*
X19220170Y-11135580D01*
X19120170Y-11339580D02*
X19220170Y-11439580D01*
X19220170Y-11339580D02*
X19120170Y-11439580D01*
X19170170Y-11339580D02*
X19170170Y-11439580D01*
X19120170Y-11389580D02*
X19220170Y-11389580D01*
X19120170Y-11593580D02*
X19220170Y-11693580D01*
X19220170Y-11593580D02*
X19120170Y-11693580D01*
X19170170Y-11593580D02*
X19170170Y-11693580D01*
X19120170Y-11643580D02*
X19220170Y-11643580D01*
X19120170Y-11847580D02*
X19220170Y-11947580D01*
X19220170Y-11847580D02*
X19120170Y-11947580D01*
X19170170Y-11847580D02*
X19170170Y-11947580D01*
X19120170Y-11897580D02*
X19220170Y-11897580D01*
X19120170Y-12101580D02*
X19220170Y-12201580D01*
X19220170Y-12101580D02*
X19120170Y-12201580D01*
X19170170Y-12101580D02*
X19170170Y-12201580D01*
X19120170Y-12151580D02*
X19220170Y-12151580D01*
X19120170Y-12355580D02*
X19220170Y-12455580D01*
X19220170Y-12355580D02*
X19120170Y-12455580D01*
X19170170Y-12355580D02*
X19170170Y-12455580D01*
X19120170Y-12405580D02*
X19220170Y-12405580D01*
X19374170Y-8037580D02*
X19474170Y-8137580D01*
X19474170Y-8037580D02*
X19374170Y-8137580D01*
X19424170Y-8037580D02*
X19424170Y-8137580D01*
X19374170Y-8087580D02*
X19474170Y-8087580D01*
X19374170Y-8291580D02*
X19474170Y-8391580D01*
X19474170Y-8291580D02*
X19374170Y-8391580D01*
X19424170Y-8291580D02*
X19424170Y-8391580D01*
X19374170Y-8341580D02*
X19474170Y-8341580D01*
X19374170Y-8545580D02*
X19474170Y-8645580D01*
X19474170Y-8545580D02*
X19374170Y-8645580D01*
X19424170Y-8545580D02*
X19424170Y-8645580D01*
X19374170Y-8595580D02*
X19474170Y-8595580D01*
X19374170Y-8799580D02*
X19474170Y-8899580D01*
X19474170Y-8799580D02*
X19374170Y-8899580D01*
X19424170Y-8799580D02*
X19424170Y-8899580D01*
X19374170Y-8849580D02*
X19474170Y-8849580D01*
X19374170Y-9053580D02*
X19474170Y-9153580D01*
X19474170Y-9053580D02*
X19374170Y-9153580D01*
X19424170Y-9053580D02*
X19424170Y-9153580D01*
X19374170Y-9103580D02*
X19474170Y-9103580D01*
X19374170Y-9307580D02*
X19474170Y-9407580D01*
X19474170Y-9307580D02*
X19374170Y-9407580D01*
X19424170Y-9307580D02*
X19424170Y-9407580D01*
X19374170Y-9357580D02*
X19474170Y-9357580D01*
X19374170Y-9561580D02*
X19474170Y-9661580D01*
X19474170Y-9561580D02*
X19374170Y-9661580D01*
X19424170Y-9561580D02*
X19424170Y-9661580D01*
X19374170Y-9611580D02*
X19474170Y-9611580D01*
X19374170Y-9815580D02*
X19474170Y-9915580D01*
X19474170Y-9815580D02*
X19374170Y-9915580D01*
X19424170Y-9815580D02*
X19424170Y-9915580D01*
X19374170Y-9865580D02*
X19474170Y-9865580D01*
X19374170Y-10069580D02*
X19474170Y-10169580D01*
X19474170Y-10069580D02*
X19374170Y-10169580D01*
X19424170Y-10069580D02*
X19424170Y-10169580D01*
X19374170Y-10119580D02*
X19474170Y-10119580D01*
X19374170Y-10323580D02*
X19474170Y-10423580D01*
X19474170Y-10323580D02*
X19374170Y-10423580D01*
X19424170Y-10323580D02*
X19424170Y-10423580D01*
X19374170Y-10373580D02*
X19474170Y-10373580D01*
X19374170Y-10577580D02*
X19474170Y-10677580D01*
X19474170Y-10577580D02*
X19374170Y-10677580D01*
X19424170Y-10577580D02*
X19424170Y-10677580D01*
X19374170Y-10627580D02*
X19474170Y-10627580D01*
X19374170Y-10831580D02*
X19474170Y-10931580D01*
X19474170Y-10831580D02*
X19374170Y-10931580D01*
X19424170Y-10831580D02*
X19424170Y-10931580D01*
X19374170Y-10881580D02*
X19474170Y-10881580D01*
X19374170Y-11085580D02*
X19474170Y-11185580D01*
X19474170Y-11085580D02*
X19374170Y-11185580D01*
X19424170Y-11085580D02*
X19424170Y-11185580D01*
X19374170Y-11135580D02*
X19474170Y-11135580D01*
X19374170Y-11339580D02*
X19474170Y-11439580D01*
X19474170Y-11339580D02*
X19374170Y-11439580D01*
X19424170Y-11339580D02*
X19424170Y-11439580D01*
X19374170Y-11389580D02*
X19474170Y-11389580D01*
X19374170Y-11593580D02*
X19474170Y-11693580D01*
X19474170Y-11593580D02*
X19374170Y-11693580D01*
X19424170Y-11593580D02*
X19424170Y-11693580D01*
X19374170Y-11643580D02*
X19474170Y-11643580D01*
X19374170Y-11847580D02*
X19474170Y-11947580D01*
X19474170Y-11847580D02*
X19374170Y-11947580D01*
X19424170Y-11847580D02*
X19424170Y-11947580D01*
X19374170Y-11897580D02*
X19474170Y-11897580D01*
X19374170Y-12101580D02*
X19474170Y-12201580D01*
X19474170Y-12101580D02*
X19374170Y-12201580D01*
X19424170Y-12101580D02*
X19424170Y-12201580D01*
X19374170Y-12151580D02*
X19474170Y-12151580D01*
X19374170Y-12355580D02*
X19474170Y-12455580D01*
X19474170Y-12355580D02*
X19374170Y-12455580D01*
X19424170Y-12355580D02*
X19424170Y-12455580D01*
X19374170Y-12405580D02*
X19474170Y-12405580D01*
D12*
X10018187Y-13491544D02*
X10018187Y-13291544D01*
X10018187Y-13291544D02*
X10065806Y-13291544D01*
X10065806Y-13291544D02*
X10094377Y-13301068D01*
X10094377Y-13301068D02*
X10113425Y-13320115D01*
X10113425Y-13320115D02*
X10122949Y-13339163D01*
X10122949Y-13339163D02*
X10132473Y-13377258D01*
X10132473Y-13377258D02*
X10132473Y-13405829D01*
X10132473Y-13405829D02*
X10122949Y-13443925D01*
X10122949Y-13443925D02*
X10113425Y-13462972D01*
X10113425Y-13462972D02*
X10094377Y-13482020D01*
X10094377Y-13482020D02*
X10065806Y-13491544D01*
X10065806Y-13491544D02*
X10018187Y-13491544D01*
X10218187Y-13491544D02*
X10218187Y-13358210D01*
X10218187Y-13396306D02*
X10227711Y-13377258D01*
X10227711Y-13377258D02*
X10237234Y-13367734D01*
X10237234Y-13367734D02*
X10256282Y-13358210D01*
X10256282Y-13358210D02*
X10275330Y-13358210D01*
X10341996Y-13491544D02*
X10341996Y-13358210D01*
X10341996Y-13291544D02*
X10332473Y-13301068D01*
X10332473Y-13301068D02*
X10341996Y-13310591D01*
X10341996Y-13310591D02*
X10351520Y-13301068D01*
X10351520Y-13301068D02*
X10341996Y-13291544D01*
X10341996Y-13291544D02*
X10341996Y-13310591D01*
X10465806Y-13491544D02*
X10446758Y-13482020D01*
X10446758Y-13482020D02*
X10437234Y-13462972D01*
X10437234Y-13462972D02*
X10437234Y-13291544D01*
X10570568Y-13491544D02*
X10551520Y-13482020D01*
X10551520Y-13482020D02*
X10541996Y-13462972D01*
X10541996Y-13462972D02*
X10541996Y-13291544D01*
X10799139Y-13491544D02*
X10799139Y-13291544D01*
X10799139Y-13291544D02*
X10865806Y-13434401D01*
X10865806Y-13434401D02*
X10932473Y-13291544D01*
X10932473Y-13291544D02*
X10932473Y-13491544D01*
X11113425Y-13491544D02*
X11113425Y-13386782D01*
X11113425Y-13386782D02*
X11103901Y-13367734D01*
X11103901Y-13367734D02*
X11084854Y-13358210D01*
X11084854Y-13358210D02*
X11046758Y-13358210D01*
X11046758Y-13358210D02*
X11027711Y-13367734D01*
X11113425Y-13482020D02*
X11094377Y-13491544D01*
X11094377Y-13491544D02*
X11046758Y-13491544D01*
X11046758Y-13491544D02*
X11027711Y-13482020D01*
X11027711Y-13482020D02*
X11018187Y-13462972D01*
X11018187Y-13462972D02*
X11018187Y-13443925D01*
X11018187Y-13443925D02*
X11027711Y-13424877D01*
X11027711Y-13424877D02*
X11046758Y-13415353D01*
X11046758Y-13415353D02*
X11094377Y-13415353D01*
X11094377Y-13415353D02*
X11113425Y-13405829D01*
X11208663Y-13358210D02*
X11208663Y-13558210D01*
X11208663Y-13367734D02*
X11227711Y-13358210D01*
X11227711Y-13358210D02*
X11265806Y-13358210D01*
X11265806Y-13358210D02*
X11284853Y-13367734D01*
X11284853Y-13367734D02*
X11294377Y-13377258D01*
X11294377Y-13377258D02*
X11303901Y-13396306D01*
X11303901Y-13396306D02*
X11303901Y-13453448D01*
X11303901Y-13453448D02*
X11294377Y-13472496D01*
X11294377Y-13472496D02*
X11284853Y-13482020D01*
X11284853Y-13482020D02*
X11265806Y-13491544D01*
X11265806Y-13491544D02*
X11227711Y-13491544D01*
X11227711Y-13491544D02*
X11208663Y-13482020D01*
X11389615Y-13472496D02*
X11399139Y-13482020D01*
X11399139Y-13482020D02*
X11389615Y-13491544D01*
X11389615Y-13491544D02*
X11380092Y-13482020D01*
X11380092Y-13482020D02*
X11389615Y-13472496D01*
X11389615Y-13472496D02*
X11389615Y-13491544D01*
X11389615Y-13367734D02*
X11399139Y-13377258D01*
X11399139Y-13377258D02*
X11389615Y-13386782D01*
X11389615Y-13386782D02*
X11380092Y-13377258D01*
X11380092Y-13377258D02*
X11389615Y-13367734D01*
X11389615Y-13367734D02*
X11389615Y-13386782D01*
D13*
X9727410Y-13805060D02*
X9757410Y-13835060D01*
X9757410Y-13805060D02*
X9727410Y-13835060D01*
D12*
X10056282Y-13711544D02*
X10075330Y-13711544D01*
X10075330Y-13711544D02*
X10094377Y-13721068D01*
X10094377Y-13721068D02*
X10103901Y-13730591D01*
X10103901Y-13730591D02*
X10113425Y-13749639D01*
X10113425Y-13749639D02*
X10122949Y-13787734D01*
X10122949Y-13787734D02*
X10122949Y-13835353D01*
X10122949Y-13835353D02*
X10113425Y-13873448D01*
X10113425Y-13873448D02*
X10103901Y-13892496D01*
X10103901Y-13892496D02*
X10094377Y-13902020D01*
X10094377Y-13902020D02*
X10075330Y-13911544D01*
X10075330Y-13911544D02*
X10056282Y-13911544D01*
X10056282Y-13911544D02*
X10037234Y-13902020D01*
X10037234Y-13902020D02*
X10027711Y-13892496D01*
X10027711Y-13892496D02*
X10018187Y-13873448D01*
X10018187Y-13873448D02*
X10008663Y-13835353D01*
X10008663Y-13835353D02*
X10008663Y-13787734D01*
X10008663Y-13787734D02*
X10018187Y-13749639D01*
X10018187Y-13749639D02*
X10027711Y-13730591D01*
X10027711Y-13730591D02*
X10037234Y-13721068D01*
X10037234Y-13721068D02*
X10056282Y-13711544D01*
X10208663Y-13892496D02*
X10218187Y-13902020D01*
X10218187Y-13902020D02*
X10208663Y-13911544D01*
X10208663Y-13911544D02*
X10199139Y-13902020D01*
X10199139Y-13902020D02*
X10208663Y-13892496D01*
X10208663Y-13892496D02*
X10208663Y-13911544D01*
X10284854Y-13711544D02*
X10408663Y-13711544D01*
X10408663Y-13711544D02*
X10341996Y-13787734D01*
X10341996Y-13787734D02*
X10370568Y-13787734D01*
X10370568Y-13787734D02*
X10389615Y-13797258D01*
X10389615Y-13797258D02*
X10399139Y-13806782D01*
X10399139Y-13806782D02*
X10408663Y-13825829D01*
X10408663Y-13825829D02*
X10408663Y-13873448D01*
X10408663Y-13873448D02*
X10399139Y-13892496D01*
X10399139Y-13892496D02*
X10389615Y-13902020D01*
X10389615Y-13902020D02*
X10370568Y-13911544D01*
X10370568Y-13911544D02*
X10313425Y-13911544D01*
X10313425Y-13911544D02*
X10294377Y-13902020D01*
X10294377Y-13902020D02*
X10284854Y-13892496D01*
X10532473Y-13711544D02*
X10551520Y-13711544D01*
X10551520Y-13711544D02*
X10570568Y-13721068D01*
X10570568Y-13721068D02*
X10580092Y-13730591D01*
X10580092Y-13730591D02*
X10589615Y-13749639D01*
X10589615Y-13749639D02*
X10599139Y-13787734D01*
X10599139Y-13787734D02*
X10599139Y-13835353D01*
X10599139Y-13835353D02*
X10589615Y-13873448D01*
X10589615Y-13873448D02*
X10580092Y-13892496D01*
X10580092Y-13892496D02*
X10570568Y-13902020D01*
X10570568Y-13902020D02*
X10551520Y-13911544D01*
X10551520Y-13911544D02*
X10532473Y-13911544D01*
X10532473Y-13911544D02*
X10513425Y-13902020D01*
X10513425Y-13902020D02*
X10503901Y-13892496D01*
X10503901Y-13892496D02*
X10494377Y-13873448D01*
X10494377Y-13873448D02*
X10484854Y-13835353D01*
X10484854Y-13835353D02*
X10484854Y-13787734D01*
X10484854Y-13787734D02*
X10494377Y-13749639D01*
X10494377Y-13749639D02*
X10503901Y-13730591D01*
X10503901Y-13730591D02*
X10513425Y-13721068D01*
X10513425Y-13721068D02*
X10532473Y-13711544D01*
X10722949Y-13711544D02*
X10741996Y-13711544D01*
X10741996Y-13711544D02*
X10761044Y-13721068D01*
X10761044Y-13721068D02*
X10770568Y-13730591D01*
X10770568Y-13730591D02*
X10780092Y-13749639D01*
X10780092Y-13749639D02*
X10789615Y-13787734D01*
X10789615Y-13787734D02*
X10789615Y-13835353D01*
X10789615Y-13835353D02*
X10780092Y-13873448D01*
X10780092Y-13873448D02*
X10770568Y-13892496D01*
X10770568Y-13892496D02*
X10761044Y-13902020D01*
X10761044Y-13902020D02*
X10741996Y-13911544D01*
X10741996Y-13911544D02*
X10722949Y-13911544D01*
X10722949Y-13911544D02*
X10703901Y-13902020D01*
X10703901Y-13902020D02*
X10694377Y-13892496D01*
X10694377Y-13892496D02*
X10684854Y-13873448D01*
X10684854Y-13873448D02*
X10675330Y-13835353D01*
X10675330Y-13835353D02*
X10675330Y-13787734D01*
X10675330Y-13787734D02*
X10684854Y-13749639D01*
X10684854Y-13749639D02*
X10694377Y-13730591D01*
X10694377Y-13730591D02*
X10703901Y-13721068D01*
X10703901Y-13721068D02*
X10722949Y-13711544D01*
X10875330Y-13911544D02*
X10875330Y-13778210D01*
X10875330Y-13797258D02*
X10884854Y-13787734D01*
X10884854Y-13787734D02*
X10903901Y-13778210D01*
X10903901Y-13778210D02*
X10932473Y-13778210D01*
X10932473Y-13778210D02*
X10951520Y-13787734D01*
X10951520Y-13787734D02*
X10961044Y-13806782D01*
X10961044Y-13806782D02*
X10961044Y-13911544D01*
X10961044Y-13806782D02*
X10970568Y-13787734D01*
X10970568Y-13787734D02*
X10989615Y-13778210D01*
X10989615Y-13778210D02*
X11018187Y-13778210D01*
X11018187Y-13778210D02*
X11037235Y-13787734D01*
X11037235Y-13787734D02*
X11046758Y-13806782D01*
X11046758Y-13806782D02*
X11046758Y-13911544D01*
X11141996Y-13911544D02*
X11141996Y-13778210D01*
X11141996Y-13797258D02*
X11151520Y-13787734D01*
X11151520Y-13787734D02*
X11170568Y-13778210D01*
X11170568Y-13778210D02*
X11199139Y-13778210D01*
X11199139Y-13778210D02*
X11218187Y-13787734D01*
X11218187Y-13787734D02*
X11227711Y-13806782D01*
X11227711Y-13806782D02*
X11227711Y-13911544D01*
X11227711Y-13806782D02*
X11237234Y-13787734D01*
X11237234Y-13787734D02*
X11256282Y-13778210D01*
X11256282Y-13778210D02*
X11284853Y-13778210D01*
X11284853Y-13778210D02*
X11303901Y-13787734D01*
X11303901Y-13787734D02*
X11313425Y-13806782D01*
X11313425Y-13806782D02*
X11313425Y-13911544D01*
X11703901Y-13702020D02*
X11532473Y-13959163D01*
X11961044Y-13711544D02*
X11980092Y-13711544D01*
X11980092Y-13711544D02*
X11999139Y-13721068D01*
X11999139Y-13721068D02*
X12008663Y-13730591D01*
X12008663Y-13730591D02*
X12018187Y-13749639D01*
X12018187Y-13749639D02*
X12027711Y-13787734D01*
X12027711Y-13787734D02*
X12027711Y-13835353D01*
X12027711Y-13835353D02*
X12018187Y-13873448D01*
X12018187Y-13873448D02*
X12008663Y-13892496D01*
X12008663Y-13892496D02*
X11999139Y-13902020D01*
X11999139Y-13902020D02*
X11980092Y-13911544D01*
X11980092Y-13911544D02*
X11961044Y-13911544D01*
X11961044Y-13911544D02*
X11941996Y-13902020D01*
X11941996Y-13902020D02*
X11932473Y-13892496D01*
X11932473Y-13892496D02*
X11922949Y-13873448D01*
X11922949Y-13873448D02*
X11913425Y-13835353D01*
X11913425Y-13835353D02*
X11913425Y-13787734D01*
X11913425Y-13787734D02*
X11922949Y-13749639D01*
X11922949Y-13749639D02*
X11932473Y-13730591D01*
X11932473Y-13730591D02*
X11941996Y-13721068D01*
X11941996Y-13721068D02*
X11961044Y-13711544D01*
X12113425Y-13892496D02*
X12122949Y-13902020D01*
X12122949Y-13902020D02*
X12113425Y-13911544D01*
X12113425Y-13911544D02*
X12103901Y-13902020D01*
X12103901Y-13902020D02*
X12113425Y-13892496D01*
X12113425Y-13892496D02*
X12113425Y-13911544D01*
X12246758Y-13711544D02*
X12265806Y-13711544D01*
X12265806Y-13711544D02*
X12284854Y-13721068D01*
X12284854Y-13721068D02*
X12294377Y-13730591D01*
X12294377Y-13730591D02*
X12303901Y-13749639D01*
X12303901Y-13749639D02*
X12313425Y-13787734D01*
X12313425Y-13787734D02*
X12313425Y-13835353D01*
X12313425Y-13835353D02*
X12303901Y-13873448D01*
X12303901Y-13873448D02*
X12294377Y-13892496D01*
X12294377Y-13892496D02*
X12284854Y-13902020D01*
X12284854Y-13902020D02*
X12265806Y-13911544D01*
X12265806Y-13911544D02*
X12246758Y-13911544D01*
X12246758Y-13911544D02*
X12227711Y-13902020D01*
X12227711Y-13902020D02*
X12218187Y-13892496D01*
X12218187Y-13892496D02*
X12208663Y-13873448D01*
X12208663Y-13873448D02*
X12199139Y-13835353D01*
X12199139Y-13835353D02*
X12199139Y-13787734D01*
X12199139Y-13787734D02*
X12208663Y-13749639D01*
X12208663Y-13749639D02*
X12218187Y-13730591D01*
X12218187Y-13730591D02*
X12227711Y-13721068D01*
X12227711Y-13721068D02*
X12246758Y-13711544D01*
X12503901Y-13911544D02*
X12389616Y-13911544D01*
X12446758Y-13911544D02*
X12446758Y-13711544D01*
X12446758Y-13711544D02*
X12427711Y-13740115D01*
X12427711Y-13740115D02*
X12408663Y-13759163D01*
X12408663Y-13759163D02*
X12389616Y-13768687D01*
X12694377Y-13911544D02*
X12580092Y-13911544D01*
X12637235Y-13911544D02*
X12637235Y-13711544D01*
X12637235Y-13711544D02*
X12618187Y-13740115D01*
X12618187Y-13740115D02*
X12599139Y-13759163D01*
X12599139Y-13759163D02*
X12580092Y-13768687D01*
X12808663Y-13797258D02*
X12789616Y-13787734D01*
X12789616Y-13787734D02*
X12780092Y-13778210D01*
X12780092Y-13778210D02*
X12770568Y-13759163D01*
X12770568Y-13759163D02*
X12770568Y-13749639D01*
X12770568Y-13749639D02*
X12780092Y-13730591D01*
X12780092Y-13730591D02*
X12789616Y-13721068D01*
X12789616Y-13721068D02*
X12808663Y-13711544D01*
X12808663Y-13711544D02*
X12846758Y-13711544D01*
X12846758Y-13711544D02*
X12865806Y-13721068D01*
X12865806Y-13721068D02*
X12875330Y-13730591D01*
X12875330Y-13730591D02*
X12884854Y-13749639D01*
X12884854Y-13749639D02*
X12884854Y-13759163D01*
X12884854Y-13759163D02*
X12875330Y-13778210D01*
X12875330Y-13778210D02*
X12865806Y-13787734D01*
X12865806Y-13787734D02*
X12846758Y-13797258D01*
X12846758Y-13797258D02*
X12808663Y-13797258D01*
X12808663Y-13797258D02*
X12789616Y-13806782D01*
X12789616Y-13806782D02*
X12780092Y-13816306D01*
X12780092Y-13816306D02*
X12770568Y-13835353D01*
X12770568Y-13835353D02*
X12770568Y-13873448D01*
X12770568Y-13873448D02*
X12780092Y-13892496D01*
X12780092Y-13892496D02*
X12789616Y-13902020D01*
X12789616Y-13902020D02*
X12808663Y-13911544D01*
X12808663Y-13911544D02*
X12846758Y-13911544D01*
X12846758Y-13911544D02*
X12865806Y-13902020D01*
X12865806Y-13902020D02*
X12875330Y-13892496D01*
X12875330Y-13892496D02*
X12884854Y-13873448D01*
X12884854Y-13873448D02*
X12884854Y-13835353D01*
X12884854Y-13835353D02*
X12875330Y-13816306D01*
X12875330Y-13816306D02*
X12865806Y-13806782D01*
X12865806Y-13806782D02*
X12846758Y-13797258D01*
X12961044Y-13711544D02*
X12961044Y-13749639D01*
X13037235Y-13711544D02*
X13037235Y-13749639D01*
X13332473Y-13987734D02*
X13322949Y-13978210D01*
X13322949Y-13978210D02*
X13303901Y-13949639D01*
X13303901Y-13949639D02*
X13294378Y-13930591D01*
X13294378Y-13930591D02*
X13284854Y-13902020D01*
X13284854Y-13902020D02*
X13275330Y-13854401D01*
X13275330Y-13854401D02*
X13275330Y-13816306D01*
X13275330Y-13816306D02*
X13284854Y-13768687D01*
X13284854Y-13768687D02*
X13294378Y-13740115D01*
X13294378Y-13740115D02*
X13303901Y-13721068D01*
X13303901Y-13721068D02*
X13322949Y-13692496D01*
X13322949Y-13692496D02*
X13332473Y-13682972D01*
X13494378Y-13778210D02*
X13494378Y-13911544D01*
X13446758Y-13702020D02*
X13399139Y-13844877D01*
X13399139Y-13844877D02*
X13522949Y-13844877D01*
X13751520Y-13911544D02*
X13751520Y-13711544D01*
X13837235Y-13911544D02*
X13837235Y-13806782D01*
X13837235Y-13806782D02*
X13827711Y-13787734D01*
X13827711Y-13787734D02*
X13808663Y-13778210D01*
X13808663Y-13778210D02*
X13780092Y-13778210D01*
X13780092Y-13778210D02*
X13761044Y-13787734D01*
X13761044Y-13787734D02*
X13751520Y-13797258D01*
X13961044Y-13911544D02*
X13941997Y-13902020D01*
X13941997Y-13902020D02*
X13932473Y-13892496D01*
X13932473Y-13892496D02*
X13922949Y-13873448D01*
X13922949Y-13873448D02*
X13922949Y-13816306D01*
X13922949Y-13816306D02*
X13932473Y-13797258D01*
X13932473Y-13797258D02*
X13941997Y-13787734D01*
X13941997Y-13787734D02*
X13961044Y-13778210D01*
X13961044Y-13778210D02*
X13989616Y-13778210D01*
X13989616Y-13778210D02*
X14008663Y-13787734D01*
X14008663Y-13787734D02*
X14018187Y-13797258D01*
X14018187Y-13797258D02*
X14027711Y-13816306D01*
X14027711Y-13816306D02*
X14027711Y-13873448D01*
X14027711Y-13873448D02*
X14018187Y-13892496D01*
X14018187Y-13892496D02*
X14008663Y-13902020D01*
X14008663Y-13902020D02*
X13989616Y-13911544D01*
X13989616Y-13911544D02*
X13961044Y-13911544D01*
X14141997Y-13911544D02*
X14122949Y-13902020D01*
X14122949Y-13902020D02*
X14113425Y-13882972D01*
X14113425Y-13882972D02*
X14113425Y-13711544D01*
X14294378Y-13902020D02*
X14275330Y-13911544D01*
X14275330Y-13911544D02*
X14237235Y-13911544D01*
X14237235Y-13911544D02*
X14218187Y-13902020D01*
X14218187Y-13902020D02*
X14208663Y-13882972D01*
X14208663Y-13882972D02*
X14208663Y-13806782D01*
X14208663Y-13806782D02*
X14218187Y-13787734D01*
X14218187Y-13787734D02*
X14237235Y-13778210D01*
X14237235Y-13778210D02*
X14275330Y-13778210D01*
X14275330Y-13778210D02*
X14294378Y-13787734D01*
X14294378Y-13787734D02*
X14303901Y-13806782D01*
X14303901Y-13806782D02*
X14303901Y-13825829D01*
X14303901Y-13825829D02*
X14208663Y-13844877D01*
X14380092Y-13902020D02*
X14399140Y-13911544D01*
X14399140Y-13911544D02*
X14437235Y-13911544D01*
X14437235Y-13911544D02*
X14456282Y-13902020D01*
X14456282Y-13902020D02*
X14465806Y-13882972D01*
X14465806Y-13882972D02*
X14465806Y-13873448D01*
X14465806Y-13873448D02*
X14456282Y-13854401D01*
X14456282Y-13854401D02*
X14437235Y-13844877D01*
X14437235Y-13844877D02*
X14408663Y-13844877D01*
X14408663Y-13844877D02*
X14389616Y-13835353D01*
X14389616Y-13835353D02*
X14380092Y-13816306D01*
X14380092Y-13816306D02*
X14380092Y-13806782D01*
X14380092Y-13806782D02*
X14389616Y-13787734D01*
X14389616Y-13787734D02*
X14408663Y-13778210D01*
X14408663Y-13778210D02*
X14437235Y-13778210D01*
X14437235Y-13778210D02*
X14456282Y-13787734D01*
X14532473Y-13987734D02*
X14541997Y-13978210D01*
X14541997Y-13978210D02*
X14561044Y-13949639D01*
X14561044Y-13949639D02*
X14570568Y-13930591D01*
X14570568Y-13930591D02*
X14580092Y-13902020D01*
X14580092Y-13902020D02*
X14589616Y-13854401D01*
X14589616Y-13854401D02*
X14589616Y-13816306D01*
X14589616Y-13816306D02*
X14580092Y-13768687D01*
X14580092Y-13768687D02*
X14570568Y-13740115D01*
X14570568Y-13740115D02*
X14561044Y-13721068D01*
X14561044Y-13721068D02*
X14541997Y-13692496D01*
X14541997Y-13692496D02*
X14532473Y-13682972D01*
D13*
X9757410Y-14084060D02*
G75*
G02*
X9716770Y-14084060I-20320J0D01*
G01*
X9716770Y-14084060D02*
G75*
G02*
X9757410Y-14084060I20320J0D01*
G01*
D12*
X10056282Y-13975544D02*
X10075330Y-13975544D01*
X10075330Y-13975544D02*
X10094377Y-13985068D01*
X10094377Y-13985068D02*
X10103901Y-13994591D01*
X10103901Y-13994591D02*
X10113425Y-14013639D01*
X10113425Y-14013639D02*
X10122949Y-14051734D01*
X10122949Y-14051734D02*
X10122949Y-14099353D01*
X10122949Y-14099353D02*
X10113425Y-14137448D01*
X10113425Y-14137448D02*
X10103901Y-14156496D01*
X10103901Y-14156496D02*
X10094377Y-14166020D01*
X10094377Y-14166020D02*
X10075330Y-14175544D01*
X10075330Y-14175544D02*
X10056282Y-14175544D01*
X10056282Y-14175544D02*
X10037234Y-14166020D01*
X10037234Y-14166020D02*
X10027711Y-14156496D01*
X10027711Y-14156496D02*
X10018187Y-14137448D01*
X10018187Y-14137448D02*
X10008663Y-14099353D01*
X10008663Y-14099353D02*
X10008663Y-14051734D01*
X10008663Y-14051734D02*
X10018187Y-14013639D01*
X10018187Y-14013639D02*
X10027711Y-13994591D01*
X10027711Y-13994591D02*
X10037234Y-13985068D01*
X10037234Y-13985068D02*
X10056282Y-13975544D01*
X10208663Y-14156496D02*
X10218187Y-14166020D01*
X10218187Y-14166020D02*
X10208663Y-14175544D01*
X10208663Y-14175544D02*
X10199139Y-14166020D01*
X10199139Y-14166020D02*
X10208663Y-14156496D01*
X10208663Y-14156496D02*
X10208663Y-14175544D01*
X10389615Y-14042210D02*
X10389615Y-14175544D01*
X10341996Y-13966020D02*
X10294377Y-14108877D01*
X10294377Y-14108877D02*
X10418187Y-14108877D01*
X10532473Y-13975544D02*
X10551520Y-13975544D01*
X10551520Y-13975544D02*
X10570568Y-13985068D01*
X10570568Y-13985068D02*
X10580092Y-13994591D01*
X10580092Y-13994591D02*
X10589615Y-14013639D01*
X10589615Y-14013639D02*
X10599139Y-14051734D01*
X10599139Y-14051734D02*
X10599139Y-14099353D01*
X10599139Y-14099353D02*
X10589615Y-14137448D01*
X10589615Y-14137448D02*
X10580092Y-14156496D01*
X10580092Y-14156496D02*
X10570568Y-14166020D01*
X10570568Y-14166020D02*
X10551520Y-14175544D01*
X10551520Y-14175544D02*
X10532473Y-14175544D01*
X10532473Y-14175544D02*
X10513425Y-14166020D01*
X10513425Y-14166020D02*
X10503901Y-14156496D01*
X10503901Y-14156496D02*
X10494377Y-14137448D01*
X10494377Y-14137448D02*
X10484854Y-14099353D01*
X10484854Y-14099353D02*
X10484854Y-14051734D01*
X10484854Y-14051734D02*
X10494377Y-14013639D01*
X10494377Y-14013639D02*
X10503901Y-13994591D01*
X10503901Y-13994591D02*
X10513425Y-13985068D01*
X10513425Y-13985068D02*
X10532473Y-13975544D01*
X10770568Y-13975544D02*
X10732473Y-13975544D01*
X10732473Y-13975544D02*
X10713425Y-13985068D01*
X10713425Y-13985068D02*
X10703901Y-13994591D01*
X10703901Y-13994591D02*
X10684854Y-14023163D01*
X10684854Y-14023163D02*
X10675330Y-14061258D01*
X10675330Y-14061258D02*
X10675330Y-14137448D01*
X10675330Y-14137448D02*
X10684854Y-14156496D01*
X10684854Y-14156496D02*
X10694377Y-14166020D01*
X10694377Y-14166020D02*
X10713425Y-14175544D01*
X10713425Y-14175544D02*
X10751520Y-14175544D01*
X10751520Y-14175544D02*
X10770568Y-14166020D01*
X10770568Y-14166020D02*
X10780092Y-14156496D01*
X10780092Y-14156496D02*
X10789615Y-14137448D01*
X10789615Y-14137448D02*
X10789615Y-14089829D01*
X10789615Y-14089829D02*
X10780092Y-14070782D01*
X10780092Y-14070782D02*
X10770568Y-14061258D01*
X10770568Y-14061258D02*
X10751520Y-14051734D01*
X10751520Y-14051734D02*
X10713425Y-14051734D01*
X10713425Y-14051734D02*
X10694377Y-14061258D01*
X10694377Y-14061258D02*
X10684854Y-14070782D01*
X10684854Y-14070782D02*
X10675330Y-14089829D01*
X10875330Y-14175544D02*
X10875330Y-14042210D01*
X10875330Y-14061258D02*
X10884854Y-14051734D01*
X10884854Y-14051734D02*
X10903901Y-14042210D01*
X10903901Y-14042210D02*
X10932473Y-14042210D01*
X10932473Y-14042210D02*
X10951520Y-14051734D01*
X10951520Y-14051734D02*
X10961044Y-14070782D01*
X10961044Y-14070782D02*
X10961044Y-14175544D01*
X10961044Y-14070782D02*
X10970568Y-14051734D01*
X10970568Y-14051734D02*
X10989615Y-14042210D01*
X10989615Y-14042210D02*
X11018187Y-14042210D01*
X11018187Y-14042210D02*
X11037235Y-14051734D01*
X11037235Y-14051734D02*
X11046758Y-14070782D01*
X11046758Y-14070782D02*
X11046758Y-14175544D01*
X11141996Y-14175544D02*
X11141996Y-14042210D01*
X11141996Y-14061258D02*
X11151520Y-14051734D01*
X11151520Y-14051734D02*
X11170568Y-14042210D01*
X11170568Y-14042210D02*
X11199139Y-14042210D01*
X11199139Y-14042210D02*
X11218187Y-14051734D01*
X11218187Y-14051734D02*
X11227711Y-14070782D01*
X11227711Y-14070782D02*
X11227711Y-14175544D01*
X11227711Y-14070782D02*
X11237234Y-14051734D01*
X11237234Y-14051734D02*
X11256282Y-14042210D01*
X11256282Y-14042210D02*
X11284853Y-14042210D01*
X11284853Y-14042210D02*
X11303901Y-14051734D01*
X11303901Y-14051734D02*
X11313425Y-14070782D01*
X11313425Y-14070782D02*
X11313425Y-14175544D01*
X11703901Y-13966020D02*
X11532473Y-14223163D01*
X11961044Y-13975544D02*
X11980092Y-13975544D01*
X11980092Y-13975544D02*
X11999139Y-13985068D01*
X11999139Y-13985068D02*
X12008663Y-13994591D01*
X12008663Y-13994591D02*
X12018187Y-14013639D01*
X12018187Y-14013639D02*
X12027711Y-14051734D01*
X12027711Y-14051734D02*
X12027711Y-14099353D01*
X12027711Y-14099353D02*
X12018187Y-14137448D01*
X12018187Y-14137448D02*
X12008663Y-14156496D01*
X12008663Y-14156496D02*
X11999139Y-14166020D01*
X11999139Y-14166020D02*
X11980092Y-14175544D01*
X11980092Y-14175544D02*
X11961044Y-14175544D01*
X11961044Y-14175544D02*
X11941996Y-14166020D01*
X11941996Y-14166020D02*
X11932473Y-14156496D01*
X11932473Y-14156496D02*
X11922949Y-14137448D01*
X11922949Y-14137448D02*
X11913425Y-14099353D01*
X11913425Y-14099353D02*
X11913425Y-14051734D01*
X11913425Y-14051734D02*
X11922949Y-14013639D01*
X11922949Y-14013639D02*
X11932473Y-13994591D01*
X11932473Y-13994591D02*
X11941996Y-13985068D01*
X11941996Y-13985068D02*
X11961044Y-13975544D01*
X12113425Y-14156496D02*
X12122949Y-14166020D01*
X12122949Y-14166020D02*
X12113425Y-14175544D01*
X12113425Y-14175544D02*
X12103901Y-14166020D01*
X12103901Y-14166020D02*
X12113425Y-14156496D01*
X12113425Y-14156496D02*
X12113425Y-14175544D01*
X12246758Y-13975544D02*
X12265806Y-13975544D01*
X12265806Y-13975544D02*
X12284854Y-13985068D01*
X12284854Y-13985068D02*
X12294377Y-13994591D01*
X12294377Y-13994591D02*
X12303901Y-14013639D01*
X12303901Y-14013639D02*
X12313425Y-14051734D01*
X12313425Y-14051734D02*
X12313425Y-14099353D01*
X12313425Y-14099353D02*
X12303901Y-14137448D01*
X12303901Y-14137448D02*
X12294377Y-14156496D01*
X12294377Y-14156496D02*
X12284854Y-14166020D01*
X12284854Y-14166020D02*
X12265806Y-14175544D01*
X12265806Y-14175544D02*
X12246758Y-14175544D01*
X12246758Y-14175544D02*
X12227711Y-14166020D01*
X12227711Y-14166020D02*
X12218187Y-14156496D01*
X12218187Y-14156496D02*
X12208663Y-14137448D01*
X12208663Y-14137448D02*
X12199139Y-14099353D01*
X12199139Y-14099353D02*
X12199139Y-14051734D01*
X12199139Y-14051734D02*
X12208663Y-14013639D01*
X12208663Y-14013639D02*
X12218187Y-13994591D01*
X12218187Y-13994591D02*
X12227711Y-13985068D01*
X12227711Y-13985068D02*
X12246758Y-13975544D01*
X12503901Y-14175544D02*
X12389616Y-14175544D01*
X12446758Y-14175544D02*
X12446758Y-13975544D01*
X12446758Y-13975544D02*
X12427711Y-14004115D01*
X12427711Y-14004115D02*
X12408663Y-14023163D01*
X12408663Y-14023163D02*
X12389616Y-14032687D01*
X12675330Y-13975544D02*
X12637235Y-13975544D01*
X12637235Y-13975544D02*
X12618187Y-13985068D01*
X12618187Y-13985068D02*
X12608663Y-13994591D01*
X12608663Y-13994591D02*
X12589616Y-14023163D01*
X12589616Y-14023163D02*
X12580092Y-14061258D01*
X12580092Y-14061258D02*
X12580092Y-14137448D01*
X12580092Y-14137448D02*
X12589616Y-14156496D01*
X12589616Y-14156496D02*
X12599139Y-14166020D01*
X12599139Y-14166020D02*
X12618187Y-14175544D01*
X12618187Y-14175544D02*
X12656282Y-14175544D01*
X12656282Y-14175544D02*
X12675330Y-14166020D01*
X12675330Y-14166020D02*
X12684854Y-14156496D01*
X12684854Y-14156496D02*
X12694377Y-14137448D01*
X12694377Y-14137448D02*
X12694377Y-14089829D01*
X12694377Y-14089829D02*
X12684854Y-14070782D01*
X12684854Y-14070782D02*
X12675330Y-14061258D01*
X12675330Y-14061258D02*
X12656282Y-14051734D01*
X12656282Y-14051734D02*
X12618187Y-14051734D01*
X12618187Y-14051734D02*
X12599139Y-14061258D01*
X12599139Y-14061258D02*
X12589616Y-14070782D01*
X12589616Y-14070782D02*
X12580092Y-14089829D01*
X12818187Y-13975544D02*
X12837235Y-13975544D01*
X12837235Y-13975544D02*
X12856282Y-13985068D01*
X12856282Y-13985068D02*
X12865806Y-13994591D01*
X12865806Y-13994591D02*
X12875330Y-14013639D01*
X12875330Y-14013639D02*
X12884854Y-14051734D01*
X12884854Y-14051734D02*
X12884854Y-14099353D01*
X12884854Y-14099353D02*
X12875330Y-14137448D01*
X12875330Y-14137448D02*
X12865806Y-14156496D01*
X12865806Y-14156496D02*
X12856282Y-14166020D01*
X12856282Y-14166020D02*
X12837235Y-14175544D01*
X12837235Y-14175544D02*
X12818187Y-14175544D01*
X12818187Y-14175544D02*
X12799139Y-14166020D01*
X12799139Y-14166020D02*
X12789616Y-14156496D01*
X12789616Y-14156496D02*
X12780092Y-14137448D01*
X12780092Y-14137448D02*
X12770568Y-14099353D01*
X12770568Y-14099353D02*
X12770568Y-14051734D01*
X12770568Y-14051734D02*
X12780092Y-14013639D01*
X12780092Y-14013639D02*
X12789616Y-13994591D01*
X12789616Y-13994591D02*
X12799139Y-13985068D01*
X12799139Y-13985068D02*
X12818187Y-13975544D01*
X12961044Y-13975544D02*
X12961044Y-14013639D01*
X13037235Y-13975544D02*
X13037235Y-14013639D01*
X13332473Y-14251734D02*
X13322949Y-14242210D01*
X13322949Y-14242210D02*
X13303901Y-14213639D01*
X13303901Y-14213639D02*
X13294378Y-14194591D01*
X13294378Y-14194591D02*
X13284854Y-14166020D01*
X13284854Y-14166020D02*
X13275330Y-14118401D01*
X13275330Y-14118401D02*
X13275330Y-14080306D01*
X13275330Y-14080306D02*
X13284854Y-14032687D01*
X13284854Y-14032687D02*
X13294378Y-14004115D01*
X13294378Y-14004115D02*
X13303901Y-13985068D01*
X13303901Y-13985068D02*
X13322949Y-13956496D01*
X13322949Y-13956496D02*
X13332473Y-13946972D01*
X13513425Y-14175544D02*
X13399139Y-14175544D01*
X13456282Y-14175544D02*
X13456282Y-13975544D01*
X13456282Y-13975544D02*
X13437235Y-14004115D01*
X13437235Y-14004115D02*
X13418187Y-14023163D01*
X13418187Y-14023163D02*
X13399139Y-14032687D01*
X13637235Y-13975544D02*
X13656282Y-13975544D01*
X13656282Y-13975544D02*
X13675330Y-13985068D01*
X13675330Y-13985068D02*
X13684854Y-13994591D01*
X13684854Y-13994591D02*
X13694378Y-14013639D01*
X13694378Y-14013639D02*
X13703901Y-14051734D01*
X13703901Y-14051734D02*
X13703901Y-14099353D01*
X13703901Y-14099353D02*
X13694378Y-14137448D01*
X13694378Y-14137448D02*
X13684854Y-14156496D01*
X13684854Y-14156496D02*
X13675330Y-14166020D01*
X13675330Y-14166020D02*
X13656282Y-14175544D01*
X13656282Y-14175544D02*
X13637235Y-14175544D01*
X13637235Y-14175544D02*
X13618187Y-14166020D01*
X13618187Y-14166020D02*
X13608663Y-14156496D01*
X13608663Y-14156496D02*
X13599139Y-14137448D01*
X13599139Y-14137448D02*
X13589616Y-14099353D01*
X13589616Y-14099353D02*
X13589616Y-14051734D01*
X13589616Y-14051734D02*
X13599139Y-14013639D01*
X13599139Y-14013639D02*
X13608663Y-13994591D01*
X13608663Y-13994591D02*
X13618187Y-13985068D01*
X13618187Y-13985068D02*
X13637235Y-13975544D01*
X13875330Y-14042210D02*
X13875330Y-14175544D01*
X13827711Y-13966020D02*
X13780092Y-14108877D01*
X13780092Y-14108877D02*
X13903901Y-14108877D01*
X14132473Y-14175544D02*
X14132473Y-13975544D01*
X14218187Y-14175544D02*
X14218187Y-14070782D01*
X14218187Y-14070782D02*
X14208663Y-14051734D01*
X14208663Y-14051734D02*
X14189616Y-14042210D01*
X14189616Y-14042210D02*
X14161044Y-14042210D01*
X14161044Y-14042210D02*
X14141997Y-14051734D01*
X14141997Y-14051734D02*
X14132473Y-14061258D01*
X14341997Y-14175544D02*
X14322949Y-14166020D01*
X14322949Y-14166020D02*
X14313425Y-14156496D01*
X14313425Y-14156496D02*
X14303901Y-14137448D01*
X14303901Y-14137448D02*
X14303901Y-14080306D01*
X14303901Y-14080306D02*
X14313425Y-14061258D01*
X14313425Y-14061258D02*
X14322949Y-14051734D01*
X14322949Y-14051734D02*
X14341997Y-14042210D01*
X14341997Y-14042210D02*
X14370568Y-14042210D01*
X14370568Y-14042210D02*
X14389616Y-14051734D01*
X14389616Y-14051734D02*
X14399140Y-14061258D01*
X14399140Y-14061258D02*
X14408663Y-14080306D01*
X14408663Y-14080306D02*
X14408663Y-14137448D01*
X14408663Y-14137448D02*
X14399140Y-14156496D01*
X14399140Y-14156496D02*
X14389616Y-14166020D01*
X14389616Y-14166020D02*
X14370568Y-14175544D01*
X14370568Y-14175544D02*
X14341997Y-14175544D01*
X14522949Y-14175544D02*
X14503901Y-14166020D01*
X14503901Y-14166020D02*
X14494378Y-14146972D01*
X14494378Y-14146972D02*
X14494378Y-13975544D01*
X14675330Y-14166020D02*
X14656282Y-14175544D01*
X14656282Y-14175544D02*
X14618187Y-14175544D01*
X14618187Y-14175544D02*
X14599140Y-14166020D01*
X14599140Y-14166020D02*
X14589616Y-14146972D01*
X14589616Y-14146972D02*
X14589616Y-14070782D01*
X14589616Y-14070782D02*
X14599140Y-14051734D01*
X14599140Y-14051734D02*
X14618187Y-14042210D01*
X14618187Y-14042210D02*
X14656282Y-14042210D01*
X14656282Y-14042210D02*
X14675330Y-14051734D01*
X14675330Y-14051734D02*
X14684854Y-14070782D01*
X14684854Y-14070782D02*
X14684854Y-14089829D01*
X14684854Y-14089829D02*
X14589616Y-14108877D01*
X14761044Y-14166020D02*
X14780092Y-14175544D01*
X14780092Y-14175544D02*
X14818187Y-14175544D01*
X14818187Y-14175544D02*
X14837235Y-14166020D01*
X14837235Y-14166020D02*
X14846759Y-14146972D01*
X14846759Y-14146972D02*
X14846759Y-14137448D01*
X14846759Y-14137448D02*
X14837235Y-14118401D01*
X14837235Y-14118401D02*
X14818187Y-14108877D01*
X14818187Y-14108877D02*
X14789616Y-14108877D01*
X14789616Y-14108877D02*
X14770568Y-14099353D01*
X14770568Y-14099353D02*
X14761044Y-14080306D01*
X14761044Y-14080306D02*
X14761044Y-14070782D01*
X14761044Y-14070782D02*
X14770568Y-14051734D01*
X14770568Y-14051734D02*
X14789616Y-14042210D01*
X14789616Y-14042210D02*
X14818187Y-14042210D01*
X14818187Y-14042210D02*
X14837235Y-14051734D01*
X14913425Y-14251734D02*
X14922949Y-14242210D01*
X14922949Y-14242210D02*
X14941997Y-14213639D01*
X14941997Y-14213639D02*
X14951521Y-14194591D01*
X14951521Y-14194591D02*
X14961044Y-14166020D01*
X14961044Y-14166020D02*
X14970568Y-14118401D01*
X14970568Y-14118401D02*
X14970568Y-14080306D01*
X14970568Y-14080306D02*
X14961044Y-14032687D01*
X14961044Y-14032687D02*
X14951521Y-14004115D01*
X14951521Y-14004115D02*
X14941997Y-13985068D01*
X14941997Y-13985068D02*
X14922949Y-13956496D01*
X14922949Y-13956496D02*
X14913425Y-13946972D01*
D13*
X9727410Y-14318060D02*
X9727410Y-14378060D01*
X9697410Y-14348060D02*
X9757410Y-14348060D01*
D12*
X10056282Y-14239544D02*
X10075330Y-14239544D01*
X10075330Y-14239544D02*
X10094377Y-14249068D01*
X10094377Y-14249068D02*
X10103901Y-14258591D01*
X10103901Y-14258591D02*
X10113425Y-14277639D01*
X10113425Y-14277639D02*
X10122949Y-14315734D01*
X10122949Y-14315734D02*
X10122949Y-14363353D01*
X10122949Y-14363353D02*
X10113425Y-14401448D01*
X10113425Y-14401448D02*
X10103901Y-14420496D01*
X10103901Y-14420496D02*
X10094377Y-14430020D01*
X10094377Y-14430020D02*
X10075330Y-14439544D01*
X10075330Y-14439544D02*
X10056282Y-14439544D01*
X10056282Y-14439544D02*
X10037234Y-14430020D01*
X10037234Y-14430020D02*
X10027711Y-14420496D01*
X10027711Y-14420496D02*
X10018187Y-14401448D01*
X10018187Y-14401448D02*
X10008663Y-14363353D01*
X10008663Y-14363353D02*
X10008663Y-14315734D01*
X10008663Y-14315734D02*
X10018187Y-14277639D01*
X10018187Y-14277639D02*
X10027711Y-14258591D01*
X10027711Y-14258591D02*
X10037234Y-14249068D01*
X10037234Y-14249068D02*
X10056282Y-14239544D01*
X10208663Y-14420496D02*
X10218187Y-14430020D01*
X10218187Y-14430020D02*
X10208663Y-14439544D01*
X10208663Y-14439544D02*
X10199139Y-14430020D01*
X10199139Y-14430020D02*
X10208663Y-14420496D01*
X10208663Y-14420496D02*
X10208663Y-14439544D01*
X10389615Y-14239544D02*
X10351520Y-14239544D01*
X10351520Y-14239544D02*
X10332473Y-14249068D01*
X10332473Y-14249068D02*
X10322949Y-14258591D01*
X10322949Y-14258591D02*
X10303901Y-14287163D01*
X10303901Y-14287163D02*
X10294377Y-14325258D01*
X10294377Y-14325258D02*
X10294377Y-14401448D01*
X10294377Y-14401448D02*
X10303901Y-14420496D01*
X10303901Y-14420496D02*
X10313425Y-14430020D01*
X10313425Y-14430020D02*
X10332473Y-14439544D01*
X10332473Y-14439544D02*
X10370568Y-14439544D01*
X10370568Y-14439544D02*
X10389615Y-14430020D01*
X10389615Y-14430020D02*
X10399139Y-14420496D01*
X10399139Y-14420496D02*
X10408663Y-14401448D01*
X10408663Y-14401448D02*
X10408663Y-14353829D01*
X10408663Y-14353829D02*
X10399139Y-14334782D01*
X10399139Y-14334782D02*
X10389615Y-14325258D01*
X10389615Y-14325258D02*
X10370568Y-14315734D01*
X10370568Y-14315734D02*
X10332473Y-14315734D01*
X10332473Y-14315734D02*
X10313425Y-14325258D01*
X10313425Y-14325258D02*
X10303901Y-14334782D01*
X10303901Y-14334782D02*
X10294377Y-14353829D01*
X10532473Y-14239544D02*
X10551520Y-14239544D01*
X10551520Y-14239544D02*
X10570568Y-14249068D01*
X10570568Y-14249068D02*
X10580092Y-14258591D01*
X10580092Y-14258591D02*
X10589615Y-14277639D01*
X10589615Y-14277639D02*
X10599139Y-14315734D01*
X10599139Y-14315734D02*
X10599139Y-14363353D01*
X10599139Y-14363353D02*
X10589615Y-14401448D01*
X10589615Y-14401448D02*
X10580092Y-14420496D01*
X10580092Y-14420496D02*
X10570568Y-14430020D01*
X10570568Y-14430020D02*
X10551520Y-14439544D01*
X10551520Y-14439544D02*
X10532473Y-14439544D01*
X10532473Y-14439544D02*
X10513425Y-14430020D01*
X10513425Y-14430020D02*
X10503901Y-14420496D01*
X10503901Y-14420496D02*
X10494377Y-14401448D01*
X10494377Y-14401448D02*
X10484854Y-14363353D01*
X10484854Y-14363353D02*
X10484854Y-14315734D01*
X10484854Y-14315734D02*
X10494377Y-14277639D01*
X10494377Y-14277639D02*
X10503901Y-14258591D01*
X10503901Y-14258591D02*
X10513425Y-14249068D01*
X10513425Y-14249068D02*
X10532473Y-14239544D01*
X10722949Y-14239544D02*
X10741996Y-14239544D01*
X10741996Y-14239544D02*
X10761044Y-14249068D01*
X10761044Y-14249068D02*
X10770568Y-14258591D01*
X10770568Y-14258591D02*
X10780092Y-14277639D01*
X10780092Y-14277639D02*
X10789615Y-14315734D01*
X10789615Y-14315734D02*
X10789615Y-14363353D01*
X10789615Y-14363353D02*
X10780092Y-14401448D01*
X10780092Y-14401448D02*
X10770568Y-14420496D01*
X10770568Y-14420496D02*
X10761044Y-14430020D01*
X10761044Y-14430020D02*
X10741996Y-14439544D01*
X10741996Y-14439544D02*
X10722949Y-14439544D01*
X10722949Y-14439544D02*
X10703901Y-14430020D01*
X10703901Y-14430020D02*
X10694377Y-14420496D01*
X10694377Y-14420496D02*
X10684854Y-14401448D01*
X10684854Y-14401448D02*
X10675330Y-14363353D01*
X10675330Y-14363353D02*
X10675330Y-14315734D01*
X10675330Y-14315734D02*
X10684854Y-14277639D01*
X10684854Y-14277639D02*
X10694377Y-14258591D01*
X10694377Y-14258591D02*
X10703901Y-14249068D01*
X10703901Y-14249068D02*
X10722949Y-14239544D01*
X10875330Y-14439544D02*
X10875330Y-14306210D01*
X10875330Y-14325258D02*
X10884854Y-14315734D01*
X10884854Y-14315734D02*
X10903901Y-14306210D01*
X10903901Y-14306210D02*
X10932473Y-14306210D01*
X10932473Y-14306210D02*
X10951520Y-14315734D01*
X10951520Y-14315734D02*
X10961044Y-14334782D01*
X10961044Y-14334782D02*
X10961044Y-14439544D01*
X10961044Y-14334782D02*
X10970568Y-14315734D01*
X10970568Y-14315734D02*
X10989615Y-14306210D01*
X10989615Y-14306210D02*
X11018187Y-14306210D01*
X11018187Y-14306210D02*
X11037235Y-14315734D01*
X11037235Y-14315734D02*
X11046758Y-14334782D01*
X11046758Y-14334782D02*
X11046758Y-14439544D01*
X11141996Y-14439544D02*
X11141996Y-14306210D01*
X11141996Y-14325258D02*
X11151520Y-14315734D01*
X11151520Y-14315734D02*
X11170568Y-14306210D01*
X11170568Y-14306210D02*
X11199139Y-14306210D01*
X11199139Y-14306210D02*
X11218187Y-14315734D01*
X11218187Y-14315734D02*
X11227711Y-14334782D01*
X11227711Y-14334782D02*
X11227711Y-14439544D01*
X11227711Y-14334782D02*
X11237234Y-14315734D01*
X11237234Y-14315734D02*
X11256282Y-14306210D01*
X11256282Y-14306210D02*
X11284853Y-14306210D01*
X11284853Y-14306210D02*
X11303901Y-14315734D01*
X11303901Y-14315734D02*
X11313425Y-14334782D01*
X11313425Y-14334782D02*
X11313425Y-14439544D01*
X11703901Y-14230020D02*
X11532473Y-14487163D01*
X11961044Y-14239544D02*
X11980092Y-14239544D01*
X11980092Y-14239544D02*
X11999139Y-14249068D01*
X11999139Y-14249068D02*
X12008663Y-14258591D01*
X12008663Y-14258591D02*
X12018187Y-14277639D01*
X12018187Y-14277639D02*
X12027711Y-14315734D01*
X12027711Y-14315734D02*
X12027711Y-14363353D01*
X12027711Y-14363353D02*
X12018187Y-14401448D01*
X12018187Y-14401448D02*
X12008663Y-14420496D01*
X12008663Y-14420496D02*
X11999139Y-14430020D01*
X11999139Y-14430020D02*
X11980092Y-14439544D01*
X11980092Y-14439544D02*
X11961044Y-14439544D01*
X11961044Y-14439544D02*
X11941996Y-14430020D01*
X11941996Y-14430020D02*
X11932473Y-14420496D01*
X11932473Y-14420496D02*
X11922949Y-14401448D01*
X11922949Y-14401448D02*
X11913425Y-14363353D01*
X11913425Y-14363353D02*
X11913425Y-14315734D01*
X11913425Y-14315734D02*
X11922949Y-14277639D01*
X11922949Y-14277639D02*
X11932473Y-14258591D01*
X11932473Y-14258591D02*
X11941996Y-14249068D01*
X11941996Y-14249068D02*
X11961044Y-14239544D01*
X12113425Y-14420496D02*
X12122949Y-14430020D01*
X12122949Y-14430020D02*
X12113425Y-14439544D01*
X12113425Y-14439544D02*
X12103901Y-14430020D01*
X12103901Y-14430020D02*
X12113425Y-14420496D01*
X12113425Y-14420496D02*
X12113425Y-14439544D01*
X12246758Y-14239544D02*
X12265806Y-14239544D01*
X12265806Y-14239544D02*
X12284854Y-14249068D01*
X12284854Y-14249068D02*
X12294377Y-14258591D01*
X12294377Y-14258591D02*
X12303901Y-14277639D01*
X12303901Y-14277639D02*
X12313425Y-14315734D01*
X12313425Y-14315734D02*
X12313425Y-14363353D01*
X12313425Y-14363353D02*
X12303901Y-14401448D01*
X12303901Y-14401448D02*
X12294377Y-14420496D01*
X12294377Y-14420496D02*
X12284854Y-14430020D01*
X12284854Y-14430020D02*
X12265806Y-14439544D01*
X12265806Y-14439544D02*
X12246758Y-14439544D01*
X12246758Y-14439544D02*
X12227711Y-14430020D01*
X12227711Y-14430020D02*
X12218187Y-14420496D01*
X12218187Y-14420496D02*
X12208663Y-14401448D01*
X12208663Y-14401448D02*
X12199139Y-14363353D01*
X12199139Y-14363353D02*
X12199139Y-14315734D01*
X12199139Y-14315734D02*
X12208663Y-14277639D01*
X12208663Y-14277639D02*
X12218187Y-14258591D01*
X12218187Y-14258591D02*
X12227711Y-14249068D01*
X12227711Y-14249068D02*
X12246758Y-14239544D01*
X12389616Y-14258591D02*
X12399139Y-14249068D01*
X12399139Y-14249068D02*
X12418187Y-14239544D01*
X12418187Y-14239544D02*
X12465806Y-14239544D01*
X12465806Y-14239544D02*
X12484854Y-14249068D01*
X12484854Y-14249068D02*
X12494377Y-14258591D01*
X12494377Y-14258591D02*
X12503901Y-14277639D01*
X12503901Y-14277639D02*
X12503901Y-14296687D01*
X12503901Y-14296687D02*
X12494377Y-14325258D01*
X12494377Y-14325258D02*
X12380092Y-14439544D01*
X12380092Y-14439544D02*
X12503901Y-14439544D01*
X12570568Y-14239544D02*
X12694377Y-14239544D01*
X12694377Y-14239544D02*
X12627711Y-14315734D01*
X12627711Y-14315734D02*
X12656282Y-14315734D01*
X12656282Y-14315734D02*
X12675330Y-14325258D01*
X12675330Y-14325258D02*
X12684854Y-14334782D01*
X12684854Y-14334782D02*
X12694377Y-14353829D01*
X12694377Y-14353829D02*
X12694377Y-14401448D01*
X12694377Y-14401448D02*
X12684854Y-14420496D01*
X12684854Y-14420496D02*
X12675330Y-14430020D01*
X12675330Y-14430020D02*
X12656282Y-14439544D01*
X12656282Y-14439544D02*
X12599139Y-14439544D01*
X12599139Y-14439544D02*
X12580092Y-14430020D01*
X12580092Y-14430020D02*
X12570568Y-14420496D01*
X12865806Y-14239544D02*
X12827711Y-14239544D01*
X12827711Y-14239544D02*
X12808663Y-14249068D01*
X12808663Y-14249068D02*
X12799139Y-14258591D01*
X12799139Y-14258591D02*
X12780092Y-14287163D01*
X12780092Y-14287163D02*
X12770568Y-14325258D01*
X12770568Y-14325258D02*
X12770568Y-14401448D01*
X12770568Y-14401448D02*
X12780092Y-14420496D01*
X12780092Y-14420496D02*
X12789616Y-14430020D01*
X12789616Y-14430020D02*
X12808663Y-14439544D01*
X12808663Y-14439544D02*
X12846758Y-14439544D01*
X12846758Y-14439544D02*
X12865806Y-14430020D01*
X12865806Y-14430020D02*
X12875330Y-14420496D01*
X12875330Y-14420496D02*
X12884854Y-14401448D01*
X12884854Y-14401448D02*
X12884854Y-14353829D01*
X12884854Y-14353829D02*
X12875330Y-14334782D01*
X12875330Y-14334782D02*
X12865806Y-14325258D01*
X12865806Y-14325258D02*
X12846758Y-14315734D01*
X12846758Y-14315734D02*
X12808663Y-14315734D01*
X12808663Y-14315734D02*
X12789616Y-14325258D01*
X12789616Y-14325258D02*
X12780092Y-14334782D01*
X12780092Y-14334782D02*
X12770568Y-14353829D01*
X12961044Y-14239544D02*
X12961044Y-14277639D01*
X13037235Y-14239544D02*
X13037235Y-14277639D01*
X13332473Y-14515734D02*
X13322949Y-14506210D01*
X13322949Y-14506210D02*
X13303901Y-14477639D01*
X13303901Y-14477639D02*
X13294378Y-14458591D01*
X13294378Y-14458591D02*
X13284854Y-14430020D01*
X13284854Y-14430020D02*
X13275330Y-14382401D01*
X13275330Y-14382401D02*
X13275330Y-14344306D01*
X13275330Y-14344306D02*
X13284854Y-14296687D01*
X13284854Y-14296687D02*
X13294378Y-14268115D01*
X13294378Y-14268115D02*
X13303901Y-14249068D01*
X13303901Y-14249068D02*
X13322949Y-14220496D01*
X13322949Y-14220496D02*
X13332473Y-14210972D01*
X13446758Y-14239544D02*
X13465806Y-14239544D01*
X13465806Y-14239544D02*
X13484854Y-14249068D01*
X13484854Y-14249068D02*
X13494378Y-14258591D01*
X13494378Y-14258591D02*
X13503901Y-14277639D01*
X13503901Y-14277639D02*
X13513425Y-14315734D01*
X13513425Y-14315734D02*
X13513425Y-14363353D01*
X13513425Y-14363353D02*
X13503901Y-14401448D01*
X13503901Y-14401448D02*
X13494378Y-14420496D01*
X13494378Y-14420496D02*
X13484854Y-14430020D01*
X13484854Y-14430020D02*
X13465806Y-14439544D01*
X13465806Y-14439544D02*
X13446758Y-14439544D01*
X13446758Y-14439544D02*
X13427711Y-14430020D01*
X13427711Y-14430020D02*
X13418187Y-14420496D01*
X13418187Y-14420496D02*
X13408663Y-14401448D01*
X13408663Y-14401448D02*
X13399139Y-14363353D01*
X13399139Y-14363353D02*
X13399139Y-14315734D01*
X13399139Y-14315734D02*
X13408663Y-14277639D01*
X13408663Y-14277639D02*
X13418187Y-14258591D01*
X13418187Y-14258591D02*
X13427711Y-14249068D01*
X13427711Y-14249068D02*
X13446758Y-14239544D01*
X13751520Y-14439544D02*
X13751520Y-14239544D01*
X13837235Y-14439544D02*
X13837235Y-14334782D01*
X13837235Y-14334782D02*
X13827711Y-14315734D01*
X13827711Y-14315734D02*
X13808663Y-14306210D01*
X13808663Y-14306210D02*
X13780092Y-14306210D01*
X13780092Y-14306210D02*
X13761044Y-14315734D01*
X13761044Y-14315734D02*
X13751520Y-14325258D01*
X13961044Y-14439544D02*
X13941997Y-14430020D01*
X13941997Y-14430020D02*
X13932473Y-14420496D01*
X13932473Y-14420496D02*
X13922949Y-14401448D01*
X13922949Y-14401448D02*
X13922949Y-14344306D01*
X13922949Y-14344306D02*
X13932473Y-14325258D01*
X13932473Y-14325258D02*
X13941997Y-14315734D01*
X13941997Y-14315734D02*
X13961044Y-14306210D01*
X13961044Y-14306210D02*
X13989616Y-14306210D01*
X13989616Y-14306210D02*
X14008663Y-14315734D01*
X14008663Y-14315734D02*
X14018187Y-14325258D01*
X14018187Y-14325258D02*
X14027711Y-14344306D01*
X14027711Y-14344306D02*
X14027711Y-14401448D01*
X14027711Y-14401448D02*
X14018187Y-14420496D01*
X14018187Y-14420496D02*
X14008663Y-14430020D01*
X14008663Y-14430020D02*
X13989616Y-14439544D01*
X13989616Y-14439544D02*
X13961044Y-14439544D01*
X14141997Y-14439544D02*
X14122949Y-14430020D01*
X14122949Y-14430020D02*
X14113425Y-14410972D01*
X14113425Y-14410972D02*
X14113425Y-14239544D01*
X14294378Y-14430020D02*
X14275330Y-14439544D01*
X14275330Y-14439544D02*
X14237235Y-14439544D01*
X14237235Y-14439544D02*
X14218187Y-14430020D01*
X14218187Y-14430020D02*
X14208663Y-14410972D01*
X14208663Y-14410972D02*
X14208663Y-14334782D01*
X14208663Y-14334782D02*
X14218187Y-14315734D01*
X14218187Y-14315734D02*
X14237235Y-14306210D01*
X14237235Y-14306210D02*
X14275330Y-14306210D01*
X14275330Y-14306210D02*
X14294378Y-14315734D01*
X14294378Y-14315734D02*
X14303901Y-14334782D01*
X14303901Y-14334782D02*
X14303901Y-14353829D01*
X14303901Y-14353829D02*
X14208663Y-14372877D01*
X14380092Y-14430020D02*
X14399140Y-14439544D01*
X14399140Y-14439544D02*
X14437235Y-14439544D01*
X14437235Y-14439544D02*
X14456282Y-14430020D01*
X14456282Y-14430020D02*
X14465806Y-14410972D01*
X14465806Y-14410972D02*
X14465806Y-14401448D01*
X14465806Y-14401448D02*
X14456282Y-14382401D01*
X14456282Y-14382401D02*
X14437235Y-14372877D01*
X14437235Y-14372877D02*
X14408663Y-14372877D01*
X14408663Y-14372877D02*
X14389616Y-14363353D01*
X14389616Y-14363353D02*
X14380092Y-14344306D01*
X14380092Y-14344306D02*
X14380092Y-14334782D01*
X14380092Y-14334782D02*
X14389616Y-14315734D01*
X14389616Y-14315734D02*
X14408663Y-14306210D01*
X14408663Y-14306210D02*
X14437235Y-14306210D01*
X14437235Y-14306210D02*
X14456282Y-14315734D01*
X14703902Y-14363353D02*
X14856283Y-14363353D01*
X14780092Y-14439544D02*
X14780092Y-14287163D01*
X15189616Y-14306210D02*
X15189616Y-14439544D01*
X15141997Y-14230020D02*
X15094378Y-14372877D01*
X15094378Y-14372877D02*
X15218187Y-14372877D01*
X15437235Y-14430020D02*
X15456283Y-14439544D01*
X15456283Y-14439544D02*
X15494378Y-14439544D01*
X15494378Y-14439544D02*
X15513425Y-14430020D01*
X15513425Y-14430020D02*
X15522949Y-14410972D01*
X15522949Y-14410972D02*
X15522949Y-14401448D01*
X15522949Y-14401448D02*
X15513425Y-14382401D01*
X15513425Y-14382401D02*
X15494378Y-14372877D01*
X15494378Y-14372877D02*
X15465806Y-14372877D01*
X15465806Y-14372877D02*
X15446759Y-14363353D01*
X15446759Y-14363353D02*
X15437235Y-14344306D01*
X15437235Y-14344306D02*
X15437235Y-14334782D01*
X15437235Y-14334782D02*
X15446759Y-14315734D01*
X15446759Y-14315734D02*
X15465806Y-14306210D01*
X15465806Y-14306210D02*
X15494378Y-14306210D01*
X15494378Y-14306210D02*
X15513425Y-14315734D01*
X15637235Y-14439544D02*
X15618187Y-14430020D01*
X15618187Y-14430020D02*
X15608664Y-14410972D01*
X15608664Y-14410972D02*
X15608664Y-14239544D01*
X15741997Y-14439544D02*
X15722949Y-14430020D01*
X15722949Y-14430020D02*
X15713425Y-14420496D01*
X15713425Y-14420496D02*
X15703902Y-14401448D01*
X15703902Y-14401448D02*
X15703902Y-14344306D01*
X15703902Y-14344306D02*
X15713425Y-14325258D01*
X15713425Y-14325258D02*
X15722949Y-14315734D01*
X15722949Y-14315734D02*
X15741997Y-14306210D01*
X15741997Y-14306210D02*
X15770568Y-14306210D01*
X15770568Y-14306210D02*
X15789616Y-14315734D01*
X15789616Y-14315734D02*
X15799140Y-14325258D01*
X15799140Y-14325258D02*
X15808664Y-14344306D01*
X15808664Y-14344306D02*
X15808664Y-14401448D01*
X15808664Y-14401448D02*
X15799140Y-14420496D01*
X15799140Y-14420496D02*
X15789616Y-14430020D01*
X15789616Y-14430020D02*
X15770568Y-14439544D01*
X15770568Y-14439544D02*
X15741997Y-14439544D01*
X15865806Y-14306210D02*
X15941997Y-14306210D01*
X15894378Y-14239544D02*
X15894378Y-14410972D01*
X15894378Y-14410972D02*
X15903902Y-14430020D01*
X15903902Y-14430020D02*
X15922949Y-14439544D01*
X15922949Y-14439544D02*
X15941997Y-14439544D01*
X15999140Y-14430020D02*
X16018187Y-14439544D01*
X16018187Y-14439544D02*
X16056283Y-14439544D01*
X16056283Y-14439544D02*
X16075330Y-14430020D01*
X16075330Y-14430020D02*
X16084854Y-14410972D01*
X16084854Y-14410972D02*
X16084854Y-14401448D01*
X16084854Y-14401448D02*
X16075330Y-14382401D01*
X16075330Y-14382401D02*
X16056283Y-14372877D01*
X16056283Y-14372877D02*
X16027711Y-14372877D01*
X16027711Y-14372877D02*
X16008664Y-14363353D01*
X16008664Y-14363353D02*
X15999140Y-14344306D01*
X15999140Y-14344306D02*
X15999140Y-14334782D01*
X15999140Y-14334782D02*
X16008664Y-14315734D01*
X16008664Y-14315734D02*
X16027711Y-14306210D01*
X16027711Y-14306210D02*
X16056283Y-14306210D01*
X16056283Y-14306210D02*
X16075330Y-14315734D01*
X16151521Y-14515734D02*
X16161045Y-14506210D01*
X16161045Y-14506210D02*
X16180092Y-14477639D01*
X16180092Y-14477639D02*
X16189616Y-14458591D01*
X16189616Y-14458591D02*
X16199140Y-14430020D01*
X16199140Y-14430020D02*
X16208664Y-14382401D01*
X16208664Y-14382401D02*
X16208664Y-14344306D01*
X16208664Y-14344306D02*
X16199140Y-14296687D01*
X16199140Y-14296687D02*
X16189616Y-14268115D01*
X16189616Y-14268115D02*
X16180092Y-14249068D01*
X16180092Y-14249068D02*
X16161045Y-14220496D01*
X16161045Y-14220496D02*
X16151521Y-14210972D01*
D13*
X9748483Y-14633613D02*
X9748483Y-14590507D01*
X9705377Y-14590507D01*
X9705377Y-14633613D01*
X9748483Y-14633613D01*
D12*
X10056282Y-14503544D02*
X10075330Y-14503544D01*
X10075330Y-14503544D02*
X10094377Y-14513068D01*
X10094377Y-14513068D02*
X10103901Y-14522591D01*
X10103901Y-14522591D02*
X10113425Y-14541639D01*
X10113425Y-14541639D02*
X10122949Y-14579734D01*
X10122949Y-14579734D02*
X10122949Y-14627353D01*
X10122949Y-14627353D02*
X10113425Y-14665448D01*
X10113425Y-14665448D02*
X10103901Y-14684496D01*
X10103901Y-14684496D02*
X10094377Y-14694020D01*
X10094377Y-14694020D02*
X10075330Y-14703544D01*
X10075330Y-14703544D02*
X10056282Y-14703544D01*
X10056282Y-14703544D02*
X10037234Y-14694020D01*
X10037234Y-14694020D02*
X10027711Y-14684496D01*
X10027711Y-14684496D02*
X10018187Y-14665448D01*
X10018187Y-14665448D02*
X10008663Y-14627353D01*
X10008663Y-14627353D02*
X10008663Y-14579734D01*
X10008663Y-14579734D02*
X10018187Y-14541639D01*
X10018187Y-14541639D02*
X10027711Y-14522591D01*
X10027711Y-14522591D02*
X10037234Y-14513068D01*
X10037234Y-14513068D02*
X10056282Y-14503544D01*
X10208663Y-14684496D02*
X10218187Y-14694020D01*
X10218187Y-14694020D02*
X10208663Y-14703544D01*
X10208663Y-14703544D02*
X10199139Y-14694020D01*
X10199139Y-14694020D02*
X10208663Y-14684496D01*
X10208663Y-14684496D02*
X10208663Y-14703544D01*
X10389615Y-14503544D02*
X10351520Y-14503544D01*
X10351520Y-14503544D02*
X10332473Y-14513068D01*
X10332473Y-14513068D02*
X10322949Y-14522591D01*
X10322949Y-14522591D02*
X10303901Y-14551163D01*
X10303901Y-14551163D02*
X10294377Y-14589258D01*
X10294377Y-14589258D02*
X10294377Y-14665448D01*
X10294377Y-14665448D02*
X10303901Y-14684496D01*
X10303901Y-14684496D02*
X10313425Y-14694020D01*
X10313425Y-14694020D02*
X10332473Y-14703544D01*
X10332473Y-14703544D02*
X10370568Y-14703544D01*
X10370568Y-14703544D02*
X10389615Y-14694020D01*
X10389615Y-14694020D02*
X10399139Y-14684496D01*
X10399139Y-14684496D02*
X10408663Y-14665448D01*
X10408663Y-14665448D02*
X10408663Y-14617829D01*
X10408663Y-14617829D02*
X10399139Y-14598782D01*
X10399139Y-14598782D02*
X10389615Y-14589258D01*
X10389615Y-14589258D02*
X10370568Y-14579734D01*
X10370568Y-14579734D02*
X10332473Y-14579734D01*
X10332473Y-14579734D02*
X10313425Y-14589258D01*
X10313425Y-14589258D02*
X10303901Y-14598782D01*
X10303901Y-14598782D02*
X10294377Y-14617829D01*
X10599139Y-14703544D02*
X10484854Y-14703544D01*
X10541996Y-14703544D02*
X10541996Y-14503544D01*
X10541996Y-14503544D02*
X10522949Y-14532115D01*
X10522949Y-14532115D02*
X10503901Y-14551163D01*
X10503901Y-14551163D02*
X10484854Y-14560687D01*
X10722949Y-14503544D02*
X10741996Y-14503544D01*
X10741996Y-14503544D02*
X10761044Y-14513068D01*
X10761044Y-14513068D02*
X10770568Y-14522591D01*
X10770568Y-14522591D02*
X10780092Y-14541639D01*
X10780092Y-14541639D02*
X10789615Y-14579734D01*
X10789615Y-14579734D02*
X10789615Y-14627353D01*
X10789615Y-14627353D02*
X10780092Y-14665448D01*
X10780092Y-14665448D02*
X10770568Y-14684496D01*
X10770568Y-14684496D02*
X10761044Y-14694020D01*
X10761044Y-14694020D02*
X10741996Y-14703544D01*
X10741996Y-14703544D02*
X10722949Y-14703544D01*
X10722949Y-14703544D02*
X10703901Y-14694020D01*
X10703901Y-14694020D02*
X10694377Y-14684496D01*
X10694377Y-14684496D02*
X10684854Y-14665448D01*
X10684854Y-14665448D02*
X10675330Y-14627353D01*
X10675330Y-14627353D02*
X10675330Y-14579734D01*
X10675330Y-14579734D02*
X10684854Y-14541639D01*
X10684854Y-14541639D02*
X10694377Y-14522591D01*
X10694377Y-14522591D02*
X10703901Y-14513068D01*
X10703901Y-14513068D02*
X10722949Y-14503544D01*
X10875330Y-14703544D02*
X10875330Y-14570210D01*
X10875330Y-14589258D02*
X10884854Y-14579734D01*
X10884854Y-14579734D02*
X10903901Y-14570210D01*
X10903901Y-14570210D02*
X10932473Y-14570210D01*
X10932473Y-14570210D02*
X10951520Y-14579734D01*
X10951520Y-14579734D02*
X10961044Y-14598782D01*
X10961044Y-14598782D02*
X10961044Y-14703544D01*
X10961044Y-14598782D02*
X10970568Y-14579734D01*
X10970568Y-14579734D02*
X10989615Y-14570210D01*
X10989615Y-14570210D02*
X11018187Y-14570210D01*
X11018187Y-14570210D02*
X11037235Y-14579734D01*
X11037235Y-14579734D02*
X11046758Y-14598782D01*
X11046758Y-14598782D02*
X11046758Y-14703544D01*
X11141996Y-14703544D02*
X11141996Y-14570210D01*
X11141996Y-14589258D02*
X11151520Y-14579734D01*
X11151520Y-14579734D02*
X11170568Y-14570210D01*
X11170568Y-14570210D02*
X11199139Y-14570210D01*
X11199139Y-14570210D02*
X11218187Y-14579734D01*
X11218187Y-14579734D02*
X11227711Y-14598782D01*
X11227711Y-14598782D02*
X11227711Y-14703544D01*
X11227711Y-14598782D02*
X11237234Y-14579734D01*
X11237234Y-14579734D02*
X11256282Y-14570210D01*
X11256282Y-14570210D02*
X11284853Y-14570210D01*
X11284853Y-14570210D02*
X11303901Y-14579734D01*
X11303901Y-14579734D02*
X11313425Y-14598782D01*
X11313425Y-14598782D02*
X11313425Y-14703544D01*
X11703901Y-14494020D02*
X11532473Y-14751163D01*
X11961044Y-14503544D02*
X11980092Y-14503544D01*
X11980092Y-14503544D02*
X11999139Y-14513068D01*
X11999139Y-14513068D02*
X12008663Y-14522591D01*
X12008663Y-14522591D02*
X12018187Y-14541639D01*
X12018187Y-14541639D02*
X12027711Y-14579734D01*
X12027711Y-14579734D02*
X12027711Y-14627353D01*
X12027711Y-14627353D02*
X12018187Y-14665448D01*
X12018187Y-14665448D02*
X12008663Y-14684496D01*
X12008663Y-14684496D02*
X11999139Y-14694020D01*
X11999139Y-14694020D02*
X11980092Y-14703544D01*
X11980092Y-14703544D02*
X11961044Y-14703544D01*
X11961044Y-14703544D02*
X11941996Y-14694020D01*
X11941996Y-14694020D02*
X11932473Y-14684496D01*
X11932473Y-14684496D02*
X11922949Y-14665448D01*
X11922949Y-14665448D02*
X11913425Y-14627353D01*
X11913425Y-14627353D02*
X11913425Y-14579734D01*
X11913425Y-14579734D02*
X11922949Y-14541639D01*
X11922949Y-14541639D02*
X11932473Y-14522591D01*
X11932473Y-14522591D02*
X11941996Y-14513068D01*
X11941996Y-14513068D02*
X11961044Y-14503544D01*
X12113425Y-14684496D02*
X12122949Y-14694020D01*
X12122949Y-14694020D02*
X12113425Y-14703544D01*
X12113425Y-14703544D02*
X12103901Y-14694020D01*
X12103901Y-14694020D02*
X12113425Y-14684496D01*
X12113425Y-14684496D02*
X12113425Y-14703544D01*
X12246758Y-14503544D02*
X12265806Y-14503544D01*
X12265806Y-14503544D02*
X12284854Y-14513068D01*
X12284854Y-14513068D02*
X12294377Y-14522591D01*
X12294377Y-14522591D02*
X12303901Y-14541639D01*
X12303901Y-14541639D02*
X12313425Y-14579734D01*
X12313425Y-14579734D02*
X12313425Y-14627353D01*
X12313425Y-14627353D02*
X12303901Y-14665448D01*
X12303901Y-14665448D02*
X12294377Y-14684496D01*
X12294377Y-14684496D02*
X12284854Y-14694020D01*
X12284854Y-14694020D02*
X12265806Y-14703544D01*
X12265806Y-14703544D02*
X12246758Y-14703544D01*
X12246758Y-14703544D02*
X12227711Y-14694020D01*
X12227711Y-14694020D02*
X12218187Y-14684496D01*
X12218187Y-14684496D02*
X12208663Y-14665448D01*
X12208663Y-14665448D02*
X12199139Y-14627353D01*
X12199139Y-14627353D02*
X12199139Y-14579734D01*
X12199139Y-14579734D02*
X12208663Y-14541639D01*
X12208663Y-14541639D02*
X12218187Y-14522591D01*
X12218187Y-14522591D02*
X12227711Y-14513068D01*
X12227711Y-14513068D02*
X12246758Y-14503544D01*
X12389616Y-14522591D02*
X12399139Y-14513068D01*
X12399139Y-14513068D02*
X12418187Y-14503544D01*
X12418187Y-14503544D02*
X12465806Y-14503544D01*
X12465806Y-14503544D02*
X12484854Y-14513068D01*
X12484854Y-14513068D02*
X12494377Y-14522591D01*
X12494377Y-14522591D02*
X12503901Y-14541639D01*
X12503901Y-14541639D02*
X12503901Y-14560687D01*
X12503901Y-14560687D02*
X12494377Y-14589258D01*
X12494377Y-14589258D02*
X12380092Y-14703544D01*
X12380092Y-14703544D02*
X12503901Y-14703544D01*
X12675330Y-14570210D02*
X12675330Y-14703544D01*
X12627711Y-14494020D02*
X12580092Y-14636877D01*
X12580092Y-14636877D02*
X12703901Y-14636877D01*
X12818187Y-14503544D02*
X12837235Y-14503544D01*
X12837235Y-14503544D02*
X12856282Y-14513068D01*
X12856282Y-14513068D02*
X12865806Y-14522591D01*
X12865806Y-14522591D02*
X12875330Y-14541639D01*
X12875330Y-14541639D02*
X12884854Y-14579734D01*
X12884854Y-14579734D02*
X12884854Y-14627353D01*
X12884854Y-14627353D02*
X12875330Y-14665448D01*
X12875330Y-14665448D02*
X12865806Y-14684496D01*
X12865806Y-14684496D02*
X12856282Y-14694020D01*
X12856282Y-14694020D02*
X12837235Y-14703544D01*
X12837235Y-14703544D02*
X12818187Y-14703544D01*
X12818187Y-14703544D02*
X12799139Y-14694020D01*
X12799139Y-14694020D02*
X12789616Y-14684496D01*
X12789616Y-14684496D02*
X12780092Y-14665448D01*
X12780092Y-14665448D02*
X12770568Y-14627353D01*
X12770568Y-14627353D02*
X12770568Y-14579734D01*
X12770568Y-14579734D02*
X12780092Y-14541639D01*
X12780092Y-14541639D02*
X12789616Y-14522591D01*
X12789616Y-14522591D02*
X12799139Y-14513068D01*
X12799139Y-14513068D02*
X12818187Y-14503544D01*
X12961044Y-14503544D02*
X12961044Y-14541639D01*
X13037235Y-14503544D02*
X13037235Y-14541639D01*
X13332473Y-14779734D02*
X13322949Y-14770210D01*
X13322949Y-14770210D02*
X13303901Y-14741639D01*
X13303901Y-14741639D02*
X13294378Y-14722591D01*
X13294378Y-14722591D02*
X13284854Y-14694020D01*
X13284854Y-14694020D02*
X13275330Y-14646401D01*
X13275330Y-14646401D02*
X13275330Y-14608306D01*
X13275330Y-14608306D02*
X13284854Y-14560687D01*
X13284854Y-14560687D02*
X13294378Y-14532115D01*
X13294378Y-14532115D02*
X13303901Y-14513068D01*
X13303901Y-14513068D02*
X13322949Y-14484496D01*
X13322949Y-14484496D02*
X13332473Y-14474972D01*
X13494378Y-14570210D02*
X13494378Y-14703544D01*
X13446758Y-14494020D02*
X13399139Y-14636877D01*
X13399139Y-14636877D02*
X13522949Y-14636877D01*
X13684854Y-14503544D02*
X13646758Y-14503544D01*
X13646758Y-14503544D02*
X13627711Y-14513068D01*
X13627711Y-14513068D02*
X13618187Y-14522591D01*
X13618187Y-14522591D02*
X13599139Y-14551163D01*
X13599139Y-14551163D02*
X13589616Y-14589258D01*
X13589616Y-14589258D02*
X13589616Y-14665448D01*
X13589616Y-14665448D02*
X13599139Y-14684496D01*
X13599139Y-14684496D02*
X13608663Y-14694020D01*
X13608663Y-14694020D02*
X13627711Y-14703544D01*
X13627711Y-14703544D02*
X13665806Y-14703544D01*
X13665806Y-14703544D02*
X13684854Y-14694020D01*
X13684854Y-14694020D02*
X13694378Y-14684496D01*
X13694378Y-14684496D02*
X13703901Y-14665448D01*
X13703901Y-14665448D02*
X13703901Y-14617829D01*
X13703901Y-14617829D02*
X13694378Y-14598782D01*
X13694378Y-14598782D02*
X13684854Y-14589258D01*
X13684854Y-14589258D02*
X13665806Y-14579734D01*
X13665806Y-14579734D02*
X13627711Y-14579734D01*
X13627711Y-14579734D02*
X13608663Y-14589258D01*
X13608663Y-14589258D02*
X13599139Y-14598782D01*
X13599139Y-14598782D02*
X13589616Y-14617829D01*
X13941997Y-14703544D02*
X13941997Y-14503544D01*
X14027711Y-14703544D02*
X14027711Y-14598782D01*
X14027711Y-14598782D02*
X14018187Y-14579734D01*
X14018187Y-14579734D02*
X13999140Y-14570210D01*
X13999140Y-14570210D02*
X13970568Y-14570210D01*
X13970568Y-14570210D02*
X13951520Y-14579734D01*
X13951520Y-14579734D02*
X13941997Y-14589258D01*
X14151520Y-14703544D02*
X14132473Y-14694020D01*
X14132473Y-14694020D02*
X14122949Y-14684496D01*
X14122949Y-14684496D02*
X14113425Y-14665448D01*
X14113425Y-14665448D02*
X14113425Y-14608306D01*
X14113425Y-14608306D02*
X14122949Y-14589258D01*
X14122949Y-14589258D02*
X14132473Y-14579734D01*
X14132473Y-14579734D02*
X14151520Y-14570210D01*
X14151520Y-14570210D02*
X14180092Y-14570210D01*
X14180092Y-14570210D02*
X14199140Y-14579734D01*
X14199140Y-14579734D02*
X14208663Y-14589258D01*
X14208663Y-14589258D02*
X14218187Y-14608306D01*
X14218187Y-14608306D02*
X14218187Y-14665448D01*
X14218187Y-14665448D02*
X14208663Y-14684496D01*
X14208663Y-14684496D02*
X14199140Y-14694020D01*
X14199140Y-14694020D02*
X14180092Y-14703544D01*
X14180092Y-14703544D02*
X14151520Y-14703544D01*
X14332473Y-14703544D02*
X14313425Y-14694020D01*
X14313425Y-14694020D02*
X14303901Y-14674972D01*
X14303901Y-14674972D02*
X14303901Y-14503544D01*
X14484854Y-14694020D02*
X14465806Y-14703544D01*
X14465806Y-14703544D02*
X14427711Y-14703544D01*
X14427711Y-14703544D02*
X14408663Y-14694020D01*
X14408663Y-14694020D02*
X14399140Y-14674972D01*
X14399140Y-14674972D02*
X14399140Y-14598782D01*
X14399140Y-14598782D02*
X14408663Y-14579734D01*
X14408663Y-14579734D02*
X14427711Y-14570210D01*
X14427711Y-14570210D02*
X14465806Y-14570210D01*
X14465806Y-14570210D02*
X14484854Y-14579734D01*
X14484854Y-14579734D02*
X14494378Y-14598782D01*
X14494378Y-14598782D02*
X14494378Y-14617829D01*
X14494378Y-14617829D02*
X14399140Y-14636877D01*
X14570568Y-14694020D02*
X14589616Y-14703544D01*
X14589616Y-14703544D02*
X14627711Y-14703544D01*
X14627711Y-14703544D02*
X14646759Y-14694020D01*
X14646759Y-14694020D02*
X14656282Y-14674972D01*
X14656282Y-14674972D02*
X14656282Y-14665448D01*
X14656282Y-14665448D02*
X14646759Y-14646401D01*
X14646759Y-14646401D02*
X14627711Y-14636877D01*
X14627711Y-14636877D02*
X14599140Y-14636877D01*
X14599140Y-14636877D02*
X14580092Y-14627353D01*
X14580092Y-14627353D02*
X14570568Y-14608306D01*
X14570568Y-14608306D02*
X14570568Y-14598782D01*
X14570568Y-14598782D02*
X14580092Y-14579734D01*
X14580092Y-14579734D02*
X14599140Y-14570210D01*
X14599140Y-14570210D02*
X14627711Y-14570210D01*
X14627711Y-14570210D02*
X14646759Y-14579734D01*
X14722949Y-14779734D02*
X14732473Y-14770210D01*
X14732473Y-14770210D02*
X14751521Y-14741639D01*
X14751521Y-14741639D02*
X14761044Y-14722591D01*
X14761044Y-14722591D02*
X14770568Y-14694020D01*
X14770568Y-14694020D02*
X14780092Y-14646401D01*
X14780092Y-14646401D02*
X14780092Y-14608306D01*
X14780092Y-14608306D02*
X14770568Y-14560687D01*
X14770568Y-14560687D02*
X14761044Y-14532115D01*
X14761044Y-14532115D02*
X14751521Y-14513068D01*
X14751521Y-14513068D02*
X14732473Y-14484496D01*
X14732473Y-14484496D02*
X14722949Y-14474972D01*
D13*
X9717410Y-14916060D02*
X9757410Y-14876060D01*
X9717410Y-14836060D01*
X9677410Y-14876060D01*
X9717410Y-14916060D01*
D12*
X10056282Y-14767544D02*
X10075330Y-14767544D01*
X10075330Y-14767544D02*
X10094377Y-14777068D01*
X10094377Y-14777068D02*
X10103901Y-14786591D01*
X10103901Y-14786591D02*
X10113425Y-14805639D01*
X10113425Y-14805639D02*
X10122949Y-14843734D01*
X10122949Y-14843734D02*
X10122949Y-14891353D01*
X10122949Y-14891353D02*
X10113425Y-14929448D01*
X10113425Y-14929448D02*
X10103901Y-14948496D01*
X10103901Y-14948496D02*
X10094377Y-14958020D01*
X10094377Y-14958020D02*
X10075330Y-14967544D01*
X10075330Y-14967544D02*
X10056282Y-14967544D01*
X10056282Y-14967544D02*
X10037234Y-14958020D01*
X10037234Y-14958020D02*
X10027711Y-14948496D01*
X10027711Y-14948496D02*
X10018187Y-14929448D01*
X10018187Y-14929448D02*
X10008663Y-14891353D01*
X10008663Y-14891353D02*
X10008663Y-14843734D01*
X10008663Y-14843734D02*
X10018187Y-14805639D01*
X10018187Y-14805639D02*
X10027711Y-14786591D01*
X10027711Y-14786591D02*
X10037234Y-14777068D01*
X10037234Y-14777068D02*
X10056282Y-14767544D01*
X10208663Y-14948496D02*
X10218187Y-14958020D01*
X10218187Y-14958020D02*
X10208663Y-14967544D01*
X10208663Y-14967544D02*
X10199139Y-14958020D01*
X10199139Y-14958020D02*
X10208663Y-14948496D01*
X10208663Y-14948496D02*
X10208663Y-14967544D01*
X10332473Y-14853258D02*
X10313425Y-14843734D01*
X10313425Y-14843734D02*
X10303901Y-14834210D01*
X10303901Y-14834210D02*
X10294377Y-14815163D01*
X10294377Y-14815163D02*
X10294377Y-14805639D01*
X10294377Y-14805639D02*
X10303901Y-14786591D01*
X10303901Y-14786591D02*
X10313425Y-14777068D01*
X10313425Y-14777068D02*
X10332473Y-14767544D01*
X10332473Y-14767544D02*
X10370568Y-14767544D01*
X10370568Y-14767544D02*
X10389615Y-14777068D01*
X10389615Y-14777068D02*
X10399139Y-14786591D01*
X10399139Y-14786591D02*
X10408663Y-14805639D01*
X10408663Y-14805639D02*
X10408663Y-14815163D01*
X10408663Y-14815163D02*
X10399139Y-14834210D01*
X10399139Y-14834210D02*
X10389615Y-14843734D01*
X10389615Y-14843734D02*
X10370568Y-14853258D01*
X10370568Y-14853258D02*
X10332473Y-14853258D01*
X10332473Y-14853258D02*
X10313425Y-14862782D01*
X10313425Y-14862782D02*
X10303901Y-14872306D01*
X10303901Y-14872306D02*
X10294377Y-14891353D01*
X10294377Y-14891353D02*
X10294377Y-14929448D01*
X10294377Y-14929448D02*
X10303901Y-14948496D01*
X10303901Y-14948496D02*
X10313425Y-14958020D01*
X10313425Y-14958020D02*
X10332473Y-14967544D01*
X10332473Y-14967544D02*
X10370568Y-14967544D01*
X10370568Y-14967544D02*
X10389615Y-14958020D01*
X10389615Y-14958020D02*
X10399139Y-14948496D01*
X10399139Y-14948496D02*
X10408663Y-14929448D01*
X10408663Y-14929448D02*
X10408663Y-14891353D01*
X10408663Y-14891353D02*
X10399139Y-14872306D01*
X10399139Y-14872306D02*
X10389615Y-14862782D01*
X10389615Y-14862782D02*
X10370568Y-14853258D01*
X10532473Y-14767544D02*
X10551520Y-14767544D01*
X10551520Y-14767544D02*
X10570568Y-14777068D01*
X10570568Y-14777068D02*
X10580092Y-14786591D01*
X10580092Y-14786591D02*
X10589615Y-14805639D01*
X10589615Y-14805639D02*
X10599139Y-14843734D01*
X10599139Y-14843734D02*
X10599139Y-14891353D01*
X10599139Y-14891353D02*
X10589615Y-14929448D01*
X10589615Y-14929448D02*
X10580092Y-14948496D01*
X10580092Y-14948496D02*
X10570568Y-14958020D01*
X10570568Y-14958020D02*
X10551520Y-14967544D01*
X10551520Y-14967544D02*
X10532473Y-14967544D01*
X10532473Y-14967544D02*
X10513425Y-14958020D01*
X10513425Y-14958020D02*
X10503901Y-14948496D01*
X10503901Y-14948496D02*
X10494377Y-14929448D01*
X10494377Y-14929448D02*
X10484854Y-14891353D01*
X10484854Y-14891353D02*
X10484854Y-14843734D01*
X10484854Y-14843734D02*
X10494377Y-14805639D01*
X10494377Y-14805639D02*
X10503901Y-14786591D01*
X10503901Y-14786591D02*
X10513425Y-14777068D01*
X10513425Y-14777068D02*
X10532473Y-14767544D01*
X10722949Y-14767544D02*
X10741996Y-14767544D01*
X10741996Y-14767544D02*
X10761044Y-14777068D01*
X10761044Y-14777068D02*
X10770568Y-14786591D01*
X10770568Y-14786591D02*
X10780092Y-14805639D01*
X10780092Y-14805639D02*
X10789615Y-14843734D01*
X10789615Y-14843734D02*
X10789615Y-14891353D01*
X10789615Y-14891353D02*
X10780092Y-14929448D01*
X10780092Y-14929448D02*
X10770568Y-14948496D01*
X10770568Y-14948496D02*
X10761044Y-14958020D01*
X10761044Y-14958020D02*
X10741996Y-14967544D01*
X10741996Y-14967544D02*
X10722949Y-14967544D01*
X10722949Y-14967544D02*
X10703901Y-14958020D01*
X10703901Y-14958020D02*
X10694377Y-14948496D01*
X10694377Y-14948496D02*
X10684854Y-14929448D01*
X10684854Y-14929448D02*
X10675330Y-14891353D01*
X10675330Y-14891353D02*
X10675330Y-14843734D01*
X10675330Y-14843734D02*
X10684854Y-14805639D01*
X10684854Y-14805639D02*
X10694377Y-14786591D01*
X10694377Y-14786591D02*
X10703901Y-14777068D01*
X10703901Y-14777068D02*
X10722949Y-14767544D01*
X10875330Y-14967544D02*
X10875330Y-14834210D01*
X10875330Y-14853258D02*
X10884854Y-14843734D01*
X10884854Y-14843734D02*
X10903901Y-14834210D01*
X10903901Y-14834210D02*
X10932473Y-14834210D01*
X10932473Y-14834210D02*
X10951520Y-14843734D01*
X10951520Y-14843734D02*
X10961044Y-14862782D01*
X10961044Y-14862782D02*
X10961044Y-14967544D01*
X10961044Y-14862782D02*
X10970568Y-14843734D01*
X10970568Y-14843734D02*
X10989615Y-14834210D01*
X10989615Y-14834210D02*
X11018187Y-14834210D01*
X11018187Y-14834210D02*
X11037235Y-14843734D01*
X11037235Y-14843734D02*
X11046758Y-14862782D01*
X11046758Y-14862782D02*
X11046758Y-14967544D01*
X11141996Y-14967544D02*
X11141996Y-14834210D01*
X11141996Y-14853258D02*
X11151520Y-14843734D01*
X11151520Y-14843734D02*
X11170568Y-14834210D01*
X11170568Y-14834210D02*
X11199139Y-14834210D01*
X11199139Y-14834210D02*
X11218187Y-14843734D01*
X11218187Y-14843734D02*
X11227711Y-14862782D01*
X11227711Y-14862782D02*
X11227711Y-14967544D01*
X11227711Y-14862782D02*
X11237234Y-14843734D01*
X11237234Y-14843734D02*
X11256282Y-14834210D01*
X11256282Y-14834210D02*
X11284853Y-14834210D01*
X11284853Y-14834210D02*
X11303901Y-14843734D01*
X11303901Y-14843734D02*
X11313425Y-14862782D01*
X11313425Y-14862782D02*
X11313425Y-14967544D01*
X11703901Y-14758020D02*
X11532473Y-15015163D01*
X11961044Y-14767544D02*
X11980092Y-14767544D01*
X11980092Y-14767544D02*
X11999139Y-14777068D01*
X11999139Y-14777068D02*
X12008663Y-14786591D01*
X12008663Y-14786591D02*
X12018187Y-14805639D01*
X12018187Y-14805639D02*
X12027711Y-14843734D01*
X12027711Y-14843734D02*
X12027711Y-14891353D01*
X12027711Y-14891353D02*
X12018187Y-14929448D01*
X12018187Y-14929448D02*
X12008663Y-14948496D01*
X12008663Y-14948496D02*
X11999139Y-14958020D01*
X11999139Y-14958020D02*
X11980092Y-14967544D01*
X11980092Y-14967544D02*
X11961044Y-14967544D01*
X11961044Y-14967544D02*
X11941996Y-14958020D01*
X11941996Y-14958020D02*
X11932473Y-14948496D01*
X11932473Y-14948496D02*
X11922949Y-14929448D01*
X11922949Y-14929448D02*
X11913425Y-14891353D01*
X11913425Y-14891353D02*
X11913425Y-14843734D01*
X11913425Y-14843734D02*
X11922949Y-14805639D01*
X11922949Y-14805639D02*
X11932473Y-14786591D01*
X11932473Y-14786591D02*
X11941996Y-14777068D01*
X11941996Y-14777068D02*
X11961044Y-14767544D01*
X12113425Y-14948496D02*
X12122949Y-14958020D01*
X12122949Y-14958020D02*
X12113425Y-14967544D01*
X12113425Y-14967544D02*
X12103901Y-14958020D01*
X12103901Y-14958020D02*
X12113425Y-14948496D01*
X12113425Y-14948496D02*
X12113425Y-14967544D01*
X12246758Y-14767544D02*
X12265806Y-14767544D01*
X12265806Y-14767544D02*
X12284854Y-14777068D01*
X12284854Y-14777068D02*
X12294377Y-14786591D01*
X12294377Y-14786591D02*
X12303901Y-14805639D01*
X12303901Y-14805639D02*
X12313425Y-14843734D01*
X12313425Y-14843734D02*
X12313425Y-14891353D01*
X12313425Y-14891353D02*
X12303901Y-14929448D01*
X12303901Y-14929448D02*
X12294377Y-14948496D01*
X12294377Y-14948496D02*
X12284854Y-14958020D01*
X12284854Y-14958020D02*
X12265806Y-14967544D01*
X12265806Y-14967544D02*
X12246758Y-14967544D01*
X12246758Y-14967544D02*
X12227711Y-14958020D01*
X12227711Y-14958020D02*
X12218187Y-14948496D01*
X12218187Y-14948496D02*
X12208663Y-14929448D01*
X12208663Y-14929448D02*
X12199139Y-14891353D01*
X12199139Y-14891353D02*
X12199139Y-14843734D01*
X12199139Y-14843734D02*
X12208663Y-14805639D01*
X12208663Y-14805639D02*
X12218187Y-14786591D01*
X12218187Y-14786591D02*
X12227711Y-14777068D01*
X12227711Y-14777068D02*
X12246758Y-14767544D01*
X12380092Y-14767544D02*
X12503901Y-14767544D01*
X12503901Y-14767544D02*
X12437235Y-14843734D01*
X12437235Y-14843734D02*
X12465806Y-14843734D01*
X12465806Y-14843734D02*
X12484854Y-14853258D01*
X12484854Y-14853258D02*
X12494377Y-14862782D01*
X12494377Y-14862782D02*
X12503901Y-14881829D01*
X12503901Y-14881829D02*
X12503901Y-14929448D01*
X12503901Y-14929448D02*
X12494377Y-14948496D01*
X12494377Y-14948496D02*
X12484854Y-14958020D01*
X12484854Y-14958020D02*
X12465806Y-14967544D01*
X12465806Y-14967544D02*
X12408663Y-14967544D01*
X12408663Y-14967544D02*
X12389616Y-14958020D01*
X12389616Y-14958020D02*
X12380092Y-14948496D01*
X12694377Y-14967544D02*
X12580092Y-14967544D01*
X12637235Y-14967544D02*
X12637235Y-14767544D01*
X12637235Y-14767544D02*
X12618187Y-14796115D01*
X12618187Y-14796115D02*
X12599139Y-14815163D01*
X12599139Y-14815163D02*
X12580092Y-14824687D01*
X12875330Y-14767544D02*
X12780092Y-14767544D01*
X12780092Y-14767544D02*
X12770568Y-14862782D01*
X12770568Y-14862782D02*
X12780092Y-14853258D01*
X12780092Y-14853258D02*
X12799139Y-14843734D01*
X12799139Y-14843734D02*
X12846758Y-14843734D01*
X12846758Y-14843734D02*
X12865806Y-14853258D01*
X12865806Y-14853258D02*
X12875330Y-14862782D01*
X12875330Y-14862782D02*
X12884854Y-14881829D01*
X12884854Y-14881829D02*
X12884854Y-14929448D01*
X12884854Y-14929448D02*
X12875330Y-14948496D01*
X12875330Y-14948496D02*
X12865806Y-14958020D01*
X12865806Y-14958020D02*
X12846758Y-14967544D01*
X12846758Y-14967544D02*
X12799139Y-14967544D01*
X12799139Y-14967544D02*
X12780092Y-14958020D01*
X12780092Y-14958020D02*
X12770568Y-14948496D01*
X12961044Y-14767544D02*
X12961044Y-14805639D01*
X13037235Y-14767544D02*
X13037235Y-14805639D01*
X13332473Y-15043734D02*
X13322949Y-15034210D01*
X13322949Y-15034210D02*
X13303901Y-15005639D01*
X13303901Y-15005639D02*
X13294378Y-14986591D01*
X13294378Y-14986591D02*
X13284854Y-14958020D01*
X13284854Y-14958020D02*
X13275330Y-14910401D01*
X13275330Y-14910401D02*
X13275330Y-14872306D01*
X13275330Y-14872306D02*
X13284854Y-14824687D01*
X13284854Y-14824687D02*
X13294378Y-14796115D01*
X13294378Y-14796115D02*
X13303901Y-14777068D01*
X13303901Y-14777068D02*
X13322949Y-14748496D01*
X13322949Y-14748496D02*
X13332473Y-14738972D01*
X13399139Y-14786591D02*
X13408663Y-14777068D01*
X13408663Y-14777068D02*
X13427711Y-14767544D01*
X13427711Y-14767544D02*
X13475330Y-14767544D01*
X13475330Y-14767544D02*
X13494378Y-14777068D01*
X13494378Y-14777068D02*
X13503901Y-14786591D01*
X13503901Y-14786591D02*
X13513425Y-14805639D01*
X13513425Y-14805639D02*
X13513425Y-14824687D01*
X13513425Y-14824687D02*
X13503901Y-14853258D01*
X13503901Y-14853258D02*
X13389616Y-14967544D01*
X13389616Y-14967544D02*
X13513425Y-14967544D01*
X13751520Y-14967544D02*
X13751520Y-14767544D01*
X13837235Y-14967544D02*
X13837235Y-14862782D01*
X13837235Y-14862782D02*
X13827711Y-14843734D01*
X13827711Y-14843734D02*
X13808663Y-14834210D01*
X13808663Y-14834210D02*
X13780092Y-14834210D01*
X13780092Y-14834210D02*
X13761044Y-14843734D01*
X13761044Y-14843734D02*
X13751520Y-14853258D01*
X13961044Y-14967544D02*
X13941997Y-14958020D01*
X13941997Y-14958020D02*
X13932473Y-14948496D01*
X13932473Y-14948496D02*
X13922949Y-14929448D01*
X13922949Y-14929448D02*
X13922949Y-14872306D01*
X13922949Y-14872306D02*
X13932473Y-14853258D01*
X13932473Y-14853258D02*
X13941997Y-14843734D01*
X13941997Y-14843734D02*
X13961044Y-14834210D01*
X13961044Y-14834210D02*
X13989616Y-14834210D01*
X13989616Y-14834210D02*
X14008663Y-14843734D01*
X14008663Y-14843734D02*
X14018187Y-14853258D01*
X14018187Y-14853258D02*
X14027711Y-14872306D01*
X14027711Y-14872306D02*
X14027711Y-14929448D01*
X14027711Y-14929448D02*
X14018187Y-14948496D01*
X14018187Y-14948496D02*
X14008663Y-14958020D01*
X14008663Y-14958020D02*
X13989616Y-14967544D01*
X13989616Y-14967544D02*
X13961044Y-14967544D01*
X14141997Y-14967544D02*
X14122949Y-14958020D01*
X14122949Y-14958020D02*
X14113425Y-14938972D01*
X14113425Y-14938972D02*
X14113425Y-14767544D01*
X14294378Y-14958020D02*
X14275330Y-14967544D01*
X14275330Y-14967544D02*
X14237235Y-14967544D01*
X14237235Y-14967544D02*
X14218187Y-14958020D01*
X14218187Y-14958020D02*
X14208663Y-14938972D01*
X14208663Y-14938972D02*
X14208663Y-14862782D01*
X14208663Y-14862782D02*
X14218187Y-14843734D01*
X14218187Y-14843734D02*
X14237235Y-14834210D01*
X14237235Y-14834210D02*
X14275330Y-14834210D01*
X14275330Y-14834210D02*
X14294378Y-14843734D01*
X14294378Y-14843734D02*
X14303901Y-14862782D01*
X14303901Y-14862782D02*
X14303901Y-14881829D01*
X14303901Y-14881829D02*
X14208663Y-14900877D01*
X14380092Y-14958020D02*
X14399140Y-14967544D01*
X14399140Y-14967544D02*
X14437235Y-14967544D01*
X14437235Y-14967544D02*
X14456282Y-14958020D01*
X14456282Y-14958020D02*
X14465806Y-14938972D01*
X14465806Y-14938972D02*
X14465806Y-14929448D01*
X14465806Y-14929448D02*
X14456282Y-14910401D01*
X14456282Y-14910401D02*
X14437235Y-14900877D01*
X14437235Y-14900877D02*
X14408663Y-14900877D01*
X14408663Y-14900877D02*
X14389616Y-14891353D01*
X14389616Y-14891353D02*
X14380092Y-14872306D01*
X14380092Y-14872306D02*
X14380092Y-14862782D01*
X14380092Y-14862782D02*
X14389616Y-14843734D01*
X14389616Y-14843734D02*
X14408663Y-14834210D01*
X14408663Y-14834210D02*
X14437235Y-14834210D01*
X14437235Y-14834210D02*
X14456282Y-14843734D01*
X14532473Y-15043734D02*
X14541997Y-15034210D01*
X14541997Y-15034210D02*
X14561044Y-15005639D01*
X14561044Y-15005639D02*
X14570568Y-14986591D01*
X14570568Y-14986591D02*
X14580092Y-14958020D01*
X14580092Y-14958020D02*
X14589616Y-14910401D01*
X14589616Y-14910401D02*
X14589616Y-14872306D01*
X14589616Y-14872306D02*
X14580092Y-14824687D01*
X14580092Y-14824687D02*
X14570568Y-14796115D01*
X14570568Y-14796115D02*
X14561044Y-14777068D01*
X14561044Y-14777068D02*
X14541997Y-14748496D01*
X14541997Y-14748496D02*
X14532473Y-14738972D01*
D13*
X9665970Y-15094340D02*
X9757410Y-15185780D01*
X9757410Y-15094340D02*
X9665970Y-15185780D01*
X9757410Y-15140060D02*
G75*
G02*
X9665970Y-15140060I-45720J0D01*
G01*
X9665970Y-15140060D02*
G75*
G02*
X9757410Y-15140060I45720J0D01*
G01*
D12*
X10056282Y-15031544D02*
X10075330Y-15031544D01*
X10075330Y-15031544D02*
X10094377Y-15041068D01*
X10094377Y-15041068D02*
X10103901Y-15050591D01*
X10103901Y-15050591D02*
X10113425Y-15069639D01*
X10113425Y-15069639D02*
X10122949Y-15107734D01*
X10122949Y-15107734D02*
X10122949Y-15155353D01*
X10122949Y-15155353D02*
X10113425Y-15193448D01*
X10113425Y-15193448D02*
X10103901Y-15212496D01*
X10103901Y-15212496D02*
X10094377Y-15222020D01*
X10094377Y-15222020D02*
X10075330Y-15231544D01*
X10075330Y-15231544D02*
X10056282Y-15231544D01*
X10056282Y-15231544D02*
X10037234Y-15222020D01*
X10037234Y-15222020D02*
X10027711Y-15212496D01*
X10027711Y-15212496D02*
X10018187Y-15193448D01*
X10018187Y-15193448D02*
X10008663Y-15155353D01*
X10008663Y-15155353D02*
X10008663Y-15107734D01*
X10008663Y-15107734D02*
X10018187Y-15069639D01*
X10018187Y-15069639D02*
X10027711Y-15050591D01*
X10027711Y-15050591D02*
X10037234Y-15041068D01*
X10037234Y-15041068D02*
X10056282Y-15031544D01*
X10208663Y-15212496D02*
X10218187Y-15222020D01*
X10218187Y-15222020D02*
X10208663Y-15231544D01*
X10208663Y-15231544D02*
X10199139Y-15222020D01*
X10199139Y-15222020D02*
X10208663Y-15212496D01*
X10208663Y-15212496D02*
X10208663Y-15231544D01*
X10313425Y-15231544D02*
X10351520Y-15231544D01*
X10351520Y-15231544D02*
X10370568Y-15222020D01*
X10370568Y-15222020D02*
X10380092Y-15212496D01*
X10380092Y-15212496D02*
X10399139Y-15183925D01*
X10399139Y-15183925D02*
X10408663Y-15145829D01*
X10408663Y-15145829D02*
X10408663Y-15069639D01*
X10408663Y-15069639D02*
X10399139Y-15050591D01*
X10399139Y-15050591D02*
X10389615Y-15041068D01*
X10389615Y-15041068D02*
X10370568Y-15031544D01*
X10370568Y-15031544D02*
X10332473Y-15031544D01*
X10332473Y-15031544D02*
X10313425Y-15041068D01*
X10313425Y-15041068D02*
X10303901Y-15050591D01*
X10303901Y-15050591D02*
X10294377Y-15069639D01*
X10294377Y-15069639D02*
X10294377Y-15117258D01*
X10294377Y-15117258D02*
X10303901Y-15136306D01*
X10303901Y-15136306D02*
X10313425Y-15145829D01*
X10313425Y-15145829D02*
X10332473Y-15155353D01*
X10332473Y-15155353D02*
X10370568Y-15155353D01*
X10370568Y-15155353D02*
X10389615Y-15145829D01*
X10389615Y-15145829D02*
X10399139Y-15136306D01*
X10399139Y-15136306D02*
X10408663Y-15117258D01*
X10599139Y-15231544D02*
X10484854Y-15231544D01*
X10541996Y-15231544D02*
X10541996Y-15031544D01*
X10541996Y-15031544D02*
X10522949Y-15060115D01*
X10522949Y-15060115D02*
X10503901Y-15079163D01*
X10503901Y-15079163D02*
X10484854Y-15088687D01*
X10770568Y-15098210D02*
X10770568Y-15231544D01*
X10722949Y-15022020D02*
X10675330Y-15164877D01*
X10675330Y-15164877D02*
X10799139Y-15164877D01*
X10875330Y-15231544D02*
X10875330Y-15098210D01*
X10875330Y-15117258D02*
X10884854Y-15107734D01*
X10884854Y-15107734D02*
X10903901Y-15098210D01*
X10903901Y-15098210D02*
X10932473Y-15098210D01*
X10932473Y-15098210D02*
X10951520Y-15107734D01*
X10951520Y-15107734D02*
X10961044Y-15126782D01*
X10961044Y-15126782D02*
X10961044Y-15231544D01*
X10961044Y-15126782D02*
X10970568Y-15107734D01*
X10970568Y-15107734D02*
X10989615Y-15098210D01*
X10989615Y-15098210D02*
X11018187Y-15098210D01*
X11018187Y-15098210D02*
X11037235Y-15107734D01*
X11037235Y-15107734D02*
X11046758Y-15126782D01*
X11046758Y-15126782D02*
X11046758Y-15231544D01*
X11141996Y-15231544D02*
X11141996Y-15098210D01*
X11141996Y-15117258D02*
X11151520Y-15107734D01*
X11151520Y-15107734D02*
X11170568Y-15098210D01*
X11170568Y-15098210D02*
X11199139Y-15098210D01*
X11199139Y-15098210D02*
X11218187Y-15107734D01*
X11218187Y-15107734D02*
X11227711Y-15126782D01*
X11227711Y-15126782D02*
X11227711Y-15231544D01*
X11227711Y-15126782D02*
X11237234Y-15107734D01*
X11237234Y-15107734D02*
X11256282Y-15098210D01*
X11256282Y-15098210D02*
X11284853Y-15098210D01*
X11284853Y-15098210D02*
X11303901Y-15107734D01*
X11303901Y-15107734D02*
X11313425Y-15126782D01*
X11313425Y-15126782D02*
X11313425Y-15231544D01*
X11703901Y-15022020D02*
X11532473Y-15279163D01*
X11961044Y-15031544D02*
X11980092Y-15031544D01*
X11980092Y-15031544D02*
X11999139Y-15041068D01*
X11999139Y-15041068D02*
X12008663Y-15050591D01*
X12008663Y-15050591D02*
X12018187Y-15069639D01*
X12018187Y-15069639D02*
X12027711Y-15107734D01*
X12027711Y-15107734D02*
X12027711Y-15155353D01*
X12027711Y-15155353D02*
X12018187Y-15193448D01*
X12018187Y-15193448D02*
X12008663Y-15212496D01*
X12008663Y-15212496D02*
X11999139Y-15222020D01*
X11999139Y-15222020D02*
X11980092Y-15231544D01*
X11980092Y-15231544D02*
X11961044Y-15231544D01*
X11961044Y-15231544D02*
X11941996Y-15222020D01*
X11941996Y-15222020D02*
X11932473Y-15212496D01*
X11932473Y-15212496D02*
X11922949Y-15193448D01*
X11922949Y-15193448D02*
X11913425Y-15155353D01*
X11913425Y-15155353D02*
X11913425Y-15107734D01*
X11913425Y-15107734D02*
X11922949Y-15069639D01*
X11922949Y-15069639D02*
X11932473Y-15050591D01*
X11932473Y-15050591D02*
X11941996Y-15041068D01*
X11941996Y-15041068D02*
X11961044Y-15031544D01*
X12113425Y-15212496D02*
X12122949Y-15222020D01*
X12122949Y-15222020D02*
X12113425Y-15231544D01*
X12113425Y-15231544D02*
X12103901Y-15222020D01*
X12103901Y-15222020D02*
X12113425Y-15212496D01*
X12113425Y-15212496D02*
X12113425Y-15231544D01*
X12246758Y-15031544D02*
X12265806Y-15031544D01*
X12265806Y-15031544D02*
X12284854Y-15041068D01*
X12284854Y-15041068D02*
X12294377Y-15050591D01*
X12294377Y-15050591D02*
X12303901Y-15069639D01*
X12303901Y-15069639D02*
X12313425Y-15107734D01*
X12313425Y-15107734D02*
X12313425Y-15155353D01*
X12313425Y-15155353D02*
X12303901Y-15193448D01*
X12303901Y-15193448D02*
X12294377Y-15212496D01*
X12294377Y-15212496D02*
X12284854Y-15222020D01*
X12284854Y-15222020D02*
X12265806Y-15231544D01*
X12265806Y-15231544D02*
X12246758Y-15231544D01*
X12246758Y-15231544D02*
X12227711Y-15222020D01*
X12227711Y-15222020D02*
X12218187Y-15212496D01*
X12218187Y-15212496D02*
X12208663Y-15193448D01*
X12208663Y-15193448D02*
X12199139Y-15155353D01*
X12199139Y-15155353D02*
X12199139Y-15107734D01*
X12199139Y-15107734D02*
X12208663Y-15069639D01*
X12208663Y-15069639D02*
X12218187Y-15050591D01*
X12218187Y-15050591D02*
X12227711Y-15041068D01*
X12227711Y-15041068D02*
X12246758Y-15031544D01*
X12380092Y-15031544D02*
X12503901Y-15031544D01*
X12503901Y-15031544D02*
X12437235Y-15107734D01*
X12437235Y-15107734D02*
X12465806Y-15107734D01*
X12465806Y-15107734D02*
X12484854Y-15117258D01*
X12484854Y-15117258D02*
X12494377Y-15126782D01*
X12494377Y-15126782D02*
X12503901Y-15145829D01*
X12503901Y-15145829D02*
X12503901Y-15193448D01*
X12503901Y-15193448D02*
X12494377Y-15212496D01*
X12494377Y-15212496D02*
X12484854Y-15222020D01*
X12484854Y-15222020D02*
X12465806Y-15231544D01*
X12465806Y-15231544D02*
X12408663Y-15231544D01*
X12408663Y-15231544D02*
X12389616Y-15222020D01*
X12389616Y-15222020D02*
X12380092Y-15212496D01*
X12675330Y-15031544D02*
X12637235Y-15031544D01*
X12637235Y-15031544D02*
X12618187Y-15041068D01*
X12618187Y-15041068D02*
X12608663Y-15050591D01*
X12608663Y-15050591D02*
X12589616Y-15079163D01*
X12589616Y-15079163D02*
X12580092Y-15117258D01*
X12580092Y-15117258D02*
X12580092Y-15193448D01*
X12580092Y-15193448D02*
X12589616Y-15212496D01*
X12589616Y-15212496D02*
X12599139Y-15222020D01*
X12599139Y-15222020D02*
X12618187Y-15231544D01*
X12618187Y-15231544D02*
X12656282Y-15231544D01*
X12656282Y-15231544D02*
X12675330Y-15222020D01*
X12675330Y-15222020D02*
X12684854Y-15212496D01*
X12684854Y-15212496D02*
X12694377Y-15193448D01*
X12694377Y-15193448D02*
X12694377Y-15145829D01*
X12694377Y-15145829D02*
X12684854Y-15126782D01*
X12684854Y-15126782D02*
X12675330Y-15117258D01*
X12675330Y-15117258D02*
X12656282Y-15107734D01*
X12656282Y-15107734D02*
X12618187Y-15107734D01*
X12618187Y-15107734D02*
X12599139Y-15117258D01*
X12599139Y-15117258D02*
X12589616Y-15126782D01*
X12589616Y-15126782D02*
X12580092Y-15145829D01*
X12818187Y-15031544D02*
X12837235Y-15031544D01*
X12837235Y-15031544D02*
X12856282Y-15041068D01*
X12856282Y-15041068D02*
X12865806Y-15050591D01*
X12865806Y-15050591D02*
X12875330Y-15069639D01*
X12875330Y-15069639D02*
X12884854Y-15107734D01*
X12884854Y-15107734D02*
X12884854Y-15155353D01*
X12884854Y-15155353D02*
X12875330Y-15193448D01*
X12875330Y-15193448D02*
X12865806Y-15212496D01*
X12865806Y-15212496D02*
X12856282Y-15222020D01*
X12856282Y-15222020D02*
X12837235Y-15231544D01*
X12837235Y-15231544D02*
X12818187Y-15231544D01*
X12818187Y-15231544D02*
X12799139Y-15222020D01*
X12799139Y-15222020D02*
X12789616Y-15212496D01*
X12789616Y-15212496D02*
X12780092Y-15193448D01*
X12780092Y-15193448D02*
X12770568Y-15155353D01*
X12770568Y-15155353D02*
X12770568Y-15107734D01*
X12770568Y-15107734D02*
X12780092Y-15069639D01*
X12780092Y-15069639D02*
X12789616Y-15050591D01*
X12789616Y-15050591D02*
X12799139Y-15041068D01*
X12799139Y-15041068D02*
X12818187Y-15031544D01*
X12961044Y-15031544D02*
X12961044Y-15069639D01*
X13037235Y-15031544D02*
X13037235Y-15069639D01*
X13332473Y-15307734D02*
X13322949Y-15298210D01*
X13322949Y-15298210D02*
X13303901Y-15269639D01*
X13303901Y-15269639D02*
X13294378Y-15250591D01*
X13294378Y-15250591D02*
X13284854Y-15222020D01*
X13284854Y-15222020D02*
X13275330Y-15174401D01*
X13275330Y-15174401D02*
X13275330Y-15136306D01*
X13275330Y-15136306D02*
X13284854Y-15088687D01*
X13284854Y-15088687D02*
X13294378Y-15060115D01*
X13294378Y-15060115D02*
X13303901Y-15041068D01*
X13303901Y-15041068D02*
X13322949Y-15012496D01*
X13322949Y-15012496D02*
X13332473Y-15002972D01*
X13494378Y-15098210D02*
X13494378Y-15231544D01*
X13446758Y-15022020D02*
X13399139Y-15164877D01*
X13399139Y-15164877D02*
X13522949Y-15164877D01*
X13751520Y-15231544D02*
X13751520Y-15031544D01*
X13837235Y-15231544D02*
X13837235Y-15126782D01*
X13837235Y-15126782D02*
X13827711Y-15107734D01*
X13827711Y-15107734D02*
X13808663Y-15098210D01*
X13808663Y-15098210D02*
X13780092Y-15098210D01*
X13780092Y-15098210D02*
X13761044Y-15107734D01*
X13761044Y-15107734D02*
X13751520Y-15117258D01*
X13961044Y-15231544D02*
X13941997Y-15222020D01*
X13941997Y-15222020D02*
X13932473Y-15212496D01*
X13932473Y-15212496D02*
X13922949Y-15193448D01*
X13922949Y-15193448D02*
X13922949Y-15136306D01*
X13922949Y-15136306D02*
X13932473Y-15117258D01*
X13932473Y-15117258D02*
X13941997Y-15107734D01*
X13941997Y-15107734D02*
X13961044Y-15098210D01*
X13961044Y-15098210D02*
X13989616Y-15098210D01*
X13989616Y-15098210D02*
X14008663Y-15107734D01*
X14008663Y-15107734D02*
X14018187Y-15117258D01*
X14018187Y-15117258D02*
X14027711Y-15136306D01*
X14027711Y-15136306D02*
X14027711Y-15193448D01*
X14027711Y-15193448D02*
X14018187Y-15212496D01*
X14018187Y-15212496D02*
X14008663Y-15222020D01*
X14008663Y-15222020D02*
X13989616Y-15231544D01*
X13989616Y-15231544D02*
X13961044Y-15231544D01*
X14141997Y-15231544D02*
X14122949Y-15222020D01*
X14122949Y-15222020D02*
X14113425Y-15202972D01*
X14113425Y-15202972D02*
X14113425Y-15031544D01*
X14294378Y-15222020D02*
X14275330Y-15231544D01*
X14275330Y-15231544D02*
X14237235Y-15231544D01*
X14237235Y-15231544D02*
X14218187Y-15222020D01*
X14218187Y-15222020D02*
X14208663Y-15202972D01*
X14208663Y-15202972D02*
X14208663Y-15126782D01*
X14208663Y-15126782D02*
X14218187Y-15107734D01*
X14218187Y-15107734D02*
X14237235Y-15098210D01*
X14237235Y-15098210D02*
X14275330Y-15098210D01*
X14275330Y-15098210D02*
X14294378Y-15107734D01*
X14294378Y-15107734D02*
X14303901Y-15126782D01*
X14303901Y-15126782D02*
X14303901Y-15145829D01*
X14303901Y-15145829D02*
X14208663Y-15164877D01*
X14380092Y-15222020D02*
X14399140Y-15231544D01*
X14399140Y-15231544D02*
X14437235Y-15231544D01*
X14437235Y-15231544D02*
X14456282Y-15222020D01*
X14456282Y-15222020D02*
X14465806Y-15202972D01*
X14465806Y-15202972D02*
X14465806Y-15193448D01*
X14465806Y-15193448D02*
X14456282Y-15174401D01*
X14456282Y-15174401D02*
X14437235Y-15164877D01*
X14437235Y-15164877D02*
X14408663Y-15164877D01*
X14408663Y-15164877D02*
X14389616Y-15155353D01*
X14389616Y-15155353D02*
X14380092Y-15136306D01*
X14380092Y-15136306D02*
X14380092Y-15126782D01*
X14380092Y-15126782D02*
X14389616Y-15107734D01*
X14389616Y-15107734D02*
X14408663Y-15098210D01*
X14408663Y-15098210D02*
X14437235Y-15098210D01*
X14437235Y-15098210D02*
X14456282Y-15107734D01*
X14532473Y-15307734D02*
X14541997Y-15298210D01*
X14541997Y-15298210D02*
X14561044Y-15269639D01*
X14561044Y-15269639D02*
X14570568Y-15250591D01*
X14570568Y-15250591D02*
X14580092Y-15222020D01*
X14580092Y-15222020D02*
X14589616Y-15174401D01*
X14589616Y-15174401D02*
X14589616Y-15136306D01*
X14589616Y-15136306D02*
X14580092Y-15088687D01*
X14580092Y-15088687D02*
X14570568Y-15060115D01*
X14570568Y-15060115D02*
X14561044Y-15041068D01*
X14561044Y-15041068D02*
X14541997Y-15012496D01*
X14541997Y-15012496D02*
X14532473Y-15002972D01*
D13*
X9657410Y-15354060D02*
X9757410Y-15454060D01*
X9757410Y-15354060D02*
X9657410Y-15454060D01*
X9707410Y-15354060D02*
X9707410Y-15454060D01*
X9657410Y-15404060D02*
X9757410Y-15404060D01*
D12*
X10122949Y-15495544D02*
X10008663Y-15495544D01*
X10065806Y-15495544D02*
X10065806Y-15295544D01*
X10065806Y-15295544D02*
X10046758Y-15324115D01*
X10046758Y-15324115D02*
X10027711Y-15343163D01*
X10027711Y-15343163D02*
X10008663Y-15352687D01*
X10208663Y-15476496D02*
X10218187Y-15486020D01*
X10218187Y-15486020D02*
X10208663Y-15495544D01*
X10208663Y-15495544D02*
X10199139Y-15486020D01*
X10199139Y-15486020D02*
X10208663Y-15476496D01*
X10208663Y-15476496D02*
X10208663Y-15495544D01*
X10341996Y-15295544D02*
X10361044Y-15295544D01*
X10361044Y-15295544D02*
X10380092Y-15305068D01*
X10380092Y-15305068D02*
X10389615Y-15314591D01*
X10389615Y-15314591D02*
X10399139Y-15333639D01*
X10399139Y-15333639D02*
X10408663Y-15371734D01*
X10408663Y-15371734D02*
X10408663Y-15419353D01*
X10408663Y-15419353D02*
X10399139Y-15457448D01*
X10399139Y-15457448D02*
X10389615Y-15476496D01*
X10389615Y-15476496D02*
X10380092Y-15486020D01*
X10380092Y-15486020D02*
X10361044Y-15495544D01*
X10361044Y-15495544D02*
X10341996Y-15495544D01*
X10341996Y-15495544D02*
X10322949Y-15486020D01*
X10322949Y-15486020D02*
X10313425Y-15476496D01*
X10313425Y-15476496D02*
X10303901Y-15457448D01*
X10303901Y-15457448D02*
X10294377Y-15419353D01*
X10294377Y-15419353D02*
X10294377Y-15371734D01*
X10294377Y-15371734D02*
X10303901Y-15333639D01*
X10303901Y-15333639D02*
X10313425Y-15314591D01*
X10313425Y-15314591D02*
X10322949Y-15305068D01*
X10322949Y-15305068D02*
X10341996Y-15295544D01*
X10532473Y-15295544D02*
X10551520Y-15295544D01*
X10551520Y-15295544D02*
X10570568Y-15305068D01*
X10570568Y-15305068D02*
X10580092Y-15314591D01*
X10580092Y-15314591D02*
X10589615Y-15333639D01*
X10589615Y-15333639D02*
X10599139Y-15371734D01*
X10599139Y-15371734D02*
X10599139Y-15419353D01*
X10599139Y-15419353D02*
X10589615Y-15457448D01*
X10589615Y-15457448D02*
X10580092Y-15476496D01*
X10580092Y-15476496D02*
X10570568Y-15486020D01*
X10570568Y-15486020D02*
X10551520Y-15495544D01*
X10551520Y-15495544D02*
X10532473Y-15495544D01*
X10532473Y-15495544D02*
X10513425Y-15486020D01*
X10513425Y-15486020D02*
X10503901Y-15476496D01*
X10503901Y-15476496D02*
X10494377Y-15457448D01*
X10494377Y-15457448D02*
X10484854Y-15419353D01*
X10484854Y-15419353D02*
X10484854Y-15371734D01*
X10484854Y-15371734D02*
X10494377Y-15333639D01*
X10494377Y-15333639D02*
X10503901Y-15314591D01*
X10503901Y-15314591D02*
X10513425Y-15305068D01*
X10513425Y-15305068D02*
X10532473Y-15295544D01*
X10722949Y-15295544D02*
X10741996Y-15295544D01*
X10741996Y-15295544D02*
X10761044Y-15305068D01*
X10761044Y-15305068D02*
X10770568Y-15314591D01*
X10770568Y-15314591D02*
X10780092Y-15333639D01*
X10780092Y-15333639D02*
X10789615Y-15371734D01*
X10789615Y-15371734D02*
X10789615Y-15419353D01*
X10789615Y-15419353D02*
X10780092Y-15457448D01*
X10780092Y-15457448D02*
X10770568Y-15476496D01*
X10770568Y-15476496D02*
X10761044Y-15486020D01*
X10761044Y-15486020D02*
X10741996Y-15495544D01*
X10741996Y-15495544D02*
X10722949Y-15495544D01*
X10722949Y-15495544D02*
X10703901Y-15486020D01*
X10703901Y-15486020D02*
X10694377Y-15476496D01*
X10694377Y-15476496D02*
X10684854Y-15457448D01*
X10684854Y-15457448D02*
X10675330Y-15419353D01*
X10675330Y-15419353D02*
X10675330Y-15371734D01*
X10675330Y-15371734D02*
X10684854Y-15333639D01*
X10684854Y-15333639D02*
X10694377Y-15314591D01*
X10694377Y-15314591D02*
X10703901Y-15305068D01*
X10703901Y-15305068D02*
X10722949Y-15295544D01*
X10875330Y-15495544D02*
X10875330Y-15362210D01*
X10875330Y-15381258D02*
X10884854Y-15371734D01*
X10884854Y-15371734D02*
X10903901Y-15362210D01*
X10903901Y-15362210D02*
X10932473Y-15362210D01*
X10932473Y-15362210D02*
X10951520Y-15371734D01*
X10951520Y-15371734D02*
X10961044Y-15390782D01*
X10961044Y-15390782D02*
X10961044Y-15495544D01*
X10961044Y-15390782D02*
X10970568Y-15371734D01*
X10970568Y-15371734D02*
X10989615Y-15362210D01*
X10989615Y-15362210D02*
X11018187Y-15362210D01*
X11018187Y-15362210D02*
X11037235Y-15371734D01*
X11037235Y-15371734D02*
X11046758Y-15390782D01*
X11046758Y-15390782D02*
X11046758Y-15495544D01*
X11141996Y-15495544D02*
X11141996Y-15362210D01*
X11141996Y-15381258D02*
X11151520Y-15371734D01*
X11151520Y-15371734D02*
X11170568Y-15362210D01*
X11170568Y-15362210D02*
X11199139Y-15362210D01*
X11199139Y-15362210D02*
X11218187Y-15371734D01*
X11218187Y-15371734D02*
X11227711Y-15390782D01*
X11227711Y-15390782D02*
X11227711Y-15495544D01*
X11227711Y-15390782D02*
X11237234Y-15371734D01*
X11237234Y-15371734D02*
X11256282Y-15362210D01*
X11256282Y-15362210D02*
X11284853Y-15362210D01*
X11284853Y-15362210D02*
X11303901Y-15371734D01*
X11303901Y-15371734D02*
X11313425Y-15390782D01*
X11313425Y-15390782D02*
X11313425Y-15495544D01*
X11703901Y-15286020D02*
X11532473Y-15543163D01*
X11961044Y-15295544D02*
X11980092Y-15295544D01*
X11980092Y-15295544D02*
X11999139Y-15305068D01*
X11999139Y-15305068D02*
X12008663Y-15314591D01*
X12008663Y-15314591D02*
X12018187Y-15333639D01*
X12018187Y-15333639D02*
X12027711Y-15371734D01*
X12027711Y-15371734D02*
X12027711Y-15419353D01*
X12027711Y-15419353D02*
X12018187Y-15457448D01*
X12018187Y-15457448D02*
X12008663Y-15476496D01*
X12008663Y-15476496D02*
X11999139Y-15486020D01*
X11999139Y-15486020D02*
X11980092Y-15495544D01*
X11980092Y-15495544D02*
X11961044Y-15495544D01*
X11961044Y-15495544D02*
X11941996Y-15486020D01*
X11941996Y-15486020D02*
X11932473Y-15476496D01*
X11932473Y-15476496D02*
X11922949Y-15457448D01*
X11922949Y-15457448D02*
X11913425Y-15419353D01*
X11913425Y-15419353D02*
X11913425Y-15371734D01*
X11913425Y-15371734D02*
X11922949Y-15333639D01*
X11922949Y-15333639D02*
X11932473Y-15314591D01*
X11932473Y-15314591D02*
X11941996Y-15305068D01*
X11941996Y-15305068D02*
X11961044Y-15295544D01*
X12113425Y-15476496D02*
X12122949Y-15486020D01*
X12122949Y-15486020D02*
X12113425Y-15495544D01*
X12113425Y-15495544D02*
X12103901Y-15486020D01*
X12103901Y-15486020D02*
X12113425Y-15476496D01*
X12113425Y-15476496D02*
X12113425Y-15495544D01*
X12246758Y-15295544D02*
X12265806Y-15295544D01*
X12265806Y-15295544D02*
X12284854Y-15305068D01*
X12284854Y-15305068D02*
X12294377Y-15314591D01*
X12294377Y-15314591D02*
X12303901Y-15333639D01*
X12303901Y-15333639D02*
X12313425Y-15371734D01*
X12313425Y-15371734D02*
X12313425Y-15419353D01*
X12313425Y-15419353D02*
X12303901Y-15457448D01*
X12303901Y-15457448D02*
X12294377Y-15476496D01*
X12294377Y-15476496D02*
X12284854Y-15486020D01*
X12284854Y-15486020D02*
X12265806Y-15495544D01*
X12265806Y-15495544D02*
X12246758Y-15495544D01*
X12246758Y-15495544D02*
X12227711Y-15486020D01*
X12227711Y-15486020D02*
X12218187Y-15476496D01*
X12218187Y-15476496D02*
X12208663Y-15457448D01*
X12208663Y-15457448D02*
X12199139Y-15419353D01*
X12199139Y-15419353D02*
X12199139Y-15371734D01*
X12199139Y-15371734D02*
X12208663Y-15333639D01*
X12208663Y-15333639D02*
X12218187Y-15314591D01*
X12218187Y-15314591D02*
X12227711Y-15305068D01*
X12227711Y-15305068D02*
X12246758Y-15295544D01*
X12380092Y-15295544D02*
X12503901Y-15295544D01*
X12503901Y-15295544D02*
X12437235Y-15371734D01*
X12437235Y-15371734D02*
X12465806Y-15371734D01*
X12465806Y-15371734D02*
X12484854Y-15381258D01*
X12484854Y-15381258D02*
X12494377Y-15390782D01*
X12494377Y-15390782D02*
X12503901Y-15409829D01*
X12503901Y-15409829D02*
X12503901Y-15457448D01*
X12503901Y-15457448D02*
X12494377Y-15476496D01*
X12494377Y-15476496D02*
X12484854Y-15486020D01*
X12484854Y-15486020D02*
X12465806Y-15495544D01*
X12465806Y-15495544D02*
X12408663Y-15495544D01*
X12408663Y-15495544D02*
X12389616Y-15486020D01*
X12389616Y-15486020D02*
X12380092Y-15476496D01*
X12599139Y-15495544D02*
X12637235Y-15495544D01*
X12637235Y-15495544D02*
X12656282Y-15486020D01*
X12656282Y-15486020D02*
X12665806Y-15476496D01*
X12665806Y-15476496D02*
X12684854Y-15447925D01*
X12684854Y-15447925D02*
X12694377Y-15409829D01*
X12694377Y-15409829D02*
X12694377Y-15333639D01*
X12694377Y-15333639D02*
X12684854Y-15314591D01*
X12684854Y-15314591D02*
X12675330Y-15305068D01*
X12675330Y-15305068D02*
X12656282Y-15295544D01*
X12656282Y-15295544D02*
X12618187Y-15295544D01*
X12618187Y-15295544D02*
X12599139Y-15305068D01*
X12599139Y-15305068D02*
X12589616Y-15314591D01*
X12589616Y-15314591D02*
X12580092Y-15333639D01*
X12580092Y-15333639D02*
X12580092Y-15381258D01*
X12580092Y-15381258D02*
X12589616Y-15400306D01*
X12589616Y-15400306D02*
X12599139Y-15409829D01*
X12599139Y-15409829D02*
X12618187Y-15419353D01*
X12618187Y-15419353D02*
X12656282Y-15419353D01*
X12656282Y-15419353D02*
X12675330Y-15409829D01*
X12675330Y-15409829D02*
X12684854Y-15400306D01*
X12684854Y-15400306D02*
X12694377Y-15381258D01*
X12865806Y-15362210D02*
X12865806Y-15495544D01*
X12818187Y-15286020D02*
X12770568Y-15428877D01*
X12770568Y-15428877D02*
X12894377Y-15428877D01*
X12961044Y-15295544D02*
X12961044Y-15333639D01*
X13037235Y-15295544D02*
X13037235Y-15333639D01*
X13332473Y-15571734D02*
X13322949Y-15562210D01*
X13322949Y-15562210D02*
X13303901Y-15533639D01*
X13303901Y-15533639D02*
X13294378Y-15514591D01*
X13294378Y-15514591D02*
X13284854Y-15486020D01*
X13284854Y-15486020D02*
X13275330Y-15438401D01*
X13275330Y-15438401D02*
X13275330Y-15400306D01*
X13275330Y-15400306D02*
X13284854Y-15352687D01*
X13284854Y-15352687D02*
X13294378Y-15324115D01*
X13294378Y-15324115D02*
X13303901Y-15305068D01*
X13303901Y-15305068D02*
X13322949Y-15276496D01*
X13322949Y-15276496D02*
X13332473Y-15266972D01*
X13418187Y-15495544D02*
X13456282Y-15495544D01*
X13456282Y-15495544D02*
X13475330Y-15486020D01*
X13475330Y-15486020D02*
X13484854Y-15476496D01*
X13484854Y-15476496D02*
X13503901Y-15447925D01*
X13503901Y-15447925D02*
X13513425Y-15409829D01*
X13513425Y-15409829D02*
X13513425Y-15333639D01*
X13513425Y-15333639D02*
X13503901Y-15314591D01*
X13503901Y-15314591D02*
X13494378Y-15305068D01*
X13494378Y-15305068D02*
X13475330Y-15295544D01*
X13475330Y-15295544D02*
X13437235Y-15295544D01*
X13437235Y-15295544D02*
X13418187Y-15305068D01*
X13418187Y-15305068D02*
X13408663Y-15314591D01*
X13408663Y-15314591D02*
X13399139Y-15333639D01*
X13399139Y-15333639D02*
X13399139Y-15381258D01*
X13399139Y-15381258D02*
X13408663Y-15400306D01*
X13408663Y-15400306D02*
X13418187Y-15409829D01*
X13418187Y-15409829D02*
X13437235Y-15419353D01*
X13437235Y-15419353D02*
X13475330Y-15419353D01*
X13475330Y-15419353D02*
X13494378Y-15409829D01*
X13494378Y-15409829D02*
X13503901Y-15400306D01*
X13503901Y-15400306D02*
X13513425Y-15381258D01*
X13627711Y-15381258D02*
X13608663Y-15371734D01*
X13608663Y-15371734D02*
X13599139Y-15362210D01*
X13599139Y-15362210D02*
X13589616Y-15343163D01*
X13589616Y-15343163D02*
X13589616Y-15333639D01*
X13589616Y-15333639D02*
X13599139Y-15314591D01*
X13599139Y-15314591D02*
X13608663Y-15305068D01*
X13608663Y-15305068D02*
X13627711Y-15295544D01*
X13627711Y-15295544D02*
X13665806Y-15295544D01*
X13665806Y-15295544D02*
X13684854Y-15305068D01*
X13684854Y-15305068D02*
X13694378Y-15314591D01*
X13694378Y-15314591D02*
X13703901Y-15333639D01*
X13703901Y-15333639D02*
X13703901Y-15343163D01*
X13703901Y-15343163D02*
X13694378Y-15362210D01*
X13694378Y-15362210D02*
X13684854Y-15371734D01*
X13684854Y-15371734D02*
X13665806Y-15381258D01*
X13665806Y-15381258D02*
X13627711Y-15381258D01*
X13627711Y-15381258D02*
X13608663Y-15390782D01*
X13608663Y-15390782D02*
X13599139Y-15400306D01*
X13599139Y-15400306D02*
X13589616Y-15419353D01*
X13589616Y-15419353D02*
X13589616Y-15457448D01*
X13589616Y-15457448D02*
X13599139Y-15476496D01*
X13599139Y-15476496D02*
X13608663Y-15486020D01*
X13608663Y-15486020D02*
X13627711Y-15495544D01*
X13627711Y-15495544D02*
X13665806Y-15495544D01*
X13665806Y-15495544D02*
X13684854Y-15486020D01*
X13684854Y-15486020D02*
X13694378Y-15476496D01*
X13694378Y-15476496D02*
X13703901Y-15457448D01*
X13703901Y-15457448D02*
X13703901Y-15419353D01*
X13703901Y-15419353D02*
X13694378Y-15400306D01*
X13694378Y-15400306D02*
X13684854Y-15390782D01*
X13684854Y-15390782D02*
X13665806Y-15381258D01*
X13941997Y-15495544D02*
X13941997Y-15295544D01*
X14027711Y-15495544D02*
X14027711Y-15390782D01*
X14027711Y-15390782D02*
X14018187Y-15371734D01*
X14018187Y-15371734D02*
X13999140Y-15362210D01*
X13999140Y-15362210D02*
X13970568Y-15362210D01*
X13970568Y-15362210D02*
X13951520Y-15371734D01*
X13951520Y-15371734D02*
X13941997Y-15381258D01*
X14151520Y-15495544D02*
X14132473Y-15486020D01*
X14132473Y-15486020D02*
X14122949Y-15476496D01*
X14122949Y-15476496D02*
X14113425Y-15457448D01*
X14113425Y-15457448D02*
X14113425Y-15400306D01*
X14113425Y-15400306D02*
X14122949Y-15381258D01*
X14122949Y-15381258D02*
X14132473Y-15371734D01*
X14132473Y-15371734D02*
X14151520Y-15362210D01*
X14151520Y-15362210D02*
X14180092Y-15362210D01*
X14180092Y-15362210D02*
X14199140Y-15371734D01*
X14199140Y-15371734D02*
X14208663Y-15381258D01*
X14208663Y-15381258D02*
X14218187Y-15400306D01*
X14218187Y-15400306D02*
X14218187Y-15457448D01*
X14218187Y-15457448D02*
X14208663Y-15476496D01*
X14208663Y-15476496D02*
X14199140Y-15486020D01*
X14199140Y-15486020D02*
X14180092Y-15495544D01*
X14180092Y-15495544D02*
X14151520Y-15495544D01*
X14332473Y-15495544D02*
X14313425Y-15486020D01*
X14313425Y-15486020D02*
X14303901Y-15466972D01*
X14303901Y-15466972D02*
X14303901Y-15295544D01*
X14484854Y-15486020D02*
X14465806Y-15495544D01*
X14465806Y-15495544D02*
X14427711Y-15495544D01*
X14427711Y-15495544D02*
X14408663Y-15486020D01*
X14408663Y-15486020D02*
X14399140Y-15466972D01*
X14399140Y-15466972D02*
X14399140Y-15390782D01*
X14399140Y-15390782D02*
X14408663Y-15371734D01*
X14408663Y-15371734D02*
X14427711Y-15362210D01*
X14427711Y-15362210D02*
X14465806Y-15362210D01*
X14465806Y-15362210D02*
X14484854Y-15371734D01*
X14484854Y-15371734D02*
X14494378Y-15390782D01*
X14494378Y-15390782D02*
X14494378Y-15409829D01*
X14494378Y-15409829D02*
X14399140Y-15428877D01*
X14570568Y-15486020D02*
X14589616Y-15495544D01*
X14589616Y-15495544D02*
X14627711Y-15495544D01*
X14627711Y-15495544D02*
X14646759Y-15486020D01*
X14646759Y-15486020D02*
X14656282Y-15466972D01*
X14656282Y-15466972D02*
X14656282Y-15457448D01*
X14656282Y-15457448D02*
X14646759Y-15438401D01*
X14646759Y-15438401D02*
X14627711Y-15428877D01*
X14627711Y-15428877D02*
X14599140Y-15428877D01*
X14599140Y-15428877D02*
X14580092Y-15419353D01*
X14580092Y-15419353D02*
X14570568Y-15400306D01*
X14570568Y-15400306D02*
X14570568Y-15390782D01*
X14570568Y-15390782D02*
X14580092Y-15371734D01*
X14580092Y-15371734D02*
X14599140Y-15362210D01*
X14599140Y-15362210D02*
X14627711Y-15362210D01*
X14627711Y-15362210D02*
X14646759Y-15371734D01*
X14894378Y-15419353D02*
X15046759Y-15419353D01*
X14970568Y-15495544D02*
X14970568Y-15343163D01*
X15275330Y-15295544D02*
X15399140Y-15295544D01*
X15399140Y-15295544D02*
X15332473Y-15371734D01*
X15332473Y-15371734D02*
X15361044Y-15371734D01*
X15361044Y-15371734D02*
X15380092Y-15381258D01*
X15380092Y-15381258D02*
X15389616Y-15390782D01*
X15389616Y-15390782D02*
X15399140Y-15409829D01*
X15399140Y-15409829D02*
X15399140Y-15457448D01*
X15399140Y-15457448D02*
X15389616Y-15476496D01*
X15389616Y-15476496D02*
X15380092Y-15486020D01*
X15380092Y-15486020D02*
X15361044Y-15495544D01*
X15361044Y-15495544D02*
X15303902Y-15495544D01*
X15303902Y-15495544D02*
X15284854Y-15486020D01*
X15284854Y-15486020D02*
X15275330Y-15476496D01*
X15627711Y-15486020D02*
X15646759Y-15495544D01*
X15646759Y-15495544D02*
X15684854Y-15495544D01*
X15684854Y-15495544D02*
X15703902Y-15486020D01*
X15703902Y-15486020D02*
X15713425Y-15466972D01*
X15713425Y-15466972D02*
X15713425Y-15457448D01*
X15713425Y-15457448D02*
X15703902Y-15438401D01*
X15703902Y-15438401D02*
X15684854Y-15428877D01*
X15684854Y-15428877D02*
X15656283Y-15428877D01*
X15656283Y-15428877D02*
X15637235Y-15419353D01*
X15637235Y-15419353D02*
X15627711Y-15400306D01*
X15627711Y-15400306D02*
X15627711Y-15390782D01*
X15627711Y-15390782D02*
X15637235Y-15371734D01*
X15637235Y-15371734D02*
X15656283Y-15362210D01*
X15656283Y-15362210D02*
X15684854Y-15362210D01*
X15684854Y-15362210D02*
X15703902Y-15371734D01*
X15827711Y-15495544D02*
X15808664Y-15486020D01*
X15808664Y-15486020D02*
X15799140Y-15466972D01*
X15799140Y-15466972D02*
X15799140Y-15295544D01*
X15932473Y-15495544D02*
X15913425Y-15486020D01*
X15913425Y-15486020D02*
X15903902Y-15476496D01*
X15903902Y-15476496D02*
X15894378Y-15457448D01*
X15894378Y-15457448D02*
X15894378Y-15400306D01*
X15894378Y-15400306D02*
X15903902Y-15381258D01*
X15903902Y-15381258D02*
X15913425Y-15371734D01*
X15913425Y-15371734D02*
X15932473Y-15362210D01*
X15932473Y-15362210D02*
X15961045Y-15362210D01*
X15961045Y-15362210D02*
X15980092Y-15371734D01*
X15980092Y-15371734D02*
X15989616Y-15381258D01*
X15989616Y-15381258D02*
X15999140Y-15400306D01*
X15999140Y-15400306D02*
X15999140Y-15457448D01*
X15999140Y-15457448D02*
X15989616Y-15476496D01*
X15989616Y-15476496D02*
X15980092Y-15486020D01*
X15980092Y-15486020D02*
X15961045Y-15495544D01*
X15961045Y-15495544D02*
X15932473Y-15495544D01*
X16056283Y-15362210D02*
X16132473Y-15362210D01*
X16084854Y-15295544D02*
X16084854Y-15466972D01*
X16084854Y-15466972D02*
X16094378Y-15486020D01*
X16094378Y-15486020D02*
X16113425Y-15495544D01*
X16113425Y-15495544D02*
X16132473Y-15495544D01*
X16189616Y-15486020D02*
X16208664Y-15495544D01*
X16208664Y-15495544D02*
X16246759Y-15495544D01*
X16246759Y-15495544D02*
X16265806Y-15486020D01*
X16265806Y-15486020D02*
X16275330Y-15466972D01*
X16275330Y-15466972D02*
X16275330Y-15457448D01*
X16275330Y-15457448D02*
X16265806Y-15438401D01*
X16265806Y-15438401D02*
X16246759Y-15428877D01*
X16246759Y-15428877D02*
X16218187Y-15428877D01*
X16218187Y-15428877D02*
X16199140Y-15419353D01*
X16199140Y-15419353D02*
X16189616Y-15400306D01*
X16189616Y-15400306D02*
X16189616Y-15390782D01*
X16189616Y-15390782D02*
X16199140Y-15371734D01*
X16199140Y-15371734D02*
X16218187Y-15362210D01*
X16218187Y-15362210D02*
X16246759Y-15362210D01*
X16246759Y-15362210D02*
X16265806Y-15371734D01*
X16341997Y-15571734D02*
X16351521Y-15562210D01*
X16351521Y-15562210D02*
X16370568Y-15533639D01*
X16370568Y-15533639D02*
X16380092Y-15514591D01*
X16380092Y-15514591D02*
X16389616Y-15486020D01*
X16389616Y-15486020D02*
X16399140Y-15438401D01*
X16399140Y-15438401D02*
X16399140Y-15400306D01*
X16399140Y-15400306D02*
X16389616Y-15352687D01*
X16389616Y-15352687D02*
X16380092Y-15324115D01*
X16380092Y-15324115D02*
X16370568Y-15305068D01*
X16370568Y-15305068D02*
X16351521Y-15276496D01*
X16351521Y-15276496D02*
X16341997Y-15266972D01*
M02*
