%TF.GenerationSoftware,KiCad,Pcbnew,10.0.0*%
%TF.CreationDate,2026-09-10T15:11:40-06:00*%
%TF.ProjectId,Arduino Mega 2560,41726475-696e-46f2-904d-656761203235,1*%
%TF.SameCoordinates,Original*%
%TF.FileFunction,Drillmap*%
%TF.FilePolarity,Positive*%
%FSLAX45Y45*%
G04 Gerber Fmt 4.5, Leading zero omitted, Abs format (unit mm)*
G04 Created by KiCad (PCBNEW 10.0.0) date 2026-09-10 15:11:40*
%MOMM*%
%LPD*%
G01*
G04 APERTURE LIST*
%ADD10C,0.050000*%
%ADD11C,0.254000*%
%ADD12C,0.200000*%
%ADD13C,0.100000*%
G04 APERTURE END LIST*
D10*
X16536670Y-12404080D02*
G75*
G02*
X16216670Y-12404080I-160000J0D01*
G01*
X16216670Y-12404080D02*
G75*
G02*
X16536670Y-12404080I160000J0D01*
G01*
D11*
X19676110Y-12913360D02*
X19676110Y-13067360D01*
X19523710Y-7833360D02*
X19676110Y-7985760D01*
X9870110Y-13167360D02*
G75*
G02*
X9770110Y-13067360I0J100000D01*
G01*
D10*
X18949670Y-8086080D02*
G75*
G02*
X18629670Y-8086080I-160000J0D01*
G01*
X18629670Y-8086080D02*
G75*
G02*
X18949670Y-8086080I160000J0D01*
G01*
D11*
X19930110Y-12659360D02*
X19676110Y-12913360D01*
X9770110Y-13067360D02*
X9770110Y-7933360D01*
X19676110Y-7985760D02*
X19676110Y-9128760D01*
D10*
X19584670Y-12912080D02*
G75*
G02*
X19264670Y-12912080I-160000J0D01*
G01*
X19264670Y-12912080D02*
G75*
G02*
X19584670Y-12912080I160000J0D01*
G01*
D11*
X9770110Y-7933360D02*
G75*
G02*
X9870110Y-7833360I100000J0D01*
G01*
X9870110Y-7833360D02*
X19523710Y-7833360D01*
X19676110Y-9128760D02*
X19930110Y-9382760D01*
X19930110Y-9382760D02*
X19930110Y-12659360D01*
X19676110Y-13067360D02*
G75*
G02*
X19576110Y-13167360I-100000J0D01*
G01*
D10*
X11456670Y-8086080D02*
G75*
G02*
X11136670Y-8086080I-160000J0D01*
G01*
X11136670Y-8086080D02*
G75*
G02*
X11456670Y-8086080I160000J0D01*
G01*
D11*
X19576110Y-13167360D02*
X9870110Y-13167360D01*
D10*
X16536670Y-9610080D02*
G75*
G02*
X16216670Y-9610080I-160000J0D01*
G01*
X16216670Y-9610080D02*
G75*
G02*
X16536670Y-9610080I160000J0D01*
G01*
X11329670Y-12912080D02*
G75*
G02*
X11009670Y-12912080I-160000J0D01*
G01*
X11009670Y-12912080D02*
G75*
G02*
X11329670Y-12912080I160000J0D01*
G01*
D12*
D13*
X10381670Y-9034580D02*
X10446670Y-9099580D01*
X10446670Y-9034580D02*
X10381670Y-9099580D01*
X10381670Y-9612580D02*
X10446670Y-9677580D01*
X10446670Y-9612580D02*
X10381670Y-9677580D01*
D12*
X10018187Y-13491544D02*
X10018187Y-13291544D01*
X10018187Y-13291544D02*
X10065806Y-13291544D01*
X10065806Y-13291544D02*
X10094377Y-13301068D01*
X10094377Y-13301068D02*
X10113425Y-13320115D01*
X10113425Y-13320115D02*
X10122949Y-13339163D01*
X10122949Y-13339163D02*
X10132473Y-13377258D01*
X10132473Y-13377258D02*
X10132473Y-13405829D01*
X10132473Y-13405829D02*
X10122949Y-13443925D01*
X10122949Y-13443925D02*
X10113425Y-13462972D01*
X10113425Y-13462972D02*
X10094377Y-13482020D01*
X10094377Y-13482020D02*
X10065806Y-13491544D01*
X10065806Y-13491544D02*
X10018187Y-13491544D01*
X10218187Y-13491544D02*
X10218187Y-13358210D01*
X10218187Y-13396306D02*
X10227711Y-13377258D01*
X10227711Y-13377258D02*
X10237234Y-13367734D01*
X10237234Y-13367734D02*
X10256282Y-13358210D01*
X10256282Y-13358210D02*
X10275330Y-13358210D01*
X10341996Y-13491544D02*
X10341996Y-13358210D01*
X10341996Y-13291544D02*
X10332473Y-13301068D01*
X10332473Y-13301068D02*
X10341996Y-13310591D01*
X10341996Y-13310591D02*
X10351520Y-13301068D01*
X10351520Y-13301068D02*
X10341996Y-13291544D01*
X10341996Y-13291544D02*
X10341996Y-13310591D01*
X10465806Y-13491544D02*
X10446758Y-13482020D01*
X10446758Y-13482020D02*
X10437234Y-13462972D01*
X10437234Y-13462972D02*
X10437234Y-13291544D01*
X10570568Y-13491544D02*
X10551520Y-13482020D01*
X10551520Y-13482020D02*
X10541996Y-13462972D01*
X10541996Y-13462972D02*
X10541996Y-13291544D01*
X10799139Y-13491544D02*
X10799139Y-13291544D01*
X10799139Y-13291544D02*
X10865806Y-13434401D01*
X10865806Y-13434401D02*
X10932473Y-13291544D01*
X10932473Y-13291544D02*
X10932473Y-13491544D01*
X11113425Y-13491544D02*
X11113425Y-13386782D01*
X11113425Y-13386782D02*
X11103901Y-13367734D01*
X11103901Y-13367734D02*
X11084854Y-13358210D01*
X11084854Y-13358210D02*
X11046758Y-13358210D01*
X11046758Y-13358210D02*
X11027711Y-13367734D01*
X11113425Y-13482020D02*
X11094377Y-13491544D01*
X11094377Y-13491544D02*
X11046758Y-13491544D01*
X11046758Y-13491544D02*
X11027711Y-13482020D01*
X11027711Y-13482020D02*
X11018187Y-13462972D01*
X11018187Y-13462972D02*
X11018187Y-13443925D01*
X11018187Y-13443925D02*
X11027711Y-13424877D01*
X11027711Y-13424877D02*
X11046758Y-13415353D01*
X11046758Y-13415353D02*
X11094377Y-13415353D01*
X11094377Y-13415353D02*
X11113425Y-13405829D01*
X11208663Y-13358210D02*
X11208663Y-13558210D01*
X11208663Y-13367734D02*
X11227711Y-13358210D01*
X11227711Y-13358210D02*
X11265806Y-13358210D01*
X11265806Y-13358210D02*
X11284853Y-13367734D01*
X11284853Y-13367734D02*
X11294377Y-13377258D01*
X11294377Y-13377258D02*
X11303901Y-13396306D01*
X11303901Y-13396306D02*
X11303901Y-13453448D01*
X11303901Y-13453448D02*
X11294377Y-13472496D01*
X11294377Y-13472496D02*
X11284853Y-13482020D01*
X11284853Y-13482020D02*
X11265806Y-13491544D01*
X11265806Y-13491544D02*
X11227711Y-13491544D01*
X11227711Y-13491544D02*
X11208663Y-13482020D01*
X11389615Y-13472496D02*
X11399139Y-13482020D01*
X11399139Y-13482020D02*
X11389615Y-13491544D01*
X11389615Y-13491544D02*
X11380092Y-13482020D01*
X11380092Y-13482020D02*
X11389615Y-13472496D01*
X11389615Y-13472496D02*
X11389615Y-13491544D01*
X11389615Y-13367734D02*
X11399139Y-13377258D01*
X11399139Y-13377258D02*
X11389615Y-13386782D01*
X11389615Y-13386782D02*
X11380092Y-13377258D01*
X11380092Y-13377258D02*
X11389615Y-13367734D01*
X11389615Y-13367734D02*
X11389615Y-13386782D01*
D13*
X9692410Y-13787560D02*
X9757410Y-13852560D01*
X9757410Y-13787560D02*
X9692410Y-13852560D01*
D12*
X10056282Y-13711544D02*
X10075330Y-13711544D01*
X10075330Y-13711544D02*
X10094377Y-13721068D01*
X10094377Y-13721068D02*
X10103901Y-13730591D01*
X10103901Y-13730591D02*
X10113425Y-13749639D01*
X10113425Y-13749639D02*
X10122949Y-13787734D01*
X10122949Y-13787734D02*
X10122949Y-13835353D01*
X10122949Y-13835353D02*
X10113425Y-13873448D01*
X10113425Y-13873448D02*
X10103901Y-13892496D01*
X10103901Y-13892496D02*
X10094377Y-13902020D01*
X10094377Y-13902020D02*
X10075330Y-13911544D01*
X10075330Y-13911544D02*
X10056282Y-13911544D01*
X10056282Y-13911544D02*
X10037234Y-13902020D01*
X10037234Y-13902020D02*
X10027711Y-13892496D01*
X10027711Y-13892496D02*
X10018187Y-13873448D01*
X10018187Y-13873448D02*
X10008663Y-13835353D01*
X10008663Y-13835353D02*
X10008663Y-13787734D01*
X10008663Y-13787734D02*
X10018187Y-13749639D01*
X10018187Y-13749639D02*
X10027711Y-13730591D01*
X10027711Y-13730591D02*
X10037234Y-13721068D01*
X10037234Y-13721068D02*
X10056282Y-13711544D01*
X10208663Y-13892496D02*
X10218187Y-13902020D01*
X10218187Y-13902020D02*
X10208663Y-13911544D01*
X10208663Y-13911544D02*
X10199139Y-13902020D01*
X10199139Y-13902020D02*
X10208663Y-13892496D01*
X10208663Y-13892496D02*
X10208663Y-13911544D01*
X10389615Y-13711544D02*
X10351520Y-13711544D01*
X10351520Y-13711544D02*
X10332473Y-13721068D01*
X10332473Y-13721068D02*
X10322949Y-13730591D01*
X10322949Y-13730591D02*
X10303901Y-13759163D01*
X10303901Y-13759163D02*
X10294377Y-13797258D01*
X10294377Y-13797258D02*
X10294377Y-13873448D01*
X10294377Y-13873448D02*
X10303901Y-13892496D01*
X10303901Y-13892496D02*
X10313425Y-13902020D01*
X10313425Y-13902020D02*
X10332473Y-13911544D01*
X10332473Y-13911544D02*
X10370568Y-13911544D01*
X10370568Y-13911544D02*
X10389615Y-13902020D01*
X10389615Y-13902020D02*
X10399139Y-13892496D01*
X10399139Y-13892496D02*
X10408663Y-13873448D01*
X10408663Y-13873448D02*
X10408663Y-13825829D01*
X10408663Y-13825829D02*
X10399139Y-13806782D01*
X10399139Y-13806782D02*
X10389615Y-13797258D01*
X10389615Y-13797258D02*
X10370568Y-13787734D01*
X10370568Y-13787734D02*
X10332473Y-13787734D01*
X10332473Y-13787734D02*
X10313425Y-13797258D01*
X10313425Y-13797258D02*
X10303901Y-13806782D01*
X10303901Y-13806782D02*
X10294377Y-13825829D01*
X10589615Y-13711544D02*
X10494377Y-13711544D01*
X10494377Y-13711544D02*
X10484854Y-13806782D01*
X10484854Y-13806782D02*
X10494377Y-13797258D01*
X10494377Y-13797258D02*
X10513425Y-13787734D01*
X10513425Y-13787734D02*
X10561044Y-13787734D01*
X10561044Y-13787734D02*
X10580092Y-13797258D01*
X10580092Y-13797258D02*
X10589615Y-13806782D01*
X10589615Y-13806782D02*
X10599139Y-13825829D01*
X10599139Y-13825829D02*
X10599139Y-13873448D01*
X10599139Y-13873448D02*
X10589615Y-13892496D01*
X10589615Y-13892496D02*
X10580092Y-13902020D01*
X10580092Y-13902020D02*
X10561044Y-13911544D01*
X10561044Y-13911544D02*
X10513425Y-13911544D01*
X10513425Y-13911544D02*
X10494377Y-13902020D01*
X10494377Y-13902020D02*
X10484854Y-13892496D01*
X10722949Y-13711544D02*
X10741996Y-13711544D01*
X10741996Y-13711544D02*
X10761044Y-13721068D01*
X10761044Y-13721068D02*
X10770568Y-13730591D01*
X10770568Y-13730591D02*
X10780092Y-13749639D01*
X10780092Y-13749639D02*
X10789615Y-13787734D01*
X10789615Y-13787734D02*
X10789615Y-13835353D01*
X10789615Y-13835353D02*
X10780092Y-13873448D01*
X10780092Y-13873448D02*
X10770568Y-13892496D01*
X10770568Y-13892496D02*
X10761044Y-13902020D01*
X10761044Y-13902020D02*
X10741996Y-13911544D01*
X10741996Y-13911544D02*
X10722949Y-13911544D01*
X10722949Y-13911544D02*
X10703901Y-13902020D01*
X10703901Y-13902020D02*
X10694377Y-13892496D01*
X10694377Y-13892496D02*
X10684854Y-13873448D01*
X10684854Y-13873448D02*
X10675330Y-13835353D01*
X10675330Y-13835353D02*
X10675330Y-13787734D01*
X10675330Y-13787734D02*
X10684854Y-13749639D01*
X10684854Y-13749639D02*
X10694377Y-13730591D01*
X10694377Y-13730591D02*
X10703901Y-13721068D01*
X10703901Y-13721068D02*
X10722949Y-13711544D01*
X10875330Y-13911544D02*
X10875330Y-13778210D01*
X10875330Y-13797258D02*
X10884854Y-13787734D01*
X10884854Y-13787734D02*
X10903901Y-13778210D01*
X10903901Y-13778210D02*
X10932473Y-13778210D01*
X10932473Y-13778210D02*
X10951520Y-13787734D01*
X10951520Y-13787734D02*
X10961044Y-13806782D01*
X10961044Y-13806782D02*
X10961044Y-13911544D01*
X10961044Y-13806782D02*
X10970568Y-13787734D01*
X10970568Y-13787734D02*
X10989615Y-13778210D01*
X10989615Y-13778210D02*
X11018187Y-13778210D01*
X11018187Y-13778210D02*
X11037235Y-13787734D01*
X11037235Y-13787734D02*
X11046758Y-13806782D01*
X11046758Y-13806782D02*
X11046758Y-13911544D01*
X11141996Y-13911544D02*
X11141996Y-13778210D01*
X11141996Y-13797258D02*
X11151520Y-13787734D01*
X11151520Y-13787734D02*
X11170568Y-13778210D01*
X11170568Y-13778210D02*
X11199139Y-13778210D01*
X11199139Y-13778210D02*
X11218187Y-13787734D01*
X11218187Y-13787734D02*
X11227711Y-13806782D01*
X11227711Y-13806782D02*
X11227711Y-13911544D01*
X11227711Y-13806782D02*
X11237234Y-13787734D01*
X11237234Y-13787734D02*
X11256282Y-13778210D01*
X11256282Y-13778210D02*
X11284853Y-13778210D01*
X11284853Y-13778210D02*
X11303901Y-13787734D01*
X11303901Y-13787734D02*
X11313425Y-13806782D01*
X11313425Y-13806782D02*
X11313425Y-13911544D01*
X11703901Y-13702020D02*
X11532473Y-13959163D01*
X11961044Y-13711544D02*
X11980092Y-13711544D01*
X11980092Y-13711544D02*
X11999139Y-13721068D01*
X11999139Y-13721068D02*
X12008663Y-13730591D01*
X12008663Y-13730591D02*
X12018187Y-13749639D01*
X12018187Y-13749639D02*
X12027711Y-13787734D01*
X12027711Y-13787734D02*
X12027711Y-13835353D01*
X12027711Y-13835353D02*
X12018187Y-13873448D01*
X12018187Y-13873448D02*
X12008663Y-13892496D01*
X12008663Y-13892496D02*
X11999139Y-13902020D01*
X11999139Y-13902020D02*
X11980092Y-13911544D01*
X11980092Y-13911544D02*
X11961044Y-13911544D01*
X11961044Y-13911544D02*
X11941996Y-13902020D01*
X11941996Y-13902020D02*
X11932473Y-13892496D01*
X11932473Y-13892496D02*
X11922949Y-13873448D01*
X11922949Y-13873448D02*
X11913425Y-13835353D01*
X11913425Y-13835353D02*
X11913425Y-13787734D01*
X11913425Y-13787734D02*
X11922949Y-13749639D01*
X11922949Y-13749639D02*
X11932473Y-13730591D01*
X11932473Y-13730591D02*
X11941996Y-13721068D01*
X11941996Y-13721068D02*
X11961044Y-13711544D01*
X12113425Y-13892496D02*
X12122949Y-13902020D01*
X12122949Y-13902020D02*
X12113425Y-13911544D01*
X12113425Y-13911544D02*
X12103901Y-13902020D01*
X12103901Y-13902020D02*
X12113425Y-13892496D01*
X12113425Y-13892496D02*
X12113425Y-13911544D01*
X12246758Y-13711544D02*
X12265806Y-13711544D01*
X12265806Y-13711544D02*
X12284854Y-13721068D01*
X12284854Y-13721068D02*
X12294377Y-13730591D01*
X12294377Y-13730591D02*
X12303901Y-13749639D01*
X12303901Y-13749639D02*
X12313425Y-13787734D01*
X12313425Y-13787734D02*
X12313425Y-13835353D01*
X12313425Y-13835353D02*
X12303901Y-13873448D01*
X12303901Y-13873448D02*
X12294377Y-13892496D01*
X12294377Y-13892496D02*
X12284854Y-13902020D01*
X12284854Y-13902020D02*
X12265806Y-13911544D01*
X12265806Y-13911544D02*
X12246758Y-13911544D01*
X12246758Y-13911544D02*
X12227711Y-13902020D01*
X12227711Y-13902020D02*
X12218187Y-13892496D01*
X12218187Y-13892496D02*
X12208663Y-13873448D01*
X12208663Y-13873448D02*
X12199139Y-13835353D01*
X12199139Y-13835353D02*
X12199139Y-13787734D01*
X12199139Y-13787734D02*
X12208663Y-13749639D01*
X12208663Y-13749639D02*
X12218187Y-13730591D01*
X12218187Y-13730591D02*
X12227711Y-13721068D01*
X12227711Y-13721068D02*
X12246758Y-13711544D01*
X12389616Y-13730591D02*
X12399139Y-13721068D01*
X12399139Y-13721068D02*
X12418187Y-13711544D01*
X12418187Y-13711544D02*
X12465806Y-13711544D01*
X12465806Y-13711544D02*
X12484854Y-13721068D01*
X12484854Y-13721068D02*
X12494377Y-13730591D01*
X12494377Y-13730591D02*
X12503901Y-13749639D01*
X12503901Y-13749639D02*
X12503901Y-13768687D01*
X12503901Y-13768687D02*
X12494377Y-13797258D01*
X12494377Y-13797258D02*
X12380092Y-13911544D01*
X12380092Y-13911544D02*
X12503901Y-13911544D01*
X12684854Y-13711544D02*
X12589616Y-13711544D01*
X12589616Y-13711544D02*
X12580092Y-13806782D01*
X12580092Y-13806782D02*
X12589616Y-13797258D01*
X12589616Y-13797258D02*
X12608663Y-13787734D01*
X12608663Y-13787734D02*
X12656282Y-13787734D01*
X12656282Y-13787734D02*
X12675330Y-13797258D01*
X12675330Y-13797258D02*
X12684854Y-13806782D01*
X12684854Y-13806782D02*
X12694377Y-13825829D01*
X12694377Y-13825829D02*
X12694377Y-13873448D01*
X12694377Y-13873448D02*
X12684854Y-13892496D01*
X12684854Y-13892496D02*
X12675330Y-13902020D01*
X12675330Y-13902020D02*
X12656282Y-13911544D01*
X12656282Y-13911544D02*
X12608663Y-13911544D01*
X12608663Y-13911544D02*
X12589616Y-13902020D01*
X12589616Y-13902020D02*
X12580092Y-13892496D01*
X12865806Y-13711544D02*
X12827711Y-13711544D01*
X12827711Y-13711544D02*
X12808663Y-13721068D01*
X12808663Y-13721068D02*
X12799139Y-13730591D01*
X12799139Y-13730591D02*
X12780092Y-13759163D01*
X12780092Y-13759163D02*
X12770568Y-13797258D01*
X12770568Y-13797258D02*
X12770568Y-13873448D01*
X12770568Y-13873448D02*
X12780092Y-13892496D01*
X12780092Y-13892496D02*
X12789616Y-13902020D01*
X12789616Y-13902020D02*
X12808663Y-13911544D01*
X12808663Y-13911544D02*
X12846758Y-13911544D01*
X12846758Y-13911544D02*
X12865806Y-13902020D01*
X12865806Y-13902020D02*
X12875330Y-13892496D01*
X12875330Y-13892496D02*
X12884854Y-13873448D01*
X12884854Y-13873448D02*
X12884854Y-13825829D01*
X12884854Y-13825829D02*
X12875330Y-13806782D01*
X12875330Y-13806782D02*
X12865806Y-13797258D01*
X12865806Y-13797258D02*
X12846758Y-13787734D01*
X12846758Y-13787734D02*
X12808663Y-13787734D01*
X12808663Y-13787734D02*
X12789616Y-13797258D01*
X12789616Y-13797258D02*
X12780092Y-13806782D01*
X12780092Y-13806782D02*
X12770568Y-13825829D01*
X12961044Y-13711544D02*
X12961044Y-13749639D01*
X13037235Y-13711544D02*
X13037235Y-13749639D01*
X13332473Y-13987734D02*
X13322949Y-13978210D01*
X13322949Y-13978210D02*
X13303901Y-13949639D01*
X13303901Y-13949639D02*
X13294378Y-13930591D01*
X13294378Y-13930591D02*
X13284854Y-13902020D01*
X13284854Y-13902020D02*
X13275330Y-13854401D01*
X13275330Y-13854401D02*
X13275330Y-13816306D01*
X13275330Y-13816306D02*
X13284854Y-13768687D01*
X13284854Y-13768687D02*
X13294378Y-13740115D01*
X13294378Y-13740115D02*
X13303901Y-13721068D01*
X13303901Y-13721068D02*
X13322949Y-13692496D01*
X13322949Y-13692496D02*
X13332473Y-13682972D01*
X13399139Y-13730591D02*
X13408663Y-13721068D01*
X13408663Y-13721068D02*
X13427711Y-13711544D01*
X13427711Y-13711544D02*
X13475330Y-13711544D01*
X13475330Y-13711544D02*
X13494378Y-13721068D01*
X13494378Y-13721068D02*
X13503901Y-13730591D01*
X13503901Y-13730591D02*
X13513425Y-13749639D01*
X13513425Y-13749639D02*
X13513425Y-13768687D01*
X13513425Y-13768687D02*
X13503901Y-13797258D01*
X13503901Y-13797258D02*
X13389616Y-13911544D01*
X13389616Y-13911544D02*
X13513425Y-13911544D01*
X13751520Y-13911544D02*
X13751520Y-13711544D01*
X13837235Y-13911544D02*
X13837235Y-13806782D01*
X13837235Y-13806782D02*
X13827711Y-13787734D01*
X13827711Y-13787734D02*
X13808663Y-13778210D01*
X13808663Y-13778210D02*
X13780092Y-13778210D01*
X13780092Y-13778210D02*
X13761044Y-13787734D01*
X13761044Y-13787734D02*
X13751520Y-13797258D01*
X13961044Y-13911544D02*
X13941997Y-13902020D01*
X13941997Y-13902020D02*
X13932473Y-13892496D01*
X13932473Y-13892496D02*
X13922949Y-13873448D01*
X13922949Y-13873448D02*
X13922949Y-13816306D01*
X13922949Y-13816306D02*
X13932473Y-13797258D01*
X13932473Y-13797258D02*
X13941997Y-13787734D01*
X13941997Y-13787734D02*
X13961044Y-13778210D01*
X13961044Y-13778210D02*
X13989616Y-13778210D01*
X13989616Y-13778210D02*
X14008663Y-13787734D01*
X14008663Y-13787734D02*
X14018187Y-13797258D01*
X14018187Y-13797258D02*
X14027711Y-13816306D01*
X14027711Y-13816306D02*
X14027711Y-13873448D01*
X14027711Y-13873448D02*
X14018187Y-13892496D01*
X14018187Y-13892496D02*
X14008663Y-13902020D01*
X14008663Y-13902020D02*
X13989616Y-13911544D01*
X13989616Y-13911544D02*
X13961044Y-13911544D01*
X14141997Y-13911544D02*
X14122949Y-13902020D01*
X14122949Y-13902020D02*
X14113425Y-13882972D01*
X14113425Y-13882972D02*
X14113425Y-13711544D01*
X14294378Y-13902020D02*
X14275330Y-13911544D01*
X14275330Y-13911544D02*
X14237235Y-13911544D01*
X14237235Y-13911544D02*
X14218187Y-13902020D01*
X14218187Y-13902020D02*
X14208663Y-13882972D01*
X14208663Y-13882972D02*
X14208663Y-13806782D01*
X14208663Y-13806782D02*
X14218187Y-13787734D01*
X14218187Y-13787734D02*
X14237235Y-13778210D01*
X14237235Y-13778210D02*
X14275330Y-13778210D01*
X14275330Y-13778210D02*
X14294378Y-13787734D01*
X14294378Y-13787734D02*
X14303901Y-13806782D01*
X14303901Y-13806782D02*
X14303901Y-13825829D01*
X14303901Y-13825829D02*
X14208663Y-13844877D01*
X14380092Y-13902020D02*
X14399140Y-13911544D01*
X14399140Y-13911544D02*
X14437235Y-13911544D01*
X14437235Y-13911544D02*
X14456282Y-13902020D01*
X14456282Y-13902020D02*
X14465806Y-13882972D01*
X14465806Y-13882972D02*
X14465806Y-13873448D01*
X14465806Y-13873448D02*
X14456282Y-13854401D01*
X14456282Y-13854401D02*
X14437235Y-13844877D01*
X14437235Y-13844877D02*
X14408663Y-13844877D01*
X14408663Y-13844877D02*
X14389616Y-13835353D01*
X14389616Y-13835353D02*
X14380092Y-13816306D01*
X14380092Y-13816306D02*
X14380092Y-13806782D01*
X14380092Y-13806782D02*
X14389616Y-13787734D01*
X14389616Y-13787734D02*
X14408663Y-13778210D01*
X14408663Y-13778210D02*
X14437235Y-13778210D01*
X14437235Y-13778210D02*
X14456282Y-13787734D01*
X14532473Y-13987734D02*
X14541997Y-13978210D01*
X14541997Y-13978210D02*
X14561044Y-13949639D01*
X14561044Y-13949639D02*
X14570568Y-13930591D01*
X14570568Y-13930591D02*
X14580092Y-13902020D01*
X14580092Y-13902020D02*
X14589616Y-13854401D01*
X14589616Y-13854401D02*
X14589616Y-13816306D01*
X14589616Y-13816306D02*
X14580092Y-13768687D01*
X14580092Y-13768687D02*
X14570568Y-13740115D01*
X14570568Y-13740115D02*
X14561044Y-13721068D01*
X14561044Y-13721068D02*
X14541997Y-13692496D01*
X14541997Y-13692496D02*
X14532473Y-13682972D01*
X14894378Y-13987734D02*
X14884854Y-13978210D01*
X14884854Y-13978210D02*
X14865806Y-13949639D01*
X14865806Y-13949639D02*
X14856282Y-13930591D01*
X14856282Y-13930591D02*
X14846759Y-13902020D01*
X14846759Y-13902020D02*
X14837235Y-13854401D01*
X14837235Y-13854401D02*
X14837235Y-13816306D01*
X14837235Y-13816306D02*
X14846759Y-13768687D01*
X14846759Y-13768687D02*
X14856282Y-13740115D01*
X14856282Y-13740115D02*
X14865806Y-13721068D01*
X14865806Y-13721068D02*
X14884854Y-13692496D01*
X14884854Y-13692496D02*
X14894378Y-13682972D01*
X14970568Y-13778210D02*
X14970568Y-13911544D01*
X14970568Y-13797258D02*
X14980092Y-13787734D01*
X14980092Y-13787734D02*
X14999140Y-13778210D01*
X14999140Y-13778210D02*
X15027711Y-13778210D01*
X15027711Y-13778210D02*
X15046759Y-13787734D01*
X15046759Y-13787734D02*
X15056282Y-13806782D01*
X15056282Y-13806782D02*
X15056282Y-13911544D01*
X15180092Y-13911544D02*
X15161044Y-13902020D01*
X15161044Y-13902020D02*
X15151521Y-13892496D01*
X15151521Y-13892496D02*
X15141997Y-13873448D01*
X15141997Y-13873448D02*
X15141997Y-13816306D01*
X15141997Y-13816306D02*
X15151521Y-13797258D01*
X15151521Y-13797258D02*
X15161044Y-13787734D01*
X15161044Y-13787734D02*
X15180092Y-13778210D01*
X15180092Y-13778210D02*
X15208663Y-13778210D01*
X15208663Y-13778210D02*
X15227711Y-13787734D01*
X15227711Y-13787734D02*
X15237235Y-13797258D01*
X15237235Y-13797258D02*
X15246759Y-13816306D01*
X15246759Y-13816306D02*
X15246759Y-13873448D01*
X15246759Y-13873448D02*
X15237235Y-13892496D01*
X15237235Y-13892496D02*
X15227711Y-13902020D01*
X15227711Y-13902020D02*
X15208663Y-13911544D01*
X15208663Y-13911544D02*
X15180092Y-13911544D01*
X15303902Y-13778210D02*
X15380092Y-13778210D01*
X15332473Y-13711544D02*
X15332473Y-13882972D01*
X15332473Y-13882972D02*
X15341997Y-13902020D01*
X15341997Y-13902020D02*
X15361044Y-13911544D01*
X15361044Y-13911544D02*
X15380092Y-13911544D01*
X15599140Y-13778210D02*
X15599140Y-13978210D01*
X15599140Y-13787734D02*
X15618187Y-13778210D01*
X15618187Y-13778210D02*
X15656283Y-13778210D01*
X15656283Y-13778210D02*
X15675330Y-13787734D01*
X15675330Y-13787734D02*
X15684854Y-13797258D01*
X15684854Y-13797258D02*
X15694378Y-13816306D01*
X15694378Y-13816306D02*
X15694378Y-13873448D01*
X15694378Y-13873448D02*
X15684854Y-13892496D01*
X15684854Y-13892496D02*
X15675330Y-13902020D01*
X15675330Y-13902020D02*
X15656283Y-13911544D01*
X15656283Y-13911544D02*
X15618187Y-13911544D01*
X15618187Y-13911544D02*
X15599140Y-13902020D01*
X15808663Y-13911544D02*
X15789616Y-13902020D01*
X15789616Y-13902020D02*
X15780092Y-13882972D01*
X15780092Y-13882972D02*
X15780092Y-13711544D01*
X15970568Y-13911544D02*
X15970568Y-13806782D01*
X15970568Y-13806782D02*
X15961044Y-13787734D01*
X15961044Y-13787734D02*
X15941997Y-13778210D01*
X15941997Y-13778210D02*
X15903902Y-13778210D01*
X15903902Y-13778210D02*
X15884854Y-13787734D01*
X15970568Y-13902020D02*
X15951521Y-13911544D01*
X15951521Y-13911544D02*
X15903902Y-13911544D01*
X15903902Y-13911544D02*
X15884854Y-13902020D01*
X15884854Y-13902020D02*
X15875330Y-13882972D01*
X15875330Y-13882972D02*
X15875330Y-13863925D01*
X15875330Y-13863925D02*
X15884854Y-13844877D01*
X15884854Y-13844877D02*
X15903902Y-13835353D01*
X15903902Y-13835353D02*
X15951521Y-13835353D01*
X15951521Y-13835353D02*
X15970568Y-13825829D01*
X16037235Y-13778210D02*
X16113425Y-13778210D01*
X16065806Y-13711544D02*
X16065806Y-13882972D01*
X16065806Y-13882972D02*
X16075330Y-13902020D01*
X16075330Y-13902020D02*
X16094378Y-13911544D01*
X16094378Y-13911544D02*
X16113425Y-13911544D01*
X16256283Y-13902020D02*
X16237235Y-13911544D01*
X16237235Y-13911544D02*
X16199140Y-13911544D01*
X16199140Y-13911544D02*
X16180092Y-13902020D01*
X16180092Y-13902020D02*
X16170568Y-13882972D01*
X16170568Y-13882972D02*
X16170568Y-13806782D01*
X16170568Y-13806782D02*
X16180092Y-13787734D01*
X16180092Y-13787734D02*
X16199140Y-13778210D01*
X16199140Y-13778210D02*
X16237235Y-13778210D01*
X16237235Y-13778210D02*
X16256283Y-13787734D01*
X16256283Y-13787734D02*
X16265806Y-13806782D01*
X16265806Y-13806782D02*
X16265806Y-13825829D01*
X16265806Y-13825829D02*
X16170568Y-13844877D01*
X16437235Y-13911544D02*
X16437235Y-13711544D01*
X16437235Y-13902020D02*
X16418187Y-13911544D01*
X16418187Y-13911544D02*
X16380092Y-13911544D01*
X16380092Y-13911544D02*
X16361044Y-13902020D01*
X16361044Y-13902020D02*
X16351521Y-13892496D01*
X16351521Y-13892496D02*
X16341997Y-13873448D01*
X16341997Y-13873448D02*
X16341997Y-13816306D01*
X16341997Y-13816306D02*
X16351521Y-13797258D01*
X16351521Y-13797258D02*
X16361044Y-13787734D01*
X16361044Y-13787734D02*
X16380092Y-13778210D01*
X16380092Y-13778210D02*
X16418187Y-13778210D01*
X16418187Y-13778210D02*
X16437235Y-13787734D01*
X16513425Y-13987734D02*
X16522949Y-13978210D01*
X16522949Y-13978210D02*
X16541997Y-13949639D01*
X16541997Y-13949639D02*
X16551521Y-13930591D01*
X16551521Y-13930591D02*
X16561044Y-13902020D01*
X16561044Y-13902020D02*
X16570568Y-13854401D01*
X16570568Y-13854401D02*
X16570568Y-13816306D01*
X16570568Y-13816306D02*
X16561044Y-13768687D01*
X16561044Y-13768687D02*
X16551521Y-13740115D01*
X16551521Y-13740115D02*
X16541997Y-13721068D01*
X16541997Y-13721068D02*
X16522949Y-13692496D01*
X16522949Y-13692496D02*
X16513425Y-13682972D01*
M02*
