%TF.GenerationSoftware,KiCad,Pcbnew,10.0.0*%
%TF.CreationDate,2026-09-10T15:11:40-06:00*%
%TF.ProjectId,Arduino Mega 2560,41726475-696e-46f2-904d-656761203235,1*%
%TF.SameCoordinates,Original*%
%TF.FileFunction,Plated,1,2,PTH,Mixed*%
%TF.FilePolarity,Positive*%
%FSLAX46Y46*%
G04 Gerber Fmt 4.6, Leading zero omitted, Abs format (unit mm)*
G04 Created by KiCad (PCBNEW 10.0.0) date 2026-09-10 15:11:40*
%MOMM*%
%LPD*%
G01*
G04 APERTURE LIST*
%TA.AperFunction,ViaDrill*%
%ADD10C,0.300000*%
%TD*%
%TA.AperFunction,ViaDrill*%
%ADD11C,0.406400*%
%TD*%
G04 aperture for slot hole*
%TA.AperFunction,ComponentDrill*%
%ADD12C,0.600000*%
%TD*%
%TA.AperFunction,ViaDrill*%
%ADD13C,0.609600*%
%TD*%
%TA.AperFunction,ComponentDrill*%
%ADD14C,0.800000*%
%TD*%
%TA.AperFunction,ComponentDrill*%
%ADD15C,0.914400*%
%TD*%
G04 aperture for slot hole*
%TA.AperFunction,ComponentDrill*%
%ADD16C,1.000000*%
%TD*%
%TA.AperFunction,ComponentDrill*%
%ADD17C,1.000000*%
%TD*%
G04 APERTURE END LIST*
D10*
X106426000Y-93910800D03*
X106850000Y-96000000D03*
X107350000Y-92500000D03*
X107984345Y-95319883D03*
D11*
X98945900Y-88531600D03*
X100266700Y-109435800D03*
X100266700Y-117690800D03*
X102171700Y-109435800D03*
X102171700Y-117690800D03*
X104076700Y-109435800D03*
X104076700Y-117690800D03*
X105981700Y-109435800D03*
X105981700Y-117690800D03*
X106616700Y-111975800D03*
X106616700Y-115785800D03*
X112966700Y-101307800D03*
X113919200Y-91846300D03*
X114236700Y-116420800D03*
X115633700Y-112864800D03*
X120205700Y-85305800D03*
X120332700Y-100418800D03*
X121475700Y-93433800D03*
X121602700Y-115277800D03*
X121729700Y-124294800D03*
X122364700Y-91528800D03*
X122364700Y-109689800D03*
X123507700Y-113499800D03*
X125793700Y-103593800D03*
X125793700Y-119468800D03*
X125920700Y-85813800D03*
X126936700Y-126707800D03*
X128206700Y-84924800D03*
X128333700Y-94195800D03*
X128587700Y-90893800D03*
X129222700Y-95338800D03*
X129222700Y-122262800D03*
X129349700Y-117055800D03*
X129984700Y-115277800D03*
X132397700Y-121500800D03*
X135064700Y-114642800D03*
X136944300Y-93332200D03*
X137452300Y-91960600D03*
X137477700Y-102831800D03*
X137604700Y-107530800D03*
X138620700Y-106514800D03*
X138747700Y-102831800D03*
X139154100Y-87134600D03*
X139154100Y-88328400D03*
X140017700Y-91249400D03*
X142303700Y-108673800D03*
X142557700Y-91528800D03*
X142659300Y-87134600D03*
X142659300Y-88328400D03*
X142938700Y-106260800D03*
X143192700Y-92798800D03*
X143827700Y-91655800D03*
X144581700Y-123397800D03*
X144716700Y-90766800D03*
X144970700Y-83654800D03*
X145605700Y-89877800D03*
X146494700Y-88988800D03*
X146748700Y-123024800D03*
X146951900Y-92290800D03*
X146956700Y-121373800D03*
X147129700Y-120103800D03*
X147383700Y-88099800D03*
X148145700Y-89369800D03*
X148145700Y-91147800D03*
X148399700Y-121535800D03*
X149034700Y-88480800D03*
X149669700Y-89623800D03*
X150050700Y-87591800D03*
X150939700Y-88480800D03*
X151828700Y-87464800D03*
X152336700Y-89623800D03*
X152336700Y-91401800D03*
X152971700Y-92798800D03*
X153479700Y-99783800D03*
X153479700Y-101942800D03*
X154216300Y-97497800D03*
X154749700Y-104990800D03*
X156781700Y-110197800D03*
X156781700Y-112991800D03*
X157670700Y-112102800D03*
X157797700Y-84924800D03*
X158051700Y-102577800D03*
X158305700Y-110959800D03*
X158559700Y-100291800D03*
X158559700Y-103847800D03*
X158559700Y-109181800D03*
X159448700Y-83248400D03*
X160871100Y-97523200D03*
X163004700Y-84289800D03*
X164528700Y-84289800D03*
X167525900Y-108115000D03*
X169735700Y-112483800D03*
X170370700Y-113753800D03*
X171640700Y-120738800D03*
X171767700Y-114007800D03*
X173037700Y-114769800D03*
X173545700Y-121500800D03*
X173688700Y-93036800D03*
X176339700Y-122897800D03*
X176466700Y-92671800D03*
X177863700Y-84924800D03*
X178752700Y-122897800D03*
X179133700Y-92544800D03*
X181165700Y-92544800D03*
%TO.C,J1*%
D12*
X100061700Y-89240800D02*
X100861700Y-89240800D01*
X100061700Y-97880800D02*
X100861700Y-97880800D01*
X104091700Y-89240800D02*
X105191700Y-89240800D01*
X104091700Y-97880800D02*
X105191700Y-97880800D01*
%TD*%
D13*
X103949700Y-80632200D03*
X106616700Y-102450800D03*
X110452100Y-103924000D03*
X110782300Y-109105600D03*
X111112500Y-118198800D03*
X111645900Y-99199600D03*
X114744700Y-85432800D03*
X115989300Y-105625800D03*
X119723100Y-120992800D03*
X120078700Y-109435800D03*
X121856700Y-105117800D03*
X123025100Y-89877800D03*
X123253700Y-107403800D03*
X123914100Y-128079400D03*
X129197300Y-102527000D03*
X129959300Y-110629600D03*
X135445700Y-107022800D03*
X135877500Y-102485600D03*
X135902900Y-110401000D03*
X138493700Y-110401000D03*
X139433500Y-96304000D03*
X141398700Y-80860800D03*
X142341600Y-100787200D03*
X142633900Y-104457400D03*
X142659300Y-102806400D03*
X142938700Y-98259800D03*
X143446700Y-121015400D03*
X146113700Y-125993800D03*
X152844700Y-103720800D03*
X155714900Y-111213800D03*
X156019700Y-90258800D03*
X160574300Y-111610000D03*
X163614300Y-80505200D03*
X164071500Y-92163800D03*
X166421900Y-111610000D03*
X167179300Y-99563400D03*
X167246500Y-104508200D03*
X170192900Y-104076400D03*
X170218300Y-95948400D03*
X174155300Y-84315200D03*
X174688700Y-113618800D03*
X175196700Y-104127200D03*
X185356700Y-93052800D03*
X186779100Y-109562800D03*
X197202500Y-120129200D03*
X197278700Y-94780000D03*
D14*
%TO.C,Y2*%
X113711700Y-105625800D03*
X118591700Y-105625800D03*
D15*
%TO.C,J3*%
X116014700Y-89242800D03*
X116014700Y-91782800D03*
X118554700Y-89242800D03*
X118554700Y-91782800D03*
%TO.C,J4*%
D16*
X103060700Y-124275800D02*
X103060700Y-122275800D01*
X107060700Y-127975800D02*
X105060700Y-127975800D01*
X109260700Y-124525800D02*
X109260700Y-122025800D01*
D17*
%TO.C,J2*%
X113474700Y-84162800D03*
X113474700Y-86702800D03*
X116014700Y-84162800D03*
X116014700Y-86702800D03*
%TO.C,J6*%
X116522700Y-80860800D03*
%TO.C,J2*%
X118554700Y-84162800D03*
X118554700Y-86702800D03*
%TO.C,J6*%
X119062700Y-80860800D03*
X121602700Y-80860800D03*
X124142700Y-80860800D03*
%TO.C,J11*%
X125666700Y-129120800D03*
%TO.C,J6*%
X126682700Y-80860800D03*
%TO.C,J11*%
X128206700Y-129120800D03*
%TO.C,J6*%
X129222700Y-80860800D03*
%TO.C,J11*%
X130746700Y-129120800D03*
%TO.C,J6*%
X131762700Y-80860800D03*
%TO.C,J11*%
X133286700Y-129120800D03*
%TO.C,J6*%
X134302700Y-80860800D03*
%TO.C,J11*%
X135826700Y-129120800D03*
%TO.C,J6*%
X136842700Y-80860800D03*
%TO.C,J11*%
X138366700Y-129120800D03*
%TO.C,J6*%
X139382700Y-80860800D03*
%TO.C,J11*%
X140906700Y-129120800D03*
%TO.C,J7*%
X143446700Y-80860800D03*
%TO.C,J11*%
X143446700Y-129120800D03*
%TO.C,J7*%
X145986700Y-80860800D03*
X148526700Y-80860800D03*
%TO.C,J10*%
X148526700Y-129120800D03*
%TO.C,J7*%
X151066700Y-80860800D03*
%TO.C,J10*%
X151066700Y-129120800D03*
%TO.C,J7*%
X153606700Y-80860800D03*
%TO.C,J10*%
X153606700Y-129120800D03*
%TO.C,J7*%
X156146700Y-80860800D03*
%TO.C,J10*%
X156146700Y-129120800D03*
%TO.C,J7*%
X158686700Y-80860800D03*
%TO.C,J10*%
X158686700Y-129120800D03*
%TO.C,J7*%
X161226700Y-80860800D03*
%TO.C,J10*%
X161226700Y-129120800D03*
%TO.C,J12*%
X161353700Y-101180800D03*
X161353700Y-103720800D03*
X161353700Y-106260800D03*
%TO.C,J10*%
X163766700Y-129120800D03*
%TO.C,J12*%
X163893700Y-101180800D03*
X163893700Y-103720800D03*
X163893700Y-106260800D03*
%TO.C,J8*%
X166306700Y-80860800D03*
%TO.C,J10*%
X166306700Y-129120800D03*
%TO.C,J8*%
X168846700Y-80860800D03*
X171386700Y-80860800D03*
%TO.C,J9*%
X171386700Y-129120800D03*
%TO.C,J8*%
X173926700Y-80860800D03*
%TO.C,J9*%
X173926700Y-129120800D03*
%TO.C,J8*%
X176466700Y-80860800D03*
%TO.C,J9*%
X176466700Y-129120800D03*
%TO.C,J8*%
X179006700Y-80860800D03*
%TO.C,J9*%
X179006700Y-129120800D03*
%TO.C,J8*%
X181546700Y-80860800D03*
%TO.C,J9*%
X181546700Y-129120800D03*
%TO.C,J8*%
X184086700Y-80860800D03*
%TO.C,J9*%
X184086700Y-129120800D03*
X186626700Y-129120800D03*
X189166700Y-129120800D03*
%TO.C,J5*%
X191701700Y-80875800D03*
X191701700Y-83415800D03*
X191701700Y-85955800D03*
X191701700Y-88495800D03*
X191701700Y-91035800D03*
X191701700Y-93575800D03*
X191701700Y-96115800D03*
X191701700Y-98655800D03*
X191701700Y-101195800D03*
X191701700Y-103735800D03*
X191701700Y-106275800D03*
X191701700Y-108815800D03*
X191701700Y-111355800D03*
X191701700Y-113895800D03*
X191701700Y-116435800D03*
X191701700Y-118975800D03*
X191701700Y-121515800D03*
X191701700Y-124055800D03*
X194241700Y-80875800D03*
X194241700Y-83415800D03*
X194241700Y-85955800D03*
X194241700Y-88495800D03*
X194241700Y-91035800D03*
X194241700Y-93575800D03*
X194241700Y-96115800D03*
X194241700Y-98655800D03*
X194241700Y-101195800D03*
X194241700Y-103735800D03*
X194241700Y-106275800D03*
X194241700Y-108815800D03*
X194241700Y-111355800D03*
X194241700Y-113895800D03*
X194241700Y-116435800D03*
X194241700Y-118975800D03*
X194241700Y-121515800D03*
X194241700Y-124055800D03*
M02*
