%TF.GenerationSoftware,KiCad,Pcbnew,10.0.0*%
%TF.CreationDate,2026-09-10T15:11:46-06:00*%
%TF.ProjectId,Arduino Mega 2560,41726475-696e-46f2-904d-656761203235,1*%
%TF.SameCoordinates,Original*%
%TF.FileFunction,Soldermask,Top*%
%TF.FilePolarity,Negative*%
%FSLAX46Y46*%
G04 Gerber Fmt 4.6, Leading zero omitted, Abs format (unit mm)*
G04 Created by KiCad (PCBNEW 10.0.0) date 2026-09-10 15:11:46*
%MOMM*%
%LPD*%
G01*
G04 APERTURE LIST*
G04 Aperture macros list*
%AMRoundRect*
0 Rectangle with rounded corners*
0 $1 Rounding radius*
0 $2 $3 $4 $5 $6 $7 $8 $9 X,Y pos of 4 corners*
0 Add a 4 corners polygon primitive as box body*
4,1,4,$2,$3,$4,$5,$6,$7,$8,$9,$2,$3,0*
0 Add four circle primitives for the rounded corners*
1,1,$1+$1,$2,$3*
1,1,$1+$1,$4,$5*
1,1,$1+$1,$6,$7*
1,1,$1+$1,$8,$9*
0 Add four rect primitives between the rounded corners*
20,1,$1+$1,$2,$3,$4,$5,0*
20,1,$1+$1,$4,$5,$6,$7,0*
20,1,$1+$1,$6,$7,$8,$9,0*
20,1,$1+$1,$8,$9,$2,$3,0*%
G04 Aperture macros list end*
%ADD10R,0.700000X0.640000*%
%ADD11R,0.700000X0.500000*%
%ADD12RoundRect,0.225000X0.225000X0.250000X-0.225000X0.250000X-0.225000X-0.250000X0.225000X-0.250000X0*%
%ADD13RoundRect,0.102000X-0.800000X1.600000X-0.800000X-1.600000X0.800000X-1.600000X0.800000X1.600000X0*%
%ADD14R,1.422400X1.422400*%
%ADD15C,1.422400*%
%ADD16RoundRect,0.200000X0.275000X-0.200000X0.275000X0.200000X-0.275000X0.200000X-0.275000X-0.200000X0*%
%ADD17R,1.700000X1.700000*%
%ADD18O,1.700000X1.700000*%
%ADD19RoundRect,0.250000X1.000000X0.900000X-1.000000X0.900000X-1.000000X-0.900000X1.000000X-0.900000X0*%
%ADD20RoundRect,0.225000X-0.250000X0.225000X-0.250000X-0.225000X0.250000X-0.225000X0.250000X0.225000X0*%
%ADD21RoundRect,0.100000X0.712500X0.100000X-0.712500X0.100000X-0.712500X-0.100000X0.712500X-0.100000X0*%
%ADD22RoundRect,0.375000X0.625000X0.375000X-0.625000X0.375000X-0.625000X-0.375000X0.625000X-0.375000X0*%
%ADD23RoundRect,0.500000X0.500000X1.400000X-0.500000X1.400000X-0.500000X-1.400000X0.500000X-1.400000X0*%
%ADD24C,3.000000*%
%ADD25RoundRect,0.062500X0.062500X-0.375000X0.062500X0.375000X-0.062500X0.375000X-0.062500X-0.375000X0*%
%ADD26RoundRect,0.062500X0.375000X-0.062500X0.375000X0.062500X-0.375000X0.062500X-0.375000X-0.062500X0*%
%ADD27R,3.100000X3.100000*%
%ADD28RoundRect,0.102000X-0.800000X-0.700000X0.800000X-0.700000X0.800000X0.700000X-0.800000X0.700000X0*%
%ADD29RoundRect,0.200000X0.250000X0.200000X-0.250000X0.200000X-0.250000X-0.200000X0.250000X-0.200000X0*%
%ADD30RoundRect,0.225000X-0.225000X-0.250000X0.225000X-0.250000X0.225000X0.250000X-0.225000X0.250000X0*%
%ADD31RoundRect,0.218750X0.218750X0.381250X-0.218750X0.381250X-0.218750X-0.381250X0.218750X-0.381250X0*%
%ADD32R,2.000000X4.500000*%
%ADD33O,2.000000X4.000000*%
%ADD34O,4.000000X2.000000*%
%ADD35RoundRect,0.250000X0.625000X-0.375000X0.625000X0.375000X-0.625000X0.375000X-0.625000X-0.375000X0*%
%ADD36RoundRect,0.200000X-0.275000X0.200000X-0.275000X-0.200000X0.275000X-0.200000X0.275000X0.200000X0*%
%ADD37RoundRect,0.200000X-0.200000X-0.275000X0.200000X-0.275000X0.200000X0.275000X-0.200000X0.275000X0*%
%ADD38R,1.900000X0.400000*%
%ADD39C,1.500000*%
%ADD40RoundRect,0.243750X-0.243750X-0.456250X0.243750X-0.456250X0.243750X0.456250X-0.243750X0.456250X0*%
%ADD41RoundRect,0.250000X1.450000X-0.400000X1.450000X0.400000X-1.450000X0.400000X-1.450000X-0.400000X0*%
%ADD42RoundRect,0.075000X-0.662500X-0.075000X0.662500X-0.075000X0.662500X0.075000X-0.662500X0.075000X0*%
%ADD43RoundRect,0.075000X-0.075000X-0.662500X0.075000X-0.662500X0.075000X0.662500X-0.075000X0.662500X0*%
%ADD44RoundRect,0.218750X-0.381250X0.218750X-0.381250X-0.218750X0.381250X-0.218750X0.381250X0.218750X0*%
%ADD45R,1.000000X1.500000*%
%ADD46C,0.650000*%
%ADD47RoundRect,0.150000X-0.425000X0.150000X-0.425000X-0.150000X0.425000X-0.150000X0.425000X0.150000X0*%
%ADD48RoundRect,0.075000X-0.500000X0.075000X-0.500000X-0.075000X0.500000X-0.075000X0.500000X0.075000X0*%
%ADD49O,2.100000X1.000000*%
%ADD50O,1.800000X1.000000*%
%ADD51RoundRect,0.150000X-0.150000X0.512500X-0.150000X-0.512500X0.150000X-0.512500X0.150000X0.512500X0*%
G04 APERTURE END LIST*
D10*
%TO.C,RN2*%
X110491700Y-95846800D03*
D11*
X110491700Y-94976800D03*
X110491700Y-94176800D03*
D10*
X110491700Y-93306800D03*
X109091700Y-93306800D03*
D11*
X109091700Y-94176800D03*
X109091700Y-94976800D03*
D10*
X109091700Y-95846800D03*
%TD*%
D12*
%TO.C,C16*%
X113741700Y-102323800D03*
X112191700Y-102323800D03*
%TD*%
D13*
%TO.C,C2*%
X123253700Y-120016800D03*
X123253700Y-125016800D03*
%TD*%
D12*
%TO.C,C14*%
X120091700Y-114515800D03*
X118541700Y-114515800D03*
%TD*%
D14*
%TO.C,J3*%
X118554700Y-91782800D03*
D15*
X116014700Y-91782800D03*
X118554700Y-89242800D03*
X116014700Y-89242800D03*
%TD*%
D16*
%TO.C,R1*%
X138239700Y-117880800D03*
X138239700Y-116230800D03*
%TD*%
D12*
%TO.C,C12*%
X113817900Y-94449800D03*
X112267900Y-94449800D03*
%TD*%
D17*
%TO.C,J10*%
X166306700Y-129120800D03*
D18*
X163766700Y-129120800D03*
X161226700Y-129120800D03*
X158686700Y-129120800D03*
X156146700Y-129120800D03*
X153606700Y-129120800D03*
X151066700Y-129120800D03*
X148526700Y-129120800D03*
%TD*%
D17*
%TO.C,J6*%
X116522700Y-80860800D03*
D18*
X119062700Y-80860800D03*
X121602700Y-80860800D03*
X124142700Y-80860800D03*
X126682700Y-80860800D03*
X129222700Y-80860800D03*
X131762700Y-80860800D03*
X134302700Y-80860800D03*
X136842700Y-80860800D03*
X139382700Y-80860800D03*
%TD*%
D10*
%TO.C,RN3*%
X124966700Y-91020800D03*
D11*
X124966700Y-91890800D03*
X124966700Y-92690800D03*
D10*
X124966700Y-93560800D03*
X126366700Y-93560800D03*
D11*
X126366700Y-92690800D03*
X126366700Y-91890800D03*
D10*
X126366700Y-91020800D03*
%TD*%
D17*
%TO.C,J11*%
X143446700Y-129120800D03*
D18*
X140906700Y-129120800D03*
X138366700Y-129120800D03*
X135826700Y-129120800D03*
X133286700Y-129120800D03*
X130746700Y-129120800D03*
X128206700Y-129120800D03*
X125666700Y-129120800D03*
%TD*%
D12*
%TO.C,C8*%
X138546700Y-101241800D03*
X136996700Y-101241800D03*
%TD*%
D17*
%TO.C,J7*%
X143446700Y-80860800D03*
D18*
X145986700Y-80860800D03*
X148526700Y-80860800D03*
X151066700Y-80860800D03*
X153606700Y-80860800D03*
X156146700Y-80860800D03*
X158686700Y-80860800D03*
X161226700Y-80860800D03*
%TD*%
D19*
%TO.C,D4*%
X121466700Y-129133600D03*
X117166700Y-129133600D03*
%TD*%
D20*
%TO.C,C3*%
X131254700Y-116280800D03*
X131254700Y-117830800D03*
%TD*%
D21*
%TO.C,U7*%
X118254200Y-111299800D03*
X118254200Y-110649800D03*
X118254200Y-109999800D03*
X118254200Y-109349800D03*
X114029200Y-109349800D03*
X114029200Y-109999800D03*
X114029200Y-110649800D03*
X114029200Y-111299800D03*
%TD*%
D22*
%TO.C,U1*%
X109512700Y-116180800D03*
X109512700Y-113880800D03*
D23*
X103212700Y-113880800D03*
D22*
X109512700Y-111580800D03*
%TD*%
D24*
%TO.C,FID1*%
X168567300Y-93468600D03*
%TD*%
%TO.C,FID3*%
X99504700Y-93560800D03*
%TD*%
D17*
%TO.C,J9*%
X189166700Y-129120800D03*
D18*
X186626700Y-129120800D03*
X184086700Y-129120800D03*
X181546700Y-129120800D03*
X179006700Y-129120800D03*
X176466700Y-129120800D03*
X173926700Y-129120800D03*
X171386700Y-129120800D03*
%TD*%
D17*
%TO.C,J2*%
X118554700Y-84162800D03*
D18*
X118554700Y-86702800D03*
X116014700Y-84162800D03*
X116014700Y-86702800D03*
X113474700Y-84162800D03*
X113474700Y-86702800D03*
%TD*%
D20*
%TO.C,C4*%
X112077700Y-113232800D03*
X112077700Y-114782800D03*
%TD*%
D25*
%TO.C,U4*%
X115915700Y-99300300D03*
X116415700Y-99300300D03*
X116915700Y-99300300D03*
X117415700Y-99300300D03*
X117915700Y-99300300D03*
X118415700Y-99300300D03*
X118915700Y-99300300D03*
X119415700Y-99300300D03*
D26*
X120103200Y-98612800D03*
X120103200Y-98112800D03*
X120103200Y-97612800D03*
X120103200Y-97112800D03*
X120103200Y-96612800D03*
X120103200Y-96112800D03*
X120103200Y-95612800D03*
X120103200Y-95112800D03*
D25*
X119415700Y-94425300D03*
X118915700Y-94425300D03*
X118415700Y-94425300D03*
X117915700Y-94425300D03*
X117415700Y-94425300D03*
X116915700Y-94425300D03*
X116415700Y-94425300D03*
X115915700Y-94425300D03*
D26*
X115228200Y-95112800D03*
X115228200Y-95612800D03*
X115228200Y-96112800D03*
X115228200Y-96612800D03*
X115228200Y-97112800D03*
X115228200Y-97612800D03*
X115228200Y-98112800D03*
X115228200Y-98612800D03*
D27*
X117665700Y-96862800D03*
%TD*%
D28*
%TO.C,S1*%
X99749700Y-80641800D03*
X108149700Y-80641800D03*
X99749700Y-85141800D03*
X108149700Y-85141800D03*
X99749700Y-82891800D03*
%TD*%
D29*
%TO.C,Q1*%
X108070700Y-106702800D03*
X108070700Y-104802800D03*
X105670700Y-105752800D03*
%TD*%
D30*
%TO.C,C15*%
X125065000Y-110070800D03*
X126615000Y-110070800D03*
%TD*%
D17*
%TO.C,J12*%
X161353700Y-101180800D03*
D18*
X163893700Y-101180800D03*
X161353700Y-103720800D03*
X163893700Y-103720800D03*
X161353700Y-106260800D03*
X163893700Y-106260800D03*
%TD*%
D31*
%TO.C,FB1*%
X110752600Y-90157200D03*
X108627600Y-90157200D03*
%TD*%
D10*
%TO.C,RN4*%
X126366700Y-101815800D03*
D11*
X126366700Y-100945800D03*
X126366700Y-100145800D03*
D10*
X126366700Y-99275800D03*
X124966700Y-99275800D03*
D11*
X124966700Y-100145800D03*
X124966700Y-100945800D03*
D10*
X124966700Y-101815800D03*
%TD*%
D32*
%TO.C,J4*%
X109260700Y-123275800D03*
D33*
X103060700Y-123275800D03*
D34*
X106060700Y-127975800D03*
%TD*%
D30*
%TO.C,C5*%
X124891700Y-87210800D03*
X126441700Y-87210800D03*
%TD*%
D17*
%TO.C,J8*%
X166306700Y-80860800D03*
D18*
X168846700Y-80860800D03*
X171386700Y-80860800D03*
X173926700Y-80860800D03*
X176466700Y-80860800D03*
X179006700Y-80860800D03*
X181546700Y-80860800D03*
X184086700Y-80860800D03*
%TD*%
D35*
%TO.C,D7*%
X133286700Y-118455800D03*
X133286700Y-115655800D03*
%TD*%
%TO.C,D3*%
X110807700Y-86832800D03*
X110807700Y-84032800D03*
%TD*%
D10*
%TO.C,RN1*%
X177671700Y-93560800D03*
D11*
X177671700Y-94430800D03*
X177671700Y-95230800D03*
D10*
X177671700Y-96100800D03*
X179071700Y-96100800D03*
D11*
X179071700Y-95230800D03*
X179071700Y-94430800D03*
D10*
X179071700Y-93560800D03*
%TD*%
D24*
%TO.C,FID4*%
X148526700Y-103314400D03*
%TD*%
D30*
%TO.C,C9*%
X124891700Y-113372800D03*
X126441700Y-113372800D03*
%TD*%
D36*
%TO.C,R3*%
X107040000Y-90025000D03*
X107040000Y-91675000D03*
%TD*%
D37*
%TO.C,RV1*%
X108966700Y-97370800D03*
X110616700Y-97370800D03*
%TD*%
D10*
%TO.C,RN5*%
X116841700Y-116420800D03*
D11*
X116841700Y-115550800D03*
X116841700Y-114750800D03*
D10*
X116841700Y-113880800D03*
X115441700Y-113880800D03*
D11*
X115441700Y-114750800D03*
X115441700Y-115550800D03*
D10*
X115441700Y-116420800D03*
%TD*%
D13*
%TO.C,C1*%
X116141700Y-120016800D03*
X116141700Y-125016800D03*
%TD*%
D24*
%TO.C,FID2*%
X100393700Y-129247800D03*
%TD*%
D38*
%TO.C,Y1*%
X136080700Y-115855800D03*
X136080700Y-117055800D03*
X136080700Y-118255800D03*
%TD*%
D39*
%TO.C,Y2*%
X118591700Y-105625800D03*
X113711700Y-105625800D03*
%TD*%
D12*
%TO.C,C11*%
X110566700Y-102323800D03*
X109016700Y-102323800D03*
%TD*%
%TO.C,C10*%
X110566700Y-100672800D03*
X109016700Y-100672800D03*
%TD*%
D17*
%TO.C,J5*%
X191701700Y-80875800D03*
D18*
X194241700Y-80875800D03*
X191701700Y-83415800D03*
X194241700Y-83415800D03*
X191701700Y-85955800D03*
X194241700Y-85955800D03*
X191701700Y-88495800D03*
X194241700Y-88495800D03*
X191701700Y-91035800D03*
X194241700Y-91035800D03*
X191701700Y-93575800D03*
X194241700Y-93575800D03*
X191701700Y-96115800D03*
X194241700Y-96115800D03*
X191701700Y-98655800D03*
X194241700Y-98655800D03*
X191701700Y-101195800D03*
X194241700Y-101195800D03*
X191701700Y-103735800D03*
X194241700Y-103735800D03*
X191701700Y-106275800D03*
X194241700Y-106275800D03*
X191701700Y-108815800D03*
X194241700Y-108815800D03*
X191701700Y-111355800D03*
X194241700Y-111355800D03*
X191701700Y-113895800D03*
X194241700Y-113895800D03*
X191701700Y-116435800D03*
X194241700Y-116435800D03*
X191701700Y-118975800D03*
X194241700Y-118975800D03*
X191701700Y-121515800D03*
X194241700Y-121515800D03*
X191701700Y-124055800D03*
X194241700Y-124055800D03*
%TD*%
D30*
%TO.C,C17*%
X118541700Y-102323800D03*
X120091700Y-102323800D03*
%TD*%
D40*
%TO.C,D6*%
X172989200Y-94830800D03*
X174864200Y-94830800D03*
%TD*%
D20*
%TO.C,C18*%
X141361900Y-94015600D03*
X141361900Y-95565600D03*
%TD*%
D37*
%TO.C,RV2*%
X108966700Y-91986000D03*
X110616700Y-91986000D03*
%TD*%
D41*
%TO.C,F1*%
X102171700Y-107215800D03*
X102171700Y-102765800D03*
%TD*%
D42*
%TO.C,U3*%
X140864200Y-97314400D03*
X140864200Y-97814400D03*
X140864200Y-98314400D03*
X140864200Y-98814400D03*
X140864200Y-99314400D03*
X140864200Y-99814400D03*
X140864200Y-100314400D03*
X140864200Y-100814400D03*
X140864200Y-101314400D03*
X140864200Y-101814400D03*
X140864200Y-102314400D03*
X140864200Y-102814400D03*
X140864200Y-103314400D03*
X140864200Y-103814400D03*
X140864200Y-104314400D03*
X140864200Y-104814400D03*
X140864200Y-105314400D03*
X140864200Y-105814400D03*
X140864200Y-106314400D03*
X140864200Y-106814400D03*
X140864200Y-107314400D03*
X140864200Y-107814400D03*
X140864200Y-108314400D03*
X140864200Y-108814400D03*
X140864200Y-109314400D03*
D43*
X142526700Y-110976900D03*
X143026700Y-110976900D03*
X143526700Y-110976900D03*
X144026700Y-110976900D03*
X144526700Y-110976900D03*
X145026700Y-110976900D03*
X145526700Y-110976900D03*
X146026700Y-110976900D03*
X146526700Y-110976900D03*
X147026700Y-110976900D03*
X147526700Y-110976900D03*
X148026700Y-110976900D03*
X148526700Y-110976900D03*
X149026700Y-110976900D03*
X149526700Y-110976900D03*
X150026700Y-110976900D03*
X150526700Y-110976900D03*
X151026700Y-110976900D03*
X151526700Y-110976900D03*
X152026700Y-110976900D03*
X152526700Y-110976900D03*
X153026700Y-110976900D03*
X153526700Y-110976900D03*
X154026700Y-110976900D03*
X154526700Y-110976900D03*
D42*
X156189200Y-109314400D03*
X156189200Y-108814400D03*
X156189200Y-108314400D03*
X156189200Y-107814400D03*
X156189200Y-107314400D03*
X156189200Y-106814400D03*
X156189200Y-106314400D03*
X156189200Y-105814400D03*
X156189200Y-105314400D03*
X156189200Y-104814400D03*
X156189200Y-104314400D03*
X156189200Y-103814400D03*
X156189200Y-103314400D03*
X156189200Y-102814400D03*
X156189200Y-102314400D03*
X156189200Y-101814400D03*
X156189200Y-101314400D03*
X156189200Y-100814400D03*
X156189200Y-100314400D03*
X156189200Y-99814400D03*
X156189200Y-99314400D03*
X156189200Y-98814400D03*
X156189200Y-98314400D03*
X156189200Y-97814400D03*
X156189200Y-97314400D03*
D43*
X154526700Y-95651900D03*
X154026700Y-95651900D03*
X153526700Y-95651900D03*
X153026700Y-95651900D03*
X152526700Y-95651900D03*
X152026700Y-95651900D03*
X151526700Y-95651900D03*
X151026700Y-95651900D03*
X150526700Y-95651900D03*
X150026700Y-95651900D03*
X149526700Y-95651900D03*
X149026700Y-95651900D03*
X148526700Y-95651900D03*
X148026700Y-95651900D03*
X147526700Y-95651900D03*
X147026700Y-95651900D03*
X146526700Y-95651900D03*
X146026700Y-95651900D03*
X145526700Y-95651900D03*
X145026700Y-95651900D03*
X144526700Y-95651900D03*
X144026700Y-95651900D03*
X143526700Y-95651900D03*
X143026700Y-95651900D03*
X142526700Y-95651900D03*
%TD*%
D40*
%TO.C,D5*%
X124729200Y-89490000D03*
X126604200Y-89490000D03*
%TD*%
%TO.C,D2*%
X124729200Y-97370800D03*
X126604200Y-97370800D03*
%TD*%
%TO.C,D1*%
X124729200Y-95100000D03*
X126604200Y-95100000D03*
%TD*%
D30*
%TO.C,C7*%
X155981300Y-92290800D03*
X157531300Y-92290800D03*
%TD*%
%TO.C,C6*%
X135559700Y-124548800D03*
X137109700Y-124548800D03*
%TD*%
D44*
%TO.C,FB2*%
X139413100Y-92868700D03*
X139413100Y-94993700D03*
%TD*%
D16*
%TO.C,R4*%
X107040000Y-96825000D03*
X107040000Y-95175000D03*
%TD*%
D45*
%TO.C,JP2*%
X125016700Y-115912800D03*
X126316700Y-115912800D03*
%TD*%
D46*
%TO.C,J1*%
X104141700Y-90670800D03*
X104141700Y-96450800D03*
D47*
X105216700Y-90360800D03*
X105216700Y-91160800D03*
D48*
X105216700Y-92310800D03*
X105216700Y-93310800D03*
X105216700Y-93810800D03*
X105216700Y-94810800D03*
D47*
X105216700Y-95960800D03*
X105216700Y-96760800D03*
X105216700Y-96760800D03*
X105216700Y-95960800D03*
D48*
X105216700Y-95310800D03*
X105216700Y-94310800D03*
X105216700Y-92810800D03*
X105216700Y-91810800D03*
D47*
X105216700Y-91160800D03*
X105216700Y-90360800D03*
D49*
X104641700Y-89240800D03*
D50*
X100461700Y-89240800D03*
D49*
X104641700Y-97880800D03*
D50*
X100461700Y-97880800D03*
%TD*%
D37*
%TO.C,R2*%
X115316700Y-102323800D03*
X116966700Y-102323800D03*
%TD*%
D30*
%TO.C,C13*%
X121716700Y-102323800D03*
X123266700Y-102323800D03*
%TD*%
D51*
%TO.C,U6*%
X126616700Y-105351900D03*
X125666700Y-105351900D03*
X124716700Y-105351900D03*
X124716700Y-107626900D03*
X126616700Y-107626900D03*
%TD*%
M02*
