%TF.GenerationSoftware,KiCad,Pcbnew,10.0.0*%
%TF.CreationDate,2026-09-13T13:48:05-06:00*%
%TF.ProjectId,Millburn_Test_Board,4d696c6c-6275-4726-9e5f-546573745f42,rev?*%
%TF.SameCoordinates,Original*%
%TF.FileFunction,Drillmap*%
%TF.FilePolarity,Positive*%
%FSLAX45Y45*%
G04 Gerber Fmt 4.5, Leading zero omitted, Abs format (unit mm)*
G04 Created by KiCad (PCBNEW 10.0.0) date 2026-09-13 13:48:05*
%MOMM*%
%LPD*%
G01*
G04 APERTURE LIST*
%ADD10C,0.050000*%
%ADD11C,0.200000*%
%ADD12C,0.220000*%
%ADD13C,0.250000*%
%ADD14C,0.270000*%
%ADD15C,0.300000*%
%ADD16C,0.320000*%
%ADD17C,0.350000*%
G04 APERTURE END LIST*
D10*
X11430000Y-7874000D02*
X11430000Y-8636000D01*
X11430000Y-7874000D02*
X17018000Y-7874000D01*
X11430000Y-8636000D02*
X12192000Y-8636000D01*
X11430000Y-9398000D02*
X11430000Y-9906000D01*
X11430000Y-9906000D02*
X12192000Y-9906000D01*
X11430000Y-10414000D02*
X11430000Y-10668000D01*
X11430000Y-10668000D02*
X12192000Y-10668000D01*
X11430000Y-10922000D02*
X11430000Y-11176000D01*
X11430000Y-11176000D02*
X12192000Y-11176000D01*
X11430000Y-11430000D02*
X11430000Y-11938000D01*
X11430000Y-11938000D02*
X12192000Y-11938000D01*
X11430000Y-12446000D02*
X11430000Y-12954000D01*
X11430000Y-12954000D02*
X12192000Y-12954000D01*
X11430000Y-13462000D02*
X11430000Y-14097000D01*
X11430000Y-14097000D02*
X11811000Y-14478000D01*
X12192000Y-8636000D02*
X12192000Y-9398000D01*
X12192000Y-9398000D02*
X11430000Y-9398000D01*
X12192000Y-9906000D02*
X12192000Y-10414000D01*
X12192000Y-10414000D02*
X11430000Y-10414000D01*
X12192000Y-10668000D02*
X12192000Y-10922000D01*
X12192000Y-10922000D02*
X11430000Y-10922000D01*
X12192000Y-11176000D02*
X12192000Y-11430000D01*
X12192000Y-11430000D02*
X11430000Y-11430000D01*
X12192000Y-11938000D02*
X12192000Y-12446000D01*
X12192000Y-12446000D02*
X11430000Y-12446000D01*
X12192000Y-12954000D02*
X12192000Y-13462000D01*
X12192000Y-13462000D02*
X11430000Y-13462000D01*
X17018000Y-7874000D02*
G75*
G02*
X17272000Y-8128000I0J-254000D01*
G01*
X17272000Y-8128000D02*
X17272000Y-10414000D01*
X17526000Y-10668000D02*
G75*
G02*
X17272000Y-10414000I0J254000D01*
G01*
X17526000Y-10668000D02*
X18034000Y-10668000D01*
X17780000Y-14478000D02*
X11811000Y-14478000D01*
X18034000Y-10668000D02*
G75*
G02*
X18288000Y-10922000I0J-254000D01*
G01*
X18288000Y-10922000D02*
X18288000Y-13970000D01*
X18288000Y-13970000D02*
X17780000Y-14478000D01*
D11*
D12*
X12490000Y-11290000D02*
X12710000Y-11510000D01*
X12710000Y-11290000D02*
X12490000Y-11510000D01*
D13*
X13325000Y-11400000D02*
G75*
G02*
X13075000Y-11400000I-125000J0D01*
G01*
X13075000Y-11400000D02*
G75*
G02*
X13325000Y-11400000I125000J0D01*
G01*
D14*
X13900000Y-11265000D02*
X13900000Y-11535000D01*
X13765000Y-11400000D02*
X14035000Y-11400000D01*
D15*
X12806067Y-12206067D02*
X12806067Y-11993933D01*
X12593933Y-11993933D01*
X12593933Y-12206067D01*
X12806067Y-12206067D01*
D16*
X13500000Y-12260000D02*
X13660000Y-12100000D01*
X13500000Y-11940000D01*
X13340000Y-12100000D01*
X13500000Y-12260000D01*
D17*
X14125000Y-11925000D02*
X14475000Y-12275000D01*
X14475000Y-11925000D02*
X14125000Y-12275000D01*
X14475000Y-12100000D02*
G75*
G02*
X14125000Y-12100000I-175000J0D01*
G01*
X14125000Y-12100000D02*
G75*
G02*
X14475000Y-12100000I175000J0D01*
G01*
D11*
X11688277Y-14791984D02*
X11688277Y-14591984D01*
X11688277Y-14591984D02*
X11735896Y-14591984D01*
X11735896Y-14591984D02*
X11764467Y-14601508D01*
X11764467Y-14601508D02*
X11783515Y-14620555D01*
X11783515Y-14620555D02*
X11793039Y-14639603D01*
X11793039Y-14639603D02*
X11802562Y-14677698D01*
X11802562Y-14677698D02*
X11802562Y-14706269D01*
X11802562Y-14706269D02*
X11793039Y-14744365D01*
X11793039Y-14744365D02*
X11783515Y-14763412D01*
X11783515Y-14763412D02*
X11764467Y-14782460D01*
X11764467Y-14782460D02*
X11735896Y-14791984D01*
X11735896Y-14791984D02*
X11688277Y-14791984D01*
X11888277Y-14791984D02*
X11888277Y-14658650D01*
X11888277Y-14696746D02*
X11897801Y-14677698D01*
X11897801Y-14677698D02*
X11907324Y-14668174D01*
X11907324Y-14668174D02*
X11926372Y-14658650D01*
X11926372Y-14658650D02*
X11945420Y-14658650D01*
X12012086Y-14791984D02*
X12012086Y-14658650D01*
X12012086Y-14591984D02*
X12002562Y-14601508D01*
X12002562Y-14601508D02*
X12012086Y-14611031D01*
X12012086Y-14611031D02*
X12021610Y-14601508D01*
X12021610Y-14601508D02*
X12012086Y-14591984D01*
X12012086Y-14591984D02*
X12012086Y-14611031D01*
X12135896Y-14791984D02*
X12116848Y-14782460D01*
X12116848Y-14782460D02*
X12107324Y-14763412D01*
X12107324Y-14763412D02*
X12107324Y-14591984D01*
X12240658Y-14791984D02*
X12221610Y-14782460D01*
X12221610Y-14782460D02*
X12212086Y-14763412D01*
X12212086Y-14763412D02*
X12212086Y-14591984D01*
X12469229Y-14791984D02*
X12469229Y-14591984D01*
X12469229Y-14591984D02*
X12535896Y-14734841D01*
X12535896Y-14734841D02*
X12602562Y-14591984D01*
X12602562Y-14591984D02*
X12602562Y-14791984D01*
X12783515Y-14791984D02*
X12783515Y-14687222D01*
X12783515Y-14687222D02*
X12773991Y-14668174D01*
X12773991Y-14668174D02*
X12754943Y-14658650D01*
X12754943Y-14658650D02*
X12716848Y-14658650D01*
X12716848Y-14658650D02*
X12697801Y-14668174D01*
X12783515Y-14782460D02*
X12764467Y-14791984D01*
X12764467Y-14791984D02*
X12716848Y-14791984D01*
X12716848Y-14791984D02*
X12697801Y-14782460D01*
X12697801Y-14782460D02*
X12688277Y-14763412D01*
X12688277Y-14763412D02*
X12688277Y-14744365D01*
X12688277Y-14744365D02*
X12697801Y-14725317D01*
X12697801Y-14725317D02*
X12716848Y-14715793D01*
X12716848Y-14715793D02*
X12764467Y-14715793D01*
X12764467Y-14715793D02*
X12783515Y-14706269D01*
X12878753Y-14658650D02*
X12878753Y-14858650D01*
X12878753Y-14668174D02*
X12897801Y-14658650D01*
X12897801Y-14658650D02*
X12935896Y-14658650D01*
X12935896Y-14658650D02*
X12954943Y-14668174D01*
X12954943Y-14668174D02*
X12964467Y-14677698D01*
X12964467Y-14677698D02*
X12973991Y-14696746D01*
X12973991Y-14696746D02*
X12973991Y-14753888D01*
X12973991Y-14753888D02*
X12964467Y-14772936D01*
X12964467Y-14772936D02*
X12954943Y-14782460D01*
X12954943Y-14782460D02*
X12935896Y-14791984D01*
X12935896Y-14791984D02*
X12897801Y-14791984D01*
X12897801Y-14791984D02*
X12878753Y-14782460D01*
X13059705Y-14772936D02*
X13069229Y-14782460D01*
X13069229Y-14782460D02*
X13059705Y-14791984D01*
X13059705Y-14791984D02*
X13050182Y-14782460D01*
X13050182Y-14782460D02*
X13059705Y-14772936D01*
X13059705Y-14772936D02*
X13059705Y-14791984D01*
X13059705Y-14668174D02*
X13069229Y-14677698D01*
X13069229Y-14677698D02*
X13059705Y-14687222D01*
X13059705Y-14687222D02*
X13050182Y-14677698D01*
X13050182Y-14677698D02*
X13059705Y-14668174D01*
X13059705Y-14668174D02*
X13059705Y-14687222D01*
X11227500Y-15020500D02*
X11427500Y-15220500D01*
X11427500Y-15020500D02*
X11227500Y-15220500D01*
X11678753Y-15031031D02*
X11688277Y-15021508D01*
X11688277Y-15021508D02*
X11707324Y-15011984D01*
X11707324Y-15011984D02*
X11754943Y-15011984D01*
X11754943Y-15011984D02*
X11773991Y-15021508D01*
X11773991Y-15021508D02*
X11783515Y-15031031D01*
X11783515Y-15031031D02*
X11793039Y-15050079D01*
X11793039Y-15050079D02*
X11793039Y-15069127D01*
X11793039Y-15069127D02*
X11783515Y-15097698D01*
X11783515Y-15097698D02*
X11669229Y-15211984D01*
X11669229Y-15211984D02*
X11793039Y-15211984D01*
X11878753Y-15192936D02*
X11888277Y-15202460D01*
X11888277Y-15202460D02*
X11878753Y-15211984D01*
X11878753Y-15211984D02*
X11869229Y-15202460D01*
X11869229Y-15202460D02*
X11878753Y-15192936D01*
X11878753Y-15192936D02*
X11878753Y-15211984D01*
X11964467Y-15031031D02*
X11973991Y-15021508D01*
X11973991Y-15021508D02*
X11993039Y-15011984D01*
X11993039Y-15011984D02*
X12040658Y-15011984D01*
X12040658Y-15011984D02*
X12059705Y-15021508D01*
X12059705Y-15021508D02*
X12069229Y-15031031D01*
X12069229Y-15031031D02*
X12078753Y-15050079D01*
X12078753Y-15050079D02*
X12078753Y-15069127D01*
X12078753Y-15069127D02*
X12069229Y-15097698D01*
X12069229Y-15097698D02*
X11954943Y-15211984D01*
X11954943Y-15211984D02*
X12078753Y-15211984D01*
X12202562Y-15011984D02*
X12221610Y-15011984D01*
X12221610Y-15011984D02*
X12240658Y-15021508D01*
X12240658Y-15021508D02*
X12250182Y-15031031D01*
X12250182Y-15031031D02*
X12259705Y-15050079D01*
X12259705Y-15050079D02*
X12269229Y-15088174D01*
X12269229Y-15088174D02*
X12269229Y-15135793D01*
X12269229Y-15135793D02*
X12259705Y-15173888D01*
X12259705Y-15173888D02*
X12250182Y-15192936D01*
X12250182Y-15192936D02*
X12240658Y-15202460D01*
X12240658Y-15202460D02*
X12221610Y-15211984D01*
X12221610Y-15211984D02*
X12202562Y-15211984D01*
X12202562Y-15211984D02*
X12183515Y-15202460D01*
X12183515Y-15202460D02*
X12173991Y-15192936D01*
X12173991Y-15192936D02*
X12164467Y-15173888D01*
X12164467Y-15173888D02*
X12154943Y-15135793D01*
X12154943Y-15135793D02*
X12154943Y-15088174D01*
X12154943Y-15088174D02*
X12164467Y-15050079D01*
X12164467Y-15050079D02*
X12173991Y-15031031D01*
X12173991Y-15031031D02*
X12183515Y-15021508D01*
X12183515Y-15021508D02*
X12202562Y-15011984D01*
X12393039Y-15011984D02*
X12412086Y-15011984D01*
X12412086Y-15011984D02*
X12431134Y-15021508D01*
X12431134Y-15021508D02*
X12440658Y-15031031D01*
X12440658Y-15031031D02*
X12450182Y-15050079D01*
X12450182Y-15050079D02*
X12459705Y-15088174D01*
X12459705Y-15088174D02*
X12459705Y-15135793D01*
X12459705Y-15135793D02*
X12450182Y-15173888D01*
X12450182Y-15173888D02*
X12440658Y-15192936D01*
X12440658Y-15192936D02*
X12431134Y-15202460D01*
X12431134Y-15202460D02*
X12412086Y-15211984D01*
X12412086Y-15211984D02*
X12393039Y-15211984D01*
X12393039Y-15211984D02*
X12373991Y-15202460D01*
X12373991Y-15202460D02*
X12364467Y-15192936D01*
X12364467Y-15192936D02*
X12354943Y-15173888D01*
X12354943Y-15173888D02*
X12345420Y-15135793D01*
X12345420Y-15135793D02*
X12345420Y-15088174D01*
X12345420Y-15088174D02*
X12354943Y-15050079D01*
X12354943Y-15050079D02*
X12364467Y-15031031D01*
X12364467Y-15031031D02*
X12373991Y-15021508D01*
X12373991Y-15021508D02*
X12393039Y-15011984D01*
X12545420Y-15211984D02*
X12545420Y-15078650D01*
X12545420Y-15097698D02*
X12554943Y-15088174D01*
X12554943Y-15088174D02*
X12573991Y-15078650D01*
X12573991Y-15078650D02*
X12602563Y-15078650D01*
X12602563Y-15078650D02*
X12621610Y-15088174D01*
X12621610Y-15088174D02*
X12631134Y-15107222D01*
X12631134Y-15107222D02*
X12631134Y-15211984D01*
X12631134Y-15107222D02*
X12640658Y-15088174D01*
X12640658Y-15088174D02*
X12659705Y-15078650D01*
X12659705Y-15078650D02*
X12688277Y-15078650D01*
X12688277Y-15078650D02*
X12707324Y-15088174D01*
X12707324Y-15088174D02*
X12716848Y-15107222D01*
X12716848Y-15107222D02*
X12716848Y-15211984D01*
X12812086Y-15211984D02*
X12812086Y-15078650D01*
X12812086Y-15097698D02*
X12821610Y-15088174D01*
X12821610Y-15088174D02*
X12840658Y-15078650D01*
X12840658Y-15078650D02*
X12869229Y-15078650D01*
X12869229Y-15078650D02*
X12888277Y-15088174D01*
X12888277Y-15088174D02*
X12897801Y-15107222D01*
X12897801Y-15107222D02*
X12897801Y-15211984D01*
X12897801Y-15107222D02*
X12907324Y-15088174D01*
X12907324Y-15088174D02*
X12926372Y-15078650D01*
X12926372Y-15078650D02*
X12954943Y-15078650D01*
X12954943Y-15078650D02*
X12973991Y-15088174D01*
X12973991Y-15088174D02*
X12983515Y-15107222D01*
X12983515Y-15107222D02*
X12983515Y-15211984D01*
X13373991Y-15002460D02*
X13202563Y-15259603D01*
X13631134Y-15011984D02*
X13650182Y-15011984D01*
X13650182Y-15011984D02*
X13669229Y-15021508D01*
X13669229Y-15021508D02*
X13678753Y-15031031D01*
X13678753Y-15031031D02*
X13688277Y-15050079D01*
X13688277Y-15050079D02*
X13697801Y-15088174D01*
X13697801Y-15088174D02*
X13697801Y-15135793D01*
X13697801Y-15135793D02*
X13688277Y-15173888D01*
X13688277Y-15173888D02*
X13678753Y-15192936D01*
X13678753Y-15192936D02*
X13669229Y-15202460D01*
X13669229Y-15202460D02*
X13650182Y-15211984D01*
X13650182Y-15211984D02*
X13631134Y-15211984D01*
X13631134Y-15211984D02*
X13612086Y-15202460D01*
X13612086Y-15202460D02*
X13602563Y-15192936D01*
X13602563Y-15192936D02*
X13593039Y-15173888D01*
X13593039Y-15173888D02*
X13583515Y-15135793D01*
X13583515Y-15135793D02*
X13583515Y-15088174D01*
X13583515Y-15088174D02*
X13593039Y-15050079D01*
X13593039Y-15050079D02*
X13602563Y-15031031D01*
X13602563Y-15031031D02*
X13612086Y-15021508D01*
X13612086Y-15021508D02*
X13631134Y-15011984D01*
X13783515Y-15192936D02*
X13793039Y-15202460D01*
X13793039Y-15202460D02*
X13783515Y-15211984D01*
X13783515Y-15211984D02*
X13773991Y-15202460D01*
X13773991Y-15202460D02*
X13783515Y-15192936D01*
X13783515Y-15192936D02*
X13783515Y-15211984D01*
X13916848Y-15011984D02*
X13935896Y-15011984D01*
X13935896Y-15011984D02*
X13954944Y-15021508D01*
X13954944Y-15021508D02*
X13964467Y-15031031D01*
X13964467Y-15031031D02*
X13973991Y-15050079D01*
X13973991Y-15050079D02*
X13983515Y-15088174D01*
X13983515Y-15088174D02*
X13983515Y-15135793D01*
X13983515Y-15135793D02*
X13973991Y-15173888D01*
X13973991Y-15173888D02*
X13964467Y-15192936D01*
X13964467Y-15192936D02*
X13954944Y-15202460D01*
X13954944Y-15202460D02*
X13935896Y-15211984D01*
X13935896Y-15211984D02*
X13916848Y-15211984D01*
X13916848Y-15211984D02*
X13897801Y-15202460D01*
X13897801Y-15202460D02*
X13888277Y-15192936D01*
X13888277Y-15192936D02*
X13878753Y-15173888D01*
X13878753Y-15173888D02*
X13869229Y-15135793D01*
X13869229Y-15135793D02*
X13869229Y-15088174D01*
X13869229Y-15088174D02*
X13878753Y-15050079D01*
X13878753Y-15050079D02*
X13888277Y-15031031D01*
X13888277Y-15031031D02*
X13897801Y-15021508D01*
X13897801Y-15021508D02*
X13916848Y-15011984D01*
X14097801Y-15097698D02*
X14078753Y-15088174D01*
X14078753Y-15088174D02*
X14069229Y-15078650D01*
X14069229Y-15078650D02*
X14059706Y-15059603D01*
X14059706Y-15059603D02*
X14059706Y-15050079D01*
X14059706Y-15050079D02*
X14069229Y-15031031D01*
X14069229Y-15031031D02*
X14078753Y-15021508D01*
X14078753Y-15021508D02*
X14097801Y-15011984D01*
X14097801Y-15011984D02*
X14135896Y-15011984D01*
X14135896Y-15011984D02*
X14154944Y-15021508D01*
X14154944Y-15021508D02*
X14164467Y-15031031D01*
X14164467Y-15031031D02*
X14173991Y-15050079D01*
X14173991Y-15050079D02*
X14173991Y-15059603D01*
X14173991Y-15059603D02*
X14164467Y-15078650D01*
X14164467Y-15078650D02*
X14154944Y-15088174D01*
X14154944Y-15088174D02*
X14135896Y-15097698D01*
X14135896Y-15097698D02*
X14097801Y-15097698D01*
X14097801Y-15097698D02*
X14078753Y-15107222D01*
X14078753Y-15107222D02*
X14069229Y-15116746D01*
X14069229Y-15116746D02*
X14059706Y-15135793D01*
X14059706Y-15135793D02*
X14059706Y-15173888D01*
X14059706Y-15173888D02*
X14069229Y-15192936D01*
X14069229Y-15192936D02*
X14078753Y-15202460D01*
X14078753Y-15202460D02*
X14097801Y-15211984D01*
X14097801Y-15211984D02*
X14135896Y-15211984D01*
X14135896Y-15211984D02*
X14154944Y-15202460D01*
X14154944Y-15202460D02*
X14164467Y-15192936D01*
X14164467Y-15192936D02*
X14173991Y-15173888D01*
X14173991Y-15173888D02*
X14173991Y-15135793D01*
X14173991Y-15135793D02*
X14164467Y-15116746D01*
X14164467Y-15116746D02*
X14154944Y-15107222D01*
X14154944Y-15107222D02*
X14135896Y-15097698D01*
X14345420Y-15011984D02*
X14307325Y-15011984D01*
X14307325Y-15011984D02*
X14288277Y-15021508D01*
X14288277Y-15021508D02*
X14278753Y-15031031D01*
X14278753Y-15031031D02*
X14259706Y-15059603D01*
X14259706Y-15059603D02*
X14250182Y-15097698D01*
X14250182Y-15097698D02*
X14250182Y-15173888D01*
X14250182Y-15173888D02*
X14259706Y-15192936D01*
X14259706Y-15192936D02*
X14269229Y-15202460D01*
X14269229Y-15202460D02*
X14288277Y-15211984D01*
X14288277Y-15211984D02*
X14326372Y-15211984D01*
X14326372Y-15211984D02*
X14345420Y-15202460D01*
X14345420Y-15202460D02*
X14354944Y-15192936D01*
X14354944Y-15192936D02*
X14364467Y-15173888D01*
X14364467Y-15173888D02*
X14364467Y-15126269D01*
X14364467Y-15126269D02*
X14354944Y-15107222D01*
X14354944Y-15107222D02*
X14345420Y-15097698D01*
X14345420Y-15097698D02*
X14326372Y-15088174D01*
X14326372Y-15088174D02*
X14288277Y-15088174D01*
X14288277Y-15088174D02*
X14269229Y-15097698D01*
X14269229Y-15097698D02*
X14259706Y-15107222D01*
X14259706Y-15107222D02*
X14250182Y-15126269D01*
X14535896Y-15011984D02*
X14497801Y-15011984D01*
X14497801Y-15011984D02*
X14478753Y-15021508D01*
X14478753Y-15021508D02*
X14469229Y-15031031D01*
X14469229Y-15031031D02*
X14450182Y-15059603D01*
X14450182Y-15059603D02*
X14440658Y-15097698D01*
X14440658Y-15097698D02*
X14440658Y-15173888D01*
X14440658Y-15173888D02*
X14450182Y-15192936D01*
X14450182Y-15192936D02*
X14459706Y-15202460D01*
X14459706Y-15202460D02*
X14478753Y-15211984D01*
X14478753Y-15211984D02*
X14516848Y-15211984D01*
X14516848Y-15211984D02*
X14535896Y-15202460D01*
X14535896Y-15202460D02*
X14545420Y-15192936D01*
X14545420Y-15192936D02*
X14554944Y-15173888D01*
X14554944Y-15173888D02*
X14554944Y-15126269D01*
X14554944Y-15126269D02*
X14545420Y-15107222D01*
X14545420Y-15107222D02*
X14535896Y-15097698D01*
X14535896Y-15097698D02*
X14516848Y-15088174D01*
X14516848Y-15088174D02*
X14478753Y-15088174D01*
X14478753Y-15088174D02*
X14459706Y-15097698D01*
X14459706Y-15097698D02*
X14450182Y-15107222D01*
X14450182Y-15107222D02*
X14440658Y-15126269D01*
X14631134Y-15011984D02*
X14631134Y-15050079D01*
X14707325Y-15011984D02*
X14707325Y-15050079D01*
X15002563Y-15288174D02*
X14993039Y-15278650D01*
X14993039Y-15278650D02*
X14973991Y-15250079D01*
X14973991Y-15250079D02*
X14964468Y-15231031D01*
X14964468Y-15231031D02*
X14954944Y-15202460D01*
X14954944Y-15202460D02*
X14945420Y-15154841D01*
X14945420Y-15154841D02*
X14945420Y-15116746D01*
X14945420Y-15116746D02*
X14954944Y-15069127D01*
X14954944Y-15069127D02*
X14964468Y-15040555D01*
X14964468Y-15040555D02*
X14973991Y-15021508D01*
X14973991Y-15021508D02*
X14993039Y-14992936D01*
X14993039Y-14992936D02*
X15002563Y-14983412D01*
X15183515Y-15211984D02*
X15069229Y-15211984D01*
X15126372Y-15211984D02*
X15126372Y-15011984D01*
X15126372Y-15011984D02*
X15107325Y-15040555D01*
X15107325Y-15040555D02*
X15088277Y-15059603D01*
X15088277Y-15059603D02*
X15069229Y-15069127D01*
X15421610Y-15211984D02*
X15421610Y-15011984D01*
X15507325Y-15211984D02*
X15507325Y-15107222D01*
X15507325Y-15107222D02*
X15497801Y-15088174D01*
X15497801Y-15088174D02*
X15478753Y-15078650D01*
X15478753Y-15078650D02*
X15450182Y-15078650D01*
X15450182Y-15078650D02*
X15431134Y-15088174D01*
X15431134Y-15088174D02*
X15421610Y-15097698D01*
X15631134Y-15211984D02*
X15612087Y-15202460D01*
X15612087Y-15202460D02*
X15602563Y-15192936D01*
X15602563Y-15192936D02*
X15593039Y-15173888D01*
X15593039Y-15173888D02*
X15593039Y-15116746D01*
X15593039Y-15116746D02*
X15602563Y-15097698D01*
X15602563Y-15097698D02*
X15612087Y-15088174D01*
X15612087Y-15088174D02*
X15631134Y-15078650D01*
X15631134Y-15078650D02*
X15659706Y-15078650D01*
X15659706Y-15078650D02*
X15678753Y-15088174D01*
X15678753Y-15088174D02*
X15688277Y-15097698D01*
X15688277Y-15097698D02*
X15697801Y-15116746D01*
X15697801Y-15116746D02*
X15697801Y-15173888D01*
X15697801Y-15173888D02*
X15688277Y-15192936D01*
X15688277Y-15192936D02*
X15678753Y-15202460D01*
X15678753Y-15202460D02*
X15659706Y-15211984D01*
X15659706Y-15211984D02*
X15631134Y-15211984D01*
X15812087Y-15211984D02*
X15793039Y-15202460D01*
X15793039Y-15202460D02*
X15783515Y-15183412D01*
X15783515Y-15183412D02*
X15783515Y-15011984D01*
X15964468Y-15202460D02*
X15945420Y-15211984D01*
X15945420Y-15211984D02*
X15907325Y-15211984D01*
X15907325Y-15211984D02*
X15888277Y-15202460D01*
X15888277Y-15202460D02*
X15878753Y-15183412D01*
X15878753Y-15183412D02*
X15878753Y-15107222D01*
X15878753Y-15107222D02*
X15888277Y-15088174D01*
X15888277Y-15088174D02*
X15907325Y-15078650D01*
X15907325Y-15078650D02*
X15945420Y-15078650D01*
X15945420Y-15078650D02*
X15964468Y-15088174D01*
X15964468Y-15088174D02*
X15973991Y-15107222D01*
X15973991Y-15107222D02*
X15973991Y-15126269D01*
X15973991Y-15126269D02*
X15878753Y-15145317D01*
X16040658Y-15288174D02*
X16050182Y-15278650D01*
X16050182Y-15278650D02*
X16069230Y-15250079D01*
X16069230Y-15250079D02*
X16078753Y-15231031D01*
X16078753Y-15231031D02*
X16088277Y-15202460D01*
X16088277Y-15202460D02*
X16097801Y-15154841D01*
X16097801Y-15154841D02*
X16097801Y-15116746D01*
X16097801Y-15116746D02*
X16088277Y-15069127D01*
X16088277Y-15069127D02*
X16078753Y-15040555D01*
X16078753Y-15040555D02*
X16069230Y-15021508D01*
X16069230Y-15021508D02*
X16050182Y-14992936D01*
X16050182Y-14992936D02*
X16040658Y-14983412D01*
X16402563Y-15288174D02*
X16393039Y-15278650D01*
X16393039Y-15278650D02*
X16373991Y-15250079D01*
X16373991Y-15250079D02*
X16364468Y-15231031D01*
X16364468Y-15231031D02*
X16354944Y-15202460D01*
X16354944Y-15202460D02*
X16345420Y-15154841D01*
X16345420Y-15154841D02*
X16345420Y-15116746D01*
X16345420Y-15116746D02*
X16354944Y-15069127D01*
X16354944Y-15069127D02*
X16364468Y-15040555D01*
X16364468Y-15040555D02*
X16373991Y-15021508D01*
X16373991Y-15021508D02*
X16393039Y-14992936D01*
X16393039Y-14992936D02*
X16402563Y-14983412D01*
X16478753Y-15078650D02*
X16478753Y-15211984D01*
X16478753Y-15097698D02*
X16488277Y-15088174D01*
X16488277Y-15088174D02*
X16507325Y-15078650D01*
X16507325Y-15078650D02*
X16535896Y-15078650D01*
X16535896Y-15078650D02*
X16554944Y-15088174D01*
X16554944Y-15088174D02*
X16564468Y-15107222D01*
X16564468Y-15107222D02*
X16564468Y-15211984D01*
X16688277Y-15211984D02*
X16669230Y-15202460D01*
X16669230Y-15202460D02*
X16659706Y-15192936D01*
X16659706Y-15192936D02*
X16650182Y-15173888D01*
X16650182Y-15173888D02*
X16650182Y-15116746D01*
X16650182Y-15116746D02*
X16659706Y-15097698D01*
X16659706Y-15097698D02*
X16669230Y-15088174D01*
X16669230Y-15088174D02*
X16688277Y-15078650D01*
X16688277Y-15078650D02*
X16716849Y-15078650D01*
X16716849Y-15078650D02*
X16735896Y-15088174D01*
X16735896Y-15088174D02*
X16745420Y-15097698D01*
X16745420Y-15097698D02*
X16754944Y-15116746D01*
X16754944Y-15116746D02*
X16754944Y-15173888D01*
X16754944Y-15173888D02*
X16745420Y-15192936D01*
X16745420Y-15192936D02*
X16735896Y-15202460D01*
X16735896Y-15202460D02*
X16716849Y-15211984D01*
X16716849Y-15211984D02*
X16688277Y-15211984D01*
X16812087Y-15078650D02*
X16888277Y-15078650D01*
X16840658Y-15011984D02*
X16840658Y-15183412D01*
X16840658Y-15183412D02*
X16850182Y-15202460D01*
X16850182Y-15202460D02*
X16869230Y-15211984D01*
X16869230Y-15211984D02*
X16888277Y-15211984D01*
X17107325Y-15078650D02*
X17107325Y-15278650D01*
X17107325Y-15088174D02*
X17126373Y-15078650D01*
X17126373Y-15078650D02*
X17164468Y-15078650D01*
X17164468Y-15078650D02*
X17183515Y-15088174D01*
X17183515Y-15088174D02*
X17193039Y-15097698D01*
X17193039Y-15097698D02*
X17202563Y-15116746D01*
X17202563Y-15116746D02*
X17202563Y-15173888D01*
X17202563Y-15173888D02*
X17193039Y-15192936D01*
X17193039Y-15192936D02*
X17183515Y-15202460D01*
X17183515Y-15202460D02*
X17164468Y-15211984D01*
X17164468Y-15211984D02*
X17126373Y-15211984D01*
X17126373Y-15211984D02*
X17107325Y-15202460D01*
X17316849Y-15211984D02*
X17297801Y-15202460D01*
X17297801Y-15202460D02*
X17288277Y-15183412D01*
X17288277Y-15183412D02*
X17288277Y-15011984D01*
X17478754Y-15211984D02*
X17478754Y-15107222D01*
X17478754Y-15107222D02*
X17469230Y-15088174D01*
X17469230Y-15088174D02*
X17450182Y-15078650D01*
X17450182Y-15078650D02*
X17412087Y-15078650D01*
X17412087Y-15078650D02*
X17393039Y-15088174D01*
X17478754Y-15202460D02*
X17459706Y-15211984D01*
X17459706Y-15211984D02*
X17412087Y-15211984D01*
X17412087Y-15211984D02*
X17393039Y-15202460D01*
X17393039Y-15202460D02*
X17383515Y-15183412D01*
X17383515Y-15183412D02*
X17383515Y-15164365D01*
X17383515Y-15164365D02*
X17393039Y-15145317D01*
X17393039Y-15145317D02*
X17412087Y-15135793D01*
X17412087Y-15135793D02*
X17459706Y-15135793D01*
X17459706Y-15135793D02*
X17478754Y-15126269D01*
X17545420Y-15078650D02*
X17621611Y-15078650D01*
X17573992Y-15011984D02*
X17573992Y-15183412D01*
X17573992Y-15183412D02*
X17583515Y-15202460D01*
X17583515Y-15202460D02*
X17602563Y-15211984D01*
X17602563Y-15211984D02*
X17621611Y-15211984D01*
X17764468Y-15202460D02*
X17745420Y-15211984D01*
X17745420Y-15211984D02*
X17707325Y-15211984D01*
X17707325Y-15211984D02*
X17688277Y-15202460D01*
X17688277Y-15202460D02*
X17678754Y-15183412D01*
X17678754Y-15183412D02*
X17678754Y-15107222D01*
X17678754Y-15107222D02*
X17688277Y-15088174D01*
X17688277Y-15088174D02*
X17707325Y-15078650D01*
X17707325Y-15078650D02*
X17745420Y-15078650D01*
X17745420Y-15078650D02*
X17764468Y-15088174D01*
X17764468Y-15088174D02*
X17773992Y-15107222D01*
X17773992Y-15107222D02*
X17773992Y-15126269D01*
X17773992Y-15126269D02*
X17678754Y-15145317D01*
X17945420Y-15211984D02*
X17945420Y-15011984D01*
X17945420Y-15202460D02*
X17926373Y-15211984D01*
X17926373Y-15211984D02*
X17888277Y-15211984D01*
X17888277Y-15211984D02*
X17869230Y-15202460D01*
X17869230Y-15202460D02*
X17859706Y-15192936D01*
X17859706Y-15192936D02*
X17850182Y-15173888D01*
X17850182Y-15173888D02*
X17850182Y-15116746D01*
X17850182Y-15116746D02*
X17859706Y-15097698D01*
X17859706Y-15097698D02*
X17869230Y-15088174D01*
X17869230Y-15088174D02*
X17888277Y-15078650D01*
X17888277Y-15078650D02*
X17926373Y-15078650D01*
X17926373Y-15078650D02*
X17945420Y-15088174D01*
X18021611Y-15288174D02*
X18031135Y-15278650D01*
X18031135Y-15278650D02*
X18050182Y-15250079D01*
X18050182Y-15250079D02*
X18059706Y-15231031D01*
X18059706Y-15231031D02*
X18069230Y-15202460D01*
X18069230Y-15202460D02*
X18078754Y-15154841D01*
X18078754Y-15154841D02*
X18078754Y-15116746D01*
X18078754Y-15116746D02*
X18069230Y-15069127D01*
X18069230Y-15069127D02*
X18059706Y-15040555D01*
X18059706Y-15040555D02*
X18050182Y-15021508D01*
X18050182Y-15021508D02*
X18031135Y-14992936D01*
X18031135Y-14992936D02*
X18021611Y-14983412D01*
X11427500Y-15440500D02*
G75*
G02*
X11227500Y-15440500I-100000J0D01*
G01*
X11227500Y-15440500D02*
G75*
G02*
X11427500Y-15440500I100000J0D01*
G01*
X11678753Y-15351031D02*
X11688277Y-15341508D01*
X11688277Y-15341508D02*
X11707324Y-15331984D01*
X11707324Y-15331984D02*
X11754943Y-15331984D01*
X11754943Y-15331984D02*
X11773991Y-15341508D01*
X11773991Y-15341508D02*
X11783515Y-15351031D01*
X11783515Y-15351031D02*
X11793039Y-15370079D01*
X11793039Y-15370079D02*
X11793039Y-15389127D01*
X11793039Y-15389127D02*
X11783515Y-15417698D01*
X11783515Y-15417698D02*
X11669229Y-15531984D01*
X11669229Y-15531984D02*
X11793039Y-15531984D01*
X11878753Y-15512936D02*
X11888277Y-15522460D01*
X11888277Y-15522460D02*
X11878753Y-15531984D01*
X11878753Y-15531984D02*
X11869229Y-15522460D01*
X11869229Y-15522460D02*
X11878753Y-15512936D01*
X11878753Y-15512936D02*
X11878753Y-15531984D01*
X12069229Y-15331984D02*
X11973991Y-15331984D01*
X11973991Y-15331984D02*
X11964467Y-15427222D01*
X11964467Y-15427222D02*
X11973991Y-15417698D01*
X11973991Y-15417698D02*
X11993039Y-15408174D01*
X11993039Y-15408174D02*
X12040658Y-15408174D01*
X12040658Y-15408174D02*
X12059705Y-15417698D01*
X12059705Y-15417698D02*
X12069229Y-15427222D01*
X12069229Y-15427222D02*
X12078753Y-15446269D01*
X12078753Y-15446269D02*
X12078753Y-15493888D01*
X12078753Y-15493888D02*
X12069229Y-15512936D01*
X12069229Y-15512936D02*
X12059705Y-15522460D01*
X12059705Y-15522460D02*
X12040658Y-15531984D01*
X12040658Y-15531984D02*
X11993039Y-15531984D01*
X11993039Y-15531984D02*
X11973991Y-15522460D01*
X11973991Y-15522460D02*
X11964467Y-15512936D01*
X12202562Y-15331984D02*
X12221610Y-15331984D01*
X12221610Y-15331984D02*
X12240658Y-15341508D01*
X12240658Y-15341508D02*
X12250182Y-15351031D01*
X12250182Y-15351031D02*
X12259705Y-15370079D01*
X12259705Y-15370079D02*
X12269229Y-15408174D01*
X12269229Y-15408174D02*
X12269229Y-15455793D01*
X12269229Y-15455793D02*
X12259705Y-15493888D01*
X12259705Y-15493888D02*
X12250182Y-15512936D01*
X12250182Y-15512936D02*
X12240658Y-15522460D01*
X12240658Y-15522460D02*
X12221610Y-15531984D01*
X12221610Y-15531984D02*
X12202562Y-15531984D01*
X12202562Y-15531984D02*
X12183515Y-15522460D01*
X12183515Y-15522460D02*
X12173991Y-15512936D01*
X12173991Y-15512936D02*
X12164467Y-15493888D01*
X12164467Y-15493888D02*
X12154943Y-15455793D01*
X12154943Y-15455793D02*
X12154943Y-15408174D01*
X12154943Y-15408174D02*
X12164467Y-15370079D01*
X12164467Y-15370079D02*
X12173991Y-15351031D01*
X12173991Y-15351031D02*
X12183515Y-15341508D01*
X12183515Y-15341508D02*
X12202562Y-15331984D01*
X12393039Y-15331984D02*
X12412086Y-15331984D01*
X12412086Y-15331984D02*
X12431134Y-15341508D01*
X12431134Y-15341508D02*
X12440658Y-15351031D01*
X12440658Y-15351031D02*
X12450182Y-15370079D01*
X12450182Y-15370079D02*
X12459705Y-15408174D01*
X12459705Y-15408174D02*
X12459705Y-15455793D01*
X12459705Y-15455793D02*
X12450182Y-15493888D01*
X12450182Y-15493888D02*
X12440658Y-15512936D01*
X12440658Y-15512936D02*
X12431134Y-15522460D01*
X12431134Y-15522460D02*
X12412086Y-15531984D01*
X12412086Y-15531984D02*
X12393039Y-15531984D01*
X12393039Y-15531984D02*
X12373991Y-15522460D01*
X12373991Y-15522460D02*
X12364467Y-15512936D01*
X12364467Y-15512936D02*
X12354943Y-15493888D01*
X12354943Y-15493888D02*
X12345420Y-15455793D01*
X12345420Y-15455793D02*
X12345420Y-15408174D01*
X12345420Y-15408174D02*
X12354943Y-15370079D01*
X12354943Y-15370079D02*
X12364467Y-15351031D01*
X12364467Y-15351031D02*
X12373991Y-15341508D01*
X12373991Y-15341508D02*
X12393039Y-15331984D01*
X12545420Y-15531984D02*
X12545420Y-15398650D01*
X12545420Y-15417698D02*
X12554943Y-15408174D01*
X12554943Y-15408174D02*
X12573991Y-15398650D01*
X12573991Y-15398650D02*
X12602563Y-15398650D01*
X12602563Y-15398650D02*
X12621610Y-15408174D01*
X12621610Y-15408174D02*
X12631134Y-15427222D01*
X12631134Y-15427222D02*
X12631134Y-15531984D01*
X12631134Y-15427222D02*
X12640658Y-15408174D01*
X12640658Y-15408174D02*
X12659705Y-15398650D01*
X12659705Y-15398650D02*
X12688277Y-15398650D01*
X12688277Y-15398650D02*
X12707324Y-15408174D01*
X12707324Y-15408174D02*
X12716848Y-15427222D01*
X12716848Y-15427222D02*
X12716848Y-15531984D01*
X12812086Y-15531984D02*
X12812086Y-15398650D01*
X12812086Y-15417698D02*
X12821610Y-15408174D01*
X12821610Y-15408174D02*
X12840658Y-15398650D01*
X12840658Y-15398650D02*
X12869229Y-15398650D01*
X12869229Y-15398650D02*
X12888277Y-15408174D01*
X12888277Y-15408174D02*
X12897801Y-15427222D01*
X12897801Y-15427222D02*
X12897801Y-15531984D01*
X12897801Y-15427222D02*
X12907324Y-15408174D01*
X12907324Y-15408174D02*
X12926372Y-15398650D01*
X12926372Y-15398650D02*
X12954943Y-15398650D01*
X12954943Y-15398650D02*
X12973991Y-15408174D01*
X12973991Y-15408174D02*
X12983515Y-15427222D01*
X12983515Y-15427222D02*
X12983515Y-15531984D01*
X13373991Y-15322460D02*
X13202563Y-15579603D01*
X13631134Y-15331984D02*
X13650182Y-15331984D01*
X13650182Y-15331984D02*
X13669229Y-15341508D01*
X13669229Y-15341508D02*
X13678753Y-15351031D01*
X13678753Y-15351031D02*
X13688277Y-15370079D01*
X13688277Y-15370079D02*
X13697801Y-15408174D01*
X13697801Y-15408174D02*
X13697801Y-15455793D01*
X13697801Y-15455793D02*
X13688277Y-15493888D01*
X13688277Y-15493888D02*
X13678753Y-15512936D01*
X13678753Y-15512936D02*
X13669229Y-15522460D01*
X13669229Y-15522460D02*
X13650182Y-15531984D01*
X13650182Y-15531984D02*
X13631134Y-15531984D01*
X13631134Y-15531984D02*
X13612086Y-15522460D01*
X13612086Y-15522460D02*
X13602563Y-15512936D01*
X13602563Y-15512936D02*
X13593039Y-15493888D01*
X13593039Y-15493888D02*
X13583515Y-15455793D01*
X13583515Y-15455793D02*
X13583515Y-15408174D01*
X13583515Y-15408174D02*
X13593039Y-15370079D01*
X13593039Y-15370079D02*
X13602563Y-15351031D01*
X13602563Y-15351031D02*
X13612086Y-15341508D01*
X13612086Y-15341508D02*
X13631134Y-15331984D01*
X13783515Y-15512936D02*
X13793039Y-15522460D01*
X13793039Y-15522460D02*
X13783515Y-15531984D01*
X13783515Y-15531984D02*
X13773991Y-15522460D01*
X13773991Y-15522460D02*
X13783515Y-15512936D01*
X13783515Y-15512936D02*
X13783515Y-15531984D01*
X13916848Y-15331984D02*
X13935896Y-15331984D01*
X13935896Y-15331984D02*
X13954944Y-15341508D01*
X13954944Y-15341508D02*
X13964467Y-15351031D01*
X13964467Y-15351031D02*
X13973991Y-15370079D01*
X13973991Y-15370079D02*
X13983515Y-15408174D01*
X13983515Y-15408174D02*
X13983515Y-15455793D01*
X13983515Y-15455793D02*
X13973991Y-15493888D01*
X13973991Y-15493888D02*
X13964467Y-15512936D01*
X13964467Y-15512936D02*
X13954944Y-15522460D01*
X13954944Y-15522460D02*
X13935896Y-15531984D01*
X13935896Y-15531984D02*
X13916848Y-15531984D01*
X13916848Y-15531984D02*
X13897801Y-15522460D01*
X13897801Y-15522460D02*
X13888277Y-15512936D01*
X13888277Y-15512936D02*
X13878753Y-15493888D01*
X13878753Y-15493888D02*
X13869229Y-15455793D01*
X13869229Y-15455793D02*
X13869229Y-15408174D01*
X13869229Y-15408174D02*
X13878753Y-15370079D01*
X13878753Y-15370079D02*
X13888277Y-15351031D01*
X13888277Y-15351031D02*
X13897801Y-15341508D01*
X13897801Y-15341508D02*
X13916848Y-15331984D01*
X14078753Y-15531984D02*
X14116848Y-15531984D01*
X14116848Y-15531984D02*
X14135896Y-15522460D01*
X14135896Y-15522460D02*
X14145420Y-15512936D01*
X14145420Y-15512936D02*
X14164467Y-15484365D01*
X14164467Y-15484365D02*
X14173991Y-15446269D01*
X14173991Y-15446269D02*
X14173991Y-15370079D01*
X14173991Y-15370079D02*
X14164467Y-15351031D01*
X14164467Y-15351031D02*
X14154944Y-15341508D01*
X14154944Y-15341508D02*
X14135896Y-15331984D01*
X14135896Y-15331984D02*
X14097801Y-15331984D01*
X14097801Y-15331984D02*
X14078753Y-15341508D01*
X14078753Y-15341508D02*
X14069229Y-15351031D01*
X14069229Y-15351031D02*
X14059706Y-15370079D01*
X14059706Y-15370079D02*
X14059706Y-15417698D01*
X14059706Y-15417698D02*
X14069229Y-15436746D01*
X14069229Y-15436746D02*
X14078753Y-15446269D01*
X14078753Y-15446269D02*
X14097801Y-15455793D01*
X14097801Y-15455793D02*
X14135896Y-15455793D01*
X14135896Y-15455793D02*
X14154944Y-15446269D01*
X14154944Y-15446269D02*
X14164467Y-15436746D01*
X14164467Y-15436746D02*
X14173991Y-15417698D01*
X14288277Y-15417698D02*
X14269229Y-15408174D01*
X14269229Y-15408174D02*
X14259706Y-15398650D01*
X14259706Y-15398650D02*
X14250182Y-15379603D01*
X14250182Y-15379603D02*
X14250182Y-15370079D01*
X14250182Y-15370079D02*
X14259706Y-15351031D01*
X14259706Y-15351031D02*
X14269229Y-15341508D01*
X14269229Y-15341508D02*
X14288277Y-15331984D01*
X14288277Y-15331984D02*
X14326372Y-15331984D01*
X14326372Y-15331984D02*
X14345420Y-15341508D01*
X14345420Y-15341508D02*
X14354944Y-15351031D01*
X14354944Y-15351031D02*
X14364467Y-15370079D01*
X14364467Y-15370079D02*
X14364467Y-15379603D01*
X14364467Y-15379603D02*
X14354944Y-15398650D01*
X14354944Y-15398650D02*
X14345420Y-15408174D01*
X14345420Y-15408174D02*
X14326372Y-15417698D01*
X14326372Y-15417698D02*
X14288277Y-15417698D01*
X14288277Y-15417698D02*
X14269229Y-15427222D01*
X14269229Y-15427222D02*
X14259706Y-15436746D01*
X14259706Y-15436746D02*
X14250182Y-15455793D01*
X14250182Y-15455793D02*
X14250182Y-15493888D01*
X14250182Y-15493888D02*
X14259706Y-15512936D01*
X14259706Y-15512936D02*
X14269229Y-15522460D01*
X14269229Y-15522460D02*
X14288277Y-15531984D01*
X14288277Y-15531984D02*
X14326372Y-15531984D01*
X14326372Y-15531984D02*
X14345420Y-15522460D01*
X14345420Y-15522460D02*
X14354944Y-15512936D01*
X14354944Y-15512936D02*
X14364467Y-15493888D01*
X14364467Y-15493888D02*
X14364467Y-15455793D01*
X14364467Y-15455793D02*
X14354944Y-15436746D01*
X14354944Y-15436746D02*
X14345420Y-15427222D01*
X14345420Y-15427222D02*
X14326372Y-15417698D01*
X14535896Y-15398650D02*
X14535896Y-15531984D01*
X14488277Y-15322460D02*
X14440658Y-15465317D01*
X14440658Y-15465317D02*
X14564467Y-15465317D01*
X14631134Y-15331984D02*
X14631134Y-15370079D01*
X14707325Y-15331984D02*
X14707325Y-15370079D01*
X15002563Y-15608174D02*
X14993039Y-15598650D01*
X14993039Y-15598650D02*
X14973991Y-15570079D01*
X14973991Y-15570079D02*
X14964468Y-15551031D01*
X14964468Y-15551031D02*
X14954944Y-15522460D01*
X14954944Y-15522460D02*
X14945420Y-15474841D01*
X14945420Y-15474841D02*
X14945420Y-15436746D01*
X14945420Y-15436746D02*
X14954944Y-15389127D01*
X14954944Y-15389127D02*
X14964468Y-15360555D01*
X14964468Y-15360555D02*
X14973991Y-15341508D01*
X14973991Y-15341508D02*
X14993039Y-15312936D01*
X14993039Y-15312936D02*
X15002563Y-15303412D01*
X15183515Y-15531984D02*
X15069229Y-15531984D01*
X15126372Y-15531984D02*
X15126372Y-15331984D01*
X15126372Y-15331984D02*
X15107325Y-15360555D01*
X15107325Y-15360555D02*
X15088277Y-15379603D01*
X15088277Y-15379603D02*
X15069229Y-15389127D01*
X15421610Y-15531984D02*
X15421610Y-15331984D01*
X15507325Y-15531984D02*
X15507325Y-15427222D01*
X15507325Y-15427222D02*
X15497801Y-15408174D01*
X15497801Y-15408174D02*
X15478753Y-15398650D01*
X15478753Y-15398650D02*
X15450182Y-15398650D01*
X15450182Y-15398650D02*
X15431134Y-15408174D01*
X15431134Y-15408174D02*
X15421610Y-15417698D01*
X15631134Y-15531984D02*
X15612087Y-15522460D01*
X15612087Y-15522460D02*
X15602563Y-15512936D01*
X15602563Y-15512936D02*
X15593039Y-15493888D01*
X15593039Y-15493888D02*
X15593039Y-15436746D01*
X15593039Y-15436746D02*
X15602563Y-15417698D01*
X15602563Y-15417698D02*
X15612087Y-15408174D01*
X15612087Y-15408174D02*
X15631134Y-15398650D01*
X15631134Y-15398650D02*
X15659706Y-15398650D01*
X15659706Y-15398650D02*
X15678753Y-15408174D01*
X15678753Y-15408174D02*
X15688277Y-15417698D01*
X15688277Y-15417698D02*
X15697801Y-15436746D01*
X15697801Y-15436746D02*
X15697801Y-15493888D01*
X15697801Y-15493888D02*
X15688277Y-15512936D01*
X15688277Y-15512936D02*
X15678753Y-15522460D01*
X15678753Y-15522460D02*
X15659706Y-15531984D01*
X15659706Y-15531984D02*
X15631134Y-15531984D01*
X15812087Y-15531984D02*
X15793039Y-15522460D01*
X15793039Y-15522460D02*
X15783515Y-15503412D01*
X15783515Y-15503412D02*
X15783515Y-15331984D01*
X15964468Y-15522460D02*
X15945420Y-15531984D01*
X15945420Y-15531984D02*
X15907325Y-15531984D01*
X15907325Y-15531984D02*
X15888277Y-15522460D01*
X15888277Y-15522460D02*
X15878753Y-15503412D01*
X15878753Y-15503412D02*
X15878753Y-15427222D01*
X15878753Y-15427222D02*
X15888277Y-15408174D01*
X15888277Y-15408174D02*
X15907325Y-15398650D01*
X15907325Y-15398650D02*
X15945420Y-15398650D01*
X15945420Y-15398650D02*
X15964468Y-15408174D01*
X15964468Y-15408174D02*
X15973991Y-15427222D01*
X15973991Y-15427222D02*
X15973991Y-15446269D01*
X15973991Y-15446269D02*
X15878753Y-15465317D01*
X16040658Y-15608174D02*
X16050182Y-15598650D01*
X16050182Y-15598650D02*
X16069230Y-15570079D01*
X16069230Y-15570079D02*
X16078753Y-15551031D01*
X16078753Y-15551031D02*
X16088277Y-15522460D01*
X16088277Y-15522460D02*
X16097801Y-15474841D01*
X16097801Y-15474841D02*
X16097801Y-15436746D01*
X16097801Y-15436746D02*
X16088277Y-15389127D01*
X16088277Y-15389127D02*
X16078753Y-15360555D01*
X16078753Y-15360555D02*
X16069230Y-15341508D01*
X16069230Y-15341508D02*
X16050182Y-15312936D01*
X16050182Y-15312936D02*
X16040658Y-15303412D01*
X16402563Y-15608174D02*
X16393039Y-15598650D01*
X16393039Y-15598650D02*
X16373991Y-15570079D01*
X16373991Y-15570079D02*
X16364468Y-15551031D01*
X16364468Y-15551031D02*
X16354944Y-15522460D01*
X16354944Y-15522460D02*
X16345420Y-15474841D01*
X16345420Y-15474841D02*
X16345420Y-15436746D01*
X16345420Y-15436746D02*
X16354944Y-15389127D01*
X16354944Y-15389127D02*
X16364468Y-15360555D01*
X16364468Y-15360555D02*
X16373991Y-15341508D01*
X16373991Y-15341508D02*
X16393039Y-15312936D01*
X16393039Y-15312936D02*
X16402563Y-15303412D01*
X16478753Y-15398650D02*
X16478753Y-15531984D01*
X16478753Y-15417698D02*
X16488277Y-15408174D01*
X16488277Y-15408174D02*
X16507325Y-15398650D01*
X16507325Y-15398650D02*
X16535896Y-15398650D01*
X16535896Y-15398650D02*
X16554944Y-15408174D01*
X16554944Y-15408174D02*
X16564468Y-15427222D01*
X16564468Y-15427222D02*
X16564468Y-15531984D01*
X16688277Y-15531984D02*
X16669230Y-15522460D01*
X16669230Y-15522460D02*
X16659706Y-15512936D01*
X16659706Y-15512936D02*
X16650182Y-15493888D01*
X16650182Y-15493888D02*
X16650182Y-15436746D01*
X16650182Y-15436746D02*
X16659706Y-15417698D01*
X16659706Y-15417698D02*
X16669230Y-15408174D01*
X16669230Y-15408174D02*
X16688277Y-15398650D01*
X16688277Y-15398650D02*
X16716849Y-15398650D01*
X16716849Y-15398650D02*
X16735896Y-15408174D01*
X16735896Y-15408174D02*
X16745420Y-15417698D01*
X16745420Y-15417698D02*
X16754944Y-15436746D01*
X16754944Y-15436746D02*
X16754944Y-15493888D01*
X16754944Y-15493888D02*
X16745420Y-15512936D01*
X16745420Y-15512936D02*
X16735896Y-15522460D01*
X16735896Y-15522460D02*
X16716849Y-15531984D01*
X16716849Y-15531984D02*
X16688277Y-15531984D01*
X16812087Y-15398650D02*
X16888277Y-15398650D01*
X16840658Y-15331984D02*
X16840658Y-15503412D01*
X16840658Y-15503412D02*
X16850182Y-15522460D01*
X16850182Y-15522460D02*
X16869230Y-15531984D01*
X16869230Y-15531984D02*
X16888277Y-15531984D01*
X17107325Y-15398650D02*
X17107325Y-15598650D01*
X17107325Y-15408174D02*
X17126373Y-15398650D01*
X17126373Y-15398650D02*
X17164468Y-15398650D01*
X17164468Y-15398650D02*
X17183515Y-15408174D01*
X17183515Y-15408174D02*
X17193039Y-15417698D01*
X17193039Y-15417698D02*
X17202563Y-15436746D01*
X17202563Y-15436746D02*
X17202563Y-15493888D01*
X17202563Y-15493888D02*
X17193039Y-15512936D01*
X17193039Y-15512936D02*
X17183515Y-15522460D01*
X17183515Y-15522460D02*
X17164468Y-15531984D01*
X17164468Y-15531984D02*
X17126373Y-15531984D01*
X17126373Y-15531984D02*
X17107325Y-15522460D01*
X17316849Y-15531984D02*
X17297801Y-15522460D01*
X17297801Y-15522460D02*
X17288277Y-15503412D01*
X17288277Y-15503412D02*
X17288277Y-15331984D01*
X17478754Y-15531984D02*
X17478754Y-15427222D01*
X17478754Y-15427222D02*
X17469230Y-15408174D01*
X17469230Y-15408174D02*
X17450182Y-15398650D01*
X17450182Y-15398650D02*
X17412087Y-15398650D01*
X17412087Y-15398650D02*
X17393039Y-15408174D01*
X17478754Y-15522460D02*
X17459706Y-15531984D01*
X17459706Y-15531984D02*
X17412087Y-15531984D01*
X17412087Y-15531984D02*
X17393039Y-15522460D01*
X17393039Y-15522460D02*
X17383515Y-15503412D01*
X17383515Y-15503412D02*
X17383515Y-15484365D01*
X17383515Y-15484365D02*
X17393039Y-15465317D01*
X17393039Y-15465317D02*
X17412087Y-15455793D01*
X17412087Y-15455793D02*
X17459706Y-15455793D01*
X17459706Y-15455793D02*
X17478754Y-15446269D01*
X17545420Y-15398650D02*
X17621611Y-15398650D01*
X17573992Y-15331984D02*
X17573992Y-15503412D01*
X17573992Y-15503412D02*
X17583515Y-15522460D01*
X17583515Y-15522460D02*
X17602563Y-15531984D01*
X17602563Y-15531984D02*
X17621611Y-15531984D01*
X17764468Y-15522460D02*
X17745420Y-15531984D01*
X17745420Y-15531984D02*
X17707325Y-15531984D01*
X17707325Y-15531984D02*
X17688277Y-15522460D01*
X17688277Y-15522460D02*
X17678754Y-15503412D01*
X17678754Y-15503412D02*
X17678754Y-15427222D01*
X17678754Y-15427222D02*
X17688277Y-15408174D01*
X17688277Y-15408174D02*
X17707325Y-15398650D01*
X17707325Y-15398650D02*
X17745420Y-15398650D01*
X17745420Y-15398650D02*
X17764468Y-15408174D01*
X17764468Y-15408174D02*
X17773992Y-15427222D01*
X17773992Y-15427222D02*
X17773992Y-15446269D01*
X17773992Y-15446269D02*
X17678754Y-15465317D01*
X17945420Y-15531984D02*
X17945420Y-15331984D01*
X17945420Y-15522460D02*
X17926373Y-15531984D01*
X17926373Y-15531984D02*
X17888277Y-15531984D01*
X17888277Y-15531984D02*
X17869230Y-15522460D01*
X17869230Y-15522460D02*
X17859706Y-15512936D01*
X17859706Y-15512936D02*
X17850182Y-15493888D01*
X17850182Y-15493888D02*
X17850182Y-15436746D01*
X17850182Y-15436746D02*
X17859706Y-15417698D01*
X17859706Y-15417698D02*
X17869230Y-15408174D01*
X17869230Y-15408174D02*
X17888277Y-15398650D01*
X17888277Y-15398650D02*
X17926373Y-15398650D01*
X17926373Y-15398650D02*
X17945420Y-15408174D01*
X18021611Y-15608174D02*
X18031135Y-15598650D01*
X18031135Y-15598650D02*
X18050182Y-15570079D01*
X18050182Y-15570079D02*
X18059706Y-15551031D01*
X18059706Y-15551031D02*
X18069230Y-15522460D01*
X18069230Y-15522460D02*
X18078754Y-15474841D01*
X18078754Y-15474841D02*
X18078754Y-15436746D01*
X18078754Y-15436746D02*
X18069230Y-15389127D01*
X18069230Y-15389127D02*
X18059706Y-15360555D01*
X18059706Y-15360555D02*
X18050182Y-15341508D01*
X18050182Y-15341508D02*
X18031135Y-15312936D01*
X18031135Y-15312936D02*
X18021611Y-15303412D01*
X11327500Y-15660500D02*
X11327500Y-15860500D01*
X11227500Y-15760500D02*
X11427500Y-15760500D01*
X11678753Y-15671031D02*
X11688277Y-15661508D01*
X11688277Y-15661508D02*
X11707324Y-15651984D01*
X11707324Y-15651984D02*
X11754943Y-15651984D01*
X11754943Y-15651984D02*
X11773991Y-15661508D01*
X11773991Y-15661508D02*
X11783515Y-15671031D01*
X11783515Y-15671031D02*
X11793039Y-15690079D01*
X11793039Y-15690079D02*
X11793039Y-15709127D01*
X11793039Y-15709127D02*
X11783515Y-15737698D01*
X11783515Y-15737698D02*
X11669229Y-15851984D01*
X11669229Y-15851984D02*
X11793039Y-15851984D01*
X11878753Y-15832936D02*
X11888277Y-15842460D01*
X11888277Y-15842460D02*
X11878753Y-15851984D01*
X11878753Y-15851984D02*
X11869229Y-15842460D01*
X11869229Y-15842460D02*
X11878753Y-15832936D01*
X11878753Y-15832936D02*
X11878753Y-15851984D01*
X11954943Y-15651984D02*
X12088277Y-15651984D01*
X12088277Y-15651984D02*
X12002562Y-15851984D01*
X12202562Y-15651984D02*
X12221610Y-15651984D01*
X12221610Y-15651984D02*
X12240658Y-15661508D01*
X12240658Y-15661508D02*
X12250182Y-15671031D01*
X12250182Y-15671031D02*
X12259705Y-15690079D01*
X12259705Y-15690079D02*
X12269229Y-15728174D01*
X12269229Y-15728174D02*
X12269229Y-15775793D01*
X12269229Y-15775793D02*
X12259705Y-15813888D01*
X12259705Y-15813888D02*
X12250182Y-15832936D01*
X12250182Y-15832936D02*
X12240658Y-15842460D01*
X12240658Y-15842460D02*
X12221610Y-15851984D01*
X12221610Y-15851984D02*
X12202562Y-15851984D01*
X12202562Y-15851984D02*
X12183515Y-15842460D01*
X12183515Y-15842460D02*
X12173991Y-15832936D01*
X12173991Y-15832936D02*
X12164467Y-15813888D01*
X12164467Y-15813888D02*
X12154943Y-15775793D01*
X12154943Y-15775793D02*
X12154943Y-15728174D01*
X12154943Y-15728174D02*
X12164467Y-15690079D01*
X12164467Y-15690079D02*
X12173991Y-15671031D01*
X12173991Y-15671031D02*
X12183515Y-15661508D01*
X12183515Y-15661508D02*
X12202562Y-15651984D01*
X12393039Y-15651984D02*
X12412086Y-15651984D01*
X12412086Y-15651984D02*
X12431134Y-15661508D01*
X12431134Y-15661508D02*
X12440658Y-15671031D01*
X12440658Y-15671031D02*
X12450182Y-15690079D01*
X12450182Y-15690079D02*
X12459705Y-15728174D01*
X12459705Y-15728174D02*
X12459705Y-15775793D01*
X12459705Y-15775793D02*
X12450182Y-15813888D01*
X12450182Y-15813888D02*
X12440658Y-15832936D01*
X12440658Y-15832936D02*
X12431134Y-15842460D01*
X12431134Y-15842460D02*
X12412086Y-15851984D01*
X12412086Y-15851984D02*
X12393039Y-15851984D01*
X12393039Y-15851984D02*
X12373991Y-15842460D01*
X12373991Y-15842460D02*
X12364467Y-15832936D01*
X12364467Y-15832936D02*
X12354943Y-15813888D01*
X12354943Y-15813888D02*
X12345420Y-15775793D01*
X12345420Y-15775793D02*
X12345420Y-15728174D01*
X12345420Y-15728174D02*
X12354943Y-15690079D01*
X12354943Y-15690079D02*
X12364467Y-15671031D01*
X12364467Y-15671031D02*
X12373991Y-15661508D01*
X12373991Y-15661508D02*
X12393039Y-15651984D01*
X12545420Y-15851984D02*
X12545420Y-15718650D01*
X12545420Y-15737698D02*
X12554943Y-15728174D01*
X12554943Y-15728174D02*
X12573991Y-15718650D01*
X12573991Y-15718650D02*
X12602563Y-15718650D01*
X12602563Y-15718650D02*
X12621610Y-15728174D01*
X12621610Y-15728174D02*
X12631134Y-15747222D01*
X12631134Y-15747222D02*
X12631134Y-15851984D01*
X12631134Y-15747222D02*
X12640658Y-15728174D01*
X12640658Y-15728174D02*
X12659705Y-15718650D01*
X12659705Y-15718650D02*
X12688277Y-15718650D01*
X12688277Y-15718650D02*
X12707324Y-15728174D01*
X12707324Y-15728174D02*
X12716848Y-15747222D01*
X12716848Y-15747222D02*
X12716848Y-15851984D01*
X12812086Y-15851984D02*
X12812086Y-15718650D01*
X12812086Y-15737698D02*
X12821610Y-15728174D01*
X12821610Y-15728174D02*
X12840658Y-15718650D01*
X12840658Y-15718650D02*
X12869229Y-15718650D01*
X12869229Y-15718650D02*
X12888277Y-15728174D01*
X12888277Y-15728174D02*
X12897801Y-15747222D01*
X12897801Y-15747222D02*
X12897801Y-15851984D01*
X12897801Y-15747222D02*
X12907324Y-15728174D01*
X12907324Y-15728174D02*
X12926372Y-15718650D01*
X12926372Y-15718650D02*
X12954943Y-15718650D01*
X12954943Y-15718650D02*
X12973991Y-15728174D01*
X12973991Y-15728174D02*
X12983515Y-15747222D01*
X12983515Y-15747222D02*
X12983515Y-15851984D01*
X13373991Y-15642460D02*
X13202563Y-15899603D01*
X13631134Y-15651984D02*
X13650182Y-15651984D01*
X13650182Y-15651984D02*
X13669229Y-15661508D01*
X13669229Y-15661508D02*
X13678753Y-15671031D01*
X13678753Y-15671031D02*
X13688277Y-15690079D01*
X13688277Y-15690079D02*
X13697801Y-15728174D01*
X13697801Y-15728174D02*
X13697801Y-15775793D01*
X13697801Y-15775793D02*
X13688277Y-15813888D01*
X13688277Y-15813888D02*
X13678753Y-15832936D01*
X13678753Y-15832936D02*
X13669229Y-15842460D01*
X13669229Y-15842460D02*
X13650182Y-15851984D01*
X13650182Y-15851984D02*
X13631134Y-15851984D01*
X13631134Y-15851984D02*
X13612086Y-15842460D01*
X13612086Y-15842460D02*
X13602563Y-15832936D01*
X13602563Y-15832936D02*
X13593039Y-15813888D01*
X13593039Y-15813888D02*
X13583515Y-15775793D01*
X13583515Y-15775793D02*
X13583515Y-15728174D01*
X13583515Y-15728174D02*
X13593039Y-15690079D01*
X13593039Y-15690079D02*
X13602563Y-15671031D01*
X13602563Y-15671031D02*
X13612086Y-15661508D01*
X13612086Y-15661508D02*
X13631134Y-15651984D01*
X13783515Y-15832936D02*
X13793039Y-15842460D01*
X13793039Y-15842460D02*
X13783515Y-15851984D01*
X13783515Y-15851984D02*
X13773991Y-15842460D01*
X13773991Y-15842460D02*
X13783515Y-15832936D01*
X13783515Y-15832936D02*
X13783515Y-15851984D01*
X13983515Y-15851984D02*
X13869229Y-15851984D01*
X13926372Y-15851984D02*
X13926372Y-15651984D01*
X13926372Y-15651984D02*
X13907325Y-15680555D01*
X13907325Y-15680555D02*
X13888277Y-15699603D01*
X13888277Y-15699603D02*
X13869229Y-15709127D01*
X14107325Y-15651984D02*
X14126372Y-15651984D01*
X14126372Y-15651984D02*
X14145420Y-15661508D01*
X14145420Y-15661508D02*
X14154944Y-15671031D01*
X14154944Y-15671031D02*
X14164467Y-15690079D01*
X14164467Y-15690079D02*
X14173991Y-15728174D01*
X14173991Y-15728174D02*
X14173991Y-15775793D01*
X14173991Y-15775793D02*
X14164467Y-15813888D01*
X14164467Y-15813888D02*
X14154944Y-15832936D01*
X14154944Y-15832936D02*
X14145420Y-15842460D01*
X14145420Y-15842460D02*
X14126372Y-15851984D01*
X14126372Y-15851984D02*
X14107325Y-15851984D01*
X14107325Y-15851984D02*
X14088277Y-15842460D01*
X14088277Y-15842460D02*
X14078753Y-15832936D01*
X14078753Y-15832936D02*
X14069229Y-15813888D01*
X14069229Y-15813888D02*
X14059706Y-15775793D01*
X14059706Y-15775793D02*
X14059706Y-15728174D01*
X14059706Y-15728174D02*
X14069229Y-15690079D01*
X14069229Y-15690079D02*
X14078753Y-15671031D01*
X14078753Y-15671031D02*
X14088277Y-15661508D01*
X14088277Y-15661508D02*
X14107325Y-15651984D01*
X14345420Y-15651984D02*
X14307325Y-15651984D01*
X14307325Y-15651984D02*
X14288277Y-15661508D01*
X14288277Y-15661508D02*
X14278753Y-15671031D01*
X14278753Y-15671031D02*
X14259706Y-15699603D01*
X14259706Y-15699603D02*
X14250182Y-15737698D01*
X14250182Y-15737698D02*
X14250182Y-15813888D01*
X14250182Y-15813888D02*
X14259706Y-15832936D01*
X14259706Y-15832936D02*
X14269229Y-15842460D01*
X14269229Y-15842460D02*
X14288277Y-15851984D01*
X14288277Y-15851984D02*
X14326372Y-15851984D01*
X14326372Y-15851984D02*
X14345420Y-15842460D01*
X14345420Y-15842460D02*
X14354944Y-15832936D01*
X14354944Y-15832936D02*
X14364467Y-15813888D01*
X14364467Y-15813888D02*
X14364467Y-15766269D01*
X14364467Y-15766269D02*
X14354944Y-15747222D01*
X14354944Y-15747222D02*
X14345420Y-15737698D01*
X14345420Y-15737698D02*
X14326372Y-15728174D01*
X14326372Y-15728174D02*
X14288277Y-15728174D01*
X14288277Y-15728174D02*
X14269229Y-15737698D01*
X14269229Y-15737698D02*
X14259706Y-15747222D01*
X14259706Y-15747222D02*
X14250182Y-15766269D01*
X14431134Y-15651984D02*
X14554944Y-15651984D01*
X14554944Y-15651984D02*
X14488277Y-15728174D01*
X14488277Y-15728174D02*
X14516848Y-15728174D01*
X14516848Y-15728174D02*
X14535896Y-15737698D01*
X14535896Y-15737698D02*
X14545420Y-15747222D01*
X14545420Y-15747222D02*
X14554944Y-15766269D01*
X14554944Y-15766269D02*
X14554944Y-15813888D01*
X14554944Y-15813888D02*
X14545420Y-15832936D01*
X14545420Y-15832936D02*
X14535896Y-15842460D01*
X14535896Y-15842460D02*
X14516848Y-15851984D01*
X14516848Y-15851984D02*
X14459706Y-15851984D01*
X14459706Y-15851984D02*
X14440658Y-15842460D01*
X14440658Y-15842460D02*
X14431134Y-15832936D01*
X14631134Y-15651984D02*
X14631134Y-15690079D01*
X14707325Y-15651984D02*
X14707325Y-15690079D01*
X15002563Y-15928174D02*
X14993039Y-15918650D01*
X14993039Y-15918650D02*
X14973991Y-15890079D01*
X14973991Y-15890079D02*
X14964468Y-15871031D01*
X14964468Y-15871031D02*
X14954944Y-15842460D01*
X14954944Y-15842460D02*
X14945420Y-15794841D01*
X14945420Y-15794841D02*
X14945420Y-15756746D01*
X14945420Y-15756746D02*
X14954944Y-15709127D01*
X14954944Y-15709127D02*
X14964468Y-15680555D01*
X14964468Y-15680555D02*
X14973991Y-15661508D01*
X14973991Y-15661508D02*
X14993039Y-15632936D01*
X14993039Y-15632936D02*
X15002563Y-15623412D01*
X15183515Y-15851984D02*
X15069229Y-15851984D01*
X15126372Y-15851984D02*
X15126372Y-15651984D01*
X15126372Y-15651984D02*
X15107325Y-15680555D01*
X15107325Y-15680555D02*
X15088277Y-15699603D01*
X15088277Y-15699603D02*
X15069229Y-15709127D01*
X15421610Y-15851984D02*
X15421610Y-15651984D01*
X15507325Y-15851984D02*
X15507325Y-15747222D01*
X15507325Y-15747222D02*
X15497801Y-15728174D01*
X15497801Y-15728174D02*
X15478753Y-15718650D01*
X15478753Y-15718650D02*
X15450182Y-15718650D01*
X15450182Y-15718650D02*
X15431134Y-15728174D01*
X15431134Y-15728174D02*
X15421610Y-15737698D01*
X15631134Y-15851984D02*
X15612087Y-15842460D01*
X15612087Y-15842460D02*
X15602563Y-15832936D01*
X15602563Y-15832936D02*
X15593039Y-15813888D01*
X15593039Y-15813888D02*
X15593039Y-15756746D01*
X15593039Y-15756746D02*
X15602563Y-15737698D01*
X15602563Y-15737698D02*
X15612087Y-15728174D01*
X15612087Y-15728174D02*
X15631134Y-15718650D01*
X15631134Y-15718650D02*
X15659706Y-15718650D01*
X15659706Y-15718650D02*
X15678753Y-15728174D01*
X15678753Y-15728174D02*
X15688277Y-15737698D01*
X15688277Y-15737698D02*
X15697801Y-15756746D01*
X15697801Y-15756746D02*
X15697801Y-15813888D01*
X15697801Y-15813888D02*
X15688277Y-15832936D01*
X15688277Y-15832936D02*
X15678753Y-15842460D01*
X15678753Y-15842460D02*
X15659706Y-15851984D01*
X15659706Y-15851984D02*
X15631134Y-15851984D01*
X15812087Y-15851984D02*
X15793039Y-15842460D01*
X15793039Y-15842460D02*
X15783515Y-15823412D01*
X15783515Y-15823412D02*
X15783515Y-15651984D01*
X15964468Y-15842460D02*
X15945420Y-15851984D01*
X15945420Y-15851984D02*
X15907325Y-15851984D01*
X15907325Y-15851984D02*
X15888277Y-15842460D01*
X15888277Y-15842460D02*
X15878753Y-15823412D01*
X15878753Y-15823412D02*
X15878753Y-15747222D01*
X15878753Y-15747222D02*
X15888277Y-15728174D01*
X15888277Y-15728174D02*
X15907325Y-15718650D01*
X15907325Y-15718650D02*
X15945420Y-15718650D01*
X15945420Y-15718650D02*
X15964468Y-15728174D01*
X15964468Y-15728174D02*
X15973991Y-15747222D01*
X15973991Y-15747222D02*
X15973991Y-15766269D01*
X15973991Y-15766269D02*
X15878753Y-15785317D01*
X16040658Y-15928174D02*
X16050182Y-15918650D01*
X16050182Y-15918650D02*
X16069230Y-15890079D01*
X16069230Y-15890079D02*
X16078753Y-15871031D01*
X16078753Y-15871031D02*
X16088277Y-15842460D01*
X16088277Y-15842460D02*
X16097801Y-15794841D01*
X16097801Y-15794841D02*
X16097801Y-15756746D01*
X16097801Y-15756746D02*
X16088277Y-15709127D01*
X16088277Y-15709127D02*
X16078753Y-15680555D01*
X16078753Y-15680555D02*
X16069230Y-15661508D01*
X16069230Y-15661508D02*
X16050182Y-15632936D01*
X16050182Y-15632936D02*
X16040658Y-15623412D01*
X16402563Y-15928174D02*
X16393039Y-15918650D01*
X16393039Y-15918650D02*
X16373991Y-15890079D01*
X16373991Y-15890079D02*
X16364468Y-15871031D01*
X16364468Y-15871031D02*
X16354944Y-15842460D01*
X16354944Y-15842460D02*
X16345420Y-15794841D01*
X16345420Y-15794841D02*
X16345420Y-15756746D01*
X16345420Y-15756746D02*
X16354944Y-15709127D01*
X16354944Y-15709127D02*
X16364468Y-15680555D01*
X16364468Y-15680555D02*
X16373991Y-15661508D01*
X16373991Y-15661508D02*
X16393039Y-15632936D01*
X16393039Y-15632936D02*
X16402563Y-15623412D01*
X16478753Y-15718650D02*
X16478753Y-15851984D01*
X16478753Y-15737698D02*
X16488277Y-15728174D01*
X16488277Y-15728174D02*
X16507325Y-15718650D01*
X16507325Y-15718650D02*
X16535896Y-15718650D01*
X16535896Y-15718650D02*
X16554944Y-15728174D01*
X16554944Y-15728174D02*
X16564468Y-15747222D01*
X16564468Y-15747222D02*
X16564468Y-15851984D01*
X16688277Y-15851984D02*
X16669230Y-15842460D01*
X16669230Y-15842460D02*
X16659706Y-15832936D01*
X16659706Y-15832936D02*
X16650182Y-15813888D01*
X16650182Y-15813888D02*
X16650182Y-15756746D01*
X16650182Y-15756746D02*
X16659706Y-15737698D01*
X16659706Y-15737698D02*
X16669230Y-15728174D01*
X16669230Y-15728174D02*
X16688277Y-15718650D01*
X16688277Y-15718650D02*
X16716849Y-15718650D01*
X16716849Y-15718650D02*
X16735896Y-15728174D01*
X16735896Y-15728174D02*
X16745420Y-15737698D01*
X16745420Y-15737698D02*
X16754944Y-15756746D01*
X16754944Y-15756746D02*
X16754944Y-15813888D01*
X16754944Y-15813888D02*
X16745420Y-15832936D01*
X16745420Y-15832936D02*
X16735896Y-15842460D01*
X16735896Y-15842460D02*
X16716849Y-15851984D01*
X16716849Y-15851984D02*
X16688277Y-15851984D01*
X16812087Y-15718650D02*
X16888277Y-15718650D01*
X16840658Y-15651984D02*
X16840658Y-15823412D01*
X16840658Y-15823412D02*
X16850182Y-15842460D01*
X16850182Y-15842460D02*
X16869230Y-15851984D01*
X16869230Y-15851984D02*
X16888277Y-15851984D01*
X17107325Y-15718650D02*
X17107325Y-15918650D01*
X17107325Y-15728174D02*
X17126373Y-15718650D01*
X17126373Y-15718650D02*
X17164468Y-15718650D01*
X17164468Y-15718650D02*
X17183515Y-15728174D01*
X17183515Y-15728174D02*
X17193039Y-15737698D01*
X17193039Y-15737698D02*
X17202563Y-15756746D01*
X17202563Y-15756746D02*
X17202563Y-15813888D01*
X17202563Y-15813888D02*
X17193039Y-15832936D01*
X17193039Y-15832936D02*
X17183515Y-15842460D01*
X17183515Y-15842460D02*
X17164468Y-15851984D01*
X17164468Y-15851984D02*
X17126373Y-15851984D01*
X17126373Y-15851984D02*
X17107325Y-15842460D01*
X17316849Y-15851984D02*
X17297801Y-15842460D01*
X17297801Y-15842460D02*
X17288277Y-15823412D01*
X17288277Y-15823412D02*
X17288277Y-15651984D01*
X17478754Y-15851984D02*
X17478754Y-15747222D01*
X17478754Y-15747222D02*
X17469230Y-15728174D01*
X17469230Y-15728174D02*
X17450182Y-15718650D01*
X17450182Y-15718650D02*
X17412087Y-15718650D01*
X17412087Y-15718650D02*
X17393039Y-15728174D01*
X17478754Y-15842460D02*
X17459706Y-15851984D01*
X17459706Y-15851984D02*
X17412087Y-15851984D01*
X17412087Y-15851984D02*
X17393039Y-15842460D01*
X17393039Y-15842460D02*
X17383515Y-15823412D01*
X17383515Y-15823412D02*
X17383515Y-15804365D01*
X17383515Y-15804365D02*
X17393039Y-15785317D01*
X17393039Y-15785317D02*
X17412087Y-15775793D01*
X17412087Y-15775793D02*
X17459706Y-15775793D01*
X17459706Y-15775793D02*
X17478754Y-15766269D01*
X17545420Y-15718650D02*
X17621611Y-15718650D01*
X17573992Y-15651984D02*
X17573992Y-15823412D01*
X17573992Y-15823412D02*
X17583515Y-15842460D01*
X17583515Y-15842460D02*
X17602563Y-15851984D01*
X17602563Y-15851984D02*
X17621611Y-15851984D01*
X17764468Y-15842460D02*
X17745420Y-15851984D01*
X17745420Y-15851984D02*
X17707325Y-15851984D01*
X17707325Y-15851984D02*
X17688277Y-15842460D01*
X17688277Y-15842460D02*
X17678754Y-15823412D01*
X17678754Y-15823412D02*
X17678754Y-15747222D01*
X17678754Y-15747222D02*
X17688277Y-15728174D01*
X17688277Y-15728174D02*
X17707325Y-15718650D01*
X17707325Y-15718650D02*
X17745420Y-15718650D01*
X17745420Y-15718650D02*
X17764468Y-15728174D01*
X17764468Y-15728174D02*
X17773992Y-15747222D01*
X17773992Y-15747222D02*
X17773992Y-15766269D01*
X17773992Y-15766269D02*
X17678754Y-15785317D01*
X17945420Y-15851984D02*
X17945420Y-15651984D01*
X17945420Y-15842460D02*
X17926373Y-15851984D01*
X17926373Y-15851984D02*
X17888277Y-15851984D01*
X17888277Y-15851984D02*
X17869230Y-15842460D01*
X17869230Y-15842460D02*
X17859706Y-15832936D01*
X17859706Y-15832936D02*
X17850182Y-15813888D01*
X17850182Y-15813888D02*
X17850182Y-15756746D01*
X17850182Y-15756746D02*
X17859706Y-15737698D01*
X17859706Y-15737698D02*
X17869230Y-15728174D01*
X17869230Y-15728174D02*
X17888277Y-15718650D01*
X17888277Y-15718650D02*
X17926373Y-15718650D01*
X17926373Y-15718650D02*
X17945420Y-15728174D01*
X18021611Y-15928174D02*
X18031135Y-15918650D01*
X18031135Y-15918650D02*
X18050182Y-15890079D01*
X18050182Y-15890079D02*
X18059706Y-15871031D01*
X18059706Y-15871031D02*
X18069230Y-15842460D01*
X18069230Y-15842460D02*
X18078754Y-15794841D01*
X18078754Y-15794841D02*
X18078754Y-15756746D01*
X18078754Y-15756746D02*
X18069230Y-15709127D01*
X18069230Y-15709127D02*
X18059706Y-15680555D01*
X18059706Y-15680555D02*
X18050182Y-15661508D01*
X18050182Y-15661508D02*
X18031135Y-15632936D01*
X18031135Y-15632936D02*
X18021611Y-15623412D01*
X11398211Y-16151211D02*
X11398211Y-16009789D01*
X11256789Y-16009789D01*
X11256789Y-16151211D01*
X11398211Y-16151211D01*
X11669229Y-15971984D02*
X11793039Y-15971984D01*
X11793039Y-15971984D02*
X11726372Y-16048174D01*
X11726372Y-16048174D02*
X11754943Y-16048174D01*
X11754943Y-16048174D02*
X11773991Y-16057698D01*
X11773991Y-16057698D02*
X11783515Y-16067222D01*
X11783515Y-16067222D02*
X11793039Y-16086269D01*
X11793039Y-16086269D02*
X11793039Y-16133888D01*
X11793039Y-16133888D02*
X11783515Y-16152936D01*
X11783515Y-16152936D02*
X11773991Y-16162460D01*
X11773991Y-16162460D02*
X11754943Y-16171984D01*
X11754943Y-16171984D02*
X11697801Y-16171984D01*
X11697801Y-16171984D02*
X11678753Y-16162460D01*
X11678753Y-16162460D02*
X11669229Y-16152936D01*
X11878753Y-16152936D02*
X11888277Y-16162460D01*
X11888277Y-16162460D02*
X11878753Y-16171984D01*
X11878753Y-16171984D02*
X11869229Y-16162460D01*
X11869229Y-16162460D02*
X11878753Y-16152936D01*
X11878753Y-16152936D02*
X11878753Y-16171984D01*
X12012086Y-15971984D02*
X12031134Y-15971984D01*
X12031134Y-15971984D02*
X12050182Y-15981508D01*
X12050182Y-15981508D02*
X12059705Y-15991031D01*
X12059705Y-15991031D02*
X12069229Y-16010079D01*
X12069229Y-16010079D02*
X12078753Y-16048174D01*
X12078753Y-16048174D02*
X12078753Y-16095793D01*
X12078753Y-16095793D02*
X12069229Y-16133888D01*
X12069229Y-16133888D02*
X12059705Y-16152936D01*
X12059705Y-16152936D02*
X12050182Y-16162460D01*
X12050182Y-16162460D02*
X12031134Y-16171984D01*
X12031134Y-16171984D02*
X12012086Y-16171984D01*
X12012086Y-16171984D02*
X11993039Y-16162460D01*
X11993039Y-16162460D02*
X11983515Y-16152936D01*
X11983515Y-16152936D02*
X11973991Y-16133888D01*
X11973991Y-16133888D02*
X11964467Y-16095793D01*
X11964467Y-16095793D02*
X11964467Y-16048174D01*
X11964467Y-16048174D02*
X11973991Y-16010079D01*
X11973991Y-16010079D02*
X11983515Y-15991031D01*
X11983515Y-15991031D02*
X11993039Y-15981508D01*
X11993039Y-15981508D02*
X12012086Y-15971984D01*
X12202562Y-15971984D02*
X12221610Y-15971984D01*
X12221610Y-15971984D02*
X12240658Y-15981508D01*
X12240658Y-15981508D02*
X12250182Y-15991031D01*
X12250182Y-15991031D02*
X12259705Y-16010079D01*
X12259705Y-16010079D02*
X12269229Y-16048174D01*
X12269229Y-16048174D02*
X12269229Y-16095793D01*
X12269229Y-16095793D02*
X12259705Y-16133888D01*
X12259705Y-16133888D02*
X12250182Y-16152936D01*
X12250182Y-16152936D02*
X12240658Y-16162460D01*
X12240658Y-16162460D02*
X12221610Y-16171984D01*
X12221610Y-16171984D02*
X12202562Y-16171984D01*
X12202562Y-16171984D02*
X12183515Y-16162460D01*
X12183515Y-16162460D02*
X12173991Y-16152936D01*
X12173991Y-16152936D02*
X12164467Y-16133888D01*
X12164467Y-16133888D02*
X12154943Y-16095793D01*
X12154943Y-16095793D02*
X12154943Y-16048174D01*
X12154943Y-16048174D02*
X12164467Y-16010079D01*
X12164467Y-16010079D02*
X12173991Y-15991031D01*
X12173991Y-15991031D02*
X12183515Y-15981508D01*
X12183515Y-15981508D02*
X12202562Y-15971984D01*
X12393039Y-15971984D02*
X12412086Y-15971984D01*
X12412086Y-15971984D02*
X12431134Y-15981508D01*
X12431134Y-15981508D02*
X12440658Y-15991031D01*
X12440658Y-15991031D02*
X12450182Y-16010079D01*
X12450182Y-16010079D02*
X12459705Y-16048174D01*
X12459705Y-16048174D02*
X12459705Y-16095793D01*
X12459705Y-16095793D02*
X12450182Y-16133888D01*
X12450182Y-16133888D02*
X12440658Y-16152936D01*
X12440658Y-16152936D02*
X12431134Y-16162460D01*
X12431134Y-16162460D02*
X12412086Y-16171984D01*
X12412086Y-16171984D02*
X12393039Y-16171984D01*
X12393039Y-16171984D02*
X12373991Y-16162460D01*
X12373991Y-16162460D02*
X12364467Y-16152936D01*
X12364467Y-16152936D02*
X12354943Y-16133888D01*
X12354943Y-16133888D02*
X12345420Y-16095793D01*
X12345420Y-16095793D02*
X12345420Y-16048174D01*
X12345420Y-16048174D02*
X12354943Y-16010079D01*
X12354943Y-16010079D02*
X12364467Y-15991031D01*
X12364467Y-15991031D02*
X12373991Y-15981508D01*
X12373991Y-15981508D02*
X12393039Y-15971984D01*
X12545420Y-16171984D02*
X12545420Y-16038650D01*
X12545420Y-16057698D02*
X12554943Y-16048174D01*
X12554943Y-16048174D02*
X12573991Y-16038650D01*
X12573991Y-16038650D02*
X12602563Y-16038650D01*
X12602563Y-16038650D02*
X12621610Y-16048174D01*
X12621610Y-16048174D02*
X12631134Y-16067222D01*
X12631134Y-16067222D02*
X12631134Y-16171984D01*
X12631134Y-16067222D02*
X12640658Y-16048174D01*
X12640658Y-16048174D02*
X12659705Y-16038650D01*
X12659705Y-16038650D02*
X12688277Y-16038650D01*
X12688277Y-16038650D02*
X12707324Y-16048174D01*
X12707324Y-16048174D02*
X12716848Y-16067222D01*
X12716848Y-16067222D02*
X12716848Y-16171984D01*
X12812086Y-16171984D02*
X12812086Y-16038650D01*
X12812086Y-16057698D02*
X12821610Y-16048174D01*
X12821610Y-16048174D02*
X12840658Y-16038650D01*
X12840658Y-16038650D02*
X12869229Y-16038650D01*
X12869229Y-16038650D02*
X12888277Y-16048174D01*
X12888277Y-16048174D02*
X12897801Y-16067222D01*
X12897801Y-16067222D02*
X12897801Y-16171984D01*
X12897801Y-16067222D02*
X12907324Y-16048174D01*
X12907324Y-16048174D02*
X12926372Y-16038650D01*
X12926372Y-16038650D02*
X12954943Y-16038650D01*
X12954943Y-16038650D02*
X12973991Y-16048174D01*
X12973991Y-16048174D02*
X12983515Y-16067222D01*
X12983515Y-16067222D02*
X12983515Y-16171984D01*
X13373991Y-15962460D02*
X13202563Y-16219603D01*
X13631134Y-15971984D02*
X13650182Y-15971984D01*
X13650182Y-15971984D02*
X13669229Y-15981508D01*
X13669229Y-15981508D02*
X13678753Y-15991031D01*
X13678753Y-15991031D02*
X13688277Y-16010079D01*
X13688277Y-16010079D02*
X13697801Y-16048174D01*
X13697801Y-16048174D02*
X13697801Y-16095793D01*
X13697801Y-16095793D02*
X13688277Y-16133888D01*
X13688277Y-16133888D02*
X13678753Y-16152936D01*
X13678753Y-16152936D02*
X13669229Y-16162460D01*
X13669229Y-16162460D02*
X13650182Y-16171984D01*
X13650182Y-16171984D02*
X13631134Y-16171984D01*
X13631134Y-16171984D02*
X13612086Y-16162460D01*
X13612086Y-16162460D02*
X13602563Y-16152936D01*
X13602563Y-16152936D02*
X13593039Y-16133888D01*
X13593039Y-16133888D02*
X13583515Y-16095793D01*
X13583515Y-16095793D02*
X13583515Y-16048174D01*
X13583515Y-16048174D02*
X13593039Y-16010079D01*
X13593039Y-16010079D02*
X13602563Y-15991031D01*
X13602563Y-15991031D02*
X13612086Y-15981508D01*
X13612086Y-15981508D02*
X13631134Y-15971984D01*
X13783515Y-16152936D02*
X13793039Y-16162460D01*
X13793039Y-16162460D02*
X13783515Y-16171984D01*
X13783515Y-16171984D02*
X13773991Y-16162460D01*
X13773991Y-16162460D02*
X13783515Y-16152936D01*
X13783515Y-16152936D02*
X13783515Y-16171984D01*
X13983515Y-16171984D02*
X13869229Y-16171984D01*
X13926372Y-16171984D02*
X13926372Y-15971984D01*
X13926372Y-15971984D02*
X13907325Y-16000555D01*
X13907325Y-16000555D02*
X13888277Y-16019603D01*
X13888277Y-16019603D02*
X13869229Y-16029127D01*
X14173991Y-16171984D02*
X14059706Y-16171984D01*
X14116848Y-16171984D02*
X14116848Y-15971984D01*
X14116848Y-15971984D02*
X14097801Y-16000555D01*
X14097801Y-16000555D02*
X14078753Y-16019603D01*
X14078753Y-16019603D02*
X14059706Y-16029127D01*
X14288277Y-16057698D02*
X14269229Y-16048174D01*
X14269229Y-16048174D02*
X14259706Y-16038650D01*
X14259706Y-16038650D02*
X14250182Y-16019603D01*
X14250182Y-16019603D02*
X14250182Y-16010079D01*
X14250182Y-16010079D02*
X14259706Y-15991031D01*
X14259706Y-15991031D02*
X14269229Y-15981508D01*
X14269229Y-15981508D02*
X14288277Y-15971984D01*
X14288277Y-15971984D02*
X14326372Y-15971984D01*
X14326372Y-15971984D02*
X14345420Y-15981508D01*
X14345420Y-15981508D02*
X14354944Y-15991031D01*
X14354944Y-15991031D02*
X14364467Y-16010079D01*
X14364467Y-16010079D02*
X14364467Y-16019603D01*
X14364467Y-16019603D02*
X14354944Y-16038650D01*
X14354944Y-16038650D02*
X14345420Y-16048174D01*
X14345420Y-16048174D02*
X14326372Y-16057698D01*
X14326372Y-16057698D02*
X14288277Y-16057698D01*
X14288277Y-16057698D02*
X14269229Y-16067222D01*
X14269229Y-16067222D02*
X14259706Y-16076746D01*
X14259706Y-16076746D02*
X14250182Y-16095793D01*
X14250182Y-16095793D02*
X14250182Y-16133888D01*
X14250182Y-16133888D02*
X14259706Y-16152936D01*
X14259706Y-16152936D02*
X14269229Y-16162460D01*
X14269229Y-16162460D02*
X14288277Y-16171984D01*
X14288277Y-16171984D02*
X14326372Y-16171984D01*
X14326372Y-16171984D02*
X14345420Y-16162460D01*
X14345420Y-16162460D02*
X14354944Y-16152936D01*
X14354944Y-16152936D02*
X14364467Y-16133888D01*
X14364467Y-16133888D02*
X14364467Y-16095793D01*
X14364467Y-16095793D02*
X14354944Y-16076746D01*
X14354944Y-16076746D02*
X14345420Y-16067222D01*
X14345420Y-16067222D02*
X14326372Y-16057698D01*
X14554944Y-16171984D02*
X14440658Y-16171984D01*
X14497801Y-16171984D02*
X14497801Y-15971984D01*
X14497801Y-15971984D02*
X14478753Y-16000555D01*
X14478753Y-16000555D02*
X14459706Y-16019603D01*
X14459706Y-16019603D02*
X14440658Y-16029127D01*
X14631134Y-15971984D02*
X14631134Y-16010079D01*
X14707325Y-15971984D02*
X14707325Y-16010079D01*
X15002563Y-16248174D02*
X14993039Y-16238650D01*
X14993039Y-16238650D02*
X14973991Y-16210079D01*
X14973991Y-16210079D02*
X14964468Y-16191031D01*
X14964468Y-16191031D02*
X14954944Y-16162460D01*
X14954944Y-16162460D02*
X14945420Y-16114841D01*
X14945420Y-16114841D02*
X14945420Y-16076746D01*
X14945420Y-16076746D02*
X14954944Y-16029127D01*
X14954944Y-16029127D02*
X14964468Y-16000555D01*
X14964468Y-16000555D02*
X14973991Y-15981508D01*
X14973991Y-15981508D02*
X14993039Y-15952936D01*
X14993039Y-15952936D02*
X15002563Y-15943412D01*
X15183515Y-16171984D02*
X15069229Y-16171984D01*
X15126372Y-16171984D02*
X15126372Y-15971984D01*
X15126372Y-15971984D02*
X15107325Y-16000555D01*
X15107325Y-16000555D02*
X15088277Y-16019603D01*
X15088277Y-16019603D02*
X15069229Y-16029127D01*
X15421610Y-16171984D02*
X15421610Y-15971984D01*
X15507325Y-16171984D02*
X15507325Y-16067222D01*
X15507325Y-16067222D02*
X15497801Y-16048174D01*
X15497801Y-16048174D02*
X15478753Y-16038650D01*
X15478753Y-16038650D02*
X15450182Y-16038650D01*
X15450182Y-16038650D02*
X15431134Y-16048174D01*
X15431134Y-16048174D02*
X15421610Y-16057698D01*
X15631134Y-16171984D02*
X15612087Y-16162460D01*
X15612087Y-16162460D02*
X15602563Y-16152936D01*
X15602563Y-16152936D02*
X15593039Y-16133888D01*
X15593039Y-16133888D02*
X15593039Y-16076746D01*
X15593039Y-16076746D02*
X15602563Y-16057698D01*
X15602563Y-16057698D02*
X15612087Y-16048174D01*
X15612087Y-16048174D02*
X15631134Y-16038650D01*
X15631134Y-16038650D02*
X15659706Y-16038650D01*
X15659706Y-16038650D02*
X15678753Y-16048174D01*
X15678753Y-16048174D02*
X15688277Y-16057698D01*
X15688277Y-16057698D02*
X15697801Y-16076746D01*
X15697801Y-16076746D02*
X15697801Y-16133888D01*
X15697801Y-16133888D02*
X15688277Y-16152936D01*
X15688277Y-16152936D02*
X15678753Y-16162460D01*
X15678753Y-16162460D02*
X15659706Y-16171984D01*
X15659706Y-16171984D02*
X15631134Y-16171984D01*
X15812087Y-16171984D02*
X15793039Y-16162460D01*
X15793039Y-16162460D02*
X15783515Y-16143412D01*
X15783515Y-16143412D02*
X15783515Y-15971984D01*
X15964468Y-16162460D02*
X15945420Y-16171984D01*
X15945420Y-16171984D02*
X15907325Y-16171984D01*
X15907325Y-16171984D02*
X15888277Y-16162460D01*
X15888277Y-16162460D02*
X15878753Y-16143412D01*
X15878753Y-16143412D02*
X15878753Y-16067222D01*
X15878753Y-16067222D02*
X15888277Y-16048174D01*
X15888277Y-16048174D02*
X15907325Y-16038650D01*
X15907325Y-16038650D02*
X15945420Y-16038650D01*
X15945420Y-16038650D02*
X15964468Y-16048174D01*
X15964468Y-16048174D02*
X15973991Y-16067222D01*
X15973991Y-16067222D02*
X15973991Y-16086269D01*
X15973991Y-16086269D02*
X15878753Y-16105317D01*
X16040658Y-16248174D02*
X16050182Y-16238650D01*
X16050182Y-16238650D02*
X16069230Y-16210079D01*
X16069230Y-16210079D02*
X16078753Y-16191031D01*
X16078753Y-16191031D02*
X16088277Y-16162460D01*
X16088277Y-16162460D02*
X16097801Y-16114841D01*
X16097801Y-16114841D02*
X16097801Y-16076746D01*
X16097801Y-16076746D02*
X16088277Y-16029127D01*
X16088277Y-16029127D02*
X16078753Y-16000555D01*
X16078753Y-16000555D02*
X16069230Y-15981508D01*
X16069230Y-15981508D02*
X16050182Y-15952936D01*
X16050182Y-15952936D02*
X16040658Y-15943412D01*
X16402563Y-16248174D02*
X16393039Y-16238650D01*
X16393039Y-16238650D02*
X16373991Y-16210079D01*
X16373991Y-16210079D02*
X16364468Y-16191031D01*
X16364468Y-16191031D02*
X16354944Y-16162460D01*
X16354944Y-16162460D02*
X16345420Y-16114841D01*
X16345420Y-16114841D02*
X16345420Y-16076746D01*
X16345420Y-16076746D02*
X16354944Y-16029127D01*
X16354944Y-16029127D02*
X16364468Y-16000555D01*
X16364468Y-16000555D02*
X16373991Y-15981508D01*
X16373991Y-15981508D02*
X16393039Y-15952936D01*
X16393039Y-15952936D02*
X16402563Y-15943412D01*
X16478753Y-16038650D02*
X16478753Y-16171984D01*
X16478753Y-16057698D02*
X16488277Y-16048174D01*
X16488277Y-16048174D02*
X16507325Y-16038650D01*
X16507325Y-16038650D02*
X16535896Y-16038650D01*
X16535896Y-16038650D02*
X16554944Y-16048174D01*
X16554944Y-16048174D02*
X16564468Y-16067222D01*
X16564468Y-16067222D02*
X16564468Y-16171984D01*
X16688277Y-16171984D02*
X16669230Y-16162460D01*
X16669230Y-16162460D02*
X16659706Y-16152936D01*
X16659706Y-16152936D02*
X16650182Y-16133888D01*
X16650182Y-16133888D02*
X16650182Y-16076746D01*
X16650182Y-16076746D02*
X16659706Y-16057698D01*
X16659706Y-16057698D02*
X16669230Y-16048174D01*
X16669230Y-16048174D02*
X16688277Y-16038650D01*
X16688277Y-16038650D02*
X16716849Y-16038650D01*
X16716849Y-16038650D02*
X16735896Y-16048174D01*
X16735896Y-16048174D02*
X16745420Y-16057698D01*
X16745420Y-16057698D02*
X16754944Y-16076746D01*
X16754944Y-16076746D02*
X16754944Y-16133888D01*
X16754944Y-16133888D02*
X16745420Y-16152936D01*
X16745420Y-16152936D02*
X16735896Y-16162460D01*
X16735896Y-16162460D02*
X16716849Y-16171984D01*
X16716849Y-16171984D02*
X16688277Y-16171984D01*
X16812087Y-16038650D02*
X16888277Y-16038650D01*
X16840658Y-15971984D02*
X16840658Y-16143412D01*
X16840658Y-16143412D02*
X16850182Y-16162460D01*
X16850182Y-16162460D02*
X16869230Y-16171984D01*
X16869230Y-16171984D02*
X16888277Y-16171984D01*
X17107325Y-16038650D02*
X17107325Y-16238650D01*
X17107325Y-16048174D02*
X17126373Y-16038650D01*
X17126373Y-16038650D02*
X17164468Y-16038650D01*
X17164468Y-16038650D02*
X17183515Y-16048174D01*
X17183515Y-16048174D02*
X17193039Y-16057698D01*
X17193039Y-16057698D02*
X17202563Y-16076746D01*
X17202563Y-16076746D02*
X17202563Y-16133888D01*
X17202563Y-16133888D02*
X17193039Y-16152936D01*
X17193039Y-16152936D02*
X17183515Y-16162460D01*
X17183515Y-16162460D02*
X17164468Y-16171984D01*
X17164468Y-16171984D02*
X17126373Y-16171984D01*
X17126373Y-16171984D02*
X17107325Y-16162460D01*
X17316849Y-16171984D02*
X17297801Y-16162460D01*
X17297801Y-16162460D02*
X17288277Y-16143412D01*
X17288277Y-16143412D02*
X17288277Y-15971984D01*
X17478754Y-16171984D02*
X17478754Y-16067222D01*
X17478754Y-16067222D02*
X17469230Y-16048174D01*
X17469230Y-16048174D02*
X17450182Y-16038650D01*
X17450182Y-16038650D02*
X17412087Y-16038650D01*
X17412087Y-16038650D02*
X17393039Y-16048174D01*
X17478754Y-16162460D02*
X17459706Y-16171984D01*
X17459706Y-16171984D02*
X17412087Y-16171984D01*
X17412087Y-16171984D02*
X17393039Y-16162460D01*
X17393039Y-16162460D02*
X17383515Y-16143412D01*
X17383515Y-16143412D02*
X17383515Y-16124365D01*
X17383515Y-16124365D02*
X17393039Y-16105317D01*
X17393039Y-16105317D02*
X17412087Y-16095793D01*
X17412087Y-16095793D02*
X17459706Y-16095793D01*
X17459706Y-16095793D02*
X17478754Y-16086269D01*
X17545420Y-16038650D02*
X17621611Y-16038650D01*
X17573992Y-15971984D02*
X17573992Y-16143412D01*
X17573992Y-16143412D02*
X17583515Y-16162460D01*
X17583515Y-16162460D02*
X17602563Y-16171984D01*
X17602563Y-16171984D02*
X17621611Y-16171984D01*
X17764468Y-16162460D02*
X17745420Y-16171984D01*
X17745420Y-16171984D02*
X17707325Y-16171984D01*
X17707325Y-16171984D02*
X17688277Y-16162460D01*
X17688277Y-16162460D02*
X17678754Y-16143412D01*
X17678754Y-16143412D02*
X17678754Y-16067222D01*
X17678754Y-16067222D02*
X17688277Y-16048174D01*
X17688277Y-16048174D02*
X17707325Y-16038650D01*
X17707325Y-16038650D02*
X17745420Y-16038650D01*
X17745420Y-16038650D02*
X17764468Y-16048174D01*
X17764468Y-16048174D02*
X17773992Y-16067222D01*
X17773992Y-16067222D02*
X17773992Y-16086269D01*
X17773992Y-16086269D02*
X17678754Y-16105317D01*
X17945420Y-16171984D02*
X17945420Y-15971984D01*
X17945420Y-16162460D02*
X17926373Y-16171984D01*
X17926373Y-16171984D02*
X17888277Y-16171984D01*
X17888277Y-16171984D02*
X17869230Y-16162460D01*
X17869230Y-16162460D02*
X17859706Y-16152936D01*
X17859706Y-16152936D02*
X17850182Y-16133888D01*
X17850182Y-16133888D02*
X17850182Y-16076746D01*
X17850182Y-16076746D02*
X17859706Y-16057698D01*
X17859706Y-16057698D02*
X17869230Y-16048174D01*
X17869230Y-16048174D02*
X17888277Y-16038650D01*
X17888277Y-16038650D02*
X17926373Y-16038650D01*
X17926373Y-16038650D02*
X17945420Y-16048174D01*
X18021611Y-16248174D02*
X18031135Y-16238650D01*
X18031135Y-16238650D02*
X18050182Y-16210079D01*
X18050182Y-16210079D02*
X18059706Y-16191031D01*
X18059706Y-16191031D02*
X18069230Y-16162460D01*
X18069230Y-16162460D02*
X18078754Y-16114841D01*
X18078754Y-16114841D02*
X18078754Y-16076746D01*
X18078754Y-16076746D02*
X18069230Y-16029127D01*
X18069230Y-16029127D02*
X18059706Y-16000555D01*
X18059706Y-16000555D02*
X18050182Y-15981508D01*
X18050182Y-15981508D02*
X18031135Y-15952936D01*
X18031135Y-15952936D02*
X18021611Y-15943412D01*
X11327500Y-16500500D02*
X11427500Y-16400500D01*
X11327500Y-16300500D01*
X11227500Y-16400500D01*
X11327500Y-16500500D01*
X11669229Y-16291984D02*
X11793039Y-16291984D01*
X11793039Y-16291984D02*
X11726372Y-16368174D01*
X11726372Y-16368174D02*
X11754943Y-16368174D01*
X11754943Y-16368174D02*
X11773991Y-16377698D01*
X11773991Y-16377698D02*
X11783515Y-16387222D01*
X11783515Y-16387222D02*
X11793039Y-16406269D01*
X11793039Y-16406269D02*
X11793039Y-16453888D01*
X11793039Y-16453888D02*
X11783515Y-16472936D01*
X11783515Y-16472936D02*
X11773991Y-16482460D01*
X11773991Y-16482460D02*
X11754943Y-16491984D01*
X11754943Y-16491984D02*
X11697801Y-16491984D01*
X11697801Y-16491984D02*
X11678753Y-16482460D01*
X11678753Y-16482460D02*
X11669229Y-16472936D01*
X11878753Y-16472936D02*
X11888277Y-16482460D01*
X11888277Y-16482460D02*
X11878753Y-16491984D01*
X11878753Y-16491984D02*
X11869229Y-16482460D01*
X11869229Y-16482460D02*
X11878753Y-16472936D01*
X11878753Y-16472936D02*
X11878753Y-16491984D01*
X11964467Y-16311031D02*
X11973991Y-16301508D01*
X11973991Y-16301508D02*
X11993039Y-16291984D01*
X11993039Y-16291984D02*
X12040658Y-16291984D01*
X12040658Y-16291984D02*
X12059705Y-16301508D01*
X12059705Y-16301508D02*
X12069229Y-16311031D01*
X12069229Y-16311031D02*
X12078753Y-16330079D01*
X12078753Y-16330079D02*
X12078753Y-16349127D01*
X12078753Y-16349127D02*
X12069229Y-16377698D01*
X12069229Y-16377698D02*
X11954943Y-16491984D01*
X11954943Y-16491984D02*
X12078753Y-16491984D01*
X12202562Y-16291984D02*
X12221610Y-16291984D01*
X12221610Y-16291984D02*
X12240658Y-16301508D01*
X12240658Y-16301508D02*
X12250182Y-16311031D01*
X12250182Y-16311031D02*
X12259705Y-16330079D01*
X12259705Y-16330079D02*
X12269229Y-16368174D01*
X12269229Y-16368174D02*
X12269229Y-16415793D01*
X12269229Y-16415793D02*
X12259705Y-16453888D01*
X12259705Y-16453888D02*
X12250182Y-16472936D01*
X12250182Y-16472936D02*
X12240658Y-16482460D01*
X12240658Y-16482460D02*
X12221610Y-16491984D01*
X12221610Y-16491984D02*
X12202562Y-16491984D01*
X12202562Y-16491984D02*
X12183515Y-16482460D01*
X12183515Y-16482460D02*
X12173991Y-16472936D01*
X12173991Y-16472936D02*
X12164467Y-16453888D01*
X12164467Y-16453888D02*
X12154943Y-16415793D01*
X12154943Y-16415793D02*
X12154943Y-16368174D01*
X12154943Y-16368174D02*
X12164467Y-16330079D01*
X12164467Y-16330079D02*
X12173991Y-16311031D01*
X12173991Y-16311031D02*
X12183515Y-16301508D01*
X12183515Y-16301508D02*
X12202562Y-16291984D01*
X12393039Y-16291984D02*
X12412086Y-16291984D01*
X12412086Y-16291984D02*
X12431134Y-16301508D01*
X12431134Y-16301508D02*
X12440658Y-16311031D01*
X12440658Y-16311031D02*
X12450182Y-16330079D01*
X12450182Y-16330079D02*
X12459705Y-16368174D01*
X12459705Y-16368174D02*
X12459705Y-16415793D01*
X12459705Y-16415793D02*
X12450182Y-16453888D01*
X12450182Y-16453888D02*
X12440658Y-16472936D01*
X12440658Y-16472936D02*
X12431134Y-16482460D01*
X12431134Y-16482460D02*
X12412086Y-16491984D01*
X12412086Y-16491984D02*
X12393039Y-16491984D01*
X12393039Y-16491984D02*
X12373991Y-16482460D01*
X12373991Y-16482460D02*
X12364467Y-16472936D01*
X12364467Y-16472936D02*
X12354943Y-16453888D01*
X12354943Y-16453888D02*
X12345420Y-16415793D01*
X12345420Y-16415793D02*
X12345420Y-16368174D01*
X12345420Y-16368174D02*
X12354943Y-16330079D01*
X12354943Y-16330079D02*
X12364467Y-16311031D01*
X12364467Y-16311031D02*
X12373991Y-16301508D01*
X12373991Y-16301508D02*
X12393039Y-16291984D01*
X12545420Y-16491984D02*
X12545420Y-16358650D01*
X12545420Y-16377698D02*
X12554943Y-16368174D01*
X12554943Y-16368174D02*
X12573991Y-16358650D01*
X12573991Y-16358650D02*
X12602563Y-16358650D01*
X12602563Y-16358650D02*
X12621610Y-16368174D01*
X12621610Y-16368174D02*
X12631134Y-16387222D01*
X12631134Y-16387222D02*
X12631134Y-16491984D01*
X12631134Y-16387222D02*
X12640658Y-16368174D01*
X12640658Y-16368174D02*
X12659705Y-16358650D01*
X12659705Y-16358650D02*
X12688277Y-16358650D01*
X12688277Y-16358650D02*
X12707324Y-16368174D01*
X12707324Y-16368174D02*
X12716848Y-16387222D01*
X12716848Y-16387222D02*
X12716848Y-16491984D01*
X12812086Y-16491984D02*
X12812086Y-16358650D01*
X12812086Y-16377698D02*
X12821610Y-16368174D01*
X12821610Y-16368174D02*
X12840658Y-16358650D01*
X12840658Y-16358650D02*
X12869229Y-16358650D01*
X12869229Y-16358650D02*
X12888277Y-16368174D01*
X12888277Y-16368174D02*
X12897801Y-16387222D01*
X12897801Y-16387222D02*
X12897801Y-16491984D01*
X12897801Y-16387222D02*
X12907324Y-16368174D01*
X12907324Y-16368174D02*
X12926372Y-16358650D01*
X12926372Y-16358650D02*
X12954943Y-16358650D01*
X12954943Y-16358650D02*
X12973991Y-16368174D01*
X12973991Y-16368174D02*
X12983515Y-16387222D01*
X12983515Y-16387222D02*
X12983515Y-16491984D01*
X13373991Y-16282460D02*
X13202563Y-16539603D01*
X13631134Y-16291984D02*
X13650182Y-16291984D01*
X13650182Y-16291984D02*
X13669229Y-16301508D01*
X13669229Y-16301508D02*
X13678753Y-16311031D01*
X13678753Y-16311031D02*
X13688277Y-16330079D01*
X13688277Y-16330079D02*
X13697801Y-16368174D01*
X13697801Y-16368174D02*
X13697801Y-16415793D01*
X13697801Y-16415793D02*
X13688277Y-16453888D01*
X13688277Y-16453888D02*
X13678753Y-16472936D01*
X13678753Y-16472936D02*
X13669229Y-16482460D01*
X13669229Y-16482460D02*
X13650182Y-16491984D01*
X13650182Y-16491984D02*
X13631134Y-16491984D01*
X13631134Y-16491984D02*
X13612086Y-16482460D01*
X13612086Y-16482460D02*
X13602563Y-16472936D01*
X13602563Y-16472936D02*
X13593039Y-16453888D01*
X13593039Y-16453888D02*
X13583515Y-16415793D01*
X13583515Y-16415793D02*
X13583515Y-16368174D01*
X13583515Y-16368174D02*
X13593039Y-16330079D01*
X13593039Y-16330079D02*
X13602563Y-16311031D01*
X13602563Y-16311031D02*
X13612086Y-16301508D01*
X13612086Y-16301508D02*
X13631134Y-16291984D01*
X13783515Y-16472936D02*
X13793039Y-16482460D01*
X13793039Y-16482460D02*
X13783515Y-16491984D01*
X13783515Y-16491984D02*
X13773991Y-16482460D01*
X13773991Y-16482460D02*
X13783515Y-16472936D01*
X13783515Y-16472936D02*
X13783515Y-16491984D01*
X13983515Y-16491984D02*
X13869229Y-16491984D01*
X13926372Y-16491984D02*
X13926372Y-16291984D01*
X13926372Y-16291984D02*
X13907325Y-16320555D01*
X13907325Y-16320555D02*
X13888277Y-16339603D01*
X13888277Y-16339603D02*
X13869229Y-16349127D01*
X14059706Y-16311031D02*
X14069229Y-16301508D01*
X14069229Y-16301508D02*
X14088277Y-16291984D01*
X14088277Y-16291984D02*
X14135896Y-16291984D01*
X14135896Y-16291984D02*
X14154944Y-16301508D01*
X14154944Y-16301508D02*
X14164467Y-16311031D01*
X14164467Y-16311031D02*
X14173991Y-16330079D01*
X14173991Y-16330079D02*
X14173991Y-16349127D01*
X14173991Y-16349127D02*
X14164467Y-16377698D01*
X14164467Y-16377698D02*
X14050182Y-16491984D01*
X14050182Y-16491984D02*
X14173991Y-16491984D01*
X14345420Y-16291984D02*
X14307325Y-16291984D01*
X14307325Y-16291984D02*
X14288277Y-16301508D01*
X14288277Y-16301508D02*
X14278753Y-16311031D01*
X14278753Y-16311031D02*
X14259706Y-16339603D01*
X14259706Y-16339603D02*
X14250182Y-16377698D01*
X14250182Y-16377698D02*
X14250182Y-16453888D01*
X14250182Y-16453888D02*
X14259706Y-16472936D01*
X14259706Y-16472936D02*
X14269229Y-16482460D01*
X14269229Y-16482460D02*
X14288277Y-16491984D01*
X14288277Y-16491984D02*
X14326372Y-16491984D01*
X14326372Y-16491984D02*
X14345420Y-16482460D01*
X14345420Y-16482460D02*
X14354944Y-16472936D01*
X14354944Y-16472936D02*
X14364467Y-16453888D01*
X14364467Y-16453888D02*
X14364467Y-16406269D01*
X14364467Y-16406269D02*
X14354944Y-16387222D01*
X14354944Y-16387222D02*
X14345420Y-16377698D01*
X14345420Y-16377698D02*
X14326372Y-16368174D01*
X14326372Y-16368174D02*
X14288277Y-16368174D01*
X14288277Y-16368174D02*
X14269229Y-16377698D01*
X14269229Y-16377698D02*
X14259706Y-16387222D01*
X14259706Y-16387222D02*
X14250182Y-16406269D01*
X14488277Y-16291984D02*
X14507325Y-16291984D01*
X14507325Y-16291984D02*
X14526372Y-16301508D01*
X14526372Y-16301508D02*
X14535896Y-16311031D01*
X14535896Y-16311031D02*
X14545420Y-16330079D01*
X14545420Y-16330079D02*
X14554944Y-16368174D01*
X14554944Y-16368174D02*
X14554944Y-16415793D01*
X14554944Y-16415793D02*
X14545420Y-16453888D01*
X14545420Y-16453888D02*
X14535896Y-16472936D01*
X14535896Y-16472936D02*
X14526372Y-16482460D01*
X14526372Y-16482460D02*
X14507325Y-16491984D01*
X14507325Y-16491984D02*
X14488277Y-16491984D01*
X14488277Y-16491984D02*
X14469229Y-16482460D01*
X14469229Y-16482460D02*
X14459706Y-16472936D01*
X14459706Y-16472936D02*
X14450182Y-16453888D01*
X14450182Y-16453888D02*
X14440658Y-16415793D01*
X14440658Y-16415793D02*
X14440658Y-16368174D01*
X14440658Y-16368174D02*
X14450182Y-16330079D01*
X14450182Y-16330079D02*
X14459706Y-16311031D01*
X14459706Y-16311031D02*
X14469229Y-16301508D01*
X14469229Y-16301508D02*
X14488277Y-16291984D01*
X14631134Y-16291984D02*
X14631134Y-16330079D01*
X14707325Y-16291984D02*
X14707325Y-16330079D01*
X15002563Y-16568174D02*
X14993039Y-16558650D01*
X14993039Y-16558650D02*
X14973991Y-16530079D01*
X14973991Y-16530079D02*
X14964468Y-16511031D01*
X14964468Y-16511031D02*
X14954944Y-16482460D01*
X14954944Y-16482460D02*
X14945420Y-16434841D01*
X14945420Y-16434841D02*
X14945420Y-16396746D01*
X14945420Y-16396746D02*
X14954944Y-16349127D01*
X14954944Y-16349127D02*
X14964468Y-16320555D01*
X14964468Y-16320555D02*
X14973991Y-16301508D01*
X14973991Y-16301508D02*
X14993039Y-16272936D01*
X14993039Y-16272936D02*
X15002563Y-16263412D01*
X15183515Y-16491984D02*
X15069229Y-16491984D01*
X15126372Y-16491984D02*
X15126372Y-16291984D01*
X15126372Y-16291984D02*
X15107325Y-16320555D01*
X15107325Y-16320555D02*
X15088277Y-16339603D01*
X15088277Y-16339603D02*
X15069229Y-16349127D01*
X15421610Y-16491984D02*
X15421610Y-16291984D01*
X15507325Y-16491984D02*
X15507325Y-16387222D01*
X15507325Y-16387222D02*
X15497801Y-16368174D01*
X15497801Y-16368174D02*
X15478753Y-16358650D01*
X15478753Y-16358650D02*
X15450182Y-16358650D01*
X15450182Y-16358650D02*
X15431134Y-16368174D01*
X15431134Y-16368174D02*
X15421610Y-16377698D01*
X15631134Y-16491984D02*
X15612087Y-16482460D01*
X15612087Y-16482460D02*
X15602563Y-16472936D01*
X15602563Y-16472936D02*
X15593039Y-16453888D01*
X15593039Y-16453888D02*
X15593039Y-16396746D01*
X15593039Y-16396746D02*
X15602563Y-16377698D01*
X15602563Y-16377698D02*
X15612087Y-16368174D01*
X15612087Y-16368174D02*
X15631134Y-16358650D01*
X15631134Y-16358650D02*
X15659706Y-16358650D01*
X15659706Y-16358650D02*
X15678753Y-16368174D01*
X15678753Y-16368174D02*
X15688277Y-16377698D01*
X15688277Y-16377698D02*
X15697801Y-16396746D01*
X15697801Y-16396746D02*
X15697801Y-16453888D01*
X15697801Y-16453888D02*
X15688277Y-16472936D01*
X15688277Y-16472936D02*
X15678753Y-16482460D01*
X15678753Y-16482460D02*
X15659706Y-16491984D01*
X15659706Y-16491984D02*
X15631134Y-16491984D01*
X15812087Y-16491984D02*
X15793039Y-16482460D01*
X15793039Y-16482460D02*
X15783515Y-16463412D01*
X15783515Y-16463412D02*
X15783515Y-16291984D01*
X15964468Y-16482460D02*
X15945420Y-16491984D01*
X15945420Y-16491984D02*
X15907325Y-16491984D01*
X15907325Y-16491984D02*
X15888277Y-16482460D01*
X15888277Y-16482460D02*
X15878753Y-16463412D01*
X15878753Y-16463412D02*
X15878753Y-16387222D01*
X15878753Y-16387222D02*
X15888277Y-16368174D01*
X15888277Y-16368174D02*
X15907325Y-16358650D01*
X15907325Y-16358650D02*
X15945420Y-16358650D01*
X15945420Y-16358650D02*
X15964468Y-16368174D01*
X15964468Y-16368174D02*
X15973991Y-16387222D01*
X15973991Y-16387222D02*
X15973991Y-16406269D01*
X15973991Y-16406269D02*
X15878753Y-16425317D01*
X16040658Y-16568174D02*
X16050182Y-16558650D01*
X16050182Y-16558650D02*
X16069230Y-16530079D01*
X16069230Y-16530079D02*
X16078753Y-16511031D01*
X16078753Y-16511031D02*
X16088277Y-16482460D01*
X16088277Y-16482460D02*
X16097801Y-16434841D01*
X16097801Y-16434841D02*
X16097801Y-16396746D01*
X16097801Y-16396746D02*
X16088277Y-16349127D01*
X16088277Y-16349127D02*
X16078753Y-16320555D01*
X16078753Y-16320555D02*
X16069230Y-16301508D01*
X16069230Y-16301508D02*
X16050182Y-16272936D01*
X16050182Y-16272936D02*
X16040658Y-16263412D01*
X16402563Y-16568174D02*
X16393039Y-16558650D01*
X16393039Y-16558650D02*
X16373991Y-16530079D01*
X16373991Y-16530079D02*
X16364468Y-16511031D01*
X16364468Y-16511031D02*
X16354944Y-16482460D01*
X16354944Y-16482460D02*
X16345420Y-16434841D01*
X16345420Y-16434841D02*
X16345420Y-16396746D01*
X16345420Y-16396746D02*
X16354944Y-16349127D01*
X16354944Y-16349127D02*
X16364468Y-16320555D01*
X16364468Y-16320555D02*
X16373991Y-16301508D01*
X16373991Y-16301508D02*
X16393039Y-16272936D01*
X16393039Y-16272936D02*
X16402563Y-16263412D01*
X16478753Y-16358650D02*
X16478753Y-16491984D01*
X16478753Y-16377698D02*
X16488277Y-16368174D01*
X16488277Y-16368174D02*
X16507325Y-16358650D01*
X16507325Y-16358650D02*
X16535896Y-16358650D01*
X16535896Y-16358650D02*
X16554944Y-16368174D01*
X16554944Y-16368174D02*
X16564468Y-16387222D01*
X16564468Y-16387222D02*
X16564468Y-16491984D01*
X16688277Y-16491984D02*
X16669230Y-16482460D01*
X16669230Y-16482460D02*
X16659706Y-16472936D01*
X16659706Y-16472936D02*
X16650182Y-16453888D01*
X16650182Y-16453888D02*
X16650182Y-16396746D01*
X16650182Y-16396746D02*
X16659706Y-16377698D01*
X16659706Y-16377698D02*
X16669230Y-16368174D01*
X16669230Y-16368174D02*
X16688277Y-16358650D01*
X16688277Y-16358650D02*
X16716849Y-16358650D01*
X16716849Y-16358650D02*
X16735896Y-16368174D01*
X16735896Y-16368174D02*
X16745420Y-16377698D01*
X16745420Y-16377698D02*
X16754944Y-16396746D01*
X16754944Y-16396746D02*
X16754944Y-16453888D01*
X16754944Y-16453888D02*
X16745420Y-16472936D01*
X16745420Y-16472936D02*
X16735896Y-16482460D01*
X16735896Y-16482460D02*
X16716849Y-16491984D01*
X16716849Y-16491984D02*
X16688277Y-16491984D01*
X16812087Y-16358650D02*
X16888277Y-16358650D01*
X16840658Y-16291984D02*
X16840658Y-16463412D01*
X16840658Y-16463412D02*
X16850182Y-16482460D01*
X16850182Y-16482460D02*
X16869230Y-16491984D01*
X16869230Y-16491984D02*
X16888277Y-16491984D01*
X17107325Y-16358650D02*
X17107325Y-16558650D01*
X17107325Y-16368174D02*
X17126373Y-16358650D01*
X17126373Y-16358650D02*
X17164468Y-16358650D01*
X17164468Y-16358650D02*
X17183515Y-16368174D01*
X17183515Y-16368174D02*
X17193039Y-16377698D01*
X17193039Y-16377698D02*
X17202563Y-16396746D01*
X17202563Y-16396746D02*
X17202563Y-16453888D01*
X17202563Y-16453888D02*
X17193039Y-16472936D01*
X17193039Y-16472936D02*
X17183515Y-16482460D01*
X17183515Y-16482460D02*
X17164468Y-16491984D01*
X17164468Y-16491984D02*
X17126373Y-16491984D01*
X17126373Y-16491984D02*
X17107325Y-16482460D01*
X17316849Y-16491984D02*
X17297801Y-16482460D01*
X17297801Y-16482460D02*
X17288277Y-16463412D01*
X17288277Y-16463412D02*
X17288277Y-16291984D01*
X17478754Y-16491984D02*
X17478754Y-16387222D01*
X17478754Y-16387222D02*
X17469230Y-16368174D01*
X17469230Y-16368174D02*
X17450182Y-16358650D01*
X17450182Y-16358650D02*
X17412087Y-16358650D01*
X17412087Y-16358650D02*
X17393039Y-16368174D01*
X17478754Y-16482460D02*
X17459706Y-16491984D01*
X17459706Y-16491984D02*
X17412087Y-16491984D01*
X17412087Y-16491984D02*
X17393039Y-16482460D01*
X17393039Y-16482460D02*
X17383515Y-16463412D01*
X17383515Y-16463412D02*
X17383515Y-16444365D01*
X17383515Y-16444365D02*
X17393039Y-16425317D01*
X17393039Y-16425317D02*
X17412087Y-16415793D01*
X17412087Y-16415793D02*
X17459706Y-16415793D01*
X17459706Y-16415793D02*
X17478754Y-16406269D01*
X17545420Y-16358650D02*
X17621611Y-16358650D01*
X17573992Y-16291984D02*
X17573992Y-16463412D01*
X17573992Y-16463412D02*
X17583515Y-16482460D01*
X17583515Y-16482460D02*
X17602563Y-16491984D01*
X17602563Y-16491984D02*
X17621611Y-16491984D01*
X17764468Y-16482460D02*
X17745420Y-16491984D01*
X17745420Y-16491984D02*
X17707325Y-16491984D01*
X17707325Y-16491984D02*
X17688277Y-16482460D01*
X17688277Y-16482460D02*
X17678754Y-16463412D01*
X17678754Y-16463412D02*
X17678754Y-16387222D01*
X17678754Y-16387222D02*
X17688277Y-16368174D01*
X17688277Y-16368174D02*
X17707325Y-16358650D01*
X17707325Y-16358650D02*
X17745420Y-16358650D01*
X17745420Y-16358650D02*
X17764468Y-16368174D01*
X17764468Y-16368174D02*
X17773992Y-16387222D01*
X17773992Y-16387222D02*
X17773992Y-16406269D01*
X17773992Y-16406269D02*
X17678754Y-16425317D01*
X17945420Y-16491984D02*
X17945420Y-16291984D01*
X17945420Y-16482460D02*
X17926373Y-16491984D01*
X17926373Y-16491984D02*
X17888277Y-16491984D01*
X17888277Y-16491984D02*
X17869230Y-16482460D01*
X17869230Y-16482460D02*
X17859706Y-16472936D01*
X17859706Y-16472936D02*
X17850182Y-16453888D01*
X17850182Y-16453888D02*
X17850182Y-16396746D01*
X17850182Y-16396746D02*
X17859706Y-16377698D01*
X17859706Y-16377698D02*
X17869230Y-16368174D01*
X17869230Y-16368174D02*
X17888277Y-16358650D01*
X17888277Y-16358650D02*
X17926373Y-16358650D01*
X17926373Y-16358650D02*
X17945420Y-16368174D01*
X18021611Y-16568174D02*
X18031135Y-16558650D01*
X18031135Y-16558650D02*
X18050182Y-16530079D01*
X18050182Y-16530079D02*
X18059706Y-16511031D01*
X18059706Y-16511031D02*
X18069230Y-16482460D01*
X18069230Y-16482460D02*
X18078754Y-16434841D01*
X18078754Y-16434841D02*
X18078754Y-16396746D01*
X18078754Y-16396746D02*
X18069230Y-16349127D01*
X18069230Y-16349127D02*
X18059706Y-16320555D01*
X18059706Y-16320555D02*
X18050182Y-16301508D01*
X18050182Y-16301508D02*
X18031135Y-16272936D01*
X18031135Y-16272936D02*
X18021611Y-16263412D01*
X11227500Y-16620500D02*
X11427500Y-16820500D01*
X11427500Y-16620500D02*
X11227500Y-16820500D01*
X11427500Y-16720500D02*
G75*
G02*
X11227500Y-16720500I-100000J0D01*
G01*
X11227500Y-16720500D02*
G75*
G02*
X11427500Y-16720500I100000J0D01*
G01*
X11669229Y-16611984D02*
X11793039Y-16611984D01*
X11793039Y-16611984D02*
X11726372Y-16688174D01*
X11726372Y-16688174D02*
X11754943Y-16688174D01*
X11754943Y-16688174D02*
X11773991Y-16697698D01*
X11773991Y-16697698D02*
X11783515Y-16707222D01*
X11783515Y-16707222D02*
X11793039Y-16726269D01*
X11793039Y-16726269D02*
X11793039Y-16773888D01*
X11793039Y-16773888D02*
X11783515Y-16792936D01*
X11783515Y-16792936D02*
X11773991Y-16802460D01*
X11773991Y-16802460D02*
X11754943Y-16811984D01*
X11754943Y-16811984D02*
X11697801Y-16811984D01*
X11697801Y-16811984D02*
X11678753Y-16802460D01*
X11678753Y-16802460D02*
X11669229Y-16792936D01*
X11878753Y-16792936D02*
X11888277Y-16802460D01*
X11888277Y-16802460D02*
X11878753Y-16811984D01*
X11878753Y-16811984D02*
X11869229Y-16802460D01*
X11869229Y-16802460D02*
X11878753Y-16792936D01*
X11878753Y-16792936D02*
X11878753Y-16811984D01*
X12069229Y-16611984D02*
X11973991Y-16611984D01*
X11973991Y-16611984D02*
X11964467Y-16707222D01*
X11964467Y-16707222D02*
X11973991Y-16697698D01*
X11973991Y-16697698D02*
X11993039Y-16688174D01*
X11993039Y-16688174D02*
X12040658Y-16688174D01*
X12040658Y-16688174D02*
X12059705Y-16697698D01*
X12059705Y-16697698D02*
X12069229Y-16707222D01*
X12069229Y-16707222D02*
X12078753Y-16726269D01*
X12078753Y-16726269D02*
X12078753Y-16773888D01*
X12078753Y-16773888D02*
X12069229Y-16792936D01*
X12069229Y-16792936D02*
X12059705Y-16802460D01*
X12059705Y-16802460D02*
X12040658Y-16811984D01*
X12040658Y-16811984D02*
X11993039Y-16811984D01*
X11993039Y-16811984D02*
X11973991Y-16802460D01*
X11973991Y-16802460D02*
X11964467Y-16792936D01*
X12202562Y-16611984D02*
X12221610Y-16611984D01*
X12221610Y-16611984D02*
X12240658Y-16621508D01*
X12240658Y-16621508D02*
X12250182Y-16631031D01*
X12250182Y-16631031D02*
X12259705Y-16650079D01*
X12259705Y-16650079D02*
X12269229Y-16688174D01*
X12269229Y-16688174D02*
X12269229Y-16735793D01*
X12269229Y-16735793D02*
X12259705Y-16773888D01*
X12259705Y-16773888D02*
X12250182Y-16792936D01*
X12250182Y-16792936D02*
X12240658Y-16802460D01*
X12240658Y-16802460D02*
X12221610Y-16811984D01*
X12221610Y-16811984D02*
X12202562Y-16811984D01*
X12202562Y-16811984D02*
X12183515Y-16802460D01*
X12183515Y-16802460D02*
X12173991Y-16792936D01*
X12173991Y-16792936D02*
X12164467Y-16773888D01*
X12164467Y-16773888D02*
X12154943Y-16735793D01*
X12154943Y-16735793D02*
X12154943Y-16688174D01*
X12154943Y-16688174D02*
X12164467Y-16650079D01*
X12164467Y-16650079D02*
X12173991Y-16631031D01*
X12173991Y-16631031D02*
X12183515Y-16621508D01*
X12183515Y-16621508D02*
X12202562Y-16611984D01*
X12393039Y-16611984D02*
X12412086Y-16611984D01*
X12412086Y-16611984D02*
X12431134Y-16621508D01*
X12431134Y-16621508D02*
X12440658Y-16631031D01*
X12440658Y-16631031D02*
X12450182Y-16650079D01*
X12450182Y-16650079D02*
X12459705Y-16688174D01*
X12459705Y-16688174D02*
X12459705Y-16735793D01*
X12459705Y-16735793D02*
X12450182Y-16773888D01*
X12450182Y-16773888D02*
X12440658Y-16792936D01*
X12440658Y-16792936D02*
X12431134Y-16802460D01*
X12431134Y-16802460D02*
X12412086Y-16811984D01*
X12412086Y-16811984D02*
X12393039Y-16811984D01*
X12393039Y-16811984D02*
X12373991Y-16802460D01*
X12373991Y-16802460D02*
X12364467Y-16792936D01*
X12364467Y-16792936D02*
X12354943Y-16773888D01*
X12354943Y-16773888D02*
X12345420Y-16735793D01*
X12345420Y-16735793D02*
X12345420Y-16688174D01*
X12345420Y-16688174D02*
X12354943Y-16650079D01*
X12354943Y-16650079D02*
X12364467Y-16631031D01*
X12364467Y-16631031D02*
X12373991Y-16621508D01*
X12373991Y-16621508D02*
X12393039Y-16611984D01*
X12545420Y-16811984D02*
X12545420Y-16678650D01*
X12545420Y-16697698D02*
X12554943Y-16688174D01*
X12554943Y-16688174D02*
X12573991Y-16678650D01*
X12573991Y-16678650D02*
X12602563Y-16678650D01*
X12602563Y-16678650D02*
X12621610Y-16688174D01*
X12621610Y-16688174D02*
X12631134Y-16707222D01*
X12631134Y-16707222D02*
X12631134Y-16811984D01*
X12631134Y-16707222D02*
X12640658Y-16688174D01*
X12640658Y-16688174D02*
X12659705Y-16678650D01*
X12659705Y-16678650D02*
X12688277Y-16678650D01*
X12688277Y-16678650D02*
X12707324Y-16688174D01*
X12707324Y-16688174D02*
X12716848Y-16707222D01*
X12716848Y-16707222D02*
X12716848Y-16811984D01*
X12812086Y-16811984D02*
X12812086Y-16678650D01*
X12812086Y-16697698D02*
X12821610Y-16688174D01*
X12821610Y-16688174D02*
X12840658Y-16678650D01*
X12840658Y-16678650D02*
X12869229Y-16678650D01*
X12869229Y-16678650D02*
X12888277Y-16688174D01*
X12888277Y-16688174D02*
X12897801Y-16707222D01*
X12897801Y-16707222D02*
X12897801Y-16811984D01*
X12897801Y-16707222D02*
X12907324Y-16688174D01*
X12907324Y-16688174D02*
X12926372Y-16678650D01*
X12926372Y-16678650D02*
X12954943Y-16678650D01*
X12954943Y-16678650D02*
X12973991Y-16688174D01*
X12973991Y-16688174D02*
X12983515Y-16707222D01*
X12983515Y-16707222D02*
X12983515Y-16811984D01*
X13373991Y-16602460D02*
X13202563Y-16859603D01*
X13631134Y-16611984D02*
X13650182Y-16611984D01*
X13650182Y-16611984D02*
X13669229Y-16621508D01*
X13669229Y-16621508D02*
X13678753Y-16631031D01*
X13678753Y-16631031D02*
X13688277Y-16650079D01*
X13688277Y-16650079D02*
X13697801Y-16688174D01*
X13697801Y-16688174D02*
X13697801Y-16735793D01*
X13697801Y-16735793D02*
X13688277Y-16773888D01*
X13688277Y-16773888D02*
X13678753Y-16792936D01*
X13678753Y-16792936D02*
X13669229Y-16802460D01*
X13669229Y-16802460D02*
X13650182Y-16811984D01*
X13650182Y-16811984D02*
X13631134Y-16811984D01*
X13631134Y-16811984D02*
X13612086Y-16802460D01*
X13612086Y-16802460D02*
X13602563Y-16792936D01*
X13602563Y-16792936D02*
X13593039Y-16773888D01*
X13593039Y-16773888D02*
X13583515Y-16735793D01*
X13583515Y-16735793D02*
X13583515Y-16688174D01*
X13583515Y-16688174D02*
X13593039Y-16650079D01*
X13593039Y-16650079D02*
X13602563Y-16631031D01*
X13602563Y-16631031D02*
X13612086Y-16621508D01*
X13612086Y-16621508D02*
X13631134Y-16611984D01*
X13783515Y-16792936D02*
X13793039Y-16802460D01*
X13793039Y-16802460D02*
X13783515Y-16811984D01*
X13783515Y-16811984D02*
X13773991Y-16802460D01*
X13773991Y-16802460D02*
X13783515Y-16792936D01*
X13783515Y-16792936D02*
X13783515Y-16811984D01*
X13983515Y-16811984D02*
X13869229Y-16811984D01*
X13926372Y-16811984D02*
X13926372Y-16611984D01*
X13926372Y-16611984D02*
X13907325Y-16640555D01*
X13907325Y-16640555D02*
X13888277Y-16659603D01*
X13888277Y-16659603D02*
X13869229Y-16669127D01*
X14050182Y-16611984D02*
X14173991Y-16611984D01*
X14173991Y-16611984D02*
X14107325Y-16688174D01*
X14107325Y-16688174D02*
X14135896Y-16688174D01*
X14135896Y-16688174D02*
X14154944Y-16697698D01*
X14154944Y-16697698D02*
X14164467Y-16707222D01*
X14164467Y-16707222D02*
X14173991Y-16726269D01*
X14173991Y-16726269D02*
X14173991Y-16773888D01*
X14173991Y-16773888D02*
X14164467Y-16792936D01*
X14164467Y-16792936D02*
X14154944Y-16802460D01*
X14154944Y-16802460D02*
X14135896Y-16811984D01*
X14135896Y-16811984D02*
X14078753Y-16811984D01*
X14078753Y-16811984D02*
X14059706Y-16802460D01*
X14059706Y-16802460D02*
X14050182Y-16792936D01*
X14240658Y-16611984D02*
X14373991Y-16611984D01*
X14373991Y-16611984D02*
X14288277Y-16811984D01*
X14478753Y-16697698D02*
X14459706Y-16688174D01*
X14459706Y-16688174D02*
X14450182Y-16678650D01*
X14450182Y-16678650D02*
X14440658Y-16659603D01*
X14440658Y-16659603D02*
X14440658Y-16650079D01*
X14440658Y-16650079D02*
X14450182Y-16631031D01*
X14450182Y-16631031D02*
X14459706Y-16621508D01*
X14459706Y-16621508D02*
X14478753Y-16611984D01*
X14478753Y-16611984D02*
X14516848Y-16611984D01*
X14516848Y-16611984D02*
X14535896Y-16621508D01*
X14535896Y-16621508D02*
X14545420Y-16631031D01*
X14545420Y-16631031D02*
X14554944Y-16650079D01*
X14554944Y-16650079D02*
X14554944Y-16659603D01*
X14554944Y-16659603D02*
X14545420Y-16678650D01*
X14545420Y-16678650D02*
X14535896Y-16688174D01*
X14535896Y-16688174D02*
X14516848Y-16697698D01*
X14516848Y-16697698D02*
X14478753Y-16697698D01*
X14478753Y-16697698D02*
X14459706Y-16707222D01*
X14459706Y-16707222D02*
X14450182Y-16716746D01*
X14450182Y-16716746D02*
X14440658Y-16735793D01*
X14440658Y-16735793D02*
X14440658Y-16773888D01*
X14440658Y-16773888D02*
X14450182Y-16792936D01*
X14450182Y-16792936D02*
X14459706Y-16802460D01*
X14459706Y-16802460D02*
X14478753Y-16811984D01*
X14478753Y-16811984D02*
X14516848Y-16811984D01*
X14516848Y-16811984D02*
X14535896Y-16802460D01*
X14535896Y-16802460D02*
X14545420Y-16792936D01*
X14545420Y-16792936D02*
X14554944Y-16773888D01*
X14554944Y-16773888D02*
X14554944Y-16735793D01*
X14554944Y-16735793D02*
X14545420Y-16716746D01*
X14545420Y-16716746D02*
X14535896Y-16707222D01*
X14535896Y-16707222D02*
X14516848Y-16697698D01*
X14631134Y-16611984D02*
X14631134Y-16650079D01*
X14707325Y-16611984D02*
X14707325Y-16650079D01*
X15002563Y-16888174D02*
X14993039Y-16878650D01*
X14993039Y-16878650D02*
X14973991Y-16850079D01*
X14973991Y-16850079D02*
X14964468Y-16831031D01*
X14964468Y-16831031D02*
X14954944Y-16802460D01*
X14954944Y-16802460D02*
X14945420Y-16754841D01*
X14945420Y-16754841D02*
X14945420Y-16716746D01*
X14945420Y-16716746D02*
X14954944Y-16669127D01*
X14954944Y-16669127D02*
X14964468Y-16640555D01*
X14964468Y-16640555D02*
X14973991Y-16621508D01*
X14973991Y-16621508D02*
X14993039Y-16592936D01*
X14993039Y-16592936D02*
X15002563Y-16583412D01*
X15183515Y-16811984D02*
X15069229Y-16811984D01*
X15126372Y-16811984D02*
X15126372Y-16611984D01*
X15126372Y-16611984D02*
X15107325Y-16640555D01*
X15107325Y-16640555D02*
X15088277Y-16659603D01*
X15088277Y-16659603D02*
X15069229Y-16669127D01*
X15421610Y-16811984D02*
X15421610Y-16611984D01*
X15507325Y-16811984D02*
X15507325Y-16707222D01*
X15507325Y-16707222D02*
X15497801Y-16688174D01*
X15497801Y-16688174D02*
X15478753Y-16678650D01*
X15478753Y-16678650D02*
X15450182Y-16678650D01*
X15450182Y-16678650D02*
X15431134Y-16688174D01*
X15431134Y-16688174D02*
X15421610Y-16697698D01*
X15631134Y-16811984D02*
X15612087Y-16802460D01*
X15612087Y-16802460D02*
X15602563Y-16792936D01*
X15602563Y-16792936D02*
X15593039Y-16773888D01*
X15593039Y-16773888D02*
X15593039Y-16716746D01*
X15593039Y-16716746D02*
X15602563Y-16697698D01*
X15602563Y-16697698D02*
X15612087Y-16688174D01*
X15612087Y-16688174D02*
X15631134Y-16678650D01*
X15631134Y-16678650D02*
X15659706Y-16678650D01*
X15659706Y-16678650D02*
X15678753Y-16688174D01*
X15678753Y-16688174D02*
X15688277Y-16697698D01*
X15688277Y-16697698D02*
X15697801Y-16716746D01*
X15697801Y-16716746D02*
X15697801Y-16773888D01*
X15697801Y-16773888D02*
X15688277Y-16792936D01*
X15688277Y-16792936D02*
X15678753Y-16802460D01*
X15678753Y-16802460D02*
X15659706Y-16811984D01*
X15659706Y-16811984D02*
X15631134Y-16811984D01*
X15812087Y-16811984D02*
X15793039Y-16802460D01*
X15793039Y-16802460D02*
X15783515Y-16783412D01*
X15783515Y-16783412D02*
X15783515Y-16611984D01*
X15964468Y-16802460D02*
X15945420Y-16811984D01*
X15945420Y-16811984D02*
X15907325Y-16811984D01*
X15907325Y-16811984D02*
X15888277Y-16802460D01*
X15888277Y-16802460D02*
X15878753Y-16783412D01*
X15878753Y-16783412D02*
X15878753Y-16707222D01*
X15878753Y-16707222D02*
X15888277Y-16688174D01*
X15888277Y-16688174D02*
X15907325Y-16678650D01*
X15907325Y-16678650D02*
X15945420Y-16678650D01*
X15945420Y-16678650D02*
X15964468Y-16688174D01*
X15964468Y-16688174D02*
X15973991Y-16707222D01*
X15973991Y-16707222D02*
X15973991Y-16726269D01*
X15973991Y-16726269D02*
X15878753Y-16745317D01*
X16040658Y-16888174D02*
X16050182Y-16878650D01*
X16050182Y-16878650D02*
X16069230Y-16850079D01*
X16069230Y-16850079D02*
X16078753Y-16831031D01*
X16078753Y-16831031D02*
X16088277Y-16802460D01*
X16088277Y-16802460D02*
X16097801Y-16754841D01*
X16097801Y-16754841D02*
X16097801Y-16716746D01*
X16097801Y-16716746D02*
X16088277Y-16669127D01*
X16088277Y-16669127D02*
X16078753Y-16640555D01*
X16078753Y-16640555D02*
X16069230Y-16621508D01*
X16069230Y-16621508D02*
X16050182Y-16592936D01*
X16050182Y-16592936D02*
X16040658Y-16583412D01*
X16402563Y-16888174D02*
X16393039Y-16878650D01*
X16393039Y-16878650D02*
X16373991Y-16850079D01*
X16373991Y-16850079D02*
X16364468Y-16831031D01*
X16364468Y-16831031D02*
X16354944Y-16802460D01*
X16354944Y-16802460D02*
X16345420Y-16754841D01*
X16345420Y-16754841D02*
X16345420Y-16716746D01*
X16345420Y-16716746D02*
X16354944Y-16669127D01*
X16354944Y-16669127D02*
X16364468Y-16640555D01*
X16364468Y-16640555D02*
X16373991Y-16621508D01*
X16373991Y-16621508D02*
X16393039Y-16592936D01*
X16393039Y-16592936D02*
X16402563Y-16583412D01*
X16478753Y-16678650D02*
X16478753Y-16811984D01*
X16478753Y-16697698D02*
X16488277Y-16688174D01*
X16488277Y-16688174D02*
X16507325Y-16678650D01*
X16507325Y-16678650D02*
X16535896Y-16678650D01*
X16535896Y-16678650D02*
X16554944Y-16688174D01*
X16554944Y-16688174D02*
X16564468Y-16707222D01*
X16564468Y-16707222D02*
X16564468Y-16811984D01*
X16688277Y-16811984D02*
X16669230Y-16802460D01*
X16669230Y-16802460D02*
X16659706Y-16792936D01*
X16659706Y-16792936D02*
X16650182Y-16773888D01*
X16650182Y-16773888D02*
X16650182Y-16716746D01*
X16650182Y-16716746D02*
X16659706Y-16697698D01*
X16659706Y-16697698D02*
X16669230Y-16688174D01*
X16669230Y-16688174D02*
X16688277Y-16678650D01*
X16688277Y-16678650D02*
X16716849Y-16678650D01*
X16716849Y-16678650D02*
X16735896Y-16688174D01*
X16735896Y-16688174D02*
X16745420Y-16697698D01*
X16745420Y-16697698D02*
X16754944Y-16716746D01*
X16754944Y-16716746D02*
X16754944Y-16773888D01*
X16754944Y-16773888D02*
X16745420Y-16792936D01*
X16745420Y-16792936D02*
X16735896Y-16802460D01*
X16735896Y-16802460D02*
X16716849Y-16811984D01*
X16716849Y-16811984D02*
X16688277Y-16811984D01*
X16812087Y-16678650D02*
X16888277Y-16678650D01*
X16840658Y-16611984D02*
X16840658Y-16783412D01*
X16840658Y-16783412D02*
X16850182Y-16802460D01*
X16850182Y-16802460D02*
X16869230Y-16811984D01*
X16869230Y-16811984D02*
X16888277Y-16811984D01*
X17107325Y-16678650D02*
X17107325Y-16878650D01*
X17107325Y-16688174D02*
X17126373Y-16678650D01*
X17126373Y-16678650D02*
X17164468Y-16678650D01*
X17164468Y-16678650D02*
X17183515Y-16688174D01*
X17183515Y-16688174D02*
X17193039Y-16697698D01*
X17193039Y-16697698D02*
X17202563Y-16716746D01*
X17202563Y-16716746D02*
X17202563Y-16773888D01*
X17202563Y-16773888D02*
X17193039Y-16792936D01*
X17193039Y-16792936D02*
X17183515Y-16802460D01*
X17183515Y-16802460D02*
X17164468Y-16811984D01*
X17164468Y-16811984D02*
X17126373Y-16811984D01*
X17126373Y-16811984D02*
X17107325Y-16802460D01*
X17316849Y-16811984D02*
X17297801Y-16802460D01*
X17297801Y-16802460D02*
X17288277Y-16783412D01*
X17288277Y-16783412D02*
X17288277Y-16611984D01*
X17478754Y-16811984D02*
X17478754Y-16707222D01*
X17478754Y-16707222D02*
X17469230Y-16688174D01*
X17469230Y-16688174D02*
X17450182Y-16678650D01*
X17450182Y-16678650D02*
X17412087Y-16678650D01*
X17412087Y-16678650D02*
X17393039Y-16688174D01*
X17478754Y-16802460D02*
X17459706Y-16811984D01*
X17459706Y-16811984D02*
X17412087Y-16811984D01*
X17412087Y-16811984D02*
X17393039Y-16802460D01*
X17393039Y-16802460D02*
X17383515Y-16783412D01*
X17383515Y-16783412D02*
X17383515Y-16764365D01*
X17383515Y-16764365D02*
X17393039Y-16745317D01*
X17393039Y-16745317D02*
X17412087Y-16735793D01*
X17412087Y-16735793D02*
X17459706Y-16735793D01*
X17459706Y-16735793D02*
X17478754Y-16726269D01*
X17545420Y-16678650D02*
X17621611Y-16678650D01*
X17573992Y-16611984D02*
X17573992Y-16783412D01*
X17573992Y-16783412D02*
X17583515Y-16802460D01*
X17583515Y-16802460D02*
X17602563Y-16811984D01*
X17602563Y-16811984D02*
X17621611Y-16811984D01*
X17764468Y-16802460D02*
X17745420Y-16811984D01*
X17745420Y-16811984D02*
X17707325Y-16811984D01*
X17707325Y-16811984D02*
X17688277Y-16802460D01*
X17688277Y-16802460D02*
X17678754Y-16783412D01*
X17678754Y-16783412D02*
X17678754Y-16707222D01*
X17678754Y-16707222D02*
X17688277Y-16688174D01*
X17688277Y-16688174D02*
X17707325Y-16678650D01*
X17707325Y-16678650D02*
X17745420Y-16678650D01*
X17745420Y-16678650D02*
X17764468Y-16688174D01*
X17764468Y-16688174D02*
X17773992Y-16707222D01*
X17773992Y-16707222D02*
X17773992Y-16726269D01*
X17773992Y-16726269D02*
X17678754Y-16745317D01*
X17945420Y-16811984D02*
X17945420Y-16611984D01*
X17945420Y-16802460D02*
X17926373Y-16811984D01*
X17926373Y-16811984D02*
X17888277Y-16811984D01*
X17888277Y-16811984D02*
X17869230Y-16802460D01*
X17869230Y-16802460D02*
X17859706Y-16792936D01*
X17859706Y-16792936D02*
X17850182Y-16773888D01*
X17850182Y-16773888D02*
X17850182Y-16716746D01*
X17850182Y-16716746D02*
X17859706Y-16697698D01*
X17859706Y-16697698D02*
X17869230Y-16688174D01*
X17869230Y-16688174D02*
X17888277Y-16678650D01*
X17888277Y-16678650D02*
X17926373Y-16678650D01*
X17926373Y-16678650D02*
X17945420Y-16688174D01*
X18021611Y-16888174D02*
X18031135Y-16878650D01*
X18031135Y-16878650D02*
X18050182Y-16850079D01*
X18050182Y-16850079D02*
X18059706Y-16831031D01*
X18059706Y-16831031D02*
X18069230Y-16802460D01*
X18069230Y-16802460D02*
X18078754Y-16754841D01*
X18078754Y-16754841D02*
X18078754Y-16716746D01*
X18078754Y-16716746D02*
X18069230Y-16669127D01*
X18069230Y-16669127D02*
X18059706Y-16640555D01*
X18059706Y-16640555D02*
X18050182Y-16621508D01*
X18050182Y-16621508D02*
X18031135Y-16592936D01*
X18031135Y-16592936D02*
X18021611Y-16583412D01*
M02*
