%TF.GenerationSoftware,KiCad,Pcbnew,10.0.0*%
%TF.CreationDate,2026-09-18T12:42:35-06:00*%
%TF.ProjectId,Millburn_Test_Board,4d696c6c-6275-4726-9e5f-546573745f42,rev?*%
%TF.SameCoordinates,Original*%
%TF.FileFunction,Legend,Top*%
%TF.FilePolarity,Positive*%
%FSLAX46Y46*%
G04 Gerber Fmt 4.6, Leading zero omitted, Abs format (unit mm)*
G04 Created by KiCad (PCBNEW 10.0.0) date 2026-09-18 12:42:35*
%MOMM*%
%LPD*%
G01*
G04 APERTURE LIST*
%ADD10C,0.300000*%
%ADD11C,0.100000*%
%ADD12C,0.150000*%
%ADD13C,0.120000*%
G04 APERTURE END LIST*
D10*
X118684510Y-143574228D02*
X118684510Y-142074228D01*
X118684510Y-142074228D02*
X119255939Y-142074228D01*
X119255939Y-142074228D02*
X119398796Y-142145657D01*
X119398796Y-142145657D02*
X119470225Y-142217085D01*
X119470225Y-142217085D02*
X119541653Y-142359942D01*
X119541653Y-142359942D02*
X119541653Y-142574228D01*
X119541653Y-142574228D02*
X119470225Y-142717085D01*
X119470225Y-142717085D02*
X119398796Y-142788514D01*
X119398796Y-142788514D02*
X119255939Y-142859942D01*
X119255939Y-142859942D02*
X118684510Y-142859942D01*
X121041653Y-143431371D02*
X120970225Y-143502800D01*
X120970225Y-143502800D02*
X120755939Y-143574228D01*
X120755939Y-143574228D02*
X120613082Y-143574228D01*
X120613082Y-143574228D02*
X120398796Y-143502800D01*
X120398796Y-143502800D02*
X120255939Y-143359942D01*
X120255939Y-143359942D02*
X120184510Y-143217085D01*
X120184510Y-143217085D02*
X120113082Y-142931371D01*
X120113082Y-142931371D02*
X120113082Y-142717085D01*
X120113082Y-142717085D02*
X120184510Y-142431371D01*
X120184510Y-142431371D02*
X120255939Y-142288514D01*
X120255939Y-142288514D02*
X120398796Y-142145657D01*
X120398796Y-142145657D02*
X120613082Y-142074228D01*
X120613082Y-142074228D02*
X120755939Y-142074228D01*
X120755939Y-142074228D02*
X120970225Y-142145657D01*
X120970225Y-142145657D02*
X121041653Y-142217085D01*
X122184510Y-142788514D02*
X122398796Y-142859942D01*
X122398796Y-142859942D02*
X122470225Y-142931371D01*
X122470225Y-142931371D02*
X122541653Y-143074228D01*
X122541653Y-143074228D02*
X122541653Y-143288514D01*
X122541653Y-143288514D02*
X122470225Y-143431371D01*
X122470225Y-143431371D02*
X122398796Y-143502800D01*
X122398796Y-143502800D02*
X122255939Y-143574228D01*
X122255939Y-143574228D02*
X121684510Y-143574228D01*
X121684510Y-143574228D02*
X121684510Y-142074228D01*
X121684510Y-142074228D02*
X122184510Y-142074228D01*
X122184510Y-142074228D02*
X122327368Y-142145657D01*
X122327368Y-142145657D02*
X122398796Y-142217085D01*
X122398796Y-142217085D02*
X122470225Y-142359942D01*
X122470225Y-142359942D02*
X122470225Y-142502800D01*
X122470225Y-142502800D02*
X122398796Y-142645657D01*
X122398796Y-142645657D02*
X122327368Y-142717085D01*
X122327368Y-142717085D02*
X122184510Y-142788514D01*
X122184510Y-142788514D02*
X121684510Y-142788514D01*
X124327367Y-143574228D02*
X124327367Y-142074228D01*
X124327367Y-142074228D02*
X124827367Y-143145657D01*
X124827367Y-143145657D02*
X125327367Y-142074228D01*
X125327367Y-142074228D02*
X125327367Y-143574228D01*
X126041653Y-143574228D02*
X126041653Y-142574228D01*
X126041653Y-142074228D02*
X125970225Y-142145657D01*
X125970225Y-142145657D02*
X126041653Y-142217085D01*
X126041653Y-142217085D02*
X126113082Y-142145657D01*
X126113082Y-142145657D02*
X126041653Y-142074228D01*
X126041653Y-142074228D02*
X126041653Y-142217085D01*
X126970225Y-143574228D02*
X126827368Y-143502800D01*
X126827368Y-143502800D02*
X126755939Y-143359942D01*
X126755939Y-143359942D02*
X126755939Y-142074228D01*
X127755939Y-143574228D02*
X127613082Y-143502800D01*
X127613082Y-143502800D02*
X127541653Y-143359942D01*
X127541653Y-143359942D02*
X127541653Y-142074228D01*
X128827367Y-142788514D02*
X129041653Y-142859942D01*
X129041653Y-142859942D02*
X129113082Y-142931371D01*
X129113082Y-142931371D02*
X129184510Y-143074228D01*
X129184510Y-143074228D02*
X129184510Y-143288514D01*
X129184510Y-143288514D02*
X129113082Y-143431371D01*
X129113082Y-143431371D02*
X129041653Y-143502800D01*
X129041653Y-143502800D02*
X128898796Y-143574228D01*
X128898796Y-143574228D02*
X128327367Y-143574228D01*
X128327367Y-143574228D02*
X128327367Y-142074228D01*
X128327367Y-142074228D02*
X128827367Y-142074228D01*
X128827367Y-142074228D02*
X128970225Y-142145657D01*
X128970225Y-142145657D02*
X129041653Y-142217085D01*
X129041653Y-142217085D02*
X129113082Y-142359942D01*
X129113082Y-142359942D02*
X129113082Y-142502800D01*
X129113082Y-142502800D02*
X129041653Y-142645657D01*
X129041653Y-142645657D02*
X128970225Y-142717085D01*
X128970225Y-142717085D02*
X128827367Y-142788514D01*
X128827367Y-142788514D02*
X128327367Y-142788514D01*
X130470225Y-142574228D02*
X130470225Y-143574228D01*
X129827367Y-142574228D02*
X129827367Y-143359942D01*
X129827367Y-143359942D02*
X129898796Y-143502800D01*
X129898796Y-143502800D02*
X130041653Y-143574228D01*
X130041653Y-143574228D02*
X130255939Y-143574228D01*
X130255939Y-143574228D02*
X130398796Y-143502800D01*
X130398796Y-143502800D02*
X130470225Y-143431371D01*
X131184510Y-143574228D02*
X131184510Y-142574228D01*
X131184510Y-142859942D02*
X131255939Y-142717085D01*
X131255939Y-142717085D02*
X131327368Y-142645657D01*
X131327368Y-142645657D02*
X131470225Y-142574228D01*
X131470225Y-142574228D02*
X131613082Y-142574228D01*
X132113081Y-142574228D02*
X132113081Y-143574228D01*
X132113081Y-142717085D02*
X132184510Y-142645657D01*
X132184510Y-142645657D02*
X132327367Y-142574228D01*
X132327367Y-142574228D02*
X132541653Y-142574228D01*
X132541653Y-142574228D02*
X132684510Y-142645657D01*
X132684510Y-142645657D02*
X132755939Y-142788514D01*
X132755939Y-142788514D02*
X132755939Y-143574228D01*
X134398796Y-142074228D02*
X135255939Y-142074228D01*
X134827367Y-143574228D02*
X134827367Y-142074228D01*
X136327367Y-143502800D02*
X136184510Y-143574228D01*
X136184510Y-143574228D02*
X135898796Y-143574228D01*
X135898796Y-143574228D02*
X135755938Y-143502800D01*
X135755938Y-143502800D02*
X135684510Y-143359942D01*
X135684510Y-143359942D02*
X135684510Y-142788514D01*
X135684510Y-142788514D02*
X135755938Y-142645657D01*
X135755938Y-142645657D02*
X135898796Y-142574228D01*
X135898796Y-142574228D02*
X136184510Y-142574228D01*
X136184510Y-142574228D02*
X136327367Y-142645657D01*
X136327367Y-142645657D02*
X136398796Y-142788514D01*
X136398796Y-142788514D02*
X136398796Y-142931371D01*
X136398796Y-142931371D02*
X135684510Y-143074228D01*
X136970224Y-143502800D02*
X137113081Y-143574228D01*
X137113081Y-143574228D02*
X137398795Y-143574228D01*
X137398795Y-143574228D02*
X137541652Y-143502800D01*
X137541652Y-143502800D02*
X137613081Y-143359942D01*
X137613081Y-143359942D02*
X137613081Y-143288514D01*
X137613081Y-143288514D02*
X137541652Y-143145657D01*
X137541652Y-143145657D02*
X137398795Y-143074228D01*
X137398795Y-143074228D02*
X137184510Y-143074228D01*
X137184510Y-143074228D02*
X137041652Y-143002800D01*
X137041652Y-143002800D02*
X136970224Y-142859942D01*
X136970224Y-142859942D02*
X136970224Y-142788514D01*
X136970224Y-142788514D02*
X137041652Y-142645657D01*
X137041652Y-142645657D02*
X137184510Y-142574228D01*
X137184510Y-142574228D02*
X137398795Y-142574228D01*
X137398795Y-142574228D02*
X137541652Y-142645657D01*
X138041653Y-142574228D02*
X138613081Y-142574228D01*
X138255938Y-142074228D02*
X138255938Y-143359942D01*
X138255938Y-143359942D02*
X138327367Y-143502800D01*
X138327367Y-143502800D02*
X138470224Y-143574228D01*
X138470224Y-143574228D02*
X138613081Y-143574228D01*
X140755938Y-142788514D02*
X140970224Y-142859942D01*
X140970224Y-142859942D02*
X141041653Y-142931371D01*
X141041653Y-142931371D02*
X141113081Y-143074228D01*
X141113081Y-143074228D02*
X141113081Y-143288514D01*
X141113081Y-143288514D02*
X141041653Y-143431371D01*
X141041653Y-143431371D02*
X140970224Y-143502800D01*
X140970224Y-143502800D02*
X140827367Y-143574228D01*
X140827367Y-143574228D02*
X140255938Y-143574228D01*
X140255938Y-143574228D02*
X140255938Y-142074228D01*
X140255938Y-142074228D02*
X140755938Y-142074228D01*
X140755938Y-142074228D02*
X140898796Y-142145657D01*
X140898796Y-142145657D02*
X140970224Y-142217085D01*
X140970224Y-142217085D02*
X141041653Y-142359942D01*
X141041653Y-142359942D02*
X141041653Y-142502800D01*
X141041653Y-142502800D02*
X140970224Y-142645657D01*
X140970224Y-142645657D02*
X140898796Y-142717085D01*
X140898796Y-142717085D02*
X140755938Y-142788514D01*
X140755938Y-142788514D02*
X140255938Y-142788514D01*
X141970224Y-143574228D02*
X141827367Y-143502800D01*
X141827367Y-143502800D02*
X141755938Y-143431371D01*
X141755938Y-143431371D02*
X141684510Y-143288514D01*
X141684510Y-143288514D02*
X141684510Y-142859942D01*
X141684510Y-142859942D02*
X141755938Y-142717085D01*
X141755938Y-142717085D02*
X141827367Y-142645657D01*
X141827367Y-142645657D02*
X141970224Y-142574228D01*
X141970224Y-142574228D02*
X142184510Y-142574228D01*
X142184510Y-142574228D02*
X142327367Y-142645657D01*
X142327367Y-142645657D02*
X142398796Y-142717085D01*
X142398796Y-142717085D02*
X142470224Y-142859942D01*
X142470224Y-142859942D02*
X142470224Y-143288514D01*
X142470224Y-143288514D02*
X142398796Y-143431371D01*
X142398796Y-143431371D02*
X142327367Y-143502800D01*
X142327367Y-143502800D02*
X142184510Y-143574228D01*
X142184510Y-143574228D02*
X141970224Y-143574228D01*
X143755939Y-143574228D02*
X143755939Y-142788514D01*
X143755939Y-142788514D02*
X143684510Y-142645657D01*
X143684510Y-142645657D02*
X143541653Y-142574228D01*
X143541653Y-142574228D02*
X143255939Y-142574228D01*
X143255939Y-142574228D02*
X143113081Y-142645657D01*
X143755939Y-143502800D02*
X143613081Y-143574228D01*
X143613081Y-143574228D02*
X143255939Y-143574228D01*
X143255939Y-143574228D02*
X143113081Y-143502800D01*
X143113081Y-143502800D02*
X143041653Y-143359942D01*
X143041653Y-143359942D02*
X143041653Y-143217085D01*
X143041653Y-143217085D02*
X143113081Y-143074228D01*
X143113081Y-143074228D02*
X143255939Y-143002800D01*
X143255939Y-143002800D02*
X143613081Y-143002800D01*
X143613081Y-143002800D02*
X143755939Y-142931371D01*
X144470224Y-143574228D02*
X144470224Y-142574228D01*
X144470224Y-142859942D02*
X144541653Y-142717085D01*
X144541653Y-142717085D02*
X144613082Y-142645657D01*
X144613082Y-142645657D02*
X144755939Y-142574228D01*
X144755939Y-142574228D02*
X144898796Y-142574228D01*
X146041653Y-143574228D02*
X146041653Y-142074228D01*
X146041653Y-143502800D02*
X145898795Y-143574228D01*
X145898795Y-143574228D02*
X145613081Y-143574228D01*
X145613081Y-143574228D02*
X145470224Y-143502800D01*
X145470224Y-143502800D02*
X145398795Y-143431371D01*
X145398795Y-143431371D02*
X145327367Y-143288514D01*
X145327367Y-143288514D02*
X145327367Y-142859942D01*
X145327367Y-142859942D02*
X145398795Y-142717085D01*
X145398795Y-142717085D02*
X145470224Y-142645657D01*
X145470224Y-142645657D02*
X145613081Y-142574228D01*
X145613081Y-142574228D02*
X145898795Y-142574228D01*
X145898795Y-142574228D02*
X146041653Y-142645657D01*
D11*
X114914594Y-137972800D02*
X120594206Y-137972800D01*
X117703600Y-79765645D02*
X117703600Y-85303155D01*
X120472355Y-82534400D02*
G75*
G02*
X114934845Y-82534400I-2768755J0D01*
G01*
X114934845Y-82534400D02*
G75*
G02*
X120472355Y-82534400I2768755J0D01*
G01*
X117754400Y-135132994D02*
X117754400Y-140812606D01*
X120594206Y-137972800D02*
G75*
G02*
X114914594Y-137972800I-2839806J0D01*
G01*
X114914594Y-137972800D02*
G75*
G02*
X120594206Y-137972800I2839806J0D01*
G01*
X120472355Y-82534400D02*
X114934845Y-82534400D01*
X179070000Y-107650194D02*
X179070000Y-113329806D01*
X181909806Y-110490000D02*
G75*
G02*
X176230194Y-110490000I-2839806J0D01*
G01*
X176230194Y-110490000D02*
G75*
G02*
X181909806Y-110490000I2839806J0D01*
G01*
X181909806Y-110490000D02*
X176230194Y-110490000D01*
D12*
X152519666Y-108207819D02*
X152519666Y-108922104D01*
X152519666Y-108922104D02*
X152472047Y-109064961D01*
X152472047Y-109064961D02*
X152376809Y-109160200D01*
X152376809Y-109160200D02*
X152233952Y-109207819D01*
X152233952Y-109207819D02*
X152138714Y-109207819D01*
X153472047Y-108207819D02*
X152995857Y-108207819D01*
X152995857Y-108207819D02*
X152948238Y-108684009D01*
X152948238Y-108684009D02*
X152995857Y-108636390D01*
X152995857Y-108636390D02*
X153091095Y-108588771D01*
X153091095Y-108588771D02*
X153329190Y-108588771D01*
X153329190Y-108588771D02*
X153424428Y-108636390D01*
X153424428Y-108636390D02*
X153472047Y-108684009D01*
X153472047Y-108684009D02*
X153519666Y-108779247D01*
X153519666Y-108779247D02*
X153519666Y-109017342D01*
X153519666Y-109017342D02*
X153472047Y-109112580D01*
X153472047Y-109112580D02*
X153424428Y-109160200D01*
X153424428Y-109160200D02*
X153329190Y-109207819D01*
X153329190Y-109207819D02*
X153091095Y-109207819D01*
X153091095Y-109207819D02*
X152995857Y-109160200D01*
X152995857Y-109160200D02*
X152948238Y-109112580D01*
X141761905Y-133004819D02*
X141761905Y-132004819D01*
X141761905Y-132481009D02*
X142333333Y-132481009D01*
X142333333Y-133004819D02*
X142333333Y-132004819D01*
X143333333Y-133004819D02*
X142761905Y-133004819D01*
X143047619Y-133004819D02*
X143047619Y-132004819D01*
X143047619Y-132004819D02*
X142952381Y-132147676D01*
X142952381Y-132147676D02*
X142857143Y-132242914D01*
X142857143Y-132242914D02*
X142761905Y-132290533D01*
X143714286Y-132100057D02*
X143761905Y-132052438D01*
X143761905Y-132052438D02*
X143857143Y-132004819D01*
X143857143Y-132004819D02*
X144095238Y-132004819D01*
X144095238Y-132004819D02*
X144190476Y-132052438D01*
X144190476Y-132052438D02*
X144238095Y-132100057D01*
X144238095Y-132100057D02*
X144285714Y-132195295D01*
X144285714Y-132195295D02*
X144285714Y-132290533D01*
X144285714Y-132290533D02*
X144238095Y-132433390D01*
X144238095Y-132433390D02*
X143666667Y-133004819D01*
X143666667Y-133004819D02*
X144285714Y-133004819D01*
X146692819Y-93551333D02*
X147407104Y-93551333D01*
X147407104Y-93551333D02*
X147549961Y-93598952D01*
X147549961Y-93598952D02*
X147645200Y-93694190D01*
X147645200Y-93694190D02*
X147692819Y-93837047D01*
X147692819Y-93837047D02*
X147692819Y-93932285D01*
X146788057Y-93122761D02*
X146740438Y-93075142D01*
X146740438Y-93075142D02*
X146692819Y-92979904D01*
X146692819Y-92979904D02*
X146692819Y-92741809D01*
X146692819Y-92741809D02*
X146740438Y-92646571D01*
X146740438Y-92646571D02*
X146788057Y-92598952D01*
X146788057Y-92598952D02*
X146883295Y-92551333D01*
X146883295Y-92551333D02*
X146978533Y-92551333D01*
X146978533Y-92551333D02*
X147121390Y-92598952D01*
X147121390Y-92598952D02*
X147692819Y-93170380D01*
X147692819Y-93170380D02*
X147692819Y-92551333D01*
X131238095Y-127004819D02*
X131238095Y-126004819D01*
X131238095Y-126481009D02*
X131809523Y-126481009D01*
X131809523Y-127004819D02*
X131809523Y-126004819D01*
X132428571Y-126433390D02*
X132333333Y-126385771D01*
X132333333Y-126385771D02*
X132285714Y-126338152D01*
X132285714Y-126338152D02*
X132238095Y-126242914D01*
X132238095Y-126242914D02*
X132238095Y-126195295D01*
X132238095Y-126195295D02*
X132285714Y-126100057D01*
X132285714Y-126100057D02*
X132333333Y-126052438D01*
X132333333Y-126052438D02*
X132428571Y-126004819D01*
X132428571Y-126004819D02*
X132619047Y-126004819D01*
X132619047Y-126004819D02*
X132714285Y-126052438D01*
X132714285Y-126052438D02*
X132761904Y-126100057D01*
X132761904Y-126100057D02*
X132809523Y-126195295D01*
X132809523Y-126195295D02*
X132809523Y-126242914D01*
X132809523Y-126242914D02*
X132761904Y-126338152D01*
X132761904Y-126338152D02*
X132714285Y-126385771D01*
X132714285Y-126385771D02*
X132619047Y-126433390D01*
X132619047Y-126433390D02*
X132428571Y-126433390D01*
X132428571Y-126433390D02*
X132333333Y-126481009D01*
X132333333Y-126481009D02*
X132285714Y-126528628D01*
X132285714Y-126528628D02*
X132238095Y-126623866D01*
X132238095Y-126623866D02*
X132238095Y-126814342D01*
X132238095Y-126814342D02*
X132285714Y-126909580D01*
X132285714Y-126909580D02*
X132333333Y-126957200D01*
X132333333Y-126957200D02*
X132428571Y-127004819D01*
X132428571Y-127004819D02*
X132619047Y-127004819D01*
X132619047Y-127004819D02*
X132714285Y-126957200D01*
X132714285Y-126957200D02*
X132761904Y-126909580D01*
X132761904Y-126909580D02*
X132809523Y-126814342D01*
X132809523Y-126814342D02*
X132809523Y-126623866D01*
X132809523Y-126623866D02*
X132761904Y-126528628D01*
X132761904Y-126528628D02*
X132714285Y-126481009D01*
X132714285Y-126481009D02*
X132619047Y-126433390D01*
X125238095Y-127304819D02*
X125238095Y-126304819D01*
X125238095Y-126781009D02*
X125809523Y-126781009D01*
X125809523Y-127304819D02*
X125809523Y-126304819D01*
X126190476Y-126304819D02*
X126857142Y-126304819D01*
X126857142Y-126304819D02*
X126428571Y-127304819D01*
X125761905Y-133504819D02*
X125761905Y-132504819D01*
X125761905Y-132981009D02*
X126333333Y-132981009D01*
X126333333Y-133504819D02*
X126333333Y-132504819D01*
X127333333Y-133504819D02*
X126761905Y-133504819D01*
X127047619Y-133504819D02*
X127047619Y-132504819D01*
X127047619Y-132504819D02*
X126952381Y-132647676D01*
X126952381Y-132647676D02*
X126857143Y-132742914D01*
X126857143Y-132742914D02*
X126761905Y-132790533D01*
X127952381Y-132504819D02*
X128047619Y-132504819D01*
X128047619Y-132504819D02*
X128142857Y-132552438D01*
X128142857Y-132552438D02*
X128190476Y-132600057D01*
X128190476Y-132600057D02*
X128238095Y-132695295D01*
X128238095Y-132695295D02*
X128285714Y-132885771D01*
X128285714Y-132885771D02*
X128285714Y-133123866D01*
X128285714Y-133123866D02*
X128238095Y-133314342D01*
X128238095Y-133314342D02*
X128190476Y-133409580D01*
X128190476Y-133409580D02*
X128142857Y-133457200D01*
X128142857Y-133457200D02*
X128047619Y-133504819D01*
X128047619Y-133504819D02*
X127952381Y-133504819D01*
X127952381Y-133504819D02*
X127857143Y-133457200D01*
X127857143Y-133457200D02*
X127809524Y-133409580D01*
X127809524Y-133409580D02*
X127761905Y-133314342D01*
X127761905Y-133314342D02*
X127714286Y-133123866D01*
X127714286Y-133123866D02*
X127714286Y-132885771D01*
X127714286Y-132885771D02*
X127761905Y-132695295D01*
X127761905Y-132695295D02*
X127809524Y-132600057D01*
X127809524Y-132600057D02*
X127857143Y-132552438D01*
X127857143Y-132552438D02*
X127952381Y-132504819D01*
X125238095Y-111304819D02*
X125238095Y-110304819D01*
X125238095Y-110781009D02*
X125809523Y-110781009D01*
X125809523Y-111304819D02*
X125809523Y-110304819D01*
X126809523Y-111304819D02*
X126238095Y-111304819D01*
X126523809Y-111304819D02*
X126523809Y-110304819D01*
X126523809Y-110304819D02*
X126428571Y-110447676D01*
X126428571Y-110447676D02*
X126333333Y-110542914D01*
X126333333Y-110542914D02*
X126238095Y-110590533D01*
X131238095Y-111004819D02*
X131238095Y-110004819D01*
X131238095Y-110481009D02*
X131809523Y-110481009D01*
X131809523Y-111004819D02*
X131809523Y-110004819D01*
X132238095Y-110100057D02*
X132285714Y-110052438D01*
X132285714Y-110052438D02*
X132380952Y-110004819D01*
X132380952Y-110004819D02*
X132619047Y-110004819D01*
X132619047Y-110004819D02*
X132714285Y-110052438D01*
X132714285Y-110052438D02*
X132761904Y-110100057D01*
X132761904Y-110100057D02*
X132809523Y-110195295D01*
X132809523Y-110195295D02*
X132809523Y-110290533D01*
X132809523Y-110290533D02*
X132761904Y-110433390D01*
X132761904Y-110433390D02*
X132190476Y-111004819D01*
X132190476Y-111004819D02*
X132809523Y-111004819D01*
X134238095Y-117304819D02*
X134238095Y-116304819D01*
X134238095Y-116781009D02*
X134809523Y-116781009D01*
X134809523Y-117304819D02*
X134809523Y-116304819D01*
X135761904Y-116304819D02*
X135285714Y-116304819D01*
X135285714Y-116304819D02*
X135238095Y-116781009D01*
X135238095Y-116781009D02*
X135285714Y-116733390D01*
X135285714Y-116733390D02*
X135380952Y-116685771D01*
X135380952Y-116685771D02*
X135619047Y-116685771D01*
X135619047Y-116685771D02*
X135714285Y-116733390D01*
X135714285Y-116733390D02*
X135761904Y-116781009D01*
X135761904Y-116781009D02*
X135809523Y-116876247D01*
X135809523Y-116876247D02*
X135809523Y-117114342D01*
X135809523Y-117114342D02*
X135761904Y-117209580D01*
X135761904Y-117209580D02*
X135714285Y-117257200D01*
X135714285Y-117257200D02*
X135619047Y-117304819D01*
X135619047Y-117304819D02*
X135380952Y-117304819D01*
X135380952Y-117304819D02*
X135285714Y-117257200D01*
X135285714Y-117257200D02*
X135238095Y-117209580D01*
X124575819Y-94688333D02*
X125290104Y-94688333D01*
X125290104Y-94688333D02*
X125432961Y-94735952D01*
X125432961Y-94735952D02*
X125528200Y-94831190D01*
X125528200Y-94831190D02*
X125575819Y-94974047D01*
X125575819Y-94974047D02*
X125575819Y-95069285D01*
X125575819Y-93688333D02*
X125575819Y-94259761D01*
X125575819Y-93974047D02*
X124575819Y-93974047D01*
X124575819Y-93974047D02*
X124718676Y-94069285D01*
X124718676Y-94069285D02*
X124813914Y-94164523D01*
X124813914Y-94164523D02*
X124861533Y-94259761D01*
X148679819Y-96974333D02*
X149394104Y-96974333D01*
X149394104Y-96974333D02*
X149536961Y-97021952D01*
X149536961Y-97021952D02*
X149632200Y-97117190D01*
X149632200Y-97117190D02*
X149679819Y-97260047D01*
X149679819Y-97260047D02*
X149679819Y-97355285D01*
X148679819Y-96593380D02*
X148679819Y-95974333D01*
X148679819Y-95974333D02*
X149060771Y-96307666D01*
X149060771Y-96307666D02*
X149060771Y-96164809D01*
X149060771Y-96164809D02*
X149108390Y-96069571D01*
X149108390Y-96069571D02*
X149156009Y-96021952D01*
X149156009Y-96021952D02*
X149251247Y-95974333D01*
X149251247Y-95974333D02*
X149489342Y-95974333D01*
X149489342Y-95974333D02*
X149584580Y-96021952D01*
X149584580Y-96021952D02*
X149632200Y-96069571D01*
X149632200Y-96069571D02*
X149679819Y-96164809D01*
X149679819Y-96164809D02*
X149679819Y-96450523D01*
X149679819Y-96450523D02*
X149632200Y-96545761D01*
X149632200Y-96545761D02*
X149584580Y-96593380D01*
X142238095Y-117004819D02*
X142238095Y-116004819D01*
X142238095Y-116481009D02*
X142809523Y-116481009D01*
X142809523Y-117004819D02*
X142809523Y-116004819D01*
X143714285Y-116004819D02*
X143523809Y-116004819D01*
X143523809Y-116004819D02*
X143428571Y-116052438D01*
X143428571Y-116052438D02*
X143380952Y-116100057D01*
X143380952Y-116100057D02*
X143285714Y-116242914D01*
X143285714Y-116242914D02*
X143238095Y-116433390D01*
X143238095Y-116433390D02*
X143238095Y-116814342D01*
X143238095Y-116814342D02*
X143285714Y-116909580D01*
X143285714Y-116909580D02*
X143333333Y-116957200D01*
X143333333Y-116957200D02*
X143428571Y-117004819D01*
X143428571Y-117004819D02*
X143619047Y-117004819D01*
X143619047Y-117004819D02*
X143714285Y-116957200D01*
X143714285Y-116957200D02*
X143761904Y-116909580D01*
X143761904Y-116909580D02*
X143809523Y-116814342D01*
X143809523Y-116814342D02*
X143809523Y-116576247D01*
X143809523Y-116576247D02*
X143761904Y-116481009D01*
X143761904Y-116481009D02*
X143714285Y-116433390D01*
X143714285Y-116433390D02*
X143619047Y-116385771D01*
X143619047Y-116385771D02*
X143428571Y-116385771D01*
X143428571Y-116385771D02*
X143333333Y-116433390D01*
X143333333Y-116433390D02*
X143285714Y-116481009D01*
X143285714Y-116481009D02*
X143238095Y-116576247D01*
X126238095Y-117504819D02*
X126238095Y-116504819D01*
X126238095Y-116981009D02*
X126809523Y-116981009D01*
X126809523Y-117504819D02*
X126809523Y-116504819D01*
X127714285Y-116838152D02*
X127714285Y-117504819D01*
X127476190Y-116457200D02*
X127238095Y-117171485D01*
X127238095Y-117171485D02*
X127857142Y-117171485D01*
X138238095Y-110804819D02*
X138238095Y-109804819D01*
X138238095Y-110281009D02*
X138809523Y-110281009D01*
X138809523Y-110804819D02*
X138809523Y-109804819D01*
X139190476Y-109804819D02*
X139809523Y-109804819D01*
X139809523Y-109804819D02*
X139476190Y-110185771D01*
X139476190Y-110185771D02*
X139619047Y-110185771D01*
X139619047Y-110185771D02*
X139714285Y-110233390D01*
X139714285Y-110233390D02*
X139761904Y-110281009D01*
X139761904Y-110281009D02*
X139809523Y-110376247D01*
X139809523Y-110376247D02*
X139809523Y-110614342D01*
X139809523Y-110614342D02*
X139761904Y-110709580D01*
X139761904Y-110709580D02*
X139714285Y-110757200D01*
X139714285Y-110757200D02*
X139619047Y-110804819D01*
X139619047Y-110804819D02*
X139333333Y-110804819D01*
X139333333Y-110804819D02*
X139238095Y-110757200D01*
X139238095Y-110757200D02*
X139190476Y-110709580D01*
X133761905Y-133304819D02*
X133761905Y-132304819D01*
X133761905Y-132781009D02*
X134333333Y-132781009D01*
X134333333Y-133304819D02*
X134333333Y-132304819D01*
X135333333Y-133304819D02*
X134761905Y-133304819D01*
X135047619Y-133304819D02*
X135047619Y-132304819D01*
X135047619Y-132304819D02*
X134952381Y-132447676D01*
X134952381Y-132447676D02*
X134857143Y-132542914D01*
X134857143Y-132542914D02*
X134761905Y-132590533D01*
X136285714Y-133304819D02*
X135714286Y-133304819D01*
X136000000Y-133304819D02*
X136000000Y-132304819D01*
X136000000Y-132304819D02*
X135904762Y-132447676D01*
X135904762Y-132447676D02*
X135809524Y-132542914D01*
X135809524Y-132542914D02*
X135714286Y-132590533D01*
X138238095Y-126804819D02*
X138238095Y-125804819D01*
X138238095Y-126281009D02*
X138809523Y-126281009D01*
X138809523Y-126804819D02*
X138809523Y-125804819D01*
X139333333Y-126804819D02*
X139523809Y-126804819D01*
X139523809Y-126804819D02*
X139619047Y-126757200D01*
X139619047Y-126757200D02*
X139666666Y-126709580D01*
X139666666Y-126709580D02*
X139761904Y-126566723D01*
X139761904Y-126566723D02*
X139809523Y-126376247D01*
X139809523Y-126376247D02*
X139809523Y-125995295D01*
X139809523Y-125995295D02*
X139761904Y-125900057D01*
X139761904Y-125900057D02*
X139714285Y-125852438D01*
X139714285Y-125852438D02*
X139619047Y-125804819D01*
X139619047Y-125804819D02*
X139428571Y-125804819D01*
X139428571Y-125804819D02*
X139333333Y-125852438D01*
X139333333Y-125852438D02*
X139285714Y-125900057D01*
X139285714Y-125900057D02*
X139238095Y-125995295D01*
X139238095Y-125995295D02*
X139238095Y-126233390D01*
X139238095Y-126233390D02*
X139285714Y-126328628D01*
X139285714Y-126328628D02*
X139333333Y-126376247D01*
X139333333Y-126376247D02*
X139428571Y-126423866D01*
X139428571Y-126423866D02*
X139619047Y-126423866D01*
X139619047Y-126423866D02*
X139714285Y-126376247D01*
X139714285Y-126376247D02*
X139761904Y-126328628D01*
X139761904Y-126328628D02*
X139809523Y-126233390D01*
%TO.C,J5*%
D13*
X147953000Y-110253000D02*
X147953000Y-111553000D01*
X148253000Y-110553000D02*
X150253000Y-110553000D01*
X148253000Y-125053000D02*
X148253000Y-110553000D01*
X149653000Y-110253000D02*
X147953000Y-110253000D01*
X155453000Y-110553000D02*
X157453000Y-110553000D01*
X157453000Y-110553000D02*
X157453000Y-111853000D01*
X157453000Y-116453000D02*
X157453000Y-125053000D01*
X157453000Y-125053000D02*
X148253000Y-125053000D01*
%TO.C,J2*%
X143400000Y-105652000D02*
X143400000Y-82682000D01*
X146160000Y-82682000D02*
X143400000Y-82682000D01*
X146160000Y-105652000D02*
X143400000Y-105652000D01*
X146160000Y-105652000D02*
X146160000Y-82682000D01*
X146160000Y-106922000D02*
X146160000Y-108302000D01*
X146160000Y-108302000D02*
X144780000Y-108302000D01*
%TO.C,J1*%
X126515000Y-82687000D02*
X127895000Y-82687000D01*
X126515000Y-84067000D02*
X126515000Y-82687000D01*
X126515000Y-85337000D02*
X126515000Y-108307000D01*
X126515000Y-85337000D02*
X129275000Y-85337000D01*
X126515000Y-108307000D02*
X129275000Y-108307000D01*
X129275000Y-85337000D02*
X129275000Y-108307000D01*
%TO.C,J3*%
X151915000Y-82407000D02*
X151915000Y-82977000D01*
X151915000Y-82407000D02*
X154675000Y-82407000D01*
X151915000Y-82977000D02*
X150445000Y-82977000D01*
X151915000Y-84597000D02*
X151915000Y-88057000D01*
X151915000Y-89677000D02*
X151915000Y-93137000D01*
X151915000Y-94757000D02*
X151915000Y-98217000D01*
X151915000Y-99837000D02*
X151915000Y-103297000D01*
X151915000Y-104917000D02*
X151915000Y-108027000D01*
X151915000Y-108027000D02*
X154675000Y-108027000D01*
X154675000Y-82977000D02*
X154675000Y-85517000D01*
X154675000Y-87137000D02*
X154675000Y-90597000D01*
X154675000Y-92217000D02*
X154675000Y-95677000D01*
X154675000Y-97297000D02*
X154675000Y-100757000D01*
X154675000Y-102377000D02*
X154675000Y-105837000D01*
X154675000Y-107457000D02*
X154675000Y-108027000D01*
%TD*%
M02*
