%TF.GenerationSoftware,KiCad,Pcbnew,10.0.0*%
%TF.CreationDate,2026-09-13T13:48:08-06:00*%
%TF.ProjectId,Millburn_Test_Board,4d696c6c-6275-4726-9e5f-546573745f42,rev?*%
%TF.SameCoordinates,Original*%
%TF.FileFunction,Soldermask,Top*%
%TF.FilePolarity,Negative*%
%FSLAX46Y46*%
G04 Gerber Fmt 4.6, Leading zero omitted, Abs format (unit mm)*
G04 Created by KiCad (PCBNEW 10.0.0) date 2026-09-13 13:48:08*
%MOMM*%
%LPD*%
G01*
G04 APERTURE LIST*
%ADD10C,3.600000*%
%ADD11C,6.400000*%
%ADD12C,3.100000*%
%ADD13C,5.400000*%
%ADD14C,2.600000*%
%ADD15C,4.400000*%
%ADD16R,4.600000X2.000000*%
%ADD17O,4.200000X2.000000*%
%ADD18O,2.000000X4.200000*%
%ADD19C,3.900000*%
%ADD20C,7.000000*%
%ADD21R,1.700000X1.700000*%
%ADD22C,1.700000*%
%ADD23C,2.900000*%
%ADD24C,5.000000*%
%ADD25C,3.400000*%
%ADD26C,6.000000*%
%ADD27C,2.200000*%
%ADD28C,2.500000*%
%ADD29C,3.200000*%
%ADD30R,2.510000X1.000000*%
%ADD31C,3.500000*%
%ADD32C,3.000000*%
%ADD33C,2.700000*%
G04 APERTURE END LIST*
D10*
%TO.C,H11*%
X135000000Y-137000000D03*
D11*
X135000000Y-137000000D03*
%TD*%
D12*
%TO.C,H9*%
X139000000Y-130000000D03*
D13*
X139000000Y-130000000D03*
%TD*%
D14*
%TO.C,H7*%
X126000000Y-130000000D03*
D15*
X126000000Y-130000000D03*
%TD*%
D16*
%TO.C,J5*%
X152853000Y-111253000D03*
D17*
X152853000Y-117553000D03*
D18*
X157653000Y-114153000D03*
%TD*%
D19*
%TO.C,H12*%
X143000000Y-137000000D03*
D20*
X143000000Y-137000000D03*
%TD*%
D21*
%TO.C,J2*%
X144780000Y-106922000D03*
D22*
X144780000Y-104382000D03*
X144780000Y-101842000D03*
X144780000Y-99302000D03*
X144780000Y-96762000D03*
X144780000Y-94222000D03*
X144780000Y-91682000D03*
X144780000Y-89142000D03*
X144780000Y-86602000D03*
X144780000Y-84062000D03*
%TD*%
D23*
%TO.C,H8*%
X132000000Y-130000000D03*
D24*
X132000000Y-130000000D03*
%TD*%
D25*
%TO.C,H10*%
X127000000Y-137000000D03*
D26*
X127000000Y-137000000D03*
%TD*%
D27*
%TO.C,H1*%
X126000000Y-114000000D03*
%TD*%
D28*
%TO.C,H2*%
X132000000Y-114000000D03*
%TD*%
D29*
%TO.C,H5*%
X135000000Y-121000000D03*
%TD*%
D21*
%TO.C,J1*%
X127895000Y-84067000D03*
D22*
X127895000Y-86607000D03*
X127895000Y-89147000D03*
X127895000Y-91687000D03*
X127895000Y-94227000D03*
X127895000Y-96767000D03*
X127895000Y-99307000D03*
X127895000Y-101847000D03*
X127895000Y-104387000D03*
X127895000Y-106927000D03*
%TD*%
D30*
%TO.C,J3*%
X151640000Y-83787000D03*
X154950000Y-86327000D03*
X151640000Y-88867000D03*
X154950000Y-91407000D03*
X151640000Y-93947000D03*
X154950000Y-96487000D03*
X151640000Y-99027000D03*
X154950000Y-101567000D03*
X151640000Y-104107000D03*
X154950000Y-106647000D03*
%TD*%
D31*
%TO.C,H6*%
X143000000Y-121000000D03*
%TD*%
D32*
%TO.C,H4*%
X127000000Y-121000000D03*
%TD*%
D33*
%TO.C,H3*%
X139000000Y-114000000D03*
%TD*%
M02*
