%TF.GenerationSoftware,KiCad,Pcbnew,10.0.0*%
%TF.CreationDate,2026-09-13T13:48:08-06:00*%
%TF.ProjectId,Millburn_Test_Board,4d696c6c-6275-4726-9e5f-546573745f42,rev?*%
%TF.SameCoordinates,Original*%
%TF.FileFunction,Copper,L1,Top*%
%TF.FilePolarity,Positive*%
%FSLAX46Y46*%
G04 Gerber Fmt 4.6, Leading zero omitted, Abs format (unit mm)*
G04 Created by KiCad (PCBNEW 10.0.0) date 2026-09-13 13:48:08*
%MOMM*%
%LPD*%
G01*
G04 APERTURE LIST*
%TA.AperFunction,NonConductor*%
%ADD10C,0.500000*%
%TD*%
%TA.AperFunction,NonConductor*%
%ADD11C,0.800000*%
%TD*%
%TA.AperFunction,NonConductor*%
%ADD12C,1.000000*%
%TD*%
%ADD13C,0.300000*%
%TA.AperFunction,NonConductor*%
%ADD14C,0.300000*%
%TD*%
%ADD15C,0.500000*%
%TA.AperFunction,ComponentPad*%
%ADD16C,3.600000*%
%TD*%
%TA.AperFunction,ConnectorPad*%
%ADD17C,6.400000*%
%TD*%
%TA.AperFunction,ComponentPad*%
%ADD18C,3.100000*%
%TD*%
%TA.AperFunction,ConnectorPad*%
%ADD19C,5.400000*%
%TD*%
%TA.AperFunction,ComponentPad*%
%ADD20C,2.600000*%
%TD*%
%TA.AperFunction,ConnectorPad*%
%ADD21C,4.400000*%
%TD*%
%TA.AperFunction,ComponentPad*%
%ADD22R,4.600000X2.000000*%
%TD*%
%TA.AperFunction,ComponentPad*%
%ADD23O,4.200000X2.000000*%
%TD*%
%TA.AperFunction,ComponentPad*%
%ADD24O,2.000000X4.200000*%
%TD*%
%TA.AperFunction,ComponentPad*%
%ADD25C,3.900000*%
%TD*%
%TA.AperFunction,ConnectorPad*%
%ADD26C,7.000000*%
%TD*%
%TA.AperFunction,ComponentPad*%
%ADD27R,1.700000X1.700000*%
%TD*%
%TA.AperFunction,ComponentPad*%
%ADD28C,1.700000*%
%TD*%
%TA.AperFunction,ComponentPad*%
%ADD29C,2.900000*%
%TD*%
%TA.AperFunction,ConnectorPad*%
%ADD30C,5.000000*%
%TD*%
%TA.AperFunction,ComponentPad*%
%ADD31C,3.400000*%
%TD*%
%TA.AperFunction,ConnectorPad*%
%ADD32C,6.000000*%
%TD*%
%TA.AperFunction,SMDPad,CuDef*%
%ADD33R,2.510000X1.000000*%
%TD*%
%TA.AperFunction,ViaPad*%
%ADD34C,0.600000*%
%TD*%
%TA.AperFunction,ViaPad*%
%ADD35C,1.000000*%
%TD*%
%TA.AperFunction,Conductor*%
%ADD36C,0.500000*%
%TD*%
%TA.AperFunction,Conductor*%
%ADD37C,0.800000*%
%TD*%
%TA.AperFunction,Conductor*%
%ADD38C,1.000000*%
%TD*%
%TA.AperFunction,Conductor*%
%ADD39C,0.650000*%
%TD*%
G04 APERTURE END LIST*
D10*
X159000000Y-132750000D02*
G75*
G02*
X153000000Y-132750000I-3000000J0D01*
G01*
X153000000Y-132750000D02*
G75*
G02*
X159000000Y-132750000I3000000J0D01*
G01*
D11*
X167000000Y-132750000D02*
G75*
G02*
X161000000Y-132750000I-3000000J0D01*
G01*
X161000000Y-132750000D02*
G75*
G02*
X167000000Y-132750000I3000000J0D01*
G01*
D12*
X175000000Y-132750000D02*
G75*
G02*
X169000000Y-132750000I-3000000J0D01*
G01*
X169000000Y-132750000D02*
G75*
G02*
X175000000Y-132750000I3000000J0D01*
G01*
D13*
D14*
X157204510Y-140147971D02*
X157275939Y-140219400D01*
X157275939Y-140219400D02*
X157204510Y-140290828D01*
X157204510Y-140290828D02*
X157133082Y-140219400D01*
X157133082Y-140219400D02*
X157204510Y-140147971D01*
X157204510Y-140147971D02*
X157204510Y-140290828D01*
X158633082Y-138790828D02*
X157918796Y-138790828D01*
X157918796Y-138790828D02*
X157847368Y-139505114D01*
X157847368Y-139505114D02*
X157918796Y-139433685D01*
X157918796Y-139433685D02*
X158061654Y-139362257D01*
X158061654Y-139362257D02*
X158418796Y-139362257D01*
X158418796Y-139362257D02*
X158561654Y-139433685D01*
X158561654Y-139433685D02*
X158633082Y-139505114D01*
X158633082Y-139505114D02*
X158704511Y-139647971D01*
X158704511Y-139647971D02*
X158704511Y-140005114D01*
X158704511Y-140005114D02*
X158633082Y-140147971D01*
X158633082Y-140147971D02*
X158561654Y-140219400D01*
X158561654Y-140219400D02*
X158418796Y-140290828D01*
X158418796Y-140290828D02*
X158061654Y-140290828D01*
X158061654Y-140290828D02*
X157918796Y-140219400D01*
X157918796Y-140219400D02*
X157847368Y-140147971D01*
X162775938Y-140147971D02*
X162847367Y-140219400D01*
X162847367Y-140219400D02*
X162775938Y-140290828D01*
X162775938Y-140290828D02*
X162704510Y-140219400D01*
X162704510Y-140219400D02*
X162775938Y-140147971D01*
X162775938Y-140147971D02*
X162775938Y-140290828D01*
X163704510Y-139433685D02*
X163561653Y-139362257D01*
X163561653Y-139362257D02*
X163490224Y-139290828D01*
X163490224Y-139290828D02*
X163418796Y-139147971D01*
X163418796Y-139147971D02*
X163418796Y-139076542D01*
X163418796Y-139076542D02*
X163490224Y-138933685D01*
X163490224Y-138933685D02*
X163561653Y-138862257D01*
X163561653Y-138862257D02*
X163704510Y-138790828D01*
X163704510Y-138790828D02*
X163990224Y-138790828D01*
X163990224Y-138790828D02*
X164133082Y-138862257D01*
X164133082Y-138862257D02*
X164204510Y-138933685D01*
X164204510Y-138933685D02*
X164275939Y-139076542D01*
X164275939Y-139076542D02*
X164275939Y-139147971D01*
X164275939Y-139147971D02*
X164204510Y-139290828D01*
X164204510Y-139290828D02*
X164133082Y-139362257D01*
X164133082Y-139362257D02*
X163990224Y-139433685D01*
X163990224Y-139433685D02*
X163704510Y-139433685D01*
X163704510Y-139433685D02*
X163561653Y-139505114D01*
X163561653Y-139505114D02*
X163490224Y-139576542D01*
X163490224Y-139576542D02*
X163418796Y-139719400D01*
X163418796Y-139719400D02*
X163418796Y-140005114D01*
X163418796Y-140005114D02*
X163490224Y-140147971D01*
X163490224Y-140147971D02*
X163561653Y-140219400D01*
X163561653Y-140219400D02*
X163704510Y-140290828D01*
X163704510Y-140290828D02*
X163990224Y-140290828D01*
X163990224Y-140290828D02*
X164133082Y-140219400D01*
X164133082Y-140219400D02*
X164204510Y-140147971D01*
X164204510Y-140147971D02*
X164275939Y-140005114D01*
X164275939Y-140005114D02*
X164275939Y-139719400D01*
X164275939Y-139719400D02*
X164204510Y-139576542D01*
X164204510Y-139576542D02*
X164133082Y-139505114D01*
X164133082Y-139505114D02*
X163990224Y-139433685D01*
X169133081Y-140290828D02*
X168275938Y-140290828D01*
X168704509Y-140290828D02*
X168704509Y-138790828D01*
X168704509Y-138790828D02*
X168561652Y-139005114D01*
X168561652Y-139005114D02*
X168418795Y-139147971D01*
X168418795Y-139147971D02*
X168275938Y-139219400D01*
X169775937Y-140147971D02*
X169847366Y-140219400D01*
X169847366Y-140219400D02*
X169775937Y-140290828D01*
X169775937Y-140290828D02*
X169704509Y-140219400D01*
X169704509Y-140219400D02*
X169775937Y-140147971D01*
X169775937Y-140147971D02*
X169775937Y-140290828D01*
X170775938Y-138790828D02*
X170918795Y-138790828D01*
X170918795Y-138790828D02*
X171061652Y-138862257D01*
X171061652Y-138862257D02*
X171133081Y-138933685D01*
X171133081Y-138933685D02*
X171204509Y-139076542D01*
X171204509Y-139076542D02*
X171275938Y-139362257D01*
X171275938Y-139362257D02*
X171275938Y-139719400D01*
X171275938Y-139719400D02*
X171204509Y-140005114D01*
X171204509Y-140005114D02*
X171133081Y-140147971D01*
X171133081Y-140147971D02*
X171061652Y-140219400D01*
X171061652Y-140219400D02*
X170918795Y-140290828D01*
X170918795Y-140290828D02*
X170775938Y-140290828D01*
X170775938Y-140290828D02*
X170633081Y-140219400D01*
X170633081Y-140219400D02*
X170561652Y-140147971D01*
X170561652Y-140147971D02*
X170490223Y-140005114D01*
X170490223Y-140005114D02*
X170418795Y-139719400D01*
X170418795Y-139719400D02*
X170418795Y-139362257D01*
X170418795Y-139362257D02*
X170490223Y-139076542D01*
X170490223Y-139076542D02*
X170561652Y-138933685D01*
X170561652Y-138933685D02*
X170633081Y-138862257D01*
X170633081Y-138862257D02*
X170775938Y-138790828D01*
D13*
D14*
X174081171Y-123094225D02*
X174081171Y-123237082D01*
X174081171Y-123237082D02*
X174009742Y-123379939D01*
X174009742Y-123379939D02*
X173938314Y-123451368D01*
X173938314Y-123451368D02*
X173795457Y-123522796D01*
X173795457Y-123522796D02*
X173509742Y-123594225D01*
X173509742Y-123594225D02*
X173152600Y-123594225D01*
X173152600Y-123594225D02*
X172866885Y-123522796D01*
X172866885Y-123522796D02*
X172724028Y-123451368D01*
X172724028Y-123451368D02*
X172652600Y-123379939D01*
X172652600Y-123379939D02*
X172581171Y-123237082D01*
X172581171Y-123237082D02*
X172581171Y-123094225D01*
X172581171Y-123094225D02*
X172652600Y-122951368D01*
X172652600Y-122951368D02*
X172724028Y-122879939D01*
X172724028Y-122879939D02*
X172866885Y-122808510D01*
X172866885Y-122808510D02*
X173152600Y-122737082D01*
X173152600Y-122737082D02*
X173509742Y-122737082D01*
X173509742Y-122737082D02*
X173795457Y-122808510D01*
X173795457Y-122808510D02*
X173938314Y-122879939D01*
X173938314Y-122879939D02*
X174009742Y-122951368D01*
X174009742Y-122951368D02*
X174081171Y-123094225D01*
X172724028Y-124237081D02*
X172652600Y-124308510D01*
X172652600Y-124308510D02*
X172581171Y-124237081D01*
X172581171Y-124237081D02*
X172652600Y-124165653D01*
X172652600Y-124165653D02*
X172724028Y-124237081D01*
X172724028Y-124237081D02*
X172581171Y-124237081D01*
X174081171Y-125665653D02*
X174081171Y-124951367D01*
X174081171Y-124951367D02*
X173366885Y-124879939D01*
X173366885Y-124879939D02*
X173438314Y-124951367D01*
X173438314Y-124951367D02*
X173509742Y-125094225D01*
X173509742Y-125094225D02*
X173509742Y-125451367D01*
X173509742Y-125451367D02*
X173438314Y-125594225D01*
X173438314Y-125594225D02*
X173366885Y-125665653D01*
X173366885Y-125665653D02*
X173224028Y-125737082D01*
X173224028Y-125737082D02*
X172866885Y-125737082D01*
X172866885Y-125737082D02*
X172724028Y-125665653D01*
X172724028Y-125665653D02*
X172652600Y-125594225D01*
X172652600Y-125594225D02*
X172581171Y-125451367D01*
X172581171Y-125451367D02*
X172581171Y-125094225D01*
X172581171Y-125094225D02*
X172652600Y-124951367D01*
X172652600Y-124951367D02*
X172724028Y-124879939D01*
D13*
D14*
X172974028Y-110308510D02*
X172902600Y-110379939D01*
X172902600Y-110379939D02*
X172831171Y-110308510D01*
X172831171Y-110308510D02*
X172902600Y-110237082D01*
X172902600Y-110237082D02*
X172974028Y-110308510D01*
X172974028Y-110308510D02*
X172831171Y-110308510D01*
X174331171Y-111737082D02*
X174331171Y-111022796D01*
X174331171Y-111022796D02*
X173616885Y-110951368D01*
X173616885Y-110951368D02*
X173688314Y-111022796D01*
X173688314Y-111022796D02*
X173759742Y-111165654D01*
X173759742Y-111165654D02*
X173759742Y-111522796D01*
X173759742Y-111522796D02*
X173688314Y-111665654D01*
X173688314Y-111665654D02*
X173616885Y-111737082D01*
X173616885Y-111737082D02*
X173474028Y-111808511D01*
X173474028Y-111808511D02*
X173116885Y-111808511D01*
X173116885Y-111808511D02*
X172974028Y-111737082D01*
X172974028Y-111737082D02*
X172902600Y-111665654D01*
X172902600Y-111665654D02*
X172831171Y-111522796D01*
X172831171Y-111522796D02*
X172831171Y-111165654D01*
X172831171Y-111165654D02*
X172902600Y-111022796D01*
X172902600Y-111022796D02*
X172974028Y-110951368D01*
X172974028Y-113594224D02*
X172902600Y-113665653D01*
X172902600Y-113665653D02*
X172831171Y-113594224D01*
X172831171Y-113594224D02*
X172902600Y-113522796D01*
X172902600Y-113522796D02*
X172974028Y-113594224D01*
X172974028Y-113594224D02*
X172831171Y-113594224D01*
X173688314Y-114522796D02*
X173759742Y-114379939D01*
X173759742Y-114379939D02*
X173831171Y-114308510D01*
X173831171Y-114308510D02*
X173974028Y-114237082D01*
X173974028Y-114237082D02*
X174045457Y-114237082D01*
X174045457Y-114237082D02*
X174188314Y-114308510D01*
X174188314Y-114308510D02*
X174259742Y-114379939D01*
X174259742Y-114379939D02*
X174331171Y-114522796D01*
X174331171Y-114522796D02*
X174331171Y-114808510D01*
X174331171Y-114808510D02*
X174259742Y-114951368D01*
X174259742Y-114951368D02*
X174188314Y-115022796D01*
X174188314Y-115022796D02*
X174045457Y-115094225D01*
X174045457Y-115094225D02*
X173974028Y-115094225D01*
X173974028Y-115094225D02*
X173831171Y-115022796D01*
X173831171Y-115022796D02*
X173759742Y-114951368D01*
X173759742Y-114951368D02*
X173688314Y-114808510D01*
X173688314Y-114808510D02*
X173688314Y-114522796D01*
X173688314Y-114522796D02*
X173616885Y-114379939D01*
X173616885Y-114379939D02*
X173545457Y-114308510D01*
X173545457Y-114308510D02*
X173402600Y-114237082D01*
X173402600Y-114237082D02*
X173116885Y-114237082D01*
X173116885Y-114237082D02*
X172974028Y-114308510D01*
X172974028Y-114308510D02*
X172902600Y-114379939D01*
X172902600Y-114379939D02*
X172831171Y-114522796D01*
X172831171Y-114522796D02*
X172831171Y-114808510D01*
X172831171Y-114808510D02*
X172902600Y-114951368D01*
X172902600Y-114951368D02*
X172974028Y-115022796D01*
X172974028Y-115022796D02*
X173116885Y-115094225D01*
X173116885Y-115094225D02*
X173402600Y-115094225D01*
X173402600Y-115094225D02*
X173545457Y-115022796D01*
X173545457Y-115022796D02*
X173616885Y-114951368D01*
X173616885Y-114951368D02*
X173688314Y-114808510D01*
X172831171Y-117665653D02*
X172831171Y-116808510D01*
X172831171Y-117237081D02*
X174331171Y-117237081D01*
X174331171Y-117237081D02*
X174116885Y-117094224D01*
X174116885Y-117094224D02*
X173974028Y-116951367D01*
X173974028Y-116951367D02*
X173902600Y-116808510D01*
X172974028Y-118308509D02*
X172902600Y-118379938D01*
X172902600Y-118379938D02*
X172831171Y-118308509D01*
X172831171Y-118308509D02*
X172902600Y-118237081D01*
X172902600Y-118237081D02*
X172974028Y-118308509D01*
X172974028Y-118308509D02*
X172831171Y-118308509D01*
X174331171Y-119308510D02*
X174331171Y-119451367D01*
X174331171Y-119451367D02*
X174259742Y-119594224D01*
X174259742Y-119594224D02*
X174188314Y-119665653D01*
X174188314Y-119665653D02*
X174045457Y-119737081D01*
X174045457Y-119737081D02*
X173759742Y-119808510D01*
X173759742Y-119808510D02*
X173402600Y-119808510D01*
X173402600Y-119808510D02*
X173116885Y-119737081D01*
X173116885Y-119737081D02*
X172974028Y-119665653D01*
X172974028Y-119665653D02*
X172902600Y-119594224D01*
X172902600Y-119594224D02*
X172831171Y-119451367D01*
X172831171Y-119451367D02*
X172831171Y-119308510D01*
X172831171Y-119308510D02*
X172902600Y-119165653D01*
X172902600Y-119165653D02*
X172974028Y-119094224D01*
X172974028Y-119094224D02*
X173116885Y-119022795D01*
X173116885Y-119022795D02*
X173402600Y-118951367D01*
X173402600Y-118951367D02*
X173759742Y-118951367D01*
X173759742Y-118951367D02*
X174045457Y-119022795D01*
X174045457Y-119022795D02*
X174188314Y-119094224D01*
X174188314Y-119094224D02*
X174259742Y-119165653D01*
X174259742Y-119165653D02*
X174331171Y-119308510D01*
D15*
D10*
X178069238Y-122670576D02*
X180069238Y-122003910D01*
X180069238Y-122003910D02*
X178069238Y-121337243D01*
X180069238Y-118099147D02*
X180069238Y-119242004D01*
X180069238Y-118670576D02*
X178069238Y-118670576D01*
X178069238Y-118670576D02*
X178354952Y-118861052D01*
X178354952Y-118861052D02*
X178545428Y-119051528D01*
X178545428Y-119051528D02*
X178640666Y-119242004D01*
X179878761Y-117242004D02*
X179974000Y-117146766D01*
X179974000Y-117146766D02*
X180069238Y-117242004D01*
X180069238Y-117242004D02*
X179974000Y-117337242D01*
X179974000Y-117337242D02*
X179878761Y-117242004D01*
X179878761Y-117242004D02*
X180069238Y-117242004D01*
X178069238Y-115908671D02*
X178069238Y-115718194D01*
X178069238Y-115718194D02*
X178164476Y-115527718D01*
X178164476Y-115527718D02*
X178259714Y-115432480D01*
X178259714Y-115432480D02*
X178450190Y-115337242D01*
X178450190Y-115337242D02*
X178831142Y-115242004D01*
X178831142Y-115242004D02*
X179307333Y-115242004D01*
X179307333Y-115242004D02*
X179688285Y-115337242D01*
X179688285Y-115337242D02*
X179878761Y-115432480D01*
X179878761Y-115432480D02*
X179974000Y-115527718D01*
X179974000Y-115527718D02*
X180069238Y-115718194D01*
X180069238Y-115718194D02*
X180069238Y-115908671D01*
X180069238Y-115908671D02*
X179974000Y-116099147D01*
X179974000Y-116099147D02*
X179878761Y-116194385D01*
X179878761Y-116194385D02*
X179688285Y-116289623D01*
X179688285Y-116289623D02*
X179307333Y-116384861D01*
X179307333Y-116384861D02*
X178831142Y-116384861D01*
X178831142Y-116384861D02*
X178450190Y-116289623D01*
X178450190Y-116289623D02*
X178259714Y-116194385D01*
X178259714Y-116194385D02*
X178164476Y-116099147D01*
X178164476Y-116099147D02*
X178069238Y-115908671D01*
D15*
D10*
X180069238Y-136354862D02*
X178069238Y-136354862D01*
X178069238Y-136354862D02*
X179497809Y-135688195D01*
X179497809Y-135688195D02*
X178069238Y-135021529D01*
X178069238Y-135021529D02*
X180069238Y-135021529D01*
X180069238Y-134069148D02*
X178735904Y-134069148D01*
X178069238Y-134069148D02*
X178164476Y-134164386D01*
X178164476Y-134164386D02*
X178259714Y-134069148D01*
X178259714Y-134069148D02*
X178164476Y-133973910D01*
X178164476Y-133973910D02*
X178069238Y-134069148D01*
X178069238Y-134069148D02*
X178259714Y-134069148D01*
X180069238Y-132831053D02*
X179974000Y-133021529D01*
X179974000Y-133021529D02*
X179783523Y-133116767D01*
X179783523Y-133116767D02*
X178069238Y-133116767D01*
X180069238Y-131783434D02*
X179974000Y-131973910D01*
X179974000Y-131973910D02*
X179783523Y-132069148D01*
X179783523Y-132069148D02*
X178069238Y-132069148D01*
X179021619Y-130354862D02*
X179116857Y-130069148D01*
X179116857Y-130069148D02*
X179212095Y-129973910D01*
X179212095Y-129973910D02*
X179402571Y-129878672D01*
X179402571Y-129878672D02*
X179688285Y-129878672D01*
X179688285Y-129878672D02*
X179878761Y-129973910D01*
X179878761Y-129973910D02*
X179974000Y-130069148D01*
X179974000Y-130069148D02*
X180069238Y-130259624D01*
X180069238Y-130259624D02*
X180069238Y-131021529D01*
X180069238Y-131021529D02*
X178069238Y-131021529D01*
X178069238Y-131021529D02*
X178069238Y-130354862D01*
X178069238Y-130354862D02*
X178164476Y-130164386D01*
X178164476Y-130164386D02*
X178259714Y-130069148D01*
X178259714Y-130069148D02*
X178450190Y-129973910D01*
X178450190Y-129973910D02*
X178640666Y-129973910D01*
X178640666Y-129973910D02*
X178831142Y-130069148D01*
X178831142Y-130069148D02*
X178926380Y-130164386D01*
X178926380Y-130164386D02*
X179021619Y-130354862D01*
X179021619Y-130354862D02*
X179021619Y-131021529D01*
X178735904Y-128164386D02*
X180069238Y-128164386D01*
X178735904Y-129021529D02*
X179783523Y-129021529D01*
X179783523Y-129021529D02*
X179974000Y-128926291D01*
X179974000Y-128926291D02*
X180069238Y-128735815D01*
X180069238Y-128735815D02*
X180069238Y-128450100D01*
X180069238Y-128450100D02*
X179974000Y-128259624D01*
X179974000Y-128259624D02*
X179878761Y-128164386D01*
X180069238Y-127212005D02*
X178735904Y-127212005D01*
X179116857Y-127212005D02*
X178926380Y-127116767D01*
X178926380Y-127116767D02*
X178831142Y-127021529D01*
X178831142Y-127021529D02*
X178735904Y-126831053D01*
X178735904Y-126831053D02*
X178735904Y-126640576D01*
X178735904Y-125973910D02*
X180069238Y-125973910D01*
X178926380Y-125973910D02*
X178831142Y-125878672D01*
X178831142Y-125878672D02*
X178735904Y-125688196D01*
X178735904Y-125688196D02*
X178735904Y-125402481D01*
X178735904Y-125402481D02*
X178831142Y-125212005D01*
X178831142Y-125212005D02*
X179021619Y-125116767D01*
X179021619Y-125116767D02*
X180069238Y-125116767D01*
D16*
%TO.P,H11,1*%
%TO.N,N/C*%
X135000000Y-137000000D03*
D17*
X135000000Y-137000000D03*
%TD*%
D18*
%TO.P,H9,1*%
%TO.N,N/C*%
X139000000Y-130000000D03*
D19*
X139000000Y-130000000D03*
%TD*%
D20*
%TO.P,H7,1*%
%TO.N,N/C*%
X126000000Y-130000000D03*
D21*
X126000000Y-130000000D03*
%TD*%
D22*
%TO.P,J5,1*%
%TO.N,unconnected-(J5-Pad1)*%
X152853000Y-111253000D03*
D23*
%TO.P,J5,2*%
%TO.N,unconnected-(J5-Pad2)*%
X152853000Y-117553000D03*
D24*
%TO.P,J5,3*%
%TO.N,N/C*%
X157653000Y-114153000D03*
%TD*%
D25*
%TO.P,H12,1*%
%TO.N,N/C*%
X143000000Y-137000000D03*
D26*
X143000000Y-137000000D03*
%TD*%
D27*
%TO.P,J2,1,Pin_1_1*%
%TO.N,Net-(J1-Pin_10)*%
X144780000Y-106922000D03*
D28*
%TO.P,J2,2,Pin_2_2*%
%TO.N,Net-(J1-Pin_9)*%
X144780000Y-104382000D03*
%TO.P,J2,3,Pin_3_3*%
%TO.N,Net-(J1-Pin_8)*%
X144780000Y-101842000D03*
%TO.P,J2,4,Pin_4_4*%
%TO.N,Net-(J1-Pin_7)*%
X144780000Y-99302000D03*
%TO.P,J2,5,Pin_5_5*%
%TO.N,Net-(J1-Pin_6)*%
X144780000Y-96762000D03*
%TO.P,J2,6,Pin_6_6*%
%TO.N,Net-(J1-Pin_5)*%
X144780000Y-94222000D03*
%TO.P,J2,7,Pin_7_7*%
%TO.N,Net-(J1-Pin_4)*%
X144780000Y-91682000D03*
%TO.P,J2,8,Pin_8_8*%
%TO.N,Net-(J1-Pin_3)*%
X144780000Y-89142000D03*
%TO.P,J2,9,Pin_9_9*%
%TO.N,Net-(J1-Pin_2)*%
X144780000Y-86602000D03*
%TO.P,J2,10,Pin_10_10*%
%TO.N,Net-(J1-Pin_1)*%
X144780000Y-84062000D03*
%TD*%
D29*
%TO.P,H8,1*%
%TO.N,N/C*%
X132000000Y-130000000D03*
D30*
X132000000Y-130000000D03*
%TD*%
D31*
%TO.P,H10,1*%
%TO.N,N/C*%
X127000000Y-137000000D03*
D32*
X127000000Y-137000000D03*
%TD*%
D27*
%TO.P,J1,1,Pin_1_1*%
%TO.N,Net-(J1-Pin_1)*%
X127895000Y-84067000D03*
D28*
%TO.P,J1,2,Pin_2_2*%
%TO.N,Net-(J1-Pin_2)*%
X127895000Y-86607000D03*
%TO.P,J1,3,Pin_3_3*%
%TO.N,Net-(J1-Pin_3)*%
X127895000Y-89147000D03*
%TO.P,J1,4,Pin_4_4*%
%TO.N,Net-(J1-Pin_4)*%
X127895000Y-91687000D03*
%TO.P,J1,5,Pin_5_5*%
%TO.N,Net-(J1-Pin_5)*%
X127895000Y-94227000D03*
%TO.P,J1,6,Pin_6_6*%
%TO.N,Net-(J1-Pin_6)*%
X127895000Y-96767000D03*
%TO.P,J1,7,Pin_7_7*%
%TO.N,Net-(J1-Pin_7)*%
X127895000Y-99307000D03*
%TO.P,J1,8,Pin_8_8*%
%TO.N,Net-(J1-Pin_8)*%
X127895000Y-101847000D03*
%TO.P,J1,9,Pin_9_9*%
%TO.N,Net-(J1-Pin_9)*%
X127895000Y-104387000D03*
%TO.P,J1,10,Pin_10_10*%
%TO.N,Net-(J1-Pin_10)*%
X127895000Y-106927000D03*
%TD*%
D33*
%TO.P,J3,1,Pin_1_1*%
%TO.N,Net-(J3-Pin_1)*%
X151640000Y-83787000D03*
%TO.P,J3,2,Pin_2_2*%
%TO.N,Net-(J3-Pin_2)*%
X154950000Y-86327000D03*
%TO.P,J3,3,Pin_3_3*%
%TO.N,Net-(J3-Pin_3)*%
X151640000Y-88867000D03*
%TO.P,J3,4,Pin_4_4*%
%TO.N,Net-(J3-Pin_4)*%
X154950000Y-91407000D03*
%TO.P,J3,5,Pin_5_5*%
%TO.N,Net-(J3-Pin_5)*%
X151640000Y-93947000D03*
%TO.P,J3,6,Pin_6_6*%
%TO.N,Net-(J3-Pin_6)*%
X154950000Y-96487000D03*
%TO.P,J3,7,Pin_7_7*%
%TO.N,Net-(J3-Pin_7)*%
X151640000Y-99027000D03*
%TO.P,J3,8,Pin_8_8*%
%TO.N,Net-(J3-Pin_8)*%
X154950000Y-101567000D03*
%TO.P,J3,9,Pin_9_9*%
%TO.N,Net-(J3-Pin_9)*%
X151640000Y-104107000D03*
%TO.P,J3,10,Pin_10_10*%
%TO.N,Net-(J3-Pin_10)*%
X154950000Y-106647000D03*
%TD*%
D34*
%TO.N,Net-(J3-Pin_10)*%
X160000000Y-106600000D03*
%TO.N,Net-(J3-Pin_9)*%
X160000000Y-104100000D03*
D35*
%TO.N,Net-(J3-Pin_8)*%
X159900000Y-101600000D03*
%TO.N,Net-(J3-Pin_7)*%
X159800000Y-99000000D03*
%TO.N,Net-(J3-Pin_6)*%
X159900000Y-96500000D03*
%TO.N,Net-(J3-Pin_5)*%
X159800000Y-93900000D03*
D34*
%TO.N,Net-(J3-Pin_4)*%
X159900000Y-91400000D03*
%TO.N,Net-(J3-Pin_3)*%
X159900000Y-88900000D03*
%TO.N,Net-(J3-Pin_2)*%
X159900000Y-86300000D03*
%TO.N,Net-(J3-Pin_1)*%
X159900000Y-83800000D03*
%TD*%
%TO.N,*%
D36*
X161032000Y-111689000D02*
X171192000Y-111689000D01*
D37*
X161032000Y-115499000D02*
X171192000Y-115499000D01*
D36*
X161132000Y-126254000D02*
X171132000Y-126254000D01*
X161132000Y-122254000D02*
X171132000Y-122254000D01*
X161132000Y-124254000D02*
X171132000Y-124254000D01*
X161132000Y-123254000D02*
X171132000Y-123254000D01*
D37*
X161032000Y-117404000D02*
X171192000Y-117404000D01*
X161032000Y-113594000D02*
X171192000Y-113594000D01*
D36*
X161032000Y-110419000D02*
X171192000Y-110419000D01*
X161132000Y-121254000D02*
X171132000Y-121254000D01*
X161132000Y-125254000D02*
X171132000Y-125254000D01*
D37*
X161032000Y-119309000D02*
X171192000Y-119309000D01*
%TO.N,Net-(J1-Pin_10)*%
D36*
X127900000Y-106922000D02*
X127895000Y-106927000D01*
X144780000Y-106922000D02*
X127900000Y-106922000D01*
%TO.N,Net-(J1-Pin_9)*%
X144775000Y-104387000D02*
X144780000Y-104382000D01*
X127895000Y-104387000D02*
X144775000Y-104387000D01*
%TO.N,Net-(J1-Pin_8)*%
D38*
X127900000Y-101842000D02*
X127895000Y-101847000D01*
X144780000Y-101842000D02*
X127900000Y-101842000D01*
%TO.N,Net-(J1-Pin_7)*%
X144775000Y-99307000D02*
X144780000Y-99302000D01*
X127895000Y-99307000D02*
X144775000Y-99307000D01*
%TO.N,Net-(J1-Pin_6)*%
D37*
X144780000Y-96762000D02*
X127900000Y-96762000D01*
X127900000Y-96762000D02*
X127895000Y-96767000D01*
%TO.N,Net-(J1-Pin_5)*%
X127895000Y-94227000D02*
X144775000Y-94227000D01*
X144775000Y-94227000D02*
X144780000Y-94222000D01*
%TO.N,Net-(J1-Pin_4)*%
D39*
X144780000Y-91682000D02*
X127900000Y-91682000D01*
X127900000Y-91682000D02*
X127895000Y-91687000D01*
%TO.N,Net-(J1-Pin_3)*%
X144775000Y-89147000D02*
X144780000Y-89142000D01*
X127895000Y-89147000D02*
X144775000Y-89147000D01*
%TO.N,Net-(J1-Pin_2)*%
D36*
X127900000Y-86402000D02*
X127895000Y-86407000D01*
X144780000Y-86402000D02*
X127900000Y-86402000D01*
%TO.N,Net-(J1-Pin_1)*%
X144775000Y-83867000D02*
X144780000Y-83862000D01*
X127895000Y-83867000D02*
X144775000Y-83867000D01*
%TO.N,Net-(J3-Pin_10)*%
X154950000Y-106647000D02*
X159953000Y-106647000D01*
X159953000Y-106647000D02*
X160000000Y-106600000D01*
%TO.N,Net-(J3-Pin_9)*%
X159993000Y-104107000D02*
X160000000Y-104100000D01*
X151655000Y-104107000D02*
X159993000Y-104107000D01*
%TO.N,Net-(J3-Pin_8)*%
D38*
X159867000Y-101567000D02*
X159900000Y-101600000D01*
X154950000Y-101567000D02*
X159867000Y-101567000D01*
%TO.N,Net-(J3-Pin_7)*%
X159773000Y-99027000D02*
X159800000Y-99000000D01*
X151655000Y-99027000D02*
X159773000Y-99027000D01*
%TO.N,Net-(J3-Pin_6)*%
D37*
X154950000Y-96487000D02*
X159887000Y-96487000D01*
X159887000Y-96487000D02*
X159900000Y-96500000D01*
%TO.N,Net-(J3-Pin_5)*%
X151655000Y-93947000D02*
X159753000Y-93947000D01*
X159753000Y-93947000D02*
X159800000Y-93900000D01*
%TO.N,Net-(J3-Pin_4)*%
D39*
X154950000Y-91407000D02*
X159893000Y-91407000D01*
X159893000Y-91407000D02*
X159900000Y-91400000D01*
%TO.N,Net-(J3-Pin_3)*%
X151655000Y-88867000D02*
X159867000Y-88867000D01*
X159867000Y-88867000D02*
X159900000Y-88900000D01*
%TO.N,Net-(J3-Pin_2)*%
D36*
X154950000Y-86327000D02*
X159873000Y-86327000D01*
X159873000Y-86327000D02*
X159900000Y-86300000D01*
%TO.N,Net-(J3-Pin_1)*%
X159887000Y-83787000D02*
X159900000Y-83800000D01*
X151655000Y-83787000D02*
X159887000Y-83787000D01*
%TD*%
%TA.AperFunction,NonConductor*%
G36*
X177000000Y-138250000D02*
G01*
X171934142Y-138250000D01*
X171934142Y-138132484D01*
X156477582Y-138132484D01*
X156477582Y-138132485D01*
X156477582Y-138250000D01*
X150500000Y-138250000D01*
X150500000Y-132565749D01*
X152249500Y-132565749D01*
X152249500Y-132934250D01*
X152272982Y-133172675D01*
X152285619Y-133300976D01*
X152300733Y-133376957D01*
X152357511Y-133662403D01*
X152464475Y-134015015D01*
X152464483Y-134015036D01*
X152605497Y-134355476D01*
X152605503Y-134355487D01*
X152779204Y-134680461D01*
X152779210Y-134680470D01*
X152915432Y-134884340D01*
X152983937Y-134986865D01*
X153217711Y-135271719D01*
X153478281Y-135532289D01*
X153763135Y-135766063D01*
X153943665Y-135886689D01*
X154069529Y-135970789D01*
X154069538Y-135970795D01*
X154310523Y-136099603D01*
X154394521Y-136144501D01*
X154734971Y-136285520D01*
X154734983Y-136285523D01*
X154734984Y-136285524D01*
X155087596Y-136392488D01*
X155087600Y-136392488D01*
X155087604Y-136392490D01*
X155449024Y-136464381D01*
X155815750Y-136500500D01*
X155815753Y-136500500D01*
X156184247Y-136500500D01*
X156184250Y-136500500D01*
X156550976Y-136464381D01*
X156912396Y-136392490D01*
X156983988Y-136370773D01*
X157029940Y-136356833D01*
X157265029Y-136285520D01*
X157605479Y-136144501D01*
X157930468Y-135970791D01*
X158236865Y-135766063D01*
X158521719Y-135532289D01*
X158782289Y-135271719D01*
X159016063Y-134986865D01*
X159220791Y-134680468D01*
X159394501Y-134355479D01*
X159535520Y-134015029D01*
X159642490Y-133662396D01*
X159679316Y-133477258D01*
X159716493Y-133387504D01*
X159785192Y-133318805D01*
X159874951Y-133281625D01*
X159972106Y-133281624D01*
X160061866Y-133318803D01*
X160130565Y-133387502D01*
X160167745Y-133477261D01*
X160167745Y-133477262D01*
X160211829Y-133698888D01*
X160323073Y-134065610D01*
X160323081Y-134065631D01*
X160469735Y-134419688D01*
X160469737Y-134419691D01*
X160650390Y-134757668D01*
X160650396Y-134757678D01*
X160684795Y-134809159D01*
X160863311Y-135076327D01*
X161106435Y-135372575D01*
X161377425Y-135643565D01*
X161673673Y-135886689D01*
X161988079Y-136096768D01*
X161992321Y-136099603D01*
X161992331Y-136099609D01*
X162330308Y-136280262D01*
X162330311Y-136280264D01*
X162493352Y-136347797D01*
X162684376Y-136426922D01*
X163051113Y-136538170D01*
X163426988Y-136612936D01*
X163808381Y-136650500D01*
X163808384Y-136650500D01*
X164191616Y-136650500D01*
X164191619Y-136650500D01*
X164573012Y-136612936D01*
X164948887Y-136538170D01*
X165315624Y-136426922D01*
X165656989Y-136285524D01*
X165669688Y-136280264D01*
X165669690Y-136280263D01*
X166007676Y-136099605D01*
X166326327Y-135886689D01*
X166622575Y-135643565D01*
X166893565Y-135372575D01*
X167136689Y-135076327D01*
X167349605Y-134757676D01*
X167530263Y-134419690D01*
X167676922Y-134065624D01*
X167709472Y-133958322D01*
X167755270Y-133872639D01*
X167830372Y-133811004D01*
X167923343Y-133782801D01*
X168020030Y-133792324D01*
X168105713Y-133838122D01*
X168167348Y-133913224D01*
X168186028Y-133958321D01*
X168228805Y-134099339D01*
X168228813Y-134099360D01*
X168379226Y-134462491D01*
X168379228Y-134462495D01*
X168379229Y-134462497D01*
X168542264Y-134767515D01*
X168564521Y-134809154D01*
X168688489Y-134994684D01*
X168782893Y-135135969D01*
X169032250Y-135439812D01*
X169310188Y-135717750D01*
X169614031Y-135967107D01*
X169940851Y-136185482D01*
X170287503Y-136370771D01*
X170650647Y-136521190D01*
X170650659Y-136521193D01*
X170650660Y-136521194D01*
X171026777Y-136635288D01*
X171026781Y-136635288D01*
X171026785Y-136635290D01*
X171412297Y-136711973D01*
X171803468Y-136750500D01*
X171803471Y-136750500D01*
X172196529Y-136750500D01*
X172196532Y-136750500D01*
X172587703Y-136711973D01*
X172973215Y-136635290D01*
X173046907Y-136612936D01*
X173293387Y-136538167D01*
X173349353Y-136521190D01*
X173712497Y-136370771D01*
X174059149Y-136185482D01*
X174385969Y-135967107D01*
X174689812Y-135717750D01*
X174967750Y-135439812D01*
X175217107Y-135135969D01*
X175435482Y-134809149D01*
X175620771Y-134462497D01*
X175771190Y-134099353D01*
X175874416Y-133759062D01*
X175885288Y-133723222D01*
X175885288Y-133723220D01*
X175885290Y-133723215D01*
X175961973Y-133337703D01*
X176000500Y-132946532D01*
X176000500Y-132553468D01*
X175961973Y-132162297D01*
X175885290Y-131776785D01*
X175878703Y-131755072D01*
X175771194Y-131400660D01*
X175771192Y-131400655D01*
X175771190Y-131400647D01*
X175620771Y-131037503D01*
X175435482Y-130690851D01*
X175217107Y-130364031D01*
X174967750Y-130060188D01*
X174689812Y-129782250D01*
X174385969Y-129532893D01*
X174380456Y-129529209D01*
X174059154Y-129314521D01*
X174059151Y-129314519D01*
X174059149Y-129314518D01*
X173712497Y-129129229D01*
X173712495Y-129129228D01*
X173712491Y-129129226D01*
X173349360Y-128978813D01*
X173349353Y-128978810D01*
X173349348Y-128978808D01*
X173349339Y-128978805D01*
X172973222Y-128864711D01*
X172715012Y-128813350D01*
X172587703Y-128788027D01*
X172587701Y-128788026D01*
X172587697Y-128788026D01*
X172196532Y-128749500D01*
X171803468Y-128749500D01*
X171803467Y-128749500D01*
X171412302Y-128788026D01*
X171026777Y-128864711D01*
X170650660Y-128978805D01*
X170650639Y-128978813D01*
X170287508Y-129129226D01*
X169940845Y-129314521D01*
X169614043Y-129532884D01*
X169614032Y-129532892D01*
X169310191Y-129782247D01*
X169032247Y-130060191D01*
X168782892Y-130364032D01*
X168782884Y-130364043D01*
X168564521Y-130690845D01*
X168379226Y-131037508D01*
X168228813Y-131400639D01*
X168228807Y-131400655D01*
X168186028Y-131541679D01*
X168140229Y-131627361D01*
X168065127Y-131688996D01*
X167972156Y-131717198D01*
X167875468Y-131707675D01*
X167789786Y-131661876D01*
X167728151Y-131586774D01*
X167709472Y-131541678D01*
X167676926Y-131434389D01*
X167676925Y-131434388D01*
X167676922Y-131434376D01*
X167556860Y-131144521D01*
X167530264Y-131080311D01*
X167530262Y-131080308D01*
X167349609Y-130742331D01*
X167349603Y-130742321D01*
X167338858Y-130726240D01*
X167136689Y-130423673D01*
X166893565Y-130127425D01*
X166622575Y-129856435D01*
X166326327Y-129613311D01*
X166200452Y-129529204D01*
X166007678Y-129400396D01*
X166007668Y-129400390D01*
X165669691Y-129219737D01*
X165669688Y-129219735D01*
X165315631Y-129073081D01*
X165315624Y-129073078D01*
X165315619Y-129073076D01*
X165315610Y-129073073D01*
X164948896Y-128961832D01*
X164948889Y-128961830D01*
X164948887Y-128961830D01*
X164573012Y-128887064D01*
X164573010Y-128887063D01*
X164573006Y-128887063D01*
X164191619Y-128849500D01*
X163808381Y-128849500D01*
X163808380Y-128849500D01*
X163426993Y-128887063D01*
X163051103Y-128961832D01*
X162684389Y-129073073D01*
X162684368Y-129073081D01*
X162330311Y-129219735D01*
X162330308Y-129219737D01*
X161992331Y-129400390D01*
X161992321Y-129400396D01*
X161673675Y-129613309D01*
X161377428Y-129856432D01*
X161106432Y-130127428D01*
X160863309Y-130423675D01*
X160650396Y-130742321D01*
X160650390Y-130742331D01*
X160469737Y-131080308D01*
X160469735Y-131080311D01*
X160323081Y-131434368D01*
X160323073Y-131434389D01*
X160211829Y-131801111D01*
X160167745Y-132022737D01*
X160130565Y-132112497D01*
X160061866Y-132181195D01*
X159972106Y-132218375D01*
X159874952Y-132218374D01*
X159785192Y-132181194D01*
X159716494Y-132112495D01*
X159679316Y-132022741D01*
X159642490Y-131837604D01*
X159637579Y-131821415D01*
X159535524Y-131484984D01*
X159535523Y-131484983D01*
X159535520Y-131484971D01*
X159394501Y-131144521D01*
X159343337Y-131048799D01*
X159220795Y-130819538D01*
X159220789Y-130819529D01*
X159134802Y-130690841D01*
X159016063Y-130513135D01*
X158782289Y-130228281D01*
X158521719Y-129967711D01*
X158236865Y-129733937D01*
X158232784Y-129731210D01*
X157930470Y-129529210D01*
X157930461Y-129529204D01*
X157605487Y-129355503D01*
X157605476Y-129355497D01*
X157304921Y-129231003D01*
X157265029Y-129214480D01*
X157265024Y-129214478D01*
X157265015Y-129214475D01*
X156912403Y-129107511D01*
X156670329Y-129059359D01*
X156550976Y-129035619D01*
X156550974Y-129035618D01*
X156550970Y-129035618D01*
X156184250Y-128999500D01*
X155815750Y-128999500D01*
X155815749Y-128999500D01*
X155449029Y-129035618D01*
X155087596Y-129107511D01*
X154734984Y-129214475D01*
X154734963Y-129214483D01*
X154394523Y-129355497D01*
X154394512Y-129355503D01*
X154069538Y-129529204D01*
X154069529Y-129529210D01*
X153763137Y-129733935D01*
X153478284Y-129967708D01*
X153217708Y-130228284D01*
X152983935Y-130513137D01*
X152779210Y-130819529D01*
X152779204Y-130819538D01*
X152605503Y-131144512D01*
X152605497Y-131144523D01*
X152464483Y-131484963D01*
X152464475Y-131484984D01*
X152357511Y-131837596D01*
X152285618Y-132199029D01*
X152249500Y-132565749D01*
X150500000Y-132565749D01*
X150500000Y-127250000D01*
X177000000Y-127250000D01*
X177000000Y-138250000D01*
G37*
%TD.AperFunction*%
%TA.AperFunction,NonConductor*%
G36*
X172146952Y-130756910D02*
G01*
X172373906Y-130786790D01*
X172405845Y-130793144D01*
X172626957Y-130852391D01*
X172657798Y-130862860D01*
X172779815Y-130913400D01*
X172869283Y-130950459D01*
X172898475Y-130964854D01*
X173096733Y-131079319D01*
X173123804Y-131097407D01*
X173305417Y-131236763D01*
X173329897Y-131258231D01*
X173491768Y-131420102D01*
X173513237Y-131444583D01*
X173609957Y-131570631D01*
X173652588Y-131626189D01*
X173670682Y-131653269D01*
X173785141Y-131851518D01*
X173799542Y-131880721D01*
X173887139Y-132092201D01*
X173897608Y-132123042D01*
X173956855Y-132344154D01*
X173963210Y-132376098D01*
X173993066Y-132602876D01*
X173993089Y-132603046D01*
X173995219Y-132635548D01*
X173995219Y-132864451D01*
X173993089Y-132896953D01*
X173963210Y-133123901D01*
X173956855Y-133155845D01*
X173897608Y-133376957D01*
X173887139Y-133407798D01*
X173799542Y-133619278D01*
X173785138Y-133648486D01*
X173741994Y-133723215D01*
X173670682Y-133846730D01*
X173652588Y-133873810D01*
X173513244Y-134055408D01*
X173491768Y-134079897D01*
X173329897Y-134241768D01*
X173305408Y-134263244D01*
X173123810Y-134402588D01*
X173096730Y-134420682D01*
X172984058Y-134485734D01*
X172898486Y-134535138D01*
X172869278Y-134549542D01*
X172657798Y-134637139D01*
X172626957Y-134647608D01*
X172405845Y-134706855D01*
X172373901Y-134713210D01*
X172208768Y-134734950D01*
X172146951Y-134743089D01*
X172114452Y-134745219D01*
X171885548Y-134745219D01*
X171853048Y-134743089D01*
X171767550Y-134731833D01*
X171626098Y-134713210D01*
X171594154Y-134706855D01*
X171373042Y-134647608D01*
X171342201Y-134637139D01*
X171130721Y-134549542D01*
X171101518Y-134535141D01*
X170903269Y-134420682D01*
X170876189Y-134402588D01*
X170694583Y-134263237D01*
X170670102Y-134241768D01*
X170508231Y-134079897D01*
X170486763Y-134055417D01*
X170347407Y-133873804D01*
X170329317Y-133846730D01*
X170324347Y-133838122D01*
X170214854Y-133648475D01*
X170200457Y-133619278D01*
X170112860Y-133407798D01*
X170102391Y-133376957D01*
X170043144Y-133155845D01*
X170036790Y-133123906D01*
X170006911Y-132896952D01*
X170004781Y-132864451D01*
X170004781Y-132635548D01*
X170006911Y-132603047D01*
X170009063Y-132586698D01*
X170036790Y-132376090D01*
X170043144Y-132344154D01*
X170102391Y-132123042D01*
X170112860Y-132092201D01*
X170146146Y-132011840D01*
X170200462Y-131880709D01*
X170214851Y-131851530D01*
X170329323Y-131653259D01*
X170347402Y-131626202D01*
X170486769Y-131444574D01*
X170508223Y-131420110D01*
X170670110Y-131258223D01*
X170694574Y-131236769D01*
X170876202Y-131097402D01*
X170903259Y-131079323D01*
X171101530Y-130964851D01*
X171130709Y-130950462D01*
X171312465Y-130875177D01*
X171342201Y-130862860D01*
X171373042Y-130852391D01*
X171594154Y-130793144D01*
X171626090Y-130786790D01*
X171853047Y-130756910D01*
X171885548Y-130754781D01*
X172114452Y-130754781D01*
X172146952Y-130756910D01*
G37*
%TD.AperFunction*%
%TA.AperFunction,NonConductor*%
G36*
X164153492Y-130657125D02*
G01*
X164219969Y-130665876D01*
X164393413Y-130688711D01*
X164425354Y-130695065D01*
X164659098Y-130757697D01*
X164689940Y-130768166D01*
X164913510Y-130860772D01*
X164942710Y-130875171D01*
X165152301Y-130996178D01*
X165179365Y-131014263D01*
X165349124Y-131144523D01*
X165371343Y-131161572D01*
X165395832Y-131183047D01*
X165566952Y-131354167D01*
X165588427Y-131378656D01*
X165735734Y-131570631D01*
X165753823Y-131597702D01*
X165874825Y-131807283D01*
X165889227Y-131836489D01*
X165981833Y-132060059D01*
X165992302Y-132090901D01*
X166054934Y-132324645D01*
X166061289Y-132356590D01*
X166092875Y-132596507D01*
X166095005Y-132629008D01*
X166095005Y-132870991D01*
X166092875Y-132903492D01*
X166061289Y-133143409D01*
X166054934Y-133175354D01*
X165992302Y-133409098D01*
X165981833Y-133439940D01*
X165889227Y-133663510D01*
X165874821Y-133692722D01*
X165790876Y-133838122D01*
X165753830Y-133902287D01*
X165735734Y-133929368D01*
X165588427Y-134121343D01*
X165566952Y-134145832D01*
X165395832Y-134316952D01*
X165371343Y-134338427D01*
X165179368Y-134485734D01*
X165152290Y-134503827D01*
X165098063Y-134535136D01*
X164942722Y-134624822D01*
X164913510Y-134639227D01*
X164689940Y-134731833D01*
X164659098Y-134742302D01*
X164425354Y-134804934D01*
X164393409Y-134811289D01*
X164153493Y-134842875D01*
X164120992Y-134845005D01*
X163879008Y-134845005D01*
X163846507Y-134842875D01*
X163606590Y-134811289D01*
X163574645Y-134804934D01*
X163340901Y-134742302D01*
X163310059Y-134731833D01*
X163086489Y-134639227D01*
X163057283Y-134624825D01*
X162847702Y-134503823D01*
X162820631Y-134485734D01*
X162628656Y-134338427D01*
X162604167Y-134316952D01*
X162433047Y-134145832D01*
X162411572Y-134121343D01*
X162394688Y-134099339D01*
X162264263Y-133929365D01*
X162246178Y-133902301D01*
X162125171Y-133692710D01*
X162110772Y-133663510D01*
X162018166Y-133439940D01*
X162007697Y-133409098D01*
X161945065Y-133175354D01*
X161938710Y-133143408D01*
X161938272Y-133140083D01*
X161912791Y-132946529D01*
X161907125Y-132903491D01*
X161904995Y-132870991D01*
X161904995Y-132629008D01*
X161907125Y-132596508D01*
X161936142Y-132376098D01*
X161938711Y-132356583D01*
X161945065Y-132324645D01*
X162007697Y-132090901D01*
X162018166Y-132060059D01*
X162043892Y-131997949D01*
X162110772Y-131836487D01*
X162125167Y-131807295D01*
X162246182Y-131597691D01*
X162264257Y-131570641D01*
X162411578Y-131378648D01*
X162433039Y-131354175D01*
X162604175Y-131183039D01*
X162628648Y-131161578D01*
X162820641Y-131014257D01*
X162847691Y-130996182D01*
X163057295Y-130875167D01*
X163086489Y-130860772D01*
X163106723Y-130852391D01*
X163310059Y-130768166D01*
X163340901Y-130757697D01*
X163574645Y-130695065D01*
X163606583Y-130688711D01*
X163794546Y-130663965D01*
X163846508Y-130657125D01*
X163879008Y-130654995D01*
X164120992Y-130654995D01*
X164153492Y-130657125D01*
G37*
%TD.AperFunction*%
%TA.AperFunction,NonConductor*%
G36*
X156163302Y-130507446D02*
G01*
X156197302Y-130511922D01*
X156422682Y-130541594D01*
X156454620Y-130547948D01*
X156707318Y-130615659D01*
X156738159Y-130626128D01*
X156979851Y-130726240D01*
X157009059Y-130740643D01*
X157235625Y-130871451D01*
X157262696Y-130889539D01*
X157401659Y-130996169D01*
X157470248Y-131048799D01*
X157494736Y-131070274D01*
X157679725Y-131255263D01*
X157701200Y-131279751D01*
X157860458Y-131487300D01*
X157878550Y-131514378D01*
X157943105Y-131626189D01*
X158009354Y-131740937D01*
X158023759Y-131770148D01*
X158123871Y-132011840D01*
X158134340Y-132042681D01*
X158202051Y-132295379D01*
X158208406Y-132327324D01*
X158242554Y-132586697D01*
X158244684Y-132619199D01*
X158244684Y-132880800D01*
X158242554Y-132913302D01*
X158208406Y-133172675D01*
X158202051Y-133204620D01*
X158134340Y-133457318D01*
X158123871Y-133488159D01*
X158023759Y-133729851D01*
X158009354Y-133759062D01*
X157878554Y-133985616D01*
X157860458Y-134012699D01*
X157701200Y-134220248D01*
X157679725Y-134244736D01*
X157494736Y-134429725D01*
X157470248Y-134451200D01*
X157262699Y-134610458D01*
X157235616Y-134628554D01*
X157009062Y-134759354D01*
X156979851Y-134773759D01*
X156738159Y-134873871D01*
X156707318Y-134884340D01*
X156454620Y-134952051D01*
X156422675Y-134958406D01*
X156163303Y-134992554D01*
X156130801Y-134994684D01*
X155869199Y-134994684D01*
X155836697Y-134992554D01*
X155577324Y-134958406D01*
X155545379Y-134952051D01*
X155292681Y-134884340D01*
X155261840Y-134873871D01*
X155020148Y-134773759D01*
X154990937Y-134759354D01*
X154854305Y-134680470D01*
X154764378Y-134628550D01*
X154737300Y-134610458D01*
X154529751Y-134451200D01*
X154505263Y-134429725D01*
X154320274Y-134244736D01*
X154298799Y-134220248D01*
X154241698Y-134145832D01*
X154139539Y-134012696D01*
X154121451Y-133985625D01*
X153990643Y-133759059D01*
X153976240Y-133729851D01*
X153876128Y-133488159D01*
X153865659Y-133457318D01*
X153797948Y-133204620D01*
X153791594Y-133172682D01*
X153761821Y-132946532D01*
X153757446Y-132913301D01*
X153755316Y-132880800D01*
X153755316Y-132619199D01*
X153757446Y-132586698D01*
X153785172Y-132376098D01*
X153791595Y-132327314D01*
X153797948Y-132295379D01*
X153865659Y-132042681D01*
X153876128Y-132011840D01*
X153930439Y-131880721D01*
X153976241Y-131770144D01*
X153990640Y-131740946D01*
X154121455Y-131514367D01*
X154139533Y-131487310D01*
X154298806Y-131279742D01*
X154320266Y-131255271D01*
X154505271Y-131070266D01*
X154529742Y-131048806D01*
X154737310Y-130889533D01*
X154764367Y-130871455D01*
X154990946Y-130740640D01*
X155020144Y-130726241D01*
X155261842Y-130626127D01*
X155292681Y-130615659D01*
X155479170Y-130565688D01*
X155545382Y-130547947D01*
X155577314Y-130541595D01*
X155808486Y-130511160D01*
X155836698Y-130507446D01*
X155869199Y-130505316D01*
X156130801Y-130505316D01*
X156163302Y-130507446D01*
G37*
%TD.AperFunction*%
%TA.AperFunction,NonConductor*%
G36*
X170188132Y-79241033D02*
G01*
X170429926Y-79256880D01*
X170462213Y-79261132D01*
X170691860Y-79306812D01*
X170723310Y-79315238D01*
X170945045Y-79390507D01*
X170975103Y-79402957D01*
X171185126Y-79506529D01*
X171213308Y-79522800D01*
X171408004Y-79652892D01*
X171433841Y-79672718D01*
X171609874Y-79827096D01*
X171632903Y-79850125D01*
X171787281Y-80026158D01*
X171807108Y-80051997D01*
X171937196Y-80246686D01*
X171953473Y-80274878D01*
X172057038Y-80484889D01*
X172069495Y-80514962D01*
X172143353Y-80732540D01*
X172144758Y-80736679D01*
X172153187Y-80768139D01*
X172198867Y-80997786D01*
X172203119Y-81030078D01*
X172218967Y-81271866D01*
X172219500Y-81288152D01*
X172219500Y-104299349D01*
X172235052Y-104447313D01*
X172252812Y-104616292D01*
X172313223Y-104900500D01*
X172319073Y-104928023D01*
X172417552Y-105231111D01*
X172417556Y-105231120D01*
X172525751Y-105474131D01*
X172547177Y-105522253D01*
X172658145Y-105714455D01*
X172706523Y-105798248D01*
X172706523Y-105798249D01*
X172893837Y-106056065D01*
X172893852Y-106056084D01*
X173042187Y-106220826D01*
X173107091Y-106292909D01*
X173107101Y-106292918D01*
X173107104Y-106292921D01*
X173343915Y-106506147D01*
X173343934Y-106506162D01*
X173601750Y-106693476D01*
X173601752Y-106693477D01*
X173877747Y-106852823D01*
X174168887Y-106982447D01*
X174471981Y-107080928D01*
X174783708Y-107147188D01*
X175013305Y-107171319D01*
X175100650Y-107180500D01*
X175100654Y-107180500D01*
X175194108Y-107180500D01*
X180274108Y-107180500D01*
X180331847Y-107180500D01*
X180348132Y-107181033D01*
X180589926Y-107196880D01*
X180622213Y-107201132D01*
X180851860Y-107246812D01*
X180883310Y-107255238D01*
X181105045Y-107330507D01*
X181135103Y-107342957D01*
X181345126Y-107446529D01*
X181373308Y-107462800D01*
X181568004Y-107592892D01*
X181593841Y-107612718D01*
X181769874Y-107767096D01*
X181792903Y-107790125D01*
X181947281Y-107966158D01*
X181967108Y-107991997D01*
X182097196Y-108186686D01*
X182113473Y-108214878D01*
X182217038Y-108424889D01*
X182229495Y-108454962D01*
X182303353Y-108672540D01*
X182304758Y-108676679D01*
X182313187Y-108708139D01*
X182358867Y-108937786D01*
X182363119Y-108970078D01*
X182378967Y-109211866D01*
X182379500Y-109228152D01*
X182379500Y-139389546D01*
X182360546Y-139484834D01*
X182306570Y-139565616D01*
X177665616Y-144206570D01*
X177584834Y-144260546D01*
X177489546Y-144279500D01*
X118420454Y-144279500D01*
X118325166Y-144260546D01*
X118244384Y-144206570D01*
X114873430Y-140835616D01*
X114819454Y-140754834D01*
X114800500Y-140659546D01*
X114800500Y-136828031D01*
X123499500Y-136828031D01*
X123499500Y-137171969D01*
X123533211Y-137514250D01*
X123600310Y-137851578D01*
X123600312Y-137851584D01*
X123700145Y-138180691D01*
X123700153Y-138180712D01*
X123831767Y-138498459D01*
X123831773Y-138498470D01*
X123993895Y-138801779D01*
X123993901Y-138801790D01*
X124184980Y-139087759D01*
X124184987Y-139087768D01*
X124330441Y-139265004D01*
X124403172Y-139353627D01*
X124646373Y-139596828D01*
X124691798Y-139634107D01*
X124912231Y-139815012D01*
X124912240Y-139815019D01*
X125198209Y-140006098D01*
X125198220Y-140006104D01*
X125501529Y-140168226D01*
X125501540Y-140168232D01*
X125524777Y-140177857D01*
X125819295Y-140299850D01*
X126148422Y-140399690D01*
X126485750Y-140466789D01*
X126828031Y-140500500D01*
X126828033Y-140500500D01*
X127171967Y-140500500D01*
X127171969Y-140500500D01*
X127514250Y-140466789D01*
X127851578Y-140399690D01*
X128180705Y-140299850D01*
X128498462Y-140168231D01*
X128801787Y-140006100D01*
X129087760Y-139815019D01*
X129353627Y-139596828D01*
X129596828Y-139353627D01*
X129815019Y-139087760D01*
X130006100Y-138801787D01*
X130168231Y-138498462D01*
X130299850Y-138180705D01*
X130399690Y-137851578D01*
X130466789Y-137514250D01*
X130500500Y-137171969D01*
X130500500Y-136828031D01*
X130499532Y-136818206D01*
X131299500Y-136818206D01*
X131299500Y-137181794D01*
X131335138Y-137543631D01*
X131358239Y-137659770D01*
X131406071Y-137900238D01*
X131406074Y-137900251D01*
X131511609Y-138248150D01*
X131511617Y-138248171D01*
X131650751Y-138584073D01*
X131650757Y-138584084D01*
X131822142Y-138904725D01*
X131822148Y-138904735D01*
X131944448Y-139087768D01*
X132024146Y-139207044D01*
X132254803Y-139488101D01*
X132511899Y-139745197D01*
X132792956Y-139975854D01*
X132792968Y-139975862D01*
X133095264Y-140177851D01*
X133095274Y-140177857D01*
X133323516Y-140299854D01*
X133415924Y-140349247D01*
X133751836Y-140488386D01*
X133751848Y-140488389D01*
X133751849Y-140488390D01*
X134099748Y-140593925D01*
X134099758Y-140593927D01*
X134099767Y-140593930D01*
X134456369Y-140664862D01*
X134818206Y-140700500D01*
X134818209Y-140700500D01*
X135181791Y-140700500D01*
X135181794Y-140700500D01*
X135543631Y-140664862D01*
X135900233Y-140593930D01*
X135900244Y-140593926D01*
X135900251Y-140593925D01*
X136126693Y-140525233D01*
X136248164Y-140488386D01*
X136584076Y-140349247D01*
X136904732Y-140177853D01*
X137207044Y-139975854D01*
X137488101Y-139745197D01*
X137745197Y-139488101D01*
X137975854Y-139207044D01*
X138177853Y-138904732D01*
X138349247Y-138584076D01*
X138488386Y-138248164D01*
X138593930Y-137900233D01*
X138602847Y-137855406D01*
X138640024Y-137765651D01*
X138708722Y-137696951D01*
X138798481Y-137659771D01*
X138895636Y-137659770D01*
X138985396Y-137696949D01*
X139054096Y-137765647D01*
X139091276Y-137855406D01*
X139091276Y-137855408D01*
X139114708Y-137973210D01*
X139114710Y-137973218D01*
X139228805Y-138349339D01*
X139228813Y-138349360D01*
X139379226Y-138712491D01*
X139379228Y-138712495D01*
X139379229Y-138712497D01*
X139426955Y-138801787D01*
X139564521Y-139059154D01*
X139782884Y-139385956D01*
X139782893Y-139385969D01*
X140032250Y-139689812D01*
X140310188Y-139967750D01*
X140614031Y-140217107D01*
X140940851Y-140435482D01*
X141287503Y-140620771D01*
X141650647Y-140771190D01*
X141650659Y-140771193D01*
X141650660Y-140771194D01*
X142026777Y-140885288D01*
X142026781Y-140885288D01*
X142026785Y-140885290D01*
X142412297Y-140961973D01*
X142803468Y-141000500D01*
X142803471Y-141000500D01*
X143196529Y-141000500D01*
X143196532Y-141000500D01*
X143587703Y-140961973D01*
X143973215Y-140885290D01*
X144349353Y-140771190D01*
X144712497Y-140620771D01*
X145059149Y-140435482D01*
X145385969Y-140217107D01*
X145689812Y-139967750D01*
X145967750Y-139689812D01*
X146217107Y-139385969D01*
X146435482Y-139059149D01*
X146620771Y-138712497D01*
X146771190Y-138349353D01*
X146801328Y-138250000D01*
X150500000Y-138250000D01*
X156477582Y-138250000D01*
X156477582Y-140948053D01*
X156477583Y-140948053D01*
X171934141Y-140948053D01*
X171934142Y-140948053D01*
X171934142Y-138250000D01*
X177000000Y-138250000D01*
X177000000Y-137112300D01*
X177310854Y-137112300D01*
X177310855Y-137112300D01*
X180827621Y-137112300D01*
X180827622Y-137112300D01*
X180827622Y-124358383D01*
X177310854Y-124358383D01*
X177310854Y-137112300D01*
X177000000Y-137112300D01*
X177000000Y-127250000D01*
X150500000Y-127250000D01*
X150500000Y-138250000D01*
X146801328Y-138250000D01*
X146885290Y-137973215D01*
X146961973Y-137587703D01*
X147000500Y-137196532D01*
X147000500Y-136803468D01*
X146961973Y-136412297D01*
X146885290Y-136026785D01*
X146868304Y-135970791D01*
X146771194Y-135650660D01*
X146771193Y-135650659D01*
X146771190Y-135650647D01*
X146620771Y-135287503D01*
X146435482Y-134940851D01*
X146217107Y-134614031D01*
X145967750Y-134310188D01*
X145689812Y-134032250D01*
X145385969Y-133782893D01*
X145385956Y-133782884D01*
X145059154Y-133564521D01*
X145059151Y-133564519D01*
X145059149Y-133564518D01*
X144712497Y-133379229D01*
X144712495Y-133379228D01*
X144712491Y-133379226D01*
X144349360Y-133228813D01*
X144349353Y-133228810D01*
X144349348Y-133228808D01*
X144349339Y-133228805D01*
X143973222Y-133114711D01*
X143715012Y-133063350D01*
X143587703Y-133038027D01*
X143587701Y-133038026D01*
X143587697Y-133038026D01*
X143196532Y-132999500D01*
X142803468Y-132999500D01*
X142803467Y-132999500D01*
X142412302Y-133038026D01*
X142026777Y-133114711D01*
X141650660Y-133228805D01*
X141650639Y-133228813D01*
X141287508Y-133379226D01*
X140940845Y-133564521D01*
X140614043Y-133782884D01*
X140614032Y-133782892D01*
X140310191Y-134032247D01*
X140032247Y-134310191D01*
X139782892Y-134614032D01*
X139782884Y-134614043D01*
X139564521Y-134940845D01*
X139379226Y-135287508D01*
X139228813Y-135650639D01*
X139228805Y-135650660D01*
X139114710Y-136026781D01*
X139114708Y-136026789D01*
X139091276Y-136144591D01*
X139054096Y-136234351D01*
X138985397Y-136303049D01*
X138895638Y-136340229D01*
X138798483Y-136340228D01*
X138708723Y-136303048D01*
X138640025Y-136234349D01*
X138602846Y-136144593D01*
X138593930Y-136099767D01*
X138593928Y-136099761D01*
X138593925Y-136099748D01*
X138488390Y-135751849D01*
X138488389Y-135751848D01*
X138488386Y-135751836D01*
X138349247Y-135415924D01*
X138316197Y-135354092D01*
X138177857Y-135095274D01*
X138177851Y-135095264D01*
X137975862Y-134792968D01*
X137975854Y-134792956D01*
X137745197Y-134511899D01*
X137488101Y-134254803D01*
X137207044Y-134024146D01*
X137193410Y-134015036D01*
X136904735Y-133822148D01*
X136904725Y-133822142D01*
X136584084Y-133650757D01*
X136584073Y-133650751D01*
X136248171Y-133511617D01*
X136248164Y-133511614D01*
X136248159Y-133511612D01*
X136248150Y-133511609D01*
X135900251Y-133406074D01*
X135900238Y-133406071D01*
X135833107Y-133392718D01*
X135543631Y-133335138D01*
X135543629Y-133335137D01*
X135543625Y-133335137D01*
X135181794Y-133299500D01*
X134818206Y-133299500D01*
X134818205Y-133299500D01*
X134456374Y-133335137D01*
X134099761Y-133406071D01*
X134099748Y-133406074D01*
X133751849Y-133511609D01*
X133751828Y-133511617D01*
X133415926Y-133650751D01*
X133415915Y-133650757D01*
X133095274Y-133822142D01*
X133095264Y-133822148D01*
X132792968Y-134024137D01*
X132792957Y-134024145D01*
X132511902Y-134254800D01*
X132254800Y-134511902D01*
X132024145Y-134792957D01*
X132024137Y-134792968D01*
X131822148Y-135095264D01*
X131822142Y-135095274D01*
X131650757Y-135415915D01*
X131650751Y-135415926D01*
X131511617Y-135751828D01*
X131511609Y-135751849D01*
X131406074Y-136099748D01*
X131406071Y-136099761D01*
X131335137Y-136456374D01*
X131300951Y-136803471D01*
X131299500Y-136818206D01*
X130499532Y-136818206D01*
X130466789Y-136485750D01*
X130399690Y-136148422D01*
X130299850Y-135819295D01*
X130180969Y-135532291D01*
X130168232Y-135501540D01*
X130168226Y-135501529D01*
X130135235Y-135439808D01*
X130053827Y-135287503D01*
X130006104Y-135198220D01*
X130006098Y-135198209D01*
X129815019Y-134912240D01*
X129815012Y-134912231D01*
X129677949Y-134745219D01*
X129596828Y-134646373D01*
X129353627Y-134403172D01*
X129240329Y-134310191D01*
X129087768Y-134184987D01*
X129087759Y-134184980D01*
X128801790Y-133993901D01*
X128801779Y-133993895D01*
X128498470Y-133831773D01*
X128498459Y-133831767D01*
X128180712Y-133700153D01*
X128180705Y-133700150D01*
X128180700Y-133700148D01*
X128180691Y-133700145D01*
X127914107Y-133619278D01*
X127851578Y-133600310D01*
X127514250Y-133533211D01*
X127514244Y-133533210D01*
X127514242Y-133533210D01*
X127171969Y-133499500D01*
X126828031Y-133499500D01*
X126828030Y-133499500D01*
X126485757Y-133533210D01*
X126485753Y-133533210D01*
X126485750Y-133533211D01*
X126148422Y-133600310D01*
X126148416Y-133600311D01*
X126148415Y-133600312D01*
X125819308Y-133700145D01*
X125819287Y-133700153D01*
X125501540Y-133831767D01*
X125501529Y-133831773D01*
X125198220Y-133993895D01*
X125198209Y-133993901D01*
X124912240Y-134184980D01*
X124912231Y-134184987D01*
X124646376Y-134403169D01*
X124403169Y-134646376D01*
X124184987Y-134912231D01*
X124184980Y-134912240D01*
X123993901Y-135198209D01*
X123993895Y-135198220D01*
X123831773Y-135501529D01*
X123831767Y-135501540D01*
X123700153Y-135819287D01*
X123700145Y-135819308D01*
X123615117Y-136099609D01*
X123600310Y-136148422D01*
X123537462Y-136464381D01*
X123533210Y-136485757D01*
X123518483Y-136635288D01*
X123499500Y-136828031D01*
X114800500Y-136828031D01*
X114800500Y-135369500D01*
X114819454Y-135274212D01*
X114873430Y-135193430D01*
X114954212Y-135139454D01*
X115049500Y-135120500D01*
X121985892Y-135120500D01*
X122113186Y-135086392D01*
X122227314Y-135020500D01*
X122320500Y-134927314D01*
X122386392Y-134813186D01*
X122420500Y-134685892D01*
X122420500Y-129848328D01*
X123299500Y-129848328D01*
X123299500Y-130151671D01*
X123333459Y-130453057D01*
X123333460Y-130453063D01*
X123400954Y-130748772D01*
X123425713Y-130819529D01*
X123501129Y-131035059D01*
X123593422Y-131226708D01*
X123632735Y-131308341D01*
X123632739Y-131308347D01*
X123632741Y-131308351D01*
X123794107Y-131565163D01*
X123864369Y-131653269D01*
X123983221Y-131802304D01*
X124197696Y-132016779D01*
X124434836Y-132205892D01*
X124691659Y-132367265D01*
X124964935Y-132498868D01*
X124964938Y-132498869D01*
X124964940Y-132498870D01*
X125024650Y-132519763D01*
X125251228Y-132599046D01*
X125546937Y-132666540D01*
X125682400Y-132681802D01*
X125848328Y-132700499D01*
X125848343Y-132700500D01*
X126151657Y-132700500D01*
X126151671Y-132700499D01*
X126290507Y-132684855D01*
X126453063Y-132666540D01*
X126748772Y-132599046D01*
X127035065Y-132498868D01*
X127308341Y-132367265D01*
X127565164Y-132205892D01*
X127802304Y-132016779D01*
X128016779Y-131802304D01*
X128205892Y-131565164D01*
X128367265Y-131308341D01*
X128498868Y-131035065D01*
X128599046Y-130748772D01*
X128603386Y-130729759D01*
X128643061Y-130641086D01*
X128713658Y-130574338D01*
X128804424Y-130539688D01*
X128901540Y-130542409D01*
X128990223Y-130582088D01*
X129056971Y-130652685D01*
X129088898Y-130729759D01*
X129112222Y-130831949D01*
X129112223Y-130831950D01*
X129112224Y-130831954D01*
X129128899Y-130879609D01*
X129223528Y-131150044D01*
X129223527Y-131150044D01*
X129359136Y-131431638D01*
X129369754Y-131453686D01*
X129369758Y-131453692D01*
X129369760Y-131453696D01*
X129549053Y-131739038D01*
X129641499Y-131854962D01*
X129759175Y-132002523D01*
X129997477Y-132240825D01*
X130260961Y-132450946D01*
X130546314Y-132630246D01*
X130849949Y-132776469D01*
X130849952Y-132776470D01*
X130849954Y-132776471D01*
X130911221Y-132797909D01*
X131168046Y-132887776D01*
X131168052Y-132887777D01*
X131168056Y-132887779D01*
X131425462Y-132946529D01*
X131496606Y-132962767D01*
X131678005Y-132983205D01*
X131831483Y-133000499D01*
X131831496Y-133000500D01*
X132168504Y-133000500D01*
X132168516Y-133000499D01*
X132284784Y-132987398D01*
X132503394Y-132962767D01*
X132632131Y-132933383D01*
X132831943Y-132887779D01*
X132831945Y-132887777D01*
X132831954Y-132887776D01*
X133150051Y-132776469D01*
X133453686Y-132630246D01*
X133739039Y-132450946D01*
X134002523Y-132240825D01*
X134240825Y-132002523D01*
X134450946Y-131739039D01*
X134630246Y-131453686D01*
X134776469Y-131150051D01*
X134776469Y-131150048D01*
X134776472Y-131150044D01*
X134811899Y-131048799D01*
X134887776Y-130831954D01*
X134890612Y-130819532D01*
X134944806Y-130582088D01*
X134962767Y-130503394D01*
X134987398Y-130284784D01*
X135000499Y-130168516D01*
X135000500Y-130168503D01*
X135000500Y-129831489D01*
X134999234Y-129820249D01*
X135799500Y-129820249D01*
X135799500Y-130179750D01*
X135839747Y-130536948D01*
X135919738Y-130887408D01*
X136038461Y-131226702D01*
X136190146Y-131541679D01*
X136194434Y-131550582D01*
X136194438Y-131550588D01*
X136194440Y-131550592D01*
X136383517Y-131851507D01*
X136385685Y-131854956D01*
X136609812Y-132136003D01*
X136863997Y-132390188D01*
X137145044Y-132614315D01*
X137449418Y-132805566D01*
X137773292Y-132961536D01*
X137773295Y-132961537D01*
X137773297Y-132961538D01*
X137841248Y-132985315D01*
X138112592Y-133080262D01*
X138463052Y-133160252D01*
X138463050Y-133160252D01*
X138820249Y-133200499D01*
X138820264Y-133200500D01*
X139179736Y-133200500D01*
X139179750Y-133200499D01*
X139536948Y-133160252D01*
X139556256Y-133155845D01*
X139887408Y-133080262D01*
X140226708Y-132961536D01*
X140550582Y-132805566D01*
X140854956Y-132614315D01*
X141136003Y-132390188D01*
X141390188Y-132136003D01*
X141614315Y-131854956D01*
X141805566Y-131550582D01*
X141961536Y-131226708D01*
X142080262Y-130887408D01*
X142160252Y-130536948D01*
X142195030Y-130228284D01*
X142200499Y-130179750D01*
X142200500Y-130179735D01*
X142200500Y-129820264D01*
X142200499Y-129820249D01*
X142160252Y-129463051D01*
X142133722Y-129346818D01*
X142080262Y-129112592D01*
X141988202Y-128849500D01*
X141961538Y-128773297D01*
X141922229Y-128691672D01*
X141805566Y-128449418D01*
X141614315Y-128145044D01*
X141390188Y-127863997D01*
X141136003Y-127609812D01*
X140854956Y-127385685D01*
X140854955Y-127385684D01*
X140550592Y-127194440D01*
X140550588Y-127194438D01*
X140550582Y-127194434D01*
X140550572Y-127194429D01*
X140550568Y-127194427D01*
X140226702Y-127038461D01*
X139982353Y-126952960D01*
X139887408Y-126919738D01*
X139887410Y-126919738D01*
X139536946Y-126839747D01*
X139536949Y-126839747D01*
X139179750Y-126799500D01*
X139179736Y-126799500D01*
X138820264Y-126799500D01*
X138820249Y-126799500D01*
X138463051Y-126839747D01*
X138112591Y-126919738D01*
X137773297Y-127038461D01*
X137449431Y-127194427D01*
X137449407Y-127194440D01*
X137145044Y-127385684D01*
X137145037Y-127385690D01*
X136864000Y-127609809D01*
X136863992Y-127609816D01*
X136609816Y-127863992D01*
X136609809Y-127864000D01*
X136385690Y-128145037D01*
X136385684Y-128145044D01*
X136194440Y-128449407D01*
X136194427Y-128449431D01*
X136038461Y-128773297D01*
X135919738Y-129112591D01*
X135839747Y-129463051D01*
X135799500Y-129820249D01*
X134999234Y-129820249D01*
X134975916Y-129613309D01*
X134962767Y-129496606D01*
X134931342Y-129358922D01*
X134887779Y-129168056D01*
X134887777Y-129168052D01*
X134887776Y-129168046D01*
X134789010Y-128885788D01*
X134776471Y-128849954D01*
X134776252Y-128849500D01*
X134630246Y-128546314D01*
X134450946Y-128260961D01*
X134240825Y-127997477D01*
X134002523Y-127759175D01*
X133739039Y-127549054D01*
X133739040Y-127549054D01*
X133739038Y-127549053D01*
X133453696Y-127369760D01*
X133453692Y-127369758D01*
X133453686Y-127369754D01*
X133453676Y-127369749D01*
X133453672Y-127369747D01*
X133150045Y-127223528D01*
X132929729Y-127146437D01*
X132831954Y-127112224D01*
X132831950Y-127112223D01*
X132831943Y-127112220D01*
X132503397Y-127037233D01*
X132168516Y-126999500D01*
X132168504Y-126999500D01*
X131831496Y-126999500D01*
X131831483Y-126999500D01*
X131496602Y-127037233D01*
X131168056Y-127112220D01*
X131168049Y-127112223D01*
X130849954Y-127223528D01*
X130546327Y-127369747D01*
X130546303Y-127369760D01*
X130260961Y-127549053D01*
X129997480Y-127759172D01*
X129997472Y-127759179D01*
X129759179Y-127997472D01*
X129759172Y-127997480D01*
X129549053Y-128260961D01*
X129369760Y-128546303D01*
X129369747Y-128546327D01*
X129223528Y-128849954D01*
X129112223Y-129168049D01*
X129112222Y-129168050D01*
X129088898Y-129270240D01*
X129049215Y-129358922D01*
X128978616Y-129425666D01*
X128887848Y-129460313D01*
X128790732Y-129457588D01*
X128702050Y-129417905D01*
X128635306Y-129347306D01*
X128603384Y-129270235D01*
X128599046Y-129251228D01*
X128503723Y-128978810D01*
X128498870Y-128964940D01*
X128497373Y-128961832D01*
X128367265Y-128691659D01*
X128205892Y-128434836D01*
X128016779Y-128197696D01*
X127802304Y-127983221D01*
X127565164Y-127794108D01*
X127565165Y-127794108D01*
X127565163Y-127794107D01*
X127308351Y-127632741D01*
X127308347Y-127632739D01*
X127308341Y-127632735D01*
X127308331Y-127632730D01*
X127308327Y-127632728D01*
X127035059Y-127501129D01*
X126820345Y-127425998D01*
X126748772Y-127400954D01*
X126514056Y-127347381D01*
X126453068Y-127333461D01*
X126453064Y-127333460D01*
X126453063Y-127333460D01*
X126453061Y-127333459D01*
X126453057Y-127333459D01*
X126151671Y-127299500D01*
X126151657Y-127299500D01*
X125848343Y-127299500D01*
X125848328Y-127299500D01*
X125546942Y-127333459D01*
X125546931Y-127333461D01*
X125387954Y-127369747D01*
X125251228Y-127400954D01*
X125251225Y-127400954D01*
X125251225Y-127400955D01*
X124964940Y-127501129D01*
X124691672Y-127632728D01*
X124691648Y-127632741D01*
X124434836Y-127794107D01*
X124197699Y-127983218D01*
X124197691Y-127983225D01*
X123983225Y-128197691D01*
X123983218Y-128197699D01*
X123794107Y-128434836D01*
X123632741Y-128691648D01*
X123632728Y-128691672D01*
X123501129Y-128964940D01*
X123411974Y-129219735D01*
X123400954Y-129251228D01*
X123386508Y-129314521D01*
X123333461Y-129546931D01*
X123333459Y-129546942D01*
X123299500Y-129848328D01*
X122420500Y-129848328D01*
X122420500Y-129474108D01*
X122417537Y-129463051D01*
X122386393Y-129346818D01*
X122386392Y-129346814D01*
X122320500Y-129232686D01*
X122227314Y-129139500D01*
X122113186Y-129073608D01*
X122113183Y-129073607D01*
X122113181Y-129073606D01*
X121985892Y-129039500D01*
X115049500Y-129039500D01*
X114954212Y-129020546D01*
X114873430Y-128966570D01*
X114819454Y-128885788D01*
X114800500Y-128790500D01*
X114800500Y-125209500D01*
X114819454Y-125114212D01*
X114873430Y-125033430D01*
X114954212Y-124979454D01*
X115049500Y-124960500D01*
X121985892Y-124960500D01*
X122113186Y-124926392D01*
X122227314Y-124860500D01*
X122320500Y-124767314D01*
X122386392Y-124653186D01*
X122420500Y-124525892D01*
X122420500Y-120885266D01*
X125249500Y-120885266D01*
X125249500Y-121114733D01*
X125279451Y-121342234D01*
X125338841Y-121563885D01*
X125426653Y-121775882D01*
X125426658Y-121775893D01*
X125541383Y-121974602D01*
X125541389Y-121974612D01*
X125541396Y-121974621D01*
X125648201Y-122113812D01*
X125681081Y-122156661D01*
X125843339Y-122318919D01*
X125843343Y-122318922D01*
X125843344Y-122318923D01*
X125855069Y-122327920D01*
X126025388Y-122458611D01*
X126050160Y-122472913D01*
X126224106Y-122573341D01*
X126224109Y-122573342D01*
X126224112Y-122573344D01*
X126436113Y-122661158D01*
X126657762Y-122720548D01*
X126885266Y-122750500D01*
X127114734Y-122750500D01*
X127342238Y-122720548D01*
X127563887Y-122661158D01*
X127775888Y-122573344D01*
X127974612Y-122458611D01*
X128156661Y-122318919D01*
X128318919Y-122156661D01*
X128458611Y-121974612D01*
X128573344Y-121775888D01*
X128661158Y-121563887D01*
X128720548Y-121342238D01*
X128750500Y-121114734D01*
X128750500Y-120885266D01*
X128749637Y-120878712D01*
X133149500Y-120878712D01*
X133149500Y-121121288D01*
X133157240Y-121180079D01*
X133181162Y-121361790D01*
X133181163Y-121361795D01*
X133243940Y-121596082D01*
X133243948Y-121596105D01*
X133336770Y-121820201D01*
X133336778Y-121820217D01*
X133458058Y-122030279D01*
X133458064Y-122030289D01*
X133605729Y-122222731D01*
X133605738Y-122222741D01*
X133777258Y-122394261D01*
X133777268Y-122394270D01*
X133861126Y-122458616D01*
X133969711Y-122541936D01*
X133969720Y-122541941D01*
X134179782Y-122663221D01*
X134179798Y-122663229D01*
X134318181Y-122720548D01*
X134403900Y-122756054D01*
X134403911Y-122756057D01*
X134403917Y-122756059D01*
X134560607Y-122798044D01*
X134638211Y-122818838D01*
X134878712Y-122850500D01*
X135121288Y-122850500D01*
X135361789Y-122818838D01*
X135523275Y-122775567D01*
X135596082Y-122756059D01*
X135596084Y-122756058D01*
X135596100Y-122756054D01*
X135811275Y-122666926D01*
X135820201Y-122663229D01*
X135820206Y-122663226D01*
X135820212Y-122663224D01*
X136030289Y-122541936D01*
X136222738Y-122394265D01*
X136394265Y-122222738D01*
X136541936Y-122030289D01*
X136663224Y-121820212D01*
X136681582Y-121775893D01*
X136699590Y-121732416D01*
X136756054Y-121596100D01*
X136818838Y-121361789D01*
X136850500Y-121121288D01*
X136850500Y-120878712D01*
X136849206Y-120868880D01*
X140999500Y-120868880D01*
X140999500Y-121131119D01*
X141033729Y-121391112D01*
X141101601Y-121644417D01*
X141201953Y-121886689D01*
X141201955Y-121886693D01*
X141201957Y-121886697D01*
X141252720Y-121974621D01*
X141333073Y-122113798D01*
X141333082Y-122113812D01*
X141490468Y-122318919D01*
X141492718Y-122321851D01*
X141678149Y-122507282D01*
X141678153Y-122507285D01*
X141678154Y-122507286D01*
X141886187Y-122666917D01*
X141886192Y-122666920D01*
X141886197Y-122666924D01*
X142113303Y-122798043D01*
X142113308Y-122798045D01*
X142113310Y-122798046D01*
X142160614Y-122817640D01*
X142355581Y-122898398D01*
X142608884Y-122966270D01*
X142868880Y-123000500D01*
X143131120Y-123000500D01*
X143391116Y-122966270D01*
X143644419Y-122898398D01*
X143886697Y-122798043D01*
X144113803Y-122666924D01*
X144321851Y-122507282D01*
X144507282Y-122321851D01*
X144666924Y-122113803D01*
X144798043Y-121886697D01*
X144898398Y-121644419D01*
X144966270Y-121391116D01*
X145000500Y-121131120D01*
X145000500Y-120868880D01*
X144966270Y-120608884D01*
X144898398Y-120355581D01*
X144798043Y-120113303D01*
X144666924Y-119886197D01*
X144666920Y-119886192D01*
X144666917Y-119886187D01*
X144507286Y-119678154D01*
X144507285Y-119678153D01*
X144507282Y-119678149D01*
X144321851Y-119492718D01*
X144321846Y-119492714D01*
X144321845Y-119492713D01*
X144113812Y-119333082D01*
X144113798Y-119333073D01*
X143959414Y-119243940D01*
X143886697Y-119201957D01*
X143886695Y-119201956D01*
X143886693Y-119201955D01*
X143886689Y-119201953D01*
X143644417Y-119101601D01*
X143534730Y-119072211D01*
X143391116Y-119033730D01*
X143391111Y-119033729D01*
X143391114Y-119033729D01*
X143131120Y-118999500D01*
X142868880Y-118999500D01*
X142608887Y-119033729D01*
X142355582Y-119101601D01*
X142113310Y-119201953D01*
X142113306Y-119201955D01*
X141886201Y-119333073D01*
X141886187Y-119333082D01*
X141678154Y-119492713D01*
X141492713Y-119678154D01*
X141333082Y-119886187D01*
X141333073Y-119886201D01*
X141201955Y-120113306D01*
X141201953Y-120113310D01*
X141101601Y-120355582D01*
X141033729Y-120608887D01*
X140999500Y-120868880D01*
X136849206Y-120868880D01*
X136818838Y-120638211D01*
X136756054Y-120403900D01*
X136681584Y-120224112D01*
X136663229Y-120179798D01*
X136663221Y-120179782D01*
X136545141Y-119975262D01*
X136541936Y-119969711D01*
X136447310Y-119846392D01*
X136394270Y-119777268D01*
X136394261Y-119777258D01*
X136222741Y-119605738D01*
X136222731Y-119605729D01*
X136030289Y-119458064D01*
X136030279Y-119458058D01*
X135820217Y-119336778D01*
X135820201Y-119336770D01*
X135596105Y-119243948D01*
X135596103Y-119243947D01*
X135596100Y-119243946D01*
X135596096Y-119243945D01*
X135596082Y-119243940D01*
X135361795Y-119181163D01*
X135361790Y-119181162D01*
X135121288Y-119149500D01*
X134878712Y-119149500D01*
X134638209Y-119181162D01*
X134638204Y-119181163D01*
X134403917Y-119243940D01*
X134403894Y-119243948D01*
X134179798Y-119336770D01*
X134179782Y-119336778D01*
X133969720Y-119458058D01*
X133969710Y-119458064D01*
X133777268Y-119605729D01*
X133777258Y-119605738D01*
X133605738Y-119777258D01*
X133605729Y-119777268D01*
X133458064Y-119969710D01*
X133458058Y-119969720D01*
X133336778Y-120179782D01*
X133336770Y-120179798D01*
X133243948Y-120403894D01*
X133243940Y-120403917D01*
X133181163Y-120638204D01*
X133181162Y-120638209D01*
X133176839Y-120671046D01*
X133149500Y-120878712D01*
X128749637Y-120878712D01*
X128720548Y-120657762D01*
X128661158Y-120436113D01*
X128573344Y-120224112D01*
X128547759Y-120179798D01*
X128458616Y-120025397D01*
X128458611Y-120025388D01*
X128318919Y-119843339D01*
X128156661Y-119681081D01*
X128156656Y-119681077D01*
X128156655Y-119681076D01*
X127974621Y-119541396D01*
X127974622Y-119541396D01*
X127974612Y-119541389D01*
X127974602Y-119541383D01*
X127775893Y-119426658D01*
X127775882Y-119426653D01*
X127563885Y-119338841D01*
X127435911Y-119304551D01*
X127342238Y-119279452D01*
X127342235Y-119279451D01*
X127342236Y-119279451D01*
X127114734Y-119249500D01*
X126885266Y-119249500D01*
X126657765Y-119279451D01*
X126436114Y-119338841D01*
X126224117Y-119426653D01*
X126224106Y-119426658D01*
X126025397Y-119541383D01*
X126025378Y-119541396D01*
X125843344Y-119681076D01*
X125681076Y-119843344D01*
X125541396Y-120025378D01*
X125541383Y-120025397D01*
X125426658Y-120224106D01*
X125426653Y-120224117D01*
X125338841Y-120436114D01*
X125279451Y-120657765D01*
X125249500Y-120885266D01*
X122420500Y-120885266D01*
X122420500Y-119314108D01*
X122386392Y-119186814D01*
X122320500Y-119072686D01*
X122227314Y-118979500D01*
X122113186Y-118913608D01*
X122113183Y-118913607D01*
X122113181Y-118913606D01*
X121985892Y-118879500D01*
X115049500Y-118879500D01*
X114954212Y-118860546D01*
X114873430Y-118806570D01*
X114819454Y-118725788D01*
X114800500Y-118630500D01*
X114800500Y-117434912D01*
X150252500Y-117434912D01*
X150252500Y-117671087D01*
X150252501Y-117671103D01*
X150277755Y-117830547D01*
X150289447Y-117904368D01*
X150362432Y-118128992D01*
X150434225Y-118269894D01*
X150469659Y-118339437D01*
X150608478Y-118530504D01*
X150608480Y-118530506D01*
X150608483Y-118530510D01*
X150775490Y-118697517D01*
X150775493Y-118697519D01*
X150775495Y-118697521D01*
X150966562Y-118836340D01*
X150966564Y-118836341D01*
X150966567Y-118836343D01*
X151177008Y-118943568D01*
X151401632Y-119016553D01*
X151634908Y-119053500D01*
X151634912Y-119053500D01*
X154071088Y-119053500D01*
X154071092Y-119053500D01*
X154304368Y-119016553D01*
X154528992Y-118943568D01*
X154739433Y-118836343D01*
X154930510Y-118697517D01*
X155097517Y-118530510D01*
X155236343Y-118339433D01*
X155343568Y-118128992D01*
X155416553Y-117904368D01*
X155453500Y-117671092D01*
X155453500Y-117434908D01*
X155416553Y-117201632D01*
X155343568Y-116977008D01*
X155236343Y-116766567D01*
X155236341Y-116766564D01*
X155236340Y-116766562D01*
X155097521Y-116575495D01*
X155097519Y-116575493D01*
X155097517Y-116575490D01*
X154930510Y-116408483D01*
X154930506Y-116408480D01*
X154930504Y-116408478D01*
X154739437Y-116269659D01*
X154689991Y-116244465D01*
X154528992Y-116162432D01*
X154528989Y-116162431D01*
X154528987Y-116162430D01*
X154404079Y-116121845D01*
X154304368Y-116089447D01*
X154304366Y-116089446D01*
X154304364Y-116089446D01*
X154071103Y-116052501D01*
X154071094Y-116052500D01*
X154071092Y-116052500D01*
X151634908Y-116052500D01*
X151634905Y-116052500D01*
X151634896Y-116052501D01*
X151401635Y-116089446D01*
X151177012Y-116162430D01*
X150966562Y-116269659D01*
X150775495Y-116408478D01*
X150608478Y-116575495D01*
X150469659Y-116766562D01*
X150362430Y-116977012D01*
X150289446Y-117201635D01*
X150252501Y-117434896D01*
X150252500Y-117434912D01*
X114800500Y-117434912D01*
X114800500Y-115049500D01*
X114819454Y-114954212D01*
X114873430Y-114873430D01*
X114954212Y-114819454D01*
X115049500Y-114800500D01*
X121985892Y-114800500D01*
X122113186Y-114766392D01*
X122227314Y-114700500D01*
X122320500Y-114607314D01*
X122386392Y-114493186D01*
X122420500Y-114365892D01*
X122420500Y-113893703D01*
X124649500Y-113893703D01*
X124649500Y-114106296D01*
X124682753Y-114316240D01*
X124740246Y-114493186D01*
X124748443Y-114518412D01*
X124844949Y-114707816D01*
X124969896Y-114879792D01*
X125120208Y-115030104D01*
X125292184Y-115155051D01*
X125481588Y-115251557D01*
X125683757Y-115317246D01*
X125757601Y-115328941D01*
X125893703Y-115350499D01*
X125893710Y-115350499D01*
X125893713Y-115350500D01*
X125893716Y-115350500D01*
X126106284Y-115350500D01*
X126106287Y-115350500D01*
X126106290Y-115350499D01*
X126106296Y-115350499D01*
X126205476Y-115334789D01*
X126316243Y-115317246D01*
X126518412Y-115251557D01*
X126707816Y-115155051D01*
X126879792Y-115030104D01*
X127030104Y-114879792D01*
X127155051Y-114707816D01*
X127251557Y-114518412D01*
X127317246Y-114316243D01*
X127340721Y-114168031D01*
X127350499Y-114106296D01*
X127350500Y-114106284D01*
X127350500Y-113893718D01*
X127350500Y-113893713D01*
X127348631Y-113881912D01*
X130499500Y-113881912D01*
X130499500Y-114118087D01*
X130499501Y-114118103D01*
X130536446Y-114351364D01*
X130536447Y-114351368D01*
X130554901Y-114408164D01*
X130582953Y-114494500D01*
X130609432Y-114575992D01*
X130672872Y-114700500D01*
X130716659Y-114786437D01*
X130855478Y-114977504D01*
X130855480Y-114977506D01*
X130855483Y-114977510D01*
X131022490Y-115144517D01*
X131022493Y-115144519D01*
X131022495Y-115144521D01*
X131213562Y-115283340D01*
X131213564Y-115283341D01*
X131213567Y-115283343D01*
X131424008Y-115390568D01*
X131648632Y-115463553D01*
X131881908Y-115500500D01*
X131881912Y-115500500D01*
X132118088Y-115500500D01*
X132118092Y-115500500D01*
X132351368Y-115463553D01*
X132575992Y-115390568D01*
X132786433Y-115283343D01*
X132977510Y-115144517D01*
X133144517Y-114977510D01*
X133283343Y-114786433D01*
X133390568Y-114575992D01*
X133463553Y-114351368D01*
X133500500Y-114118092D01*
X133500500Y-113881908D01*
X133500500Y-113881904D01*
X133499253Y-113874028D01*
X137399500Y-113874028D01*
X137399500Y-114125971D01*
X137438909Y-114374782D01*
X137511599Y-114598500D01*
X137516759Y-114614379D01*
X137631130Y-114838845D01*
X137631133Y-114838849D01*
X137631134Y-114838851D01*
X137693702Y-114924968D01*
X137779207Y-115042656D01*
X137957344Y-115220793D01*
X138161155Y-115368870D01*
X138385621Y-115483241D01*
X138625215Y-115561090D01*
X138712729Y-115574951D01*
X138874028Y-115600499D01*
X138874035Y-115600499D01*
X138874038Y-115600500D01*
X138874041Y-115600500D01*
X139125959Y-115600500D01*
X139125962Y-115600500D01*
X139125965Y-115600499D01*
X139125971Y-115600499D01*
X139243513Y-115581881D01*
X139374785Y-115561090D01*
X139614379Y-115483241D01*
X139838845Y-115368870D01*
X140042656Y-115220793D01*
X140220793Y-115042656D01*
X140368870Y-114838845D01*
X140483241Y-114614379D01*
X140561090Y-114374785D01*
X140583371Y-114234108D01*
X140600499Y-114125971D01*
X140600500Y-114125959D01*
X140600500Y-113874040D01*
X140600499Y-113874028D01*
X140574951Y-113712729D01*
X140561090Y-113625215D01*
X140483241Y-113385621D01*
X140368870Y-113161155D01*
X140220793Y-112957344D01*
X140198361Y-112934912D01*
X156152500Y-112934912D01*
X156152500Y-115371087D01*
X156152501Y-115371103D01*
X156186806Y-115587695D01*
X156189447Y-115604368D01*
X156262432Y-115828992D01*
X156362683Y-116025747D01*
X156369659Y-116039437D01*
X156508478Y-116230504D01*
X156508480Y-116230506D01*
X156508483Y-116230510D01*
X156675490Y-116397517D01*
X156675493Y-116397519D01*
X156675495Y-116397521D01*
X156866562Y-116536340D01*
X156866564Y-116536341D01*
X156866567Y-116536343D01*
X157077008Y-116643568D01*
X157301632Y-116716553D01*
X157534908Y-116753500D01*
X157534912Y-116753500D01*
X157771088Y-116753500D01*
X157771092Y-116753500D01*
X158004368Y-116716553D01*
X158228992Y-116643568D01*
X158439433Y-116536343D01*
X158630510Y-116397517D01*
X158797517Y-116230510D01*
X158936343Y-116039433D01*
X159043568Y-115828992D01*
X159116553Y-115604368D01*
X159153500Y-115371092D01*
X159153500Y-113505304D01*
X160131500Y-113505304D01*
X160131500Y-113682695D01*
X160166104Y-113856659D01*
X160166105Y-113856661D01*
X160166106Y-113856666D01*
X160222447Y-113992686D01*
X160233988Y-114020549D01*
X160332533Y-114168031D01*
X160332536Y-114168035D01*
X160457965Y-114293464D01*
X160457969Y-114293467D01*
X160457968Y-114293467D01*
X160526809Y-114339465D01*
X160595508Y-114408164D01*
X160632687Y-114497924D01*
X160632686Y-114595079D01*
X160595506Y-114684838D01*
X160526809Y-114753535D01*
X160457969Y-114799532D01*
X160332533Y-114924968D01*
X160233988Y-115072450D01*
X160233987Y-115072453D01*
X160172543Y-115220795D01*
X160166104Y-115236340D01*
X160131500Y-115410304D01*
X160131500Y-115587695D01*
X160166104Y-115761659D01*
X160166105Y-115761661D01*
X160166106Y-115761666D01*
X160233987Y-115925547D01*
X160233988Y-115925549D01*
X160332533Y-116073031D01*
X160332536Y-116073035D01*
X160457965Y-116198464D01*
X160457969Y-116198467D01*
X160457968Y-116198467D01*
X160526809Y-116244465D01*
X160595508Y-116313164D01*
X160632687Y-116402924D01*
X160632686Y-116500079D01*
X160595506Y-116589838D01*
X160526809Y-116658535D01*
X160457969Y-116704532D01*
X160332533Y-116829968D01*
X160233988Y-116977450D01*
X160166104Y-117141340D01*
X160131500Y-117315304D01*
X160131500Y-117492695D01*
X160166104Y-117666659D01*
X160166105Y-117666661D01*
X160166106Y-117666666D01*
X160233987Y-117830547D01*
X160332536Y-117978035D01*
X160457965Y-118103464D01*
X160457969Y-118103467D01*
X160457968Y-118103467D01*
X160526809Y-118149465D01*
X160595508Y-118218164D01*
X160632687Y-118307924D01*
X160632686Y-118405079D01*
X160595506Y-118494838D01*
X160526809Y-118563535D01*
X160457969Y-118609532D01*
X160332533Y-118734968D01*
X160233988Y-118882450D01*
X160233987Y-118882453D01*
X160171328Y-119033729D01*
X160166104Y-119046340D01*
X160131500Y-119220304D01*
X160131500Y-119397695D01*
X160166104Y-119571659D01*
X160166105Y-119571661D01*
X160166106Y-119571666D01*
X160233987Y-119735547D01*
X160233988Y-119735549D01*
X160330842Y-119880500D01*
X160332536Y-119883035D01*
X160457965Y-120008464D01*
X160605453Y-120107013D01*
X160725883Y-120156896D01*
X160806662Y-120210870D01*
X160860638Y-120291651D01*
X160879593Y-120386939D01*
X160860640Y-120482228D01*
X160806664Y-120563010D01*
X160768930Y-120593977D01*
X160653587Y-120671046D01*
X160549046Y-120775587D01*
X160466917Y-120898503D01*
X160466915Y-120898507D01*
X160410341Y-121035088D01*
X160381500Y-121180079D01*
X160381500Y-121327920D01*
X160410341Y-121472911D01*
X160466915Y-121609492D01*
X160466917Y-121609498D01*
X160471039Y-121615666D01*
X160508217Y-121705426D01*
X160508216Y-121802581D01*
X160471039Y-121892334D01*
X160466917Y-121898501D01*
X160466915Y-121898507D01*
X160410341Y-122035088D01*
X160381500Y-122180079D01*
X160381500Y-122327920D01*
X160410341Y-122472911D01*
X160466915Y-122609492D01*
X160466917Y-122609498D01*
X160471039Y-122615666D01*
X160508217Y-122705426D01*
X160508216Y-122802581D01*
X160471039Y-122892334D01*
X160466917Y-122898501D01*
X160466915Y-122898507D01*
X160410341Y-123035088D01*
X160381500Y-123180079D01*
X160381500Y-123327920D01*
X160410341Y-123472911D01*
X160466915Y-123609492D01*
X160466917Y-123609498D01*
X160471039Y-123615666D01*
X160508217Y-123705426D01*
X160508216Y-123802581D01*
X160471039Y-123892334D01*
X160466917Y-123898501D01*
X160466915Y-123898507D01*
X160410341Y-124035088D01*
X160381500Y-124180079D01*
X160381500Y-124327920D01*
X160410341Y-124472911D01*
X160466915Y-124609492D01*
X160466917Y-124609498D01*
X160471039Y-124615666D01*
X160508217Y-124705426D01*
X160508216Y-124802581D01*
X160471039Y-124892334D01*
X160466917Y-124898501D01*
X160466915Y-124898507D01*
X160410341Y-125035088D01*
X160381500Y-125180079D01*
X160381500Y-125327920D01*
X160410341Y-125472911D01*
X160466915Y-125609492D01*
X160466917Y-125609498D01*
X160471039Y-125615666D01*
X160508217Y-125705426D01*
X160508216Y-125802581D01*
X160471039Y-125892334D01*
X160466917Y-125898501D01*
X160466915Y-125898507D01*
X160410341Y-126035088D01*
X160381500Y-126180079D01*
X160381500Y-126327920D01*
X160410341Y-126472911D01*
X160410342Y-126472913D01*
X160466916Y-126609495D01*
X160549049Y-126732416D01*
X160653584Y-126836951D01*
X160776505Y-126919084D01*
X160913087Y-126975658D01*
X161058080Y-127004499D01*
X161058081Y-127004500D01*
X161058082Y-127004500D01*
X171205919Y-127004500D01*
X171205919Y-127004499D01*
X171350913Y-126975658D01*
X171487495Y-126919084D01*
X171610416Y-126836951D01*
X171714951Y-126732416D01*
X171797084Y-126609495D01*
X171822548Y-126548018D01*
X171876524Y-126467238D01*
X171957305Y-126413261D01*
X172052593Y-126394307D01*
X174738869Y-126394307D01*
X174738870Y-126394307D01*
X174738870Y-123428959D01*
X177308935Y-123428959D01*
X177308936Y-123428959D01*
X180827621Y-123428959D01*
X180827622Y-123428959D01*
X180827622Y-114481962D01*
X177308935Y-114481962D01*
X177308935Y-123428959D01*
X174738870Y-123428959D01*
X174738870Y-122078878D01*
X172038173Y-122078878D01*
X171942885Y-122059924D01*
X171862103Y-122005948D01*
X171815738Y-121941787D01*
X171811628Y-121933619D01*
X171797084Y-121898505D01*
X171784447Y-121879593D01*
X171777563Y-121865909D01*
X171768621Y-121833574D01*
X171755784Y-121802584D01*
X171755783Y-121787148D01*
X171751669Y-121772269D01*
X171755782Y-121738975D01*
X171755781Y-121705429D01*
X171761688Y-121691165D01*
X171763581Y-121675847D01*
X171780120Y-121646664D01*
X171792956Y-121615671D01*
X171797084Y-121609495D01*
X171853658Y-121472913D01*
X171882500Y-121327918D01*
X171882500Y-121180082D01*
X171853658Y-121035087D01*
X171797084Y-120898505D01*
X171714951Y-120775584D01*
X171610416Y-120671049D01*
X171561270Y-120638211D01*
X171479762Y-120583749D01*
X171411063Y-120515050D01*
X171373884Y-120425291D01*
X171373883Y-120328136D01*
X171411063Y-120238376D01*
X171479762Y-120169677D01*
X171493922Y-120160887D01*
X171507904Y-120152842D01*
X171618547Y-120107013D01*
X171766035Y-120008464D01*
X171775783Y-119998715D01*
X171800769Y-119984340D01*
X171827643Y-119975262D01*
X171852659Y-119961890D01*
X171873230Y-119959863D01*
X171892814Y-119953248D01*
X171921114Y-119955145D01*
X171949345Y-119952364D01*
X171969127Y-119958364D01*
X171989751Y-119959747D01*
X172015170Y-119972329D01*
X172042318Y-119980564D01*
X172058298Y-119993678D01*
X172076823Y-120002848D01*
X172095493Y-120024202D01*
X172117421Y-120042197D01*
X172127165Y-120060427D01*
X172140772Y-120075989D01*
X172149849Y-120102863D01*
X172163222Y-120127879D01*
X172167076Y-120153861D01*
X172171864Y-120168034D01*
X172171028Y-120180498D01*
X172173946Y-120200166D01*
X172173946Y-120466714D01*
X172173947Y-120466714D01*
X174989514Y-120466714D01*
X174989515Y-120466714D01*
X174989515Y-109581582D01*
X172173946Y-109581582D01*
X172173946Y-109581583D01*
X172173946Y-109738440D01*
X172154992Y-109833728D01*
X172101016Y-109914510D01*
X172020234Y-109968486D01*
X171924946Y-109987440D01*
X171829658Y-109968486D01*
X171748879Y-109914512D01*
X171670416Y-109836049D01*
X171666942Y-109833728D01*
X171606632Y-109793430D01*
X171547495Y-109753916D01*
X171410913Y-109697342D01*
X171410911Y-109697341D01*
X171265920Y-109668500D01*
X171265918Y-109668500D01*
X160958082Y-109668500D01*
X160958079Y-109668500D01*
X160813088Y-109697341D01*
X160676507Y-109753915D01*
X160676503Y-109753917D01*
X160553587Y-109836046D01*
X160449046Y-109940587D01*
X160366917Y-110063503D01*
X160366915Y-110063507D01*
X160310341Y-110200088D01*
X160281500Y-110345079D01*
X160281500Y-110492920D01*
X160310341Y-110637911D01*
X160310342Y-110637913D01*
X160366916Y-110774495D01*
X160366917Y-110774496D01*
X160455845Y-110907587D01*
X160454553Y-110908449D01*
X160493718Y-110981733D01*
X160503236Y-111078421D01*
X160475027Y-111171391D01*
X160455700Y-111200316D01*
X160455845Y-111200413D01*
X160366917Y-111333503D01*
X160366915Y-111333507D01*
X160310341Y-111470088D01*
X160281500Y-111615079D01*
X160281500Y-111762920D01*
X160310341Y-111907911D01*
X160310342Y-111907913D01*
X160366916Y-112044495D01*
X160449049Y-112167416D01*
X160553584Y-112271951D01*
X160596873Y-112300876D01*
X160670242Y-112349899D01*
X160738941Y-112418598D01*
X160776120Y-112508357D01*
X160776121Y-112605512D01*
X160738941Y-112695272D01*
X160670242Y-112763971D01*
X160627199Y-112786979D01*
X160605453Y-112795986D01*
X160605451Y-112795987D01*
X160457968Y-112894533D01*
X160332533Y-113019968D01*
X160233988Y-113167450D01*
X160233987Y-113167453D01*
X160182323Y-113292184D01*
X160166104Y-113331340D01*
X160131500Y-113505304D01*
X159153500Y-113505304D01*
X159153500Y-112934908D01*
X159116553Y-112701632D01*
X159043568Y-112477008D01*
X158936343Y-112266567D01*
X158936341Y-112266564D01*
X158936340Y-112266562D01*
X158797521Y-112075495D01*
X158797519Y-112075493D01*
X158797517Y-112075490D01*
X158630510Y-111908483D01*
X158630506Y-111908480D01*
X158630504Y-111908478D01*
X158439437Y-111769659D01*
X158425747Y-111762683D01*
X158228992Y-111662432D01*
X158228989Y-111662431D01*
X158228987Y-111662430D01*
X158083255Y-111615079D01*
X158004368Y-111589447D01*
X158004366Y-111589446D01*
X158004364Y-111589446D01*
X157771103Y-111552501D01*
X157771094Y-111552500D01*
X157771092Y-111552500D01*
X157534908Y-111552500D01*
X157534905Y-111552500D01*
X157534896Y-111552501D01*
X157301635Y-111589446D01*
X157077012Y-111662430D01*
X156866562Y-111769659D01*
X156675495Y-111908478D01*
X156508478Y-112075495D01*
X156369659Y-112266562D01*
X156262430Y-112477012D01*
X156189446Y-112701635D01*
X156152501Y-112934896D01*
X156152500Y-112934912D01*
X140198361Y-112934912D01*
X140042656Y-112779207D01*
X140042652Y-112779204D01*
X139838851Y-112631134D01*
X139838849Y-112631133D01*
X139838845Y-112631130D01*
X139614379Y-112516759D01*
X139614376Y-112516758D01*
X139614374Y-112516757D01*
X139374782Y-112438909D01*
X139125971Y-112399500D01*
X139125962Y-112399500D01*
X138874038Y-112399500D01*
X138874028Y-112399500D01*
X138625217Y-112438909D01*
X138385625Y-112516757D01*
X138385621Y-112516758D01*
X138385621Y-112516759D01*
X138161155Y-112631130D01*
X138161153Y-112631131D01*
X138161148Y-112631134D01*
X137957347Y-112779204D01*
X137779204Y-112957347D01*
X137631134Y-113161148D01*
X137631131Y-113161153D01*
X137631130Y-113161155D01*
X137544420Y-113331334D01*
X137516757Y-113385625D01*
X137438909Y-113625217D01*
X137399500Y-113874028D01*
X133499253Y-113874028D01*
X133479387Y-113748607D01*
X133463553Y-113648632D01*
X133390568Y-113424008D01*
X133283343Y-113213567D01*
X133283341Y-113213564D01*
X133283340Y-113213562D01*
X133144521Y-113022495D01*
X133144519Y-113022493D01*
X133144517Y-113022490D01*
X132977510Y-112855483D01*
X132977506Y-112855480D01*
X132977504Y-112855478D01*
X132786437Y-112716659D01*
X132756945Y-112701632D01*
X132575992Y-112609432D01*
X132575989Y-112609431D01*
X132575987Y-112609430D01*
X132451079Y-112568845D01*
X132351368Y-112536447D01*
X132351366Y-112536446D01*
X132351364Y-112536446D01*
X132118103Y-112499501D01*
X132118094Y-112499500D01*
X132118092Y-112499500D01*
X131881908Y-112499500D01*
X131881905Y-112499500D01*
X131881896Y-112499501D01*
X131648635Y-112536446D01*
X131424012Y-112609430D01*
X131213562Y-112716659D01*
X131022495Y-112855478D01*
X130855478Y-113022495D01*
X130716659Y-113213562D01*
X130609430Y-113424012D01*
X130536446Y-113648635D01*
X130499501Y-113881896D01*
X130499500Y-113881912D01*
X127348631Y-113881912D01*
X127317246Y-113683757D01*
X127251557Y-113481588D01*
X127155051Y-113292184D01*
X127030104Y-113120208D01*
X126879792Y-112969896D01*
X126707816Y-112844949D01*
X126518412Y-112748443D01*
X126518409Y-112748442D01*
X126518407Y-112748441D01*
X126316240Y-112682753D01*
X126106296Y-112649500D01*
X126106287Y-112649500D01*
X125893713Y-112649500D01*
X125893703Y-112649500D01*
X125683759Y-112682753D01*
X125481592Y-112748441D01*
X125481588Y-112748442D01*
X125481588Y-112748443D01*
X125355318Y-112812780D01*
X125292182Y-112844950D01*
X125120206Y-112969897D01*
X124969897Y-113120206D01*
X124844950Y-113292182D01*
X124748441Y-113481592D01*
X124682753Y-113683759D01*
X124649500Y-113893703D01*
X122420500Y-113893703D01*
X122420500Y-111694108D01*
X122399324Y-111615079D01*
X122386393Y-111566818D01*
X122386392Y-111566814D01*
X122320500Y-111452686D01*
X122227314Y-111359500D01*
X122113186Y-111293608D01*
X122113183Y-111293607D01*
X122113181Y-111293606D01*
X121985892Y-111259500D01*
X115049500Y-111259500D01*
X114954212Y-111240546D01*
X114873430Y-111186570D01*
X114819454Y-111105788D01*
X114800500Y-111010500D01*
X114800500Y-110205123D01*
X150052500Y-110205123D01*
X150052500Y-112300865D01*
X150052500Y-112300868D01*
X150052501Y-112300872D01*
X150054567Y-112320093D01*
X150058908Y-112360480D01*
X150058909Y-112360483D01*
X150109204Y-112495331D01*
X150195454Y-112610546D01*
X150310669Y-112696796D01*
X150445517Y-112747091D01*
X150505127Y-112753500D01*
X155200872Y-112753499D01*
X155260483Y-112747091D01*
X155395331Y-112696796D01*
X155510546Y-112610546D01*
X155596796Y-112495331D01*
X155647091Y-112360483D01*
X155653500Y-112300873D01*
X155653499Y-110205128D01*
X155647091Y-110145517D01*
X155596796Y-110010669D01*
X155510546Y-109895454D01*
X155395331Y-109809204D01*
X155315117Y-109779286D01*
X155260481Y-109758908D01*
X155200873Y-109752500D01*
X150505134Y-109752500D01*
X150505130Y-109752500D01*
X150505128Y-109752501D01*
X150492314Y-109753878D01*
X150445519Y-109758908D01*
X150445515Y-109758909D01*
X150310670Y-109809203D01*
X150195455Y-109895453D01*
X150195453Y-109895455D01*
X150109204Y-110010669D01*
X150058908Y-110145518D01*
X150052500Y-110205123D01*
X114800500Y-110205123D01*
X114800500Y-109969500D01*
X114819454Y-109874212D01*
X114873430Y-109793430D01*
X114954212Y-109739454D01*
X115049500Y-109720500D01*
X121985892Y-109720500D01*
X122113186Y-109686392D01*
X122227314Y-109620500D01*
X122320500Y-109527314D01*
X122386392Y-109413186D01*
X122420500Y-109285892D01*
X122420500Y-106614108D01*
X122386392Y-106486814D01*
X122320500Y-106372686D01*
X122227314Y-106279500D01*
X122113186Y-106213608D01*
X122113183Y-106213607D01*
X122113181Y-106213606D01*
X121985892Y-106179500D01*
X115049500Y-106179500D01*
X114954212Y-106160546D01*
X114873430Y-106106570D01*
X114819454Y-106025788D01*
X114800500Y-105930500D01*
X114800500Y-104889500D01*
X114819454Y-104794212D01*
X114873430Y-104713430D01*
X114954212Y-104659454D01*
X115049500Y-104640500D01*
X121985892Y-104640500D01*
X122113186Y-104606392D01*
X122227314Y-104540500D01*
X122320500Y-104447314D01*
X122386392Y-104333186D01*
X122420500Y-104205892D01*
X122420500Y-98994108D01*
X122418262Y-98985757D01*
X122386393Y-98866818D01*
X122386392Y-98866814D01*
X122320500Y-98752686D01*
X122227314Y-98659500D01*
X122113186Y-98593608D01*
X122113183Y-98593607D01*
X122113181Y-98593606D01*
X121985892Y-98559500D01*
X115049500Y-98559500D01*
X114954212Y-98540546D01*
X114873430Y-98486570D01*
X114819454Y-98405788D01*
X114800500Y-98310500D01*
X114800500Y-94729500D01*
X114819454Y-94634212D01*
X114873430Y-94553430D01*
X114954212Y-94499454D01*
X115049500Y-94480500D01*
X121985892Y-94480500D01*
X122113186Y-94446392D01*
X122227314Y-94380500D01*
X122320500Y-94287314D01*
X122386392Y-94173186D01*
X122420500Y-94045892D01*
X122420500Y-86294108D01*
X122418262Y-86285757D01*
X122386393Y-86166818D01*
X122386392Y-86166814D01*
X122320500Y-86052686D01*
X122227314Y-85959500D01*
X122113186Y-85893608D01*
X122113183Y-85893607D01*
X122113181Y-85893606D01*
X121985892Y-85859500D01*
X115049500Y-85859500D01*
X114954212Y-85840546D01*
X114873430Y-85786570D01*
X114819454Y-85705788D01*
X114800500Y-85610500D01*
X114800500Y-83169123D01*
X126544500Y-83169123D01*
X126544500Y-84964865D01*
X126544500Y-84964868D01*
X126544501Y-84964872D01*
X126546567Y-84984093D01*
X126550908Y-85024480D01*
X126550909Y-85024484D01*
X126576130Y-85092104D01*
X126601204Y-85159331D01*
X126687454Y-85274546D01*
X126802669Y-85360796D01*
X126802670Y-85360796D01*
X126816927Y-85371469D01*
X126814572Y-85374614D01*
X126863869Y-85415825D01*
X126908889Y-85501919D01*
X126917536Y-85598689D01*
X126888492Y-85691401D01*
X126869739Y-85718633D01*
X126870647Y-85719293D01*
X126739950Y-85899182D01*
X126643441Y-86088592D01*
X126577753Y-86290759D01*
X126544500Y-86500703D01*
X126544500Y-86713296D01*
X126577753Y-86923240D01*
X126641816Y-87120407D01*
X126643443Y-87125412D01*
X126739949Y-87314816D01*
X126861264Y-87481792D01*
X126864897Y-87486793D01*
X127015207Y-87637103D01*
X127068131Y-87675555D01*
X127134080Y-87746899D01*
X127167707Y-87838049D01*
X127163892Y-87935129D01*
X127123217Y-88023359D01*
X127068131Y-88078445D01*
X127015207Y-88116896D01*
X126864897Y-88267206D01*
X126739950Y-88439182D01*
X126643441Y-88628592D01*
X126577753Y-88830759D01*
X126544500Y-89040703D01*
X126544500Y-89253296D01*
X126577753Y-89463240D01*
X126641816Y-89660407D01*
X126643443Y-89665412D01*
X126739949Y-89854816D01*
X126861264Y-90021792D01*
X126864897Y-90026793D01*
X127015207Y-90177103D01*
X127068131Y-90215555D01*
X127134080Y-90286899D01*
X127167707Y-90378049D01*
X127163892Y-90475129D01*
X127123217Y-90563359D01*
X127068131Y-90618445D01*
X127015207Y-90656896D01*
X126864897Y-90807206D01*
X126739950Y-90979182D01*
X126643441Y-91168592D01*
X126577753Y-91370759D01*
X126544500Y-91580703D01*
X126544500Y-91793296D01*
X126577753Y-92003240D01*
X126641936Y-92200776D01*
X126643443Y-92205412D01*
X126739949Y-92394816D01*
X126861264Y-92561792D01*
X126864897Y-92566793D01*
X127015207Y-92717103D01*
X127068131Y-92755555D01*
X127134080Y-92826899D01*
X127167707Y-92918049D01*
X127163892Y-93015129D01*
X127123217Y-93103359D01*
X127068131Y-93158445D01*
X127015207Y-93196896D01*
X126864897Y-93347206D01*
X126743582Y-93514184D01*
X126739949Y-93519184D01*
X126694612Y-93608164D01*
X126643441Y-93708592D01*
X126577753Y-93910759D01*
X126544500Y-94120703D01*
X126544500Y-94333296D01*
X126577753Y-94543240D01*
X126641816Y-94740407D01*
X126643443Y-94745412D01*
X126739949Y-94934816D01*
X126861264Y-95101792D01*
X126864897Y-95106793D01*
X127015207Y-95257103D01*
X127068131Y-95295555D01*
X127134080Y-95366899D01*
X127167707Y-95458049D01*
X127163892Y-95555129D01*
X127123217Y-95643359D01*
X127068131Y-95698445D01*
X127015207Y-95736896D01*
X126864897Y-95887206D01*
X126743582Y-96054184D01*
X126739949Y-96059184D01*
X126664038Y-96208169D01*
X126643441Y-96248592D01*
X126577753Y-96450759D01*
X126544500Y-96660703D01*
X126544500Y-96873296D01*
X126577753Y-97083240D01*
X126641816Y-97280407D01*
X126643443Y-97285412D01*
X126739949Y-97474816D01*
X126861264Y-97641792D01*
X126864897Y-97646793D01*
X127015207Y-97797103D01*
X127068131Y-97835555D01*
X127134080Y-97906899D01*
X127167707Y-97998049D01*
X127163892Y-98095129D01*
X127123217Y-98183359D01*
X127068131Y-98238445D01*
X127015207Y-98276896D01*
X126864897Y-98427206D01*
X126739950Y-98599182D01*
X126643441Y-98788592D01*
X126577753Y-98990759D01*
X126544500Y-99200703D01*
X126544500Y-99413296D01*
X126577753Y-99623240D01*
X126641816Y-99820407D01*
X126643443Y-99825412D01*
X126739949Y-100014816D01*
X126861264Y-100181792D01*
X126864897Y-100186793D01*
X127015207Y-100337103D01*
X127068131Y-100375555D01*
X127134080Y-100446899D01*
X127167707Y-100538049D01*
X127163892Y-100635129D01*
X127123217Y-100723359D01*
X127068131Y-100778445D01*
X127015207Y-100816896D01*
X126864897Y-100967206D01*
X126739950Y-101139182D01*
X126643441Y-101328592D01*
X126577753Y-101530759D01*
X126544500Y-101740703D01*
X126544500Y-101953296D01*
X126577753Y-102163240D01*
X126641816Y-102360407D01*
X126643443Y-102365412D01*
X126739949Y-102554816D01*
X126861264Y-102721792D01*
X126864897Y-102726793D01*
X127015207Y-102877103D01*
X127068131Y-102915555D01*
X127134080Y-102986899D01*
X127167707Y-103078049D01*
X127163892Y-103175129D01*
X127123217Y-103263359D01*
X127068131Y-103318445D01*
X127015207Y-103356896D01*
X126864897Y-103507206D01*
X126739950Y-103679182D01*
X126643441Y-103868592D01*
X126577753Y-104070759D01*
X126544500Y-104280703D01*
X126544500Y-104493296D01*
X126577753Y-104703240D01*
X126641846Y-104900499D01*
X126643443Y-104905412D01*
X126739949Y-105094816D01*
X126861264Y-105261792D01*
X126864897Y-105266793D01*
X127015207Y-105417103D01*
X127068131Y-105455555D01*
X127134080Y-105526899D01*
X127167707Y-105618049D01*
X127163892Y-105715129D01*
X127123217Y-105803359D01*
X127068131Y-105858445D01*
X127015207Y-105896896D01*
X126864897Y-106047206D01*
X126739950Y-106219182D01*
X126643441Y-106408592D01*
X126577753Y-106610759D01*
X126544500Y-106820703D01*
X126544500Y-107033296D01*
X126577753Y-107243240D01*
X126639200Y-107432355D01*
X126643443Y-107445412D01*
X126739949Y-107634816D01*
X126864896Y-107806792D01*
X127015208Y-107957104D01*
X127187184Y-108082051D01*
X127376588Y-108178557D01*
X127578757Y-108244246D01*
X127652601Y-108255941D01*
X127788703Y-108277499D01*
X127788710Y-108277499D01*
X127788713Y-108277500D01*
X127788716Y-108277500D01*
X128001284Y-108277500D01*
X128001287Y-108277500D01*
X128001290Y-108277499D01*
X128001296Y-108277499D01*
X128100476Y-108261789D01*
X128211243Y-108244246D01*
X128413412Y-108178557D01*
X128602816Y-108082051D01*
X128774792Y-107957104D01*
X128925104Y-107806792D01*
X128937213Y-107790125D01*
X128948101Y-107775140D01*
X129019444Y-107709192D01*
X129110594Y-107675565D01*
X129149545Y-107672500D01*
X143189991Y-107672500D01*
X143285279Y-107691454D01*
X143366061Y-107745430D01*
X143420037Y-107826212D01*
X143429902Y-107864891D01*
X143432326Y-107864319D01*
X143435909Y-107879484D01*
X143486203Y-108014329D01*
X143486204Y-108014331D01*
X143572454Y-108129546D01*
X143687669Y-108215796D01*
X143822517Y-108266091D01*
X143882127Y-108272500D01*
X145677872Y-108272499D01*
X145737483Y-108266091D01*
X145872331Y-108215796D01*
X145987546Y-108129546D01*
X146073796Y-108014331D01*
X146124091Y-107879483D01*
X146130500Y-107819873D01*
X146130499Y-106099123D01*
X153194500Y-106099123D01*
X153194500Y-107194865D01*
X153194501Y-107194869D01*
X153200908Y-107254480D01*
X153200909Y-107254484D01*
X153243896Y-107369737D01*
X153251204Y-107389331D01*
X153337454Y-107504546D01*
X153452669Y-107590796D01*
X153587517Y-107641091D01*
X153647127Y-107647500D01*
X156252872Y-107647499D01*
X156312483Y-107641091D01*
X156447331Y-107590796D01*
X156562546Y-107504546D01*
X156562549Y-107504542D01*
X156567988Y-107497278D01*
X156640266Y-107432355D01*
X156731887Y-107400034D01*
X156767321Y-107397500D01*
X159879083Y-107397500D01*
X159881551Y-107397500D01*
X159908897Y-107400193D01*
X159908985Y-107399301D01*
X159921158Y-107400500D01*
X160078842Y-107400500D01*
X160233497Y-107369737D01*
X160379179Y-107309394D01*
X160510289Y-107221789D01*
X160621789Y-107110289D01*
X160709394Y-106979179D01*
X160769737Y-106833497D01*
X160800500Y-106678842D01*
X160800500Y-106521158D01*
X160769737Y-106366503D01*
X160709394Y-106220821D01*
X160708300Y-106219184D01*
X160621791Y-106089714D01*
X160621789Y-106089711D01*
X160510289Y-105978211D01*
X160510285Y-105978208D01*
X160379180Y-105890606D01*
X160379173Y-105890603D01*
X160233497Y-105830263D01*
X160233492Y-105830261D01*
X160078846Y-105799500D01*
X160078842Y-105799500D01*
X159921158Y-105799500D01*
X159921153Y-105799500D01*
X159766507Y-105830261D01*
X159766502Y-105830263D01*
X159652350Y-105877546D01*
X159557063Y-105896500D01*
X156767321Y-105896500D01*
X156672033Y-105877546D01*
X156591251Y-105823570D01*
X156567988Y-105796722D01*
X156562549Y-105789457D01*
X156562547Y-105789455D01*
X156562546Y-105789454D01*
X156447331Y-105703204D01*
X156367117Y-105673286D01*
X156312481Y-105652908D01*
X156252873Y-105646500D01*
X153647134Y-105646500D01*
X153647130Y-105646500D01*
X153647128Y-105646501D01*
X153634314Y-105647878D01*
X153587519Y-105652908D01*
X153587515Y-105652909D01*
X153452670Y-105703203D01*
X153337455Y-105789453D01*
X153337453Y-105789455D01*
X153251204Y-105904669D01*
X153200908Y-106039518D01*
X153194500Y-106099123D01*
X146130499Y-106099123D01*
X146130499Y-106024128D01*
X146124091Y-105964517D01*
X146073796Y-105829669D01*
X145987546Y-105714454D01*
X145872331Y-105628204D01*
X145872329Y-105628203D01*
X145858073Y-105617531D01*
X145860426Y-105614387D01*
X145811106Y-105573144D01*
X145766099Y-105487043D01*
X145757467Y-105390272D01*
X145786526Y-105297564D01*
X145805274Y-105270376D01*
X145804353Y-105269707D01*
X145810104Y-105261792D01*
X145935051Y-105089816D01*
X146031557Y-104900412D01*
X146097246Y-104698243D01*
X146122230Y-104540500D01*
X146130499Y-104488296D01*
X146130500Y-104488284D01*
X146130500Y-104275715D01*
X146130499Y-104275703D01*
X146108941Y-104139601D01*
X146097246Y-104065757D01*
X146031557Y-103863588D01*
X145935051Y-103674184D01*
X145851455Y-103559123D01*
X149884500Y-103559123D01*
X149884500Y-104654865D01*
X149884501Y-104654869D01*
X149890908Y-104714480D01*
X149890909Y-104714484D01*
X149920646Y-104794212D01*
X149941204Y-104849331D01*
X150027454Y-104964546D01*
X150142669Y-105050796D01*
X150277517Y-105101091D01*
X150337127Y-105107500D01*
X152942872Y-105107499D01*
X153002483Y-105101091D01*
X153137331Y-105050796D01*
X153252546Y-104964546D01*
X153252549Y-104964542D01*
X153257988Y-104957278D01*
X153330266Y-104892355D01*
X153421887Y-104860034D01*
X153457321Y-104857500D01*
X159689228Y-104857500D01*
X159761510Y-104868222D01*
X159766495Y-104869733D01*
X159766503Y-104869737D01*
X159921158Y-104900500D01*
X160078842Y-104900500D01*
X160233497Y-104869737D01*
X160379179Y-104809394D01*
X160510289Y-104721789D01*
X160621789Y-104610289D01*
X160709394Y-104479179D01*
X160769737Y-104333497D01*
X160800500Y-104178842D01*
X160800500Y-104021158D01*
X160769737Y-103866503D01*
X160709394Y-103720821D01*
X160653052Y-103636500D01*
X160621791Y-103589714D01*
X160621789Y-103589711D01*
X160510289Y-103478211D01*
X160510285Y-103478208D01*
X160379180Y-103390606D01*
X160379173Y-103390603D01*
X160233497Y-103330263D01*
X160233492Y-103330261D01*
X160078846Y-103299500D01*
X160078842Y-103299500D01*
X159921158Y-103299500D01*
X159921153Y-103299500D01*
X159766506Y-103330261D01*
X159766499Y-103330264D01*
X159748919Y-103337546D01*
X159653631Y-103356500D01*
X159558343Y-103337546D01*
X159477562Y-103283569D01*
X159423586Y-103202787D01*
X159404632Y-103107499D01*
X159404643Y-103105201D01*
X159404818Y-103086185D01*
X153468637Y-103356243D01*
X153372586Y-103341639D01*
X153289435Y-103291389D01*
X153257988Y-103256722D01*
X153252549Y-103249457D01*
X153252547Y-103249455D01*
X153252546Y-103249454D01*
X153137331Y-103163204D01*
X153013452Y-103117000D01*
X153002481Y-103112908D01*
X152942873Y-103106500D01*
X150337134Y-103106500D01*
X150337130Y-103106500D01*
X150337128Y-103106501D01*
X150324314Y-103107878D01*
X150277519Y-103112908D01*
X150277515Y-103112909D01*
X150142670Y-103163203D01*
X150027455Y-103249453D01*
X150027453Y-103249455D01*
X149941204Y-103364669D01*
X149890908Y-103499518D01*
X149884500Y-103559123D01*
X145851455Y-103559123D01*
X145810104Y-103502208D01*
X145659792Y-103351896D01*
X145606867Y-103313444D01*
X145540920Y-103242103D01*
X145507293Y-103150953D01*
X145511107Y-103053873D01*
X145551781Y-102965642D01*
X145606867Y-102910555D01*
X145659792Y-102872104D01*
X145810104Y-102721792D01*
X145935051Y-102549816D01*
X146031557Y-102360412D01*
X146097246Y-102158243D01*
X146130500Y-101948287D01*
X146130500Y-101735713D01*
X146130499Y-101735710D01*
X146130499Y-101735703D01*
X146097246Y-101525759D01*
X146097246Y-101525757D01*
X146031557Y-101323588D01*
X145935051Y-101134184D01*
X145851455Y-101019123D01*
X153194500Y-101019123D01*
X153194500Y-102114865D01*
X153194501Y-102114869D01*
X153200908Y-102174480D01*
X153200909Y-102174483D01*
X153251204Y-102309331D01*
X153337454Y-102424546D01*
X153452669Y-102510796D01*
X153587517Y-102561091D01*
X153647127Y-102567500D01*
X154831380Y-102567499D01*
X154831394Y-102567500D01*
X154851459Y-102567500D01*
X159611034Y-102567500D01*
X159659609Y-102572283D01*
X159704812Y-102581275D01*
X159801459Y-102600500D01*
X159801460Y-102600500D01*
X159998539Y-102600500D01*
X159998540Y-102600500D01*
X159998541Y-102600500D01*
X160095188Y-102581275D01*
X160191836Y-102562051D01*
X160245165Y-102539961D01*
X160373914Y-102486632D01*
X160537782Y-102377139D01*
X160677139Y-102237782D01*
X160786632Y-102073914D01*
X160839961Y-101945165D01*
X160862051Y-101891836D01*
X160890570Y-101748460D01*
X160900500Y-101698541D01*
X160900500Y-101501459D01*
X160873970Y-101368086D01*
X160862051Y-101308164D01*
X160835682Y-101244505D01*
X160786632Y-101126086D01*
X160677139Y-100962218D01*
X160674438Y-100959517D01*
X160537785Y-100822863D01*
X160504783Y-100789862D01*
X160504782Y-100789861D01*
X160340914Y-100680368D01*
X160340909Y-100680365D01*
X160231698Y-100635129D01*
X160212165Y-100627038D01*
X160212162Y-100627036D01*
X160186821Y-100610104D01*
X160170543Y-100608500D01*
X160158833Y-100604948D01*
X160062189Y-100585724D01*
X160062188Y-100585724D01*
X159965541Y-100566500D01*
X154851459Y-100566500D01*
X154851456Y-100566500D01*
X153647134Y-100566500D01*
X153647130Y-100566500D01*
X153647128Y-100566501D01*
X153634314Y-100567878D01*
X153587519Y-100572908D01*
X153587515Y-100572909D01*
X153452670Y-100623203D01*
X153337455Y-100709453D01*
X153337453Y-100709455D01*
X153251204Y-100824669D01*
X153200908Y-100959518D01*
X153194500Y-101019123D01*
X145851455Y-101019123D01*
X145810104Y-100962208D01*
X145659792Y-100811896D01*
X145606866Y-100773443D01*
X145540920Y-100702103D01*
X145507293Y-100610953D01*
X145511107Y-100513873D01*
X145551781Y-100425642D01*
X145606867Y-100370555D01*
X145659792Y-100332104D01*
X145810104Y-100181792D01*
X145935051Y-100009816D01*
X146031557Y-99820412D01*
X146097246Y-99618243D01*
X146130500Y-99408287D01*
X146130500Y-99195713D01*
X146130499Y-99195710D01*
X146130499Y-99195703D01*
X146108941Y-99059601D01*
X146097246Y-98985757D01*
X146031557Y-98783588D01*
X145935051Y-98594184D01*
X145851455Y-98479123D01*
X149884500Y-98479123D01*
X149884500Y-99574865D01*
X149884501Y-99574869D01*
X149890908Y-99634480D01*
X149890909Y-99634484D01*
X149941203Y-99769329D01*
X149941204Y-99769331D01*
X150027454Y-99884546D01*
X150142669Y-99970796D01*
X150277517Y-100021091D01*
X150337127Y-100027500D01*
X151536380Y-100027499D01*
X151536394Y-100027500D01*
X151556459Y-100027500D01*
X159871541Y-100027500D01*
X160007278Y-100000500D01*
X160064836Y-99989051D01*
X160130019Y-99962051D01*
X160246914Y-99913632D01*
X160410782Y-99804139D01*
X160550139Y-99664782D01*
X160550140Y-99664781D01*
X160577139Y-99637782D01*
X160579344Y-99634483D01*
X160651567Y-99526392D01*
X160686632Y-99473914D01*
X160750867Y-99318836D01*
X160762051Y-99291836D01*
X160770206Y-99250836D01*
X160795128Y-99125549D01*
X160795129Y-99125541D01*
X160800500Y-99098541D01*
X160800500Y-98901459D01*
X160767422Y-98735165D01*
X160762051Y-98708164D01*
X160716910Y-98599184D01*
X160686632Y-98526086D01*
X160604419Y-98403046D01*
X160577140Y-98362219D01*
X160437781Y-98222860D01*
X160396953Y-98195580D01*
X160273914Y-98113368D01*
X160134070Y-98055443D01*
X160091836Y-98037949D01*
X160091832Y-98037948D01*
X159994353Y-98018557D01*
X159994346Y-98018557D01*
X159898541Y-97999500D01*
X159701459Y-97999500D01*
X159701456Y-97999500D01*
X159630790Y-98013557D01*
X159605654Y-98018557D01*
X159589778Y-98021715D01*
X159541200Y-98026500D01*
X150337134Y-98026500D01*
X150337130Y-98026500D01*
X150337128Y-98026501D01*
X150324314Y-98027878D01*
X150277519Y-98032908D01*
X150277515Y-98032909D01*
X150142670Y-98083203D01*
X150027455Y-98169453D01*
X150027453Y-98169455D01*
X149941204Y-98284669D01*
X149890908Y-98419518D01*
X149884500Y-98479123D01*
X145851455Y-98479123D01*
X145810104Y-98422208D01*
X145659792Y-98271896D01*
X145606867Y-98233444D01*
X145540920Y-98162103D01*
X145507293Y-98070953D01*
X145511107Y-97973873D01*
X145551781Y-97885642D01*
X145606867Y-97830555D01*
X145659792Y-97792104D01*
X145810104Y-97641792D01*
X145935051Y-97469816D01*
X146031557Y-97280412D01*
X146097246Y-97078243D01*
X146130500Y-96868287D01*
X146130500Y-96655713D01*
X146130499Y-96655710D01*
X146130499Y-96655703D01*
X146097246Y-96445759D01*
X146097246Y-96445757D01*
X146031557Y-96243588D01*
X145935051Y-96054184D01*
X145851455Y-95939123D01*
X153194500Y-95939123D01*
X153194500Y-97034865D01*
X153194501Y-97034869D01*
X153200908Y-97094480D01*
X153200909Y-97094483D01*
X153251204Y-97229331D01*
X153337454Y-97344546D01*
X153452669Y-97430796D01*
X153587517Y-97481091D01*
X153647127Y-97487500D01*
X156252872Y-97487499D01*
X156312483Y-97481091D01*
X156447331Y-97430796D01*
X156447333Y-97430794D01*
X156462964Y-97422260D01*
X156464416Y-97424920D01*
X156526461Y-97395235D01*
X156588043Y-97387500D01*
X159378653Y-97387500D01*
X159473941Y-97406454D01*
X159608165Y-97462051D01*
X159608166Y-97462051D01*
X159608168Y-97462052D01*
X159736094Y-97487498D01*
X159801459Y-97500500D01*
X159998541Y-97500500D01*
X160191835Y-97462051D01*
X160373914Y-97386632D01*
X160537782Y-97277139D01*
X160677139Y-97137782D01*
X160786632Y-96973914D01*
X160862051Y-96791835D01*
X160900500Y-96598541D01*
X160900500Y-96401459D01*
X160862051Y-96208165D01*
X160786632Y-96026086D01*
X160677139Y-95862218D01*
X160537782Y-95722861D01*
X160510015Y-95704308D01*
X160418799Y-95643359D01*
X160373914Y-95613368D01*
X160373911Y-95613366D01*
X160373908Y-95613365D01*
X160191835Y-95537949D01*
X160191830Y-95537947D01*
X159998545Y-95499500D01*
X159998541Y-95499500D01*
X159801459Y-95499500D01*
X159801454Y-95499500D01*
X159608168Y-95537947D01*
X159608164Y-95537949D01*
X159536711Y-95567546D01*
X159441422Y-95586500D01*
X159346134Y-95567546D01*
X159265353Y-95513569D01*
X159211377Y-95432788D01*
X159195443Y-95365781D01*
X156609131Y-95585605D01*
X156512580Y-95574789D01*
X156464022Y-95549801D01*
X156462964Y-95551740D01*
X156447334Y-95543205D01*
X156312481Y-95492908D01*
X156252873Y-95486500D01*
X153647134Y-95486500D01*
X153647130Y-95486500D01*
X153647128Y-95486501D01*
X153634314Y-95487878D01*
X153587519Y-95492908D01*
X153587515Y-95492909D01*
X153452670Y-95543203D01*
X153337455Y-95629453D01*
X153337453Y-95629455D01*
X153251204Y-95744669D01*
X153200908Y-95879518D01*
X153194500Y-95939123D01*
X145851455Y-95939123D01*
X145810104Y-95882208D01*
X145659792Y-95731896D01*
X145606867Y-95693444D01*
X145540920Y-95622103D01*
X145507293Y-95530953D01*
X145511107Y-95433873D01*
X145551781Y-95345642D01*
X145606867Y-95290555D01*
X145659792Y-95252104D01*
X145810104Y-95101792D01*
X145935051Y-94929816D01*
X146031557Y-94740412D01*
X146097246Y-94538243D01*
X146122230Y-94380500D01*
X146130499Y-94328296D01*
X146130500Y-94328284D01*
X146130500Y-94115715D01*
X146130499Y-94115703D01*
X146108941Y-93979601D01*
X146097246Y-93905757D01*
X146031557Y-93703588D01*
X145935051Y-93514184D01*
X145851455Y-93399123D01*
X149884500Y-93399123D01*
X149884500Y-94494865D01*
X149884501Y-94494869D01*
X149890908Y-94554480D01*
X149890909Y-94554484D01*
X149936657Y-94677141D01*
X149941204Y-94689331D01*
X150027454Y-94804546D01*
X150142669Y-94890796D01*
X150277517Y-94941091D01*
X150337127Y-94947500D01*
X152942872Y-94947499D01*
X153002483Y-94941091D01*
X153137331Y-94890796D01*
X153137333Y-94890794D01*
X153152964Y-94882260D01*
X153154416Y-94884920D01*
X153216461Y-94855235D01*
X153278043Y-94847500D01*
X159423507Y-94847500D01*
X159495457Y-94861811D01*
X159496462Y-94858501D01*
X159508168Y-94862052D01*
X159652669Y-94890795D01*
X159701459Y-94900500D01*
X159898541Y-94900500D01*
X160091835Y-94862051D01*
X160273914Y-94786632D01*
X160437782Y-94677139D01*
X160577139Y-94537782D01*
X160686632Y-94373914D01*
X160762051Y-94191835D01*
X160800500Y-93998541D01*
X160800500Y-93801459D01*
X160762051Y-93608165D01*
X160686632Y-93426086D01*
X160577139Y-93262218D01*
X160437782Y-93122861D01*
X160387786Y-93089455D01*
X160354104Y-93066949D01*
X160273914Y-93013368D01*
X160273911Y-93013366D01*
X160273908Y-93013365D01*
X160091835Y-92937949D01*
X160091830Y-92937947D01*
X159898545Y-92899500D01*
X159898541Y-92899500D01*
X159701459Y-92899500D01*
X159701454Y-92899500D01*
X159508169Y-92937947D01*
X159508164Y-92937949D01*
X159326094Y-93013364D01*
X159326088Y-93013367D01*
X159326086Y-93013368D01*
X159326083Y-93013369D01*
X159319111Y-93017097D01*
X159226140Y-93045301D01*
X159201730Y-93046500D01*
X153278043Y-93046500D01*
X153182755Y-93027546D01*
X153153446Y-93010856D01*
X153152964Y-93011740D01*
X153137334Y-93003205D01*
X153002481Y-92952908D01*
X152942873Y-92946500D01*
X150337134Y-92946500D01*
X150337130Y-92946500D01*
X150337128Y-92946501D01*
X150324314Y-92947878D01*
X150277519Y-92952908D01*
X150277515Y-92952909D01*
X150142670Y-93003203D01*
X150027455Y-93089453D01*
X150027453Y-93089455D01*
X149941204Y-93204669D01*
X149890908Y-93339518D01*
X149884500Y-93399123D01*
X145851455Y-93399123D01*
X145810104Y-93342208D01*
X145659792Y-93191896D01*
X145606867Y-93153444D01*
X145540920Y-93082103D01*
X145507293Y-92990953D01*
X145511107Y-92893873D01*
X145551781Y-92805642D01*
X145606867Y-92750555D01*
X145659792Y-92712104D01*
X145810104Y-92561792D01*
X145935051Y-92389816D01*
X146031557Y-92200412D01*
X146097246Y-91998243D01*
X146130500Y-91788287D01*
X146130500Y-91575713D01*
X146130499Y-91575710D01*
X146130499Y-91575703D01*
X146097246Y-91365759D01*
X146097246Y-91365757D01*
X146031557Y-91163588D01*
X145935051Y-90974184D01*
X145851455Y-90859123D01*
X153194500Y-90859123D01*
X153194500Y-91954865D01*
X153194501Y-91954869D01*
X153200908Y-92014480D01*
X153200909Y-92014484D01*
X153247182Y-92138547D01*
X153251204Y-92149331D01*
X153337454Y-92264546D01*
X153452669Y-92350796D01*
X153587517Y-92401091D01*
X153647127Y-92407500D01*
X156252872Y-92407499D01*
X156312483Y-92401091D01*
X156447331Y-92350796D01*
X156539009Y-92282166D01*
X156626649Y-92240235D01*
X156688230Y-92232500D01*
X159974306Y-92232500D01*
X159974307Y-92232499D01*
X160110483Y-92205412D01*
X160133785Y-92200777D01*
X160133785Y-92200776D01*
X160133789Y-92200776D01*
X160284021Y-92138548D01*
X160419225Y-92048208D01*
X160541208Y-91926226D01*
X160631548Y-91791021D01*
X160693776Y-91640789D01*
X160725499Y-91481306D01*
X160725499Y-91318695D01*
X160693776Y-91159211D01*
X160631548Y-91008979D01*
X160541208Y-90873775D01*
X160426225Y-90758792D01*
X160291021Y-90668452D01*
X160291018Y-90668450D01*
X160291015Y-90668449D01*
X160140791Y-90606224D01*
X160061047Y-90590362D01*
X159981305Y-90574501D01*
X159818694Y-90574501D01*
X159818692Y-90574501D01*
X159807558Y-90576716D01*
X159710403Y-90576715D01*
X159620644Y-90539535D01*
X159551946Y-90470835D01*
X159522830Y-90411447D01*
X159457300Y-90215430D01*
X156721056Y-90579327D01*
X156624101Y-90573100D01*
X156539009Y-90531834D01*
X156481662Y-90488904D01*
X156447331Y-90463204D01*
X156323452Y-90417000D01*
X156312481Y-90412908D01*
X156252873Y-90406500D01*
X153647134Y-90406500D01*
X153647130Y-90406500D01*
X153647128Y-90406501D01*
X153634314Y-90407878D01*
X153587519Y-90412908D01*
X153587515Y-90412909D01*
X153452670Y-90463203D01*
X153337455Y-90549453D01*
X153337453Y-90549455D01*
X153251204Y-90664669D01*
X153200908Y-90799518D01*
X153194500Y-90859123D01*
X145851455Y-90859123D01*
X145810104Y-90802208D01*
X145659792Y-90651896D01*
X145606867Y-90613444D01*
X145540920Y-90542103D01*
X145507293Y-90450953D01*
X145511107Y-90353873D01*
X145551781Y-90265642D01*
X145606867Y-90210555D01*
X145659792Y-90172104D01*
X145810104Y-90021792D01*
X145935051Y-89849816D01*
X146031557Y-89660412D01*
X146097246Y-89458243D01*
X146114789Y-89347476D01*
X146130499Y-89248296D01*
X146130500Y-89248284D01*
X146130500Y-89035715D01*
X146130499Y-89035703D01*
X146097246Y-88825759D01*
X146097246Y-88825757D01*
X146031557Y-88623588D01*
X145935051Y-88434184D01*
X145851455Y-88319123D01*
X149884500Y-88319123D01*
X149884500Y-89414865D01*
X149884500Y-89414868D01*
X149884501Y-89414872D01*
X149886567Y-89434093D01*
X149890908Y-89474480D01*
X149890909Y-89474484D01*
X149941203Y-89609329D01*
X149941204Y-89609331D01*
X150027454Y-89724546D01*
X150142669Y-89810796D01*
X150277517Y-89861091D01*
X150337127Y-89867500D01*
X152942872Y-89867499D01*
X153002483Y-89861091D01*
X153137331Y-89810796D01*
X153229009Y-89742166D01*
X153316649Y-89700235D01*
X153378230Y-89692500D01*
X159628270Y-89692500D01*
X159676848Y-89697285D01*
X159818689Y-89725499D01*
X159818694Y-89725500D01*
X159818695Y-89725500D01*
X159981306Y-89725500D01*
X159981307Y-89725499D01*
X160061047Y-89709638D01*
X160140785Y-89693777D01*
X160140785Y-89693776D01*
X160140789Y-89693776D01*
X160291021Y-89631548D01*
X160426225Y-89541208D01*
X160541208Y-89426225D01*
X160631548Y-89291021D01*
X160693776Y-89140789D01*
X160725500Y-88981305D01*
X160725500Y-88818695D01*
X160693776Y-88659211D01*
X160631548Y-88508979D01*
X160541208Y-88373775D01*
X160393225Y-88225792D01*
X160258021Y-88135452D01*
X160107789Y-88073224D01*
X160107787Y-88073223D01*
X160107786Y-88073223D01*
X160107785Y-88073222D01*
X159948309Y-88041500D01*
X159948305Y-88041500D01*
X153378230Y-88041500D01*
X153282942Y-88022546D01*
X153229009Y-87991834D01*
X153189383Y-87962170D01*
X153137331Y-87923204D01*
X153013452Y-87877000D01*
X153002481Y-87872908D01*
X152942873Y-87866500D01*
X150337134Y-87866500D01*
X150337130Y-87866500D01*
X150337128Y-87866501D01*
X150324314Y-87867878D01*
X150277519Y-87872908D01*
X150277515Y-87872909D01*
X150142670Y-87923203D01*
X150027455Y-88009453D01*
X150027453Y-88009455D01*
X149941204Y-88124669D01*
X149890908Y-88259518D01*
X149884500Y-88319123D01*
X145851455Y-88319123D01*
X145810104Y-88262208D01*
X145659792Y-88111896D01*
X145606867Y-88073444D01*
X145540920Y-88002103D01*
X145507293Y-87910953D01*
X145511107Y-87813873D01*
X145551781Y-87725642D01*
X145606867Y-87670555D01*
X145659792Y-87632104D01*
X145810104Y-87481792D01*
X145935051Y-87309816D01*
X146031557Y-87120412D01*
X146097246Y-86918243D01*
X146130500Y-86708287D01*
X146130500Y-86495713D01*
X146130499Y-86495710D01*
X146130499Y-86495703D01*
X146108941Y-86359601D01*
X146097246Y-86285757D01*
X146031557Y-86083588D01*
X145935051Y-85894184D01*
X145851455Y-85779123D01*
X153194500Y-85779123D01*
X153194500Y-86874865D01*
X153194501Y-86874869D01*
X153200908Y-86934480D01*
X153200909Y-86934484D01*
X153251203Y-87069329D01*
X153251204Y-87069331D01*
X153337454Y-87184546D01*
X153452669Y-87270796D01*
X153587517Y-87321091D01*
X153647127Y-87327500D01*
X156252872Y-87327499D01*
X156312483Y-87321091D01*
X156447331Y-87270796D01*
X156562546Y-87184546D01*
X156562549Y-87184542D01*
X156567988Y-87177278D01*
X156640266Y-87112355D01*
X156731887Y-87080034D01*
X156767321Y-87077500D01*
X159681007Y-87077500D01*
X159729585Y-87082284D01*
X159821158Y-87100500D01*
X159978842Y-87100500D01*
X160133497Y-87069737D01*
X160279179Y-87009394D01*
X160410289Y-86921789D01*
X160521789Y-86810289D01*
X160609394Y-86679179D01*
X160669737Y-86533497D01*
X160700500Y-86378842D01*
X160700500Y-86221158D01*
X160673136Y-86083592D01*
X160669738Y-86066507D01*
X160669737Y-86066505D01*
X160669737Y-86066503D01*
X160609394Y-85920821D01*
X160594935Y-85899182D01*
X160521791Y-85789714D01*
X160521789Y-85789711D01*
X160410289Y-85678211D01*
X160410285Y-85678208D01*
X160279180Y-85590606D01*
X160279173Y-85590603D01*
X160133497Y-85530263D01*
X160133492Y-85530261D01*
X159978846Y-85499500D01*
X159978842Y-85499500D01*
X159821158Y-85499500D01*
X159821153Y-85499500D01*
X159666507Y-85530261D01*
X159666502Y-85530263D01*
X159600635Y-85557546D01*
X159505348Y-85576500D01*
X156767321Y-85576500D01*
X156672033Y-85557546D01*
X156591251Y-85503570D01*
X156567988Y-85476722D01*
X156562549Y-85469457D01*
X156562547Y-85469455D01*
X156562546Y-85469454D01*
X156447331Y-85383204D01*
X156359494Y-85350443D01*
X156312481Y-85332908D01*
X156252873Y-85326500D01*
X153647134Y-85326500D01*
X153647130Y-85326500D01*
X153647128Y-85326501D01*
X153634314Y-85327878D01*
X153587519Y-85332908D01*
X153587515Y-85332909D01*
X153452670Y-85383203D01*
X153337455Y-85469453D01*
X153337453Y-85469455D01*
X153251204Y-85584669D01*
X153200908Y-85719518D01*
X153194500Y-85779123D01*
X145851455Y-85779123D01*
X145810104Y-85722208D01*
X145659792Y-85571896D01*
X145606867Y-85533444D01*
X145540920Y-85462103D01*
X145507293Y-85370953D01*
X145511107Y-85273873D01*
X145551781Y-85185642D01*
X145606867Y-85130555D01*
X145659792Y-85092104D01*
X145810104Y-84941792D01*
X145935051Y-84769816D01*
X146031557Y-84580412D01*
X146097246Y-84378243D01*
X146130500Y-84168287D01*
X146130500Y-83955713D01*
X146130499Y-83955710D01*
X146130499Y-83955703D01*
X146097246Y-83745759D01*
X146097246Y-83745757D01*
X146031557Y-83543588D01*
X145935051Y-83354184D01*
X145851455Y-83239123D01*
X149884500Y-83239123D01*
X149884500Y-84334865D01*
X149884501Y-84334869D01*
X149890908Y-84394480D01*
X149890909Y-84394484D01*
X149941203Y-84529329D01*
X149941204Y-84529331D01*
X150027454Y-84644546D01*
X150142669Y-84730796D01*
X150277517Y-84781091D01*
X150337127Y-84787500D01*
X152942872Y-84787499D01*
X153002483Y-84781091D01*
X153137331Y-84730796D01*
X153252546Y-84644546D01*
X153252549Y-84644542D01*
X153257988Y-84637278D01*
X153330266Y-84572355D01*
X153421887Y-84540034D01*
X153457321Y-84537500D01*
X159539148Y-84537500D01*
X159634433Y-84556453D01*
X159666503Y-84569737D01*
X159666506Y-84569737D01*
X159666507Y-84569738D01*
X159679664Y-84572355D01*
X159821158Y-84600500D01*
X159978842Y-84600500D01*
X160133497Y-84569737D01*
X160279179Y-84509394D01*
X160410289Y-84421789D01*
X160521789Y-84310289D01*
X160609394Y-84179179D01*
X160669737Y-84033497D01*
X160700500Y-83878842D01*
X160700500Y-83721158D01*
X160669737Y-83566503D01*
X160609394Y-83420821D01*
X160521789Y-83289711D01*
X160410289Y-83178211D01*
X160396688Y-83169123D01*
X160279180Y-83090606D01*
X160279173Y-83090603D01*
X160133497Y-83030263D01*
X160133492Y-83030261D01*
X159978846Y-82999500D01*
X159978842Y-82999500D01*
X159821158Y-82999500D01*
X159821153Y-82999500D01*
X159659202Y-83031715D01*
X159610624Y-83036500D01*
X153457321Y-83036500D01*
X153362033Y-83017546D01*
X153281251Y-82963570D01*
X153257988Y-82936722D01*
X153252549Y-82929457D01*
X153252547Y-82929455D01*
X153252546Y-82929454D01*
X153137331Y-82843204D01*
X153049489Y-82810441D01*
X153002481Y-82792908D01*
X152942873Y-82786500D01*
X150337134Y-82786500D01*
X150337130Y-82786500D01*
X150337128Y-82786501D01*
X150324314Y-82787878D01*
X150277519Y-82792908D01*
X150277515Y-82792909D01*
X150142670Y-82843203D01*
X150027455Y-82929453D01*
X150027453Y-82929455D01*
X149941204Y-83044669D01*
X149890908Y-83179518D01*
X149884500Y-83239123D01*
X145851455Y-83239123D01*
X145810104Y-83182208D01*
X145659792Y-83031896D01*
X145487816Y-82906949D01*
X145298412Y-82810443D01*
X145298409Y-82810442D01*
X145298407Y-82810441D01*
X145096240Y-82744753D01*
X144886296Y-82711500D01*
X144886287Y-82711500D01*
X144673713Y-82711500D01*
X144673703Y-82711500D01*
X144463759Y-82744753D01*
X144261592Y-82810441D01*
X144072182Y-82906950D01*
X143900206Y-83031897D01*
X143888534Y-83043570D01*
X143807752Y-83097546D01*
X143712464Y-83116500D01*
X129413980Y-83116500D01*
X129318692Y-83097546D01*
X129237910Y-83043570D01*
X129195437Y-82986832D01*
X129188796Y-82974669D01*
X129154950Y-82929457D01*
X129102546Y-82859454D01*
X128987331Y-82773204D01*
X128907117Y-82743286D01*
X128852481Y-82722908D01*
X128792873Y-82716500D01*
X126997134Y-82716500D01*
X126997130Y-82716500D01*
X126997128Y-82716501D01*
X126984314Y-82717878D01*
X126937519Y-82722908D01*
X126937515Y-82722909D01*
X126802670Y-82773203D01*
X126687455Y-82859453D01*
X126687453Y-82859455D01*
X126601204Y-82974669D01*
X126550908Y-83109518D01*
X126544500Y-83169123D01*
X114800500Y-83169123D01*
X114800500Y-79489500D01*
X114819454Y-79394212D01*
X114873430Y-79313430D01*
X114954212Y-79259454D01*
X115049500Y-79240500D01*
X170114108Y-79240500D01*
X170171847Y-79240500D01*
X170188132Y-79241033D01*
G37*
%TD.AperFunction*%
%TA.AperFunction,NonConductor*%
G36*
X143432990Y-84625105D02*
G01*
X143471697Y-84629687D01*
X143480332Y-84634522D01*
X143490041Y-84636454D01*
X143522455Y-84658112D01*
X143556465Y-84677158D01*
X143563043Y-84685231D01*
X143570823Y-84690430D01*
X143600005Y-84730596D01*
X143612859Y-84746372D01*
X143614790Y-84749878D01*
X143624949Y-84769816D01*
X143695194Y-84866500D01*
X143749897Y-84941793D01*
X143900207Y-85092103D01*
X143953131Y-85130555D01*
X144019080Y-85201899D01*
X144052707Y-85293049D01*
X144048892Y-85390129D01*
X144008217Y-85478359D01*
X143961055Y-85527443D01*
X143957151Y-85530524D01*
X143900208Y-85571896D01*
X143883209Y-85588894D01*
X143871747Y-85597943D01*
X143841233Y-85613515D01*
X143812752Y-85632546D01*
X143798318Y-85635416D01*
X143785210Y-85642107D01*
X143751061Y-85644817D01*
X143717464Y-85651500D01*
X129317801Y-85651500D01*
X129222513Y-85632546D01*
X129141731Y-85578570D01*
X129087755Y-85497788D01*
X129068801Y-85402500D01*
X129087755Y-85307212D01*
X129118467Y-85253279D01*
X129145587Y-85217051D01*
X129188796Y-85159331D01*
X129239091Y-85024483D01*
X129245500Y-84964873D01*
X129245500Y-84866500D01*
X129264454Y-84771212D01*
X129318430Y-84690430D01*
X129399212Y-84636454D01*
X129494500Y-84617500D01*
X143394753Y-84617500D01*
X143432990Y-84625105D01*
G37*
%TD.AperFunction*%
%TA.AperFunction,NonConductor*%
G36*
X143487494Y-87171454D02*
G01*
X143568276Y-87225430D01*
X143614065Y-87288455D01*
X143624949Y-87309816D01*
X143749897Y-87481793D01*
X143900207Y-87632103D01*
X143953131Y-87670555D01*
X144019080Y-87741899D01*
X144052707Y-87833049D01*
X144048892Y-87930129D01*
X144008217Y-88018359D01*
X143974785Y-88055773D01*
X143964449Y-88065222D01*
X143900208Y-88111896D01*
X143759594Y-88252509D01*
X143755478Y-88256273D01*
X143718603Y-88278591D01*
X143682754Y-88302546D01*
X143677202Y-88303650D01*
X143672362Y-88306580D01*
X143629747Y-88313089D01*
X143587466Y-88321500D01*
X129082536Y-88321500D01*
X128987248Y-88302546D01*
X128906466Y-88248570D01*
X128774793Y-88116897D01*
X128767910Y-88111896D01*
X128721867Y-88078444D01*
X128655920Y-88007103D01*
X128622293Y-87915953D01*
X128626107Y-87818873D01*
X128666781Y-87730642D01*
X128721867Y-87675555D01*
X128774792Y-87637104D01*
X128925104Y-87486792D01*
X129050051Y-87314816D01*
X129063482Y-87288454D01*
X129123629Y-87212159D01*
X129208396Y-87164687D01*
X129285342Y-87152500D01*
X143392206Y-87152500D01*
X143487494Y-87171454D01*
G37*
%TD.AperFunction*%
%TA.AperFunction,NonConductor*%
G36*
X143692753Y-89991454D02*
G01*
X143773531Y-90045427D01*
X143773535Y-90045431D01*
X143900201Y-90172098D01*
X143900206Y-90172103D01*
X143953131Y-90210555D01*
X144019080Y-90281899D01*
X144052707Y-90373049D01*
X144048892Y-90470129D01*
X144008217Y-90558359D01*
X143936873Y-90624308D01*
X143921994Y-90629796D01*
X143907641Y-90645548D01*
X143900208Y-90651895D01*
X143768534Y-90783570D01*
X143687752Y-90837546D01*
X143592464Y-90856500D01*
X129077535Y-90856500D01*
X128982247Y-90837546D01*
X128909934Y-90791649D01*
X128905604Y-90787708D01*
X128774792Y-90656896D01*
X128710770Y-90610382D01*
X128700626Y-90601149D01*
X128679763Y-90572896D01*
X128655920Y-90547103D01*
X128651131Y-90534122D01*
X128642913Y-90522993D01*
X128634449Y-90488904D01*
X128622293Y-90455953D01*
X128622836Y-90442129D01*
X128619502Y-90428701D01*
X128624728Y-90393964D01*
X128626107Y-90358873D01*
X128631898Y-90346310D01*
X128633957Y-90332627D01*
X128652077Y-90302537D01*
X128666781Y-90270642D01*
X128678104Y-90259318D01*
X128684078Y-90249399D01*
X128699164Y-90238258D01*
X128721867Y-90215555D01*
X128774792Y-90177104D01*
X128906466Y-90045430D01*
X128987248Y-89991454D01*
X129082536Y-89972500D01*
X143597465Y-89972500D01*
X143692753Y-89991454D01*
G37*
%TD.AperFunction*%
%TA.AperFunction,NonConductor*%
G36*
X143687752Y-92526454D02*
G01*
X143768534Y-92580430D01*
X143900208Y-92712104D01*
X143907089Y-92717103D01*
X143953131Y-92750555D01*
X144019080Y-92821899D01*
X144052707Y-92913049D01*
X144048892Y-93010129D01*
X144008217Y-93098359D01*
X143970171Y-93139887D01*
X143961938Y-93147046D01*
X143900208Y-93191896D01*
X143832415Y-93259688D01*
X143825863Y-93265387D01*
X143791081Y-93285276D01*
X143757752Y-93307546D01*
X143749142Y-93309258D01*
X143741524Y-93313615D01*
X143701774Y-93318680D01*
X143662464Y-93326500D01*
X129007536Y-93326500D01*
X128912248Y-93307546D01*
X128831466Y-93253570D01*
X128774793Y-93196897D01*
X128767910Y-93191896D01*
X128721867Y-93158444D01*
X128655920Y-93087103D01*
X128622293Y-92995953D01*
X128626107Y-92898873D01*
X128666781Y-92810642D01*
X128721867Y-92755555D01*
X128774792Y-92717104D01*
X128911466Y-92580430D01*
X128992246Y-92526454D01*
X129087534Y-92507500D01*
X143592464Y-92507500D01*
X143687752Y-92526454D01*
G37*
%TD.AperFunction*%
%TA.AperFunction,NonConductor*%
G36*
X143767752Y-95146454D02*
G01*
X143848534Y-95200430D01*
X143900207Y-95252103D01*
X143953131Y-95290555D01*
X144019080Y-95361899D01*
X144052707Y-95453049D01*
X144048892Y-95550129D01*
X144008217Y-95638359D01*
X143936873Y-95704308D01*
X143925308Y-95708574D01*
X143907641Y-95725548D01*
X143900208Y-95731895D01*
X143843534Y-95788570D01*
X143762752Y-95842546D01*
X143667464Y-95861500D01*
X129002536Y-95861500D01*
X128907248Y-95842546D01*
X128840183Y-95801292D01*
X128833078Y-95795182D01*
X128774792Y-95736896D01*
X128713612Y-95692446D01*
X128705874Y-95685792D01*
X128682103Y-95655428D01*
X128655920Y-95627103D01*
X128652346Y-95617417D01*
X128645985Y-95609291D01*
X128635642Y-95572139D01*
X128622293Y-95535953D01*
X128622698Y-95525639D01*
X128619930Y-95515695D01*
X128624593Y-95477408D01*
X128626107Y-95438873D01*
X128630428Y-95429499D01*
X128631676Y-95419253D01*
X128650633Y-95385668D01*
X128666781Y-95350642D01*
X128675104Y-95342318D01*
X128679435Y-95334647D01*
X128694820Y-95322602D01*
X128721867Y-95295555D01*
X128774792Y-95257104D01*
X128831466Y-95200430D01*
X128912248Y-95146454D01*
X129007536Y-95127500D01*
X143672464Y-95127500D01*
X143767752Y-95146454D01*
G37*
%TD.AperFunction*%
%TA.AperFunction,NonConductor*%
G36*
X143762752Y-97681454D02*
G01*
X143841046Y-97732977D01*
X143842310Y-97734206D01*
X143900208Y-97792104D01*
X143906728Y-97796841D01*
X143953131Y-97830555D01*
X144019080Y-97901899D01*
X144052707Y-97993049D01*
X144048892Y-98090129D01*
X144008217Y-98178359D01*
X143953132Y-98233444D01*
X143918033Y-98258945D01*
X143829805Y-98299620D01*
X143771675Y-98306500D01*
X128896443Y-98306500D01*
X128801155Y-98287546D01*
X128750088Y-98258947D01*
X128721867Y-98238444D01*
X128655920Y-98167103D01*
X128622293Y-98075953D01*
X128626107Y-97978873D01*
X128666781Y-97890642D01*
X128721867Y-97835555D01*
X128774792Y-97797104D01*
X128836466Y-97735430D01*
X128917248Y-97681454D01*
X129012536Y-97662500D01*
X143667464Y-97662500D01*
X143762752Y-97681454D01*
G37*
%TD.AperFunction*%
%TA.AperFunction,NonConductor*%
G36*
X143880727Y-100326454D02*
G01*
X143931802Y-100355058D01*
X143953135Y-100370558D01*
X144019082Y-100441902D01*
X144052707Y-100533053D01*
X144048891Y-100630133D01*
X144008214Y-100718363D01*
X143953133Y-100773443D01*
X143924918Y-100793943D01*
X143836688Y-100834619D01*
X143778557Y-100841500D01*
X128889561Y-100841500D01*
X128794273Y-100822546D01*
X128743203Y-100793945D01*
X128721869Y-100778445D01*
X128655920Y-100707103D01*
X128622293Y-100615953D01*
X128626107Y-100518873D01*
X128666782Y-100430642D01*
X128721867Y-100375555D01*
X128750087Y-100355053D01*
X128838316Y-100314380D01*
X128896443Y-100307500D01*
X143785439Y-100307500D01*
X143880727Y-100326454D01*
G37*
%TD.AperFunction*%
%TA.AperFunction,NonConductor*%
G36*
X143873845Y-102861454D02*
G01*
X143924918Y-102890057D01*
X143953133Y-102910557D01*
X144019081Y-102981901D01*
X144052707Y-103073051D01*
X144048891Y-103170131D01*
X144008215Y-103258361D01*
X143953131Y-103313445D01*
X143900207Y-103351896D01*
X143749894Y-103502209D01*
X143726899Y-103533860D01*
X143655556Y-103599808D01*
X143564406Y-103633435D01*
X143467326Y-103629620D01*
X143379095Y-103588944D01*
X143313147Y-103517601D01*
X143279520Y-103426451D01*
X143282501Y-103350585D01*
X129150947Y-103636449D01*
X129055295Y-103619426D01*
X128973438Y-103567095D01*
X128944471Y-103533865D01*
X128925104Y-103507208D01*
X128774792Y-103356896D01*
X128721867Y-103318444D01*
X128655920Y-103247103D01*
X128622293Y-103155953D01*
X128626107Y-103058873D01*
X128666781Y-102970642D01*
X128721867Y-102915555D01*
X128756968Y-102890053D01*
X128845198Y-102849380D01*
X128903325Y-102842500D01*
X143778557Y-102842500D01*
X143873845Y-102861454D01*
G37*
%TD.AperFunction*%
%TA.AperFunction,NonConductor*%
G36*
X143551715Y-105141278D02*
G01*
X143571068Y-105140470D01*
X143598921Y-105150668D01*
X143628009Y-105156454D01*
X143644112Y-105167214D01*
X143662300Y-105173873D01*
X143679642Y-105190954D01*
X143708791Y-105210430D01*
X143734163Y-105240137D01*
X143749896Y-105261792D01*
X143755647Y-105269707D01*
X143754135Y-105270805D01*
X143763337Y-105285400D01*
X143767992Y-105297541D01*
X143791743Y-105339902D01*
X143795114Y-105368267D01*
X143798123Y-105376114D01*
X143797744Y-105390395D01*
X143803209Y-105436378D01*
X143795828Y-105462596D01*
X143795546Y-105473235D01*
X143788180Y-105489762D01*
X143776882Y-105529898D01*
X143761708Y-105549164D01*
X143755999Y-105561976D01*
X143733043Y-105585561D01*
X143716770Y-105606224D01*
X143708322Y-105610960D01*
X143701927Y-105617531D01*
X143687670Y-105628203D01*
X143687669Y-105628204D01*
X143624566Y-105675443D01*
X143572455Y-105714453D01*
X143572453Y-105714455D01*
X143486204Y-105829669D01*
X143435907Y-105964521D01*
X143432327Y-105979674D01*
X143428210Y-105978701D01*
X143409149Y-106040699D01*
X143347234Y-106115570D01*
X143261380Y-106161047D01*
X143189992Y-106171500D01*
X129142279Y-106171500D01*
X129046991Y-106152546D01*
X128969022Y-106101338D01*
X128953520Y-106086320D01*
X128925104Y-106047208D01*
X128774792Y-105896896D01*
X128707619Y-105848092D01*
X128694970Y-105835838D01*
X128677169Y-105810090D01*
X128655920Y-105787103D01*
X128649790Y-105770488D01*
X128639720Y-105755922D01*
X128633126Y-105725319D01*
X128622293Y-105695953D01*
X128622988Y-105678259D01*
X128619258Y-105660946D01*
X128624878Y-105630148D01*
X128626107Y-105598873D01*
X128633520Y-105582790D01*
X128636700Y-105565370D01*
X128653674Y-105539072D01*
X128666781Y-105510642D01*
X128681576Y-105495846D01*
X128689389Y-105483743D01*
X128703291Y-105474131D01*
X128721867Y-105455555D01*
X128774792Y-105417104D01*
X128925104Y-105266792D01*
X128944468Y-105240138D01*
X129015808Y-105174193D01*
X129106958Y-105140566D01*
X129145911Y-105137500D01*
X143532721Y-105137500D01*
X143551715Y-105141278D01*
G37*
%TD.AperFunction*%
M02*
