%TF.GenerationSoftware,KiCad,Pcbnew,10.0.0*%
%TF.CreationDate,2026-09-19T20:02:14-06:00*%
%TF.ProjectId,Millburn_Test_Board,4d696c6c-6275-4726-9e5f-546573745f42,rev?*%
%TF.SameCoordinates,Original*%
%TF.FileFunction,Other,Comment*%
%FSLAX46Y46*%
G04 Gerber Fmt 4.6, Leading zero omitted, Abs format (unit mm)*
G04 Created by KiCad (PCBNEW 10.0.0) date 2026-09-19 20:02:14*
%MOMM*%
%LPD*%
G01*
G04 APERTURE LIST*
%ADD10C,0.150000*%
G04 APERTURE END LIST*
%TO.C,H12*%
D10*
X146500000Y-137000000D02*
G75*
G02*
X139500000Y-137000000I-3500000J0D01*
G01*
X139500000Y-137000000D02*
G75*
G02*
X146500000Y-137000000I3500000J0D01*
G01*
%TO.C,H8*%
X134500000Y-130000000D02*
G75*
G02*
X129500000Y-130000000I-2500000J0D01*
G01*
X129500000Y-130000000D02*
G75*
G02*
X134500000Y-130000000I2500000J0D01*
G01*
%TO.C,H7*%
X128200000Y-130000000D02*
G75*
G02*
X123800000Y-130000000I-2200000J0D01*
G01*
X123800000Y-130000000D02*
G75*
G02*
X128200000Y-130000000I2200000J0D01*
G01*
%TO.C,H10*%
X130000000Y-137000000D02*
G75*
G02*
X124000000Y-137000000I-3000000J0D01*
G01*
X124000000Y-137000000D02*
G75*
G02*
X130000000Y-137000000I3000000J0D01*
G01*
%TO.C,H1*%
X128200000Y-114000000D02*
G75*
G02*
X123800000Y-114000000I-2200000J0D01*
G01*
X123800000Y-114000000D02*
G75*
G02*
X128200000Y-114000000I2200000J0D01*
G01*
%TO.C,H2*%
X134500000Y-114000000D02*
G75*
G02*
X129500000Y-114000000I-2500000J0D01*
G01*
X129500000Y-114000000D02*
G75*
G02*
X134500000Y-114000000I2500000J0D01*
G01*
%TO.C,H5*%
X138200000Y-121000000D02*
G75*
G02*
X131800000Y-121000000I-3200000J0D01*
G01*
X131800000Y-121000000D02*
G75*
G02*
X138200000Y-121000000I3200000J0D01*
G01*
%TO.C,H6*%
X146500000Y-121000000D02*
G75*
G02*
X139500000Y-121000000I-3500000J0D01*
G01*
X139500000Y-121000000D02*
G75*
G02*
X146500000Y-121000000I3500000J0D01*
G01*
%TO.C,H4*%
X130000000Y-121000000D02*
G75*
G02*
X124000000Y-121000000I-3000000J0D01*
G01*
X124000000Y-121000000D02*
G75*
G02*
X130000000Y-121000000I3000000J0D01*
G01*
%TO.C,H3*%
X141700000Y-114000000D02*
G75*
G02*
X136300000Y-114000000I-2700000J0D01*
G01*
X136300000Y-114000000D02*
G75*
G02*
X141700000Y-114000000I2700000J0D01*
G01*
%TO.C,H11*%
X138200000Y-137000000D02*
G75*
G02*
X131800000Y-137000000I-3200000J0D01*
G01*
X131800000Y-137000000D02*
G75*
G02*
X138200000Y-137000000I3200000J0D01*
G01*
%TO.C,H9*%
X141700000Y-130000000D02*
G75*
G02*
X136300000Y-130000000I-2700000J0D01*
G01*
X136300000Y-130000000D02*
G75*
G02*
X141700000Y-130000000I2700000J0D01*
G01*
%TD*%
M02*
