%TF.GenerationSoftware,KiCad,Pcbnew,10.0.0*%
%TF.CreationDate,2026-09-08T12:44:33-06:00*%
%TF.ProjectId,PogoTest1,506f676f-5465-4737-9431-2e6b69636164,rev?*%
%TF.SameCoordinates,Original*%
%TF.FileFunction,Legend,Top*%
%TF.FilePolarity,Positive*%
%FSLAX46Y46*%
G04 Gerber Fmt 4.6, Leading zero omitted, Abs format (unit mm)*
G04 Created by KiCad (PCBNEW 10.0.0) date 2026-09-08 12:44:33*
%MOMM*%
%LPD*%
G01*
G04 APERTURE LIST*
%ADD10C,0.100000*%
%ADD11C,0.150000*%
G04 APERTURE END LIST*
D10*
X155651180Y-85537495D02*
X155651180Y-86108923D01*
X154651180Y-85823209D02*
X155651180Y-85823209D01*
X154651180Y-86442257D02*
X155651180Y-86442257D01*
X155651180Y-86442257D02*
X155651180Y-86823209D01*
X155651180Y-86823209D02*
X155603561Y-86918447D01*
X155603561Y-86918447D02*
X155555942Y-86966066D01*
X155555942Y-86966066D02*
X155460704Y-87013685D01*
X155460704Y-87013685D02*
X155317847Y-87013685D01*
X155317847Y-87013685D02*
X155222609Y-86966066D01*
X155222609Y-86966066D02*
X155174990Y-86918447D01*
X155174990Y-86918447D02*
X155127371Y-86823209D01*
X155127371Y-86823209D02*
X155127371Y-86442257D01*
X155651180Y-87347019D02*
X155651180Y-88013685D01*
X155651180Y-88013685D02*
X154651180Y-87585114D01*
X152264095Y-77463219D02*
X152835523Y-77463219D01*
X152549809Y-78463219D02*
X152549809Y-77463219D01*
X153168857Y-78463219D02*
X153168857Y-77463219D01*
X153168857Y-77463219D02*
X153549809Y-77463219D01*
X153549809Y-77463219D02*
X153645047Y-77510838D01*
X153645047Y-77510838D02*
X153692666Y-77558457D01*
X153692666Y-77558457D02*
X153740285Y-77653695D01*
X153740285Y-77653695D02*
X153740285Y-77796552D01*
X153740285Y-77796552D02*
X153692666Y-77891790D01*
X153692666Y-77891790D02*
X153645047Y-77939409D01*
X153645047Y-77939409D02*
X153549809Y-77987028D01*
X153549809Y-77987028D02*
X153168857Y-77987028D01*
X154597428Y-77796552D02*
X154597428Y-78463219D01*
X154359333Y-77415600D02*
X154121238Y-78129885D01*
X154121238Y-78129885D02*
X154740285Y-78129885D01*
D11*
X153388095Y-91254819D02*
X153388095Y-90254819D01*
X153388095Y-90731009D02*
X153959523Y-90731009D01*
X153959523Y-91254819D02*
X153959523Y-90254819D01*
X154388095Y-90350057D02*
X154435714Y-90302438D01*
X154435714Y-90302438D02*
X154530952Y-90254819D01*
X154530952Y-90254819D02*
X154769047Y-90254819D01*
X154769047Y-90254819D02*
X154864285Y-90302438D01*
X154864285Y-90302438D02*
X154911904Y-90350057D01*
X154911904Y-90350057D02*
X154959523Y-90445295D01*
X154959523Y-90445295D02*
X154959523Y-90540533D01*
X154959523Y-90540533D02*
X154911904Y-90683390D01*
X154911904Y-90683390D02*
X154340476Y-91254819D01*
X154340476Y-91254819D02*
X154959523Y-91254819D01*
D10*
X160258095Y-95665419D02*
X160829523Y-95665419D01*
X160543809Y-96665419D02*
X160543809Y-95665419D01*
X161162857Y-96665419D02*
X161162857Y-95665419D01*
X161162857Y-95665419D02*
X161543809Y-95665419D01*
X161543809Y-95665419D02*
X161639047Y-95713038D01*
X161639047Y-95713038D02*
X161686666Y-95760657D01*
X161686666Y-95760657D02*
X161734285Y-95855895D01*
X161734285Y-95855895D02*
X161734285Y-95998752D01*
X161734285Y-95998752D02*
X161686666Y-96093990D01*
X161686666Y-96093990D02*
X161639047Y-96141609D01*
X161639047Y-96141609D02*
X161543809Y-96189228D01*
X161543809Y-96189228D02*
X161162857Y-96189228D01*
X162115238Y-95760657D02*
X162162857Y-95713038D01*
X162162857Y-95713038D02*
X162258095Y-95665419D01*
X162258095Y-95665419D02*
X162496190Y-95665419D01*
X162496190Y-95665419D02*
X162591428Y-95713038D01*
X162591428Y-95713038D02*
X162639047Y-95760657D01*
X162639047Y-95760657D02*
X162686666Y-95855895D01*
X162686666Y-95855895D02*
X162686666Y-95951133D01*
X162686666Y-95951133D02*
X162639047Y-96093990D01*
X162639047Y-96093990D02*
X162067619Y-96665419D01*
X162067619Y-96665419D02*
X162686666Y-96665419D01*
X167875419Y-75551904D02*
X167875419Y-74980476D01*
X168875419Y-75266190D02*
X167875419Y-75266190D01*
X168875419Y-74647142D02*
X167875419Y-74647142D01*
X167875419Y-74647142D02*
X167875419Y-74266190D01*
X167875419Y-74266190D02*
X167923038Y-74170952D01*
X167923038Y-74170952D02*
X167970657Y-74123333D01*
X167970657Y-74123333D02*
X168065895Y-74075714D01*
X168065895Y-74075714D02*
X168208752Y-74075714D01*
X168208752Y-74075714D02*
X168303990Y-74123333D01*
X168303990Y-74123333D02*
X168351609Y-74170952D01*
X168351609Y-74170952D02*
X168399228Y-74266190D01*
X168399228Y-74266190D02*
X168399228Y-74647142D01*
X167875419Y-73170952D02*
X167875419Y-73647142D01*
X167875419Y-73647142D02*
X168351609Y-73694761D01*
X168351609Y-73694761D02*
X168303990Y-73647142D01*
X168303990Y-73647142D02*
X168256371Y-73551904D01*
X168256371Y-73551904D02*
X168256371Y-73313809D01*
X168256371Y-73313809D02*
X168303990Y-73218571D01*
X168303990Y-73218571D02*
X168351609Y-73170952D01*
X168351609Y-73170952D02*
X168446847Y-73123333D01*
X168446847Y-73123333D02*
X168684942Y-73123333D01*
X168684942Y-73123333D02*
X168780180Y-73170952D01*
X168780180Y-73170952D02*
X168827800Y-73218571D01*
X168827800Y-73218571D02*
X168875419Y-73313809D01*
X168875419Y-73313809D02*
X168875419Y-73551904D01*
X168875419Y-73551904D02*
X168827800Y-73647142D01*
X168827800Y-73647142D02*
X168780180Y-73694761D01*
D11*
X158118095Y-76614819D02*
X158118095Y-75614819D01*
X158118095Y-76091009D02*
X158689523Y-76091009D01*
X158689523Y-76614819D02*
X158689523Y-75614819D01*
X159689523Y-76614819D02*
X159118095Y-76614819D01*
X159403809Y-76614819D02*
X159403809Y-75614819D01*
X159403809Y-75614819D02*
X159308571Y-75757676D01*
X159308571Y-75757676D02*
X159213333Y-75852914D01*
X159213333Y-75852914D02*
X159118095Y-75900533D01*
D10*
X167943419Y-84731904D02*
X167943419Y-84160476D01*
X168943419Y-84446190D02*
X167943419Y-84446190D01*
X168943419Y-83827142D02*
X167943419Y-83827142D01*
X167943419Y-83827142D02*
X167943419Y-83446190D01*
X167943419Y-83446190D02*
X167991038Y-83350952D01*
X167991038Y-83350952D02*
X168038657Y-83303333D01*
X168038657Y-83303333D02*
X168133895Y-83255714D01*
X168133895Y-83255714D02*
X168276752Y-83255714D01*
X168276752Y-83255714D02*
X168371990Y-83303333D01*
X168371990Y-83303333D02*
X168419609Y-83350952D01*
X168419609Y-83350952D02*
X168467228Y-83446190D01*
X168467228Y-83446190D02*
X168467228Y-83827142D01*
X167943419Y-82922380D02*
X167943419Y-82303333D01*
X167943419Y-82303333D02*
X168324371Y-82636666D01*
X168324371Y-82636666D02*
X168324371Y-82493809D01*
X168324371Y-82493809D02*
X168371990Y-82398571D01*
X168371990Y-82398571D02*
X168419609Y-82350952D01*
X168419609Y-82350952D02*
X168514847Y-82303333D01*
X168514847Y-82303333D02*
X168752942Y-82303333D01*
X168752942Y-82303333D02*
X168848180Y-82350952D01*
X168848180Y-82350952D02*
X168895800Y-82398571D01*
X168895800Y-82398571D02*
X168943419Y-82493809D01*
X168943419Y-82493809D02*
X168943419Y-82779523D01*
X168943419Y-82779523D02*
X168895800Y-82874761D01*
X168895800Y-82874761D02*
X168848180Y-82922380D01*
X165585095Y-95726419D02*
X166156523Y-95726419D01*
X165870809Y-96726419D02*
X165870809Y-95726419D01*
X166489857Y-96726419D02*
X166489857Y-95726419D01*
X166489857Y-95726419D02*
X166870809Y-95726419D01*
X166870809Y-95726419D02*
X166966047Y-95774038D01*
X166966047Y-95774038D02*
X167013666Y-95821657D01*
X167013666Y-95821657D02*
X167061285Y-95916895D01*
X167061285Y-95916895D02*
X167061285Y-96059752D01*
X167061285Y-96059752D02*
X167013666Y-96154990D01*
X167013666Y-96154990D02*
X166966047Y-96202609D01*
X166966047Y-96202609D02*
X166870809Y-96250228D01*
X166870809Y-96250228D02*
X166489857Y-96250228D01*
X168013666Y-96726419D02*
X167442238Y-96726419D01*
X167727952Y-96726419D02*
X167727952Y-95726419D01*
X167727952Y-95726419D02*
X167632714Y-95869276D01*
X167632714Y-95869276D02*
X167537476Y-95964514D01*
X167537476Y-95964514D02*
X167442238Y-96012133D01*
X164972019Y-88595904D02*
X164972019Y-88024476D01*
X165972019Y-88310190D02*
X164972019Y-88310190D01*
X165972019Y-87691142D02*
X164972019Y-87691142D01*
X164972019Y-87691142D02*
X164972019Y-87310190D01*
X164972019Y-87310190D02*
X165019638Y-87214952D01*
X165019638Y-87214952D02*
X165067257Y-87167333D01*
X165067257Y-87167333D02*
X165162495Y-87119714D01*
X165162495Y-87119714D02*
X165305352Y-87119714D01*
X165305352Y-87119714D02*
X165400590Y-87167333D01*
X165400590Y-87167333D02*
X165448209Y-87214952D01*
X165448209Y-87214952D02*
X165495828Y-87310190D01*
X165495828Y-87310190D02*
X165495828Y-87691142D01*
X165400590Y-86548285D02*
X165352971Y-86643523D01*
X165352971Y-86643523D02*
X165305352Y-86691142D01*
X165305352Y-86691142D02*
X165210114Y-86738761D01*
X165210114Y-86738761D02*
X165162495Y-86738761D01*
X165162495Y-86738761D02*
X165067257Y-86691142D01*
X165067257Y-86691142D02*
X165019638Y-86643523D01*
X165019638Y-86643523D02*
X164972019Y-86548285D01*
X164972019Y-86548285D02*
X164972019Y-86357809D01*
X164972019Y-86357809D02*
X165019638Y-86262571D01*
X165019638Y-86262571D02*
X165067257Y-86214952D01*
X165067257Y-86214952D02*
X165162495Y-86167333D01*
X165162495Y-86167333D02*
X165210114Y-86167333D01*
X165210114Y-86167333D02*
X165305352Y-86214952D01*
X165305352Y-86214952D02*
X165352971Y-86262571D01*
X165352971Y-86262571D02*
X165400590Y-86357809D01*
X165400590Y-86357809D02*
X165400590Y-86548285D01*
X165400590Y-86548285D02*
X165448209Y-86643523D01*
X165448209Y-86643523D02*
X165495828Y-86691142D01*
X165495828Y-86691142D02*
X165591066Y-86738761D01*
X165591066Y-86738761D02*
X165781542Y-86738761D01*
X165781542Y-86738761D02*
X165876780Y-86691142D01*
X165876780Y-86691142D02*
X165924400Y-86643523D01*
X165924400Y-86643523D02*
X165972019Y-86548285D01*
X165972019Y-86548285D02*
X165972019Y-86357809D01*
X165972019Y-86357809D02*
X165924400Y-86262571D01*
X165924400Y-86262571D02*
X165876780Y-86214952D01*
X165876780Y-86214952D02*
X165781542Y-86167333D01*
X165781542Y-86167333D02*
X165591066Y-86167333D01*
X165591066Y-86167333D02*
X165495828Y-86214952D01*
X165495828Y-86214952D02*
X165448209Y-86262571D01*
X165448209Y-86262571D02*
X165400590Y-86357809D01*
X167907419Y-80351904D02*
X167907419Y-79780476D01*
X168907419Y-80066190D02*
X167907419Y-80066190D01*
X168907419Y-79447142D02*
X167907419Y-79447142D01*
X167907419Y-79447142D02*
X167907419Y-79066190D01*
X167907419Y-79066190D02*
X167955038Y-78970952D01*
X167955038Y-78970952D02*
X168002657Y-78923333D01*
X168002657Y-78923333D02*
X168097895Y-78875714D01*
X168097895Y-78875714D02*
X168240752Y-78875714D01*
X168240752Y-78875714D02*
X168335990Y-78923333D01*
X168335990Y-78923333D02*
X168383609Y-78970952D01*
X168383609Y-78970952D02*
X168431228Y-79066190D01*
X168431228Y-79066190D02*
X168431228Y-79447142D01*
X167907419Y-78018571D02*
X167907419Y-78209047D01*
X167907419Y-78209047D02*
X167955038Y-78304285D01*
X167955038Y-78304285D02*
X168002657Y-78351904D01*
X168002657Y-78351904D02*
X168145514Y-78447142D01*
X168145514Y-78447142D02*
X168335990Y-78494761D01*
X168335990Y-78494761D02*
X168716942Y-78494761D01*
X168716942Y-78494761D02*
X168812180Y-78447142D01*
X168812180Y-78447142D02*
X168859800Y-78399523D01*
X168859800Y-78399523D02*
X168907419Y-78304285D01*
X168907419Y-78304285D02*
X168907419Y-78113809D01*
X168907419Y-78113809D02*
X168859800Y-78018571D01*
X168859800Y-78018571D02*
X168812180Y-77970952D01*
X168812180Y-77970952D02*
X168716942Y-77923333D01*
X168716942Y-77923333D02*
X168478847Y-77923333D01*
X168478847Y-77923333D02*
X168383609Y-77970952D01*
X168383609Y-77970952D02*
X168335990Y-78018571D01*
X168335990Y-78018571D02*
X168288371Y-78113809D01*
X168288371Y-78113809D02*
X168288371Y-78304285D01*
X168288371Y-78304285D02*
X168335990Y-78399523D01*
X168335990Y-78399523D02*
X168383609Y-78447142D01*
X168383609Y-78447142D02*
X168478847Y-78494761D01*
M02*
