%TF.GenerationSoftware,KiCad,Pcbnew,10.0.0*%
%TF.CreationDate,2026-09-08T12:44:33-06:00*%
%TF.ProjectId,PogoTest1,506f676f-5465-4737-9431-2e6b69636164,rev?*%
%TF.SameCoordinates,Original*%
%TF.FileFunction,Legend,Bot*%
%TF.FilePolarity,Positive*%
%FSLAX46Y46*%
G04 Gerber Fmt 4.6, Leading zero omitted, Abs format (unit mm)*
G04 Created by KiCad (PCBNEW 10.0.0) date 2026-09-08 12:44:33*
%MOMM*%
%LPD*%
G01*
G04 APERTURE LIST*
%ADD10C,0.150000*%
%ADD11C,0.120000*%
G04 APERTURE END LIST*
D10*
X152649819Y-106396666D02*
X153364104Y-106396666D01*
X153364104Y-106396666D02*
X153506961Y-106349047D01*
X153506961Y-106349047D02*
X153602200Y-106253809D01*
X153602200Y-106253809D02*
X153649819Y-106110952D01*
X153649819Y-106110952D02*
X153649819Y-106015714D01*
X153649819Y-107396666D02*
X153649819Y-106825238D01*
X153649819Y-107110952D02*
X152649819Y-107110952D01*
X152649819Y-107110952D02*
X152792676Y-107015714D01*
X152792676Y-107015714D02*
X152887914Y-106920476D01*
X152887914Y-106920476D02*
X152935533Y-106825238D01*
%TO.C,J1*%
D11*
X154195000Y-99805000D02*
X154195000Y-101075000D01*
X155035000Y-102235000D02*
X155035000Y-102537642D01*
X155035000Y-104692358D02*
X155035000Y-105005000D01*
X155465000Y-99805000D02*
X154195000Y-99805000D01*
X155895000Y-102235000D02*
X155895000Y-102537642D01*
X155895000Y-104692358D02*
X155895000Y-105005000D01*
X156735000Y-105005000D02*
X156735000Y-107765000D01*
X157575000Y-102152358D02*
X157575000Y-102537642D01*
X157575000Y-104692358D02*
X157575000Y-105005000D01*
X157575000Y-107765000D02*
X157575000Y-113765000D01*
X157575000Y-113765000D02*
X158435000Y-113765000D01*
X158435000Y-102152358D02*
X158435000Y-102537642D01*
X158435000Y-104692358D02*
X158435000Y-105005000D01*
X158435000Y-113765000D02*
X158435000Y-107765000D01*
X159275000Y-105005000D02*
X159275000Y-107765000D01*
X160115000Y-102152358D02*
X160115000Y-102537642D01*
X160115000Y-104692358D02*
X160115000Y-105005000D01*
X160115000Y-107765000D02*
X160115000Y-113765000D01*
X160115000Y-113765000D02*
X160975000Y-113765000D01*
X160975000Y-102152358D02*
X160975000Y-102537642D01*
X160975000Y-104692358D02*
X160975000Y-105005000D01*
X160975000Y-113765000D02*
X160975000Y-107765000D01*
X161815000Y-105005000D02*
X161815000Y-107765000D01*
X162655000Y-102152358D02*
X162655000Y-102537642D01*
X162655000Y-104692358D02*
X162655000Y-105005000D01*
X162655000Y-107765000D02*
X162655000Y-113765000D01*
X162655000Y-113765000D02*
X163515000Y-113765000D01*
X163515000Y-102152358D02*
X163515000Y-102537642D01*
X163515000Y-104692358D02*
X163515000Y-105005000D01*
X163515000Y-113765000D02*
X163515000Y-107765000D01*
X154085000Y-105005000D02*
X164465000Y-105005000D01*
X164465000Y-107765000D01*
X154085000Y-107765000D01*
X154085000Y-105005000D01*
X155035000Y-107765000D02*
X155895000Y-107765000D01*
X155895000Y-113765000D01*
X155035000Y-113765000D01*
X155035000Y-107765000D01*
G36*
X155035000Y-107765000D02*
G01*
X155895000Y-107765000D01*
X155895000Y-113765000D01*
X155035000Y-113765000D01*
X155035000Y-107765000D01*
G37*
%TD*%
M02*
