%TF.GenerationSoftware,KiCad,Pcbnew,10.0.0*%
%TF.CreationDate,2026-09-08T15:01:10-06:00*%
%TF.ProjectId,GridStripConnector_Panelized,47726964-5374-4726-9970-436f6e6e6563,rev?*%
%TF.SameCoordinates,Original*%
%TF.FileFunction,Copper,L1,Top*%
%TF.FilePolarity,Positive*%
%FSLAX46Y46*%
G04 Gerber Fmt 4.6, Leading zero omitted, Abs format (unit mm)*
G04 Created by KiCad (PCBNEW 10.0.0) date 2026-09-08 15:01:10*
%MOMM*%
%LPD*%
G01*
G04 APERTURE LIST*
G04 Aperture macros list*
%AMRoundRect*
0 Rectangle with rounded corners*
0 $1 Rounding radius*
0 $2 $3 $4 $5 $6 $7 $8 $9 X,Y pos of 4 corners*
0 Add a 4 corners polygon primitive as box body*
4,1,4,$2,$3,$4,$5,$6,$7,$8,$9,$2,$3,0*
0 Add four circle primitives for the rounded corners*
1,1,$1+$1,$2,$3*
1,1,$1+$1,$4,$5*
1,1,$1+$1,$6,$7*
1,1,$1+$1,$8,$9*
0 Add four rect primitives between the rounded corners*
20,1,$1+$1,$2,$3,$4,$5,0*
20,1,$1+$1,$4,$5,$6,$7,0*
20,1,$1+$1,$6,$7,$8,$9,0*
20,1,$1+$1,$8,$9,$2,$3,0*%
G04 Aperture macros list end*
%TA.AperFunction,SMDPad,CuDef*%
%ADD10RoundRect,0.300000X0.700000X-1.700000X0.700000X1.700000X-0.700000X1.700000X-0.700000X-1.700000X0*%
%TD*%
%TA.AperFunction,Conductor*%
%ADD11C,0.800000*%
%TD*%
G04 APERTURE END LIST*
D10*
%TO.P,J1,1,Pin_1*%
%TO.N,Board_2-Net-(J1-Pin_1)*%
X123400000Y-26800000D03*
%TO.P,J1,2,Pin_2*%
%TO.N,Board_2-Net-(J1-Pin_2)*%
X126400000Y-26800000D03*
%TO.P,J1,3,Pin_3*%
%TO.N,Board_2-Net-(J1-Pin_3)*%
X129400000Y-26800000D03*
%TD*%
%TO.P,J1,1,Pin_1*%
%TO.N,Board_12-Net-(J1-Pin_1)*%
X68200000Y-46400000D03*
%TO.P,J1,2,Pin_2*%
%TO.N,Board_12-Net-(J1-Pin_2)*%
X71200000Y-46400000D03*
%TO.P,J1,3,Pin_3*%
%TO.N,Board_12-Net-(J1-Pin_3)*%
X74200000Y-46400000D03*
%TD*%
%TO.P,J1,1,Pin_1*%
%TO.N,Board_64-Net-(J1-Pin_1)*%
X178600000Y-124800000D03*
%TO.P,J1,2,Pin_2*%
%TO.N,Board_64-Net-(J1-Pin_2)*%
X181600000Y-124800000D03*
%TO.P,J1,3,Pin_3*%
%TO.N,Board_64-Net-(J1-Pin_3)*%
X184600000Y-124800000D03*
%TD*%
%TO.P,J1,1,Pin_1*%
%TO.N,Board_54-Net-(J1-Pin_1)*%
X68200000Y-115000000D03*
%TO.P,J1,2,Pin_2*%
%TO.N,Board_54-Net-(J1-Pin_2)*%
X71200000Y-115000000D03*
%TO.P,J1,3,Pin_3*%
%TO.N,Board_54-Net-(J1-Pin_3)*%
X74200000Y-115000000D03*
%TD*%
%TO.P,J2,1,Pin_1*%
%TO.N,Board_8-Net-(J1-Pin_3)*%
X140000000Y-36600000D03*
%TO.P,J2,2,Pin_2*%
%TO.N,Board_8-Net-(J1-Pin_2)*%
X143000000Y-36600000D03*
%TO.P,J2,3,Pin_3*%
%TO.N,Board_8-Net-(J1-Pin_1)*%
X146000000Y-36600000D03*
%TD*%
%TO.P,J2,1,Pin_1*%
%TO.N,Board_61-Net-(J1-Pin_3)*%
X112400000Y-124800000D03*
%TO.P,J2,2,Pin_2*%
%TO.N,Board_61-Net-(J1-Pin_2)*%
X115400000Y-124800000D03*
%TO.P,J2,3,Pin_3*%
%TO.N,Board_61-Net-(J1-Pin_1)*%
X118400000Y-124800000D03*
%TD*%
%TO.P,J2,1,Pin_1*%
%TO.N,Board_24-Net-(J1-Pin_3)*%
X84800000Y-66000000D03*
%TO.P,J2,2,Pin_2*%
%TO.N,Board_24-Net-(J1-Pin_2)*%
X87800000Y-66000000D03*
%TO.P,J2,3,Pin_3*%
%TO.N,Board_24-Net-(J1-Pin_1)*%
X90800000Y-66000000D03*
%TD*%
%TO.P,J2,1,Pin_1*%
%TO.N,Board_62-Net-(J1-Pin_3)*%
X140000000Y-124800000D03*
%TO.P,J2,2,Pin_2*%
%TO.N,Board_62-Net-(J1-Pin_2)*%
X143000000Y-124800000D03*
%TO.P,J2,3,Pin_3*%
%TO.N,Board_62-Net-(J1-Pin_1)*%
X146000000Y-124800000D03*
%TD*%
%TO.P,J2,1,Pin_1*%
%TO.N,Board_2-Net-(J1-Pin_3)*%
X140000000Y-26800000D03*
%TO.P,J2,2,Pin_2*%
%TO.N,Board_2-Net-(J1-Pin_2)*%
X143000000Y-26800000D03*
%TO.P,J2,3,Pin_3*%
%TO.N,Board_2-Net-(J1-Pin_1)*%
X146000000Y-26800000D03*
%TD*%
%TO.P,J1,1,Pin_1*%
%TO.N,Board_30-Net-(J1-Pin_1)*%
X68200000Y-75800000D03*
%TO.P,J1,2,Pin_2*%
%TO.N,Board_30-Net-(J1-Pin_2)*%
X71200000Y-75800000D03*
%TO.P,J1,3,Pin_3*%
%TO.N,Board_30-Net-(J1-Pin_3)*%
X74200000Y-75800000D03*
%TD*%
%TO.P,J2,1,Pin_1*%
%TO.N,Board_1-Net-(J1-Pin_3)*%
X112400000Y-26800000D03*
%TO.P,J2,2,Pin_2*%
%TO.N,Board_1-Net-(J1-Pin_2)*%
X115400000Y-26800000D03*
%TO.P,J2,3,Pin_3*%
%TO.N,Board_1-Net-(J1-Pin_1)*%
X118400000Y-26800000D03*
%TD*%
%TO.P,J2,1,Pin_1*%
%TO.N,Board_10-Net-(J1-Pin_3)*%
X195200000Y-36600000D03*
%TO.P,J2,2,Pin_2*%
%TO.N,Board_10-Net-(J1-Pin_2)*%
X198200000Y-36600000D03*
%TO.P,J2,3,Pin_3*%
%TO.N,Board_10-Net-(J1-Pin_1)*%
X201200000Y-36600000D03*
%TD*%
%TO.P,J2,1,Pin_1*%
%TO.N,Board_37-Net-(J1-Pin_3)*%
X112400000Y-85600000D03*
%TO.P,J2,2,Pin_2*%
%TO.N,Board_37-Net-(J1-Pin_2)*%
X115400000Y-85600000D03*
%TO.P,J2,3,Pin_3*%
%TO.N,Board_37-Net-(J1-Pin_1)*%
X118400000Y-85600000D03*
%TD*%
%TO.P,J1,1,Pin_1*%
%TO.N,Board_46-Net-(J1-Pin_1)*%
X178600000Y-95400000D03*
%TO.P,J1,2,Pin_2*%
%TO.N,Board_46-Net-(J1-Pin_2)*%
X181600000Y-95400000D03*
%TO.P,J1,3,Pin_3*%
%TO.N,Board_46-Net-(J1-Pin_3)*%
X184600000Y-95400000D03*
%TD*%
%TO.P,J2,1,Pin_1*%
%TO.N,Board_46-Net-(J1-Pin_3)*%
X195200000Y-95400000D03*
%TO.P,J2,2,Pin_2*%
%TO.N,Board_46-Net-(J1-Pin_2)*%
X198200000Y-95400000D03*
%TO.P,J2,3,Pin_3*%
%TO.N,Board_46-Net-(J1-Pin_1)*%
X201200000Y-95400000D03*
%TD*%
%TO.P,J1,1,Pin_1*%
%TO.N,Board_52-Net-(J1-Pin_1)*%
X178600000Y-105200000D03*
%TO.P,J1,2,Pin_2*%
%TO.N,Board_52-Net-(J1-Pin_2)*%
X181600000Y-105200000D03*
%TO.P,J1,3,Pin_3*%
%TO.N,Board_52-Net-(J1-Pin_3)*%
X184600000Y-105200000D03*
%TD*%
%TO.P,J1,1,Pin_1*%
%TO.N,Board_23-Net-(J1-Pin_1)*%
X206200000Y-56200000D03*
%TO.P,J1,2,Pin_2*%
%TO.N,Board_23-Net-(J1-Pin_2)*%
X209200000Y-56200000D03*
%TO.P,J1,3,Pin_3*%
%TO.N,Board_23-Net-(J1-Pin_3)*%
X212200000Y-56200000D03*
%TD*%
%TO.P,J1,1,Pin_1*%
%TO.N,Board_61-Net-(J1-Pin_1)*%
X95800000Y-124800000D03*
%TO.P,J1,2,Pin_2*%
%TO.N,Board_61-Net-(J1-Pin_2)*%
X98800000Y-124800000D03*
%TO.P,J1,3,Pin_3*%
%TO.N,Board_61-Net-(J1-Pin_3)*%
X101800000Y-124800000D03*
%TD*%
%TO.P,J1,1,Pin_1*%
%TO.N,Board_41-Net-(J1-Pin_1)*%
X206200000Y-85600000D03*
%TO.P,J1,2,Pin_2*%
%TO.N,Board_41-Net-(J1-Pin_2)*%
X209200000Y-85600000D03*
%TO.P,J1,3,Pin_3*%
%TO.N,Board_41-Net-(J1-Pin_3)*%
X212200000Y-85600000D03*
%TD*%
%TO.P,J2,1,Pin_1*%
%TO.N,Board_9-Net-(J1-Pin_3)*%
X167600000Y-36600000D03*
%TO.P,J2,2,Pin_2*%
%TO.N,Board_9-Net-(J1-Pin_2)*%
X170600000Y-36600000D03*
%TO.P,J2,3,Pin_3*%
%TO.N,Board_9-Net-(J1-Pin_1)*%
X173600000Y-36600000D03*
%TD*%
%TO.P,J2,1,Pin_1*%
%TO.N,Board_23-Net-(J1-Pin_3)*%
X222800000Y-56200000D03*
%TO.P,J2,2,Pin_2*%
%TO.N,Board_23-Net-(J1-Pin_2)*%
X225800000Y-56200000D03*
%TO.P,J2,3,Pin_3*%
%TO.N,Board_23-Net-(J1-Pin_1)*%
X228800000Y-56200000D03*
%TD*%
%TO.P,J1,1,Pin_1*%
%TO.N,Board_60-Net-(J1-Pin_1)*%
X68200000Y-124800000D03*
%TO.P,J1,2,Pin_2*%
%TO.N,Board_60-Net-(J1-Pin_2)*%
X71200000Y-124800000D03*
%TO.P,J1,3,Pin_3*%
%TO.N,Board_60-Net-(J1-Pin_3)*%
X74200000Y-124800000D03*
%TD*%
%TO.P,J2,1,Pin_1*%
%TO.N,Board_15-Net-(J1-Pin_3)*%
X167600000Y-46400000D03*
%TO.P,J2,2,Pin_2*%
%TO.N,Board_15-Net-(J1-Pin_2)*%
X170600000Y-46400000D03*
%TO.P,J2,3,Pin_3*%
%TO.N,Board_15-Net-(J1-Pin_1)*%
X173600000Y-46400000D03*
%TD*%
%TO.P,J2,1,Pin_1*%
%TO.N,Board_53-Net-(J1-Pin_3)*%
X222800000Y-105200000D03*
%TO.P,J2,2,Pin_2*%
%TO.N,Board_53-Net-(J1-Pin_2)*%
X225800000Y-105200000D03*
%TO.P,J2,3,Pin_3*%
%TO.N,Board_53-Net-(J1-Pin_1)*%
X228800000Y-105200000D03*
%TD*%
%TO.P,J1,1,Pin_1*%
%TO.N,Board_16-Net-(J1-Pin_1)*%
X178600000Y-46400000D03*
%TO.P,J1,2,Pin_2*%
%TO.N,Board_16-Net-(J1-Pin_2)*%
X181600000Y-46400000D03*
%TO.P,J1,3,Pin_3*%
%TO.N,Board_16-Net-(J1-Pin_3)*%
X184600000Y-46400000D03*
%TD*%
%TO.P,J1,1,Pin_1*%
%TO.N,Board_37-Net-(J1-Pin_1)*%
X95800000Y-85600000D03*
%TO.P,J1,2,Pin_2*%
%TO.N,Board_37-Net-(J1-Pin_2)*%
X98800000Y-85600000D03*
%TO.P,J1,3,Pin_3*%
%TO.N,Board_37-Net-(J1-Pin_3)*%
X101800000Y-85600000D03*
%TD*%
%TO.P,J2,1,Pin_1*%
%TO.N,Board_25-Net-(J1-Pin_3)*%
X112400000Y-66000000D03*
%TO.P,J2,2,Pin_2*%
%TO.N,Board_25-Net-(J1-Pin_2)*%
X115400000Y-66000000D03*
%TO.P,J2,3,Pin_3*%
%TO.N,Board_25-Net-(J1-Pin_1)*%
X118400000Y-66000000D03*
%TD*%
%TO.P,J2,1,Pin_1*%
%TO.N,Board_18-Net-(J1-Pin_3)*%
X84800000Y-56200000D03*
%TO.P,J2,2,Pin_2*%
%TO.N,Board_18-Net-(J1-Pin_2)*%
X87800000Y-56200000D03*
%TO.P,J2,3,Pin_3*%
%TO.N,Board_18-Net-(J1-Pin_1)*%
X90800000Y-56200000D03*
%TD*%
%TO.P,J2,1,Pin_1*%
%TO.N,Board_48-Net-(J1-Pin_3)*%
X84800000Y-105200000D03*
%TO.P,J2,2,Pin_2*%
%TO.N,Board_48-Net-(J1-Pin_2)*%
X87800000Y-105200000D03*
%TO.P,J2,3,Pin_3*%
%TO.N,Board_48-Net-(J1-Pin_1)*%
X90800000Y-105200000D03*
%TD*%
%TO.P,J1,1,Pin_1*%
%TO.N,Board_34-Net-(J1-Pin_1)*%
X178600000Y-75800000D03*
%TO.P,J1,2,Pin_2*%
%TO.N,Board_34-Net-(J1-Pin_2)*%
X181600000Y-75800000D03*
%TO.P,J1,3,Pin_3*%
%TO.N,Board_34-Net-(J1-Pin_3)*%
X184600000Y-75800000D03*
%TD*%
%TO.P,J2,1,Pin_1*%
%TO.N,Board_43-Net-(J1-Pin_3)*%
X112400000Y-95400000D03*
%TO.P,J2,2,Pin_2*%
%TO.N,Board_43-Net-(J1-Pin_2)*%
X115400000Y-95400000D03*
%TO.P,J2,3,Pin_3*%
%TO.N,Board_43-Net-(J1-Pin_1)*%
X118400000Y-95400000D03*
%TD*%
%TO.P,J1,1,Pin_1*%
%TO.N,Board_26-Net-(J1-Pin_1)*%
X123400000Y-66000000D03*
%TO.P,J1,2,Pin_2*%
%TO.N,Board_26-Net-(J1-Pin_2)*%
X126400000Y-66000000D03*
%TO.P,J1,3,Pin_3*%
%TO.N,Board_26-Net-(J1-Pin_3)*%
X129400000Y-66000000D03*
%TD*%
%TO.P,J2,1,Pin_1*%
%TO.N,Board_55-Net-(J1-Pin_3)*%
X112400000Y-115000000D03*
%TO.P,J2,2,Pin_2*%
%TO.N,Board_55-Net-(J1-Pin_2)*%
X115400000Y-115000000D03*
%TO.P,J2,3,Pin_3*%
%TO.N,Board_55-Net-(J1-Pin_1)*%
X118400000Y-115000000D03*
%TD*%
%TO.P,J1,1,Pin_1*%
%TO.N,Board_17-Net-(J1-Pin_1)*%
X206200000Y-46400000D03*
%TO.P,J1,2,Pin_2*%
%TO.N,Board_17-Net-(J1-Pin_2)*%
X209200000Y-46400000D03*
%TO.P,J1,3,Pin_3*%
%TO.N,Board_17-Net-(J1-Pin_3)*%
X212200000Y-46400000D03*
%TD*%
%TO.P,J1,1,Pin_1*%
%TO.N,Board_59-Net-(J1-Pin_1)*%
X206200000Y-115000000D03*
%TO.P,J1,2,Pin_2*%
%TO.N,Board_59-Net-(J1-Pin_2)*%
X209200000Y-115000000D03*
%TO.P,J1,3,Pin_3*%
%TO.N,Board_59-Net-(J1-Pin_3)*%
X212200000Y-115000000D03*
%TD*%
%TO.P,J1,1,Pin_1*%
%TO.N,Board_57-Net-(J1-Pin_1)*%
X151000000Y-115000000D03*
%TO.P,J1,2,Pin_2*%
%TO.N,Board_57-Net-(J1-Pin_2)*%
X154000000Y-115000000D03*
%TO.P,J1,3,Pin_3*%
%TO.N,Board_57-Net-(J1-Pin_3)*%
X157000000Y-115000000D03*
%TD*%
%TO.P,J2,1,Pin_1*%
%TO.N,Board_21-Net-(J1-Pin_3)*%
X167600000Y-56200000D03*
%TO.P,J2,2,Pin_2*%
%TO.N,Board_21-Net-(J1-Pin_2)*%
X170600000Y-56200000D03*
%TO.P,J2,3,Pin_3*%
%TO.N,Board_21-Net-(J1-Pin_1)*%
X173600000Y-56200000D03*
%TD*%
%TO.P,J1,1,Pin_1*%
%TO.N,Board_62-Net-(J1-Pin_1)*%
X123400000Y-124800000D03*
%TO.P,J1,2,Pin_2*%
%TO.N,Board_62-Net-(J1-Pin_2)*%
X126400000Y-124800000D03*
%TO.P,J1,3,Pin_3*%
%TO.N,Board_62-Net-(J1-Pin_3)*%
X129400000Y-124800000D03*
%TD*%
%TO.P,J1,1,Pin_1*%
%TO.N,Board_42-Net-(J1-Pin_1)*%
X68200000Y-95400000D03*
%TO.P,J1,2,Pin_2*%
%TO.N,Board_42-Net-(J1-Pin_2)*%
X71200000Y-95400000D03*
%TO.P,J1,3,Pin_3*%
%TO.N,Board_42-Net-(J1-Pin_3)*%
X74200000Y-95400000D03*
%TD*%
%TO.P,J2,1,Pin_1*%
%TO.N,Board_5-Net-(J1-Pin_3)*%
X222800000Y-26800000D03*
%TO.P,J2,2,Pin_2*%
%TO.N,Board_5-Net-(J1-Pin_2)*%
X225800000Y-26800000D03*
%TO.P,J2,3,Pin_3*%
%TO.N,Board_5-Net-(J1-Pin_1)*%
X228800000Y-26800000D03*
%TD*%
%TO.P,J2,1,Pin_1*%
%TO.N,Board_40-Net-(J1-Pin_3)*%
X195200000Y-85600000D03*
%TO.P,J2,2,Pin_2*%
%TO.N,Board_40-Net-(J1-Pin_2)*%
X198200000Y-85600000D03*
%TO.P,J2,3,Pin_3*%
%TO.N,Board_40-Net-(J1-Pin_1)*%
X201200000Y-85600000D03*
%TD*%
%TO.P,J1,1,Pin_1*%
%TO.N,Board_7-Net-(J1-Pin_1)*%
X95800000Y-36600000D03*
%TO.P,J1,2,Pin_2*%
%TO.N,Board_7-Net-(J1-Pin_2)*%
X98800000Y-36600000D03*
%TO.P,J1,3,Pin_3*%
%TO.N,Board_7-Net-(J1-Pin_3)*%
X101800000Y-36600000D03*
%TD*%
%TO.P,J1,1,Pin_1*%
%TO.N,Board_51-Net-(J1-Pin_1)*%
X151000000Y-105200000D03*
%TO.P,J1,2,Pin_2*%
%TO.N,Board_51-Net-(J1-Pin_2)*%
X154000000Y-105200000D03*
%TO.P,J1,3,Pin_3*%
%TO.N,Board_51-Net-(J1-Pin_3)*%
X157000000Y-105200000D03*
%TD*%
%TO.P,J1,1,Pin_1*%
%TO.N,Board_58-Net-(J1-Pin_1)*%
X178600000Y-115000000D03*
%TO.P,J1,2,Pin_2*%
%TO.N,Board_58-Net-(J1-Pin_2)*%
X181600000Y-115000000D03*
%TO.P,J1,3,Pin_3*%
%TO.N,Board_58-Net-(J1-Pin_3)*%
X184600000Y-115000000D03*
%TD*%
%TO.P,J1,1,Pin_1*%
%TO.N,Board_19-Net-(J1-Pin_1)*%
X95800000Y-56200000D03*
%TO.P,J1,2,Pin_2*%
%TO.N,Board_19-Net-(J1-Pin_2)*%
X98800000Y-56200000D03*
%TO.P,J1,3,Pin_3*%
%TO.N,Board_19-Net-(J1-Pin_3)*%
X101800000Y-56200000D03*
%TD*%
%TO.P,J1,1,Pin_1*%
%TO.N,Board_43-Net-(J1-Pin_1)*%
X95800000Y-95400000D03*
%TO.P,J1,2,Pin_2*%
%TO.N,Board_43-Net-(J1-Pin_2)*%
X98800000Y-95400000D03*
%TO.P,J1,3,Pin_3*%
%TO.N,Board_43-Net-(J1-Pin_3)*%
X101800000Y-95400000D03*
%TD*%
%TO.P,J1,1,Pin_1*%
%TO.N,Board_53-Net-(J1-Pin_1)*%
X206200000Y-105200000D03*
%TO.P,J1,2,Pin_2*%
%TO.N,Board_53-Net-(J1-Pin_2)*%
X209200000Y-105200000D03*
%TO.P,J1,3,Pin_3*%
%TO.N,Board_53-Net-(J1-Pin_3)*%
X212200000Y-105200000D03*
%TD*%
%TO.P,J1,1,Pin_1*%
%TO.N,Board_15-Net-(J1-Pin_1)*%
X151000000Y-46400000D03*
%TO.P,J1,2,Pin_2*%
%TO.N,Board_15-Net-(J1-Pin_2)*%
X154000000Y-46400000D03*
%TO.P,J1,3,Pin_3*%
%TO.N,Board_15-Net-(J1-Pin_3)*%
X157000000Y-46400000D03*
%TD*%
%TO.P,J2,1,Pin_1*%
%TO.N,Board_20-Net-(J1-Pin_3)*%
X140000000Y-56200000D03*
%TO.P,J2,2,Pin_2*%
%TO.N,Board_20-Net-(J1-Pin_2)*%
X143000000Y-56200000D03*
%TO.P,J2,3,Pin_3*%
%TO.N,Board_20-Net-(J1-Pin_1)*%
X146000000Y-56200000D03*
%TD*%
%TO.P,J1,1,Pin_1*%
%TO.N,Board_32-Net-(J1-Pin_1)*%
X123400000Y-75800000D03*
%TO.P,J1,2,Pin_2*%
%TO.N,Board_32-Net-(J1-Pin_2)*%
X126400000Y-75800000D03*
%TO.P,J1,3,Pin_3*%
%TO.N,Board_32-Net-(J1-Pin_3)*%
X129400000Y-75800000D03*
%TD*%
%TO.P,J2,1,Pin_1*%
%TO.N,Board_29-Net-(J1-Pin_3)*%
X222800000Y-66000000D03*
%TO.P,J2,2,Pin_2*%
%TO.N,Board_29-Net-(J1-Pin_2)*%
X225800000Y-66000000D03*
%TO.P,J2,3,Pin_3*%
%TO.N,Board_29-Net-(J1-Pin_1)*%
X228800000Y-66000000D03*
%TD*%
%TO.P,J1,1,Pin_1*%
%TO.N,Board_1-Net-(J1-Pin_1)*%
X95800000Y-26800000D03*
%TO.P,J1,2,Pin_2*%
%TO.N,Board_1-Net-(J1-Pin_2)*%
X98800000Y-26800000D03*
%TO.P,J1,3,Pin_3*%
%TO.N,Board_1-Net-(J1-Pin_3)*%
X101800000Y-26800000D03*
%TD*%
%TO.P,J1,1,Pin_1*%
%TO.N,Board_38-Net-(J1-Pin_1)*%
X123400000Y-85600000D03*
%TO.P,J1,2,Pin_2*%
%TO.N,Board_38-Net-(J1-Pin_2)*%
X126400000Y-85600000D03*
%TO.P,J1,3,Pin_3*%
%TO.N,Board_38-Net-(J1-Pin_3)*%
X129400000Y-85600000D03*
%TD*%
%TO.P,J2,1,Pin_1*%
%TO.N,Board_36-Net-(J1-Pin_3)*%
X84800000Y-85600000D03*
%TO.P,J2,2,Pin_2*%
%TO.N,Board_36-Net-(J1-Pin_2)*%
X87800000Y-85600000D03*
%TO.P,J2,3,Pin_3*%
%TO.N,Board_36-Net-(J1-Pin_1)*%
X90800000Y-85600000D03*
%TD*%
%TO.P,J2,1,Pin_1*%
%TO.N,Board_35-Net-(J1-Pin_3)*%
X222800000Y-75800000D03*
%TO.P,J2,2,Pin_2*%
%TO.N,Board_35-Net-(J1-Pin_2)*%
X225800000Y-75800000D03*
%TO.P,J2,3,Pin_3*%
%TO.N,Board_35-Net-(J1-Pin_1)*%
X228800000Y-75800000D03*
%TD*%
%TO.P,J1,1,Pin_1*%
%TO.N,Board_5-Net-(J1-Pin_1)*%
X206200000Y-26800000D03*
%TO.P,J1,2,Pin_2*%
%TO.N,Board_5-Net-(J1-Pin_2)*%
X209200000Y-26800000D03*
%TO.P,J1,3,Pin_3*%
%TO.N,Board_5-Net-(J1-Pin_3)*%
X212200000Y-26800000D03*
%TD*%
%TO.P,J2,1,Pin_1*%
%TO.N,Board_11-Net-(J1-Pin_3)*%
X222800000Y-36600000D03*
%TO.P,J2,2,Pin_2*%
%TO.N,Board_11-Net-(J1-Pin_2)*%
X225800000Y-36600000D03*
%TO.P,J2,3,Pin_3*%
%TO.N,Board_11-Net-(J1-Pin_1)*%
X228800000Y-36600000D03*
%TD*%
%TO.P,J2,1,Pin_1*%
%TO.N,Board_16-Net-(J1-Pin_3)*%
X195200000Y-46400000D03*
%TO.P,J2,2,Pin_2*%
%TO.N,Board_16-Net-(J1-Pin_2)*%
X198200000Y-46400000D03*
%TO.P,J2,3,Pin_3*%
%TO.N,Board_16-Net-(J1-Pin_1)*%
X201200000Y-46400000D03*
%TD*%
%TO.P,J1,1,Pin_1*%
%TO.N,Board_4-Net-(J1-Pin_1)*%
X178600000Y-26800000D03*
%TO.P,J1,2,Pin_2*%
%TO.N,Board_4-Net-(J1-Pin_2)*%
X181600000Y-26800000D03*
%TO.P,J1,3,Pin_3*%
%TO.N,Board_4-Net-(J1-Pin_3)*%
X184600000Y-26800000D03*
%TD*%
%TO.P,J1,1,Pin_1*%
%TO.N,Board_55-Net-(J1-Pin_1)*%
X95800000Y-115000000D03*
%TO.P,J1,2,Pin_2*%
%TO.N,Board_55-Net-(J1-Pin_2)*%
X98800000Y-115000000D03*
%TO.P,J1,3,Pin_3*%
%TO.N,Board_55-Net-(J1-Pin_3)*%
X101800000Y-115000000D03*
%TD*%
%TO.P,J2,1,Pin_1*%
%TO.N,Board_42-Net-(J1-Pin_3)*%
X84800000Y-95400000D03*
%TO.P,J2,2,Pin_2*%
%TO.N,Board_42-Net-(J1-Pin_2)*%
X87800000Y-95400000D03*
%TO.P,J2,3,Pin_3*%
%TO.N,Board_42-Net-(J1-Pin_1)*%
X90800000Y-95400000D03*
%TD*%
%TO.P,J1,1,Pin_1*%
%TO.N,Board_11-Net-(J1-Pin_1)*%
X206200000Y-36600000D03*
%TO.P,J1,2,Pin_2*%
%TO.N,Board_11-Net-(J1-Pin_2)*%
X209200000Y-36600000D03*
%TO.P,J1,3,Pin_3*%
%TO.N,Board_11-Net-(J1-Pin_3)*%
X212200000Y-36600000D03*
%TD*%
%TO.P,J2,1,Pin_1*%
%TO.N,Board_39-Net-(J1-Pin_3)*%
X167600000Y-85600000D03*
%TO.P,J2,2,Pin_2*%
%TO.N,Board_39-Net-(J1-Pin_2)*%
X170600000Y-85600000D03*
%TO.P,J2,3,Pin_3*%
%TO.N,Board_39-Net-(J1-Pin_1)*%
X173600000Y-85600000D03*
%TD*%
%TO.P,J1,1,Pin_1*%
%TO.N,Board_13-Net-(J1-Pin_1)*%
X95800000Y-46400000D03*
%TO.P,J1,2,Pin_2*%
%TO.N,Board_13-Net-(J1-Pin_2)*%
X98800000Y-46400000D03*
%TO.P,J1,3,Pin_3*%
%TO.N,Board_13-Net-(J1-Pin_3)*%
X101800000Y-46400000D03*
%TD*%
%TO.P,J1,1,Pin_1*%
%TO.N,Board_33-Net-(J1-Pin_1)*%
X151000000Y-75800000D03*
%TO.P,J1,2,Pin_2*%
%TO.N,Board_33-Net-(J1-Pin_2)*%
X154000000Y-75800000D03*
%TO.P,J1,3,Pin_3*%
%TO.N,Board_33-Net-(J1-Pin_3)*%
X157000000Y-75800000D03*
%TD*%
%TO.P,J2,1,Pin_1*%
%TO.N,Board_54-Net-(J1-Pin_3)*%
X84800000Y-115000000D03*
%TO.P,J2,2,Pin_2*%
%TO.N,Board_54-Net-(J1-Pin_2)*%
X87800000Y-115000000D03*
%TO.P,J2,3,Pin_3*%
%TO.N,Board_54-Net-(J1-Pin_1)*%
X90800000Y-115000000D03*
%TD*%
%TO.P,J1,1,Pin_1*%
%TO.N,Board_27-Net-(J1-Pin_1)*%
X151000000Y-66000000D03*
%TO.P,J1,2,Pin_2*%
%TO.N,Board_27-Net-(J1-Pin_2)*%
X154000000Y-66000000D03*
%TO.P,J1,3,Pin_3*%
%TO.N,Board_27-Net-(J1-Pin_3)*%
X157000000Y-66000000D03*
%TD*%
%TO.P,J1,1,Pin_1*%
%TO.N,Board_49-Net-(J1-Pin_1)*%
X95800000Y-105200000D03*
%TO.P,J1,2,Pin_2*%
%TO.N,Board_49-Net-(J1-Pin_2)*%
X98800000Y-105200000D03*
%TO.P,J1,3,Pin_3*%
%TO.N,Board_49-Net-(J1-Pin_3)*%
X101800000Y-105200000D03*
%TD*%
%TO.P,J2,1,Pin_1*%
%TO.N,Board_19-Net-(J1-Pin_3)*%
X112400000Y-56200000D03*
%TO.P,J2,2,Pin_2*%
%TO.N,Board_19-Net-(J1-Pin_2)*%
X115400000Y-56200000D03*
%TO.P,J2,3,Pin_3*%
%TO.N,Board_19-Net-(J1-Pin_1)*%
X118400000Y-56200000D03*
%TD*%
%TO.P,J2,1,Pin_1*%
%TO.N,Board_7-Net-(J1-Pin_3)*%
X112400000Y-36600000D03*
%TO.P,J2,2,Pin_2*%
%TO.N,Board_7-Net-(J1-Pin_2)*%
X115400000Y-36600000D03*
%TO.P,J2,3,Pin_3*%
%TO.N,Board_7-Net-(J1-Pin_1)*%
X118400000Y-36600000D03*
%TD*%
%TO.P,J2,1,Pin_1*%
%TO.N,Board_6-Net-(J1-Pin_3)*%
X84800000Y-36600000D03*
%TO.P,J2,2,Pin_2*%
%TO.N,Board_6-Net-(J1-Pin_2)*%
X87800000Y-36600000D03*
%TO.P,J2,3,Pin_3*%
%TO.N,Board_6-Net-(J1-Pin_1)*%
X90800000Y-36600000D03*
%TD*%
%TO.P,J2,1,Pin_1*%
%TO.N,Board_56-Net-(J1-Pin_3)*%
X140000000Y-115000000D03*
%TO.P,J2,2,Pin_2*%
%TO.N,Board_56-Net-(J1-Pin_2)*%
X143000000Y-115000000D03*
%TO.P,J2,3,Pin_3*%
%TO.N,Board_56-Net-(J1-Pin_1)*%
X146000000Y-115000000D03*
%TD*%
%TO.P,J2,1,Pin_1*%
%TO.N,Board_52-Net-(J1-Pin_3)*%
X195200000Y-105200000D03*
%TO.P,J2,2,Pin_2*%
%TO.N,Board_52-Net-(J1-Pin_2)*%
X198200000Y-105200000D03*
%TO.P,J2,3,Pin_3*%
%TO.N,Board_52-Net-(J1-Pin_1)*%
X201200000Y-105200000D03*
%TD*%
%TO.P,J1,1,Pin_1*%
%TO.N,Board_14-Net-(J1-Pin_1)*%
X123400000Y-46400000D03*
%TO.P,J1,2,Pin_2*%
%TO.N,Board_14-Net-(J1-Pin_2)*%
X126400000Y-46400000D03*
%TO.P,J1,3,Pin_3*%
%TO.N,Board_14-Net-(J1-Pin_3)*%
X129400000Y-46400000D03*
%TD*%
%TO.P,J2,1,Pin_1*%
%TO.N,Board_47-Net-(J1-Pin_3)*%
X222800000Y-95400000D03*
%TO.P,J2,2,Pin_2*%
%TO.N,Board_47-Net-(J1-Pin_2)*%
X225800000Y-95400000D03*
%TO.P,J2,3,Pin_3*%
%TO.N,Board_47-Net-(J1-Pin_1)*%
X228800000Y-95400000D03*
%TD*%
%TO.P,J1,1,Pin_1*%
%TO.N,Board_63-Net-(J1-Pin_1)*%
X151000000Y-124800000D03*
%TO.P,J1,2,Pin_2*%
%TO.N,Board_63-Net-(J1-Pin_2)*%
X154000000Y-124800000D03*
%TO.P,J1,3,Pin_3*%
%TO.N,Board_63-Net-(J1-Pin_3)*%
X157000000Y-124800000D03*
%TD*%
%TO.P,J1,1,Pin_1*%
%TO.N,Board_25-Net-(J1-Pin_1)*%
X95800000Y-66000000D03*
%TO.P,J1,2,Pin_2*%
%TO.N,Board_25-Net-(J1-Pin_2)*%
X98800000Y-66000000D03*
%TO.P,J1,3,Pin_3*%
%TO.N,Board_25-Net-(J1-Pin_3)*%
X101800000Y-66000000D03*
%TD*%
%TO.P,J1,1,Pin_1*%
%TO.N,Board_35-Net-(J1-Pin_1)*%
X206200000Y-75800000D03*
%TO.P,J1,2,Pin_2*%
%TO.N,Board_35-Net-(J1-Pin_2)*%
X209200000Y-75800000D03*
%TO.P,J1,3,Pin_3*%
%TO.N,Board_35-Net-(J1-Pin_3)*%
X212200000Y-75800000D03*
%TD*%
%TO.P,J1,1,Pin_1*%
%TO.N,Board_44-Net-(J1-Pin_1)*%
X123400000Y-95400000D03*
%TO.P,J1,2,Pin_2*%
%TO.N,Board_44-Net-(J1-Pin_2)*%
X126400000Y-95400000D03*
%TO.P,J1,3,Pin_3*%
%TO.N,Board_44-Net-(J1-Pin_3)*%
X129400000Y-95400000D03*
%TD*%
%TO.P,J1,1,Pin_1*%
%TO.N,Board_45-Net-(J1-Pin_1)*%
X151000000Y-95400000D03*
%TO.P,J1,2,Pin_2*%
%TO.N,Board_45-Net-(J1-Pin_2)*%
X154000000Y-95400000D03*
%TO.P,J1,3,Pin_3*%
%TO.N,Board_45-Net-(J1-Pin_3)*%
X157000000Y-95400000D03*
%TD*%
%TO.P,J2,1,Pin_1*%
%TO.N,Board_13-Net-(J1-Pin_3)*%
X112400000Y-46400000D03*
%TO.P,J2,2,Pin_2*%
%TO.N,Board_13-Net-(J1-Pin_2)*%
X115400000Y-46400000D03*
%TO.P,J2,3,Pin_3*%
%TO.N,Board_13-Net-(J1-Pin_1)*%
X118400000Y-46400000D03*
%TD*%
%TO.P,J2,1,Pin_1*%
%TO.N,Board_38-Net-(J1-Pin_3)*%
X140000000Y-85600000D03*
%TO.P,J2,2,Pin_2*%
%TO.N,Board_38-Net-(J1-Pin_2)*%
X143000000Y-85600000D03*
%TO.P,J2,3,Pin_3*%
%TO.N,Board_38-Net-(J1-Pin_1)*%
X146000000Y-85600000D03*
%TD*%
%TO.P,J1,1,Pin_1*%
%TO.N,Board_3-Net-(J1-Pin_1)*%
X151000000Y-26800000D03*
%TO.P,J1,2,Pin_2*%
%TO.N,Board_3-Net-(J1-Pin_2)*%
X154000000Y-26800000D03*
%TO.P,J1,3,Pin_3*%
%TO.N,Board_3-Net-(J1-Pin_3)*%
X157000000Y-26800000D03*
%TD*%
%TO.P,J1,1,Pin_1*%
%TO.N,Board_18-Net-(J1-Pin_1)*%
X68200000Y-56200000D03*
%TO.P,J1,2,Pin_2*%
%TO.N,Board_18-Net-(J1-Pin_2)*%
X71200000Y-56200000D03*
%TO.P,J1,3,Pin_3*%
%TO.N,Board_18-Net-(J1-Pin_3)*%
X74200000Y-56200000D03*
%TD*%
%TO.P,J1,1,Pin_1*%
%TO.N,Board_39-Net-(J1-Pin_1)*%
X151000000Y-85600000D03*
%TO.P,J1,2,Pin_2*%
%TO.N,Board_39-Net-(J1-Pin_2)*%
X154000000Y-85600000D03*
%TO.P,J1,3,Pin_3*%
%TO.N,Board_39-Net-(J1-Pin_3)*%
X157000000Y-85600000D03*
%TD*%
%TO.P,J2,1,Pin_1*%
%TO.N,Board_51-Net-(J1-Pin_3)*%
X167600000Y-105200000D03*
%TO.P,J2,2,Pin_2*%
%TO.N,Board_51-Net-(J1-Pin_2)*%
X170600000Y-105200000D03*
%TO.P,J2,3,Pin_3*%
%TO.N,Board_51-Net-(J1-Pin_1)*%
X173600000Y-105200000D03*
%TD*%
%TO.P,J2,1,Pin_1*%
%TO.N,Board_30-Net-(J1-Pin_3)*%
X84800000Y-75800000D03*
%TO.P,J2,2,Pin_2*%
%TO.N,Board_30-Net-(J1-Pin_2)*%
X87800000Y-75800000D03*
%TO.P,J2,3,Pin_3*%
%TO.N,Board_30-Net-(J1-Pin_1)*%
X90800000Y-75800000D03*
%TD*%
%TO.P,J2,1,Pin_1*%
%TO.N,Board_57-Net-(J1-Pin_3)*%
X167600000Y-115000000D03*
%TO.P,J2,2,Pin_2*%
%TO.N,Board_57-Net-(J1-Pin_2)*%
X170600000Y-115000000D03*
%TO.P,J2,3,Pin_3*%
%TO.N,Board_57-Net-(J1-Pin_1)*%
X173600000Y-115000000D03*
%TD*%
%TO.P,J2,1,Pin_1*%
%TO.N,Board_17-Net-(J1-Pin_3)*%
X222800000Y-46400000D03*
%TO.P,J2,2,Pin_2*%
%TO.N,Board_17-Net-(J1-Pin_2)*%
X225800000Y-46400000D03*
%TO.P,J2,3,Pin_3*%
%TO.N,Board_17-Net-(J1-Pin_1)*%
X228800000Y-46400000D03*
%TD*%
%TO.P,J1,1,Pin_1*%
%TO.N,Board_20-Net-(J1-Pin_1)*%
X123400000Y-56200000D03*
%TO.P,J1,2,Pin_2*%
%TO.N,Board_20-Net-(J1-Pin_2)*%
X126400000Y-56200000D03*
%TO.P,J1,3,Pin_3*%
%TO.N,Board_20-Net-(J1-Pin_3)*%
X129400000Y-56200000D03*
%TD*%
%TO.P,J2,1,Pin_1*%
%TO.N,Board_27-Net-(J1-Pin_3)*%
X167600000Y-66000000D03*
%TO.P,J2,2,Pin_2*%
%TO.N,Board_27-Net-(J1-Pin_2)*%
X170600000Y-66000000D03*
%TO.P,J2,3,Pin_3*%
%TO.N,Board_27-Net-(J1-Pin_1)*%
X173600000Y-66000000D03*
%TD*%
%TO.P,J2,1,Pin_1*%
%TO.N,Board_4-Net-(J1-Pin_3)*%
X195200000Y-26800000D03*
%TO.P,J2,2,Pin_2*%
%TO.N,Board_4-Net-(J1-Pin_2)*%
X198200000Y-26800000D03*
%TO.P,J2,3,Pin_3*%
%TO.N,Board_4-Net-(J1-Pin_1)*%
X201200000Y-26800000D03*
%TD*%
%TO.P,J2,1,Pin_1*%
%TO.N,Board_31-Net-(J1-Pin_3)*%
X112400000Y-75800000D03*
%TO.P,J2,2,Pin_2*%
%TO.N,Board_31-Net-(J1-Pin_2)*%
X115400000Y-75800000D03*
%TO.P,J2,3,Pin_3*%
%TO.N,Board_31-Net-(J1-Pin_1)*%
X118400000Y-75800000D03*
%TD*%
%TO.P,J2,1,Pin_1*%
%TO.N,Board_0-Net-(J1-Pin_3)*%
X84800000Y-26800000D03*
%TO.P,J2,2,Pin_2*%
%TO.N,Board_0-Net-(J1-Pin_2)*%
X87800000Y-26800000D03*
%TO.P,J2,3,Pin_3*%
%TO.N,Board_0-Net-(J1-Pin_1)*%
X90800000Y-26800000D03*
%TD*%
%TO.P,J2,1,Pin_1*%
%TO.N,Board_50-Net-(J1-Pin_3)*%
X140000000Y-105200000D03*
%TO.P,J2,2,Pin_2*%
%TO.N,Board_50-Net-(J1-Pin_2)*%
X143000000Y-105200000D03*
%TO.P,J2,3,Pin_3*%
%TO.N,Board_50-Net-(J1-Pin_1)*%
X146000000Y-105200000D03*
%TD*%
%TO.P,J2,1,Pin_1*%
%TO.N,Board_33-Net-(J1-Pin_3)*%
X167600000Y-75800000D03*
%TO.P,J2,2,Pin_2*%
%TO.N,Board_33-Net-(J1-Pin_2)*%
X170600000Y-75800000D03*
%TO.P,J2,3,Pin_3*%
%TO.N,Board_33-Net-(J1-Pin_1)*%
X173600000Y-75800000D03*
%TD*%
%TO.P,J1,1,Pin_1*%
%TO.N,Board_9-Net-(J1-Pin_1)*%
X151000000Y-36600000D03*
%TO.P,J1,2,Pin_2*%
%TO.N,Board_9-Net-(J1-Pin_2)*%
X154000000Y-36600000D03*
%TO.P,J1,3,Pin_3*%
%TO.N,Board_9-Net-(J1-Pin_3)*%
X157000000Y-36600000D03*
%TD*%
%TO.P,J1,1,Pin_1*%
%TO.N,Board_0-Net-(J1-Pin_1)*%
X68200000Y-26800000D03*
%TO.P,J1,2,Pin_2*%
%TO.N,Board_0-Net-(J1-Pin_2)*%
X71200000Y-26800000D03*
%TO.P,J1,3,Pin_3*%
%TO.N,Board_0-Net-(J1-Pin_3)*%
X74200000Y-26800000D03*
%TD*%
%TO.P,J1,1,Pin_1*%
%TO.N,Board_10-Net-(J1-Pin_1)*%
X178600000Y-36600000D03*
%TO.P,J1,2,Pin_2*%
%TO.N,Board_10-Net-(J1-Pin_2)*%
X181600000Y-36600000D03*
%TO.P,J1,3,Pin_3*%
%TO.N,Board_10-Net-(J1-Pin_3)*%
X184600000Y-36600000D03*
%TD*%
%TO.P,J2,1,Pin_1*%
%TO.N,Board_26-Net-(J1-Pin_3)*%
X140000000Y-66000000D03*
%TO.P,J2,2,Pin_2*%
%TO.N,Board_26-Net-(J1-Pin_2)*%
X143000000Y-66000000D03*
%TO.P,J2,3,Pin_3*%
%TO.N,Board_26-Net-(J1-Pin_1)*%
X146000000Y-66000000D03*
%TD*%
%TO.P,J2,1,Pin_1*%
%TO.N,Board_64-Net-(J1-Pin_3)*%
X195200000Y-124800000D03*
%TO.P,J2,2,Pin_2*%
%TO.N,Board_64-Net-(J1-Pin_2)*%
X198200000Y-124800000D03*
%TO.P,J2,3,Pin_3*%
%TO.N,Board_64-Net-(J1-Pin_1)*%
X201200000Y-124800000D03*
%TD*%
%TO.P,J2,1,Pin_1*%
%TO.N,Board_14-Net-(J1-Pin_3)*%
X140000000Y-46400000D03*
%TO.P,J2,2,Pin_2*%
%TO.N,Board_14-Net-(J1-Pin_2)*%
X143000000Y-46400000D03*
%TO.P,J2,3,Pin_3*%
%TO.N,Board_14-Net-(J1-Pin_1)*%
X146000000Y-46400000D03*
%TD*%
%TO.P,J1,1,Pin_1*%
%TO.N,Board_28-Net-(J1-Pin_1)*%
X178600000Y-66000000D03*
%TO.P,J1,2,Pin_2*%
%TO.N,Board_28-Net-(J1-Pin_2)*%
X181600000Y-66000000D03*
%TO.P,J1,3,Pin_3*%
%TO.N,Board_28-Net-(J1-Pin_3)*%
X184600000Y-66000000D03*
%TD*%
%TO.P,J1,1,Pin_1*%
%TO.N,Board_65-Net-(J1-Pin_1)*%
X206200000Y-124800000D03*
%TO.P,J1,2,Pin_2*%
%TO.N,Board_65-Net-(J1-Pin_2)*%
X209200000Y-124800000D03*
%TO.P,J1,3,Pin_3*%
%TO.N,Board_65-Net-(J1-Pin_3)*%
X212200000Y-124800000D03*
%TD*%
%TO.P,J1,1,Pin_1*%
%TO.N,Board_8-Net-(J1-Pin_1)*%
X123400000Y-36600000D03*
%TO.P,J1,2,Pin_2*%
%TO.N,Board_8-Net-(J1-Pin_2)*%
X126400000Y-36600000D03*
%TO.P,J1,3,Pin_3*%
%TO.N,Board_8-Net-(J1-Pin_3)*%
X129400000Y-36600000D03*
%TD*%
%TO.P,J1,1,Pin_1*%
%TO.N,Board_48-Net-(J1-Pin_1)*%
X68200000Y-105200000D03*
%TO.P,J1,2,Pin_2*%
%TO.N,Board_48-Net-(J1-Pin_2)*%
X71200000Y-105200000D03*
%TO.P,J1,3,Pin_3*%
%TO.N,Board_48-Net-(J1-Pin_3)*%
X74200000Y-105200000D03*
%TD*%
%TO.P,J2,1,Pin_1*%
%TO.N,Board_65-Net-(J1-Pin_3)*%
X222800000Y-124800000D03*
%TO.P,J2,2,Pin_2*%
%TO.N,Board_65-Net-(J1-Pin_2)*%
X225800000Y-124800000D03*
%TO.P,J2,3,Pin_3*%
%TO.N,Board_65-Net-(J1-Pin_1)*%
X228800000Y-124800000D03*
%TD*%
%TO.P,J2,1,Pin_1*%
%TO.N,Board_63-Net-(J1-Pin_3)*%
X167600000Y-124800000D03*
%TO.P,J2,2,Pin_2*%
%TO.N,Board_63-Net-(J1-Pin_2)*%
X170600000Y-124800000D03*
%TO.P,J2,3,Pin_3*%
%TO.N,Board_63-Net-(J1-Pin_1)*%
X173600000Y-124800000D03*
%TD*%
%TO.P,J1,1,Pin_1*%
%TO.N,Board_50-Net-(J1-Pin_1)*%
X123400000Y-105200000D03*
%TO.P,J1,2,Pin_2*%
%TO.N,Board_50-Net-(J1-Pin_2)*%
X126400000Y-105200000D03*
%TO.P,J1,3,Pin_3*%
%TO.N,Board_50-Net-(J1-Pin_3)*%
X129400000Y-105200000D03*
%TD*%
%TO.P,J1,1,Pin_1*%
%TO.N,Board_29-Net-(J1-Pin_1)*%
X206200000Y-66000000D03*
%TO.P,J1,2,Pin_2*%
%TO.N,Board_29-Net-(J1-Pin_2)*%
X209200000Y-66000000D03*
%TO.P,J1,3,Pin_3*%
%TO.N,Board_29-Net-(J1-Pin_3)*%
X212200000Y-66000000D03*
%TD*%
%TO.P,J2,1,Pin_1*%
%TO.N,Board_28-Net-(J1-Pin_3)*%
X195200000Y-66000000D03*
%TO.P,J2,2,Pin_2*%
%TO.N,Board_28-Net-(J1-Pin_2)*%
X198200000Y-66000000D03*
%TO.P,J2,3,Pin_3*%
%TO.N,Board_28-Net-(J1-Pin_1)*%
X201200000Y-66000000D03*
%TD*%
%TO.P,J1,1,Pin_1*%
%TO.N,Board_22-Net-(J1-Pin_1)*%
X178600000Y-56200000D03*
%TO.P,J1,2,Pin_2*%
%TO.N,Board_22-Net-(J1-Pin_2)*%
X181600000Y-56200000D03*
%TO.P,J1,3,Pin_3*%
%TO.N,Board_22-Net-(J1-Pin_3)*%
X184600000Y-56200000D03*
%TD*%
%TO.P,J2,1,Pin_1*%
%TO.N,Board_59-Net-(J1-Pin_3)*%
X222800000Y-115000000D03*
%TO.P,J2,2,Pin_2*%
%TO.N,Board_59-Net-(J1-Pin_2)*%
X225800000Y-115000000D03*
%TO.P,J2,3,Pin_3*%
%TO.N,Board_59-Net-(J1-Pin_1)*%
X228800000Y-115000000D03*
%TD*%
%TO.P,J1,1,Pin_1*%
%TO.N,Board_31-Net-(J1-Pin_1)*%
X95800000Y-75800000D03*
%TO.P,J1,2,Pin_2*%
%TO.N,Board_31-Net-(J1-Pin_2)*%
X98800000Y-75800000D03*
%TO.P,J1,3,Pin_3*%
%TO.N,Board_31-Net-(J1-Pin_3)*%
X101800000Y-75800000D03*
%TD*%
%TO.P,J2,1,Pin_1*%
%TO.N,Board_34-Net-(J1-Pin_3)*%
X195200000Y-75800000D03*
%TO.P,J2,2,Pin_2*%
%TO.N,Board_34-Net-(J1-Pin_2)*%
X198200000Y-75800000D03*
%TO.P,J2,3,Pin_3*%
%TO.N,Board_34-Net-(J1-Pin_1)*%
X201200000Y-75800000D03*
%TD*%
%TO.P,J1,1,Pin_1*%
%TO.N,Board_36-Net-(J1-Pin_1)*%
X68200000Y-85600000D03*
%TO.P,J1,2,Pin_2*%
%TO.N,Board_36-Net-(J1-Pin_2)*%
X71200000Y-85600000D03*
%TO.P,J1,3,Pin_3*%
%TO.N,Board_36-Net-(J1-Pin_3)*%
X74200000Y-85600000D03*
%TD*%
%TO.P,J1,1,Pin_1*%
%TO.N,Board_6-Net-(J1-Pin_1)*%
X68200000Y-36600000D03*
%TO.P,J1,2,Pin_2*%
%TO.N,Board_6-Net-(J1-Pin_2)*%
X71200000Y-36600000D03*
%TO.P,J1,3,Pin_3*%
%TO.N,Board_6-Net-(J1-Pin_3)*%
X74200000Y-36600000D03*
%TD*%
%TO.P,J2,1,Pin_1*%
%TO.N,Board_45-Net-(J1-Pin_3)*%
X167600000Y-95400000D03*
%TO.P,J2,2,Pin_2*%
%TO.N,Board_45-Net-(J1-Pin_2)*%
X170600000Y-95400000D03*
%TO.P,J2,3,Pin_3*%
%TO.N,Board_45-Net-(J1-Pin_1)*%
X173600000Y-95400000D03*
%TD*%
%TO.P,J2,1,Pin_1*%
%TO.N,Board_32-Net-(J1-Pin_3)*%
X140000000Y-75800000D03*
%TO.P,J2,2,Pin_2*%
%TO.N,Board_32-Net-(J1-Pin_2)*%
X143000000Y-75800000D03*
%TO.P,J2,3,Pin_3*%
%TO.N,Board_32-Net-(J1-Pin_1)*%
X146000000Y-75800000D03*
%TD*%
%TO.P,J2,1,Pin_1*%
%TO.N,Board_60-Net-(J1-Pin_3)*%
X84800000Y-124800000D03*
%TO.P,J2,2,Pin_2*%
%TO.N,Board_60-Net-(J1-Pin_2)*%
X87800000Y-124800000D03*
%TO.P,J2,3,Pin_3*%
%TO.N,Board_60-Net-(J1-Pin_1)*%
X90800000Y-124800000D03*
%TD*%
%TO.P,J1,1,Pin_1*%
%TO.N,Board_21-Net-(J1-Pin_1)*%
X151000000Y-56200000D03*
%TO.P,J1,2,Pin_2*%
%TO.N,Board_21-Net-(J1-Pin_2)*%
X154000000Y-56200000D03*
%TO.P,J1,3,Pin_3*%
%TO.N,Board_21-Net-(J1-Pin_3)*%
X157000000Y-56200000D03*
%TD*%
%TO.P,J2,1,Pin_1*%
%TO.N,Board_41-Net-(J1-Pin_3)*%
X222800000Y-85600000D03*
%TO.P,J2,2,Pin_2*%
%TO.N,Board_41-Net-(J1-Pin_2)*%
X225800000Y-85600000D03*
%TO.P,J2,3,Pin_3*%
%TO.N,Board_41-Net-(J1-Pin_1)*%
X228800000Y-85600000D03*
%TD*%
%TO.P,J2,1,Pin_1*%
%TO.N,Board_49-Net-(J1-Pin_3)*%
X112400000Y-105200000D03*
%TO.P,J2,2,Pin_2*%
%TO.N,Board_49-Net-(J1-Pin_2)*%
X115400000Y-105200000D03*
%TO.P,J2,3,Pin_3*%
%TO.N,Board_49-Net-(J1-Pin_1)*%
X118400000Y-105200000D03*
%TD*%
%TO.P,J2,1,Pin_1*%
%TO.N,Board_44-Net-(J1-Pin_3)*%
X140000000Y-95400000D03*
%TO.P,J2,2,Pin_2*%
%TO.N,Board_44-Net-(J1-Pin_2)*%
X143000000Y-95400000D03*
%TO.P,J2,3,Pin_3*%
%TO.N,Board_44-Net-(J1-Pin_1)*%
X146000000Y-95400000D03*
%TD*%
%TO.P,J1,1,Pin_1*%
%TO.N,Board_40-Net-(J1-Pin_1)*%
X178600000Y-85600000D03*
%TO.P,J1,2,Pin_2*%
%TO.N,Board_40-Net-(J1-Pin_2)*%
X181600000Y-85600000D03*
%TO.P,J1,3,Pin_3*%
%TO.N,Board_40-Net-(J1-Pin_3)*%
X184600000Y-85600000D03*
%TD*%
%TO.P,J2,1,Pin_1*%
%TO.N,Board_12-Net-(J1-Pin_3)*%
X84800000Y-46400000D03*
%TO.P,J2,2,Pin_2*%
%TO.N,Board_12-Net-(J1-Pin_2)*%
X87800000Y-46400000D03*
%TO.P,J2,3,Pin_3*%
%TO.N,Board_12-Net-(J1-Pin_1)*%
X90800000Y-46400000D03*
%TD*%
%TO.P,J1,1,Pin_1*%
%TO.N,Board_56-Net-(J1-Pin_1)*%
X123400000Y-115000000D03*
%TO.P,J1,2,Pin_2*%
%TO.N,Board_56-Net-(J1-Pin_2)*%
X126400000Y-115000000D03*
%TO.P,J1,3,Pin_3*%
%TO.N,Board_56-Net-(J1-Pin_3)*%
X129400000Y-115000000D03*
%TD*%
%TO.P,J2,1,Pin_1*%
%TO.N,Board_58-Net-(J1-Pin_3)*%
X195200000Y-115000000D03*
%TO.P,J2,2,Pin_2*%
%TO.N,Board_58-Net-(J1-Pin_2)*%
X198200000Y-115000000D03*
%TO.P,J2,3,Pin_3*%
%TO.N,Board_58-Net-(J1-Pin_1)*%
X201200000Y-115000000D03*
%TD*%
%TO.P,J1,1,Pin_1*%
%TO.N,Board_47-Net-(J1-Pin_1)*%
X206200000Y-95400000D03*
%TO.P,J1,2,Pin_2*%
%TO.N,Board_47-Net-(J1-Pin_2)*%
X209200000Y-95400000D03*
%TO.P,J1,3,Pin_3*%
%TO.N,Board_47-Net-(J1-Pin_3)*%
X212200000Y-95400000D03*
%TD*%
%TO.P,J2,1,Pin_1*%
%TO.N,Board_3-Net-(J1-Pin_3)*%
X167600000Y-26800000D03*
%TO.P,J2,2,Pin_2*%
%TO.N,Board_3-Net-(J1-Pin_2)*%
X170600000Y-26800000D03*
%TO.P,J2,3,Pin_3*%
%TO.N,Board_3-Net-(J1-Pin_1)*%
X173600000Y-26800000D03*
%TD*%
%TO.P,J1,1,Pin_1*%
%TO.N,Board_24-Net-(J1-Pin_1)*%
X68200000Y-66000000D03*
%TO.P,J1,2,Pin_2*%
%TO.N,Board_24-Net-(J1-Pin_2)*%
X71200000Y-66000000D03*
%TO.P,J1,3,Pin_3*%
%TO.N,Board_24-Net-(J1-Pin_3)*%
X74200000Y-66000000D03*
%TD*%
%TO.P,J2,1,Pin_1*%
%TO.N,Board_22-Net-(J1-Pin_3)*%
X195200000Y-56200000D03*
%TO.P,J2,2,Pin_2*%
%TO.N,Board_22-Net-(J1-Pin_2)*%
X198200000Y-56200000D03*
%TO.P,J2,3,Pin_3*%
%TO.N,Board_22-Net-(J1-Pin_1)*%
X201200000Y-56200000D03*
%TD*%
%TO.N,Board_2-Net-(J1-Pin_1)*%
D11*
X126642641Y-21400000D02*
X142757359Y-21400000D01*
X124478680Y-22321320D02*
X124521321Y-22278679D01*
X144878680Y-22278680D02*
X144921321Y-22321321D01*
X145800000Y-24442641D02*
X145800000Y-26800000D01*
X123600000Y-26800000D02*
X123600000Y-24442641D01*
X126642641Y-21400000D02*
G75*
G03*
X124521301Y-22278659I-41J-3000000D01*
G01*
X144921321Y-22321321D02*
G75*
G02*
X145799971Y-24442641I-2121321J-2121279D01*
G01*
X142757359Y-21400000D02*
G75*
G02*
X144878700Y-22278660I41J-3000000D01*
G01*
X123600000Y-24442641D02*
G75*
G02*
X124478660Y-22321300I3000000J41D01*
G01*
%TO.N,Board_2-Net-(J1-Pin_2)*%
X143000000Y-26800000D02*
X143000000Y-24862742D01*
X141337258Y-23200000D02*
X128062742Y-23200000D01*
X142531371Y-23731371D02*
X142468629Y-23668629D01*
X126400000Y-24862742D02*
X126400000Y-26800000D01*
X126931371Y-23668629D02*
X126868629Y-23731371D01*
X126868629Y-23731371D02*
G75*
G03*
X126400029Y-24862742I1131371J-1131329D01*
G01*
X128062742Y-23200000D02*
G75*
G03*
X126931350Y-23668608I-42J-1600000D01*
G01*
X142531371Y-23731371D02*
G75*
G02*
X142999971Y-24862742I-1131371J-1131329D01*
G01*
X141337258Y-23200000D02*
G75*
G02*
X142468650Y-23668608I42J-1600000D01*
G01*
%TO.N,Board_2-Net-(J1-Pin_3)*%
X129200000Y-26800000D02*
X140200000Y-26800000D01*
%TO.N,Board_12-Net-(J1-Pin_1)*%
X89678680Y-41878680D02*
X89721321Y-41921321D01*
X90600000Y-44042641D02*
X90600000Y-46400000D01*
X68400000Y-46400000D02*
X68400000Y-44042641D01*
X71442641Y-41000000D02*
X87557359Y-41000000D01*
X69278680Y-41921320D02*
X69321321Y-41878679D01*
X71442641Y-41000000D02*
G75*
G03*
X69321301Y-41878659I-41J-3000000D01*
G01*
X68400000Y-44042641D02*
G75*
G02*
X69278660Y-41921300I3000000J41D01*
G01*
X89721321Y-41921321D02*
G75*
G02*
X90599971Y-44042641I-2121321J-2121279D01*
G01*
X87557359Y-41000000D02*
G75*
G02*
X89678700Y-41878660I41J-3000000D01*
G01*
%TO.N,Board_12-Net-(J1-Pin_2)*%
X71731371Y-43268629D02*
X71668629Y-43331371D01*
X71200000Y-44462742D02*
X71200000Y-46400000D01*
X87800000Y-46400000D02*
X87800000Y-44462742D01*
X87331371Y-43331371D02*
X87268629Y-43268629D01*
X86137258Y-42800000D02*
X72862742Y-42800000D01*
X71668629Y-43331371D02*
G75*
G03*
X71200029Y-44462742I1131371J-1131329D01*
G01*
X87331371Y-43331371D02*
G75*
G02*
X87799971Y-44462742I-1131371J-1131329D01*
G01*
X86137258Y-42800000D02*
G75*
G02*
X87268650Y-43268608I42J-1600000D01*
G01*
X72862742Y-42800000D02*
G75*
G03*
X71731350Y-43268608I-42J-1600000D01*
G01*
%TO.N,Board_12-Net-(J1-Pin_3)*%
X74000000Y-46400000D02*
X85000000Y-46400000D01*
%TO.N,Board_64-Net-(J1-Pin_1)*%
X181842641Y-119400000D02*
X197957359Y-119400000D01*
X179678680Y-120321320D02*
X179721321Y-120278679D01*
X200078680Y-120278680D02*
X200121321Y-120321321D01*
X201000000Y-122442641D02*
X201000000Y-124800000D01*
X178800000Y-124800000D02*
X178800000Y-122442641D01*
X178800000Y-122442641D02*
G75*
G02*
X179678660Y-120321300I3000000J41D01*
G01*
X197957359Y-119400000D02*
G75*
G02*
X200078700Y-120278660I41J-3000000D01*
G01*
X200121321Y-120321321D02*
G75*
G02*
X200999971Y-122442641I-2121321J-2121279D01*
G01*
X181842641Y-119400000D02*
G75*
G03*
X179721301Y-120278659I-41J-3000000D01*
G01*
%TO.N,Board_64-Net-(J1-Pin_2)*%
X181600000Y-122862742D02*
X181600000Y-124800000D01*
X182131371Y-121668629D02*
X182068629Y-121731371D01*
X198200000Y-124800000D02*
X198200000Y-122862742D01*
X197731371Y-121731371D02*
X197668629Y-121668629D01*
X196537258Y-121200000D02*
X183262742Y-121200000D01*
X197731371Y-121731371D02*
G75*
G02*
X198199971Y-122862742I-1131371J-1131329D01*
G01*
X196537258Y-121200000D02*
G75*
G02*
X197668650Y-121668608I42J-1600000D01*
G01*
X182068629Y-121731371D02*
G75*
G03*
X181600029Y-122862742I1131371J-1131329D01*
G01*
X183262742Y-121200000D02*
G75*
G03*
X182131350Y-121668608I-42J-1600000D01*
G01*
%TO.N,Board_64-Net-(J1-Pin_3)*%
X184400000Y-124800000D02*
X195400000Y-124800000D01*
%TO.N,Board_54-Net-(J1-Pin_1)*%
X90600000Y-112642641D02*
X90600000Y-115000000D01*
X68400000Y-115000000D02*
X68400000Y-112642641D01*
X89678680Y-110478680D02*
X89721321Y-110521321D01*
X69278680Y-110521320D02*
X69321321Y-110478679D01*
X71442641Y-109600000D02*
X87557359Y-109600000D01*
X87557359Y-109600000D02*
G75*
G02*
X89678700Y-110478660I41J-3000000D01*
G01*
X89721321Y-110521321D02*
G75*
G02*
X90599971Y-112642641I-2121321J-2121279D01*
G01*
X71442641Y-109600000D02*
G75*
G03*
X69321301Y-110478659I-41J-3000000D01*
G01*
X68400000Y-112642641D02*
G75*
G02*
X69278660Y-110521300I3000000J41D01*
G01*
%TO.N,Board_54-Net-(J1-Pin_2)*%
X87800000Y-115000000D02*
X87800000Y-113062742D01*
X71200000Y-113062742D02*
X71200000Y-115000000D01*
X86137258Y-111400000D02*
X72862742Y-111400000D01*
X71731371Y-111868629D02*
X71668629Y-111931371D01*
X87331371Y-111931371D02*
X87268629Y-111868629D01*
X87331371Y-111931371D02*
G75*
G02*
X87799971Y-113062742I-1131371J-1131329D01*
G01*
X86137258Y-111400000D02*
G75*
G02*
X87268650Y-111868608I42J-1600000D01*
G01*
X71668629Y-111931371D02*
G75*
G03*
X71200029Y-113062742I1131371J-1131329D01*
G01*
X72862742Y-111400000D02*
G75*
G03*
X71731350Y-111868608I-42J-1600000D01*
G01*
%TO.N,Board_54-Net-(J1-Pin_3)*%
X74000000Y-115000000D02*
X85000000Y-115000000D01*
%TO.N,Board_8-Net-(J1-Pin_3)*%
X129200000Y-36600000D02*
X140200000Y-36600000D01*
%TO.N,Board_8-Net-(J1-Pin_2)*%
X126400000Y-34662742D02*
X126400000Y-36600000D01*
X143000000Y-36600000D02*
X143000000Y-34662742D01*
X126931371Y-33468629D02*
X126868629Y-33531371D01*
X141337258Y-33000000D02*
X128062742Y-33000000D01*
X142531371Y-33531371D02*
X142468629Y-33468629D01*
X126868629Y-33531371D02*
G75*
G03*
X126400029Y-34662742I1131371J-1131329D01*
G01*
X142531371Y-33531371D02*
G75*
G02*
X142999971Y-34662742I-1131371J-1131329D01*
G01*
X128062742Y-33000000D02*
G75*
G03*
X126931350Y-33468608I-42J-1600000D01*
G01*
X141337258Y-33000000D02*
G75*
G02*
X142468650Y-33468608I42J-1600000D01*
G01*
%TO.N,Board_8-Net-(J1-Pin_1)*%
X145800000Y-34242641D02*
X145800000Y-36600000D01*
X126642641Y-31200000D02*
X142757359Y-31200000D01*
X144878680Y-32078680D02*
X144921321Y-32121321D01*
X123600000Y-36600000D02*
X123600000Y-34242641D01*
X124478680Y-32121320D02*
X124521321Y-32078679D01*
X144921321Y-32121321D02*
G75*
G02*
X145799971Y-34242641I-2121321J-2121279D01*
G01*
X142757359Y-31200000D02*
G75*
G02*
X144878700Y-32078660I41J-3000000D01*
G01*
X126642641Y-31200000D02*
G75*
G03*
X124521301Y-32078659I-41J-3000000D01*
G01*
X123600000Y-34242641D02*
G75*
G02*
X124478660Y-32121300I3000000J41D01*
G01*
%TO.N,Board_61-Net-(J1-Pin_3)*%
X101600000Y-124800000D02*
X112600000Y-124800000D01*
%TO.N,Board_61-Net-(J1-Pin_2)*%
X114931371Y-121731371D02*
X114868629Y-121668629D01*
X99331371Y-121668629D02*
X99268629Y-121731371D01*
X98800000Y-122862742D02*
X98800000Y-124800000D01*
X113737258Y-121200000D02*
X100462742Y-121200000D01*
X115400000Y-124800000D02*
X115400000Y-122862742D01*
X99268629Y-121731371D02*
G75*
G03*
X98800029Y-122862742I1131371J-1131329D01*
G01*
X114931371Y-121731371D02*
G75*
G02*
X115399971Y-122862742I-1131371J-1131329D01*
G01*
X113737258Y-121200000D02*
G75*
G02*
X114868650Y-121668608I42J-1600000D01*
G01*
X100462742Y-121200000D02*
G75*
G03*
X99331350Y-121668608I-42J-1600000D01*
G01*
%TO.N,Board_61-Net-(J1-Pin_1)*%
X99042641Y-119400000D02*
X115157359Y-119400000D01*
X96000000Y-124800000D02*
X96000000Y-122442641D01*
X117278680Y-120278680D02*
X117321321Y-120321321D01*
X96878680Y-120321320D02*
X96921321Y-120278679D01*
X118200000Y-122442641D02*
X118200000Y-124800000D01*
X96000000Y-122442641D02*
G75*
G02*
X96878660Y-120321300I3000000J41D01*
G01*
X115157359Y-119400000D02*
G75*
G02*
X117278700Y-120278660I41J-3000000D01*
G01*
X117321321Y-120321321D02*
G75*
G02*
X118199971Y-122442641I-2121321J-2121279D01*
G01*
X99042641Y-119400000D02*
G75*
G03*
X96921301Y-120278659I-41J-3000000D01*
G01*
%TO.N,Board_24-Net-(J1-Pin_3)*%
X74000000Y-66000000D02*
X85000000Y-66000000D01*
%TO.N,Board_24-Net-(J1-Pin_2)*%
X87331371Y-62931371D02*
X87268629Y-62868629D01*
X86137258Y-62400000D02*
X72862742Y-62400000D01*
X87800000Y-66000000D02*
X87800000Y-64062742D01*
X71731371Y-62868629D02*
X71668629Y-62931371D01*
X71200000Y-64062742D02*
X71200000Y-66000000D01*
X87331371Y-62931371D02*
G75*
G02*
X87799971Y-64062742I-1131371J-1131329D01*
G01*
X71668629Y-62931371D02*
G75*
G03*
X71200029Y-64062742I1131371J-1131329D01*
G01*
X86137258Y-62400000D02*
G75*
G02*
X87268650Y-62868608I42J-1600000D01*
G01*
X72862742Y-62400000D02*
G75*
G03*
X71731350Y-62868608I-42J-1600000D01*
G01*
%TO.N,Board_24-Net-(J1-Pin_1)*%
X71442641Y-60600000D02*
X87557359Y-60600000D01*
X68400000Y-66000000D02*
X68400000Y-63642641D01*
X90600000Y-63642641D02*
X90600000Y-66000000D01*
X89678680Y-61478680D02*
X89721321Y-61521321D01*
X69278680Y-61521320D02*
X69321321Y-61478679D01*
X68400000Y-63642641D02*
G75*
G02*
X69278660Y-61521300I3000000J41D01*
G01*
X71442641Y-60600000D02*
G75*
G03*
X69321301Y-61478659I-41J-3000000D01*
G01*
X87557359Y-60600000D02*
G75*
G02*
X89678700Y-61478660I41J-3000000D01*
G01*
X89721321Y-61521321D02*
G75*
G02*
X90599971Y-63642641I-2121321J-2121279D01*
G01*
%TO.N,Board_62-Net-(J1-Pin_3)*%
X129200000Y-124800000D02*
X140200000Y-124800000D01*
%TO.N,Board_62-Net-(J1-Pin_2)*%
X126400000Y-122862742D02*
X126400000Y-124800000D01*
X143000000Y-124800000D02*
X143000000Y-122862742D01*
X142531371Y-121731371D02*
X142468629Y-121668629D01*
X141337258Y-121200000D02*
X128062742Y-121200000D01*
X126931371Y-121668629D02*
X126868629Y-121731371D01*
X128062742Y-121200000D02*
G75*
G03*
X126931350Y-121668608I-42J-1600000D01*
G01*
X142531371Y-121731371D02*
G75*
G02*
X142999971Y-122862742I-1131371J-1131329D01*
G01*
X141337258Y-121200000D02*
G75*
G02*
X142468650Y-121668608I42J-1600000D01*
G01*
X126868629Y-121731371D02*
G75*
G03*
X126400029Y-122862742I1131371J-1131329D01*
G01*
%TO.N,Board_62-Net-(J1-Pin_1)*%
X123600000Y-124800000D02*
X123600000Y-122442641D01*
X145800000Y-122442641D02*
X145800000Y-124800000D01*
X144878680Y-120278680D02*
X144921321Y-120321321D01*
X126642641Y-119400000D02*
X142757359Y-119400000D01*
X124478680Y-120321320D02*
X124521321Y-120278679D01*
X144921321Y-120321321D02*
G75*
G02*
X145799971Y-122442641I-2121321J-2121279D01*
G01*
X123600000Y-122442641D02*
G75*
G02*
X124478660Y-120321300I3000000J41D01*
G01*
X126642641Y-119400000D02*
G75*
G03*
X124521301Y-120278659I-41J-3000000D01*
G01*
X142757359Y-119400000D02*
G75*
G02*
X144878700Y-120278660I41J-3000000D01*
G01*
%TO.N,Board_30-Net-(J1-Pin_1)*%
X71442641Y-70400000D02*
X87557359Y-70400000D01*
X89678680Y-71278680D02*
X89721321Y-71321321D01*
X69278680Y-71321320D02*
X69321321Y-71278679D01*
X68400000Y-75800000D02*
X68400000Y-73442641D01*
X90600000Y-73442641D02*
X90600000Y-75800000D01*
X68400000Y-73442641D02*
G75*
G02*
X69278660Y-71321300I3000000J41D01*
G01*
X89721321Y-71321321D02*
G75*
G02*
X90599971Y-73442641I-2121321J-2121279D01*
G01*
X71442641Y-70400000D02*
G75*
G03*
X69321301Y-71278659I-41J-3000000D01*
G01*
X87557359Y-70400000D02*
G75*
G02*
X89678700Y-71278660I41J-3000000D01*
G01*
%TO.N,Board_30-Net-(J1-Pin_2)*%
X87800000Y-75800000D02*
X87800000Y-73862742D01*
X86137258Y-72200000D02*
X72862742Y-72200000D01*
X71200000Y-73862742D02*
X71200000Y-75800000D01*
X71731371Y-72668629D02*
X71668629Y-72731371D01*
X87331371Y-72731371D02*
X87268629Y-72668629D01*
X86137258Y-72200000D02*
G75*
G02*
X87268650Y-72668608I42J-1600000D01*
G01*
X87331371Y-72731371D02*
G75*
G02*
X87799971Y-73862742I-1131371J-1131329D01*
G01*
X71668629Y-72731371D02*
G75*
G03*
X71200029Y-73862742I1131371J-1131329D01*
G01*
X72862742Y-72200000D02*
G75*
G03*
X71731350Y-72668608I-42J-1600000D01*
G01*
%TO.N,Board_30-Net-(J1-Pin_3)*%
X74000000Y-75800000D02*
X85000000Y-75800000D01*
%TO.N,Board_1-Net-(J1-Pin_3)*%
X101600000Y-26800000D02*
X112600000Y-26800000D01*
%TO.N,Board_1-Net-(J1-Pin_2)*%
X114931371Y-23731371D02*
X114868629Y-23668629D01*
X98800000Y-24862742D02*
X98800000Y-26800000D01*
X113737258Y-23200000D02*
X100462742Y-23200000D01*
X99331371Y-23668629D02*
X99268629Y-23731371D01*
X115400000Y-26800000D02*
X115400000Y-24862742D01*
X114931371Y-23731371D02*
G75*
G02*
X115399971Y-24862742I-1131371J-1131329D01*
G01*
X99268629Y-23731371D02*
G75*
G03*
X98800029Y-24862742I1131371J-1131329D01*
G01*
X100462742Y-23200000D02*
G75*
G03*
X99331350Y-23668608I-42J-1600000D01*
G01*
X113737258Y-23200000D02*
G75*
G02*
X114868650Y-23668608I42J-1600000D01*
G01*
%TO.N,Board_1-Net-(J1-Pin_1)*%
X96000000Y-26800000D02*
X96000000Y-24442641D01*
X99042641Y-21400000D02*
X115157359Y-21400000D01*
X96878680Y-22321320D02*
X96921321Y-22278679D01*
X118200000Y-24442641D02*
X118200000Y-26800000D01*
X117278680Y-22278680D02*
X117321321Y-22321321D01*
X99042641Y-21400000D02*
G75*
G03*
X96921301Y-22278659I-41J-3000000D01*
G01*
X96000000Y-24442641D02*
G75*
G02*
X96878660Y-22321300I3000000J41D01*
G01*
X115157359Y-21400000D02*
G75*
G02*
X117278700Y-22278660I41J-3000000D01*
G01*
X117321321Y-22321321D02*
G75*
G02*
X118199971Y-24442641I-2121321J-2121279D01*
G01*
%TO.N,Board_10-Net-(J1-Pin_3)*%
X184400000Y-36600000D02*
X195400000Y-36600000D01*
%TO.N,Board_10-Net-(J1-Pin_2)*%
X198200000Y-36600000D02*
X198200000Y-34662742D01*
X197731371Y-33531371D02*
X197668629Y-33468629D01*
X196537258Y-33000000D02*
X183262742Y-33000000D01*
X181600000Y-34662742D02*
X181600000Y-36600000D01*
X182131371Y-33468629D02*
X182068629Y-33531371D01*
X197731371Y-33531371D02*
G75*
G02*
X198199971Y-34662742I-1131371J-1131329D01*
G01*
X182068629Y-33531371D02*
G75*
G03*
X181600029Y-34662742I1131371J-1131329D01*
G01*
X196537258Y-33000000D02*
G75*
G02*
X197668650Y-33468608I42J-1600000D01*
G01*
X183262742Y-33000000D02*
G75*
G03*
X182131350Y-33468608I-42J-1600000D01*
G01*
%TO.N,Board_10-Net-(J1-Pin_1)*%
X179678680Y-32121320D02*
X179721321Y-32078679D01*
X181842641Y-31200000D02*
X197957359Y-31200000D01*
X178800000Y-36600000D02*
X178800000Y-34242641D01*
X201000000Y-34242641D02*
X201000000Y-36600000D01*
X200078680Y-32078680D02*
X200121321Y-32121321D01*
X181842641Y-31200000D02*
G75*
G03*
X179721301Y-32078659I-41J-3000000D01*
G01*
X178800000Y-34242641D02*
G75*
G02*
X179678660Y-32121300I3000000J41D01*
G01*
X197957359Y-31200000D02*
G75*
G02*
X200078700Y-32078660I41J-3000000D01*
G01*
X200121321Y-32121321D02*
G75*
G02*
X200999971Y-34242641I-2121321J-2121279D01*
G01*
%TO.N,Board_37-Net-(J1-Pin_3)*%
X101600000Y-85600000D02*
X112600000Y-85600000D01*
%TO.N,Board_37-Net-(J1-Pin_2)*%
X113737258Y-82000000D02*
X100462742Y-82000000D01*
X98800000Y-83662742D02*
X98800000Y-85600000D01*
X99331371Y-82468629D02*
X99268629Y-82531371D01*
X114931371Y-82531371D02*
X114868629Y-82468629D01*
X115400000Y-85600000D02*
X115400000Y-83662742D01*
X114931371Y-82531371D02*
G75*
G02*
X115399971Y-83662742I-1131371J-1131329D01*
G01*
X100462742Y-82000000D02*
G75*
G03*
X99331350Y-82468608I-42J-1600000D01*
G01*
X113737258Y-82000000D02*
G75*
G02*
X114868650Y-82468608I42J-1600000D01*
G01*
X99268629Y-82531371D02*
G75*
G03*
X98800029Y-83662742I1131371J-1131329D01*
G01*
%TO.N,Board_37-Net-(J1-Pin_1)*%
X99042641Y-80200000D02*
X115157359Y-80200000D01*
X118200000Y-83242641D02*
X118200000Y-85600000D01*
X96000000Y-85600000D02*
X96000000Y-83242641D01*
X117278680Y-81078680D02*
X117321321Y-81121321D01*
X96878680Y-81121320D02*
X96921321Y-81078679D01*
X117321321Y-81121321D02*
G75*
G02*
X118199971Y-83242641I-2121321J-2121279D01*
G01*
X115157359Y-80200000D02*
G75*
G02*
X117278700Y-81078660I41J-3000000D01*
G01*
X99042641Y-80200000D02*
G75*
G03*
X96921301Y-81078659I-41J-3000000D01*
G01*
X96000000Y-83242641D02*
G75*
G02*
X96878660Y-81121300I3000000J41D01*
G01*
%TO.N,Board_46-Net-(J1-Pin_1)*%
X179678680Y-90921320D02*
X179721321Y-90878679D01*
X181842641Y-90000000D02*
X197957359Y-90000000D01*
X178800000Y-95400000D02*
X178800000Y-93042641D01*
X201000000Y-93042641D02*
X201000000Y-95400000D01*
X200078680Y-90878680D02*
X200121321Y-90921321D01*
X181842641Y-90000000D02*
G75*
G03*
X179721301Y-90878659I-41J-3000000D01*
G01*
X178800000Y-93042641D02*
G75*
G02*
X179678660Y-90921300I3000000J41D01*
G01*
X197957359Y-90000000D02*
G75*
G02*
X200078700Y-90878660I41J-3000000D01*
G01*
X200121321Y-90921321D02*
G75*
G02*
X200999971Y-93042641I-2121321J-2121279D01*
G01*
%TO.N,Board_46-Net-(J1-Pin_2)*%
X197731371Y-92331371D02*
X197668629Y-92268629D01*
X196537258Y-91800000D02*
X183262742Y-91800000D01*
X182131371Y-92268629D02*
X182068629Y-92331371D01*
X198200000Y-95400000D02*
X198200000Y-93462742D01*
X181600000Y-93462742D02*
X181600000Y-95400000D01*
X196537258Y-91800000D02*
G75*
G02*
X197668650Y-92268608I42J-1600000D01*
G01*
X182068629Y-92331371D02*
G75*
G03*
X181600029Y-93462742I1131371J-1131329D01*
G01*
X183262742Y-91800000D02*
G75*
G03*
X182131350Y-92268608I-42J-1600000D01*
G01*
X197731371Y-92331371D02*
G75*
G02*
X198199971Y-93462742I-1131371J-1131329D01*
G01*
%TO.N,Board_46-Net-(J1-Pin_3)*%
X184400000Y-95400000D02*
X195400000Y-95400000D01*
%TO.N,Board_52-Net-(J1-Pin_1)*%
X178800000Y-105200000D02*
X178800000Y-102842641D01*
X181842641Y-99800000D02*
X197957359Y-99800000D01*
X179678680Y-100721320D02*
X179721321Y-100678679D01*
X201000000Y-102842641D02*
X201000000Y-105200000D01*
X200078680Y-100678680D02*
X200121321Y-100721321D01*
X178800000Y-102842641D02*
G75*
G02*
X179678660Y-100721300I3000000J41D01*
G01*
X197957359Y-99800000D02*
G75*
G02*
X200078700Y-100678660I41J-3000000D01*
G01*
X181842641Y-99800000D02*
G75*
G03*
X179721301Y-100678659I-41J-3000000D01*
G01*
X200121321Y-100721321D02*
G75*
G02*
X200999971Y-102842641I-2121321J-2121279D01*
G01*
%TO.N,Board_52-Net-(J1-Pin_2)*%
X198200000Y-105200000D02*
X198200000Y-103262742D01*
X182131371Y-102068629D02*
X182068629Y-102131371D01*
X181600000Y-103262742D02*
X181600000Y-105200000D01*
X196537258Y-101600000D02*
X183262742Y-101600000D01*
X197731371Y-102131371D02*
X197668629Y-102068629D01*
X197731371Y-102131371D02*
G75*
G02*
X198199971Y-103262742I-1131371J-1131329D01*
G01*
X183262742Y-101600000D02*
G75*
G03*
X182131350Y-102068608I-42J-1600000D01*
G01*
X182068629Y-102131371D02*
G75*
G03*
X181600029Y-103262742I1131371J-1131329D01*
G01*
X196537258Y-101600000D02*
G75*
G02*
X197668650Y-102068608I42J-1600000D01*
G01*
%TO.N,Board_52-Net-(J1-Pin_3)*%
X184400000Y-105200000D02*
X195400000Y-105200000D01*
%TO.N,Board_23-Net-(J1-Pin_1)*%
X207278680Y-51721320D02*
X207321321Y-51678679D01*
X228600000Y-53842641D02*
X228600000Y-56200000D01*
X227678680Y-51678680D02*
X227721321Y-51721321D01*
X206400000Y-56200000D02*
X206400000Y-53842641D01*
X209442641Y-50800000D02*
X225557359Y-50800000D01*
X206400000Y-53842641D02*
G75*
G02*
X207278660Y-51721300I3000000J41D01*
G01*
X209442641Y-50800000D02*
G75*
G03*
X207321301Y-51678659I-41J-3000000D01*
G01*
X225557359Y-50800000D02*
G75*
G02*
X227678700Y-51678660I41J-3000000D01*
G01*
X227721321Y-51721321D02*
G75*
G02*
X228599971Y-53842641I-2121321J-2121279D01*
G01*
%TO.N,Board_23-Net-(J1-Pin_2)*%
X225331371Y-53131371D02*
X225268629Y-53068629D01*
X225800000Y-56200000D02*
X225800000Y-54262742D01*
X209200000Y-54262742D02*
X209200000Y-56200000D01*
X224137258Y-52600000D02*
X210862742Y-52600000D01*
X209731371Y-53068629D02*
X209668629Y-53131371D01*
X209668629Y-53131371D02*
G75*
G03*
X209200029Y-54262742I1131371J-1131329D01*
G01*
X225331371Y-53131371D02*
G75*
G02*
X225799971Y-54262742I-1131371J-1131329D01*
G01*
X224137258Y-52600000D02*
G75*
G02*
X225268650Y-53068608I42J-1600000D01*
G01*
X210862742Y-52600000D02*
G75*
G03*
X209731350Y-53068608I-42J-1600000D01*
G01*
%TO.N,Board_23-Net-(J1-Pin_3)*%
X212000000Y-56200000D02*
X223000000Y-56200000D01*
%TO.N,Board_41-Net-(J1-Pin_1)*%
X206400000Y-85600000D02*
X206400000Y-83242641D01*
X227678680Y-81078680D02*
X227721321Y-81121321D01*
X207278680Y-81121320D02*
X207321321Y-81078679D01*
X209442641Y-80200000D02*
X225557359Y-80200000D01*
X228600000Y-83242641D02*
X228600000Y-85600000D01*
X209442641Y-80200000D02*
G75*
G03*
X207321301Y-81078659I-41J-3000000D01*
G01*
X206400000Y-83242641D02*
G75*
G02*
X207278660Y-81121300I3000000J41D01*
G01*
X225557359Y-80200000D02*
G75*
G02*
X227678700Y-81078660I41J-3000000D01*
G01*
X227721321Y-81121321D02*
G75*
G02*
X228599971Y-83242641I-2121321J-2121279D01*
G01*
%TO.N,Board_41-Net-(J1-Pin_2)*%
X209200000Y-83662742D02*
X209200000Y-85600000D01*
X225331371Y-82531371D02*
X225268629Y-82468629D01*
X225800000Y-85600000D02*
X225800000Y-83662742D01*
X209731371Y-82468629D02*
X209668629Y-82531371D01*
X224137258Y-82000000D02*
X210862742Y-82000000D01*
X224137258Y-82000000D02*
G75*
G02*
X225268650Y-82468608I42J-1600000D01*
G01*
X209668629Y-82531371D02*
G75*
G03*
X209200029Y-83662742I1131371J-1131329D01*
G01*
X225331371Y-82531371D02*
G75*
G02*
X225799971Y-83662742I-1131371J-1131329D01*
G01*
X210862742Y-82000000D02*
G75*
G03*
X209731350Y-82468608I-42J-1600000D01*
G01*
%TO.N,Board_41-Net-(J1-Pin_3)*%
X212000000Y-85600000D02*
X223000000Y-85600000D01*
%TO.N,Board_9-Net-(J1-Pin_3)*%
X156800000Y-36600000D02*
X167800000Y-36600000D01*
%TO.N,Board_9-Net-(J1-Pin_2)*%
X154531371Y-33468629D02*
X154468629Y-33531371D01*
X170131371Y-33531371D02*
X170068629Y-33468629D01*
X154000000Y-34662742D02*
X154000000Y-36600000D01*
X168937258Y-33000000D02*
X155662742Y-33000000D01*
X170600000Y-36600000D02*
X170600000Y-34662742D01*
X154468629Y-33531371D02*
G75*
G03*
X154000029Y-34662742I1131371J-1131329D01*
G01*
X155662742Y-33000000D02*
G75*
G03*
X154531350Y-33468608I-42J-1600000D01*
G01*
X170131371Y-33531371D02*
G75*
G02*
X170599971Y-34662742I-1131371J-1131329D01*
G01*
X168937258Y-33000000D02*
G75*
G02*
X170068650Y-33468608I42J-1600000D01*
G01*
%TO.N,Board_9-Net-(J1-Pin_1)*%
X152078680Y-32121320D02*
X152121321Y-32078679D01*
X173400000Y-34242641D02*
X173400000Y-36600000D01*
X172478680Y-32078680D02*
X172521321Y-32121321D01*
X151200000Y-36600000D02*
X151200000Y-34242641D01*
X154242641Y-31200000D02*
X170357359Y-31200000D01*
X151200000Y-34242641D02*
G75*
G02*
X152078660Y-32121300I3000000J41D01*
G01*
X154242641Y-31200000D02*
G75*
G03*
X152121301Y-32078659I-41J-3000000D01*
G01*
X170357359Y-31200000D02*
G75*
G02*
X172478700Y-32078660I41J-3000000D01*
G01*
X172521321Y-32121321D02*
G75*
G02*
X173399971Y-34242641I-2121321J-2121279D01*
G01*
%TO.N,Board_60-Net-(J1-Pin_1)*%
X69278680Y-120321320D02*
X69321321Y-120278679D01*
X68400000Y-124800000D02*
X68400000Y-122442641D01*
X71442641Y-119400000D02*
X87557359Y-119400000D01*
X89678680Y-120278680D02*
X89721321Y-120321321D01*
X90600000Y-122442641D02*
X90600000Y-124800000D01*
X89721321Y-120321321D02*
G75*
G02*
X90599971Y-122442641I-2121321J-2121279D01*
G01*
X68400000Y-122442641D02*
G75*
G02*
X69278660Y-120321300I3000000J41D01*
G01*
X87557359Y-119400000D02*
G75*
G02*
X89678700Y-120278660I41J-3000000D01*
G01*
X71442641Y-119400000D02*
G75*
G03*
X69321301Y-120278659I-41J-3000000D01*
G01*
%TO.N,Board_60-Net-(J1-Pin_2)*%
X86137258Y-121200000D02*
X72862742Y-121200000D01*
X71731371Y-121668629D02*
X71668629Y-121731371D01*
X71200000Y-122862742D02*
X71200000Y-124800000D01*
X87331371Y-121731371D02*
X87268629Y-121668629D01*
X87800000Y-124800000D02*
X87800000Y-122862742D01*
X87331371Y-121731371D02*
G75*
G02*
X87799971Y-122862742I-1131371J-1131329D01*
G01*
X72862742Y-121200000D02*
G75*
G03*
X71731350Y-121668608I-42J-1600000D01*
G01*
X71668629Y-121731371D02*
G75*
G03*
X71200029Y-122862742I1131371J-1131329D01*
G01*
X86137258Y-121200000D02*
G75*
G02*
X87268650Y-121668608I42J-1600000D01*
G01*
%TO.N,Board_60-Net-(J1-Pin_3)*%
X74000000Y-124800000D02*
X85000000Y-124800000D01*
%TO.N,Board_15-Net-(J1-Pin_3)*%
X156800000Y-46400000D02*
X167800000Y-46400000D01*
%TO.N,Board_15-Net-(J1-Pin_2)*%
X168937258Y-42800000D02*
X155662742Y-42800000D01*
X170600000Y-46400000D02*
X170600000Y-44462742D01*
X170131371Y-43331371D02*
X170068629Y-43268629D01*
X154531371Y-43268629D02*
X154468629Y-43331371D01*
X154000000Y-44462742D02*
X154000000Y-46400000D01*
X170131371Y-43331371D02*
G75*
G02*
X170599971Y-44462742I-1131371J-1131329D01*
G01*
X155662742Y-42800000D02*
G75*
G03*
X154531350Y-43268608I-42J-1600000D01*
G01*
X154468629Y-43331371D02*
G75*
G03*
X154000029Y-44462742I1131371J-1131329D01*
G01*
X168937258Y-42800000D02*
G75*
G02*
X170068650Y-43268608I42J-1600000D01*
G01*
%TO.N,Board_15-Net-(J1-Pin_1)*%
X172478680Y-41878680D02*
X172521321Y-41921321D01*
X173400000Y-44042641D02*
X173400000Y-46400000D01*
X152078680Y-41921320D02*
X152121321Y-41878679D01*
X154242641Y-41000000D02*
X170357359Y-41000000D01*
X151200000Y-46400000D02*
X151200000Y-44042641D01*
X154242641Y-41000000D02*
G75*
G03*
X152121301Y-41878659I-41J-3000000D01*
G01*
X172521321Y-41921321D02*
G75*
G02*
X173399971Y-44042641I-2121321J-2121279D01*
G01*
X151200000Y-44042641D02*
G75*
G02*
X152078660Y-41921300I3000000J41D01*
G01*
X170357359Y-41000000D02*
G75*
G02*
X172478700Y-41878660I41J-3000000D01*
G01*
%TO.N,Board_53-Net-(J1-Pin_3)*%
X212000000Y-105200000D02*
X223000000Y-105200000D01*
%TO.N,Board_53-Net-(J1-Pin_2)*%
X224137258Y-101600000D02*
X210862742Y-101600000D01*
X209200000Y-103262742D02*
X209200000Y-105200000D01*
X209731371Y-102068629D02*
X209668629Y-102131371D01*
X225331371Y-102131371D02*
X225268629Y-102068629D01*
X225800000Y-105200000D02*
X225800000Y-103262742D01*
X225331371Y-102131371D02*
G75*
G02*
X225799971Y-103262742I-1131371J-1131329D01*
G01*
X209668629Y-102131371D02*
G75*
G03*
X209200029Y-103262742I1131371J-1131329D01*
G01*
X224137258Y-101600000D02*
G75*
G02*
X225268650Y-102068608I42J-1600000D01*
G01*
X210862742Y-101600000D02*
G75*
G03*
X209731350Y-102068608I-42J-1600000D01*
G01*
%TO.N,Board_53-Net-(J1-Pin_1)*%
X209442641Y-99800000D02*
X225557359Y-99800000D01*
X228600000Y-102842641D02*
X228600000Y-105200000D01*
X206400000Y-105200000D02*
X206400000Y-102842641D01*
X227678680Y-100678680D02*
X227721321Y-100721321D01*
X207278680Y-100721320D02*
X207321321Y-100678679D01*
X209442641Y-99800000D02*
G75*
G03*
X207321301Y-100678659I-41J-3000000D01*
G01*
X225557359Y-99800000D02*
G75*
G02*
X227678700Y-100678660I41J-3000000D01*
G01*
X227721321Y-100721321D02*
G75*
G02*
X228599971Y-102842641I-2121321J-2121279D01*
G01*
X206400000Y-102842641D02*
G75*
G02*
X207278660Y-100721300I3000000J41D01*
G01*
%TO.N,Board_16-Net-(J1-Pin_1)*%
X200078680Y-41878680D02*
X200121321Y-41921321D01*
X201000000Y-44042641D02*
X201000000Y-46400000D01*
X178800000Y-46400000D02*
X178800000Y-44042641D01*
X179678680Y-41921320D02*
X179721321Y-41878679D01*
X181842641Y-41000000D02*
X197957359Y-41000000D01*
X200121321Y-41921321D02*
G75*
G02*
X200999971Y-44042641I-2121321J-2121279D01*
G01*
X181842641Y-41000000D02*
G75*
G03*
X179721301Y-41878659I-41J-3000000D01*
G01*
X178800000Y-44042641D02*
G75*
G02*
X179678660Y-41921300I3000000J41D01*
G01*
X197957359Y-41000000D02*
G75*
G02*
X200078700Y-41878660I41J-3000000D01*
G01*
%TO.N,Board_16-Net-(J1-Pin_2)*%
X197731371Y-43331371D02*
X197668629Y-43268629D01*
X196537258Y-42800000D02*
X183262742Y-42800000D01*
X198200000Y-46400000D02*
X198200000Y-44462742D01*
X182131371Y-43268629D02*
X182068629Y-43331371D01*
X181600000Y-44462742D02*
X181600000Y-46400000D01*
X197731371Y-43331371D02*
G75*
G02*
X198199971Y-44462742I-1131371J-1131329D01*
G01*
X182068629Y-43331371D02*
G75*
G03*
X181600029Y-44462742I1131371J-1131329D01*
G01*
X183262742Y-42800000D02*
G75*
G03*
X182131350Y-43268608I-42J-1600000D01*
G01*
X196537258Y-42800000D02*
G75*
G02*
X197668650Y-43268608I42J-1600000D01*
G01*
%TO.N,Board_16-Net-(J1-Pin_3)*%
X184400000Y-46400000D02*
X195400000Y-46400000D01*
%TO.N,Board_25-Net-(J1-Pin_3)*%
X101600000Y-66000000D02*
X112600000Y-66000000D01*
%TO.N,Board_25-Net-(J1-Pin_2)*%
X113737258Y-62400000D02*
X100462742Y-62400000D01*
X115400000Y-66000000D02*
X115400000Y-64062742D01*
X114931371Y-62931371D02*
X114868629Y-62868629D01*
X98800000Y-64062742D02*
X98800000Y-66000000D01*
X99331371Y-62868629D02*
X99268629Y-62931371D01*
X114931371Y-62931371D02*
G75*
G02*
X115399971Y-64062742I-1131371J-1131329D01*
G01*
X99268629Y-62931371D02*
G75*
G03*
X98800029Y-64062742I1131371J-1131329D01*
G01*
X100462742Y-62400000D02*
G75*
G03*
X99331350Y-62868608I-42J-1600000D01*
G01*
X113737258Y-62400000D02*
G75*
G02*
X114868650Y-62868608I42J-1600000D01*
G01*
%TO.N,Board_25-Net-(J1-Pin_1)*%
X96878680Y-61521320D02*
X96921321Y-61478679D01*
X99042641Y-60600000D02*
X115157359Y-60600000D01*
X118200000Y-63642641D02*
X118200000Y-66000000D01*
X117278680Y-61478680D02*
X117321321Y-61521321D01*
X96000000Y-66000000D02*
X96000000Y-63642641D01*
X96000000Y-63642641D02*
G75*
G02*
X96878660Y-61521300I3000000J41D01*
G01*
X115157359Y-60600000D02*
G75*
G02*
X117278700Y-61478660I41J-3000000D01*
G01*
X117321321Y-61521321D02*
G75*
G02*
X118199971Y-63642641I-2121321J-2121279D01*
G01*
X99042641Y-60600000D02*
G75*
G03*
X96921301Y-61478659I-41J-3000000D01*
G01*
%TO.N,Board_18-Net-(J1-Pin_3)*%
X74000000Y-56200000D02*
X85000000Y-56200000D01*
%TO.N,Board_18-Net-(J1-Pin_2)*%
X86137258Y-52600000D02*
X72862742Y-52600000D01*
X87800000Y-56200000D02*
X87800000Y-54262742D01*
X87331371Y-53131371D02*
X87268629Y-53068629D01*
X71731371Y-53068629D02*
X71668629Y-53131371D01*
X71200000Y-54262742D02*
X71200000Y-56200000D01*
X71668629Y-53131371D02*
G75*
G03*
X71200029Y-54262742I1131371J-1131329D01*
G01*
X72862742Y-52600000D02*
G75*
G03*
X71731350Y-53068608I-42J-1600000D01*
G01*
X86137258Y-52600000D02*
G75*
G02*
X87268650Y-53068608I42J-1600000D01*
G01*
X87331371Y-53131371D02*
G75*
G02*
X87799971Y-54262742I-1131371J-1131329D01*
G01*
%TO.N,Board_18-Net-(J1-Pin_1)*%
X71442641Y-50800000D02*
X87557359Y-50800000D01*
X68400000Y-56200000D02*
X68400000Y-53842641D01*
X90600000Y-53842641D02*
X90600000Y-56200000D01*
X69278680Y-51721320D02*
X69321321Y-51678679D01*
X89678680Y-51678680D02*
X89721321Y-51721321D01*
X87557359Y-50800000D02*
G75*
G02*
X89678700Y-51678660I41J-3000000D01*
G01*
X68400000Y-53842641D02*
G75*
G02*
X69278660Y-51721300I3000000J41D01*
G01*
X89721321Y-51721321D02*
G75*
G02*
X90599971Y-53842641I-2121321J-2121279D01*
G01*
X71442641Y-50800000D02*
G75*
G03*
X69321301Y-51678659I-41J-3000000D01*
G01*
%TO.N,Board_48-Net-(J1-Pin_3)*%
X74000000Y-105200000D02*
X85000000Y-105200000D01*
%TO.N,Board_48-Net-(J1-Pin_2)*%
X71731371Y-102068629D02*
X71668629Y-102131371D01*
X87800000Y-105200000D02*
X87800000Y-103262742D01*
X86137258Y-101600000D02*
X72862742Y-101600000D01*
X71200000Y-103262742D02*
X71200000Y-105200000D01*
X87331371Y-102131371D02*
X87268629Y-102068629D01*
X87331371Y-102131371D02*
G75*
G02*
X87799971Y-103262742I-1131371J-1131329D01*
G01*
X71668629Y-102131371D02*
G75*
G03*
X71200029Y-103262742I1131371J-1131329D01*
G01*
X72862742Y-101600000D02*
G75*
G03*
X71731350Y-102068608I-42J-1600000D01*
G01*
X86137258Y-101600000D02*
G75*
G02*
X87268650Y-102068608I42J-1600000D01*
G01*
%TO.N,Board_48-Net-(J1-Pin_1)*%
X90600000Y-102842641D02*
X90600000Y-105200000D01*
X89678680Y-100678680D02*
X89721321Y-100721321D01*
X68400000Y-105200000D02*
X68400000Y-102842641D01*
X69278680Y-100721320D02*
X69321321Y-100678679D01*
X71442641Y-99800000D02*
X87557359Y-99800000D01*
X87557359Y-99800000D02*
G75*
G02*
X89678700Y-100678660I41J-3000000D01*
G01*
X89721321Y-100721321D02*
G75*
G02*
X90599971Y-102842641I-2121321J-2121279D01*
G01*
X71442641Y-99800000D02*
G75*
G03*
X69321301Y-100678659I-41J-3000000D01*
G01*
X68400000Y-102842641D02*
G75*
G02*
X69278660Y-100721300I3000000J41D01*
G01*
%TO.N,Board_34-Net-(J1-Pin_1)*%
X178800000Y-75800000D02*
X178800000Y-73442641D01*
X201000000Y-73442641D02*
X201000000Y-75800000D01*
X200078680Y-71278680D02*
X200121321Y-71321321D01*
X179678680Y-71321320D02*
X179721321Y-71278679D01*
X181842641Y-70400000D02*
X197957359Y-70400000D01*
X178800000Y-73442641D02*
G75*
G02*
X179678660Y-71321300I3000000J41D01*
G01*
X200121321Y-71321321D02*
G75*
G02*
X200999971Y-73442641I-2121321J-2121279D01*
G01*
X181842641Y-70400000D02*
G75*
G03*
X179721301Y-71278659I-41J-3000000D01*
G01*
X197957359Y-70400000D02*
G75*
G02*
X200078700Y-71278660I41J-3000000D01*
G01*
%TO.N,Board_34-Net-(J1-Pin_2)*%
X196537258Y-72200000D02*
X183262742Y-72200000D01*
X198200000Y-75800000D02*
X198200000Y-73862742D01*
X181600000Y-73862742D02*
X181600000Y-75800000D01*
X197731371Y-72731371D02*
X197668629Y-72668629D01*
X182131371Y-72668629D02*
X182068629Y-72731371D01*
X196537258Y-72200000D02*
G75*
G02*
X197668650Y-72668608I42J-1600000D01*
G01*
X197731371Y-72731371D02*
G75*
G02*
X198199971Y-73862742I-1131371J-1131329D01*
G01*
X183262742Y-72200000D02*
G75*
G03*
X182131350Y-72668608I-42J-1600000D01*
G01*
X182068629Y-72731371D02*
G75*
G03*
X181600029Y-73862742I1131371J-1131329D01*
G01*
%TO.N,Board_34-Net-(J1-Pin_3)*%
X184400000Y-75800000D02*
X195400000Y-75800000D01*
%TO.N,Board_43-Net-(J1-Pin_3)*%
X101600000Y-95400000D02*
X112600000Y-95400000D01*
%TO.N,Board_43-Net-(J1-Pin_2)*%
X99331371Y-92268629D02*
X99268629Y-92331371D01*
X113737258Y-91800000D02*
X100462742Y-91800000D01*
X114931371Y-92331371D02*
X114868629Y-92268629D01*
X98800000Y-93462742D02*
X98800000Y-95400000D01*
X115400000Y-95400000D02*
X115400000Y-93462742D01*
X114931371Y-92331371D02*
G75*
G02*
X115399971Y-93462742I-1131371J-1131329D01*
G01*
X99268629Y-92331371D02*
G75*
G03*
X98800029Y-93462742I1131371J-1131329D01*
G01*
X100462742Y-91800000D02*
G75*
G03*
X99331350Y-92268608I-42J-1600000D01*
G01*
X113737258Y-91800000D02*
G75*
G02*
X114868650Y-92268608I42J-1600000D01*
G01*
%TO.N,Board_43-Net-(J1-Pin_1)*%
X96878680Y-90921320D02*
X96921321Y-90878679D01*
X96000000Y-95400000D02*
X96000000Y-93042641D01*
X117278680Y-90878680D02*
X117321321Y-90921321D01*
X118200000Y-93042641D02*
X118200000Y-95400000D01*
X99042641Y-90000000D02*
X115157359Y-90000000D01*
X96000000Y-93042641D02*
G75*
G02*
X96878660Y-90921300I3000000J41D01*
G01*
X117321321Y-90921321D02*
G75*
G02*
X118199971Y-93042641I-2121321J-2121279D01*
G01*
X99042641Y-90000000D02*
G75*
G03*
X96921301Y-90878659I-41J-3000000D01*
G01*
X115157359Y-90000000D02*
G75*
G02*
X117278700Y-90878660I41J-3000000D01*
G01*
%TO.N,Board_26-Net-(J1-Pin_1)*%
X124478680Y-61521320D02*
X124521321Y-61478679D01*
X123600000Y-66000000D02*
X123600000Y-63642641D01*
X126642641Y-60600000D02*
X142757359Y-60600000D01*
X144878680Y-61478680D02*
X144921321Y-61521321D01*
X145800000Y-63642641D02*
X145800000Y-66000000D01*
X126642641Y-60600000D02*
G75*
G03*
X124521301Y-61478659I-41J-3000000D01*
G01*
X123600000Y-63642641D02*
G75*
G02*
X124478660Y-61521300I3000000J41D01*
G01*
X142757359Y-60600000D02*
G75*
G02*
X144878700Y-61478660I41J-3000000D01*
G01*
X144921321Y-61521321D02*
G75*
G02*
X145799971Y-63642641I-2121321J-2121279D01*
G01*
%TO.N,Board_26-Net-(J1-Pin_2)*%
X142531371Y-62931371D02*
X142468629Y-62868629D01*
X143000000Y-66000000D02*
X143000000Y-64062742D01*
X141337258Y-62400000D02*
X128062742Y-62400000D01*
X126400000Y-64062742D02*
X126400000Y-66000000D01*
X126931371Y-62868629D02*
X126868629Y-62931371D01*
X141337258Y-62400000D02*
G75*
G02*
X142468650Y-62868608I42J-1600000D01*
G01*
X126868629Y-62931371D02*
G75*
G03*
X126400029Y-64062742I1131371J-1131329D01*
G01*
X142531371Y-62931371D02*
G75*
G02*
X142999971Y-64062742I-1131371J-1131329D01*
G01*
X128062742Y-62400000D02*
G75*
G03*
X126931350Y-62868608I-42J-1600000D01*
G01*
%TO.N,Board_26-Net-(J1-Pin_3)*%
X129200000Y-66000000D02*
X140200000Y-66000000D01*
%TO.N,Board_55-Net-(J1-Pin_3)*%
X101600000Y-115000000D02*
X112600000Y-115000000D01*
%TO.N,Board_55-Net-(J1-Pin_2)*%
X99331371Y-111868629D02*
X99268629Y-111931371D01*
X98800000Y-113062742D02*
X98800000Y-115000000D01*
X115400000Y-115000000D02*
X115400000Y-113062742D01*
X113737258Y-111400000D02*
X100462742Y-111400000D01*
X114931371Y-111931371D02*
X114868629Y-111868629D01*
X114931371Y-111931371D02*
G75*
G02*
X115399971Y-113062742I-1131371J-1131329D01*
G01*
X113737258Y-111400000D02*
G75*
G02*
X114868650Y-111868608I42J-1600000D01*
G01*
X99268629Y-111931371D02*
G75*
G03*
X98800029Y-113062742I1131371J-1131329D01*
G01*
X100462742Y-111400000D02*
G75*
G03*
X99331350Y-111868608I-42J-1600000D01*
G01*
%TO.N,Board_55-Net-(J1-Pin_1)*%
X118200000Y-112642641D02*
X118200000Y-115000000D01*
X96000000Y-115000000D02*
X96000000Y-112642641D01*
X117278680Y-110478680D02*
X117321321Y-110521321D01*
X96878680Y-110521320D02*
X96921321Y-110478679D01*
X99042641Y-109600000D02*
X115157359Y-109600000D01*
X96000000Y-112642641D02*
G75*
G02*
X96878660Y-110521300I3000000J41D01*
G01*
X99042641Y-109600000D02*
G75*
G03*
X96921301Y-110478659I-41J-3000000D01*
G01*
X117321321Y-110521321D02*
G75*
G02*
X118199971Y-112642641I-2121321J-2121279D01*
G01*
X115157359Y-109600000D02*
G75*
G02*
X117278700Y-110478660I41J-3000000D01*
G01*
%TO.N,Board_17-Net-(J1-Pin_1)*%
X207278680Y-41921320D02*
X207321321Y-41878679D01*
X206400000Y-46400000D02*
X206400000Y-44042641D01*
X209442641Y-41000000D02*
X225557359Y-41000000D01*
X227678680Y-41878680D02*
X227721321Y-41921321D01*
X228600000Y-44042641D02*
X228600000Y-46400000D01*
X206400000Y-44042641D02*
G75*
G02*
X207278660Y-41921300I3000000J41D01*
G01*
X227721321Y-41921321D02*
G75*
G02*
X228599971Y-44042641I-2121321J-2121279D01*
G01*
X209442641Y-41000000D02*
G75*
G03*
X207321301Y-41878659I-41J-3000000D01*
G01*
X225557359Y-41000000D02*
G75*
G02*
X227678700Y-41878660I41J-3000000D01*
G01*
%TO.N,Board_17-Net-(J1-Pin_2)*%
X209731371Y-43268629D02*
X209668629Y-43331371D01*
X209200000Y-44462742D02*
X209200000Y-46400000D01*
X224137258Y-42800000D02*
X210862742Y-42800000D01*
X225800000Y-46400000D02*
X225800000Y-44462742D01*
X225331371Y-43331371D02*
X225268629Y-43268629D01*
X224137258Y-42800000D02*
G75*
G02*
X225268650Y-43268608I42J-1600000D01*
G01*
X210862742Y-42800000D02*
G75*
G03*
X209731350Y-43268608I-42J-1600000D01*
G01*
X209668629Y-43331371D02*
G75*
G03*
X209200029Y-44462742I1131371J-1131329D01*
G01*
X225331371Y-43331371D02*
G75*
G02*
X225799971Y-44462742I-1131371J-1131329D01*
G01*
%TO.N,Board_17-Net-(J1-Pin_3)*%
X212000000Y-46400000D02*
X223000000Y-46400000D01*
%TO.N,Board_59-Net-(J1-Pin_1)*%
X227678680Y-110478680D02*
X227721321Y-110521321D01*
X209442641Y-109600000D02*
X225557359Y-109600000D01*
X207278680Y-110521320D02*
X207321321Y-110478679D01*
X228600000Y-112642641D02*
X228600000Y-115000000D01*
X206400000Y-115000000D02*
X206400000Y-112642641D01*
X227721321Y-110521321D02*
G75*
G02*
X228599971Y-112642641I-2121321J-2121279D01*
G01*
X209442641Y-109600000D02*
G75*
G03*
X207321301Y-110478659I-41J-3000000D01*
G01*
X225557359Y-109600000D02*
G75*
G02*
X227678700Y-110478660I41J-3000000D01*
G01*
X206400000Y-112642641D02*
G75*
G02*
X207278660Y-110521300I3000000J41D01*
G01*
%TO.N,Board_59-Net-(J1-Pin_2)*%
X209731371Y-111868629D02*
X209668629Y-111931371D01*
X209200000Y-113062742D02*
X209200000Y-115000000D01*
X225331371Y-111931371D02*
X225268629Y-111868629D01*
X224137258Y-111400000D02*
X210862742Y-111400000D01*
X225800000Y-115000000D02*
X225800000Y-113062742D01*
X225331371Y-111931371D02*
G75*
G02*
X225799971Y-113062742I-1131371J-1131329D01*
G01*
X209668629Y-111931371D02*
G75*
G03*
X209200029Y-113062742I1131371J-1131329D01*
G01*
X224137258Y-111400000D02*
G75*
G02*
X225268650Y-111868608I42J-1600000D01*
G01*
X210862742Y-111400000D02*
G75*
G03*
X209731350Y-111868608I-42J-1600000D01*
G01*
%TO.N,Board_59-Net-(J1-Pin_3)*%
X212000000Y-115000000D02*
X223000000Y-115000000D01*
%TO.N,Board_57-Net-(J1-Pin_1)*%
X172478680Y-110478680D02*
X172521321Y-110521321D01*
X152078680Y-110521320D02*
X152121321Y-110478679D01*
X151200000Y-115000000D02*
X151200000Y-112642641D01*
X154242641Y-109600000D02*
X170357359Y-109600000D01*
X173400000Y-112642641D02*
X173400000Y-115000000D01*
X170357359Y-109600000D02*
G75*
G02*
X172478700Y-110478660I41J-3000000D01*
G01*
X151200000Y-112642641D02*
G75*
G02*
X152078660Y-110521300I3000000J41D01*
G01*
X154242641Y-109600000D02*
G75*
G03*
X152121301Y-110478659I-41J-3000000D01*
G01*
X172521321Y-110521321D02*
G75*
G02*
X173399971Y-112642641I-2121321J-2121279D01*
G01*
%TO.N,Board_57-Net-(J1-Pin_2)*%
X170131371Y-111931371D02*
X170068629Y-111868629D01*
X154531371Y-111868629D02*
X154468629Y-111931371D01*
X154000000Y-113062742D02*
X154000000Y-115000000D01*
X170600000Y-115000000D02*
X170600000Y-113062742D01*
X168937258Y-111400000D02*
X155662742Y-111400000D01*
X168937258Y-111400000D02*
G75*
G02*
X170068650Y-111868608I42J-1600000D01*
G01*
X154468629Y-111931371D02*
G75*
G03*
X154000029Y-113062742I1131371J-1131329D01*
G01*
X170131371Y-111931371D02*
G75*
G02*
X170599971Y-113062742I-1131371J-1131329D01*
G01*
X155662742Y-111400000D02*
G75*
G03*
X154531350Y-111868608I-42J-1600000D01*
G01*
%TO.N,Board_57-Net-(J1-Pin_3)*%
X156800000Y-115000000D02*
X167800000Y-115000000D01*
%TO.N,Board_21-Net-(J1-Pin_3)*%
X156800000Y-56200000D02*
X167800000Y-56200000D01*
%TO.N,Board_21-Net-(J1-Pin_2)*%
X168937258Y-52600000D02*
X155662742Y-52600000D01*
X154000000Y-54262742D02*
X154000000Y-56200000D01*
X170600000Y-56200000D02*
X170600000Y-54262742D01*
X170131371Y-53131371D02*
X170068629Y-53068629D01*
X154531371Y-53068629D02*
X154468629Y-53131371D01*
X155662742Y-52600000D02*
G75*
G03*
X154531350Y-53068608I-42J-1600000D01*
G01*
X170131371Y-53131371D02*
G75*
G02*
X170599971Y-54262742I-1131371J-1131329D01*
G01*
X154468629Y-53131371D02*
G75*
G03*
X154000029Y-54262742I1131371J-1131329D01*
G01*
X168937258Y-52600000D02*
G75*
G02*
X170068650Y-53068608I42J-1600000D01*
G01*
%TO.N,Board_21-Net-(J1-Pin_1)*%
X173400000Y-53842641D02*
X173400000Y-56200000D01*
X152078680Y-51721320D02*
X152121321Y-51678679D01*
X172478680Y-51678680D02*
X172521321Y-51721321D01*
X151200000Y-56200000D02*
X151200000Y-53842641D01*
X154242641Y-50800000D02*
X170357359Y-50800000D01*
X154242641Y-50800000D02*
G75*
G03*
X152121301Y-51678659I-41J-3000000D01*
G01*
X151200000Y-53842641D02*
G75*
G02*
X152078660Y-51721300I3000000J41D01*
G01*
X170357359Y-50800000D02*
G75*
G02*
X172478700Y-51678660I41J-3000000D01*
G01*
X172521321Y-51721321D02*
G75*
G02*
X173399971Y-53842641I-2121321J-2121279D01*
G01*
%TO.N,Board_42-Net-(J1-Pin_1)*%
X90600000Y-93042641D02*
X90600000Y-95400000D01*
X68400000Y-95400000D02*
X68400000Y-93042641D01*
X89678680Y-90878680D02*
X89721321Y-90921321D01*
X69278680Y-90921320D02*
X69321321Y-90878679D01*
X71442641Y-90000000D02*
X87557359Y-90000000D01*
X87557359Y-90000000D02*
G75*
G02*
X89678700Y-90878660I41J-3000000D01*
G01*
X68400000Y-93042641D02*
G75*
G02*
X69278660Y-90921300I3000000J41D01*
G01*
X71442641Y-90000000D02*
G75*
G03*
X69321301Y-90878659I-41J-3000000D01*
G01*
X89721321Y-90921321D02*
G75*
G02*
X90599971Y-93042641I-2121321J-2121279D01*
G01*
%TO.N,Board_42-Net-(J1-Pin_2)*%
X71200000Y-93462742D02*
X71200000Y-95400000D01*
X71731371Y-92268629D02*
X71668629Y-92331371D01*
X87331371Y-92331371D02*
X87268629Y-92268629D01*
X86137258Y-91800000D02*
X72862742Y-91800000D01*
X87800000Y-95400000D02*
X87800000Y-93462742D01*
X71668629Y-92331371D02*
G75*
G03*
X71200029Y-93462742I1131371J-1131329D01*
G01*
X87331371Y-92331371D02*
G75*
G02*
X87799971Y-93462742I-1131371J-1131329D01*
G01*
X86137258Y-91800000D02*
G75*
G02*
X87268650Y-92268608I42J-1600000D01*
G01*
X72862742Y-91800000D02*
G75*
G03*
X71731350Y-92268608I-42J-1600000D01*
G01*
%TO.N,Board_42-Net-(J1-Pin_3)*%
X74000000Y-95400000D02*
X85000000Y-95400000D01*
%TO.N,Board_5-Net-(J1-Pin_3)*%
X212000000Y-26800000D02*
X223000000Y-26800000D01*
%TO.N,Board_5-Net-(J1-Pin_2)*%
X224137258Y-23200000D02*
X210862742Y-23200000D01*
X225331371Y-23731371D02*
X225268629Y-23668629D01*
X225800000Y-26800000D02*
X225800000Y-24862742D01*
X209200000Y-24862742D02*
X209200000Y-26800000D01*
X209731371Y-23668629D02*
X209668629Y-23731371D01*
X209668629Y-23731371D02*
G75*
G03*
X209200029Y-24862742I1131371J-1131329D01*
G01*
X225331371Y-23731371D02*
G75*
G02*
X225799971Y-24862742I-1131371J-1131329D01*
G01*
X224137258Y-23200000D02*
G75*
G02*
X225268650Y-23668608I42J-1600000D01*
G01*
X210862742Y-23200000D02*
G75*
G03*
X209731350Y-23668608I-42J-1600000D01*
G01*
%TO.N,Board_5-Net-(J1-Pin_1)*%
X209442641Y-21400000D02*
X225557359Y-21400000D01*
X206400000Y-26800000D02*
X206400000Y-24442641D01*
X228600000Y-24442641D02*
X228600000Y-26800000D01*
X227678680Y-22278680D02*
X227721321Y-22321321D01*
X207278680Y-22321320D02*
X207321321Y-22278679D01*
X206400000Y-24442641D02*
G75*
G02*
X207278660Y-22321300I3000000J41D01*
G01*
X209442641Y-21400000D02*
G75*
G03*
X207321301Y-22278659I-41J-3000000D01*
G01*
X225557359Y-21400000D02*
G75*
G02*
X227678700Y-22278660I41J-3000000D01*
G01*
X227721321Y-22321321D02*
G75*
G02*
X228599971Y-24442641I-2121321J-2121279D01*
G01*
%TO.N,Board_40-Net-(J1-Pin_3)*%
X184400000Y-85600000D02*
X195400000Y-85600000D01*
%TO.N,Board_40-Net-(J1-Pin_2)*%
X181600000Y-83662742D02*
X181600000Y-85600000D01*
X197731371Y-82531371D02*
X197668629Y-82468629D01*
X182131371Y-82468629D02*
X182068629Y-82531371D01*
X196537258Y-82000000D02*
X183262742Y-82000000D01*
X198200000Y-85600000D02*
X198200000Y-83662742D01*
X197731371Y-82531371D02*
G75*
G02*
X198199971Y-83662742I-1131371J-1131329D01*
G01*
X196537258Y-82000000D02*
G75*
G02*
X197668650Y-82468608I42J-1600000D01*
G01*
X182068629Y-82531371D02*
G75*
G03*
X181600029Y-83662742I1131371J-1131329D01*
G01*
X183262742Y-82000000D02*
G75*
G03*
X182131350Y-82468608I-42J-1600000D01*
G01*
%TO.N,Board_40-Net-(J1-Pin_1)*%
X200078680Y-81078680D02*
X200121321Y-81121321D01*
X179678680Y-81121320D02*
X179721321Y-81078679D01*
X201000000Y-83242641D02*
X201000000Y-85600000D01*
X178800000Y-85600000D02*
X178800000Y-83242641D01*
X181842641Y-80200000D02*
X197957359Y-80200000D01*
X181842641Y-80200000D02*
G75*
G03*
X179721301Y-81078659I-41J-3000000D01*
G01*
X200121321Y-81121321D02*
G75*
G02*
X200999971Y-83242641I-2121321J-2121279D01*
G01*
X178800000Y-83242641D02*
G75*
G02*
X179678660Y-81121300I3000000J41D01*
G01*
X197957359Y-80200000D02*
G75*
G02*
X200078700Y-81078660I41J-3000000D01*
G01*
%TO.N,Board_7-Net-(J1-Pin_1)*%
X96000000Y-36600000D02*
X96000000Y-34242641D01*
X99042641Y-31200000D02*
X115157359Y-31200000D01*
X118200000Y-34242641D02*
X118200000Y-36600000D01*
X117278680Y-32078680D02*
X117321321Y-32121321D01*
X96878680Y-32121320D02*
X96921321Y-32078679D01*
X115157359Y-31200000D02*
G75*
G02*
X117278700Y-32078660I41J-3000000D01*
G01*
X99042641Y-31200000D02*
G75*
G03*
X96921301Y-32078659I-41J-3000000D01*
G01*
X117321321Y-32121321D02*
G75*
G02*
X118199971Y-34242641I-2121321J-2121279D01*
G01*
X96000000Y-34242641D02*
G75*
G02*
X96878660Y-32121300I3000000J41D01*
G01*
%TO.N,Board_7-Net-(J1-Pin_2)*%
X99331371Y-33468629D02*
X99268629Y-33531371D01*
X115400000Y-36600000D02*
X115400000Y-34662742D01*
X98800000Y-34662742D02*
X98800000Y-36600000D01*
X113737258Y-33000000D02*
X100462742Y-33000000D01*
X114931371Y-33531371D02*
X114868629Y-33468629D01*
X100462742Y-33000000D02*
G75*
G03*
X99331350Y-33468608I-42J-1600000D01*
G01*
X99268629Y-33531371D02*
G75*
G03*
X98800029Y-34662742I1131371J-1131329D01*
G01*
X114931371Y-33531371D02*
G75*
G02*
X115399971Y-34662742I-1131371J-1131329D01*
G01*
X113737258Y-33000000D02*
G75*
G02*
X114868650Y-33468608I42J-1600000D01*
G01*
%TO.N,Board_7-Net-(J1-Pin_3)*%
X101600000Y-36600000D02*
X112600000Y-36600000D01*
%TO.N,Board_51-Net-(J1-Pin_1)*%
X154242641Y-99800000D02*
X170357359Y-99800000D01*
X173400000Y-102842641D02*
X173400000Y-105200000D01*
X152078680Y-100721320D02*
X152121321Y-100678679D01*
X151200000Y-105200000D02*
X151200000Y-102842641D01*
X172478680Y-100678680D02*
X172521321Y-100721321D01*
X172521321Y-100721321D02*
G75*
G02*
X173399971Y-102842641I-2121321J-2121279D01*
G01*
X151200000Y-102842641D02*
G75*
G02*
X152078660Y-100721300I3000000J41D01*
G01*
X170357359Y-99800000D02*
G75*
G02*
X172478700Y-100678660I41J-3000000D01*
G01*
X154242641Y-99800000D02*
G75*
G03*
X152121301Y-100678659I-41J-3000000D01*
G01*
%TO.N,Board_51-Net-(J1-Pin_2)*%
X168937258Y-101600000D02*
X155662742Y-101600000D01*
X170131371Y-102131371D02*
X170068629Y-102068629D01*
X154531371Y-102068629D02*
X154468629Y-102131371D01*
X154000000Y-103262742D02*
X154000000Y-105200000D01*
X170600000Y-105200000D02*
X170600000Y-103262742D01*
X154468629Y-102131371D02*
G75*
G03*
X154000029Y-103262742I1131371J-1131329D01*
G01*
X155662742Y-101600000D02*
G75*
G03*
X154531350Y-102068608I-42J-1600000D01*
G01*
X170131371Y-102131371D02*
G75*
G02*
X170599971Y-103262742I-1131371J-1131329D01*
G01*
X168937258Y-101600000D02*
G75*
G02*
X170068650Y-102068608I42J-1600000D01*
G01*
%TO.N,Board_51-Net-(J1-Pin_3)*%
X156800000Y-105200000D02*
X167800000Y-105200000D01*
%TO.N,Board_58-Net-(J1-Pin_1)*%
X201000000Y-112642641D02*
X201000000Y-115000000D01*
X200078680Y-110478680D02*
X200121321Y-110521321D01*
X181842641Y-109600000D02*
X197957359Y-109600000D01*
X178800000Y-115000000D02*
X178800000Y-112642641D01*
X179678680Y-110521320D02*
X179721321Y-110478679D01*
X197957359Y-109600000D02*
G75*
G02*
X200078700Y-110478660I41J-3000000D01*
G01*
X181842641Y-109600000D02*
G75*
G03*
X179721301Y-110478659I-41J-3000000D01*
G01*
X178800000Y-112642641D02*
G75*
G02*
X179678660Y-110521300I3000000J41D01*
G01*
X200121321Y-110521321D02*
G75*
G02*
X200999971Y-112642641I-2121321J-2121279D01*
G01*
%TO.N,Board_58-Net-(J1-Pin_2)*%
X198200000Y-115000000D02*
X198200000Y-113062742D01*
X182131371Y-111868629D02*
X182068629Y-111931371D01*
X197731371Y-111931371D02*
X197668629Y-111868629D01*
X196537258Y-111400000D02*
X183262742Y-111400000D01*
X181600000Y-113062742D02*
X181600000Y-115000000D01*
X197731371Y-111931371D02*
G75*
G02*
X198199971Y-113062742I-1131371J-1131329D01*
G01*
X196537258Y-111400000D02*
G75*
G02*
X197668650Y-111868608I42J-1600000D01*
G01*
X183262742Y-111400000D02*
G75*
G03*
X182131350Y-111868608I-42J-1600000D01*
G01*
X182068629Y-111931371D02*
G75*
G03*
X181600029Y-113062742I1131371J-1131329D01*
G01*
%TO.N,Board_58-Net-(J1-Pin_3)*%
X184400000Y-115000000D02*
X195400000Y-115000000D01*
%TO.N,Board_19-Net-(J1-Pin_1)*%
X118200000Y-53842641D02*
X118200000Y-56200000D01*
X99042641Y-50800000D02*
X115157359Y-50800000D01*
X117278680Y-51678680D02*
X117321321Y-51721321D01*
X96000000Y-56200000D02*
X96000000Y-53842641D01*
X96878680Y-51721320D02*
X96921321Y-51678679D01*
X99042641Y-50800000D02*
G75*
G03*
X96921301Y-51678659I-41J-3000000D01*
G01*
X117321321Y-51721321D02*
G75*
G02*
X118199971Y-53842641I-2121321J-2121279D01*
G01*
X115157359Y-50800000D02*
G75*
G02*
X117278700Y-51678660I41J-3000000D01*
G01*
X96000000Y-53842641D02*
G75*
G02*
X96878660Y-51721300I3000000J41D01*
G01*
%TO.N,Board_19-Net-(J1-Pin_2)*%
X113737258Y-52600000D02*
X100462742Y-52600000D01*
X114931371Y-53131371D02*
X114868629Y-53068629D01*
X98800000Y-54262742D02*
X98800000Y-56200000D01*
X115400000Y-56200000D02*
X115400000Y-54262742D01*
X99331371Y-53068629D02*
X99268629Y-53131371D01*
X99268629Y-53131371D02*
G75*
G03*
X98800029Y-54262742I1131371J-1131329D01*
G01*
X100462742Y-52600000D02*
G75*
G03*
X99331350Y-53068608I-42J-1600000D01*
G01*
X113737258Y-52600000D02*
G75*
G02*
X114868650Y-53068608I42J-1600000D01*
G01*
X114931371Y-53131371D02*
G75*
G02*
X115399971Y-54262742I-1131371J-1131329D01*
G01*
%TO.N,Board_19-Net-(J1-Pin_3)*%
X101600000Y-56200000D02*
X112600000Y-56200000D01*
%TO.N,Board_20-Net-(J1-Pin_3)*%
X129200000Y-56200000D02*
X140200000Y-56200000D01*
%TO.N,Board_20-Net-(J1-Pin_2)*%
X142531371Y-53131371D02*
X142468629Y-53068629D01*
X141337258Y-52600000D02*
X128062742Y-52600000D01*
X126931371Y-53068629D02*
X126868629Y-53131371D01*
X126400000Y-54262742D02*
X126400000Y-56200000D01*
X143000000Y-56200000D02*
X143000000Y-54262742D01*
X141337258Y-52600000D02*
G75*
G02*
X142468650Y-53068608I42J-1600000D01*
G01*
X128062742Y-52600000D02*
G75*
G03*
X126931350Y-53068608I-42J-1600000D01*
G01*
X142531371Y-53131371D02*
G75*
G02*
X142999971Y-54262742I-1131371J-1131329D01*
G01*
X126868629Y-53131371D02*
G75*
G03*
X126400029Y-54262742I1131371J-1131329D01*
G01*
%TO.N,Board_20-Net-(J1-Pin_1)*%
X126642641Y-50800000D02*
X142757359Y-50800000D01*
X123600000Y-56200000D02*
X123600000Y-53842641D01*
X144878680Y-51678680D02*
X144921321Y-51721321D01*
X124478680Y-51721320D02*
X124521321Y-51678679D01*
X145800000Y-53842641D02*
X145800000Y-56200000D01*
X144921321Y-51721321D02*
G75*
G02*
X145799971Y-53842641I-2121321J-2121279D01*
G01*
X142757359Y-50800000D02*
G75*
G02*
X144878700Y-51678660I41J-3000000D01*
G01*
X126642641Y-50800000D02*
G75*
G03*
X124521301Y-51678659I-41J-3000000D01*
G01*
X123600000Y-53842641D02*
G75*
G02*
X124478660Y-51721300I3000000J41D01*
G01*
%TO.N,Board_32-Net-(J1-Pin_1)*%
X144878680Y-71278680D02*
X144921321Y-71321321D01*
X124478680Y-71321320D02*
X124521321Y-71278679D01*
X145800000Y-73442641D02*
X145800000Y-75800000D01*
X123600000Y-75800000D02*
X123600000Y-73442641D01*
X126642641Y-70400000D02*
X142757359Y-70400000D01*
X123600000Y-73442641D02*
G75*
G02*
X124478660Y-71321300I3000000J41D01*
G01*
X144921321Y-71321321D02*
G75*
G02*
X145799971Y-73442641I-2121321J-2121279D01*
G01*
X142757359Y-70400000D02*
G75*
G02*
X144878700Y-71278660I41J-3000000D01*
G01*
X126642641Y-70400000D02*
G75*
G03*
X124521301Y-71278659I-41J-3000000D01*
G01*
%TO.N,Board_32-Net-(J1-Pin_2)*%
X126400000Y-73862742D02*
X126400000Y-75800000D01*
X143000000Y-75800000D02*
X143000000Y-73862742D01*
X126931371Y-72668629D02*
X126868629Y-72731371D01*
X141337258Y-72200000D02*
X128062742Y-72200000D01*
X142531371Y-72731371D02*
X142468629Y-72668629D01*
X141337258Y-72200000D02*
G75*
G02*
X142468650Y-72668608I42J-1600000D01*
G01*
X126868629Y-72731371D02*
G75*
G03*
X126400029Y-73862742I1131371J-1131329D01*
G01*
X128062742Y-72200000D02*
G75*
G03*
X126931350Y-72668608I-42J-1600000D01*
G01*
X142531371Y-72731371D02*
G75*
G02*
X142999971Y-73862742I-1131371J-1131329D01*
G01*
%TO.N,Board_32-Net-(J1-Pin_3)*%
X129200000Y-75800000D02*
X140200000Y-75800000D01*
%TO.N,Board_29-Net-(J1-Pin_3)*%
X212000000Y-66000000D02*
X223000000Y-66000000D01*
%TO.N,Board_29-Net-(J1-Pin_2)*%
X209731371Y-62868629D02*
X209668629Y-62931371D01*
X224137258Y-62400000D02*
X210862742Y-62400000D01*
X209200000Y-64062742D02*
X209200000Y-66000000D01*
X225331371Y-62931371D02*
X225268629Y-62868629D01*
X225800000Y-66000000D02*
X225800000Y-64062742D01*
X225331371Y-62931371D02*
G75*
G02*
X225799971Y-64062742I-1131371J-1131329D01*
G01*
X209668629Y-62931371D02*
G75*
G03*
X209200029Y-64062742I1131371J-1131329D01*
G01*
X210862742Y-62400000D02*
G75*
G03*
X209731350Y-62868608I-42J-1600000D01*
G01*
X224137258Y-62400000D02*
G75*
G02*
X225268650Y-62868608I42J-1600000D01*
G01*
%TO.N,Board_29-Net-(J1-Pin_1)*%
X207278680Y-61521320D02*
X207321321Y-61478679D01*
X206400000Y-66000000D02*
X206400000Y-63642641D01*
X209442641Y-60600000D02*
X225557359Y-60600000D01*
X227678680Y-61478680D02*
X227721321Y-61521321D01*
X228600000Y-63642641D02*
X228600000Y-66000000D01*
X206400000Y-63642641D02*
G75*
G02*
X207278660Y-61521300I3000000J41D01*
G01*
X225557359Y-60600000D02*
G75*
G02*
X227678700Y-61478660I41J-3000000D01*
G01*
X209442641Y-60600000D02*
G75*
G03*
X207321301Y-61478659I-41J-3000000D01*
G01*
X227721321Y-61521321D02*
G75*
G02*
X228599971Y-63642641I-2121321J-2121279D01*
G01*
%TO.N,Board_38-Net-(J1-Pin_1)*%
X123600000Y-85600000D02*
X123600000Y-83242641D01*
X124478680Y-81121320D02*
X124521321Y-81078679D01*
X144878680Y-81078680D02*
X144921321Y-81121321D01*
X126642641Y-80200000D02*
X142757359Y-80200000D01*
X145800000Y-83242641D02*
X145800000Y-85600000D01*
X123600000Y-83242641D02*
G75*
G02*
X124478660Y-81121300I3000000J41D01*
G01*
X142757359Y-80200000D02*
G75*
G02*
X144878700Y-81078660I41J-3000000D01*
G01*
X126642641Y-80200000D02*
G75*
G03*
X124521301Y-81078659I-41J-3000000D01*
G01*
X144921321Y-81121321D02*
G75*
G02*
X145799971Y-83242641I-2121321J-2121279D01*
G01*
%TO.N,Board_38-Net-(J1-Pin_2)*%
X126400000Y-83662742D02*
X126400000Y-85600000D01*
X143000000Y-85600000D02*
X143000000Y-83662742D01*
X141337258Y-82000000D02*
X128062742Y-82000000D01*
X126931371Y-82468629D02*
X126868629Y-82531371D01*
X142531371Y-82531371D02*
X142468629Y-82468629D01*
X141337258Y-82000000D02*
G75*
G02*
X142468650Y-82468608I42J-1600000D01*
G01*
X142531371Y-82531371D02*
G75*
G02*
X142999971Y-83662742I-1131371J-1131329D01*
G01*
X126868629Y-82531371D02*
G75*
G03*
X126400029Y-83662742I1131371J-1131329D01*
G01*
X128062742Y-82000000D02*
G75*
G03*
X126931350Y-82468608I-42J-1600000D01*
G01*
%TO.N,Board_38-Net-(J1-Pin_3)*%
X129200000Y-85600000D02*
X140200000Y-85600000D01*
%TO.N,Board_36-Net-(J1-Pin_3)*%
X74000000Y-85600000D02*
X85000000Y-85600000D01*
%TO.N,Board_36-Net-(J1-Pin_2)*%
X86137258Y-82000000D02*
X72862742Y-82000000D01*
X87800000Y-85600000D02*
X87800000Y-83662742D01*
X87331371Y-82531371D02*
X87268629Y-82468629D01*
X71200000Y-83662742D02*
X71200000Y-85600000D01*
X71731371Y-82468629D02*
X71668629Y-82531371D01*
X72862742Y-82000000D02*
G75*
G03*
X71731350Y-82468608I-42J-1600000D01*
G01*
X71668629Y-82531371D02*
G75*
G03*
X71200029Y-83662742I1131371J-1131329D01*
G01*
X86137258Y-82000000D02*
G75*
G02*
X87268650Y-82468608I42J-1600000D01*
G01*
X87331371Y-82531371D02*
G75*
G02*
X87799971Y-83662742I-1131371J-1131329D01*
G01*
%TO.N,Board_36-Net-(J1-Pin_1)*%
X68400000Y-85600000D02*
X68400000Y-83242641D01*
X89678680Y-81078680D02*
X89721321Y-81121321D01*
X71442641Y-80200000D02*
X87557359Y-80200000D01*
X90600000Y-83242641D02*
X90600000Y-85600000D01*
X69278680Y-81121320D02*
X69321321Y-81078679D01*
X68400000Y-83242641D02*
G75*
G02*
X69278660Y-81121300I3000000J41D01*
G01*
X71442641Y-80200000D02*
G75*
G03*
X69321301Y-81078659I-41J-3000000D01*
G01*
X89721321Y-81121321D02*
G75*
G02*
X90599971Y-83242641I-2121321J-2121279D01*
G01*
X87557359Y-80200000D02*
G75*
G02*
X89678700Y-81078660I41J-3000000D01*
G01*
%TO.N,Board_35-Net-(J1-Pin_3)*%
X212000000Y-75800000D02*
X223000000Y-75800000D01*
%TO.N,Board_35-Net-(J1-Pin_2)*%
X224137258Y-72200000D02*
X210862742Y-72200000D01*
X209200000Y-73862742D02*
X209200000Y-75800000D01*
X225331371Y-72731371D02*
X225268629Y-72668629D01*
X225800000Y-75800000D02*
X225800000Y-73862742D01*
X209731371Y-72668629D02*
X209668629Y-72731371D01*
X224137258Y-72200000D02*
G75*
G02*
X225268650Y-72668608I42J-1600000D01*
G01*
X225331371Y-72731371D02*
G75*
G02*
X225799971Y-73862742I-1131371J-1131329D01*
G01*
X210862742Y-72200000D02*
G75*
G03*
X209731350Y-72668608I-42J-1600000D01*
G01*
X209668629Y-72731371D02*
G75*
G03*
X209200029Y-73862742I1131371J-1131329D01*
G01*
%TO.N,Board_35-Net-(J1-Pin_1)*%
X227678680Y-71278680D02*
X227721321Y-71321321D01*
X209442641Y-70400000D02*
X225557359Y-70400000D01*
X206400000Y-75800000D02*
X206400000Y-73442641D01*
X228600000Y-73442641D02*
X228600000Y-75800000D01*
X207278680Y-71321320D02*
X207321321Y-71278679D01*
X225557359Y-70400000D02*
G75*
G02*
X227678700Y-71278660I41J-3000000D01*
G01*
X206400000Y-73442641D02*
G75*
G02*
X207278660Y-71321300I3000000J41D01*
G01*
X227721321Y-71321321D02*
G75*
G02*
X228599971Y-73442641I-2121321J-2121279D01*
G01*
X209442641Y-70400000D02*
G75*
G03*
X207321301Y-71278659I-41J-3000000D01*
G01*
%TO.N,Board_11-Net-(J1-Pin_3)*%
X212000000Y-36600000D02*
X223000000Y-36600000D01*
%TO.N,Board_11-Net-(J1-Pin_2)*%
X225331371Y-33531371D02*
X225268629Y-33468629D01*
X209731371Y-33468629D02*
X209668629Y-33531371D01*
X209200000Y-34662742D02*
X209200000Y-36600000D01*
X225800000Y-36600000D02*
X225800000Y-34662742D01*
X224137258Y-33000000D02*
X210862742Y-33000000D01*
X210862742Y-33000000D02*
G75*
G03*
X209731350Y-33468608I-42J-1600000D01*
G01*
X224137258Y-33000000D02*
G75*
G02*
X225268650Y-33468608I42J-1600000D01*
G01*
X209668629Y-33531371D02*
G75*
G03*
X209200029Y-34662742I1131371J-1131329D01*
G01*
X225331371Y-33531371D02*
G75*
G02*
X225799971Y-34662742I-1131371J-1131329D01*
G01*
%TO.N,Board_11-Net-(J1-Pin_1)*%
X207278680Y-32121320D02*
X207321321Y-32078679D01*
X209442641Y-31200000D02*
X225557359Y-31200000D01*
X228600000Y-34242641D02*
X228600000Y-36600000D01*
X227678680Y-32078680D02*
X227721321Y-32121321D01*
X206400000Y-36600000D02*
X206400000Y-34242641D01*
X225557359Y-31200000D02*
G75*
G02*
X227678700Y-32078660I41J-3000000D01*
G01*
X227721321Y-32121321D02*
G75*
G02*
X228599971Y-34242641I-2121321J-2121279D01*
G01*
X209442641Y-31200000D02*
G75*
G03*
X207321301Y-32078659I-41J-3000000D01*
G01*
X206400000Y-34242641D02*
G75*
G02*
X207278660Y-32121300I3000000J41D01*
G01*
%TO.N,Board_4-Net-(J1-Pin_1)*%
X200078680Y-22278680D02*
X200121321Y-22321321D01*
X178800000Y-26800000D02*
X178800000Y-24442641D01*
X181842641Y-21400000D02*
X197957359Y-21400000D01*
X201000000Y-24442641D02*
X201000000Y-26800000D01*
X179678680Y-22321320D02*
X179721321Y-22278679D01*
X181842641Y-21400000D02*
G75*
G03*
X179721301Y-22278659I-41J-3000000D01*
G01*
X200121321Y-22321321D02*
G75*
G02*
X200999971Y-24442641I-2121321J-2121279D01*
G01*
X197957359Y-21400000D02*
G75*
G02*
X200078700Y-22278660I41J-3000000D01*
G01*
X178800000Y-24442641D02*
G75*
G02*
X179678660Y-22321300I3000000J41D01*
G01*
%TO.N,Board_4-Net-(J1-Pin_2)*%
X182131371Y-23668629D02*
X182068629Y-23731371D01*
X197731371Y-23731371D02*
X197668629Y-23668629D01*
X198200000Y-26800000D02*
X198200000Y-24862742D01*
X196537258Y-23200000D02*
X183262742Y-23200000D01*
X181600000Y-24862742D02*
X181600000Y-26800000D01*
X196537258Y-23200000D02*
G75*
G02*
X197668650Y-23668608I42J-1600000D01*
G01*
X183262742Y-23200000D02*
G75*
G03*
X182131350Y-23668608I-42J-1600000D01*
G01*
X197731371Y-23731371D02*
G75*
G02*
X198199971Y-24862742I-1131371J-1131329D01*
G01*
X182068629Y-23731371D02*
G75*
G03*
X181600029Y-24862742I1131371J-1131329D01*
G01*
%TO.N,Board_4-Net-(J1-Pin_3)*%
X184400000Y-26800000D02*
X195400000Y-26800000D01*
%TO.N,Board_39-Net-(J1-Pin_3)*%
X156800000Y-85600000D02*
X167800000Y-85600000D01*
%TO.N,Board_39-Net-(J1-Pin_2)*%
X154000000Y-83662742D02*
X154000000Y-85600000D01*
X168937258Y-82000000D02*
X155662742Y-82000000D01*
X170600000Y-85600000D02*
X170600000Y-83662742D01*
X170131371Y-82531371D02*
X170068629Y-82468629D01*
X154531371Y-82468629D02*
X154468629Y-82531371D01*
X170131371Y-82531371D02*
G75*
G02*
X170599971Y-83662742I-1131371J-1131329D01*
G01*
X168937258Y-82000000D02*
G75*
G02*
X170068650Y-82468608I42J-1600000D01*
G01*
X155662742Y-82000000D02*
G75*
G03*
X154531350Y-82468608I-42J-1600000D01*
G01*
X154468629Y-82531371D02*
G75*
G03*
X154000029Y-83662742I1131371J-1131329D01*
G01*
%TO.N,Board_39-Net-(J1-Pin_1)*%
X172478680Y-81078680D02*
X172521321Y-81121321D01*
X154242641Y-80200000D02*
X170357359Y-80200000D01*
X173400000Y-83242641D02*
X173400000Y-85600000D01*
X152078680Y-81121320D02*
X152121321Y-81078679D01*
X151200000Y-85600000D02*
X151200000Y-83242641D01*
X172521321Y-81121321D02*
G75*
G02*
X173399971Y-83242641I-2121321J-2121279D01*
G01*
X154242641Y-80200000D02*
G75*
G03*
X152121301Y-81078659I-41J-3000000D01*
G01*
X151200000Y-83242641D02*
G75*
G02*
X152078660Y-81121300I3000000J41D01*
G01*
X170357359Y-80200000D02*
G75*
G02*
X172478700Y-81078660I41J-3000000D01*
G01*
%TO.N,Board_13-Net-(J1-Pin_1)*%
X96878680Y-41921320D02*
X96921321Y-41878679D01*
X118200000Y-44042641D02*
X118200000Y-46400000D01*
X117278680Y-41878680D02*
X117321321Y-41921321D01*
X99042641Y-41000000D02*
X115157359Y-41000000D01*
X96000000Y-46400000D02*
X96000000Y-44042641D01*
X96000000Y-44042641D02*
G75*
G02*
X96878660Y-41921300I3000000J41D01*
G01*
X99042641Y-41000000D02*
G75*
G03*
X96921301Y-41878659I-41J-3000000D01*
G01*
X115157359Y-41000000D02*
G75*
G02*
X117278700Y-41878660I41J-3000000D01*
G01*
X117321321Y-41921321D02*
G75*
G02*
X118199971Y-44042641I-2121321J-2121279D01*
G01*
%TO.N,Board_13-Net-(J1-Pin_2)*%
X114931371Y-43331371D02*
X114868629Y-43268629D01*
X99331371Y-43268629D02*
X99268629Y-43331371D01*
X98800000Y-44462742D02*
X98800000Y-46400000D01*
X113737258Y-42800000D02*
X100462742Y-42800000D01*
X115400000Y-46400000D02*
X115400000Y-44462742D01*
X100462742Y-42800000D02*
G75*
G03*
X99331350Y-43268608I-42J-1600000D01*
G01*
X113737258Y-42800000D02*
G75*
G02*
X114868650Y-43268608I42J-1600000D01*
G01*
X99268629Y-43331371D02*
G75*
G03*
X98800029Y-44462742I1131371J-1131329D01*
G01*
X114931371Y-43331371D02*
G75*
G02*
X115399971Y-44462742I-1131371J-1131329D01*
G01*
%TO.N,Board_13-Net-(J1-Pin_3)*%
X101600000Y-46400000D02*
X112600000Y-46400000D01*
%TO.N,Board_33-Net-(J1-Pin_1)*%
X172478680Y-71278680D02*
X172521321Y-71321321D01*
X151200000Y-75800000D02*
X151200000Y-73442641D01*
X152078680Y-71321320D02*
X152121321Y-71278679D01*
X154242641Y-70400000D02*
X170357359Y-70400000D01*
X173400000Y-73442641D02*
X173400000Y-75800000D01*
X172521321Y-71321321D02*
G75*
G02*
X173399971Y-73442641I-2121321J-2121279D01*
G01*
X170357359Y-70400000D02*
G75*
G02*
X172478700Y-71278660I41J-3000000D01*
G01*
X154242641Y-70400000D02*
G75*
G03*
X152121301Y-71278659I-41J-3000000D01*
G01*
X151200000Y-73442641D02*
G75*
G02*
X152078660Y-71321300I3000000J41D01*
G01*
%TO.N,Board_33-Net-(J1-Pin_2)*%
X154531371Y-72668629D02*
X154468629Y-72731371D01*
X168937258Y-72200000D02*
X155662742Y-72200000D01*
X170600000Y-75800000D02*
X170600000Y-73862742D01*
X170131371Y-72731371D02*
X170068629Y-72668629D01*
X154000000Y-73862742D02*
X154000000Y-75800000D01*
X155662742Y-72200000D02*
G75*
G03*
X154531350Y-72668608I-42J-1600000D01*
G01*
X168937258Y-72200000D02*
G75*
G02*
X170068650Y-72668608I42J-1600000D01*
G01*
X154468629Y-72731371D02*
G75*
G03*
X154000029Y-73862742I1131371J-1131329D01*
G01*
X170131371Y-72731371D02*
G75*
G02*
X170599971Y-73862742I-1131371J-1131329D01*
G01*
%TO.N,Board_33-Net-(J1-Pin_3)*%
X156800000Y-75800000D02*
X167800000Y-75800000D01*
%TO.N,Board_27-Net-(J1-Pin_1)*%
X151200000Y-66000000D02*
X151200000Y-63642641D01*
X154242641Y-60600000D02*
X170357359Y-60600000D01*
X173400000Y-63642641D02*
X173400000Y-66000000D01*
X172478680Y-61478680D02*
X172521321Y-61521321D01*
X152078680Y-61521320D02*
X152121321Y-61478679D01*
X170357359Y-60600000D02*
G75*
G02*
X172478700Y-61478660I41J-3000000D01*
G01*
X172521321Y-61521321D02*
G75*
G02*
X173399971Y-63642641I-2121321J-2121279D01*
G01*
X151200000Y-63642641D02*
G75*
G02*
X152078660Y-61521300I3000000J41D01*
G01*
X154242641Y-60600000D02*
G75*
G03*
X152121301Y-61478659I-41J-3000000D01*
G01*
%TO.N,Board_27-Net-(J1-Pin_2)*%
X170131371Y-62931371D02*
X170068629Y-62868629D01*
X170600000Y-66000000D02*
X170600000Y-64062742D01*
X154531371Y-62868629D02*
X154468629Y-62931371D01*
X168937258Y-62400000D02*
X155662742Y-62400000D01*
X154000000Y-64062742D02*
X154000000Y-66000000D01*
X170131371Y-62931371D02*
G75*
G02*
X170599971Y-64062742I-1131371J-1131329D01*
G01*
X154468629Y-62931371D02*
G75*
G03*
X154000029Y-64062742I1131371J-1131329D01*
G01*
X155662742Y-62400000D02*
G75*
G03*
X154531350Y-62868608I-42J-1600000D01*
G01*
X168937258Y-62400000D02*
G75*
G02*
X170068650Y-62868608I42J-1600000D01*
G01*
%TO.N,Board_27-Net-(J1-Pin_3)*%
X156800000Y-66000000D02*
X167800000Y-66000000D01*
%TO.N,Board_49-Net-(J1-Pin_1)*%
X96000000Y-105200000D02*
X96000000Y-102842641D01*
X96878680Y-100721320D02*
X96921321Y-100678679D01*
X118200000Y-102842641D02*
X118200000Y-105200000D01*
X117278680Y-100678680D02*
X117321321Y-100721321D01*
X99042641Y-99800000D02*
X115157359Y-99800000D01*
X96000000Y-102842641D02*
G75*
G02*
X96878660Y-100721300I3000000J41D01*
G01*
X115157359Y-99800000D02*
G75*
G02*
X117278700Y-100678660I41J-3000000D01*
G01*
X99042641Y-99800000D02*
G75*
G03*
X96921301Y-100678659I-41J-3000000D01*
G01*
X117321321Y-100721321D02*
G75*
G02*
X118199971Y-102842641I-2121321J-2121279D01*
G01*
%TO.N,Board_49-Net-(J1-Pin_2)*%
X99331371Y-102068629D02*
X99268629Y-102131371D01*
X115400000Y-105200000D02*
X115400000Y-103262742D01*
X98800000Y-103262742D02*
X98800000Y-105200000D01*
X114931371Y-102131371D02*
X114868629Y-102068629D01*
X113737258Y-101600000D02*
X100462742Y-101600000D01*
X113737258Y-101600000D02*
G75*
G02*
X114868650Y-102068608I42J-1600000D01*
G01*
X114931371Y-102131371D02*
G75*
G02*
X115399971Y-103262742I-1131371J-1131329D01*
G01*
X100462742Y-101600000D02*
G75*
G03*
X99331350Y-102068608I-42J-1600000D01*
G01*
X99268629Y-102131371D02*
G75*
G03*
X98800029Y-103262742I1131371J-1131329D01*
G01*
%TO.N,Board_49-Net-(J1-Pin_3)*%
X101600000Y-105200000D02*
X112600000Y-105200000D01*
%TO.N,Board_6-Net-(J1-Pin_3)*%
X74000000Y-36600000D02*
X85000000Y-36600000D01*
%TO.N,Board_6-Net-(J1-Pin_2)*%
X87800000Y-36600000D02*
X87800000Y-34662742D01*
X86137258Y-33000000D02*
X72862742Y-33000000D01*
X71731371Y-33468629D02*
X71668629Y-33531371D01*
X87331371Y-33531371D02*
X87268629Y-33468629D01*
X71200000Y-34662742D02*
X71200000Y-36600000D01*
X72862742Y-33000000D02*
G75*
G03*
X71731350Y-33468608I-42J-1600000D01*
G01*
X71668629Y-33531371D02*
G75*
G03*
X71200029Y-34662742I1131371J-1131329D01*
G01*
X87331371Y-33531371D02*
G75*
G02*
X87799971Y-34662742I-1131371J-1131329D01*
G01*
X86137258Y-33000000D02*
G75*
G02*
X87268650Y-33468608I42J-1600000D01*
G01*
%TO.N,Board_6-Net-(J1-Pin_1)*%
X71442641Y-31200000D02*
X87557359Y-31200000D01*
X89678680Y-32078680D02*
X89721321Y-32121321D01*
X90600000Y-34242641D02*
X90600000Y-36600000D01*
X69278680Y-32121320D02*
X69321321Y-32078679D01*
X68400000Y-36600000D02*
X68400000Y-34242641D01*
X89721321Y-32121321D02*
G75*
G02*
X90599971Y-34242641I-2121321J-2121279D01*
G01*
X87557359Y-31200000D02*
G75*
G02*
X89678700Y-32078660I41J-3000000D01*
G01*
X71442641Y-31200000D02*
G75*
G03*
X69321301Y-32078659I-41J-3000000D01*
G01*
X68400000Y-34242641D02*
G75*
G02*
X69278660Y-32121300I3000000J41D01*
G01*
%TO.N,Board_56-Net-(J1-Pin_3)*%
X129200000Y-115000000D02*
X140200000Y-115000000D01*
%TO.N,Board_56-Net-(J1-Pin_2)*%
X143000000Y-115000000D02*
X143000000Y-113062742D01*
X126931371Y-111868629D02*
X126868629Y-111931371D01*
X141337258Y-111400000D02*
X128062742Y-111400000D01*
X142531371Y-111931371D02*
X142468629Y-111868629D01*
X126400000Y-113062742D02*
X126400000Y-115000000D01*
X141337258Y-111400000D02*
G75*
G02*
X142468650Y-111868608I42J-1600000D01*
G01*
X126868629Y-111931371D02*
G75*
G03*
X126400029Y-113062742I1131371J-1131329D01*
G01*
X128062742Y-111400000D02*
G75*
G03*
X126931350Y-111868608I-42J-1600000D01*
G01*
X142531371Y-111931371D02*
G75*
G02*
X142999971Y-113062742I-1131371J-1131329D01*
G01*
%TO.N,Board_56-Net-(J1-Pin_1)*%
X144878680Y-110478680D02*
X144921321Y-110521321D01*
X124478680Y-110521320D02*
X124521321Y-110478679D01*
X123600000Y-115000000D02*
X123600000Y-112642641D01*
X145800000Y-112642641D02*
X145800000Y-115000000D01*
X126642641Y-109600000D02*
X142757359Y-109600000D01*
X123600000Y-112642641D02*
G75*
G02*
X124478660Y-110521300I3000000J41D01*
G01*
X142757359Y-109600000D02*
G75*
G02*
X144878700Y-110478660I41J-3000000D01*
G01*
X144921321Y-110521321D02*
G75*
G02*
X145799971Y-112642641I-2121321J-2121279D01*
G01*
X126642641Y-109600000D02*
G75*
G03*
X124521301Y-110478659I-41J-3000000D01*
G01*
%TO.N,Board_14-Net-(J1-Pin_1)*%
X126642641Y-41000000D02*
X142757359Y-41000000D01*
X145800000Y-44042641D02*
X145800000Y-46400000D01*
X123600000Y-46400000D02*
X123600000Y-44042641D01*
X124478680Y-41921320D02*
X124521321Y-41878679D01*
X144878680Y-41878680D02*
X144921321Y-41921321D01*
X142757359Y-41000000D02*
G75*
G02*
X144878700Y-41878660I41J-3000000D01*
G01*
X126642641Y-41000000D02*
G75*
G03*
X124521301Y-41878659I-41J-3000000D01*
G01*
X144921321Y-41921321D02*
G75*
G02*
X145799971Y-44042641I-2121321J-2121279D01*
G01*
X123600000Y-44042641D02*
G75*
G02*
X124478660Y-41921300I3000000J41D01*
G01*
%TO.N,Board_14-Net-(J1-Pin_2)*%
X126931371Y-43268629D02*
X126868629Y-43331371D01*
X126400000Y-44462742D02*
X126400000Y-46400000D01*
X141337258Y-42800000D02*
X128062742Y-42800000D01*
X142531371Y-43331371D02*
X142468629Y-43268629D01*
X143000000Y-46400000D02*
X143000000Y-44462742D01*
X128062742Y-42800000D02*
G75*
G03*
X126931350Y-43268608I-42J-1600000D01*
G01*
X126868629Y-43331371D02*
G75*
G03*
X126400029Y-44462742I1131371J-1131329D01*
G01*
X141337258Y-42800000D02*
G75*
G02*
X142468650Y-43268608I42J-1600000D01*
G01*
X142531371Y-43331371D02*
G75*
G02*
X142999971Y-44462742I-1131371J-1131329D01*
G01*
%TO.N,Board_14-Net-(J1-Pin_3)*%
X129200000Y-46400000D02*
X140200000Y-46400000D01*
%TO.N,Board_47-Net-(J1-Pin_3)*%
X212000000Y-95400000D02*
X223000000Y-95400000D01*
%TO.N,Board_47-Net-(J1-Pin_2)*%
X225800000Y-95400000D02*
X225800000Y-93462742D01*
X209731371Y-92268629D02*
X209668629Y-92331371D01*
X224137258Y-91800000D02*
X210862742Y-91800000D01*
X209200000Y-93462742D02*
X209200000Y-95400000D01*
X225331371Y-92331371D02*
X225268629Y-92268629D01*
X224137258Y-91800000D02*
G75*
G02*
X225268650Y-92268608I42J-1600000D01*
G01*
X225331371Y-92331371D02*
G75*
G02*
X225799971Y-93462742I-1131371J-1131329D01*
G01*
X209668629Y-92331371D02*
G75*
G03*
X209200029Y-93462742I1131371J-1131329D01*
G01*
X210862742Y-91800000D02*
G75*
G03*
X209731350Y-92268608I-42J-1600000D01*
G01*
%TO.N,Board_47-Net-(J1-Pin_1)*%
X207278680Y-90921320D02*
X207321321Y-90878679D01*
X209442641Y-90000000D02*
X225557359Y-90000000D01*
X206400000Y-95400000D02*
X206400000Y-93042641D01*
X227678680Y-90878680D02*
X227721321Y-90921321D01*
X228600000Y-93042641D02*
X228600000Y-95400000D01*
X206400000Y-93042641D02*
G75*
G02*
X207278660Y-90921300I3000000J41D01*
G01*
X227721321Y-90921321D02*
G75*
G02*
X228599971Y-93042641I-2121321J-2121279D01*
G01*
X225557359Y-90000000D02*
G75*
G02*
X227678700Y-90878660I41J-3000000D01*
G01*
X209442641Y-90000000D02*
G75*
G03*
X207321301Y-90878659I-41J-3000000D01*
G01*
%TO.N,Board_63-Net-(J1-Pin_1)*%
X173400000Y-122442641D02*
X173400000Y-124800000D01*
X172478680Y-120278680D02*
X172521321Y-120321321D01*
X151200000Y-124800000D02*
X151200000Y-122442641D01*
X152078680Y-120321320D02*
X152121321Y-120278679D01*
X154242641Y-119400000D02*
X170357359Y-119400000D01*
X170357359Y-119400000D02*
G75*
G02*
X172478700Y-120278660I41J-3000000D01*
G01*
X154242641Y-119400000D02*
G75*
G03*
X152121301Y-120278659I-41J-3000000D01*
G01*
X151200000Y-122442641D02*
G75*
G02*
X152078660Y-120321300I3000000J41D01*
G01*
X172521321Y-120321321D02*
G75*
G02*
X173399971Y-122442641I-2121321J-2121279D01*
G01*
%TO.N,Board_63-Net-(J1-Pin_2)*%
X168937258Y-121200000D02*
X155662742Y-121200000D01*
X170600000Y-124800000D02*
X170600000Y-122862742D01*
X170131371Y-121731371D02*
X170068629Y-121668629D01*
X154531371Y-121668629D02*
X154468629Y-121731371D01*
X154000000Y-122862742D02*
X154000000Y-124800000D01*
X155662742Y-121200000D02*
G75*
G03*
X154531350Y-121668608I-42J-1600000D01*
G01*
X168937258Y-121200000D02*
G75*
G02*
X170068650Y-121668608I42J-1600000D01*
G01*
X170131371Y-121731371D02*
G75*
G02*
X170599971Y-122862742I-1131371J-1131329D01*
G01*
X154468629Y-121731371D02*
G75*
G03*
X154000029Y-122862742I1131371J-1131329D01*
G01*
%TO.N,Board_63-Net-(J1-Pin_3)*%
X156800000Y-124800000D02*
X167800000Y-124800000D01*
%TO.N,Board_44-Net-(J1-Pin_1)*%
X145800000Y-93042641D02*
X145800000Y-95400000D01*
X126642641Y-90000000D02*
X142757359Y-90000000D01*
X124478680Y-90921320D02*
X124521321Y-90878679D01*
X123600000Y-95400000D02*
X123600000Y-93042641D01*
X144878680Y-90878680D02*
X144921321Y-90921321D01*
X126642641Y-90000000D02*
G75*
G03*
X124521301Y-90878659I-41J-3000000D01*
G01*
X144921321Y-90921321D02*
G75*
G02*
X145799971Y-93042641I-2121321J-2121279D01*
G01*
X142757359Y-90000000D02*
G75*
G02*
X144878700Y-90878660I41J-3000000D01*
G01*
X123600000Y-93042641D02*
G75*
G02*
X124478660Y-90921300I3000000J41D01*
G01*
%TO.N,Board_44-Net-(J1-Pin_2)*%
X143000000Y-95400000D02*
X143000000Y-93462742D01*
X141337258Y-91800000D02*
X128062742Y-91800000D01*
X126400000Y-93462742D02*
X126400000Y-95400000D01*
X126931371Y-92268629D02*
X126868629Y-92331371D01*
X142531371Y-92331371D02*
X142468629Y-92268629D01*
X142531371Y-92331371D02*
G75*
G02*
X142999971Y-93462742I-1131371J-1131329D01*
G01*
X141337258Y-91800000D02*
G75*
G02*
X142468650Y-92268608I42J-1600000D01*
G01*
X128062742Y-91800000D02*
G75*
G03*
X126931350Y-92268608I-42J-1600000D01*
G01*
X126868629Y-92331371D02*
G75*
G03*
X126400029Y-93462742I1131371J-1131329D01*
G01*
%TO.N,Board_44-Net-(J1-Pin_3)*%
X129200000Y-95400000D02*
X140200000Y-95400000D01*
%TO.N,Board_45-Net-(J1-Pin_1)*%
X152078680Y-90921320D02*
X152121321Y-90878679D01*
X151200000Y-95400000D02*
X151200000Y-93042641D01*
X173400000Y-93042641D02*
X173400000Y-95400000D01*
X154242641Y-90000000D02*
X170357359Y-90000000D01*
X172478680Y-90878680D02*
X172521321Y-90921321D01*
X170357359Y-90000000D02*
G75*
G02*
X172478700Y-90878660I41J-3000000D01*
G01*
X154242641Y-90000000D02*
G75*
G03*
X152121301Y-90878659I-41J-3000000D01*
G01*
X151200000Y-93042641D02*
G75*
G02*
X152078660Y-90921300I3000000J41D01*
G01*
X172521321Y-90921321D02*
G75*
G02*
X173399971Y-93042641I-2121321J-2121279D01*
G01*
%TO.N,Board_45-Net-(J1-Pin_2)*%
X154531371Y-92268629D02*
X154468629Y-92331371D01*
X154000000Y-93462742D02*
X154000000Y-95400000D01*
X170131371Y-92331371D02*
X170068629Y-92268629D01*
X170600000Y-95400000D02*
X170600000Y-93462742D01*
X168937258Y-91800000D02*
X155662742Y-91800000D01*
X170131371Y-92331371D02*
G75*
G02*
X170599971Y-93462742I-1131371J-1131329D01*
G01*
X155662742Y-91800000D02*
G75*
G03*
X154531350Y-92268608I-42J-1600000D01*
G01*
X168937258Y-91800000D02*
G75*
G02*
X170068650Y-92268608I42J-1600000D01*
G01*
X154468629Y-92331371D02*
G75*
G03*
X154000029Y-93462742I1131371J-1131329D01*
G01*
%TO.N,Board_45-Net-(J1-Pin_3)*%
X156800000Y-95400000D02*
X167800000Y-95400000D01*
%TO.N,Board_3-Net-(J1-Pin_1)*%
X154242641Y-21400000D02*
X170357359Y-21400000D01*
X172478680Y-22278680D02*
X172521321Y-22321321D01*
X152078680Y-22321320D02*
X152121321Y-22278679D01*
X151200000Y-26800000D02*
X151200000Y-24442641D01*
X173400000Y-24442641D02*
X173400000Y-26800000D01*
X154242641Y-21400000D02*
G75*
G03*
X152121301Y-22278659I-41J-3000000D01*
G01*
X172521321Y-22321321D02*
G75*
G02*
X173399971Y-24442641I-2121321J-2121279D01*
G01*
X151200000Y-24442641D02*
G75*
G02*
X152078660Y-22321300I3000000J41D01*
G01*
X170357359Y-21400000D02*
G75*
G02*
X172478700Y-22278660I41J-3000000D01*
G01*
%TO.N,Board_3-Net-(J1-Pin_2)*%
X170600000Y-26800000D02*
X170600000Y-24862742D01*
X170131371Y-23731371D02*
X170068629Y-23668629D01*
X154000000Y-24862742D02*
X154000000Y-26800000D01*
X154531371Y-23668629D02*
X154468629Y-23731371D01*
X168937258Y-23200000D02*
X155662742Y-23200000D01*
X168937258Y-23200000D02*
G75*
G02*
X170068650Y-23668608I42J-1600000D01*
G01*
X155662742Y-23200000D02*
G75*
G03*
X154531350Y-23668608I-42J-1600000D01*
G01*
X154468629Y-23731371D02*
G75*
G03*
X154000029Y-24862742I1131371J-1131329D01*
G01*
X170131371Y-23731371D02*
G75*
G02*
X170599971Y-24862742I-1131371J-1131329D01*
G01*
%TO.N,Board_3-Net-(J1-Pin_3)*%
X156800000Y-26800000D02*
X167800000Y-26800000D01*
%TO.N,Board_31-Net-(J1-Pin_3)*%
X101600000Y-75800000D02*
X112600000Y-75800000D01*
%TO.N,Board_31-Net-(J1-Pin_2)*%
X98800000Y-73862742D02*
X98800000Y-75800000D01*
X114931371Y-72731371D02*
X114868629Y-72668629D01*
X115400000Y-75800000D02*
X115400000Y-73862742D01*
X99331371Y-72668629D02*
X99268629Y-72731371D01*
X113737258Y-72200000D02*
X100462742Y-72200000D01*
X99268629Y-72731371D02*
G75*
G03*
X98800029Y-73862742I1131371J-1131329D01*
G01*
X114931371Y-72731371D02*
G75*
G02*
X115399971Y-73862742I-1131371J-1131329D01*
G01*
X100462742Y-72200000D02*
G75*
G03*
X99331350Y-72668608I-42J-1600000D01*
G01*
X113737258Y-72200000D02*
G75*
G02*
X114868650Y-72668608I42J-1600000D01*
G01*
%TO.N,Board_31-Net-(J1-Pin_1)*%
X99042641Y-70400000D02*
X115157359Y-70400000D01*
X96878680Y-71321320D02*
X96921321Y-71278679D01*
X117278680Y-71278680D02*
X117321321Y-71321321D01*
X118200000Y-73442641D02*
X118200000Y-75800000D01*
X96000000Y-75800000D02*
X96000000Y-73442641D01*
X99042641Y-70400000D02*
G75*
G03*
X96921301Y-71278659I-41J-3000000D01*
G01*
X96000000Y-73442641D02*
G75*
G02*
X96878660Y-71321300I3000000J41D01*
G01*
X117321321Y-71321321D02*
G75*
G02*
X118199971Y-73442641I-2121321J-2121279D01*
G01*
X115157359Y-70400000D02*
G75*
G02*
X117278700Y-71278660I41J-3000000D01*
G01*
%TO.N,Board_0-Net-(J1-Pin_3)*%
X74000000Y-26800000D02*
X85000000Y-26800000D01*
%TO.N,Board_0-Net-(J1-Pin_2)*%
X71731371Y-23668629D02*
X71668629Y-23731371D01*
X87800000Y-26800000D02*
X87800000Y-24862742D01*
X71200000Y-24862742D02*
X71200000Y-26800000D01*
X86137258Y-23200000D02*
X72862742Y-23200000D01*
X87331371Y-23731371D02*
X87268629Y-23668629D01*
X87331371Y-23731371D02*
G75*
G02*
X87799971Y-24862742I-1131371J-1131329D01*
G01*
X86137258Y-23200000D02*
G75*
G02*
X87268650Y-23668608I42J-1600000D01*
G01*
X71668629Y-23731371D02*
G75*
G03*
X71200029Y-24862742I1131371J-1131329D01*
G01*
X72862742Y-23200000D02*
G75*
G03*
X71731350Y-23668608I-42J-1600000D01*
G01*
%TO.N,Board_0-Net-(J1-Pin_1)*%
X69278680Y-22321320D02*
X69321321Y-22278679D01*
X71442641Y-21400000D02*
X87557359Y-21400000D01*
X90600000Y-24442641D02*
X90600000Y-26800000D01*
X68400000Y-26800000D02*
X68400000Y-24442641D01*
X89678680Y-22278680D02*
X89721321Y-22321321D01*
X68400000Y-24442641D02*
G75*
G02*
X69278660Y-22321300I3000000J41D01*
G01*
X87557359Y-21400000D02*
G75*
G02*
X89678700Y-22278660I41J-3000000D01*
G01*
X89721321Y-22321321D02*
G75*
G02*
X90599971Y-24442641I-2121321J-2121279D01*
G01*
X71442641Y-21400000D02*
G75*
G03*
X69321301Y-22278659I-41J-3000000D01*
G01*
%TO.N,Board_50-Net-(J1-Pin_3)*%
X129200000Y-105200000D02*
X140200000Y-105200000D01*
%TO.N,Board_50-Net-(J1-Pin_2)*%
X141337258Y-101600000D02*
X128062742Y-101600000D01*
X143000000Y-105200000D02*
X143000000Y-103262742D01*
X126931371Y-102068629D02*
X126868629Y-102131371D01*
X142531371Y-102131371D02*
X142468629Y-102068629D01*
X126400000Y-103262742D02*
X126400000Y-105200000D01*
X126868629Y-102131371D02*
G75*
G03*
X126400029Y-103262742I1131371J-1131329D01*
G01*
X142531371Y-102131371D02*
G75*
G02*
X142999971Y-103262742I-1131371J-1131329D01*
G01*
X128062742Y-101600000D02*
G75*
G03*
X126931350Y-102068608I-42J-1600000D01*
G01*
X141337258Y-101600000D02*
G75*
G02*
X142468650Y-102068608I42J-1600000D01*
G01*
%TO.N,Board_50-Net-(J1-Pin_1)*%
X144878680Y-100678680D02*
X144921321Y-100721321D01*
X123600000Y-105200000D02*
X123600000Y-102842641D01*
X124478680Y-100721320D02*
X124521321Y-100678679D01*
X126642641Y-99800000D02*
X142757359Y-99800000D01*
X145800000Y-102842641D02*
X145800000Y-105200000D01*
X144921321Y-100721321D02*
G75*
G02*
X145799971Y-102842641I-2121321J-2121279D01*
G01*
X123600000Y-102842641D02*
G75*
G02*
X124478660Y-100721300I3000000J41D01*
G01*
X142757359Y-99800000D02*
G75*
G02*
X144878700Y-100678660I41J-3000000D01*
G01*
X126642641Y-99800000D02*
G75*
G03*
X124521301Y-100678659I-41J-3000000D01*
G01*
%TO.N,Board_28-Net-(J1-Pin_1)*%
X201000000Y-63642641D02*
X201000000Y-66000000D01*
X200078680Y-61478680D02*
X200121321Y-61521321D01*
X179678680Y-61521320D02*
X179721321Y-61478679D01*
X181842641Y-60600000D02*
X197957359Y-60600000D01*
X178800000Y-66000000D02*
X178800000Y-63642641D01*
X200121321Y-61521321D02*
G75*
G02*
X200999971Y-63642641I-2121321J-2121279D01*
G01*
X181842641Y-60600000D02*
G75*
G03*
X179721301Y-61478659I-41J-3000000D01*
G01*
X178800000Y-63642641D02*
G75*
G02*
X179678660Y-61521300I3000000J41D01*
G01*
X197957359Y-60600000D02*
G75*
G02*
X200078700Y-61478660I41J-3000000D01*
G01*
%TO.N,Board_28-Net-(J1-Pin_2)*%
X198200000Y-66000000D02*
X198200000Y-64062742D01*
X197731371Y-62931371D02*
X197668629Y-62868629D01*
X182131371Y-62868629D02*
X182068629Y-62931371D01*
X181600000Y-64062742D02*
X181600000Y-66000000D01*
X196537258Y-62400000D02*
X183262742Y-62400000D01*
X182068629Y-62931371D02*
G75*
G03*
X181600029Y-64062742I1131371J-1131329D01*
G01*
X197731371Y-62931371D02*
G75*
G02*
X198199971Y-64062742I-1131371J-1131329D01*
G01*
X183262742Y-62400000D02*
G75*
G03*
X182131350Y-62868608I-42J-1600000D01*
G01*
X196537258Y-62400000D02*
G75*
G02*
X197668650Y-62868608I42J-1600000D01*
G01*
%TO.N,Board_28-Net-(J1-Pin_3)*%
X184400000Y-66000000D02*
X195400000Y-66000000D01*
%TO.N,Board_65-Net-(J1-Pin_1)*%
X209442641Y-119400000D02*
X225557359Y-119400000D01*
X207278680Y-120321320D02*
X207321321Y-120278679D01*
X228600000Y-122442641D02*
X228600000Y-124800000D01*
X227678680Y-120278680D02*
X227721321Y-120321321D01*
X206400000Y-124800000D02*
X206400000Y-122442641D01*
X227721321Y-120321321D02*
G75*
G02*
X228599971Y-122442641I-2121321J-2121279D01*
G01*
X206400000Y-122442641D02*
G75*
G02*
X207278660Y-120321300I3000000J41D01*
G01*
X225557359Y-119400000D02*
G75*
G02*
X227678700Y-120278660I41J-3000000D01*
G01*
X209442641Y-119400000D02*
G75*
G03*
X207321301Y-120278659I-41J-3000000D01*
G01*
%TO.N,Board_65-Net-(J1-Pin_2)*%
X209200000Y-122862742D02*
X209200000Y-124800000D01*
X209731371Y-121668629D02*
X209668629Y-121731371D01*
X225800000Y-124800000D02*
X225800000Y-122862742D01*
X225331371Y-121731371D02*
X225268629Y-121668629D01*
X224137258Y-121200000D02*
X210862742Y-121200000D01*
X210862742Y-121200000D02*
G75*
G03*
X209731350Y-121668608I-42J-1600000D01*
G01*
X209668629Y-121731371D02*
G75*
G03*
X209200029Y-122862742I1131371J-1131329D01*
G01*
X224137258Y-121200000D02*
G75*
G02*
X225268650Y-121668608I42J-1600000D01*
G01*
X225331371Y-121731371D02*
G75*
G02*
X225799971Y-122862742I-1131371J-1131329D01*
G01*
%TO.N,Board_65-Net-(J1-Pin_3)*%
X212000000Y-124800000D02*
X223000000Y-124800000D01*
%TO.N,Board_22-Net-(J1-Pin_1)*%
X179678680Y-51721320D02*
X179721321Y-51678679D01*
X178800000Y-56200000D02*
X178800000Y-53842641D01*
X181842641Y-50800000D02*
X197957359Y-50800000D01*
X201000000Y-53842641D02*
X201000000Y-56200000D01*
X200078680Y-51678680D02*
X200121321Y-51721321D01*
X200121321Y-51721321D02*
G75*
G02*
X200999971Y-53842641I-2121321J-2121279D01*
G01*
X197957359Y-50800000D02*
G75*
G02*
X200078700Y-51678660I41J-3000000D01*
G01*
X178800000Y-53842641D02*
G75*
G02*
X179678660Y-51721300I3000000J41D01*
G01*
X181842641Y-50800000D02*
G75*
G03*
X179721301Y-51678659I-41J-3000000D01*
G01*
%TO.N,Board_22-Net-(J1-Pin_2)*%
X196537258Y-52600000D02*
X183262742Y-52600000D01*
X181600000Y-54262742D02*
X181600000Y-56200000D01*
X182131371Y-53068629D02*
X182068629Y-53131371D01*
X197731371Y-53131371D02*
X197668629Y-53068629D01*
X198200000Y-56200000D02*
X198200000Y-54262742D01*
X196537258Y-52600000D02*
G75*
G02*
X197668650Y-53068608I42J-1600000D01*
G01*
X182068629Y-53131371D02*
G75*
G03*
X181600029Y-54262742I1131371J-1131329D01*
G01*
X183262742Y-52600000D02*
G75*
G03*
X182131350Y-53068608I-42J-1600000D01*
G01*
X197731371Y-53131371D02*
G75*
G02*
X198199971Y-54262742I-1131371J-1131329D01*
G01*
%TO.N,Board_22-Net-(J1-Pin_3)*%
X184400000Y-56200000D02*
X195400000Y-56200000D01*
%TD*%
M02*
